<?xml version="1.0" encoding="utf-8"?>
<!-- Generator: Adobe Illustrator 16.0.0, SVG Export Plug-In . SVG Version: 6.00 Build 0)  -->
<!DOCTYPE svg PUBLIC "-//W3C//DTD SVG 1.1//EN" "https://www.w3.org/Graphics/SVG/1.1/DTD/svg11.dtd">
<svg version="1.1" id="Capa_1" xmlns="https://www.w3.org/2000/svg" xmlns:xlink="https://www.w3.org/1999/xlink" x="0px" y="0px"
	 width="113.375px" height="238.408px" viewBox="0 0 113.375 238.408" enable-background="new 0 0 113.375 238.408"
	 xml:space="preserve">
<g>
	<path fill="#FFFFFF" d="M59.213,237.171c-9.517,0-18.105-2.002-25.533-5.951c-7.429-3.947-13.511-9.396-18.073-16.189
		c-4.474-6.657-7.961-14.135-10.365-22.221c-2.39-8.035-3.792-16.773-4.167-25.974l-0.002-0.099v-11.158l45.396-0.01v2.422
		c0,4.49,0.073,8.477,0.217,11.848c0.141,3.332,0.521,7.036,1.13,11.012c0.588,3.858,1.387,7.029,2.372,9.424
		c0.92,2.244,2.229,4.147,3.895,5.66c1.493,1.358,3.207,2.02,5.242,2.02c4.057,0,9.449-1.512,9.449-14.582
		c0-14.775-7.634-29.783-22.688-44.602l-12.39-11.801c-3.954-3.695-7.168-6.838-9.535-9.326c-2.38-2.5-5.231-5.926-8.47-10.182
		c-3.28-4.312-5.885-8.547-7.746-12.589c-1.856-4.033-3.461-8.935-4.772-14.571c-1.319-5.653-1.989-11.725-1.989-18.044
		c0-18.555,5.371-33.486,15.963-44.379C27.753,6.968,41.982,1.436,59.434,1.436c14.654,0,27.281,5.914,37.533,17.579
		c10.173,11.572,15.33,25.706,15.33,42.01l-0.006,0.166l-0.104,1.52v12.365H66.026V72.73c0-0.967,0.057-2.444,0.169-4.39
		c0.106-1.851,0.159-3.401,0.159-4.605c0-2.83-0.178-5.581-0.525-8.178c-0.349-2.561-0.929-5.165-1.728-7.737
		c-0.709-2.281-1.793-4.097-3.22-5.397c-1.31-1.191-2.861-1.771-4.743-1.771c-3.54,0-6.015,1.451-7.789,4.568
		c-1.978,3.477-2.981,7.675-2.981,12.479c0,4.326,0.609,8.432,1.811,12.203c1.193,3.75,3.029,7.302,5.46,10.561
		c2.515,3.38,4.869,6.226,7.007,8.462c2.144,2.244,5.062,5.043,8.67,8.32c3.657,3.321,6.313,5.818,7.897,7.422
		c5.658,5.605,10.531,10.962,14.459,15.902c3.94,4.962,7.711,10.646,11.207,16.897c3.535,6.325,6.224,13.246,7.988,20.573
		c1.76,7.312,2.65,15.297,2.65,23.73c0,16.117-5.23,29.521-15.547,39.845C86.659,231.937,73.954,237.171,59.213,237.171z
		 M5.914,166.688c0.362,8.779,1.697,17.104,3.968,24.74c2.265,7.618,5.542,14.649,9.744,20.9
		c4.114,6.128,9.607,11.044,16.327,14.613c6.721,3.574,14.546,5.386,23.26,5.386c13.41,0,24.961-4.757,34.334-14.138
		c9.377-9.381,14.131-21.637,14.131-36.422c0-8.054-0.846-15.656-2.516-22.599c-1.664-6.896-4.188-13.403-7.509-19.345
		c-3.368-6.023-6.991-11.489-10.771-16.246c-3.811-4.792-8.553-10.005-14.096-15.495c-1.541-1.561-4.135-3.996-7.728-7.258
		c-3.692-3.354-6.692-6.233-8.916-8.56c-2.272-2.379-4.759-5.378-7.388-8.915c-2.751-3.688-4.835-7.721-6.191-11.983
		c-1.352-4.246-2.039-8.846-2.039-13.672c0-5.653,1.216-10.657,3.615-14.873c2.612-4.589,6.76-7.015,11.996-7.015
		c3.099,0,5.791,1.02,8.004,3.032c2.072,1.89,3.613,4.426,4.581,7.541c0.879,2.829,1.519,5.697,1.901,8.525
		c0.379,2.814,0.569,5.782,0.569,8.826c0,1.295-0.056,2.938-0.167,4.882c-0.035,0.613-0.064,1.108-0.089,1.617h36.408l0.006-7.772
		l0.104-1.52c-0.019-15.058-4.771-28.089-14.125-38.732C83.907,11.488,72.82,6.276,59.434,6.276
		c-16.095,0-29.155,5.039-38.818,14.976C10.933,31.21,6.024,45.006,6.024,62.257c0,5.95,0.625,11.651,1.861,16.945
		c1.239,5.319,2.737,9.911,4.456,13.646c1.713,3.721,4.137,7.652,7.202,11.683c3.13,4.113,5.865,7.403,8.125,9.775
		c2.302,2.42,5.447,5.495,9.35,9.142l12.436,11.846c16.041,15.788,24.162,31.954,24.162,48.077c0,16.054-7.771,19.424-14.291,19.424
		c-3.25,0-6.11-1.104-8.499-3.28c-2.2-1.998-3.922-4.488-5.116-7.399c-1.131-2.749-2.033-6.294-2.68-10.534
		c-0.634-4.146-1.032-8.03-1.181-11.535c-0.12-2.816-0.192-6.05-0.214-9.633L5.914,160.42V166.688z"/>
</g>
</svg>
