<?xml version="1.0" encoding="utf-8"?>
<!-- Generator: Adobe Illustrator 16.0.0, SVG Export Plug-In . SVG Version: 6.00 Build 0)  -->
<!DOCTYPE svg PUBLIC "-//W3C//DTD SVG 1.1//EN" "https://www.w3.org/Graphics/SVG/1.1/DTD/svg11.dtd">
<svg version="1.1" id="Capa_1" xmlns="https://www.w3.org/2000/svg" xmlns:xlink="https://www.w3.org/1999/xlink" x="0px" y="0px"
	 width="239.52px" height="279.396px" viewBox="0 0 239.52 279.396" enable-background="new 0 0 239.52 279.396"
	 xml:space="preserve">
<g>
	<path fill="#FFFFFF" d="M1.198,1.397L119.78,277.999L238.32,1.397H1.198z M215.793,16.249l-96.014,224.053L23.72,16.249H215.793z"
		/>
</g>
<g>
	<path fill="#FFFFFF" d="M84.057,121.718v-4.851l25.771-0.005c0,2.507,0.046,4.719,0.139,6.634c0.095,1.915,0.338,4,0.735,6.258
		c0.395,2.257,0.93,4.104,1.605,5.54c0.674,1.437,1.629,2.644,2.863,3.624c1.233,0.981,2.689,1.471,4.366,1.471
		c5.028,0,7.541-3.147,7.541-9.438c0-8.618-4.958-17.189-14.876-25.716l-7.892-6.565c-2.513-2.051-4.516-3.762-6.006-5.13
		c-1.49-1.367-3.247-3.214-5.273-5.539c-2.024-2.325-3.606-4.57-4.749-6.737c-1.139-2.165-2.118-4.775-2.933-7.831
		c-0.814-3.055-1.222-6.292-1.222-9.711c0-9.985,3.237-17.884,9.709-23.697c6.47-5.814,15.06-8.72,25.77-8.72
		c8.892,0,16.457,3.101,22.696,9.301c6.24,6.201,9.358,13.678,9.358,22.433l-0.069,0.889c0,0.593,0,4.75,0,5.524l-26.259,0.084
		c0-0.501,0.034-1.288,0.104-2.359c0.07-1.071,0.105-1.95,0.105-2.634c0-1.641-0.117-3.214-0.349-4.719
		c-0.233-1.504-0.618-3.009-1.152-4.513c-0.537-1.505-1.362-2.702-2.479-3.591c-1.119-0.888-2.468-1.333-4.051-1.333
		c-2.794,0-4.889,1.071-6.285,3.214c-1.397,2.144-2.096,4.674-2.096,7.591c0,2.555,0.408,4.948,1.223,7.182
		c0.814,2.234,2.048,4.32,3.701,6.258c1.652,1.938,3.178,3.545,4.574,4.821c1.398,1.277,3.259,2.838,5.587,4.685
		c2.329,1.847,3.98,3.204,4.96,4.069c3.584,3.102,6.609,6.008,9.077,8.72c2.468,2.713,4.796,5.78,6.983,9.199
		c2.188,3.419,3.831,7.112,4.926,11.079c1.092,3.967,1.641,8.253,1.641,12.857c0,8.617-3.144,15.673-9.429,21.167
		c-6.286,5.494-13.922,8.242-22.907,8.242c-5.82,0-10.988-1.051-15.503-3.146c-4.518-2.098-8.161-4.947-10.932-8.549
		c-2.77-3.602-4.898-7.592-6.39-11.969C85.152,131.43,84.291,126.734,84.057,121.718z"/>
</g>
</svg>
