<svg xmlns="http://www.w3.org/2000/svg" viewBox="0 0 254.99 254.99"><defs><style>.cls-1{fill:#333;}.cls-2{fill:#fff;}</style></defs><title>Asset 4</title><g id="Layer_2" data-name="Layer 2"><g id="cont"><circle class="cls-1" cx="127.49" cy="127.49" r="127.49"/><path class="cls-2" d="M45.31,101.17a7.16,7.16,0,0,1,2.5,2.59,7.57,7.57,0,0,1,.9,3.78,11.79,11.79,0,0,1-1.08,5,11.13,11.13,0,0,1-3,3.93,13.86,13.86,0,0,1-4.54,2.5,17.8,17.8,0,0,1-5.7.87H23.73l.24-1q.36,0,1.07-.09a5.49,5.49,0,0,0,1.05-.19A1.71,1.71,0,0,0,27,118a2.32,2.32,0,0,0,.41-.89l3.29-14.24c0-.2.08-.37.1-.5a2.43,2.43,0,0,0,0-.3,1,1,0,0,0-.61-.94,6.24,6.24,0,0,0-2-.54l.24-1H38.86a15.12,15.12,0,0,1,3.31.38A10.07,10.07,0,0,1,45.31,101.17Zm-4.25,13.71a13.74,13.74,0,0,0,1.51-3.78,18.35,18.35,0,0,0,.49-4.27,7.09,7.09,0,0,0-1.26-4.43A4.51,4.51,0,0,0,38,100.76l-1,0-.78,0L32.67,116.1a4.78,4.78,0,0,0-.1.53,3.75,3.75,0,0,0,0,.44,1.28,1.28,0,0,0,.67,1.25,4.17,4.17,0,0,0,1.88.34,6,6,0,0,0,3.47-1A8.28,8.28,0,0,0,41.05,114.88Z"/><path class="cls-2" d="M57.46,120.37a8.92,8.92,0,0,1-3-.47,5.81,5.81,0,0,1-2.15-1.3A5.41,5.41,0,0,1,51,116.66a6.88,6.88,0,0,1-.42-2.44,8.83,8.83,0,0,1,.63-3.29,8.65,8.65,0,0,1,1.88-2.87,8.86,8.86,0,0,1,3-2,10.18,10.18,0,0,1,4-.76,7.59,7.59,0,0,1,3.91.82,2.69,2.69,0,0,1,1.34,2.45,3.62,3.62,0,0,1-1.16,2.69A7.14,7.14,0,0,1,61.05,113a25.35,25.35,0,0,1-2.69.67q-1.11.2-2.72.37a10.81,10.81,0,0,0,.17,1.42,4.8,4.8,0,0,0,.43,1.35,2.61,2.61,0,0,0,1,1,3.07,3.07,0,0,0,1.61.38,5.88,5.88,0,0,0,2.88-.65A7.42,7.42,0,0,0,64,115.46l1,.88a9.59,9.59,0,0,1-3.31,2.94A8.75,8.75,0,0,1,57.46,120.37ZM60.71,109a3.32,3.32,0,0,0-.44-1.87,1.41,1.41,0,0,0-1.24-.65q-1.1,0-2.09,1.8a11.93,11.93,0,0,0-1.26,4.56q.85-.1,1.68-.26a6.3,6.3,0,0,0,1.32-.37A3.36,3.36,0,0,0,60.23,111,3.65,3.65,0,0,0,60.71,109Z"/><path class="cls-2" d="M72.84,120.37a12.74,12.74,0,0,1-3-.29,6,6,0,0,1-1.87-.75,2.63,2.63,0,0,1-1-1,2.24,2.24,0,0,1-.26-1,2,2,0,0,1,.62-1.46,2.24,2.24,0,0,1,1.66-.62,2.31,2.31,0,0,1,1.44.44,3.74,3.74,0,0,1,1,1.12,7.17,7.17,0,0,1,.6,1.36q.24.75.34,1.11a3.74,3.74,0,0,0,2.45-.7,2.34,2.34,0,0,0,.83-1.9,1.52,1.52,0,0,0-.25-.89,2.44,2.44,0,0,0-.67-.63,6.24,6.24,0,0,0-1.06-.5l-1.28-.46a6.8,6.8,0,0,1-2.75-1.63,3.57,3.57,0,0,1-1-2.59,3.68,3.68,0,0,1,.42-1.73,4.6,4.6,0,0,1,1.33-1.5,7.07,7.07,0,0,1,2.25-1.05,11.53,11.53,0,0,1,3.19-.39,14.83,14.83,0,0,1,2,.13,6.74,6.74,0,0,1,1.74.47,3,3,0,0,1,1.18.9,2.14,2.14,0,0,1,.42,1.34,1.81,1.81,0,0,1-.6,1.36,2.43,2.43,0,0,1-2.94.13,3.57,3.57,0,0,1-.9-1,6.36,6.36,0,0,1-.55-1.25l-.33-1.07a3.12,3.12,0,0,0-1.83.73,2.07,2.07,0,0,0-.83,1.67,2,2,0,0,0,.19.95,1.71,1.71,0,0,0,.52.57,4.56,4.56,0,0,0,.94.48q.57.22,1.41.51a8,8,0,0,1,2.94,1.65,3.38,3.38,0,0,1,1,2.54A4.37,4.37,0,0,1,78.41,119a7.31,7.31,0,0,1-2.28,1A12.81,12.81,0,0,1,72.84,120.37Z"/><path class="cls-2" d="M90.38,120.37a7.45,7.45,0,0,1-5.15-1.65,5.78,5.78,0,0,1-1.84-4.54,9.24,9.24,0,0,1,.59-3.29A8.35,8.35,0,0,1,85.79,108a8.52,8.52,0,0,1,2.91-2,10,10,0,0,1,4-.76,6.77,6.77,0,0,1,3.88.93,3,3,0,0,1,1.34,2.57,3.93,3.93,0,0,1-.14,1,2.58,2.58,0,0,1-.43.92,2.77,2.77,0,0,1-.78.7,2.6,2.6,0,0,1-1.27.24,2.55,2.55,0,0,1-1.74-.55,1.56,1.56,0,0,1-.62-1.16,3.58,3.58,0,0,1,.3-1.42,12.66,12.66,0,0,1,.76-1.48,2.06,2.06,0,0,0-1.55-.62,3.22,3.22,0,0,0-2.79,2,10.43,10.43,0,0,0-1.1,5,5.94,5.94,0,0,0,.84,3.46,2.76,2.76,0,0,0,2.39,1.18,5.2,5.2,0,0,0,2.63-.61,7.66,7.66,0,0,0,2.16-2.09l1,.88a8.88,8.88,0,0,1-3.12,2.93A8.13,8.13,0,0,1,90.38,120.37Z"/><path class="cls-2" d="M109.64,118.1h-.12q-.5.43-1,.78a7.23,7.23,0,0,1-1.14.71,7.66,7.66,0,0,1-1.27.52,5,5,0,0,1-1.47.21,4.69,4.69,0,0,1-3.76-1.47,6,6,0,0,1-1.26-4,9.65,9.65,0,0,1,.7-3.69,10.31,10.31,0,0,1,1.88-3,9,9,0,0,1,2.79-2,7.77,7.77,0,0,1,3.36-.75,7.67,7.67,0,0,1,2.26.3,4.56,4.56,0,0,1,1.59.82l4.4-.9.2.23-2.12,8.83q-.11.45-.24,1.11a5.83,5.83,0,0,0-.13,1,1.4,1.4,0,0,0,.37,1.13,2.06,2.06,0,0,0,1.29.31,3.7,3.7,0,0,0,1-.16,6.75,6.75,0,0,0,.8-.26l-.32,1.29q-1.42.56-2.27.85a6.07,6.07,0,0,1-2,.29,4.23,4.23,0,0,1-2.36-.58A3.06,3.06,0,0,1,109.64,118.1Zm1.71-9.1a3.86,3.86,0,0,0-.09-.75,1.87,1.87,0,0,0-.3-.73,1.65,1.65,0,0,0-.67-.57,2.46,2.46,0,0,0-1-.19,2.63,2.63,0,0,0-1.75.68,6.36,6.36,0,0,0-1.42,1.81,10.44,10.44,0,0,0-.95,2.6,13.37,13.37,0,0,0-.34,3,7.47,7.47,0,0,0,.11,1.3,3.06,3.06,0,0,0,.35,1,1.82,1.82,0,0,0,.7.69,2.25,2.25,0,0,0,1.1.24,2.41,2.41,0,0,0,1.3-.39,5.83,5.83,0,0,0,1.16-1Z"/><path class="cls-2" d="M134.59,108.31a4.21,4.21,0,0,1-.19,1.25,2.85,2.85,0,0,1-.56,1,3,3,0,0,1-.88.72,2.87,2.87,0,0,1-1.29.24A2.52,2.52,0,0,1,130,111a1.56,1.56,0,0,1-.62-1.19,2.82,2.82,0,0,1,.18-1.06q.18-.45.57-1.35a6.36,6.36,0,0,0-1.66,1,11.16,11.16,0,0,0-1.33,1.33l-2.27,10.16h-4.74l2-8.83.22-1a5.41,5.41,0,0,0,.14-1.08,1.54,1.54,0,0,0-.32-1.13,1.87,1.87,0,0,0-1.24-.3,3.28,3.28,0,0,0-.94.14q-.48.14-.83.27l.32-1.29q1.16-.47,2.22-.81a6.64,6.64,0,0,1,2-.34,4,4,0,0,1,2.53.67,3.2,3.2,0,0,1,1.11,1.87h.1a12.47,12.47,0,0,1,2.42-2.1,4.06,4.06,0,0,1,2.13-.6,2.49,2.49,0,0,1,1.93.77A3.17,3.17,0,0,1,134.59,108.31Z"/><path class="cls-2" d="M150.87,108.31a4.21,4.21,0,0,1-.19,1.25,2.85,2.85,0,0,1-.56,1,3,3,0,0,1-.88.72,2.87,2.87,0,0,1-1.29.24,2.52,2.52,0,0,1-1.69-.53,1.56,1.56,0,0,1-.62-1.19,2.82,2.82,0,0,1,.18-1.06q.18-.45.57-1.35a6.36,6.36,0,0,0-1.66,1,11.16,11.16,0,0,0-1.33,1.33l-2.27,10.16H136.4l2-8.83.22-1a5.41,5.41,0,0,0,.14-1.08,1.54,1.54,0,0,0-.32-1.13,1.87,1.87,0,0,0-1.24-.3,3.28,3.28,0,0,0-.94.14q-.48.14-.83.27l.32-1.29q1.16-.47,2.22-.81a6.64,6.64,0,0,1,2-.34,4,4,0,0,1,2.53.67A3.2,3.2,0,0,1,143.6,108h.1a12.47,12.47,0,0,1,2.42-2.1,4.06,4.06,0,0,1,2.13-.6,2.49,2.49,0,0,1,1.93.77A3.17,3.17,0,0,1,150.87,108.31Z"/><path class="cls-2" d="M159.11,120.37a8.92,8.92,0,0,1-3-.47,5.81,5.81,0,0,1-2.15-1.3,5.41,5.41,0,0,1-1.25-1.94,6.88,6.88,0,0,1-.42-2.44,8.83,8.83,0,0,1,.63-3.29,8.65,8.65,0,0,1,1.88-2.87,8.86,8.86,0,0,1,3-2,10.18,10.18,0,0,1,4-.76,7.59,7.59,0,0,1,3.91.82,2.69,2.69,0,0,1,1.34,2.45,3.62,3.62,0,0,1-1.16,2.69A7.14,7.14,0,0,1,162.7,113a25.35,25.35,0,0,1-2.69.67q-1.11.2-2.72.37a10.82,10.82,0,0,0,.17,1.42,4.8,4.8,0,0,0,.43,1.35,2.61,2.61,0,0,0,1,1,3.07,3.07,0,0,0,1.61.38,5.88,5.88,0,0,0,2.88-.65,7.42,7.42,0,0,0,2.26-2.07l1,.88a9.59,9.59,0,0,1-3.31,2.94A8.75,8.75,0,0,1,159.11,120.37ZM162.35,109a3.32,3.32,0,0,0-.44-1.87,1.41,1.41,0,0,0-1.24-.65q-1.1,0-2.09,1.8a11.93,11.93,0,0,0-1.26,4.56q.85-.1,1.68-.26a6.3,6.3,0,0,0,1.32-.37,3.36,3.36,0,0,0,1.55-1.22A3.65,3.65,0,0,0,162.35,109Z"/><path class="cls-2" d="M179,118.39h-.11q-.36.29-.83.62a6.24,6.24,0,0,1-1,.57,8.12,8.12,0,0,1-1.23.48,5.34,5.34,0,0,1-1.45.17,5,5,0,0,1-3.84-1.46,5.73,5.73,0,0,1-1.34-4,9.61,9.61,0,0,1,.69-3.64,10.12,10.12,0,0,1,1.87-3,8.68,8.68,0,0,1,2.75-2,7.79,7.79,0,0,1,3.35-.75,8.63,8.63,0,0,1,2.28.27,4.68,4.68,0,0,1,1.71.85l4.38-.9.2.23L184,117.44a14.46,14.46,0,0,1-1.59,4.31,9.24,9.24,0,0,1-2.37,2.71,8.45,8.45,0,0,1-2.88,1.41,12.31,12.31,0,0,1-3.15.4,12.78,12.78,0,0,1-2.88-.27,5,5,0,0,1-1.7-.68,2.14,2.14,0,0,1-.78-.9,2.49,2.49,0,0,1-.21-1A2.15,2.15,0,0,1,169,122a2.05,2.05,0,0,1,1.62-.65,2.4,2.4,0,0,1,1.39.42,4.74,4.74,0,0,1,1.07,1,7.76,7.76,0,0,1,.78,1.23q.36.7.55,1.13a6.76,6.76,0,0,0,1.31-.37,3.25,3.25,0,0,0,1.26-1,7.83,7.83,0,0,0,1.1-1.91A18,18,0,0,0,179,118.39Zm1.93-9.4a3.09,3.09,0,0,0-.09-.74,1.9,1.9,0,0,0-.37-.72,2,2,0,0,0-.68-.57,2.4,2.4,0,0,0-1.09-.21,2.62,2.62,0,0,0-1.72.67,6.06,6.06,0,0,0-1.39,1.79,10.6,10.6,0,0,0-.93,2.58,13.29,13.29,0,0,0-.34,3,6.21,6.21,0,0,0,.12,1.27,3,3,0,0,0,.42,1,1.91,1.91,0,0,0,.78.69,2.49,2.49,0,0,0,1.08.23,2.86,2.86,0,0,0,1.44-.43,5,5,0,0,0,1.18-.92Z"/><path class="cls-2" d="M198.84,118.1h-.12q-.5.43-1,.78a7.23,7.23,0,0,1-1.14.71,7.66,7.66,0,0,1-1.27.52,5,5,0,0,1-1.47.21,4.69,4.69,0,0,1-3.76-1.47,6,6,0,0,1-1.26-4,9.65,9.65,0,0,1,.7-3.69,10.31,10.31,0,0,1,1.88-3,9,9,0,0,1,2.79-2,7.77,7.77,0,0,1,3.36-.75,7.67,7.67,0,0,1,2.26.3,4.56,4.56,0,0,1,1.59.82l4.4-.9.2.23-2.12,8.83q-.11.45-.24,1.11a5.83,5.83,0,0,0-.13,1,1.4,1.4,0,0,0,.37,1.13,2.06,2.06,0,0,0,1.29.31,3.7,3.7,0,0,0,1-.16,6.75,6.75,0,0,0,.8-.26l-.32,1.29q-1.42.56-2.27.85a6.07,6.07,0,0,1-2,.29,4.23,4.23,0,0,1-2.36-.58A3.06,3.06,0,0,1,198.84,118.1Zm1.71-9.1a3.86,3.86,0,0,0-.09-.75,1.87,1.87,0,0,0-.3-.73,1.65,1.65,0,0,0-.67-.57,2.46,2.46,0,0,0-1-.19,2.63,2.63,0,0,0-1.75.68,6.36,6.36,0,0,0-1.42,1.81,10.44,10.44,0,0,0-.95,2.6,13.37,13.37,0,0,0-.34,3,7.47,7.47,0,0,0,.11,1.3,3.06,3.06,0,0,0,.35,1,1.82,1.82,0,0,0,.7.69,2.25,2.25,0,0,0,1.1.24,2.41,2.41,0,0,0,1.3-.39,5.83,5.83,0,0,0,1.16-1Z"/><path class="cls-2" d="M223.79,108.31a4.21,4.21,0,0,1-.19,1.25,2.85,2.85,0,0,1-.56,1,3,3,0,0,1-.88.72,2.87,2.87,0,0,1-1.29.24,2.52,2.52,0,0,1-1.69-.53,1.56,1.56,0,0,1-.62-1.19,2.82,2.82,0,0,1,.18-1.06q.18-.45.57-1.35a6.36,6.36,0,0,0-1.66,1,11.16,11.16,0,0,0-1.33,1.33l-2.27,10.16h-4.74l2-8.83.22-1a5.41,5.41,0,0,0,.14-1.08,1.54,1.54,0,0,0-.32-1.13,1.87,1.87,0,0,0-1.24-.3,3.28,3.28,0,0,0-.94.14q-.48.14-.83.27l.32-1.29q1.16-.47,2.22-.81a6.64,6.64,0,0,1,2-.34,4,4,0,0,1,2.53.67,3.2,3.2,0,0,1,1.11,1.87h.1a12.47,12.47,0,0,1,2.42-2.1,4.06,4.06,0,0,1,2.13-.6,2.49,2.49,0,0,1,1.93.77A3.17,3.17,0,0,1,223.79,108.31Z"/><path class="cls-2" d="M84.87,134.08a7.16,7.16,0,0,1,2.5,2.59,7.57,7.57,0,0,1,.9,3.78,11.79,11.79,0,0,1-1.08,5,11.13,11.13,0,0,1-3,3.93,13.86,13.86,0,0,1-4.54,2.5,17.8,17.8,0,0,1-5.7.87H63.29l.24-1q.36,0,1.07-.09a5.49,5.49,0,0,0,1.05-.19,1.71,1.71,0,0,0,.85-.57,2.32,2.32,0,0,0,.41-.89l3.29-14.24c0-.2.08-.37.1-.5a2.43,2.43,0,0,0,0-.3,1,1,0,0,0-.61-.94,6.24,6.24,0,0,0-2-.54l.24-1H78.43a15.12,15.12,0,0,1,3.31.38A10.07,10.07,0,0,1,84.87,134.08Zm-4.25,13.71A13.74,13.74,0,0,0,82.13,144a18.35,18.35,0,0,0,.49-4.27,7.09,7.09,0,0,0-1.26-4.43,4.51,4.51,0,0,0-3.81-1.64l-1,0-.78,0L72.24,149a4.78,4.78,0,0,0-.1.53,3.75,3.75,0,0,0,0,.44,1.28,1.28,0,0,0,.67,1.25,4.17,4.17,0,0,0,1.88.34,6,6,0,0,0,3.47-1A8.28,8.28,0,0,0,80.62,147.79Z"/><path class="cls-2" d="M106.92,144.2a8.89,8.89,0,0,1-.69,3.46,8.49,8.49,0,0,1-2,2.87,9.58,9.58,0,0,1-3.19,2,11.29,11.29,0,0,1-4.11.71A7.27,7.27,0,0,1,92,151.63a5.57,5.57,0,0,1-1.88-4.44,8.79,8.79,0,0,1,.71-3.54,8.69,8.69,0,0,1,2-2.86,9.23,9.23,0,0,1,3.1-1.89,11.13,11.13,0,0,1,4-.7,7.67,7.67,0,0,1,5.12,1.59A5.47,5.47,0,0,1,106.92,144.2Zm-5.05-1.62a4.28,4.28,0,0,0-.57-2.47,1.9,1.9,0,0,0-1.64-.79,2.86,2.86,0,0,0-2,.88,6.33,6.33,0,0,0-1.49,2.59,15,15,0,0,0-.72,3.08,23.28,23.28,0,0,0-.22,3,4.32,4.32,0,0,0,.57,2.52,1.94,1.94,0,0,0,1.67.78,2.65,2.65,0,0,0,2-1,7.06,7.06,0,0,0,1.36-2.37,16,16,0,0,0,.76-3A20.78,20.78,0,0,0,101.86,142.58Z"/><path class="cls-2" d="M114.71,153.27a12.74,12.74,0,0,1-3-.29,6,6,0,0,1-1.87-.75,2.63,2.63,0,0,1-1-1,2.24,2.24,0,0,1-.26-1,2,2,0,0,1,.62-1.46,2.24,2.24,0,0,1,1.66-.62,2.31,2.31,0,0,1,1.44.44,3.74,3.74,0,0,1,1,1.12,7.17,7.17,0,0,1,.6,1.36q.24.75.34,1.11a3.74,3.74,0,0,0,2.45-.7,2.34,2.34,0,0,0,.83-1.9,1.52,1.52,0,0,0-.25-.89,2.44,2.44,0,0,0-.67-.63,6.24,6.24,0,0,0-1.06-.5l-1.28-.46a6.8,6.8,0,0,1-2.75-1.63,3.57,3.57,0,0,1-1-2.59,3.68,3.68,0,0,1,.42-1.73,4.6,4.6,0,0,1,1.33-1.5,7.07,7.07,0,0,1,2.25-1.05,11.53,11.53,0,0,1,3.19-.39,14.83,14.83,0,0,1,2,.13,6.74,6.74,0,0,1,1.74.47,3,3,0,0,1,1.18.9,2.14,2.14,0,0,1,.42,1.34,1.81,1.81,0,0,1-.6,1.36,2.43,2.43,0,0,1-2.94.13,3.57,3.57,0,0,1-.9-1,6.36,6.36,0,0,1-.55-1.25l-.33-1.07a3.12,3.12,0,0,0-1.83.73,2.07,2.07,0,0,0-.83,1.67,2,2,0,0,0,.19.95,1.71,1.71,0,0,0,.52.57,4.56,4.56,0,0,0,.94.48q.57.22,1.41.51a8,8,0,0,1,2.94,1.65,3.38,3.38,0,0,1,1,2.54,4.37,4.37,0,0,1-1.85,3.56,7.31,7.31,0,0,1-2.28,1A12.81,12.81,0,0,1,114.71,153.27Z"/><path class="cls-2" d="M130.5,153.27a12.74,12.74,0,0,1-3-.29,6,6,0,0,1-1.87-.75,2.63,2.63,0,0,1-1-1,2.24,2.24,0,0,1-.26-1,2,2,0,0,1,.62-1.46,2.24,2.24,0,0,1,1.66-.62,2.31,2.31,0,0,1,1.44.44,3.74,3.74,0,0,1,1,1.12,7.17,7.17,0,0,1,.6,1.36q.24.75.34,1.11a3.74,3.74,0,0,0,2.45-.7,2.34,2.34,0,0,0,.83-1.9,1.52,1.52,0,0,0-.25-.89,2.44,2.44,0,0,0-.67-.63,6.24,6.24,0,0,0-1.06-.5l-1.28-.46a6.8,6.8,0,0,1-2.75-1.63,3.57,3.57,0,0,1-1-2.59,3.68,3.68,0,0,1,.42-1.73,4.6,4.6,0,0,1,1.33-1.5,7.07,7.07,0,0,1,2.25-1.05,11.53,11.53,0,0,1,3.19-.39,14.83,14.83,0,0,1,2,.13,6.74,6.74,0,0,1,1.74.47,3,3,0,0,1,1.18.9,2.14,2.14,0,0,1,.42,1.34,1.81,1.81,0,0,1-.6,1.36,2.43,2.43,0,0,1-2.94.13,3.57,3.57,0,0,1-.9-1,6.36,6.36,0,0,1-.55-1.25l-.33-1.07a3.12,3.12,0,0,0-1.83.73,2.07,2.07,0,0,0-.83,1.67,2,2,0,0,0,.19.95,1.71,1.71,0,0,0,.52.57,4.56,4.56,0,0,0,.94.48q.57.22,1.41.51a8,8,0,0,1,2.94,1.65,3.38,3.38,0,0,1,1,2.54,4.37,4.37,0,0,1-1.85,3.56,7.31,7.31,0,0,1-2.28,1A12.81,12.81,0,0,1,130.5,153.27Z"/><path class="cls-2" d="M150.28,150.74,150,152q-1.42.56-2.27.85a6,6,0,0,1-2,.29,3.92,3.92,0,0,1-2.68-.84,2.71,2.71,0,0,1-1-2.13,7.41,7.41,0,0,1,.07-1,12,12,0,0,1,.23-1.18l1.18-4.19q.16-.6.27-1.14a5,5,0,0,0,.11-1,1.52,1.52,0,0,0-.33-1.12,1.87,1.87,0,0,0-1.27-.32,3.33,3.33,0,0,0-.94.14c-.32.1-.6.19-.83.27l.32-1.29q1.16-.47,2.23-.81a6.67,6.67,0,0,1,2-.34,3.84,3.84,0,0,1,2.64.83,2.74,2.74,0,0,1,.93,2.15q0,.27-.06,1a6.55,6.55,0,0,1-.24,1.26l-1.18,4.18a11.75,11.75,0,0,0-.26,1.15,6.13,6.13,0,0,0-.11,1,1.41,1.41,0,0,0,.37,1.13,2.1,2.1,0,0,0,1.29.3,3.69,3.69,0,0,0,1-.15A5.5,5.5,0,0,0,150.28,150.74Zm.3-17.53a2.45,2.45,0,0,1-.83,1.86,3,3,0,0,1-4,0,2.44,2.44,0,0,1-.83-1.86,2.46,2.46,0,0,1,.83-1.87,2.95,2.95,0,0,1,4,0A2.47,2.47,0,0,1,150.59,133.21Z"/><path class="cls-2" d="M159.23,153.27a8.92,8.92,0,0,1-3-.47,5.81,5.81,0,0,1-2.15-1.3,5.41,5.41,0,0,1-1.25-1.94,6.88,6.88,0,0,1-.42-2.44,8.83,8.83,0,0,1,.63-3.29A8.65,8.65,0,0,1,154.9,141a8.86,8.86,0,0,1,3-2,10.18,10.18,0,0,1,4-.76,7.59,7.59,0,0,1,3.91.82,2.69,2.69,0,0,1,1.34,2.45,3.62,3.62,0,0,1-1.16,2.69,7.14,7.14,0,0,1-3.16,1.67,25.35,25.35,0,0,1-2.69.67q-1.11.2-2.72.37a10.81,10.81,0,0,0,.17,1.42,4.8,4.8,0,0,0,.43,1.35,2.61,2.61,0,0,0,1,1,3.07,3.07,0,0,0,1.61.38,5.88,5.88,0,0,0,2.88-.65,7.42,7.42,0,0,0,2.26-2.07l1,.88a9.59,9.59,0,0,1-3.31,2.94A8.75,8.75,0,0,1,159.23,153.27Zm3.24-11.37A3.32,3.32,0,0,0,162,140a1.41,1.41,0,0,0-1.24-.65q-1.1,0-2.09,1.8a11.93,11.93,0,0,0-1.26,4.56q.85-.1,1.68-.26a6.3,6.3,0,0,0,1.32-.37,3.36,3.36,0,0,0,1.55-1.22A3.65,3.65,0,0,0,162.47,141.9Z"/><path class="cls-2" d="M184.23,141.21a4.21,4.21,0,0,1-.19,1.25,2.85,2.85,0,0,1-.56,1,3,3,0,0,1-.88.72,2.87,2.87,0,0,1-1.29.24,2.52,2.52,0,0,1-1.69-.53,1.56,1.56,0,0,1-.62-1.19,2.82,2.82,0,0,1,.18-1.06q.18-.45.57-1.35a6.36,6.36,0,0,0-1.66,1,11.16,11.16,0,0,0-1.33,1.33L174.5,152.8h-4.74l2-8.83.22-1a5.41,5.41,0,0,0,.14-1.08,1.54,1.54,0,0,0-.32-1.13,1.87,1.87,0,0,0-1.24-.3,3.28,3.28,0,0,0-.94.14q-.48.14-.83.27l.32-1.29q1.16-.47,2.22-.81a6.64,6.64,0,0,1,2-.34,4,4,0,0,1,2.53.67,3.2,3.2,0,0,1,1.11,1.87h.1a12.47,12.47,0,0,1,2.42-2.1,4.06,4.06,0,0,1,2.13-.6,2.49,2.49,0,0,1,1.93.77A3.17,3.17,0,0,1,184.23,141.21Z"/></g></g></svg>