<svg xmlns="http://www.w3.org/2000/svg" viewBox="0 0 219.97 219.95"><defs><style>.cls-1{fill:#00cda8;}.cls-2{fill:#fff;}</style></defs><title>Asset 3</title><g id="Layer_2" data-name="Layer 2"><g id="cont"><polygon class="cls-1" points="219.97 0 0 219.95 0 139.34 139.32 0 219.97 0"/><path class="cls-2" d="M48.91,112.79l3.36,5.38-1,1a7.71,7.71,0,0,0-2.84-1.71,2.56,2.56,0,0,0-2.37.28q-.43.33-1,.86t-1.26,1.21l-2.91,2.91,5.61,9,2-2a6.52,6.52,0,0,0,1.29-1.66,3.32,3.32,0,0,0,.32-1.55,6.32,6.32,0,0,0-.31-1.8,10.72,10.72,0,0,0-.62-1.64l1-1,5.44,8.71-1,1c-.09-.09-.2-.21-.32-.36s-.25-.29-.41-.45a8.84,8.84,0,0,0-1-.84,2.78,2.78,0,0,0-.82-.46,1.8,1.8,0,0,0-1.42.11,6.42,6.42,0,0,0-1.45,1.14l-2,2,4.26,6.83a9.32,9.32,0,0,0,.54.8,6.08,6.08,0,0,0,.51.62,1.3,1.3,0,0,0,1.44.43,9.39,9.39,0,0,0,2.46-2,25.22,25.22,0,0,0,2.76-3.07,3.82,3.82,0,0,0,.69-1.59,15.6,15.6,0,0,0-.18-3.59,28,28,0,0,0-.57-3.19l.92-.92,3.77,6.91L48.82,149.13l-.65-1q.37-.42.94-1.16a6.25,6.25,0,0,0,.71-1.05A2,2,0,0,0,50,144.7a2.82,2.82,0,0,0-.45-1.1L39.43,127.4l-.19-.27a2.25,2.25,0,0,0-.22-.26,1.36,1.36,0,0,0-.57-.35,1.21,1.21,0,0,0-.73,0,5,5,0,0,0-1.16.57,9.76,9.76,0,0,0-1,.73l-.65-1Z"/><path class="cls-2" d="M80.12,114.87l.63,1q-.69,1.61-1.12,2.47a5.85,5.85,0,0,1-1.08,1.51,2.9,2.9,0,0,1-2.07,1,2.56,2.56,0,0,1-1.82-.8,6,6,0,0,1-.57-.67q-.29-.39-.63-1l-3.51-6q-.41-.69-.77-1.22a6,6,0,0,0-.63-.8,3,3,0,0,0-1.76-.95,2.07,2.07,0,0,0-1.7.71,5.34,5.34,0,0,0-1.22,2.25,9.1,9.1,0,0,0-.33,3.3l7.2,11.57-2.39,2.39L62,119.42l-.7-1.07a6.86,6.86,0,0,0-.82-1.06,2,2,0,0,0-1.2-.72,2,2,0,0,0-1.22.73,5,5,0,0,0-.62.82c-.23.35-.4.63-.52.84l-.62-1a19,19,0,0,1,1.11-2.44A7.11,7.11,0,0,1,58.46,114a2.47,2.47,0,0,1,2-.9,3.53,3.53,0,0,1,2,1.06l.08-.08a23.12,23.12,0,0,1,.75-4.09A6.84,6.84,0,0,1,65,107.1a3.59,3.59,0,0,1,2.62-1.2,3.62,3.62,0,0,1,2.55,1.17A11.55,11.55,0,0,1,71,108a11.8,11.8,0,0,1,.94,1.39l3,5.18q.3.52.72,1.16a6.16,6.16,0,0,0,.72.93,1.75,1.75,0,0,0,1.31.67,2.35,2.35,0,0,0,1.31-.79,6,6,0,0,0,.61-.78A6.2,6.2,0,0,0,80.12,114.87Z"/><path class="cls-2" d="M97,97.46l-.12.06q0,.46-.15,1.3a9.79,9.79,0,0,1-.32,1.63,10,10,0,0,1-.63,1.75,5.49,5.49,0,0,1-1.11,1.55,4.78,4.78,0,0,1-4.17,1.54,8.22,8.22,0,0,1-4.62-2.61A11.93,11.93,0,0,1,83.44,99a12.71,12.71,0,0,1-1.07-4.25,10.64,10.64,0,0,1,.52-4.13,8.93,8.93,0,0,1,4.13-5,7.16,7.16,0,0,1,1.87-.76l1.74-2.94.35,0,7.93,12.22a24.3,24.3,0,0,1,2.62,5.11,11.61,11.61,0,0,1,.74,4.26,8.61,8.61,0,0,1-.91,3.6A12.73,12.73,0,0,1,99,110.33a10.45,10.45,0,0,1-1.9,1.56,4.5,4.5,0,0,1-1.49.62,1.94,1.94,0,0,1-1.12-.09,2.47,2.47,0,0,1-.78-.51,2,2,0,0,1-.62-1.31,1.69,1.69,0,0,1,.56-1.33,1.72,1.72,0,0,1,1.08-.53,3.61,3.61,0,0,1,1.13.06,7.9,7.9,0,0,1,1.21.37l1,.38.38-.38a5.82,5.82,0,0,0,1.19-1.83,5.71,5.71,0,0,0,.43-2.5,11.33,11.33,0,0,0-.72-3.25A18.17,18.17,0,0,0,97,97.46Zm-6.47-9.87a3.73,3.73,0,0,0-.84-.63,2.46,2.46,0,0,0-1.1-.3,2.79,2.79,0,0,0-1.2.23,4.14,4.14,0,0,0-1.29.93,4.59,4.59,0,0,0-1.26,2.45,8.48,8.48,0,0,0,.06,3.21,12.11,12.11,0,0,0,1.29,3.41,13.79,13.79,0,0,0,2.37,3.18,11.66,11.66,0,0,0,1.5,1.28,4.78,4.78,0,0,0,1.48.73,2.78,2.78,0,0,0,1.44,0,3.13,3.13,0,0,0,1.41-.88,4.92,4.92,0,0,0,1.26-2.29,11.55,11.55,0,0,0,.35-3Z"/><path class="cls-2" d="M95.43,67.05a2.66,2.66,0,0,1,.8,1.74,2.12,2.12,0,0,1-.63,1.72,2.09,2.09,0,0,1-1.64.61,2.41,2.41,0,0,1-1.66-.71,2.51,2.51,0,0,1-.75-1.7,2.07,2.07,0,0,1,.6-1.65,2.2,2.2,0,0,1,1.68-.7A2.3,2.3,0,0,1,95.43,67.05ZM110.87,84.3l.63,1a24.21,24.21,0,0,1-1.22,2.54,6.87,6.87,0,0,1-1,1.39,2.88,2.88,0,0,1-2.06,1,2.57,2.57,0,0,1-1.82-.8,5.4,5.4,0,0,1-.56-.67q-.27-.37-.64-1L100.08,81q-.35-.55-.76-1.16a6.88,6.88,0,0,0-.77-1,2,2,0,0,0-1.19-.72,2,2,0,0,0-1.2.73,6,6,0,0,0-.66.84q-.37.55-.55.86l-.62-1a17.67,17.67,0,0,1,1.12-2.45,7.14,7.14,0,0,1,1-1.47,2.85,2.85,0,0,1,2-1,2.64,2.64,0,0,1,1.81.87,7.29,7.29,0,0,1,.58.68,9.22,9.22,0,0,1,.64.95l4.08,6.79q.37.63.76,1.2a6.1,6.1,0,0,0,.69.88,1.76,1.76,0,0,0,1.32.67,2.33,2.33,0,0,0,1.32-.78,7.5,7.5,0,0,0,.63-.76A4.91,4.91,0,0,0,110.87,84.3Z"/><path class="cls-2" d="M114.89,61.42a4.79,4.79,0,0,1,.68.89,3,3,0,0,1,.42,1,2.68,2.68,0,0,1,0,1A2.46,2.46,0,0,1,114,66a1.5,1.5,0,0,1-1.11-.42,3.51,3.51,0,0,1-.7-1.08q-.3-.68-.58-1.37a3.54,3.54,0,0,0-.42.59,6,6,0,0,0-.52,1.17,9.54,9.54,0,0,0-.4,1.86,14.21,14.21,0,0,0-.05,2.64l7.1,11.21L115,83l-6.42-10.15-.73-1.11a7.51,7.51,0,0,0-.79-1,2,2,0,0,0-1.2-.72,2,2,0,0,0-1.21.73,4.94,4.94,0,0,0-.62.81q-.34.53-.52.84l-.63-1a18.66,18.66,0,0,1,1.1-2.43,7,7,0,0,1,1.1-1.53,2.46,2.46,0,0,1,2-.9,3.79,3.79,0,0,1,2.1,1.23l.08-.08a36.87,36.87,0,0,1,.46-4.15,4.12,4.12,0,0,1,1.12-2.17,4.33,4.33,0,0,1,.89-.69,2.2,2.2,0,0,1,1-.31,2.38,2.38,0,0,1,1,.2A4.24,4.24,0,0,1,114.89,61.42Z"/><path class="cls-2" d="M133.31,61.26l-.09.09q0,.51-.09,1.25a8.65,8.65,0,0,1-.24,1.58,9.06,9.06,0,0,1-.53,1.64,4.76,4.76,0,0,1-1,1.51,5,5,0,0,1-4.23,1.57,8.07,8.07,0,0,1-4.68-2.58,11.82,11.82,0,0,1-2.49-3.67,13,13,0,0,1-1.06-4.31,10.94,10.94,0,0,1,.5-4.17,8.48,8.48,0,0,1,2.09-3.48,8.61,8.61,0,0,1,2-1.49,7.12,7.12,0,0,1,1.85-.75L127,45.53l.35,0,6.3,10.2q.3.5.76,1.18a7,7,0,0,0,.73.95,1.76,1.76,0,0,0,1.29.68,2.31,2.31,0,0,0,1.29-.78,6.18,6.18,0,0,0,.61-.77,5.72,5.72,0,0,0,.52-.86l.63,1q-.69,1.61-1.05,2.38a5.7,5.7,0,0,1-1.16,1.57,2.79,2.79,0,0,1-2,.92A2.88,2.88,0,0,1,133.31,61.26Zm-6.24-9.92a5,5,0,0,0-.9-.72,2.41,2.41,0,0,0-1.09-.35,2.51,2.51,0,0,0-1.21.19,4.07,4.07,0,0,0-1.32.93,4.44,4.44,0,0,0-1.2,2.43,8.83,8.83,0,0,0,.07,3.24,12.13,12.13,0,0,0,1.27,3.44A14,14,0,0,0,126.54,65a5,5,0,0,0,1.44.76,2.49,2.49,0,0,0,1.46.05,3.2,3.2,0,0,0,1.43-.89A4.63,4.63,0,0,0,132,63a10.25,10.25,0,0,0,.35-3.18Z"/><path class="cls-2" d="M132.83,30.48a4.54,4.54,0,0,1,.53.68,11.78,11.78,0,0,1,.7,1.26q1.21,2.41,2.82,5.77t3.93,7.93l-1,1q-2.52-3.39-5.91-7.72T130,34.25a3,3,0,0,1-.5-2,2.81,2.81,0,0,1,.81-1.76,1.77,1.77,0,0,1,1.31-.59A1.82,1.82,0,0,1,132.83,30.48ZM145.4,49.62a2.32,2.32,0,0,1,.7,1.74,2.49,2.49,0,0,1-2.47,2.47,2.32,2.32,0,0,1-1.74-.7,2.48,2.48,0,0,1,3.5-3.5Z"/></g></g></svg>