<svg xmlns="http://www.w3.org/2000/svg" viewBox="0 0 219.97 219.97"><defs><style>.cls-1{fill:#00cda8;}.cls-2{fill:#fff;}</style></defs><title>Asset 2</title><g id="Layer_2" data-name="Layer 2"><g id="cont"><polygon class="cls-1" points="219.97 0 0 219.97 0.01 139.36 139.32 0.04 219.97 0"/><path class="cls-2" d="M47.1,114.62,50.46,120l-1,1a7.71,7.71,0,0,0-2.84-1.71,2.56,2.56,0,0,0-2.37.28q-.44.33-1,.86T42,121.6l-2.91,2.91,5.61,9,2-2A6.52,6.52,0,0,0,48,129.79a3.34,3.34,0,0,0,.32-1.55,6.29,6.29,0,0,0-.31-1.8,10.83,10.83,0,0,0-.62-1.64l1-1,5.44,8.71-1,1q-.14-.14-.32-.36a5.93,5.93,0,0,0-.41-.45,8.78,8.78,0,0,0-1-.84,2.76,2.76,0,0,0-.82-.46,1.8,1.8,0,0,0-1.42.11,6.4,6.4,0,0,0-1.45,1.14l-2,2,4.26,6.83c.16.26.34.52.54.8a6.07,6.07,0,0,0,.51.62,1.3,1.3,0,0,0,1.44.43,9.37,9.37,0,0,0,2.46-2,25.17,25.17,0,0,0,2.76-3.07,3.82,3.82,0,0,0,.69-1.59,15.65,15.65,0,0,0-.18-3.59,27.75,27.75,0,0,0-.57-3.19l.92-.92,3.77,6.91L47,151l-.65-1q.37-.42.94-1.16a6.25,6.25,0,0,0,.71-1.05,2,2,0,0,0,.19-1.18,2.83,2.83,0,0,0-.45-1.1l-10.12-16.2c-.05-.09-.11-.18-.19-.27a2.29,2.29,0,0,0-.22-.26,1.36,1.36,0,0,0-.57-.35,1.21,1.21,0,0,0-.74,0,5,5,0,0,0-1.16.57,9.77,9.77,0,0,0-1,.73l-.65-1Z"/><path class="cls-2" d="M70.12,128.62a9.4,9.4,0,0,1-3.82,2.48,2.82,2.82,0,0,1-3-.5,2.08,2.08,0,0,1-.59-1.33,1.61,1.61,0,0,1,.46-1.35,1.89,1.89,0,0,1,1.06-.59,2.53,2.53,0,0,1,1,.06,5.71,5.71,0,0,1,1.13.45l1,.5a2.74,2.74,0,0,0,.93-.13,2.93,2.93,0,0,0,1.16-.79,4.07,4.07,0,0,0,1.4-2.78,3.53,3.53,0,0,0-1.16-2.58,2.36,2.36,0,0,0-2.05-.72,9.48,9.48,0,0,0-2.93,1,12.22,12.22,0,0,1-1.58.64,5.91,5.91,0,0,1-1.69.35,4.53,4.53,0,0,1-1.71-.23,4.17,4.17,0,0,1-1.61-1.05,5,5,0,0,1-1.37-4.3,7.77,7.77,0,0,1,2.4-4.79q.5-.5,1.13-1a8,8,0,0,1,1.55-1,3.85,3.85,0,0,1,1.63-.42,1.94,1.94,0,0,1,1.46.62,2.08,2.08,0,0,1,.6,1.3,1.61,1.61,0,0,1-.5,1.35,2,2,0,0,1-1,.58,2.36,2.36,0,0,1-1.06,0,5.14,5.14,0,0,1-1.07-.41q-.52-.27-1.06-.5a3.33,3.33,0,0,0-.58.29,3.87,3.87,0,0,0-.55.47,3.55,3.55,0,0,0-1.22,2.57,3.15,3.15,0,0,0,1,2.24,2.27,2.27,0,0,0,1.93.77,10.38,10.38,0,0,0,2.86-1,9.46,9.46,0,0,1,4-1.09A3.88,3.88,0,0,1,71,119a5.52,5.52,0,0,1,1.67,4.66A8.14,8.14,0,0,1,70.12,128.62Z"/><path class="cls-2" d="M81.06,117.46a3.76,3.76,0,0,1-2.27,1.28,2.51,2.51,0,0,1-2-.85,5.42,5.42,0,0,1-.52-.59q-.22-.3-.49-.7l-6.54-10.52L67,108.36l-.89-1.43,2.33-2.33L65.57,100l2.3-2.3,2.88,4.61,3.56-3.56.9,1.43-3.53,3.53,5.39,8.69q.37.6.75,1.13a6.74,6.74,0,0,0,.7.85,1.9,1.9,0,0,0,1.38.68,2.67,2.67,0,0,0,1.6-.95,10.18,10.18,0,0,0,.85-1,6.17,6.17,0,0,0,.72-1.14l.71,1.15q-.55,1.24-1.09,2.28A8.85,8.85,0,0,1,81.06,117.46Z"/><path class="cls-2" d="M87.89,88.45a4.83,4.83,0,0,1,.68.89,3,3,0,0,1,.42,1,2.67,2.67,0,0,1,0,1A2.46,2.46,0,0,1,87,93a1.5,1.5,0,0,1-1.11-.42,3.49,3.49,0,0,1-.7-1.08q-.3-.68-.58-1.37a3.58,3.58,0,0,0-.42.59,5.83,5.83,0,0,0-.52,1.17,9.6,9.6,0,0,0-.4,1.86,14.13,14.13,0,0,0-.05,2.64l7.1,11.21L88,110,81.54,99.86l-.74-1.11a7.33,7.33,0,0,0-.79-1,2,2,0,0,0-1.2-.72,2,2,0,0,0-1.21.73,4.8,4.8,0,0,0-.62.81q-.34.53-.52.84l-.63-1a18.67,18.67,0,0,1,1.1-2.43A7,7,0,0,1,78,94.41a2.46,2.46,0,0,1,2-.9,3.8,3.8,0,0,1,2.1,1.23l.08-.08a36.66,36.66,0,0,1,.46-4.15,4.12,4.12,0,0,1,1.12-2.17,4.28,4.28,0,0,1,.89-.69,2.19,2.19,0,0,1,1-.31,2.37,2.37,0,0,1,1,.2A4.23,4.23,0,0,1,87.89,88.45Z"/><path class="cls-2" d="M100.71,76.79A4.84,4.84,0,0,1,102.19,80a8.16,8.16,0,0,1-.92,4,26.59,26.59,0,0,1-1.7,3.11q-.94,1.48-2.23,3.13a7.57,7.57,0,0,0,3.83,2.34,3.54,3.54,0,0,0,3.26-1.12A5.69,5.69,0,0,0,106,88.54a11.07,11.07,0,0,0,0-3.83l1.27-.19a11.33,11.33,0,0,1-.06,5A8.54,8.54,0,0,1,105,93.69a6.4,6.4,0,0,1-4.72,2.19,7.12,7.12,0,0,1-4.79-2.4,13.26,13.26,0,0,1-2.57-3.58,12.59,12.59,0,0,1-1.2-4.15,10.31,10.31,0,0,1,.4-4.24,9,9,0,0,1,2.3-3.76,5.89,5.89,0,0,1,3.48-2A3.38,3.38,0,0,1,100.71,76.79Zm-2.67,2a2.55,2.55,0,0,0-.92-.64,1.46,1.46,0,0,0-.78-.07,1.69,1.69,0,0,0-.68.29,4.61,4.61,0,0,0-1.71,5,12.25,12.25,0,0,0,2.55,5.83q.76-1,1.65-2.38a10.5,10.5,0,0,0,1.25-2.48,5.41,5.41,0,0,0,.17-3A5.51,5.51,0,0,0,98,78.83Z"/><path class="cls-2" d="M125.18,69.84l.63,1q-.69,1.61-1.12,2.47a5.84,5.84,0,0,1-1.08,1.51,2.89,2.89,0,0,1-2.07,1,2.57,2.57,0,0,1-1.82-.8,5.85,5.85,0,0,1-.57-.67c-.19-.26-.4-.58-.63-1l-3.51-6q-.41-.69-.77-1.22a5.81,5.81,0,0,0-.63-.8,3,3,0,0,0-1.76-.95,2.07,2.07,0,0,0-1.7.71,5.33,5.33,0,0,0-1.22,2.25,9.12,9.12,0,0,0-.33,3.3l7.2,11.57-2.39,2.39L107,74.39l-.7-1.07a6.86,6.86,0,0,0-.82-1.06,2,2,0,0,0-1.2-.72,2,2,0,0,0-1.22.73,4.9,4.9,0,0,0-.62.82q-.34.53-.52.84l-.62-1a19.08,19.08,0,0,1,1.11-2.44,7.08,7.08,0,0,1,1.11-1.54,2.47,2.47,0,0,1,2-.9,3.53,3.53,0,0,1,2,1.06l.08-.08a23.12,23.12,0,0,1,.75-4.09,6.85,6.85,0,0,1,1.77-2.86,3.59,3.59,0,0,1,2.62-1.2A3.62,3.62,0,0,1,115.27,62a11.29,11.29,0,0,1,.75.89,11.69,11.69,0,0,1,.94,1.39l3,5.18q.29.53.72,1.16a6.23,6.23,0,0,0,.72.93,1.75,1.75,0,0,0,1.31.67,2.35,2.35,0,0,0,1.31-.79,5.9,5.9,0,0,0,.61-.78A6.29,6.29,0,0,0,125.18,69.84Z"/><path class="cls-2" d="M135.13,59.47l-.09.09q-.05.51-.09,1.25a8.57,8.57,0,0,1-.24,1.58,9.06,9.06,0,0,1-.53,1.64,4.79,4.79,0,0,1-1,1.51,5,5,0,0,1-4.23,1.57,8.06,8.06,0,0,1-4.68-2.58,11.82,11.82,0,0,1-2.5-3.67,13,13,0,0,1-1.06-4.31,10.94,10.94,0,0,1,.5-4.17,8.48,8.48,0,0,1,2.09-3.48,8.64,8.64,0,0,1,2-1.49,7.12,7.12,0,0,1,1.85-.75l1.74-2.95.35,0,6.3,10.2q.29.5.75,1.18a7.06,7.06,0,0,0,.73.95,1.76,1.76,0,0,0,1.29.68,2.31,2.31,0,0,0,1.29-.78,6.12,6.12,0,0,0,.61-.77,5.68,5.68,0,0,0,.53-.86l.63,1q-.69,1.61-1.05,2.38a5.7,5.7,0,0,1-1.16,1.57,2.79,2.79,0,0,1-2,.92A2.89,2.89,0,0,1,135.13,59.47Zm-6.24-9.92a5.06,5.06,0,0,0-.89-.72,2.42,2.42,0,0,0-1.09-.35,2.51,2.51,0,0,0-1.21.19,4.07,4.07,0,0,0-1.32.93,4.45,4.45,0,0,0-1.2,2.43,8.85,8.85,0,0,0,.07,3.23,12.16,12.16,0,0,0,1.27,3.44,13.49,13.49,0,0,0,2.38,3.22,13.66,13.66,0,0,0,1.47,1.29,5,5,0,0,0,1.45.76,2.49,2.49,0,0,0,1.46.05,3.21,3.21,0,0,0,1.43-.89,4.63,4.63,0,0,0,1.09-1.9,10.2,10.2,0,0,0,.35-3.18Z"/><path class="cls-2" d="M134.65,28.69a4.52,4.52,0,0,1,.53.68,11.78,11.78,0,0,1,.7,1.26q1.21,2.41,2.82,5.77t3.93,7.93l-1,1q-2.52-3.39-5.92-7.72t-3.93-5.15a3,3,0,0,1-.5-2,2.81,2.81,0,0,1,.81-1.76,1.76,1.76,0,0,1,1.31-.59A1.82,1.82,0,0,1,134.65,28.69Zm12.57,19.14a2.33,2.33,0,0,1,.7,1.74A2.49,2.49,0,0,1,145.45,52a2.32,2.32,0,0,1-1.74-.7,2.48,2.48,0,0,1,3.5-3.5Z"/></g></g></svg>