<svg xmlns="http://www.w3.org/2000/svg" viewBox="0 0 470.46 470.46"><defs><style>.cls-1{fill:#00cda8;}.cls-2{fill:#fff;}</style></defs><title>Asset 7</title><g id="Layer_2" data-name="Layer 2"><g id="cont"><circle class="cls-1" cx="235.23" cy="235.23" r="235.23"/><path class="cls-2" d="M120.65,227.13a28.26,28.26,0,0,1-10.42-1.92,24.32,24.32,0,0,1-8.54-5.62,26.68,26.68,0,0,1-5.79-9.06,32.46,32.46,0,0,1-2.1-12A48.78,48.78,0,0,1,97,180.66a50.35,50.35,0,0,1,8.9-14.83,41.77,41.77,0,0,1,13.12-10.07,35.59,35.59,0,0,1,16-3.8,37.55,37.55,0,0,1,11.1,1.48,27.64,27.64,0,0,1,7.86,3.68l2.83-3.44h4l-5.46,25.58h-4.15v-2a46.25,46.25,0,0,0-.66-7.93,19.14,19.14,0,0,0-2.53-6.81,13.32,13.32,0,0,0-5-4.69,16.54,16.54,0,0,0-8.06-1.75,21.47,21.47,0,0,0-11.55,3.32,31.83,31.83,0,0,0-9.23,8.84,44,44,0,0,0-6.17,13.22,56,56,0,0,0-2.33,16q0,10.78,5.28,17.49a17.12,17.12,0,0,0,14.18,6.71,23.24,23.24,0,0,0,13.67-4.4,33.3,33.3,0,0,0,10.19-11.78l3.64,1.92q-6.37,10.87-14.21,15.32A35.62,35.62,0,0,1,120.65,227.13Z"/><path class="cls-2" d="M209.53,194.23a37.05,37.05,0,0,1-2,11.94,31.55,31.55,0,0,1-5.86,10.47,29.78,29.78,0,0,1-9.38,7.46,27.54,27.54,0,0,1-12.71,2.81q-8.39,0-13.62-5.41t-5.23-14.57a35,35,0,0,1,8.19-22.77,28.74,28.74,0,0,1,9.38-7.11,27.39,27.39,0,0,1,12.11-2.71q9,0,14.08,5.49T209.53,194.23Zm-10.31-1.92q0-7.19-2.55-10.78a8.47,8.47,0,0,0-7.36-3.59,13.63,13.63,0,0,0-7.91,2.58q-3.72,2.58-6.4,8.4a38.93,38.93,0,0,0-3,9.79,56.94,56.94,0,0,0-1,9.94q0,7.24,2.5,11a8.49,8.49,0,0,0,7.56,3.72,12.31,12.31,0,0,0,8-2.83,21.45,21.45,0,0,0,5.66-7.19,39.15,39.15,0,0,0,3.34-9.74A54.2,54.2,0,0,0,199.22,192.31Z"/><path class="cls-2" d="M273.08,219.54l-.76,3.24q-4.57,1.82-7.1,2.65a16.31,16.31,0,0,1-5.12.83q-4.06,0-6.09-2.1a7.18,7.18,0,0,1-2-5.19,16.57,16.57,0,0,1,.2-2.45q.2-1.34.66-3.16l5-18.88q.56-2.18.89-3.95a16.4,16.4,0,0,0,.33-2.84,8.25,8.25,0,0,0-1.61-5.36,5.79,5.79,0,0,0-4.77-2,14.93,14.93,0,0,0-6.87,2,25.49,25.49,0,0,0-7.17,5.87L230,225.41h-9.44l7.58-32.8.73-3.52a19.12,19.12,0,0,0,.48-3.72q0-2.83-1-3.8t-3.86-1a13.82,13.82,0,0,0-2.85.38q-1.73.38-2.69.63l.76-3.24a52.66,52.66,0,0,1,7-2.63,19.8,19.8,0,0,1,5.24-.86q4,0,5.74,2.18a9.88,9.88,0,0,1,1.83,6h.3a64.52,64.52,0,0,1,9.57-6.6,19.16,19.16,0,0,1,9.17-2.15,10,10,0,0,1,7.55,2.81,10.13,10.13,0,0,1,2.72,7.36,32.47,32.47,0,0,1-.28,3.24,33.32,33.32,0,0,1-.88,4.61l-4.25,16.25q-.46,1.62-.89,3.72a17.43,17.43,0,0,0-.43,3.26q0,2.89,1.26,3.92a6.56,6.56,0,0,0,4.15,1,16.5,16.5,0,0,0,2.76-.33A17.54,17.54,0,0,0,273.08,219.54Z"/><path class="cls-2" d="M293.45,226.47q-4.8,0-7-1.95a7,7,0,0,1-2.22-5.59,15.14,15.14,0,0,1,.15-2.2q.15-1,.4-2.35l7.88-33.77h-9l1.06-4.6h9.23l3.53-14.81h9.09L303.08,176h14.08l-1.06,4.6h-14l-6.53,27.86q-.46,1.92-.76,3.72a18.82,18.82,0,0,0-.3,3.06,5.31,5.31,0,0,0,1.39,4.07q1.39,1.29,5,1.29a28.75,28.75,0,0,0,3.69-.33,17.32,17.32,0,0,0,3.69-.83l-.86,3.69q-3.54,1.37-6.67,2.35A24.69,24.69,0,0,1,293.45,226.47Z"/><path class="cls-2" d="M351.29,218.73h-.35q-1.11.91-2.65,2.3a24.25,24.25,0,0,1-3.61,2.66,25.64,25.64,0,0,1-4.29,2.2,13.38,13.38,0,0,1-5,.94,13.84,13.84,0,0,1-11.49-5.26q-4.17-5.26-4.17-14.37A33.09,33.09,0,0,1,322,195a36.24,36.24,0,0,1,6.42-10.63,30.63,30.63,0,0,1,9.25-7.26,23.78,23.78,0,0,1,11-2.76,24.07,24.07,0,0,1,6.84,1,19.94,19.94,0,0,1,5.13,2.18l9.28-2.38.61.76-7.7,32.65q-.4,1.57-.83,3.82a19.72,19.72,0,0,0-.43,3.31q0,2.89,1.21,3.9a6.46,6.46,0,0,0,4.1,1,17.45,17.45,0,0,0,2.74-.3,16.29,16.29,0,0,0,2.74-.66l-.76,3.24q-4.56,1.82-6.79,2.63a16,16,0,0,1-5.42.81,7.81,7.81,0,0,1-5.78-2.12A8.07,8.07,0,0,1,351.29,218.73Zm7.29-32a14,14,0,0,0-.35-3.19,6.74,6.74,0,0,0-1.47-2.84,7,7,0,0,0-2.78-2,11.35,11.35,0,0,0-4.45-.76,12.43,12.43,0,0,0-7.18,2.43,24.73,24.73,0,0,0-6.27,6.53,34,34,0,0,0-4.3,9.31,39.07,39.07,0,0,0-1.32,16.55,14,14,0,0,0,1.36,4.35,7,7,0,0,0,2.78,3,9,9,0,0,0,4.59,1.06,13,13,0,0,0,5.93-1.59,28.66,28.66,0,0,0,7-5.59Z"/><path class="cls-2" d="M102.88,321.77q-8.85,0-14-5.16t-5.13-14.68a37.8,37.8,0,0,1,1.95-12.12,34.72,34.72,0,0,1,5.43-10.3,27.3,27.3,0,0,1,8.82-7.36,24.69,24.69,0,0,1,11.86-2.86q7.23,0,11,3.06a9.53,9.53,0,0,1,3.77,7.71,11.3,11.3,0,0,1-1.64,6.12,5.43,5.43,0,0,1-4.93,2.63,5.57,5.57,0,0,1-4.09-1.36,4.18,4.18,0,0,1-1.37-3,13.08,13.08,0,0,1,1.09-4.41q1.09-2.8,1.74-4.51a3.69,3.69,0,0,0-2.48-2,12.73,12.73,0,0,0-4-.63q-6.88,0-11.86,8t-5,19.64q0,7.18,3.21,11.4a10.35,10.35,0,0,0,8.69,4.22,15,15,0,0,0,8.73-2.63A31,31,0,0,0,122,306.1l2.89,2.12a32.29,32.29,0,0,1-9.48,9.53A22.21,22.21,0,0,1,102.88,321.77Z"/><path class="cls-2" d="M181.65,289.18a37.05,37.05,0,0,1-2,11.94,31.55,31.55,0,0,1-5.86,10.47,29.78,29.78,0,0,1-9.38,7.46,27.54,27.54,0,0,1-12.71,2.81q-8.39,0-13.62-5.41t-5.23-14.57A35,35,0,0,1,141,279.11a28.74,28.74,0,0,1,9.38-7.11,27.39,27.39,0,0,1,12.11-2.71q9,0,14.08,5.49T181.65,289.18Zm-10.31-1.92q0-7.19-2.55-10.78a8.47,8.47,0,0,0-7.36-3.59,13.63,13.63,0,0,0-7.91,2.58q-3.72,2.58-6.4,8.4a38.93,38.93,0,0,0-3,9.79,56.94,56.94,0,0,0-1,9.94q0,7.24,2.5,11a8.49,8.49,0,0,0,7.56,3.72,12.31,12.31,0,0,0,8-2.83,21.45,21.45,0,0,0,5.66-7.19,39.15,39.15,0,0,0,3.34-9.74A54.2,54.2,0,0,0,171.33,287.26Z"/><path class="cls-2" d="M245.19,314.49l-.76,3.24q-4.57,1.82-7.1,2.65a16.31,16.31,0,0,1-5.12.83q-4.06,0-6.09-2.1a7.18,7.18,0,0,1-2-5.19,16.57,16.57,0,0,1,.2-2.45q.2-1.34.66-3.16l5-18.88q.56-2.18.89-3.95a16.4,16.4,0,0,0,.33-2.84,8.25,8.25,0,0,0-1.61-5.36,5.79,5.79,0,0,0-4.77-2,14.93,14.93,0,0,0-6.87,2,25.49,25.49,0,0,0-7.17,5.87l-8.64,37.15h-9.44l7.58-32.8L201,284a19.12,19.12,0,0,0,.48-3.72q0-2.83-1-3.8t-3.86-1a13.82,13.82,0,0,0-2.85.38q-1.73.38-2.69.63l.76-3.24a52.66,52.66,0,0,1,7-2.63,19.8,19.8,0,0,1,5.24-.86q4,0,5.74,2.18a9.88,9.88,0,0,1,1.83,6h.3a64.52,64.52,0,0,1,9.57-6.6,19.16,19.16,0,0,1,9.17-2.15,10,10,0,0,1,7.55,2.81,10.13,10.13,0,0,1,2.72,7.36,32.47,32.47,0,0,1-.28,3.24,33.32,33.32,0,0,1-.88,4.61l-4.25,16.25q-.46,1.62-.89,3.72a17.43,17.43,0,0,0-.43,3.26q0,2.89,1.26,3.92a6.56,6.56,0,0,0,4.15,1,16.5,16.5,0,0,0,2.76-.33A17.54,17.54,0,0,0,245.19,314.49Z"/><path class="cls-2" d="M265.57,321.42q-4.8,0-7-1.95a7,7,0,0,1-2.22-5.59,15.14,15.14,0,0,1,.15-2.2q.15-1,.4-2.35l7.88-33.77h-9l1.06-4.6H266l3.53-14.81h9.09L275.2,271h14.08l-1.06,4.6h-14l-6.53,27.86q-.46,1.92-.76,3.72a18.82,18.82,0,0,0-.3,3.06,5.31,5.31,0,0,0,1.39,4.07q1.39,1.29,5,1.29a28.75,28.75,0,0,0,3.69-.33,17.32,17.32,0,0,0,3.69-.83l-.86,3.69q-3.54,1.37-6.67,2.35A24.69,24.69,0,0,1,265.57,321.42Z"/><path class="cls-2" d="M335.08,279.83a13.54,13.54,0,0,1-3.36,9.22,22.79,22.79,0,0,1-9.78,6.13,74.34,74.34,0,0,1-9.5,2.79q-4.8,1.06-10.62,1.77,0,8,3,12.21a9.91,9.91,0,0,0,8.67,4.22,15.94,15.94,0,0,0,8.92-2.53A31.06,31.06,0,0,0,330,306.1l2.88,2.12a31.7,31.7,0,0,1-10.11,9.86,23.9,23.9,0,0,1-12.59,3.69q-8.95,0-13.67-5t-4.73-14.22a37.07,37.07,0,0,1,2-12.17,35.27,35.27,0,0,1,5.84-10.6,28.85,28.85,0,0,1,9.18-7.59,25.21,25.21,0,0,1,12-2.88q7.28,0,10.79,3A9.46,9.46,0,0,1,335.08,279.83Zm-9.3-1.24a7.14,7.14,0,0,0-.56-3.1,4.08,4.08,0,0,0-1.42-1.69,4.7,4.7,0,0,0-1.92-.76,14,14,0,0,0-2.07-.15q-6.07,0-11.2,6.66a34.29,34.29,0,0,0-6.5,16.6q3.54-.5,8-1.44a29.32,29.32,0,0,0,7.38-2.45,15.14,15.14,0,0,0,6.24-5.57A15.42,15.42,0,0,0,325.78,278.58Z"/><path class="cls-2" d="M357.47,321.87A26.29,26.29,0,0,1,345,319.22q-5-2.65-5-7a5.84,5.84,0,0,1,1.47-3.79,4.5,4.5,0,0,1,3.59-1.77,5.28,5.28,0,0,1,3.26.94,7.1,7.1,0,0,1,1.95,2.2,16.07,16.07,0,0,1,1.34,3.13q.58,1.82,1,3a7.65,7.65,0,0,0,2.1,1.59,8.2,8.2,0,0,0,3.87.73q5.46,0,8.27-2.74a9.86,9.86,0,0,0,2.81-7.4,6.62,6.62,0,0,0-2.63-5.5,26.51,26.51,0,0,0-7.84-3.77,34.08,34.08,0,0,1-4.4-1.85,16.61,16.61,0,0,1-4-2.66,12.67,12.67,0,0,1-2.93-3.85,11.66,11.66,0,0,1-1.11-5.27q0-6.48,5.79-11.22a21.74,21.74,0,0,1,14.23-4.74q2,0,4.25.2a22.21,22.21,0,0,1,5,1.11,10.82,10.82,0,0,1,4,2.4,5.44,5.44,0,0,1,1.67,4.12,5.79,5.79,0,0,1-1.39,3.77,4.51,4.51,0,0,1-3.67,1.69,5.45,5.45,0,0,1-3.08-.81,6.61,6.61,0,0,1-2-2.17,14.4,14.4,0,0,1-1.31-2.93q-.51-1.57-1.11-3.08a9.15,9.15,0,0,0-1.72-.56,10.74,10.74,0,0,0-2-.15q-5,0-7.51,2.66a8.81,8.81,0,0,0-2.55,6.31,6.36,6.36,0,0,0,2.3,5.34,29,29,0,0,0,7.61,3.72q6.88,2.48,10,5.67a10.88,10.88,0,0,1,3.11,7.9A15.44,15.44,0,0,1,372.39,317Q366.47,321.87,357.47,321.87Z"/></g></g></svg>