<svg xmlns="http://www.w3.org/2000/svg" viewBox="0 0 670.12 470.46"><defs><style>.cls-1{fill:#d4bb3c;}.cls-2{fill:#b7a424;}.cls-3{fill:#bda520;}.cls-4{fill:#d6ca49;}.cls-5{fill:#503921;}.cls-6{fill:#86754c;}.cls-7{fill:#f2e370;}.cls-8{fill:#f7eb80;}.cls-9{fill:#e4cb55;}.cls-10{fill:#d8b83b;}.cls-11{fill:#d9b83f;}.cls-12{fill:#f1d36e;}.cls-13{fill:#e3c34d;}.cls-14{fill:#f0d46d;}.cls-15{fill:#e7c657;}.cls-16{fill:#f3d96f;}.cls-17{fill:#e7ca5a;}.cls-18{fill:#f2d86d;}.cls-19{fill:#ebcb59;}.cls-20{fill:#eed161;}.cls-21{fill:#e8cb5c;}.cls-22{fill:#f1d76f;}.cls-23{fill:#e6cb5f;}.cls-24{fill:#e7d167;}.cls-25{fill:#e1cb62;}.cls-26{fill:#e2d068;}.cls-27{fill:#e5d26b;}.cls-28{fill:#e8d970;}.cls-29{fill:#c4a935;}.cls-30{fill:#c9af42;}.cls-31{fill:#cdb351;}.cls-32{fill:#d2b84e;}.cls-33{fill:#d1b954;}.cls-34{fill:#d3b647;}.cls-35{fill:#d3ba50;}.cls-36{fill:#c9b54e;}.cls-37{fill:#dcc055;}.cls-38{fill:#d2b851;}.cls-39{fill:#e2c457;}.cls-40{fill:#d6ba55;}.cls-41{fill:#e1c461;}.cls-42{fill:#dfc461;}.cls-43{fill:#e0c561;}.cls-44{fill:#e7cb67;}.cls-45{fill:#e6cf6f;}.cls-46{fill:#e8ce6f;}.cls-47{fill:#e8d277;}.cls-48{fill:#edd67f;}.cls-49{fill:#e8d176;}.cls-50{fill:#e0da6c;}.cls-51{fill:#e2de80;}.cls-52{fill:#eae280;}.cls-53{fill:#ebe782;}.cls-54{fill:#f0e981;}.cls-55{fill:#f7ed86;}.cls-56{fill:#f9f292;}.cls-57{fill:#f8f08b;}.cls-58{fill:#f8f18e;}.cls-59{fill:#f9f190;}.cls-60{fill:#f7f08d;}.cls-61{fill:#f9ef8f;}.cls-62{fill:#f8f08c;}.cls-63{fill:#b4b04d;}.cls-64{fill:#c9c962;}.cls-65{fill:#beb958;}.cls-66{fill:#bcbb61;}.cls-67{fill:#b5b35c;}.cls-68{fill:#b8bb60;}.cls-69{fill:#b7ba50;}.cls-70{fill:#aeaf4a;}.cls-71{fill:#b1b554;}.cls-72{fill:#b1b151;}.cls-73{fill:#aea83e;}.cls-74{fill:#cab75f;}.cls-75{fill:#bbab61;}.cls-76{fill:#edcf9f;}.cls-77{fill:#cbaa7b;}.cls-78{fill:#d2b87e;}.cls-79{fill:#8e8061;}.cls-80{fill:#cfbb8d;}.cls-81{fill:#211915;}</style></defs><title>Asset 6</title><g id="Layer_2" data-name="Layer 2"><g id="cont"><polygon class="cls-1" points="0 210.88 34.41 241.16 14.04 254.64 0 210.88"/><polygon class="cls-2" points="17.2 191.61 34.41 241.16 0 210.88 17.2 191.61"/><polygon class="cls-3" points="45.47 202.44 34.41 241.16 17.2 191.61 45.47 202.44"/><polygon class="cls-4" points="21.2 174 17.2 191.61 45.47 202.44 21.2 174"/><polygon class="cls-5" points="6.05 186.1 17.2 191.61 0 210.88 6.05 186.1"/><polygon class="cls-6" points="21.2 174 6.05 186.1 17.2 191.61 21.2 174"/><path class="cls-7" d="M57,180.88s-10.55,22.69-11.51,21.56L21.2,174Z"/><polygon class="cls-8" points="94 222.72 56.98 180.88 45.47 202.44 94 222.72"/><polygon class="cls-9" points="34.41 241.16 94 222.72 45.47 202.44 34.41 241.16"/><polygon class="cls-10" points="79.55 279.28 94 222.72 34.41 241.16 79.55 279.28"/><polygon class="cls-9" points="150.98 245.84 79.55 279.28 94 222.72 150.98 245.84"/><polygon class="cls-11" points="132.4 313.14 79.55 279.28 150.98 245.84 132.4 313.14"/><polygon class="cls-12" points="203.83 264.83 132.4 313.14 150.98 245.84 203.83 264.83"/><path class="cls-13" d="M201.76,341.63c-2.48-.41-69.36-28.49-69.36-28.49l71.43-48.3Z"/><polygon class="cls-14" points="260.39 276.8 201.76 341.63 203.83 264.83 260.39 276.8"/><polygon class="cls-15" points="280.21 351.95 201.76 341.63 260.39 276.8 280.21 351.95"/><polygon class="cls-16" points="319.44 283.82 280.21 351.95 260.39 276.8 319.44 283.82"/><polygon class="cls-17" points="360.32 351.95 280.21 351.95 319.44 283.82 360.32 351.95"/><polygon class="cls-18" points="383.85 274.32 319.44 283.82 360.32 351.95 383.85 274.32"/><polygon class="cls-19" points="430.51 345.34 360.32 351.95 383.85 274.32 430.51 345.34"/><polygon class="cls-20" points="430.51 263.59 430.51 345.34 383.85 274.32 430.51 263.59"/><polygon class="cls-21" points="493.27 321.39 430.51 345.34 430.51 263.59 493.27 321.39"/><polygon class="cls-22" points="486.66 240.47 430.51 263.59 493.27 321.39 486.66 240.47"/><polygon class="cls-23" points="551.48 290.01 493.27 321.39 486.66 240.47 551.48 290.01"/><polygon class="cls-24" points="532.08 207.44 486.66 240.47 551.48 290.01 532.08 207.44"/><polygon class="cls-25" points="592.36 242.53 551.48 290.01 532.08 207.44 592.36 242.53"/><polygon class="cls-26" points="570.06 168.21 532.08 207.44 592.36 242.53 570.06 168.21"/><polygon class="cls-27" points="613 185.97 592.36 242.53 570.06 168.21 613 185.97"/><polygon class="cls-28" points="589.06 144.27 570.06 168.21 613 185.97 617.54 154.18 589.06 144.27"/><polygon class="cls-29" points="41.15 297.83 34.41 241.16 14.04 254.64 41.15 297.83"/><polygon class="cls-30" points="79.55 279.28 41.15 297.83 34.41 241.16 79.55 279.28"/><polygon class="cls-31" points="76.66 331.41 41.15 297.83 79.55 279.28 76.66 331.41"/><polygon class="cls-32" points="132.4 313.14 76.66 331.41 79.55 279.28 132.4 313.14"/><polygon class="cls-33" points="120.98 360.86 76.66 331.41 132.4 313.14 120.98 360.86"/><polygon class="cls-34" points="201.76 341.63 120.98 360.86 132.4 313.14 201.76 341.63"/><polygon class="cls-35" points="182.08 388.39 120.98 360.86 201.76 341.63 182.08 388.39"/><polygon class="cls-36" points="242.36 407.38 182.08 388.39 201.76 341.63 242.36 407.38"/><polygon class="cls-37" points="280.21 351.95 242.36 407.38 201.76 341.63 280.21 351.95"/><polygon class="cls-38" points="308.7 413.71 242.36 407.38 280.21 351.95 308.7 413.71"/><polygon class="cls-39" points="360.32 351.95 308.7 413.71 280.21 351.95 360.32 351.95"/><polygon class="cls-40" points="366.79 410.96 308.7 413.71 360.32 351.95 366.79 410.96"/><polygon class="cls-41" points="430.51 345.34 366.79 410.96 360.32 351.95 430.51 345.34"/><polygon class="cls-42" points="436.43 403.53 366.79 410.96 430.51 345.34 436.43 403.53"/><polygon class="cls-43" points="484.87 386.19 436.43 403.53 430.51 345.34 484.87 386.19"/><polygon class="cls-44" points="493.27 321.39 484.87 386.19 430.51 345.34 493.27 321.39"/><polygon class="cls-45" points="539.92 357.01 484.87 386.19 493.27 321.39 539.92 357.01"/><polygon class="cls-46" points="551.48 290.01 539.92 357.01 493.27 321.39 551.48 290.01"/><polygon class="cls-47" points="585.89 321.39 539.92 357.01 551.48 290.01 585.89 321.39"/><polygon class="cls-48" points="622.23 277.32 585.89 321.39 551.48 290.01 622.23 277.32"/><polygon class="cls-49" points="592.36 242.53 622.23 277.32 551.48 290.01 592.36 242.53"/><polygon class="cls-48" points="640.12 237.28 622.23 277.32 592.36 242.53 640.12 237.28"/><polygon class="cls-49" points="613 185.97 640.12 237.28 592.36 242.53 613 185.97"/><polygon class="cls-48" points="642.87 182.77 640.12 237.28 613 185.97 642.87 182.77"/><polygon class="cls-49" points="637.91 159.38 642.87 182.77 613 185.97 617.54 154.18 637.91 159.38"/><polygon class="cls-50" points="571.92 138.38 570.06 168.21 589.06 144.27 571.92 138.38"/><polygon class="cls-51" points="539.3 163.99 570.06 168.21 571.92 138.38 539.3 163.99"/><polygon class="cls-52" points="532.08 207.44 539.3 163.99 570.06 168.21 532.08 207.44"/><polygon class="cls-53" points="512.47 191.44 532.08 207.44 539.3 163.99 512.47 191.44"/><polygon class="cls-54" points="484.39 214.25 532.08 207.44 512.47 191.44 484.39 214.25"/><polygon class="cls-55" points="486.66 240.47 484.39 214.25 532.08 207.44 486.66 240.47"/><polygon class="cls-54" points="437.94 237.27 486.66 240.47 484.39 214.25 437.94 237.27"/><polygon class="cls-55" points="430.51 263.59 437.94 237.27 486.66 240.47 430.51 263.59"/><polygon class="cls-55" points="383.85 274.32 379.31 252.14 430.51 263.59 383.85 274.32"/><polygon class="cls-56" points="319.44 283.82 379.31 252.14 383.85 274.32 319.44 283.82"/><polygon class="cls-57" points="437.94 237.27 379.31 252.14 430.51 263.59 437.94 237.27"/><polygon class="cls-58" points="312.83 256.68 319.44 283.82 379.31 252.14 312.83 256.68"/><polygon class="cls-55" points="312.83 256.68 260.39 276.8 319.44 283.82 312.83 256.68"/><polygon class="cls-59" points="266.31 256.68 260.39 276.8 312.83 256.68 266.31 256.68"/><polygon class="cls-57" points="203.83 264.83 266.31 256.68 260.39 276.8 203.83 264.83"/><polygon class="cls-56" points="207.41 243.33 203.83 264.83 266.31 256.68 207.41 243.33"/><polygon class="cls-57" points="150.98 245.84 207.41 243.33 203.83 264.83 150.98 245.84"/><polygon class="cls-60" points="148.78 216.63 150.98 245.84 207.41 243.33 148.78 216.63"/><polygon class="cls-56" points="94 222.72 148.78 216.63 150.98 245.84 94 222.72"/><polygon class="cls-61" points="104.53 197.91 94 222.72 148.78 216.63 104.53 197.91"/><polygon class="cls-62" points="56.98 180.88 104.53 197.91 94 222.72 56.98 180.88"/><polygon class="cls-63" points="589.06 144.27 608.19 110.1 617.54 154.18 589.06 144.27"/><polygon class="cls-64" points="637.91 159.38 633.78 132.14 617.54 154.18 637.91 159.38"/><polygon class="cls-65" points="608.19 110.1 633.78 132.14 617.54 154.18 608.19 110.1"/><polygon class="cls-66" points="637.91 92.21 633.78 132.14 608.19 110.1 637.91 92.21"/><polygon class="cls-67" points="620.99 59.46 608.19 110.1 637.91 92.21 620.99 59.46"/><polygon class="cls-68" points="652.78 56.43 637.91 92.21 620.99 59.46 652.78 56.43"/><polygon class="cls-69" points="571.92 138.38 586.99 105.97 589.06 144.27 571.92 138.38"/><polygon class="cls-66" points="608.19 110.1 586.99 105.97 589.06 144.27 608.19 110.1"/><polygon class="cls-70" points="586.99 105.97 614.58 84.78 608.19 110.1 586.99 105.97"/><polygon class="cls-71" points="597.59 64.96 614.58 84.78 586.99 105.97 597.59 64.96"/><polygon class="cls-72" points="620.99 59.46 597.59 64.96 614.58 84.78 620.99 59.46"/><polygon class="cls-73" points="608.19 31.66 597.59 64.96 620.99 59.46 608.19 31.66"/><polygon class="cls-74" points="640.12 46.8 620.99 59.46 608.19 31.66 640.12 46.8"/><polygon class="cls-75" points="652.78 56.43 640.12 46.8 620.99 59.46 652.78 56.43"/><polygon class="cls-76" points="632.13 21.2 608.19 31.66 640.12 46.8 632.13 21.2"/><polygon class="cls-77" points="656.9 25.05 640.12 46.8 632.13 21.2 656.9 25.05"/><polygon class="cls-76" points="664.34 0 632.13 21.2 656.9 25.05 664.34 0"/><polygon class="cls-78" points="670.12 21.2 664.34 0 656.9 25.05 670.12 21.2"/><polygon class="cls-79" points="652.78 56.43 670.12 21.2 656.9 25.05 652.78 56.43"/><polygon class="cls-80" points="640.12 46.8 652.78 56.43 656.9 25.05 640.12 46.8"/><path class="cls-81" d="M211.68,151.14h19.11l25.55,67.31h.39l25.35-67.31H301.4V278.26h-19.9V201h-.39l-19.7,54.63h-9.94L232,201h-.39v77.31h-19.9Z"/><path class="cls-81" d="M333.19,239.88V252.2a8.34,8.34,0,0,0,2.63,6.61,10.38,10.38,0,0,0,7.12,2.32q5.65,0,7.51-3a15.41,15.41,0,0,0,2.24-6.07h19.9a28,28,0,0,1-2.05,10.71,23.48,23.48,0,0,1-5.95,8.57,28.16,28.16,0,0,1-9.36,5.89,33.38,33.38,0,0,1-12.29,2.14,32.81,32.81,0,0,1-15.8-3.57A25.57,25.57,0,0,1,317,266.3a23.2,23.2,0,0,1-2.92-8.21,61.36,61.36,0,0,1-.78-10.18V218.09a61.37,61.37,0,0,1,.78-10.17,23.2,23.2,0,0,1,2.92-8.21,25.57,25.57,0,0,1,10.15-9.46,32.84,32.84,0,0,1,15.8-3.58,34.23,34.23,0,0,1,12.39,2.15,25.78,25.78,0,0,1,15.21,15,29.83,29.83,0,0,1,2.05,11.07v25Zm0-14.28h19.5V215.24q0-5.18-2.63-7.77a11.07,11.07,0,0,0-14.24,0q-2.63,2.59-2.63,7.77Z"/><path class="cls-81" d="M383.32,187.74h19.9v9.64a60.55,60.55,0,0,1,11.9-7.86,32.76,32.76,0,0,1,14.43-2.86V206a17.51,17.51,0,0,0-6-1.07,25.8,25.8,0,0,0-6.73,1,19,19,0,0,0-6.63,3.3,17.87,17.87,0,0,0-5,6.07,19.94,19.94,0,0,0-1.95,9.28v53.74h-19.9Z"/><path class="cls-81" d="M437.54,151.14h19.9v18.21h-19.9Zm0,36.6h19.9v90.52h-19.9Z"/><path class="cls-81" d="M184.48,274.17l13.65,56.42h.39L212,274.17h20.48L204,380.4a30.66,30.66,0,0,1-4.39,10.09,24,24,0,0,1-6.53,6.43,24.79,24.79,0,0,1-7.9,3.39,38.16,38.16,0,0,1-8.68,1H171V384.16h4.49a16.17,16.17,0,0,0,5.07-.72,7.64,7.64,0,0,0,3.8-3.12,25.48,25.48,0,0,0,3-7.14q1.36-4.73,3.12-12.59l-27.11-86.42Z"/><path class="cls-81" d="M273,355.41h-.39a35.26,35.26,0,0,1-7.9,7.68q-4,2.68-11.21,2.68a28.24,28.24,0,0,1-7.22-1,18,18,0,0,1-12.19-10.89,31.06,31.06,0,0,1-2-12.23,59.16,59.16,0,0,1,1.37-13.48,20.66,20.66,0,0,1,5-9.64,21.74,21.74,0,0,1,9.65-5.71A52.92,52.92,0,0,1,263.47,311c1.43,0,2.86.06,4.29.18s3.18.24,5.27.36V302a13,13,0,0,0-2.15-7.68q-2.15-3-7.8-3a11.9,11.9,0,0,0-7.12,2.32,10.85,10.85,0,0,0-4.19,6.78H232.45q1-12.32,9-19.64a28.6,28.6,0,0,1,9.36-5.62,34.74,34.74,0,0,1,12.29-2.06,37.55,37.55,0,0,1,11.7,1.79,26.35,26.35,0,0,1,9.46,5.36,25.46,25.46,0,0,1,6.34,8.93,31,31,0,0,1,2.34,12.5v63H273Zm0-29.64a35.63,35.63,0,0,0-5.46-.53,20.94,20.94,0,0,0-11,2.77Q252,330.77,252,338.09a12.48,12.48,0,0,0,2.73,8.39,9.45,9.45,0,0,0,7.61,3.21q5.07,0,7.9-3t2.83-8.57Z"/><path class="cls-81" d="M303.64,274.17h19.9v8.75h.39a27.16,27.16,0,0,1,7.51-7.05q4.39-2.77,11.21-2.77a24.7,24.7,0,0,1,7.41,1.16,17.49,17.49,0,0,1,6.63,3.84,19.23,19.23,0,0,1,4.68,6.88,26.67,26.67,0,0,1,1.75,10.27v69.45H343.24V302q0-5-2.53-7.86a9.15,9.15,0,0,0-7.22-2.86q-5.65,0-7.8,3.22t-2.15,9.28v60.88h-19.9Z"/><path class="cls-81" d="M393.75,326.31v12.32a8.34,8.34,0,0,0,2.63,6.61,10.36,10.36,0,0,0,7.12,2.32q5.66,0,7.51-3a15.44,15.44,0,0,0,2.24-6.07h19.89a28,28,0,0,1-2,10.71,23.55,23.55,0,0,1-6,8.57,28.2,28.2,0,0,1-9.36,5.89,33.41,33.41,0,0,1-12.29,2.14,32.85,32.85,0,0,1-15.8-3.57,25.58,25.58,0,0,1-10.14-9.46,23.14,23.14,0,0,1-2.93-8.21,61.5,61.5,0,0,1-.78-10.18V304.52a61.58,61.58,0,0,1,.78-10.18,23.16,23.16,0,0,1,2.93-8.21,25.61,25.61,0,0,1,10.14-9.46,32.88,32.88,0,0,1,15.8-3.57,34.2,34.2,0,0,1,12.39,2.15,25.79,25.79,0,0,1,15.22,15,29.9,29.9,0,0,1,2,11.07v25Zm0-14.29h19.5V301.67q0-5.18-2.63-7.76a11.07,11.07,0,0,0-14.24,0q-2.63,2.59-2.63,7.76Z"/><path class="cls-81" d="M480,299.53a8.73,8.73,0,0,0-3.22-7,11.08,11.08,0,0,0-6.92-2.32A9.31,9.31,0,0,0,462.6,293a9.13,9.13,0,0,0-2.53,6.34,9.85,9.85,0,0,0,1.37,4.91q1.37,2.41,7,4.37l11.7,4.29q11.12,3.93,15.31,10.71a27.65,27.65,0,0,1,4.19,14.82,25.3,25.3,0,0,1-2.24,10.62,27.84,27.84,0,0,1-15.51,14.55,32.28,32.28,0,0,1-11.9,2.14A34.38,34.38,0,0,1,458.9,364a28,28,0,0,1-9.27-5.18,26.28,26.28,0,0,1-6.53-8.48,28.12,28.12,0,0,1-2.73-11.87h18.72a16.48,16.48,0,0,0,2.83,7q2.24,3.21,7.9,3.21a12.42,12.42,0,0,0,7.7-2.59,8.56,8.56,0,0,0,3.41-7.23,10,10,0,0,0-2.15-6.43q-2.15-2.68-7.8-4.64l-9.56-3.22A32.59,32.59,0,0,1,446.71,315a23.07,23.07,0,0,1-5.36-15.44,24.33,24.33,0,0,1,2.34-10.62,25.55,25.55,0,0,1,6.33-8.39,29.87,29.87,0,0,1,9.27-5.45,32.2,32.2,0,0,1,11.31-2,30.16,30.16,0,0,1,11.21,2.06,27.83,27.83,0,0,1,8.87,5.54,25.28,25.28,0,0,1,5.85,8.39,25.82,25.82,0,0,1,2.15,10.45Z"/><path class="cls-81" d="M208,433.42h8.62a13.9,13.9,0,0,1,4.17.57,8.15,8.15,0,0,1,3.27,2,7.76,7.76,0,0,1,2,3.38,19.53,19.53,0,0,1,.56,5.24,24,24,0,0,1-.31,4.15A8.35,8.35,0,0,1,225,452a8.13,8.13,0,0,1-3.16,2.81,11.47,11.47,0,0,1-5.19,1h-2.93v14.34H208Zm5.75,17.44h2.76a6.27,6.27,0,0,0,2.7-.47,3.12,3.12,0,0,0,1.41-1.26,4.63,4.63,0,0,0,.53-1.93c.06-.76.09-1.6.09-2.53s0-1.68-.09-2.45a5.35,5.35,0,0,0-.51-2,3.06,3.06,0,0,0-1.32-1.34,5.51,5.51,0,0,0-2.59-.49h-3Z"/><path class="cls-81" d="M232,433.42h9.24q10.15,0,10.15,10.78a12.65,12.65,0,0,1-1.1,5.5,8.11,8.11,0,0,1-3.86,3.69l6.2,16.76h-6.09l-5.35-15.68h-3.44v15.68H232Zm5.75,16.4h3.27a6.27,6.27,0,0,0,2.43-.39,3.06,3.06,0,0,0,1.38-1.11,4.47,4.47,0,0,0,.64-1.78,17.76,17.76,0,0,0,0-4.9,4.17,4.17,0,0,0-.7-1.81,3.13,3.13,0,0,0-1.49-1.11,7.35,7.35,0,0,0-2.54-.36h-3Z"/><path class="cls-81" d="M256.83,442.09a8.71,8.71,0,0,1,.85-3.92,8.26,8.26,0,0,1,2.23-2.81,9.73,9.73,0,0,1,3.1-1.67,10.83,10.83,0,0,1,6.93,0,9.76,9.76,0,0,1,3.1,1.67,8.3,8.3,0,0,1,2.23,2.81,8.7,8.7,0,0,1,.84,3.92v19.4a8.67,8.67,0,0,1-.84,3.95,8.33,8.33,0,0,1-2.23,2.79,9.74,9.74,0,0,1-3.1,1.68,10.88,10.88,0,0,1-6.93,0,9.71,9.71,0,0,1-3.1-1.68,8.29,8.29,0,0,1-2.23-2.79,8.67,8.67,0,0,1-.85-3.95Zm5.75,19.4a3.34,3.34,0,0,0,1.15,2.81,4.59,4.59,0,0,0,5.47,0,3.36,3.36,0,0,0,1.15-2.81v-19.4a3.36,3.36,0,0,0-1.15-2.81,4.59,4.59,0,0,0-5.47,0,3.35,3.35,0,0,0-1.15,2.81Z"/><path class="cls-81" d="M282.31,433.42h8.51q4.91,0,7.5,2.5a9.26,9.26,0,0,1,2.59,7V460.1q0,5.16-2.73,7.61t-7.86,2.45h-8Zm5.75,31.78h2.65a4.48,4.48,0,0,0,3.44-1.11,5,5,0,0,0,1-3.48V442.91a5.22,5.22,0,0,0-1-3.35q-1-1.18-3.49-1.19h-2.65Z"/><path class="cls-81" d="M326,461.9a7.73,7.73,0,0,1-.74,3.36,8.6,8.6,0,0,1-2,2.71,9.82,9.82,0,0,1-13.13,0,8.64,8.64,0,0,1-2-2.71,7.74,7.74,0,0,1-.73-3.36V433.42h5.75v28a3.72,3.72,0,0,0,1,2.89,3.93,3.93,0,0,0,5.07,0,3.74,3.74,0,0,0,1-2.89v-28H326Z"/><path class="cls-81" d="M350.83,461.95a7.79,7.79,0,0,1-.7,3.25,8.55,8.55,0,0,1-1.94,2.71,9.84,9.84,0,0,1-2.9,1.86,9.23,9.23,0,0,1-3.58.69,14,14,0,0,1-3.33-.41,8.4,8.4,0,0,1-3-1.42,7.8,7.8,0,0,1-2.23-2.66,8.86,8.86,0,0,1-.87-4.18V441.57a8.31,8.31,0,0,1,.68-3.36,7.87,7.87,0,0,1,1.92-2.68,8.93,8.93,0,0,1,3-1.78,10.71,10.71,0,0,1,3.8-.65,10.16,10.16,0,0,1,3.66.65,8.87,8.87,0,0,1,2.93,1.81,8.28,8.28,0,0,1,1.94,2.78,8.81,8.81,0,0,1,.7,3.53v2.06h-5.75v-1.75a4,4,0,0,0-1-2.68,3.22,3.22,0,0,0-2.59-1.13q-2.14,0-2.85,1.21a6,6,0,0,0-.7,3.07v18.78a4.57,4.57,0,0,0,.76,2.68,3.12,3.12,0,0,0,2.74,1.08,4.53,4.53,0,0,0,1.21-.18,3.46,3.46,0,0,0,1.18-.59,3,3,0,0,0,.87-1.14,4.24,4.24,0,0,0,.34-1.81v-1.8h5.75Z"/><path class="cls-81" d="M374.9,461.95a7.79,7.79,0,0,1-.7,3.25,8.52,8.52,0,0,1-1.95,2.71,9.77,9.77,0,0,1-2.9,1.86,9.22,9.22,0,0,1-3.58.69,14,14,0,0,1-3.33-.41,8.4,8.4,0,0,1-3-1.42,7.77,7.77,0,0,1-2.23-2.66,8.89,8.89,0,0,1-.87-4.18V441.57a8.31,8.31,0,0,1,.68-3.36,7.87,7.87,0,0,1,1.92-2.68,8.94,8.94,0,0,1,3-1.78,10.73,10.73,0,0,1,3.8-.65,10.15,10.15,0,0,1,3.66.65,8.82,8.82,0,0,1,2.93,1.81,8.25,8.25,0,0,1,1.95,2.78,8.81,8.81,0,0,1,.7,3.53v2.06h-5.75v-1.75a4,4,0,0,0-1-2.68,3.22,3.22,0,0,0-2.59-1.13q-2.14,0-2.84,1.21a6.05,6.05,0,0,0-.7,3.07v18.78a4.57,4.57,0,0,0,.76,2.68,3.12,3.12,0,0,0,2.74,1.08,4.51,4.51,0,0,0,1.21-.18,3.46,3.46,0,0,0,1.18-.59,3,3,0,0,0,.87-1.14,4.28,4.28,0,0,0,.34-1.81v-1.8h5.75Z"/><path class="cls-81" d="M380.87,433.42h5.75v36.73h-5.75Z"/><path class="cls-81" d="M393,442.09a8.7,8.7,0,0,1,.84-3.92,8.3,8.3,0,0,1,2.23-2.81,9.7,9.7,0,0,1,3.1-1.67,10.83,10.83,0,0,1,6.93,0,9.76,9.76,0,0,1,3.1,1.67,8.3,8.3,0,0,1,2.23,2.81,8.74,8.74,0,0,1,.84,3.92v19.4a8.7,8.7,0,0,1-.84,3.95,8.33,8.33,0,0,1-2.23,2.79,9.74,9.74,0,0,1-3.1,1.68,10.88,10.88,0,0,1-6.93,0,9.69,9.69,0,0,1-3.1-1.68,8.33,8.33,0,0,1-2.23-2.79,8.67,8.67,0,0,1-.84-3.95Zm5.75,19.4a3.34,3.34,0,0,0,1.15,2.81,4.59,4.59,0,0,0,5.47,0,3.35,3.35,0,0,0,1.15-2.81v-19.4a3.35,3.35,0,0,0-1.15-2.81,4.59,4.59,0,0,0-5.47,0,3.35,3.35,0,0,0-1.15,2.81Z"/><path class="cls-81" d="M418.24,433.42h5.52l8.68,22.13h.11V433.42h5.75v36.73h-5.41l-8.79-22.08H424v22.08h-5.75Z"/><path class="cls-81" d="M463.21,444h-5.75v-1.19a5.27,5.27,0,0,0-.93-3.12,3.57,3.57,0,0,0-3.13-1.31,4,4,0,0,0-1.94.41,3.18,3.18,0,0,0-1.18,1.06,4.2,4.2,0,0,0-.59,1.49,9.13,9.13,0,0,0-.17,1.78,17,17,0,0,0,.08,1.83A2.85,2.85,0,0,0,451,447.2a9.14,9.14,0,0,0,1.78.82l4.4,1.6a11.27,11.27,0,0,1,3.1,1.57,6.56,6.56,0,0,1,1.83,2.12,8.39,8.39,0,0,1,.87,2.79,25.54,25.54,0,0,1,.22,3.58,17.42,17.42,0,0,1-.51,4.31,8.73,8.73,0,0,1-1.66,3.41,7.93,7.93,0,0,1-3.07,2.24,11.79,11.79,0,0,1-4.68.82,11.07,11.07,0,0,1-3.89-.67,9.63,9.63,0,0,1-3.1-1.83,8.63,8.63,0,0,1-2.06-2.76,8,8,0,0,1-.76-3.46v-2h5.75v1.65a4.07,4.07,0,0,0,.93,2.6,3.79,3.79,0,0,0,3.13,1.16,5.41,5.41,0,0,0,2.28-.39,2.8,2.8,0,0,0,1.24-1.08,4.16,4.16,0,0,0,.53-1.73,21.07,21.07,0,0,0,.12-2.27,20.34,20.34,0,0,0-.12-2.37,3.56,3.56,0,0,0-.48-1.5,2.85,2.85,0,0,0-1-.93,14.81,14.81,0,0,0-1.72-.77L450,452.61q-3.72-1.39-5-3.69a11.75,11.75,0,0,1-1.27-5.75,12.32,12.32,0,0,1,.62-3.92,8.93,8.93,0,0,1,1.83-3.2,8.72,8.72,0,0,1,3.07-2.14,11,11,0,0,1,4.34-.8,10.35,10.35,0,0,1,3.92.72,9.8,9.8,0,0,1,3,1.91,8.46,8.46,0,0,1,1.94,2.66,7.12,7.12,0,0,1,.68,3Z"/></g></g></svg>