<?xml version="1.0" encoding="UTF-8"?>
<svg width="294px" height="250px" viewBox="0 0 294 250" version="1.1" xmlns="http://www.w3.org/2000/svg" xmlns:xlink="http://www.w3.org/1999/xlink">
    <!-- Generator: Sketch 51.1 (57501) - http://www.bohemiancoding.com/sketch -->
    <title>60f</title>
    <desc>Created with Sketch.</desc>
    <defs></defs>
    <g id="Page-1" stroke="none" stroke-width="1" fill="none" fill-rule="evenodd">
        <g id="60f" fill-rule="nonzero">
            <path d="M293.38,45.87 L271.71,82.48 C271.36,83.01 271.13,82.62 270.29,82.62 L234.91,82.62 C227.5,82.62 221.5,89.52 221.54,96.92 C221.54,103.92 227.88,110.02 235.6,109.99 L253.21,110.26 C263.139726,110.287468 271.182532,118.330274 271.21,128.26 C271.26,138.57 260.69,146.35 251.21,146.4 L222.69,146.58 L223.19,248.83 C223.193913,249.260743 222.892062,249.633866 222.47,249.72 C222.407009,249.729306 222.342991,249.729306 222.28,249.72 C221.920277,249.72205 221.593886,249.509699 221.45,249.18 L177.74,148.18 C182.746099,145.234304 187.230044,141.480225 191.01,137.07 C199.173948,127.720975 204.291707,116.103976 205.68,103.77 C206.216617,100.574973 206.477578,97.3397293 206.46,94.1 C206.427685,90.8027173 206.069273,87.5167175 205.39,84.29 C203.68709,72.664731 198.62667,61.7896937 190.83,53 C187.833785,49.8332305 184.626439,46.8731176 181.23,44.14 L292.6,44.14 C292.92,44.14 293.23,44.63 293.39,44.91 C293.550537,45.2107813 293.546768,45.5726282 293.38,45.87 Z" id="Shape" fill="#1D1D1B"></path>
            <path d="M93.08,97.36 C93.0933333,113.233333 88.52,125.34 79.36,133.68 C70.2,142.02 59.6866667,146.19 47.82,146.19 C34.6066667,146.19 23.3333333,140.95 14,130.47 C4.66666667,119.99 0,105.526667 0,87.08 C0,61.7866667 9.36,41.0933333 28.08,25 C45.1,10.44 65.55,2.1 92.18,0 L92.18,5.39 C77.38,8 65.42,13.8 56.17,22.89 C46.8966667,31.9766667 40.46,43.6433333 36.86,57.89 L37.86,58.6 C40.3,57.78 42.4066667,57.17 44.18,56.77 C47.683719,55.9487379 51.271333,55.5393002 54.87,55.55 C64.788355,55.4179701 74.3798836,59.0935298 81.67,65.82 C89.2766667,72.6733333 93.08,83.1866667 93.08,97.36 Z M59.91,131.54 C61.0033333,127.846667 61.55,120.42 61.55,109.26 C61.5433333,92.3733333 60.1133333,80.76 57.26,74.42 C54.4066667,68.08 49.8133333,64.91 43.48,64.91 C39.5333333,64.9166667 37.0133333,65.5266667 35.92,66.74 C34.8266667,67.9533333 34.0766667,69.9866667 33.67,72.84 C33.47,74.54 33.26,76.96 33.06,80.12 C32.86,83.2733333 32.76,86.68 32.76,90.34 C32.76,97.52 32.8933333,103.776667 33.16,109.11 C33.3629088,113.769169 33.8773916,118.409537 34.7,123 C35.3849808,127.357167 36.8518954,131.554643 39.03,135.39 C41.0433333,138.723333 44.16,140.39 48.38,140.39 C54.3,140.39 58.1433333,137.44 59.91,131.54 Z" id="Combined-Shape" fill="#FFFFFF"></path>
            <path d="M150.26,146.19 C136.693333,146.183333 125.466667,141.316667 116.58,131.59 C107.693333,121.863333 103.25,109.773333 103.25,95.32 C103.256667,80.8 107.716667,68.6933333 116.63,59 C125.543333,49.3066667 136.753333,44.46 150.26,44.46 C164.02,44.4866667 175.293333,49.4433333 184.08,59.33 C192.866667,69.2166667 197.26,81.2166667 197.26,95.33 C197.26,109.236667 192.926667,121.19 184.26,131.19 C175.593333,141.19 164.26,146.19 150.26,146.19 Z M136.26,64.7 L136.22,64.7 C134.66,70.74 133.903333,80.95 133.95,95.33 C133.943333,109.916667 134.686667,120.123333 136.18,125.95 C138.553333,134.97 143.27,139.48 150.33,139.48 C157.043333,139.473333 161.45,136.013333 163.55,129.1 C165.65,122.186667 166.7,110.93 166.7,95.33 C166.726667,79.7966667 165.626667,68.5533333 163.4,61.6 C161.173333,54.6466667 156.84,51.17 150.4,51.17 C143.346667,51.17 138.633333,55.68 136.26,64.7 Z" id="Combined-Shape" fill="#FFFFFF"></path>
            <path d="M16.5,195.94 L15.5,198.21 C14.8818936,199.348646 14.5169118,200.607322 14.43,201.9 C14.43,202.9 15.43,203.61 17.84,203.61 L17.84,205.31 L7.77,205.31 L7.77,203.61 C9.2878358,203.496389 10.6096601,202.531186 11.18,201.12 L25.31,169.38 L27,169.38 L40.64,200.06 C41.78,202.54 42.27,203.47 44.26,203.61 L44.26,205.31 L26.94,205.31 L26.94,203.61 C29.07,203.75 30.78,203.18 30.78,202.26 C30.7740336,201.026974 30.483128,199.812015 29.93,198.71 L28.51,195.94 L16.5,195.94 Z M22.61,181.66 L17.61,193.38 L27.55,193.38 L22.61,181.66 Z" id="Combined-Shape" fill="#FFFFFF"></path>
            <path d="M77.15,206.16 L53.78,177.83 L53.64,177.83 L53.64,199.13 C53.64,202.47 54.78,203.47 58.26,203.61 L58.26,205.31 L46.4,205.31 L46.4,203.61 C49.95,203.32 50.66,202.26 50.66,199.06 L50.66,174.35 C49.9722561,172.721591 48.2971931,171.737694 46.54,171.93 L46.54,170.23 L59.68,170.23 L75.94,190.23 L76.08,190.23 L76.08,177.05 C76.08,173.21 74.16,172.05 71.54,171.93 L71.54,170.23 L83,170.23 L83,171.93 C80.8,172.22 79,172.64 79,176.05 L79,206.16 L77.15,206.16 Z" id="Path" fill="#FFFFFF"></path>
            <path d="M109.46,199.91 C109.46,203.04 111.16,203.47 114.14,203.61 L114.14,205.31 L94.69,205.31 L94.69,203.61 C97.69,203.47 99.37,203.04 99.37,199.91 L99.37,191.68 L89.15,173.78 C88.5289118,172.622468 87.3134585,171.908631 86,171.93 L86,170.23 L104,170.23 L104,171.93 C103.15,171.93 100.31,172.07 100.31,173.64 C100.31,175.21 101.87,177.33 105.31,183.3 L107.72,187.56 L110.63,182.87 C113.63,178.04 115.54,175.77 115.54,174.06 C115.54,172.06 112.98,171.93 111.84,171.93 L111.84,170.23 L122.64,170.23 L122.64,171.93 C121.22,171.93 120.36,172.36 119.23,174.06 L109.43,189.47 L109.46,199.91 Z" id="Path" fill="#FFFFFF"></path>
            <path d="M150.78,180.6 L148.87,180.6 C147.45,176.41 142.87,171.36 138.07,171.36 C134.74,171.36 132.68,173.21 132.68,175.48 C132.68,179.32 135.59,180.53 141.91,183.15 C149.15,186.21 152.28,189.15 152.28,195.09 C152.28,201.76 147.94,206.16 138.64,206.16 C132.96,206.16 130.26,204.16 129.05,204.16 C128.05,204.16 127.49,205.22 127.14,206.16 L125.43,206.16 L125.43,193.38 L127.14,193.38 C129.98,201.05 134.88,204.18 139.57,204.18 C142.57,204.18 145.03,202.47 145.03,199.28 C145.03,194.8 141.34,194.02 136.03,191.75 C130.03,189.19 125.45,186.14 125.45,179.96 C125.45,174.56 129.93,169.38 138.09,169.38 C143.7,169.38 145.91,171.38 147.18,171.38 C148.45,171.38 148.89,169.97 149.1,169.38 L150.8,169.38 L150.78,180.6 Z" id="Path" fill="#FFFFFF"></path>
        </g>
    </g>
</svg>