<svg xmlns="http://www.w3.org/2000/svg" viewBox="0 0 521.69 83.53"><defs><style>.cls-1{fill:#fff;}</style></defs><title>Asset 1</title><g id="Layer_2" data-name="Layer 2"><g id="Capa_1" data-name="Capa 1"><path class="cls-1" d="M297,81.28V74.4l3.81-.19c4.07-.23,5.26-1.43,5.38-5.57.06-2.17,0-4.35,0-6.52q0-19.69,0-39.41c0-6.61-.82-7.44-7.46-7.63-.5,0-1-.07-1.9-.13V7.28c1.88,0,3.5,0,5.12,0,11.38,0,22.76-.09,34.13,0,19.34.22,30.46,9.94,33,29.08,1.32,9.88.64,19.66-4,28.74C359.74,75.77,350.32,80.71,339,81.27c-13.62.68-27.3.26-41,.31A4.4,4.4,0,0,1,297,81.28Zm24.71-7.8c5.17,0,10.12.35,15-.08,7.58-.67,12.66-5.09,14.71-12.29C354.56,50.18,354.38,39,352,28c-1.28-6-5.09-10.44-11.35-11.34s-12.47-.82-18.94-1.18Z"/><path class="cls-1" d="M135.33,74.87v6.49H105.79V75.24c.12-.11.28-.35.44-.35,7.19-.07,6.29-1.8,6.31-7.37,0-8.69,0-17.38,0-26.07,0-6.86-.12-7-6.77-8.41V25.2H118.3c7.52,0,7.52,0,8.58,7.46.23,1.63.41,3.27.68,5.35.48-1,.81-1.67,1.12-2.34,4.91-11,18.87-15.4,29.13-9.13,6.29,3.84,7.74,10.18,7.86,16.92.15,7.76,0,15.52.05,23.28,0,7,0,7,6.66,8.43v6.22H143.07V74.88c1.33-.07,2.73-.18,4.13-.2,2.28,0,3.52-1.25,3.52-3.44,0-9.83.23-19.67-.13-29.48-.23-6.37-5.29-9.4-12-7.86s-10.68,6.87-11,15.35c-.29,7.23-.08,14.48-.07,21.72,0,2.35,1.12,3.67,3.59,3.7C132.4,74.68,133.72,74.79,135.33,74.87Z"/><path class="cls-1" d="M55.24,59.22H64c.07,1.05.17,2,.18,2.85,0,6.39,0,12.78,0,19.1-6.94,1.34-7,1.33-9.7-6.4-4.86,6.07-11.33,8.4-18.77,8.61-7.17.2-14-.95-20.21-4.78a26.82,26.82,0,0,1-11-12.74C-1,52.42-1.69,38.67,3.82,25.1,11.59,5.94,32,3.16,44,7.13,47.48,8.28,50.39,11,53.47,13,56,6.83,56,6.83,63.22,7.48V29.83h-9.3A3.11,3.11,0,0,1,53.5,29c-1.27-11.73-8.69-15.75-20-14.3-9.07,1.15-14.06,7.2-15.89,15.65a63,63,0,0,0,.49,29.53C21.43,72.39,33.8,78.11,45.81,73c4.88-2.07,7.55-5.9,8.82-10.88C54.85,61.23,55,60.32,55.24,59.22Z"/><path class="cls-1" d="M468.41,74.43c.62,4.85.2,6.23-4,7.27a28.88,28.88,0,0,1-10.94.69c-5-.73-7.76-4.39-8.31-10.17-2.28,5.41-5.68,8.79-10.82,10.16a21.68,21.68,0,0,1-14.28-.75,13.75,13.75,0,0,1-8.88-12.07c-.62-6,1.53-11,7.08-13.63,4.15-2,8.67-3.25,13-4.87,3.19-1.18,6.46-2.21,9.51-3.69a7.31,7.31,0,0,0,4.4-8.11c-.56-4.06-2.8-6.63-6.75-7.52a20.41,20.41,0,0,0-4.61-.5c-5.11.05-5.58.52-5.76,5.52-.12,3.22-.92,6-4.34,7.11-2.89.9-5.81.83-8-1.61-2.39-2.62-2.19-5.67-.92-8.7,1.65-3.9,5-6,8.71-7.44a36.22,36.22,0,0,1,23.15-.89c7.86,2.2,12.6,8.41,12.94,17,.32,8.27.18,16.55.25,24.82a21.64,21.64,0,0,0,.15,2.79c.54,3.86,1.86,4.93,5.8,4.75C466.63,74.59,467.44,74.51,468.41,74.43ZM444.64,50.75c-4,2-8.19,4-12.37,6.17-5.25,2.66-7,6.52-5.75,12.26,1,4.5,4.35,6.71,9,5.93a10.74,10.74,0,0,0,9.06-9.71C445,60.44,444.64,55.38,444.64,50.75Z"/><path class="cls-1" d="M291,52.3c-.17,11-3.05,20.53-12.84,26.54C259.34,90.4,236.22,79,234,57.08c-1-9.65.48-18.81,7.95-25.65,9.8-9,21.42-9.87,33.25-5C286.63,31.08,290.79,40.79,291,52.3Zm-14.9,0-.36-.08c-.22-2.78-.37-5.57-.67-8.35a16.12,16.12,0,0,0-.89-3.28c-2.06-6.21-5.95-9.06-12.17-8.93-5.82.11-10.12,3.34-11.53,9.4a50.35,50.35,0,0,0,.45,25.48c1.71,6,5.59,8.74,11.62,8.74s9.85-2.76,11.39-8.94C275.09,61.77,275.41,57,276.1,52.3Z"/><path class="cls-1" d="M474.82,81.21v-17h8.72c.15.41.36,1,.56,1.51a14.88,14.88,0,0,0,20.28,8.54c3.27-1.53,4.66-4.08,4.48-7.74s-2.68-4.77-5.48-5.39c-4.84-1.07-9.79-1.65-14.61-2.79-6.06-1.42-11-4.5-12.62-11s-1.19-12.6,3.68-17.69c5.38-5.63,17.06-7.65,24-4.06,2,1.05,3.69,2.82,5.46,4.21.74-1.21,1.37-3.45,2.78-4.19s3.79-.18,5.94-.18v16c-2.43,0-4.79.15-7.12-.08-.73-.08-1.61-1.07-2-1.85-3.22-6.53-9.58-9.29-16.59-7.11-3.12,1-4.62,3.09-4.77,6.44s1.26,5.49,4.4,6.21c4.83,1.1,9.71,1.95,14.58,2.85,9.76,1.81,14.91,7.34,15.16,16.35.27,9.37-4.92,16.2-14.49,18a44.22,44.22,0,0,1-12.59.16,14.25,14.25,0,0,1-10.31-6.36C481.45,82.22,481.05,82.44,474.82,81.21Z"/><path class="cls-1" d="M226.54,69.59c1.15,5.3.43,7-4,9.58-19.64,11.58-43.26-1.11-44.16-23.81-.45-11.19,2.6-21,12.75-27.16,9.1-5.5,18.83-5.73,28.61-1.91,4.5,1.77,7.46,5.12,8.06,10.15.52,4.3-1.86,7.45-5.94,7.89-4.79.53-7.76-1.68-8.27-6.17-.05-.41-.07-.83-.1-1.24-.27-5.12-.88-5.68-6-5.5-7.78.27-12.65,5.17-13.46,14.54a70.45,70.45,0,0,0,.51,15.42c1,7,5.63,11,12.64,12.08a28.86,28.86,0,0,0,16.58-2.59Z"/><path class="cls-1" d="M405,74.93v6.44H375.7V75.12c6.95-1.28,6.95-1.28,6.95-8.66V41.62c0-7.1-.13-7.25-7.06-8.57V25.52h21.92V43.88q0,12.42,0,24.84c0,5.4.34,5.74,5.74,6C403.76,74.77,404.26,74.85,405,74.93Z"/><path class="cls-1" d="M69.89,25.2H89.58c.71,0,1.41.14,2.42.25v4.05q0,19.4,0,38.78c0,5.82.31,6.12,6,6.47.49,0,1,.15,1.67.26.06,1.11.15,2.11.17,3.11s0,2,0,3.26H70.19V75.25c.33-.21.49-.39.67-.41,6.25-.54,6.27-.54,6.27-6.75,0-9.41,0-18.82,0-28.23,0-5-.54-5.47-5.44-6.49A2.77,2.77,0,0,1,70,31.51,56,56,0,0,1,69.89,25.2Z"/><path class="cls-1" d="M381.85,20.32c-.87-1.24-1.51-2.16-2.33-3.35,3.89-4.73,7.77-9.54,11.75-14.25,2-2.31,4.67-3.52,7.46-2.12A7.91,7.91,0,0,1,402.4,5c.91,3.12-.77,5.74-3.57,7.17C393.33,15,387.7,17.53,381.85,20.32Z"/><path class="cls-1" d="M92,10.7a8.23,8.23,0,0,1-8.41,8.13,8.43,8.43,0,0,1-8.38-8.56,8.62,8.62,0,0,1,8.49-8.2A8.42,8.42,0,0,1,92,10.7Z"/></g></g></svg>