<svg xmlns="http://www.w3.org/2000/svg" viewBox="0 0 85.04 10.66"><defs><style>.cls-1,.cls-2{fill:#fff;}.cls-2{fill-rule:evenodd;}</style></defs><title>Asset 1</title><g id="Layer_2" data-name="Layer 2"><g id="Capa_1" data-name="Capa 1"><path class="cls-1" d="M24.62,10.62V8.34H20.46a5.3,5.3,0,0,0,4.16,2.28Z"/><path class="cls-1" d="M29.46,8.34H25.3s0,2.28,0,2.28a5.42,5.42,0,0,0,4.16-2.28Z"/><path class="cls-1" d="M25.3,0V2.25h4.16A5.5,5.5,0,0,0,25.3,0Z"/><path class="cls-1" d="M20.46,2.25h4.16s0-2.25,0-2.25a5.51,5.51,0,0,0-4.16,2.25Z"/><path class="cls-1" d="M24.62,7.78V5.65s-5,0-5,0a6.23,6.23,0,0,0,.45,2.13s4.52,0,4.52,0Z"/><path class="cls-1" d="M30.27,5.65h-5s0,2.13,0,2.13,4.52,0,4.52,0a8,8,0,0,0,.45-2.13Z"/><path class="cls-1" d="M25.3,2.79V5s5,0,5,0a8.14,8.14,0,0,0-.45-2.18Z"/><path class="cls-1" d="M19.65,5h5s0-2.18,0-2.18H20.1A7.3,7.3,0,0,0,19.65,5Z"/><path class="cls-1" d="M0,10.5v-.43H.83L1.06,10c.31-.06.48-.22.51-.46V1.09c0-.24-.2-.39-.5-.46L.86.59H0V.16H9.34l.23,3.09H9l0-.52a2.32,2.32,0,0,0-.77-1.37A3.37,3.37,0,0,0,7.09.74,5.31,5.31,0,0,0,5.68.59H4.54a.53.53,0,0,0-.37.1.48.48,0,0,0-.11.36V4.68h.37c1.39,0,2.14-.56,2.25-1.69V2.63H7.3V7.16H6.67v-.4c0-1.1-.76-1.65-2.27-1.65H4.06V9.49a.51.51,0,0,0,.57.58H5.69A3.86,3.86,0,0,0,8,9.47,2.25,2.25,0,0,0,9,8.24c.09-.43.14-.69.16-.77a2.73,2.73,0,0,0,0-.32h.52L9.38,10.5Z"/><path class="cls-1" d="M9.53.63V.16h5.1V.63h-.76l-.22,0a.53.53,0,0,0-.45.46V9.46c0,.41.19.61.55.61h.92a2.41,2.41,0,0,0,1.83-.78,4.66,4.66,0,0,0,1-2.37l.07-.47h.49l-.21,4.05H9.53v-.43h.77l.21-.05A.54.54,0,0,0,11,9.55V1.13a.56.56,0,0,0-.48-.46l-.17,0Z"/><path class="cls-1" d="M30.8,10.5v-.43h.78l.21-.05a.55.55,0,0,0,.51-.58V1.13c0-.24-.19-.39-.48-.46l-.22,0h-.8V.16h4.53l2,6.68L39.5.16h4.29V.63H43l-.23,0c-.3.07-.46.22-.49.46V9.55c0,.25.2.4.49.47l.18.05h.82v.43H38.64v-.43h.78l.22-.05c.31-.07.47-.23.47-.47V1l-3,9.55H35.91l-3-9.64V9.55a.53.53,0,0,0,.48.47l.17.05h.84v.43Z"/><path class="cls-1" d="M44.22.59V.16h5V.59h-.66l-.18,0a.54.54,0,0,0-.41.48V7.58a3.07,3.07,0,0,0,.38,1.61,1.44,1.44,0,0,0,.7.4,2,2,0,0,0,.77.11,2.06,2.06,0,0,0,.35,0,2.28,2.28,0,0,0,.52-.1,1.49,1.49,0,0,0,.88-.6A2.39,2.39,0,0,0,52,7.43V1.29l.18-.07L52,1.11a.64.64,0,0,0-.14-.35.66.66,0,0,0-.25-.13l-.14,0h-.71V.16H54V.59H53.3l-.19,0a.51.51,0,0,0-.42.48V7.37a3.79,3.79,0,0,1-.56,2.28,2.16,2.16,0,0,1-1.4.87c-.55.09-1.88.14-2.13.14h-.29l-.87-.12a2.16,2.16,0,0,1-1.36-.78,2.88,2.88,0,0,1-.63-2V1.09a.52.52,0,0,0-.39-.47l-.14,0h-.7Z"/><path class="cls-1" d="M54.35,10.5v-.43h.79l.22-.05a.55.55,0,0,0,.49-.47V1.25a.61.61,0,0,0-.49-.58l-.16,0h-.85V.16H58l4.47,7.42V1.13A.56.56,0,0,0,62,.67l-.18,0H61V.16h3.59V.63h-.8l-.21,0c-.31.08-.47.23-.47.46V10.5H61.4L56.48,2.57v7c0,.24.16.39.49.47l.19.05H58v.43Z"/><path class="cls-2" d="M64.74,10.5v-.43h.83L65.8,10a.55.55,0,0,0,.51-.47V1.11a.61.61,0,0,0-.49-.48H64.76V.16H70A5.41,5.41,0,0,1,73.11,1a4,4,0,0,1,1.67,2.07,7,7,0,0,1,.41,2.21A5.12,5.12,0,0,1,74,8.84a5,5,0,0,1-3.25,1.61L70,10.5Zm4-1.09a.82.82,0,0,0,.12.52.67.67,0,0,0,.48.14H70a2.28,2.28,0,0,0,2-1,5.27,5.27,0,0,0,.78-3.2V4.81a7.6,7.6,0,0,0,0-.94,7.23,7.23,0,0,0-.27-1.26,2.9,2.9,0,0,0-.67-1.28,2.08,2.08,0,0,0-1-.62,2,2,0,0,0-.62-.12h-.9a.75.75,0,0,0-.47.11.68.68,0,0,0-.12.47V9.41Z"/><path class="cls-2" d="M76,5.33v-.4c0-.11.05-.57.16-1.4a4.1,4.1,0,0,1,1.37-2.38A4.19,4.19,0,0,1,80.5,0a4.14,4.14,0,0,1,3,1.15,4.09,4.09,0,0,1,1.37,2.43C85,4.43,85,4.9,85,5s0,.21,0,.33,0,.22,0,.33-.06.58-.17,1.43A4.19,4.19,0,0,1,83.5,9.51a4.16,4.16,0,0,1-3,1.15,4.23,4.23,0,0,1-3-1.15,4,4,0,0,1-1.35-2.29C76,6.45,76,6,76,5.81s0-.34,0-.48Zm2.5.08v.72c0,.34,0,.58,0,.7s.06.49.15,1.14a3.36,3.36,0,0,0,.6,1.55,1.62,1.62,0,0,0,2.5,0,2.84,2.84,0,0,0,.59-1.4c.09-.53.13-.91.15-1.15s0-.52,0-.84V4.69c0-.41,0-.69,0-.84s-.06-.47-.14-1a4,4,0,0,0-.43-1.32,1.52,1.52,0,0,0-.75-.72,1.68,1.68,0,0,0-.62-.15,1.65,1.65,0,0,0-1.81,1.44c-.15,1-.23,1.53-.25,1.72s0,.47,0,.84v.72Z"/></g></g></svg>