<svg xmlns="http://www.w3.org/2000/svg" viewBox="0 0 66.19 10.05"><defs><style>.cls-1{fill:#fff;}</style></defs><title>Asset 1</title><g id="Layer_2" data-name="Layer 2"><g id="Capa_1" data-name="Capa 1"><path class="cls-1" d="M13.88,1.79h1.66c1,0,1.88.22,1.88,1.46s-.88,1.46-1.88,1.46H13.88ZM11.74,9.86h2.14V6.37h2.25A3,3,0,0,0,19.5,3.25,3,3,0,0,0,16.13.12H11.74Z"/><path class="cls-1" d="M21.1,5.58a1.52,1.52,0,0,1,1.61-1.5c.94,0,1.36.52,1.54,1.5Zm5.09,1.23c.13-2.17-1-4.19-3.43-4.19a3.54,3.54,0,0,0-3.6,3.72,3.45,3.45,0,0,0,3.6,3.71,3.17,3.17,0,0,0,3.3-2.37h-1.7a1.6,1.6,0,0,1-1.53.91c-1.08,0-1.68-.56-1.73-1.78Z"/><path class="cls-1" d="M26.61,9.86h1.94V6.68c0-1.24.49-2.26,1.91-2.26a3.58,3.58,0,0,1,.69.07V2.69a1.48,1.48,0,0,0-.42-.07,2.48,2.48,0,0,0-2.25,1.5h0V2.81H26.61Z"/><path class="cls-1" d="M33.46.12H31.52v1.6h1.94ZM31.52,9.86h1.94v-7H31.52Z"/><path class="cls-1" d="M35.84,6.34c0-1.13.4-2.26,1.71-2.26s1.71,1.13,1.71,2.26-.39,2.25-1.71,2.25-1.71-1.13-1.71-2.25m-1.94,0a3.46,3.46,0,0,0,3.65,3.71A3.45,3.45,0,0,0,41.2,6.34a3.46,3.46,0,0,0-3.65-3.72A3.46,3.46,0,0,0,33.9,6.34M40,0H37.83L36.52,1.94h1.35Z"/><path class="cls-1" d="M46.74,6.32c0,1.16-.38,2.27-1.66,2.27s-1.71-1.16-1.71-2.26.44-2.25,1.71-2.25,1.66,1.09,1.66,2.24m0,3.54h1.84V.12H46.67V3.67h0a2.46,2.46,0,0,0-2.1-1c-2.08,0-3.13,1.76-3.13,3.65s1,3.78,3.17,3.78A2.33,2.33,0,0,0,46.74,9h0Z"/><path class="cls-1" d="M51.34.12H49.4v1.6h1.94ZM49.4,9.86h1.94v-7H49.4Z"/><path class="cls-1" d="M58.7,5.29c-.12-1.8-1.65-2.67-3.31-2.67a3.49,3.49,0,0,0-3.61,3.82,3.43,3.43,0,0,0,3.57,3.61,3.15,3.15,0,0,0,3.39-2.89H56.87a1.49,1.49,0,0,1-1.54,1.43c-1.21,0-1.61-1.21-1.61-2.22s.41-2.29,1.65-2.29A1.31,1.31,0,0,1,56.8,5.29Z"/><path class="cls-1" d="M60.83,6.34c0-1.13.39-2.26,1.7-2.26s1.72,1.13,1.72,2.26-.39,2.25-1.72,2.25-1.7-1.13-1.7-2.25m-1.94,0a3.65,3.65,0,1,0,7.3,0,3.65,3.65,0,1,0-7.3,0"/><path class="cls-1" d="M1.94,5.58a1.52,1.52,0,0,1,1.61-1.5c.94,0,1.36.52,1.54,1.5ZM7,6.81C7.16,4.64,6,2.62,3.6,2.62A3.54,3.54,0,0,0,0,6.34a3.45,3.45,0,0,0,3.6,3.71A3.17,3.17,0,0,0,6.9,7.68H5.2a1.6,1.6,0,0,1-1.53.91C2.59,8.59,2,8,1.94,6.81Z"/><rect class="cls-1" x="7.5" y="0.12" width="1.94" height="9.74"/></g></g></svg>