<svg xmlns="http://www.w3.org/2000/svg" viewBox="0 0 231.31 47.35"><defs><style>.cls-1{fill:#fff;}</style></defs><title>Asset 3</title><g id="Layer_2" data-name="Layer 2"><g id="Capa_1" data-name="Capa 1"><path class="cls-1" d="M231.29,40.36c0,2,.07,3.83,0,5.64,0,.41-.65.93-1.11,1.11a5,5,0,0,1-1.7.06H79.15c-1.25,0-2.6.35-3.29-1.32-.2-.46-1.27-.48-1.77-.9A2.88,2.88,0,0,1,73,43.29c-.25-2.92-.19-2.93,2.77-2.93H231.29Z"/><path class="cls-1" d="M15,1.94v15c3.57,1,6-.12,7.42-3.34.29-.68.48-1.41.83-2.05a7.71,7.71,0,0,1,1.24-1.29,10.21,10.21,0,0,1,.24,1.4c0,4.34,0,8.67,0,13A4.28,4.28,0,0,1,24.16,26c-.35-.38-.72-.73-1-1.14a3.41,3.41,0,0,1-.34-.78c-1.68-4-3.18-4.89-7.69-4.46V34.78c3.24-.31,6.55-.22,9.6-1.07,1.83-.51,3.38-2.36,4.83-3.83s2.47-3.14,3.74-4.67c.23-.29.74-.35,1.12-.51a3,3,0,0,1,.32,1c-.31,3.57-.66,7.13-1,10.79H2.33l-.22-.43a8.4,8.4,0,0,1,1.43-.8c3.2-1,3.21-1,3.21-4.32,0-8.85-.06-17.69,0-26.54,0-1.7-.52-2.46-2.13-2.77A16.71,16.71,0,0,1,2.08.74L2.26.16H32.47c.17,2.35.35,4.77.53,7.2.1,1.36.21,2.73.24,4.1a3.06,3.06,0,0,1-.38,1c-.37-.17-.88-.24-1.09-.52C30.38,10.07,29,8.17,27.71,6.23a8.24,8.24,0,0,0-7.1-4.06C18.8,2.15,17,2,15,1.94Z"/><path class="cls-1" d="M61.75,12.56H71l.27,2.18c1.44-.85,2.73-1.76,4.14-2.41,5-2.31,9.67-.71,12.08,4.2s2.39,10.11-.75,14.81-7.87,6.13-13.28,5.82c-.56,0-1.12-.12-1.92-.21,0,2.73-.06,5.34,0,7.94,0,.41.74.88,1.22,1.17a6.49,6.49,0,0,1,2,1.29H62l-.33-.44a4.5,4.5,0,0,1,.88-.38c1.92-.41,2.15-1.69,2.13-3.43q-.12-13.08,0-26.18c0-1.69-.27-2.87-2-3.35a3.67,3.67,0,0,1-1-.7ZM71.5,24.2c0,2.34-.13,4.69.06,7a5,5,0,0,0,1.32,2.93c2.5,2.43,6,1.77,7.52-1.38C82.23,29,82.13,25,81.4,21c-.86-4.67-4.07-6.55-8.7-5.5-.9.2-1.23.58-1.21,1.48C71.53,19.42,71.5,21.81,71.5,24.2Z"/><path class="cls-1" d="M63.15,40.45a32.92,32.92,0,0,1,0,3.46c0,.4-.52.79-.87,1.12a10.82,10.82,0,0,1-2,1.69,4.49,4.49,0,0,1-2.06.43q-25.93,0-51.85,0c-1.65,0-3.31,0-5,0-1,0-1.43-.4-1.39-1.43,0-1.37-.09-2.75.07-4.1.05-.46.69-1,1.18-1.23s.89,0,1.35,0H61.47C62,40.37,62.47,40.41,63.15,40.45Z"/><path class="cls-1" d="M129.52,36.06c3.4-.9,2.55-3.43,2.57-5.61,0-3.19,0-6.39,0-9.58,0-1.79-.09-3.71-2-4.56s-4.15-.36-6.12.48c-.3.13-.48.85-.49,1.3,0,5.14,0,10.27,0,15.4a3.36,3.36,0,0,0,1,1.73c.33.38.84.61,1.12,1.26H113.44c.73-.53,1-.91,1.45-1,1.47-.43,1.77-1.39,1.75-2.84-.09-5.19-.11-10.38,0-15.57,0-1.74-.27-3-2.11-3.48a1.61,1.61,0,0,1-.89-.94h9.24c.07,1,.15,2,.25,3.31A24.12,24.12,0,0,1,125.72,14,21.09,21.09,0,0,1,130,12c5-1.45,8.73,1.25,8.89,6.43.13,4.56.12,9.13,0,13.69,0,1.81.25,3.1,2.18,3.59.23.06.41.33.92.78H130Z"/><path class="cls-1" d="M197.92,12.57h9.29l.18,3.38a21.4,21.4,0,0,1,2.12-1.58A25.15,25.15,0,0,1,214.19,12c5.05-1.56,8.84,1.18,9,6.45.12,4.44.09,8.89,0,13.34,0,1.82,0,3.44,2.21,3.88a5,5,0,0,1,.82.29l-.35.51H213.45c.69-.53,1-.92,1.39-1,1.36-.4,1.59-1.31,1.57-2.61-.08-4,0-8,0-12,0-1.78-.05-3.71-2-4.55s-4.15-.33-6.13.5c-.28.12-.47.75-.48,1.14,0,5.25,0,10.49,0,15.74a2.61,2.61,0,0,0,.87,1.46c.39.41.95.66,1.27,1.35H198.28l-.17-.27a5.84,5.84,0,0,1,1.37-.89c1.22-.37,1.46-1.15,1.45-2.32-.06-5.42-.09-10.84,0-16.25,0-1.59-.34-2.61-1.91-3.1a5.48,5.48,0,0,1-1.22-.73Z"/><path class="cls-1" d="M198.67,24.19c0,7.61-5.49,13-13.1,13s-12.47-5-12.45-13c0-7.53,5.55-13,13.19-12.94S198.71,16.35,198.67,24.19Zm-6.93,0a77.13,77.13,0,0,0-1.58-7.84A4.3,4.3,0,0,0,185.78,13c-2.34.1-3.64,1.64-4.28,3.63a25,25,0,0,0-.05,15.16,4.76,4.76,0,0,0,4.4,3.72A4.39,4.39,0,0,0,190.2,32C190.92,29.5,191.23,26.89,191.74,24.23Z"/><path class="cls-1" d="M102.92,24.18c0-2,.11-3.9,0-5.76A4,4,0,0,0,99,14.36a27.53,27.53,0,0,0-3.74,0,20.12,20.12,0,0,1,1.48,4A3.14,3.14,0,0,1,93.46,22a3.21,3.21,0,0,1-3.24-3.89,6.29,6.29,0,0,1,2-3.38,15.29,15.29,0,0,1,12.12-2.88c3.51.56,5.36,3,5.4,6.84,0,4.56.09,9.13,0,13.68,0,1.64.27,2.75,2,3.21.32.09.57.43,1.2.94-3,0-5.49.14-8-.08-.71-.07-1.33-1.2-2.15-2-.24.2-.69.59-1.16,1a9.21,9.21,0,0,1-7.69,1.95,5.26,5.26,0,0,1-4.44-3.78A5.52,5.52,0,0,1,91,27.76c2-1.93,4.51-2.61,7.11-3.06C99.65,24.44,101.19,24.36,102.92,24.18Zm0,1.19a32.94,32.94,0,0,0-4.25,1.16,4.39,4.39,0,0,0-1.85,6c.88,1.73,3.21,2.27,5.2,1.15a1.69,1.69,0,0,0,.86-1.09C103,30.31,103,28.06,103,25.37Z"/><path class="cls-1" d="M46.18,27.73l-4.71,6.91,2.1,1.46-.1.34H34.81c.2-.29.31-.65.54-.76,4.16-2,6-6.26,9.06-9.37.21-.21.12-1-.1-1.31-2.25-3.42-4.49-6.87-6.91-10.18-.64-.87-1.89-1.3-3.27-2.21H47.26l.15.3L45.1,14.29l4.09,7,4.28-6.77-2.4-1.92h9.21c0,.18.06.37,0,.38-3.55,1.49-5.4,4.74-7.71,7.5s-2.25,2.7-.21,5.58c1.35,1.91,2.59,3.9,4,5.73,1.31,1.67,2.83,3.17,4.23,4.72H48.13L48,36.19l2.45-1.5Z"/><path class="cls-1" d="M159.51,15.64a20,20,0,0,1,0,2.05,5.44,5.44,0,0,1-.37,1.19,4.62,4.62,0,0,1-1.22-.67c-.69-.75-1.2-1.69-1.94-2.39a13.52,13.52,0,0,0-3.19-2.47,3.13,3.13,0,0,0-4.17,1.27,3.24,3.24,0,0,0,.85,4.43,14.17,14.17,0,0,0,2.65,1.53c1.49.7,3,1.29,4.53,2,2.78,1.31,4.62,3.31,4.55,6.6s-1.9,5.58-4.78,6.9c-4.2,1.93-8.48,1.19-12.71,0a1.32,1.32,0,0,1-.7-1c-.13-1.88-.17-3.77-.18-5.65,0-.32.29-.65.45-1a3.27,3.27,0,0,1,1,.52,45.56,45.56,0,0,0,3.81,4.36,9.73,9.73,0,0,0,3.85,2,3,3,0,0,0,3.65-1.83,3.31,3.31,0,0,0-.83-4.2,18,18,0,0,0-3.38-2c-1.67-.85-3.5-1.45-5.07-2.44-4.71-3-4.61-9,.17-11.93,3.91-2.38,8.1-1.88,12.28-.88.29.07.62.62.67,1a22,22,0,0,1,0,2.57Z"/><path class="cls-1" d="M173.6,36.51H161.29l-.18-.36a8.86,8.86,0,0,0,1.86-1,3.07,3.07,0,0,0,1.14-1.76q.12-8.73,0-17.44A3,3,0,0,0,163,14.11,9.79,9.79,0,0,0,161,13l.11-.43h9.7c0,.53.1,1.13.1,1.73,0,6,.06,12.08,0,18.12,0,1.57.3,2.63,1.92,3.06a3.82,3.82,0,0,1,1,.61Z"/><path class="cls-1" d="M171.41,4.31a4.24,4.24,0,1,1-8.47-.1,4.24,4.24,0,1,1,8.47.1Z"/><path class="cls-1" d="M183.48,8.63c.76-2.87,1.38-5.29,2.08-7.69a1.44,1.44,0,0,1,1-.89c2.14-.08,4.29,0,6.82,0a79.82,79.82,0,0,1-5.54,8.09C187.16,8.85,185.17,8.46,183.48,8.63Z"/></g></g></svg>