<?xml version="1.0" encoding="UTF-8"?>
<svg width="300px" height="64px" viewBox="0 0 300 64" version="1.1" xmlns="http://www.w3.org/2000/svg" xmlns:xlink="http://www.w3.org/1999/xlink">
    <!-- Generator: Sketch 51.1 (57501) - http://www.bohemiancoding.com/sketch -->
    <title>Forcadell</title>
    <desc>Created with Sketch.</desc>
    <defs></defs>
    <g id="Page-1" stroke="none" stroke-width="1" fill="none" fill-rule="evenodd">
        <g id="Forcadell" fill-rule="nonzero">
            <g id="#fffefeff" fill="#FFFEFE">
                <path d="M0,0 L6.82941176,0 C10.441629,0.754871795 13.8013575,2.74051282 16.1375566,5.62735043 C18.081448,8.00957265 19.3045249,10.9935043 19.5298643,14.0745299 C19.8339367,17.6806838 18.7642534,21.3716239 16.6180995,24.2694017 C14.1542986,27.6553846 10.3221719,29.9473504 6.22126697,30.6270085 C4.14841629,30.6393162 2.07420814,30.6283761 0,30.6324786 L0,0 Z M3.63529412,0.261196581 C3.63936652,1.12136752 3.61628959,1.98290598 3.64886878,2.84307692 C4.83665158,2.83076923 6.02579186,2.83623932 7.21357466,2.84034188 C6.39638009,1.58222222 5.17873303,0.437606838 3.63529412,0.261196581 Z M0.405882353,1.79282051 C0.407239819,2.14153846 0.407239819,2.49025641 0.411312217,2.83897436 C1.27873303,2.83350427 2.14615385,2.83487179 3.01221719,2.83897436 C3.02307692,1.98700855 3.01900452,1.13641026 3.01493213,0.285811966 C1.99276018,0.447179487 1.10769231,1.05162393 0.405882353,1.79282051 Z M0.750678733,0.568888889 C0.547058824,0.529230769 0.192760181,0.86017094 0.481900452,0.980512821 C0.620361991,0.951794872 1.13891403,0.555213675 0.750678733,0.568888889 Z M5.87239819,0.566153846 C6.69638009,1.17470085 7.32624434,1.9965812 7.89230769,2.84307692 C8.70678733,2.82940171 9.52262443,2.83760684 10.3371041,2.83897436 C9.03529412,1.76683761 7.5081448,0.966837607 5.87239819,0.566153846 Z M9.36923077,1.39897436 C9.9040724,1.81059829 10.4850679,2.16205128 10.980543,2.62700855 C11.2588235,2.96205128 11.7271493,2.81025641 12.1031674,2.83213675 C11.2683258,2.22222222 10.3180995,1.79145299 9.36923077,1.39897436 Z M0.407239819,3.41880342 C0.409954751,5.00376068 0.400452489,6.58871795 0.412669683,8.17367521 C1.2760181,8.16820513 2.13936652,8.16410256 3.00271493,8.17641026 C3.03665158,6.59145299 3.00950226,5.00512821 3.01764706,3.41880342 C2.14751131,3.41880342 1.27737557,3.41880342 0.407239819,3.41880342 Z M3.63393665,3.42017094 C3.64208145,5.00512821 3.61628959,6.59008547 3.64751131,8.17504274 C5.57375566,8.15316239 7.50135747,8.19008547 9.42760181,8.15726496 C9.0040724,6.51076923 8.43393665,4.89162393 7.5800905,3.41880342 C6.26470588,3.41880342 4.94932127,3.4174359 3.63393665,3.42017094 Z M8.23167421,3.41880342 C9.04479638,4.89025641 9.58506787,6.4957265 10.0099548,8.11897436 C10.0873303,8.13264957 10.2434389,8.15863248 10.3221719,8.17230769 C11.659276,8.15452991 12.9977376,8.19692308 14.3334842,8.14905983 C13.5040724,6.38905983 12.4099548,4.7357265 10.9751131,3.4174359 C10.060181,3.42017094 9.14524887,3.4174359 8.23167421,3.41880342 Z M11.8371041,3.41880342 C13.1769231,4.77948718 14.2153846,6.42051282 14.9742081,8.17230769 C15.6936652,8.16820513 16.4131222,8.16683761 17.1325792,8.17367521 C16.1104072,6.32752137 14.6809955,4.71111111 12.9963801,3.45299145 C12.6176471,3.37504274 12.2226244,3.43521368 11.8371041,3.41880342 Z M0.408597285,8.72068376 C0.405882353,10.8047863 0.407239819,12.8888889 0.407239819,14.9729915 C1.27737557,14.974359 2.14751131,14.974359 3.01764706,14.9729915 C3.01764706,12.8888889 3.01900452,10.8047863 3.01764706,8.72068376 C2.14751131,8.71931624 1.27737557,8.72068376 0.408597285,8.72068376 Z M3.63393665,8.72068376 C3.63257919,10.8047863 3.63393665,12.8888889 3.63393665,14.9729915 C5.839819,14.974359 8.04570136,14.974359 10.2515837,14.9716239 C10.2108597,12.8711111 10.0167421,10.7637607 9.53755656,8.7165812 C7.57058824,8.72615385 5.60226244,8.7165812 3.63393665,8.72068376 Z M10.1457014,8.72205128 C10.5841629,10.7747009 10.820362,12.8724786 10.8312217,14.9729915 C12.4832579,14.977094 14.1366516,14.9688889 15.7900452,14.977094 C15.7696833,12.8382906 15.3447964,10.7022222 14.5452489,8.72205128 C13.0778281,8.71931624 11.6117647,8.71931624 10.1457014,8.72205128 Z M15.1900452,8.72068376 C15.9665158,10.7090598 16.3438914,12.8410256 16.400905,14.9729915 C17.2588235,14.974359 18.1167421,14.9729915 18.9760181,14.9729915 C18.9257919,12.8041026 18.3950226,10.6420513 17.4,8.71521368 C16.6628959,8.72478632 15.9271493,8.71794872 15.1900452,8.72068376 Z M0.407239819,15.5582906 C0.407239819,17.5849573 0.407239819,19.6116239 0.408597285,21.6382906 C1.27737557,21.6382906 2.14751131,21.6396581 3.01764706,21.6382906 C3.01900452,19.6116239 3.01900452,17.5849573 3.01764706,15.5582906 C2.14751131,15.5569231 1.27737557,15.5569231 0.407239819,15.5582906 Z M3.63393665,15.5582906 C3.63257919,17.5849573 3.63257919,19.6116239 3.63393665,21.6382906 C5.62941176,21.6369231 7.62488688,21.6437607 9.61900452,21.634188 C10.0303167,19.6376068 10.2434389,17.5986325 10.2488688,15.5582906 C8.04434389,15.5582906 5.839819,15.5569231 3.63393665,15.5582906 Z M10.8285068,15.5582906 C10.8529412,17.6041026 10.5936652,19.6389744 10.2325792,21.6464957 C11.6959276,21.6259829 13.159276,21.6478632 14.6226244,21.6355556 C15.3447964,19.6950427 15.7900452,17.634188 15.7819005,15.5569231 C14.1312217,15.5610256 12.480543,15.5555556 10.8285068,15.5582906 Z M15.261991,21.6369231 C16.0072398,21.6410256 16.7524887,21.6369231 17.499095,21.6396581 C18.4085973,19.7470085 18.9339367,17.662906 18.9746606,15.5582906 C18.1180995,15.5610256 17.260181,15.5500855 16.4036199,15.5651282 C16.3452489,17.634188 15.9841629,19.6964103 15.261991,21.6369231 Z M0.409954751,22.1866667 C0.403167421,23.7716239 0.408597285,25.3552137 0.407239819,26.9401709 C1.27737557,26.9401709 2.14751131,26.9401709 3.01764706,26.9388034 C3.01493213,25.3552137 3.02443439,23.7716239 3.01357466,22.1866667 C2.14615385,22.1907692 1.27737557,22.1907692 0.409954751,22.1866667 Z M3.63529412,22.1894017 C3.63257919,23.7729915 3.63393665,25.3552137 3.63393665,26.9388034 C5.01176471,26.9415385 6.38823529,26.9374359 7.76606335,26.9415385 C8.56289593,25.4509402 9.11266968,23.8358974 9.49004525,22.1880342 C7.53800905,22.1894017 5.58733032,22.1894017 3.63529412,22.1894017 Z M10.0886878,22.1921368 C9.69773756,23.8304274 9.16696833,25.4454701 8.38506787,26.9388034 C9.32714932,26.9087179 10.2895928,27.0030769 11.219457,26.8950427 C12.5647059,25.5535043 13.6357466,23.9384615 14.3918552,22.1921368 C12.9570136,22.1880342 11.5235294,22.1866667 10.0886878,22.1921368 Z M15.0257919,22.2003419 C14.3104072,23.9439316 13.2841629,25.5548718 12.0067873,26.9347009 C12.4153846,26.911453 12.8524887,27.008547 13.2447964,26.8895726 C14.8764706,25.6273504 16.2244344,24.0041026 17.2235294,22.1948718 C16.4904977,22.1866667 15.7574661,22.1798291 15.0257919,22.2003419 Z M3.63936652,27.52 C3.62714932,28.4335043 3.63529412,29.3470085 3.63393665,30.2605128 C4.00316742,30.2345299 4.39547511,30.271453 4.73891403,30.1046154 C5.88461538,29.5740171 6.74117647,28.5784615 7.40497738,27.5241026 C6.14932127,27.52 4.89502262,27.5254701 3.63936652,27.52 Z M8.06470588,27.5295726 C7.56515837,28.3952137 6.93665158,29.182906 6.20090498,29.854359 C7.78506787,29.44 9.26606335,28.6112821 10.4918552,27.522735 C9.68280543,27.5254701 8.87375566,27.5145299 8.06470588,27.5295726 Z M11.4325792,27.517265 C10.7850679,28.1052991 10.0873303,28.6331624 9.36108597,29.1158974 C10.4266968,28.7193162 11.4352941,28.1709402 12.3733032,27.5254701 C12.0597285,27.522735 11.7461538,27.5213675 11.4325792,27.517265 Z M0.407239819,27.522735 C0.407239819,27.9617094 0.407239819,28.3993162 0.407239819,28.8382906 C1.09683258,29.5617094 1.95339367,30.3165812 3.01628959,30.2605128 C3.01900452,29.3483761 3.01628959,28.4362393 3.01900452,27.5241026 C2.14751131,27.5213675 1.27737557,27.522735 0.407239819,27.522735 Z" id="Shape"></path>
            </g>
            <g id="#c5133dff" transform="translate(0.271493, 0.000000)" fill="#C5133D">
                <path d="M6.55791855,0 L46.5176471,0 C45.2728507,2.14017094 43.99819,4.2625641 42.739819,6.39452991 C42.4900452,6.76512821 42.3054299,7.17128205 42.1248869,7.57880342 C41.6959276,8.08068376 41.4,8.67418803 41.059276,9.23623932 C40.5733032,10.0704274 40.0683258,10.8950427 39.5864253,11.7333333 C35.7556561,11.7442735 31.9248869,11.7059829 28.0941176,11.7634188 C26.1339367,11.8441026 24.3597285,13.3866667 23.9850679,15.325812 C23.6063348,16.9121368 24.3054299,18.6584615 25.6276018,19.582906 C26.641629,20.3610256 27.9461538,20.5511111 29.1841629,20.6112821 C30.8131222,20.605812 32.4447964,20.6112821 34.0751131,20.6071795 C35.5371041,20.5935043 36.9841629,21.2376068 37.9696833,22.3247863 C39.5891403,24.0123077 39.9339367,26.8936752 38.4719457,28.7917949 C37.2529412,30.4683761 35.1895928,31.4899145 33.1248869,31.4283761 C30.1506787,31.4242735 27.1764706,31.422906 24.2022624,31.4283761 C24.2049774,39.3244444 24.2022624,47.2205128 24.2036199,55.1165812 C24.1900452,58.0663248 24.2294118,61.0160684 24.1832579,63.9644444 C23.260181,61.9924786 22.4714932,59.9562393 21.5986425,57.9596581 C17.7352941,48.8505983 13.8719457,39.7415385 10.0085973,30.6338462 C8.65656109,30.6297436 7.30316742,30.6365812 5.94977376,30.6270085 C10.0506787,29.9473504 13.8828054,27.6553846 16.3466063,24.2694017 C18.4927602,21.3716239 19.5624434,17.6806838 19.258371,14.0745299 C19.0330317,10.9935043 17.8099548,8.00957265 15.8660633,5.62735043 C13.5298643,2.74051282 10.1701357,0.754871795 6.55791855,0 Z" id="Shape"></path>
                <path d="M3.3638009,0.261196581 C4.90723982,0.437606838 6.12488688,1.58222222 6.94208145,2.84034188 C5.75429864,2.83623932 4.56515837,2.83076923 3.37737557,2.84307692 C3.34479638,1.98290598 3.3678733,1.12136752 3.3638009,0.261196581 Z" id="Shape"></path>
                <path d="M0.13438914,1.79282051 C0.836199095,1.05162393 1.72126697,0.447179487 2.74343891,0.285811966 C2.74751131,1.13641026 2.75158371,1.98700855 2.74072398,2.83897436 C1.87466063,2.83487179 1.00723982,2.83350427 0.139819005,2.83897436 C0.135746606,2.49025641 0.135746606,2.14153846 0.13438914,1.79282051 Z" id="Shape"></path>
                <path d="M0.47918552,0.568864786 C0.867420814,0.555290125 0.348868778,0.948955283 0.21040724,0.977462071 C-0.0787330317,0.858005057 0.275565611,0.52949827 0.47918552,0.568864786 Z" id="Shape"></path>
                <path d="M5.60090498,0.566153846 C7.23665158,0.966837607 8.7638009,1.76683761 10.0656109,2.83897436 C9.25113122,2.83760684 8.43529412,2.82940171 7.62081448,2.84307692 C7.05475113,1.9965812 6.42488688,1.17470085 5.60090498,0.566153846 Z" id="Shape"></path>
                <path d="M9.09773756,1.39897436 C10.0466063,1.79145299 10.9968326,2.22222222 11.8316742,2.83213675 C11.4556561,2.81025641 10.9873303,2.96205128 10.7090498,2.62700855 C10.2135747,2.16205128 9.63257919,1.81059829 9.09773756,1.39897436 Z" id="Shape"></path>
                <path d="M0.135746606,3.41880342 C1.00588235,3.41880342 1.8760181,3.41880342 2.74615385,3.41880342 C2.73800905,5.00512821 2.76515837,6.59145299 2.73122172,8.17641026 C1.8678733,8.16410256 1.00452489,8.16820513 0.141176471,8.17367521 C0.128959276,6.58871795 0.138461538,5.00376068 0.135746606,3.41880342 Z" id="Shape"></path>
                <path d="M3.36244344,3.42017094 C4.67782805,3.4174359 5.99321267,3.41880342 7.30859729,3.41880342 C8.16244344,4.89162393 8.73257919,6.51076923 9.1561086,8.15726496 C7.22986425,8.19008547 5.30226244,8.15316239 3.3760181,8.17504274 C3.34479638,6.59008547 3.37058824,5.00512821 3.36244344,3.42017094 Z" id="Shape"></path>
                <path d="M7.960181,3.41880342 C8.87375566,3.4174359 9.78868778,3.42017094 10.7036199,3.4174359 C12.1384615,4.7357265 13.2325792,6.38905983 14.061991,8.14905983 C12.7262443,8.19692308 11.3877828,8.15452991 10.0506787,8.17230769 C9.9719457,8.15863248 9.8158371,8.13264957 9.73846154,8.11897436 C9.31357466,6.4957265 8.77330317,4.89025641 7.960181,3.41880342 Z" id="Shape"></path>
                <path d="M11.5656109,3.41880342 C11.9511312,3.43521368 12.3461538,3.37504274 12.7248869,3.45299145 C14.4095023,4.71111111 15.838914,6.32752137 16.861086,8.17367521 C16.141629,8.16683761 15.4221719,8.16820513 14.7027149,8.17230769 C13.9438914,6.42051282 12.9054299,4.77948718 11.5656109,3.41880342 Z" id="Shape"></path>
                <path d="M0.137104072,8.72068376 C1.00588235,8.72068376 1.8760181,8.71931624 2.74615385,8.72068376 C2.74751131,10.8047863 2.74615385,12.8888889 2.74615385,14.9729915 C1.8760181,14.974359 1.00588235,14.974359 0.135746606,14.9729915 C0.135746606,12.8888889 0.13438914,10.8047863 0.137104072,8.72068376 Z" id="Shape"></path>
                <path d="M3.36244344,8.72068376 C5.33076923,8.7165812 7.29909502,8.72615385 9.26606335,8.7165812 C9.74524887,10.7637607 9.93936652,12.8711111 9.9800905,14.9716239 C7.77420814,14.974359 5.56832579,14.974359 3.36244344,14.9729915 C3.36244344,12.8888889 3.36108597,10.8047863 3.36244344,8.72068376 Z" id="Shape"></path>
                <path d="M9.87420814,8.72205128 C11.3402715,8.71931624 12.8063348,8.71931624 14.2737557,8.72205128 C15.0733032,10.7022222 15.49819,12.8382906 15.518552,14.977094 C13.8651584,14.9688889 12.2117647,14.977094 10.5597285,14.9729915 C10.5488688,12.8724786 10.3126697,10.7747009 9.87420814,8.72205128 Z" id="Shape"></path>
                <path d="M14.918552,8.72068376 C15.6556561,8.71794872 16.3914027,8.72478632 17.1285068,8.71521368 C18.1235294,10.6420513 18.6542986,12.8041026 18.7045249,14.9729915 C17.8452489,14.9729915 16.9873303,14.974359 16.1294118,14.9729915 C16.0723982,12.8410256 15.6950226,10.7090598 14.918552,8.72068376 Z" id="Shape"></path>
                <path d="M0.135746606,15.5582906 C1.00588235,15.5569231 1.8760181,15.5569231 2.74615385,15.5582906 C2.74751131,17.5849573 2.74751131,19.6116239 2.74615385,21.6382906 C1.8760181,21.6396581 1.00588235,21.6382906 0.137104072,21.6382906 C0.135746606,19.6116239 0.135746606,17.5849573 0.135746606,15.5582906 Z" id="Shape"></path>
                <path d="M3.36244344,15.5582906 C5.56832579,15.5569231 7.77285068,15.5582906 9.97737557,15.5582906 C9.9719457,17.5986325 9.75882353,19.6376068 9.34751131,21.634188 C7.35339367,21.6437607 5.35791855,21.6369231 3.36244344,21.6382906 C3.36108597,19.6116239 3.36108597,17.5849573 3.36244344,15.5582906 Z" id="Shape"></path>
                <path d="M10.5570136,15.5582906 C12.2090498,15.5555556 13.8597285,15.5610256 15.5104072,15.5569231 C15.518552,17.634188 15.0733032,19.6950427 14.3511312,21.6355556 C12.8877828,21.6478632 11.4244344,21.6259829 9.96108597,21.6464957 C10.3221719,19.6389744 10.581448,17.6041026 10.5570136,15.5582906 Z" id="Shape"></path>
                <path d="M14.9904977,21.6369231 C15.7126697,19.6964103 16.0737557,17.634188 16.1321267,15.5651282 C16.9886878,15.5500855 17.8466063,15.5610256 18.7031674,15.5582906 C18.6624434,17.662906 18.1371041,19.7470085 17.2276018,21.6396581 C16.4809955,21.6369231 15.7357466,21.6410256 14.9904977,21.6369231 Z" id="Shape"></path>
                <path d="M0.138461538,22.1866667 C1.00588235,22.1907692 1.87466063,22.1907692 2.74208145,22.1866667 C2.75294118,23.7716239 2.74343891,25.3552137 2.74615385,26.9388034 C1.8760181,26.9401709 1.00588235,26.9401709 0.135746606,26.9401709 C0.137104072,25.3552137 0.131674208,23.7716239 0.138461538,22.1866667 Z" id="Shape"></path>
                <path d="M3.3638009,22.1894017 C5.3158371,22.1894017 7.26651584,22.1894017 9.21855204,22.1880342 C8.84117647,23.8358974 8.29140271,25.4509402 7.49457014,26.9415385 C6.11674208,26.9374359 4.74027149,26.9415385 3.36244344,26.9388034 C3.36244344,25.3552137 3.36108597,23.7729915 3.3638009,22.1894017 Z" id="Shape"></path>
                <path d="M9.81719457,22.1921368 C11.2520362,22.1866667 12.6855204,22.1880342 14.120362,22.1921368 C13.3642534,23.9384615 12.2932127,25.5535043 10.9479638,26.8950427 C10.0180995,27.0030769 9.05565611,26.9087179 8.11357466,26.9388034 C8.89547511,25.4454701 9.42624434,23.8304274 9.81719457,22.1921368 Z" id="Shape"></path>
                <path d="M14.7542986,22.2003419 C15.4859729,22.1798291 16.2190045,22.1866667 16.9520362,22.1948718 C15.9529412,24.0041026 14.6049774,25.6273504 12.9733032,26.8895726 C12.5809955,27.008547 12.1438914,26.911453 11.7352941,26.9347009 C13.0126697,25.5548718 14.038914,23.9439316 14.7542986,22.2003419 Z" id="Shape"></path>
                <path d="M3.3678733,27.52 C4.62352941,27.5254701 5.87782805,27.52 7.13348416,27.5241026 C6.46968326,28.5784615 5.61312217,29.5740171 4.46742081,30.1046154 C4.1239819,30.271453 3.73167421,30.2345299 3.36244344,30.2605128 C3.3638009,29.3470085 3.35565611,28.4335043 3.3678733,27.52 Z" id="Shape"></path>
                <path d="M7.79321267,27.5295726 C8.60226244,27.5145299 9.41131222,27.5254701 10.220362,27.522735 C8.99457014,28.6112821 7.51357466,29.44 5.92941176,29.854359 C6.66515837,29.182906 7.29366516,28.3952137 7.79321267,27.5295726 Z" id="Shape"></path>
                <path d="M11.161086,27.517265 C11.4746606,27.5213675 11.7882353,27.522735 12.10181,27.5254701 C11.1638009,28.1709402 10.1552036,28.7193162 9.08959276,29.1158974 C9.8158371,28.6331624 10.5135747,28.1052991 11.161086,27.517265 Z" id="Shape"></path>
                <path d="M0.135746606,27.522735 C1.00588235,27.522735 1.8760181,27.5213675 2.74751131,27.5241026 C2.74479638,28.4362393 2.74751131,29.3483761 2.74479638,30.2605128 C1.68190045,30.3165812 0.825339367,29.5617094 0.135746606,28.8382906 C0.135746606,28.3993162 0.135746606,27.9617094 0.135746606,27.522735 Z" id="Shape"></path>
                <path d="" id="Shape"></path>
            </g>
            <g id="#040404ff" transform="translate(55.520362, 11.213675)" fill="#040404">
                <path d="M36.7357466,0.243418803 C39.2266968,-0.0588034188 41.8085973,0.218803419 44.1298643,1.20205128 C46.2773756,2.09641026 48.1859729,3.56923077 49.5868778,5.43863248 C51.2361991,7.61162393 52.1728507,10.2810256 52.4429864,12.991453 C52.7239819,15.8441026 52.4076923,18.7911111 51.2932127,21.4441026 C50.3647059,23.682735 48.838914,25.6724786 46.8909502,27.1042735 C44.499095,28.8670085 41.5058824,29.7435897 38.5533937,29.6765812 C36.3705882,29.7094017 34.1823529,29.2034188 32.2248869,28.2311111 C30.19819,27.2095726 28.4429864,25.6410256 27.2036199,23.7278632 C25.6479638,21.3702564 24.8728507,18.5463248 24.7588235,15.7319658 C24.6339367,12.9299145 25.1226244,10.0649573 26.3850679,7.55008547 C27.4493213,5.42222222 29.0755656,3.5774359 31.0723982,2.29880342 C32.7719457,1.19111111 34.7307692,0.505982906 36.7357466,0.243418803 Z M37.6723982,1.61777778 C36.3095023,1.83931624 35.1162896,2.69264957 34.3085973,3.79897436 C33.1493213,5.38529915 32.5737557,7.31623932 32.2045249,9.22666667 C31.6954751,11.9083761 31.6628959,14.6529915 31.7782805,17.3716239 C31.9425339,19.9822222 32.2954751,22.6666667 33.5226244,25.0078632 C34.2325792,26.3822222 35.4040724,27.5774359 36.9040724,28.031453 C38.5873303,28.5278632 40.5352941,28.3104274 41.9484163,27.2164103 C43.258371,26.2167521 44.0443439,24.6823932 44.5438914,23.1384615 C45.4113122,20.4430769 45.5457014,17.5822222 45.5742081,14.7705983 C45.5199095,11.9986325 45.2891403,9.18564103 44.3769231,6.55179487 C43.8393665,5.01470085 43.0221719,3.50632479 41.7027149,2.51623932 C40.561086,1.66017094 39.0624434,1.37025641 37.6723982,1.61777778 Z" id="Shape"></path>
                <path d="M95.6932127,0.296752137 C97.3791855,0.0423931624 99.1276018,0.0451282051 100.778281,0.507350427 C102.160181,0.850598291 103.455204,1.45367521 104.777376,1.96923077 C105.260633,2.16615385 105.853846,2.26598291 106.309955,1.94598291 C106.878733,1.55076923 107.08914,0.851965812 107.340271,0.239316239 C107.698643,0.237948718 108.058371,0.237948718 108.420814,0.233846154 C108.435747,3.49538462 108.431674,6.7582906 108.422172,10.0198291 C108.088235,10.017094 107.757014,10.0184615 107.427149,10.0252991 C106.506787,7.73196581 105.223982,5.54666667 103.426697,3.84 C102.278281,2.74461538 100.859729,1.87623932 99.2823529,1.61504274 C97.6764706,1.36205128 95.9334842,1.69435897 94.6438914,2.72683761 C93.381448,3.71555556 92.618552,5.19794872 92.1122172,6.69538462 C91.2923077,9.20615385 91.1022624,11.871453 91.0520362,14.497094 C91.0479638,16.7165812 91.1755656,18.9524786 91.6791855,21.12 C92.0538462,22.6584615 92.6131222,24.2160684 93.7085973,25.3907692 C95.2031674,27.0003419 97.4701357,27.8755556 99.6502262,27.6157265 C101.214027,27.4789744 102.727602,26.9237607 104.047059,26.0731624 C105.532127,25.1336752 106.787783,23.874188 107.922624,22.5381197 C108.350226,22.8635897 108.733032,23.2423932 109.144344,23.5883761 C107.755656,25.3087179 106.180995,26.9251282 104.277828,28.0683761 C102.438462,29.1788034 100.28009,29.7340171 98.138009,29.6765812 C94.6085973,29.7422222 90.9855204,28.5470085 88.4158371,26.0567521 C85.4633484,23.2478632 84.0393665,19.0823932 84.0909502,15.0441026 C84.0475113,10.8690598 85.5678733,6.57504274 88.6466063,3.70461538 C90.5714932,1.87213675 93.0773756,0.687863248 95.6932127,0.296752137 Z" id="Shape"></path>
                <path d="M123.346154,0.179145299 C123.724887,0.16957265 124.104977,0.166837607 124.486425,0.164102564 C127.647964,8.05059829 130.78914,15.9466667 133.953394,23.8317949 C134.428507,24.9340171 134.864253,26.0854701 135.624434,27.0276923 C136.068326,27.5965812 136.787783,27.8755556 137.497738,27.8290598 C137.509955,28.1818803 137.51267,28.5360684 137.511312,28.8888889 C133.269231,28.8916239 129.027149,28.8902564 124.785068,28.8902564 C124.780995,28.5347009 124.780995,28.1805128 124.787783,27.8263248 C125.61448,27.7360684 126.475113,27.7415385 127.265158,27.4475214 C127.949321,27.1781197 127.985973,26.3001709 127.840724,25.6847863 C127.460633,23.9712821 126.752036,22.3576068 126.116742,20.7302564 C123.177828,20.7111111 120.238914,20.7138462 117.301357,20.7288889 C116.761086,22.302906 116.112217,23.8413675 115.68733,25.4536752 C115.506787,26.0225641 115.559729,26.7309402 116.057919,27.1234188 C116.824887,27.7565812 117.876923,27.7360684 118.813575,27.837265 C118.812217,28.1873504 118.812217,28.5374359 118.812217,28.8888889 C116.143439,28.8916239 113.474661,28.8875214 110.80724,28.8916239 C110.800452,28.542906 110.799095,28.1928205 110.800452,27.8454701 C111.386878,27.7087179 112.000452,27.5473504 112.459276,27.1288889 C113.337557,26.3726496 113.750226,25.2430769 114.179186,24.1955556 C117.236199,16.1900855 120.3,8.18871795 123.346154,0.179145299 Z M121.555656,9.04205128 C120.363801,12.3815385 119.124434,15.7018803 117.927149,19.0386325 C120.447964,19.0441026 122.968778,19.0413675 125.489593,19.04 C124.180995,15.7073504 122.904977,12.3582906 121.555656,9.04205128 Z" id="Shape"></path>
                <path d="M0.0665158371,0.750769231 C7.48778281,0.750769231 14.9090498,0.749401709 22.3303167,0.750769231 C22.3343891,3.54324786 22.3289593,6.33435897 22.3330317,9.12547009 C22.0045249,9.12957265 21.6760181,9.13094017 21.3475113,9.13094017 C20.9701357,7.39555556 20.6022624,5.51794872 19.3411765,4.18461538 C18.1493213,2.89367521 16.3520362,2.4574359 14.6714932,2.28786325 C13.4755656,2.19760684 12.2647059,2.11008547 11.0742081,2.30017094 C10.6235294,2.37401709 10.161991,2.6434188 10.0276018,3.10837607 C9.84841629,3.69641026 9.87963801,4.32136752 9.87556561,4.92854701 C9.87828054,7.87965812 9.87692308,10.8294017 9.87692308,13.7805128 C11.3904977,13.7873504 13.0710407,13.5220513 14.1488688,12.3459829 C15.320362,11.042735 15.5647059,9.2225641 15.8565611,7.55692308 C16.1932127,7.55282051 16.5298643,7.55282051 16.8678733,7.55692308 C16.8665158,12.2625641 16.8692308,16.9695726 16.8665158,21.6765812 C16.5312217,21.6765812 16.1945701,21.6765812 15.859276,21.6752137 C15.6176471,19.9576068 15.399095,18.0813675 14.2072398,16.7302564 C13.121267,15.5282051 11.4190045,15.2232479 9.87692308,15.2109402 C9.88099548,18.434188 9.86877828,21.6574359 9.88235294,24.8806838 C9.88778281,25.7435897 10.0547511,26.751453 10.8515837,27.2369231 C11.8696833,27.8222222 13.0900452,27.7360684 14.219457,27.8331624 C14.2208145,28.1846154 14.2208145,28.5374359 14.219457,28.8902564 C9.50226244,28.8902564 4.78506787,28.8902564 0.0665158371,28.8888889 C0.063800905,28.5347009 0.065158371,28.1791453 0.0719457014,27.8249573 C0.952941176,27.7032479 1.91131222,27.6936752 2.67556561,27.1822222 C3.31628959,26.7295726 3.48054299,25.8981197 3.49276018,25.1610256 C3.49547511,18.2755556 3.49411765,11.391453 3.49411765,4.50598291 C3.48054299,3.70461538 3.24162896,2.8034188 2.52760181,2.35076923 C1.7959276,1.89948718 0.904072398,1.88854701 0.0746606335,1.83247863 C0.065158371,1.47145299 0.063800905,1.11179487 0.0665158371,0.750769231 Z" id="Shape"></path>
                <path d="M54.8769231,0.749401709 C59.3443439,0.753504274 63.8131222,0.746666667 68.280543,0.752136752 C70.7484163,0.838290598 73.30181,1.19384615 75.4710407,2.45470085 C76.9819005,3.32034188 78.1452489,4.82324786 78.4574661,6.56136752 C78.8036199,8.46769231 78.5674208,10.5928205 77.3918552,12.1818803 C76.2190045,13.8037607 74.3117647,14.622906 72.4723982,15.2123077 C75.0760181,19.1494017 77.6945701,23.0769231 80.3090498,27.008547 C80.6497738,27.5651282 81.2891403,27.8441026 81.9257919,27.8495726 C81.9244344,28.1955556 81.9244344,28.542906 81.9230769,28.8888889 C79.2325792,28.8902564 76.540724,28.8916239 73.8502262,28.8888889 C71.1420814,24.5565812 68.4597285,20.2078632 65.7325792,15.8878632 C65.3932127,15.8974359 65.0552036,15.9001709 64.718552,15.9015385 C64.718552,18.3507692 64.718552,20.8 64.718552,23.2478632 C64.7158371,24.1230769 64.6954751,25.0092308 64.8760181,25.8707692 C64.9927602,26.4355556 65.2927602,26.9989744 65.8221719,27.2670085 C66.5511312,27.6389744 67.3846154,27.6936752 68.1800905,27.8290598 C68.178733,28.1818803 68.178733,28.5347009 68.178733,28.8888889 C63.7452489,28.8929915 59.3117647,28.8875214 54.8782805,28.8916239 C54.8714932,28.5347009 54.8714932,28.1791453 54.8823529,27.8249573 C55.8162896,27.6758974 56.8791855,27.6895726 57.6312217,27.0276923 C58.3072398,26.3234188 58.2828054,25.2594872 58.3343891,24.3459829 C58.3384615,18.4191453 58.3343891,12.4909402 58.3357466,6.56273504 C58.3343891,5.60820513 58.3723982,4.63726496 58.1443439,3.70188034 C58.0099548,3.15213675 57.7371041,2.59282051 57.2321267,2.30290598 C56.519457,1.89948718 55.6764706,1.89128205 54.8837104,1.83247863 C54.8714932,1.47145299 54.8701357,1.11042735 54.8769231,0.749401709 Z M65.1027149,2.68581197 C64.7864253,3.13162393 64.7402715,3.70461538 64.7171946,4.23521368 C64.7199095,7.66632479 64.7171946,11.0974359 64.7199095,14.5271795 C66.0420814,14.4765812 67.3886878,14.4683761 68.6728507,14.0991453 C69.7357466,13.8105983 70.7266968,13.1158974 71.1950226,12.0888889 C71.8778281,10.6297436 71.8751131,8.96683761 71.8371041,7.38735043 C71.7624434,5.94735043 71.4502262,4.39247863 70.4090498,3.32991453 C69.4248869,2.35623932 67.960181,2.13059829 66.6366516,2.20444444 C66.1085973,2.25094017 65.4895928,2.26461538 65.1027149,2.68581197 Z" id="Shape"></path>
                <path d="M139.31267,0.748034188 C143.19095,0.753504274 147.070588,0.749401709 150.950226,0.750769231 C153.68552,0.711111111 156.48733,1.10905983 158.967421,2.32615385 C161.127149,3.37094017 162.962443,5.09401709 164.11086,7.21641026 C165.555204,9.8365812 166.026244,12.9189744 165.791403,15.8837607 C165.597285,18.6092308 164.789593,21.342906 163.168778,23.5623932 C161.792308,25.4823932 159.815837,26.9251282 157.630317,27.7729915 C155.808597,28.4813675 153.856561,28.8191453 151.909955,28.8902564 C147.709955,28.8902564 143.509955,28.8902564 139.311312,28.8902564 C139.305882,28.5388034 139.305882,28.1887179 139.309955,27.8386325 C140.219457,27.8099145 141.234842,27.677265 141.901357,26.9839316 C142.442986,26.4382906 142.578733,25.6259829 142.567873,24.8834188 C142.563801,18.1401709 142.566516,11.3969231 142.566516,4.65367521 C142.563801,3.87555556 142.40362,3.0017094 141.758824,2.4957265 C141.058371,1.97196581 140.150226,1.91452991 139.314027,1.83111111 C139.305882,1.47008547 139.305882,1.10905983 139.31267,0.748034188 Z M150.21448,2.29880342 C149.59276,2.38769231 148.945249,2.84581197 148.954751,3.53641026 C148.941176,10.7446154 148.954751,17.954188 148.947964,25.1637607 C148.954751,25.8611966 149.025339,26.722735 149.695928,27.1138462 C150.446606,27.5158974 151.341176,27.4270085 152.159729,27.3586325 C153.852489,27.2068376 155.51267,26.4068376 156.560633,25.0365812 C157.961538,23.2423932 158.488235,20.9408547 158.773303,18.722735 C159.157466,15.2218803 159.089593,11.614359 158.082353,8.21880342 C157.508145,6.35487179 156.580995,4.49230769 154.976471,3.32307692 C153.621719,2.33025641 151.847511,2.00205128 150.21448,2.29880342 Z" id="Shape"></path>
                <path d="M193.946606,0.752136752 C198.515837,0.746666667 203.086425,0.753504274 207.657014,0.749401709 C207.663801,1.11179487 207.659729,1.47555556 207.640724,1.83794872 C206.667421,1.88717949 205.61267,1.83384615 204.746606,2.35350427 C203.875113,2.94017094 203.771946,4.10803419 203.724434,5.06803419 C203.721719,11.4926496 203.723077,17.917265 203.723077,24.3418803 C203.752941,25.1241026 203.595475,25.9788034 204,26.6926496 C204.367873,27.3203419 205.156561,27.4584615 205.817647,27.5254701 C208.257014,27.7319658 210.902715,27.425641 212.91448,25.9022222 C215.023982,24.3241026 216.154751,21.8242735 217.080543,19.422906 C217.474208,19.4160684 217.869231,19.4174359 218.266968,19.425641 C217.71991,22.5791453 217.195928,25.7353846 216.650226,28.8888889 C209.082353,28.8916239 201.51448,28.8902564 193.947964,28.8888889 C193.943891,28.5360684 193.943891,28.1846154 193.946606,27.8331624 C194.814027,27.682735 195.758824,27.6676923 196.512217,27.1562393 C197.129864,26.7076923 197.307692,25.8926496 197.307692,25.1678632 C197.304977,18.5094017 197.306335,11.8495726 197.306335,5.19111111 C197.328054,4.30905983 197.326697,3.29299145 196.671041,2.61880342 C195.961086,1.90222222 194.8819,1.9008547 193.947964,1.82837607 C193.945249,1.47008547 193.943891,1.11042735 193.946606,0.752136752 Z" id="Shape"></path>
                <path d="M220.111765,0.750769231 C224.682353,0.749401709 229.254299,0.749401709 233.824887,0.750769231 C233.823529,1.11042735 233.823529,1.46871795 233.820814,1.82837607 C232.790498,1.90769231 231.631222,1.80239316 230.758371,2.46017094 C229.905882,3.19452991 229.914027,4.43487179 229.858371,5.47282051 C229.847511,11.9890598 229.858371,18.5066667 229.852941,25.022906 C229.862443,25.6847863 229.869231,26.4355556 230.348416,26.9511111 C230.936199,27.4926496 231.7819,27.517265 232.535294,27.5610256 C234.833484,27.6841026 237.287783,27.2957265 239.151584,25.8406838 C241.21086,24.2488889 242.317195,21.7873504 243.247059,19.4174359 C243.636652,19.4188034 244.027602,19.4188034 244.421267,19.4188034 C243.857919,22.5777778 243.378733,25.7531624 242.774661,28.9052991 C235.221719,28.8711111 227.667421,28.8998291 220.113122,28.8902564 C220.107692,28.5347009 220.107692,28.1791453 220.11448,27.8249573 C221.041629,27.6717949 222.095023,27.6704274 222.838914,27.0126496 C223.493213,26.3589744 223.480995,25.3483761 223.472851,24.4841026 C223.470136,17.8735043 223.470136,11.262906 223.472851,4.65230769 C223.463348,3.8591453 223.297738,2.95931624 222.639367,2.44376068 C221.915837,1.91042735 220.976471,1.88991453 220.11991,1.83247863 C220.10905,1.47145299 220.106335,1.11179487 220.111765,0.750769231 Z" id="Shape"></path>
                <path d="M167.680995,0.750769231 C175.238009,0.750769231 182.793665,0.749401709 190.350679,0.752136752 C190.354751,3.54188034 190.349321,6.33299145 190.353394,9.12410256 C190.005882,9.13094017 189.661086,9.13094017 189.317647,9.12547009 C189.114027,7.80307692 188.795023,6.47384615 188.138009,5.2991453 C187.577376,4.27076923 186.678733,3.43111111 185.604977,2.97299145 C184.270588,2.39863248 182.804525,2.26051282 181.369683,2.21538462 C180.545701,2.16752137 179.719005,2.17435897 178.900452,2.26735043 C178.479638,2.33025641 178.016742,2.47247863 177.777828,2.85401709 C177.545701,3.22598291 177.525339,3.68 177.521267,4.10666667 C177.526697,7.33128205 177.522624,10.5545299 177.523982,13.7791453 C178.738914,13.762735 180.009502,13.6998291 181.110407,13.1268376 C181.9819,12.674188 182.629412,11.8700855 183.014932,10.9729915 C183.490045,9.89401709 183.695023,8.71931624 183.841629,7.55555556 C184.186425,7.55418803 184.533937,7.55282051 184.882805,7.55145299 C184.881448,12.2625641 184.90724,16.9764103 184.869231,21.6875214 C184.527149,21.6779487 184.187783,21.6752137 183.849774,21.6806838 C183.692308,20.3788034 183.515837,19.0454701 182.928054,17.8584615 C182.5181,16.9955556 181.836652,16.2447863 180.970588,15.837265 C179.902262,15.3148718 178.690045,15.2328205 177.522624,15.2136752 C177.525339,18.6188034 177.523982,22.0239316 177.523982,25.4290598 C177.528054,26.0430769 177.666516,26.7528205 178.220362,27.1083761 C178.829864,27.4994872 179.580543,27.5295726 180.282353,27.5705983 C182.691855,27.6567521 185.246606,27.2396581 187.213575,25.7408547 C189.066516,24.3733333 190.250226,22.3042735 191.10543,20.1982906 C191.478733,20.2037607 191.853394,20.2051282 192.230769,20.2051282 C191.7,23.0988034 191.18552,25.9965812 190.652036,28.8902564 C182.99457,28.8916239 175.338462,28.8888889 167.682353,28.8902564 C167.675566,28.5347009 167.676923,28.1777778 167.687783,27.8222222 C168.576923,27.7073504 169.540724,27.6909402 170.313122,27.1781197 C171.023077,26.6639316 171.122172,25.7039316 171.138462,24.8916239 C171.143891,18.2345299 171.138462,11.5760684 171.142534,4.91897436 C171.133032,4.06017094 171.032579,3.06871795 170.323982,2.48615385 C169.581448,1.90358974 168.585068,1.89264957 167.68914,1.83247863 C167.676923,1.47145299 167.674208,1.11042735 167.680995,0.750769231 Z" id="Shape"></path>
                <path d="M1.84072398,38.6707692 C2.90361991,37.9117949 4.28959276,37.7504274 5.55067873,37.9582906 C6.53076923,38.1032479 7.4918552,38.6188034 8.0361991,39.4721368 C8.34027149,39.9329915 8.45837104,40.482735 8.54524887,41.0215385 C8.01040724,41.0283761 7.47556561,41.0270085 6.94072398,41.0242735 C6.81719457,40.4936752 6.57149321,39.9562393 6.09095023,39.6649573 C5.18823529,39.1124786 3.97873303,39.0960684 3.05565611,39.6102564 C2.18959276,40.1162393 1.78506787,41.1418803 1.69819005,42.1059829 C1.59502262,43.2806838 1.69140271,44.5825641 2.44343891,45.5439316 C3.41402715,46.8444444 5.67149321,46.8335043 6.58642534,45.4755556 C6.83348416,45.1377778 6.92036199,44.7206838 6.9800905,44.3158974 C7.51493213,44.3022222 8.04841629,44.3063248 8.58461538,44.3090598 C8.54117647,45.245812 8.15158371,46.1729915 7.44298643,46.7952137 C6.22941176,47.9152137 4.39004525,48.1080342 2.86425339,47.617094 C1.67511312,47.231453 0.762895928,46.2030769 0.381447964,45.022906 C0.020361991,43.9083761 -0.0122171946,42.7022222 0.17239819,41.5507692 C0.355656109,40.4307692 0.908144796,39.3394872 1.84072398,38.6707692 Z" id="Shape"></path>
                <path d="M43.5190045,38.1552137 C44.0199095,38.1511111 44.5208145,38.1497436 45.0217195,38.1634188 C45.0108597,41.3032479 45.0122172,44.4417094 45.020362,47.5815385 C44.519457,47.5938462 44.0199095,47.5911111 43.5190045,47.5897436 C43.5176471,44.4444444 43.5176471,41.2991453 43.5190045,38.1552137 Z" id="Shape"></path>
                <path d="M77.8819005,38.1538462 C78.4126697,38.1524786 78.9434389,38.1538462 79.4755656,38.1538462 C79.4769231,41.2991453 79.4769231,44.4444444 79.4755656,47.5897436 C78.9434389,47.5897436 78.4126697,47.5897436 77.8819005,47.5897436 C77.880543,44.4444444 77.880543,41.2991453 77.8819005,38.1538462 Z" id="Shape"></path>
                <path d="M114.872851,38.1579487 C115.371041,38.1511111 115.870588,38.1524786 116.371493,38.1538462 C116.371493,39.3176068 116.374208,40.48 116.368778,41.6423932 C116.695928,41.3169231 117.028507,40.9709402 117.472398,40.8095726 C118.495928,40.4034188 119.774661,40.6153846 120.534842,41.4441026 C121.39276,42.334359 121.60181,43.6649573 121.476923,44.8574359 C121.384615,45.8379487 120.948869,46.8335043 120.120814,47.3996581 C118.950679,48.2010256 117.19276,47.9712821 116.348416,46.7938462 C116.338914,47.0564103 116.353846,47.325812 116.349774,47.5911111 C115.857014,47.5897436 115.364253,47.5911111 114.872851,47.585641 C114.878281,44.4430769 114.878281,41.3005128 114.872851,38.1579487 Z M117.6,41.922735 C116.89276,42.1005128 116.489593,42.8102564 116.398643,43.4940171 C116.291403,44.2735043 116.302262,45.1254701 116.693213,45.8297436 C117.241629,46.8266667 118.840724,46.9223932 119.520814,46.0211966 C119.926697,45.505641 120.019005,44.8177778 120.014932,44.1791453 C119.986425,43.5241026 119.866968,42.8129915 119.395928,42.3234188 C118.941176,41.8475214 118.209502,41.7381197 117.6,41.922735 Z" id="Shape"></path>
                <path d="M123.572851,38.1675214 C124.072398,38.1470085 124.574661,38.1524786 125.076923,38.1538462 C125.078281,38.6557265 125.078281,39.1562393 125.078281,39.6567521 C124.574661,39.6594872 124.072398,39.6649573 123.571493,39.6430769 C123.585068,39.1507692 123.585068,38.6598291 123.572851,38.1675214 Z" id="Shape"></path>
                <path d="M127.546154,38.1552137 C128.045701,38.1511111 128.546606,38.1497436 129.048869,38.1634188 C129.038009,41.3018803 129.039367,44.4417094 129.047511,47.5815385 C128.546606,47.5938462 128.045701,47.5911111 127.547511,47.5897436 C127.544796,44.4444444 127.546154,41.2991453 127.546154,38.1552137 Z" id="Shape"></path>
                <path d="M131.448869,38.1634188 C131.948416,38.1483761 132.449321,38.1524786 132.950226,38.1538462 C132.951584,38.654359 132.951584,39.1562393 132.951584,39.6567521 C132.449321,39.6594872 131.948416,39.6622222 131.448869,39.648547 C131.457014,39.1535043 131.457014,38.6584615 131.448869,38.1634188 Z" id="Shape"></path>
                <path d="M148.68733,38.1661538 C149.186878,38.1470085 149.687783,38.1511111 150.190045,38.1538462 C150.191403,38.6557265 150.191403,39.1562393 150.190045,39.6581197 C149.687783,39.6594872 149.186878,39.6635897 148.68733,39.6471795 C148.696833,39.1535043 148.696833,38.6598291 148.68733,38.1661538 Z" id="Shape"></path>
                <path d="M169.220362,38.1552137 C169.71991,38.1511111 170.222172,38.1483761 170.724434,38.1647863 C170.71086,41.3032479 170.713575,44.4417094 170.723077,47.5801709 C170.226244,47.5938462 169.730769,47.5911111 169.238009,47.5883761 C169.236652,47.3203419 169.238009,47.0523077 169.244796,46.785641 C168.344796,48.0246154 166.425339,48.2311111 165.272851,47.2423932 C164.276471,46.4123077 163.98733,45.0119658 164.102715,43.7702564 C164.174661,42.6994872 164.657919,41.5986325 165.585068,41.0160684 C166.734842,40.3035897 168.354299,40.5401709 169.232579,41.5835897 C169.20543,40.4417094 169.225792,39.297094 169.220362,38.1552137 Z M167.120362,41.8584615 C166.265158,41.9610256 165.70724,42.7911111 165.629864,43.6061538 C165.51991,44.3979487 165.555204,45.2868376 166.026244,45.9623932 C166.570588,46.7555556 167.78552,46.8444444 168.51991,46.2769231 C169.045249,45.8324786 169.225792,45.1131624 169.248869,44.448547 C169.269231,43.7675214 169.221719,43.0208547 168.795475,42.4601709 C168.414027,41.9473504 167.725792,41.7750427 167.120362,41.8584615 Z" id="Shape"></path>
                <path d="M197.727149,38.1538462 C198.226697,38.1524786 198.727602,38.1497436 199.229864,38.1634188 C199.219005,41.3018803 199.220362,44.4417094 199.228507,47.5815385 C198.733032,47.5924786 198.237557,47.5911111 197.744796,47.5883761 C197.742081,47.3203419 197.744796,47.0536752 197.751584,46.785641 C196.852941,48.0232479 194.938914,48.2297436 193.785068,47.2464957 C192.780543,46.4150427 192.491403,45.0051282 192.61086,43.7579487 C192.68552,42.6926496 193.167421,41.5986325 194.090498,41.0174359 C195.241629,40.3022222 196.863801,40.5388034 197.740724,41.5876923 C197.709502,40.4444444 197.732579,39.2984615 197.727149,38.1538462 Z M195.621719,41.8598291 C194.896833,41.9500855 194.349774,42.5832479 194.200452,43.2793162 C194.013122,44.1353846 194.013122,45.1049573 194.473303,45.8776068 C195.004072,46.7651282 196.350679,46.882735 197.097285,46.2140171 C197.569683,45.762735 197.732579,45.0844444 197.755656,44.4499145 C197.776018,43.7688889 197.728507,43.0249573 197.304977,42.462906 C196.922172,41.9473504 196.229864,41.7723077 195.621719,41.8598291 Z" id="Shape"></path>
                <path d="M216.807692,38.4287179 C217.182353,38.4259829 217.558371,38.4259829 217.937104,38.4273504 C217.938462,41.4810256 217.939819,44.5360684 217.937104,47.5897436 C217.442986,47.5897436 216.950226,47.5897436 216.460181,47.5897436 C216.462896,45.4509402 216.450679,43.3121368 216.466968,41.1747009 C215.740724,41.1500855 215.01448,41.1664957 214.288235,41.1623932 C214.28552,40.8 214.28552,40.4389744 214.288235,40.0779487 C214.934389,40.0533333 215.647059,40.0300855 216.18733,39.6225641 C216.564706,39.3408547 216.708597,38.8690598 216.807692,38.4287179 Z" id="Shape"></path>
                <path d="M222.263348,39.5774359 C223.219005,38.3234188 225.11267,38.1155556 226.460633,38.8047863 C227.590045,39.4147009 228.052941,40.7603419 228.145249,41.9774359 C228.255204,43.5282051 228.156109,45.2129915 227.279186,46.5463248 C226.347964,47.9384615 224.29819,48.2447863 222.9,47.4297436 C222.184615,47.0208547 221.797738,46.2126496 221.776018,45.4030769 C222.275566,45.4003419 222.776471,45.4003419 223.278733,45.4017094 C223.358824,45.7435897 223.442986,46.1210256 223.749774,46.3384615 C224.438009,46.8581197 225.566063,46.6994872 226.047964,45.9637607 C226.485068,45.3305983 226.542081,44.5305983 226.630317,43.7880342 C225.923077,44.4526496 224.906335,44.7261538 223.961538,44.5305983 C222.89457,44.3705983 221.968778,43.5117949 221.727149,42.4533333 C221.492308,41.4796581 221.638914,40.3774359 222.263348,39.5774359 Z M224.310407,39.7347009 C223.198643,40.0793162 222.973303,41.5275214 223.377828,42.4847863 C223.884163,43.6157265 225.742534,43.6581197 226.309955,42.5613675 C226.642534,41.9309402 226.599095,41.1295726 226.299095,40.4950427 C225.958371,39.7675214 225.035294,39.4912821 224.310407,39.7347009 Z" id="Shape"></path>
                <path d="M238.753846,39.1411966 C239.315837,38.6434188 240.081448,38.4588034 240.815837,38.4232479 C241.656109,38.3986325 242.562896,38.5654701 243.204977,39.1548718 C243.91629,39.7579487 244.11448,40.8369231 243.788688,41.6929915 C243.613575,42.1606838 243.195475,42.465641 242.784163,42.7063248 C243.301357,42.9716239 243.802262,43.3490598 244.022172,43.9138462 C244.451131,44.9805128 244.221719,46.3603419 243.31629,47.1097436 C242.630769,47.6991453 241.696833,47.8823932 240.81991,47.8687179 C239.956561,47.8495726 239.049774,47.5993162 238.444344,46.9483761 C237.800905,46.2782906 237.619005,45.2745299 237.783258,44.3815385 C237.925792,43.6348718 238.478281,43.0003419 239.186878,42.7418803 C238.78371,42.4683761 238.347964,42.1798291 238.166063,41.7039316 C237.833484,40.8410256 238.041176,39.7524786 238.753846,39.1411966 Z M240.563348,39.6882051 C239.866968,39.7757265 239.341629,40.4758974 239.508597,41.1760684 C239.637557,42.2823932 241.128054,42.5394872 241.928959,41.9979487 C242.615837,41.5781197 242.653846,40.4307692 242.006335,39.9562393 C241.592308,39.6567521 241.052036,39.6020513 240.563348,39.6882051 Z M240.567421,43.3777778 C239.318552,43.5295726 238.911312,45.248547 239.686425,46.1223932 C240.19819,46.6912821 241.084615,46.7651282 241.761991,46.4806838 C242.826244,46.0526496 242.959276,44.3965812 242.102715,43.6977778 C241.666968,43.3709402 241.091403,43.2847863 240.567421,43.3777778 Z" id="Shape"></path>
                <path d="M230.558824,38.7145299 C232.257014,38.6817094 233.956561,38.7104274 235.656109,38.7008547 C235.654751,39.1562393 235.654751,39.6116239 235.656109,40.0683761 C234.313575,40.0738462 232.971041,40.0560684 231.629864,40.0779487 C231.528054,40.7535043 231.441176,41.4304274 231.319005,42.1032479 C232.604525,41.1924786 234.617647,41.4454701 235.566516,42.7377778 C236.117647,43.4940171 236.247964,44.4964103 236.072851,45.4044444 C235.866516,46.5668376 234.879638,47.5008547 233.750226,47.7483761 C232.666968,48.0041026 231.4181,47.8796581 230.533032,47.1521368 C229.968326,46.6940171 229.652036,45.985641 229.592308,45.2663248 C230.11086,45.2635897 230.630769,45.2635897 231.153394,45.2663248 C231.230769,45.5699145 231.312217,45.8899145 231.530769,46.1292308 C232.29638,46.9538462 233.872398,46.7651282 234.359729,45.7217094 C234.747964,44.8505983 234.640724,43.6034188 233.770588,43.0646154 C232.971041,42.5859829 231.875566,42.7596581 231.241629,43.4379487 C230.816742,43.5569231 230.345701,43.457094 229.905882,43.4803419 C230.076923,41.8871795 230.363348,40.3063248 230.558824,38.7145299 Z" id="Shape"></path>
                <path d="M47.6104072,38.8389744 C48.1045249,38.8348718 48.5986425,38.8335043 49.0941176,38.8471795 C49.0832579,39.4817094 49.0873303,40.1162393 49.0886878,40.7507692 C49.4728507,40.7507692 49.858371,40.7521368 50.2438914,40.7521368 C50.2452489,41.1158974 50.2452489,41.4810256 50.2438914,41.8461538 C49.858371,41.8461538 49.4728507,41.8461538 49.0886878,41.8461538 C49.0859729,43.1699145 49.0900452,44.4923077 49.0859729,45.8160684 C49.0941176,46.0129915 49.0737557,46.2468376 49.2298643,46.3986325 C49.5420814,46.557265 49.9072398,46.4793162 50.2438914,46.497094 C50.2438914,46.8663248 50.2438914,47.234188 50.2452489,47.6047863 C49.5488688,47.714188 48.7846154,47.8605128 48.1343891,47.4994872 C47.7122172,47.234188 47.621267,46.6817094 47.6104072,46.2194872 C47.6090498,44.7644444 47.6049774,43.3094017 47.6144796,41.854359 C47.2778281,41.8488889 46.9425339,41.8434188 46.6085973,41.8365812 C46.6126697,41.4782906 46.6126697,41.12 46.6085973,40.7617094 C46.9425339,40.7535043 47.2778281,40.7480342 47.6144796,40.7439316 C47.6063348,40.1080342 47.6090498,39.4735043 47.6104072,38.8389744 Z" id="Shape"></path>
                <path d="M12.8334842,40.6960684 C14.0511312,40.4512821 15.4859729,40.7001709 16.3167421,41.7025641 C17.1271493,42.6707692 17.2425339,44.0410256 17.0294118,45.245812 C16.861086,46.2304274 16.2257919,47.1411966 15.3108597,47.5528205 C14.3742081,47.9507692 13.2936652,47.965812 12.3325792,47.6471795 C11.3429864,47.3148718 10.6140271,46.3986325 10.4022624,45.3825641 C10.2013575,44.3692308 10.2271493,43.2670085 10.6751131,42.3206838 C11.0823529,41.4700855 11.9076923,40.8478632 12.8334842,40.6960684 Z M13.0914027,41.9254701 C12.399095,42.111453 11.941629,42.7801709 11.8357466,43.4680342 C11.7190045,44.2105983 11.7298643,45.0133333 12.0597285,45.7039316 C12.6366516,46.8882051 14.5561086,46.9716239 15.2524887,45.8652991 C15.5714932,45.3688889 15.640724,44.7576068 15.6447964,44.1805128 C15.6298643,43.52 15.4968326,42.7993162 15.0108597,42.3193162 C14.5085973,41.8393162 13.738914,41.7394872 13.0914027,41.9254701 Z" id="Shape"></path>
                <path d="M20.618552,41.6437607 C21.1289593,41.0338462 21.8674208,40.6153846 22.6723982,40.6112821 C23.361991,40.608547 24.1533937,40.6919658 24.6570136,41.2225641 C25.0941176,41.7230769 25.1864253,42.4232479 25.2013575,43.0659829 C25.2339367,44.5702564 25.2,46.077265 25.2190045,47.582906 C24.7180995,47.5924786 24.218552,47.5911111 23.7190045,47.5897436 C23.7135747,46.0813675 23.7244344,44.574359 23.7149321,43.0659829 C23.7312217,42.5764103 23.4542986,42.048547 22.9588235,41.9186325 C22.2244344,41.6998291 21.2633484,41.9268376 20.8914027,42.6557265 C20.6687783,43.0304274 20.6687783,43.4803419 20.6687783,43.9042735 C20.6728507,45.1323077 20.6701357,46.3603419 20.6701357,47.5883761 C20.1746606,47.5911111 19.680543,47.5952137 19.1850679,47.5788034 C19.1986425,45.3059829 19.1959276,43.0331624 19.1877828,40.7617094 C19.6628959,40.7480342 20.140724,40.7494017 20.618552,40.7562393 C20.6171946,41.0516239 20.6171946,41.3470085 20.618552,41.6437607 Z" id="Shape"></path>
                <path d="M28.179638,41.117265 C29.1882353,40.4758974 30.5307692,40.4676923 31.6180995,40.9094017 C32.4257919,41.2362393 32.9470588,42.0512821 32.9633484,42.9210256 C32.4828054,42.9470085 32.0022624,42.9442735 31.5230769,42.9388034 C31.4470588,42.5682051 31.2828054,42.1811966 30.9190045,42.0184615 C30.3597285,41.7777778 29.6633484,41.7490598 29.1298643,42.0717949 C28.7497738,42.2947009 28.7443439,42.9018803 29.1190045,43.134359 C29.7067873,43.5076923 30.4330317,43.52 31.0900452,43.7005128 C31.7402715,43.8796581 32.4950226,44.0492308 32.8968326,44.6495726 C33.2742081,45.2923077 33.2144796,46.1511111 32.8343891,46.7788034 C32.3307692,47.5241026 31.4049774,47.7880342 30.5565611,47.8550427 C29.6511312,47.9124786 28.6588235,47.8112821 27.9244344,47.2259829 C27.3760181,46.7952137 27.1520362,46.08 27.1343891,45.4030769 C27.6162896,45.3989744 28.09819,45.3948718 28.581448,45.4126496 C28.6411765,45.8639316 28.8828054,46.3206838 29.3321267,46.4793162 C29.9714932,46.7117949 30.739819,46.72 31.3371041,46.3617094 C31.7552036,46.1128205 31.7904977,45.3866667 31.3072398,45.1924786 C30.2294118,44.7138462 28.9493213,44.765812 27.9597285,44.065641 C27.0257919,43.3463248 27.2022624,41.7217094 28.179638,41.117265 Z" id="Shape"></path>
                <path d="M54.2361991,40.6960684 C55.4497738,40.4526496 56.8791855,40.6988034 57.7113122,41.6929915 C58.5298643,42.6639316 58.6466063,44.0410256 58.4307692,45.2512821 C58.261086,46.2386325 57.620362,47.1507692 56.7,47.5582906 C55.7660633,47.9494017 54.6923077,47.9644444 53.7366516,47.648547 C52.7457014,47.3162393 52.0180995,46.4 51.8049774,45.3839316 C51.6040724,44.3719658 51.6285068,43.2724786 52.0751131,42.3275214 C52.4809955,41.4728205 53.3076923,40.8492308 54.2361991,40.6960684 Z M54.49819,41.9241026 C53.8045249,42.1073504 53.3457014,42.7760684 53.2384615,43.4652991 C53.1217195,44.2092308 53.1325792,45.0133333 53.4624434,45.7052991 C54.040724,46.8868376 55.9574661,46.9716239 56.6538462,45.8666667 C56.9742081,45.3702564 57.0434389,44.7576068 57.0475113,44.1777778 C57.0325792,43.5158974 56.89819,42.7938462 56.4081448,42.3152137 C55.9072398,41.8406838 55.1429864,41.7394872 54.49819,41.9241026 Z" id="Shape"></path>
                <path d="M62.7800905,40.8492308 C63.1791855,40.6003419 63.6556561,40.6003419 64.1090498,40.6112821 C64.1104072,41.1131624 64.1104072,41.6150427 64.1090498,42.1169231 C63.658371,42.111453 63.1886878,42.0977778 62.7719457,42.2974359 C62.199095,42.5230769 61.9248869,43.1767521 61.9411765,43.7634188 C61.9303167,45.0379487 61.9425339,46.3138462 61.9371041,47.5897436 C61.4375566,47.5911111 60.938009,47.5911111 60.439819,47.585641 C60.4438914,45.3100855 60.4438914,43.0331624 60.4384615,40.7562393 C60.9108597,40.7480342 61.3819005,40.7480342 61.8542986,40.7617094 C61.8475113,41.122735 61.840724,41.4837607 61.8488688,41.8461538 C62.1339367,41.4933333 62.361991,41.0666667 62.7800905,40.8492308 Z" id="Shape"></path>
                <path d="M65.8316742,41.8147009 C66.2226244,41.0694017 67.0683258,40.7097436 67.8678733,40.637265 C68.8859729,40.5292308 70.0574661,40.7220513 70.7538462,41.5480342 C71.0932127,41.922735 71.1909502,42.4355556 71.2425339,42.9237607 C70.761991,42.945641 70.2828054,42.942906 69.8036199,42.9388034 C69.70181,41.8502564 68.3253394,41.6082051 67.5054299,42.0157265 C67.1375566,42.1688889 66.9828054,42.6899145 67.2570136,42.9989744 C67.5108597,43.2916239 67.9072398,43.3750427 68.2669683,43.4639316 C69.1248869,43.6594872 70.0384615,43.7675214 70.7959276,44.2529915 C71.5710407,44.802735 71.580543,45.9774359 71.1366516,46.7418803 C70.6438914,47.5131624 69.699095,47.7880342 68.8411765,47.8536752 C67.9343891,47.9124786 66.938009,47.8112821 66.2022624,47.2246154 C65.6565611,46.7938462 65.4325792,46.08 65.4149321,45.4030769 C65.8954751,45.3989744 66.3773756,45.3962393 66.859276,45.4112821 C66.9230769,45.825641 67.1158371,46.2550427 67.5176471,46.4355556 C68.1149321,46.7008547 68.8371041,46.717265 69.4411765,46.4588034 C69.7832579,46.3261538 70.0493213,45.922735 69.9108597,45.5535043 C69.8294118,45.2417094 69.4886878,45.1391453 69.2239819,45.0434188 C68.2248869,44.7357265 67.1171946,44.6769231 66.2361991,44.0615385 C65.5588235,43.5528205 65.4828054,42.5394872 65.8316742,41.8147009 Z" id="Shape"></path>
                <path d="M84.6800905,40.734359 C85.6588235,40.4129915 86.8669683,40.6796581 87.4493213,41.5863248 C88.3004525,40.5470085 89.9253394,40.2871795 91.0438914,41.022906 C91.6371041,41.4523077 91.7904977,42.242735 91.8257919,42.9333333 C91.8352941,44.4854701 91.8271493,46.0376068 91.8285068,47.5897436 C91.3330317,47.5897436 90.8375566,47.5897436 90.3434389,47.5897436 C90.3393665,46.1757265 90.3434389,44.7617094 90.3420814,43.3476923 C90.3352941,42.9524786 90.3081448,42.5230769 90.0678733,42.1948718 C89.6606335,41.7381197 88.939819,41.7613675 88.4294118,42.014359 C87.8837104,42.2659829 87.6624434,42.9155556 87.6746606,43.4830769 C87.6760181,44.8505983 87.6733032,46.2194872 87.6773756,47.5870085 C87.1778281,47.5911111 86.6782805,47.5897436 86.181448,47.5897436 C86.1800905,46.177094 86.1773756,44.765812 86.1828054,43.3531624 C86.20181,42.8841026 86.161086,42.3261538 85.7307692,42.0430769 C84.9027149,41.4947009 83.6253394,42.0758974 83.5452489,43.0919658 C83.4882353,44.5894017 83.5384615,46.0909402 83.5208145,47.5897436 C83.0199095,47.5911111 82.5217195,47.5911111 82.0221719,47.585641 C82.0276018,45.3087179 82.0276018,43.0331624 82.0221719,40.7576068 C82.4986425,40.7494017 82.9764706,40.7494017 83.4542986,40.7576068 C83.4502262,41.025641 83.4461538,41.2923077 83.4488688,41.5617094 C83.8126697,41.2252991 84.1914027,40.8738462 84.6800905,40.734359 Z" id="Shape"></path>
                <path d="M95.6674208,41.5753846 C96.6312217,40.351453 98.778733,40.2188034 99.6705882,41.5904274 C100.512217,40.5415385 102.146606,40.288547 103.262443,41.0242735 C103.858371,41.4564103 104.00905,42.2523077 104.042986,42.9470085 C104.051131,44.4950427 104.045701,46.0417094 104.045701,47.5897436 C103.548869,47.5897436 103.054751,47.5897436 102.560633,47.5897436 C102.555204,46.1305983 102.564706,44.671453 102.556561,43.2123077 C102.540271,42.7760684 102.473756,42.2454701 102.059729,42.0047863 C101.233032,41.5316239 100.019457,42.0717949 99.9257919,43.0605128 C99.8470588,44.5661538 99.9135747,46.0786325 99.8945701,47.5870085 C99.3950226,47.5911111 98.8954751,47.5897436 98.3986425,47.5897436 C98.3823529,45.9883761 98.4257919,44.3870085 98.3769231,42.7883761 C98.3307692,42.077265 97.5393665,41.697094 96.9067873,41.8694017 C96.2131222,41.9705983 95.7257919,42.6502564 95.7420814,43.3367521 C95.7312217,44.7548718 95.7434389,46.1716239 95.738009,47.5897436 C95.2371041,47.5911111 94.738914,47.5911111 94.2393665,47.585641 C94.2434389,45.3100855 94.2447964,43.0331624 94.2393665,40.7576068 C94.7144796,40.7494017 95.1923077,40.7494017 95.6701357,40.7576068 C95.6674208,41.0297436 95.6647059,41.3018803 95.6674208,41.5753846 Z" id="Shape"></path>
                <path d="M108.529412,40.6974359 C109.747059,40.4512821 111.1819,40.6974359 112.015385,41.6984615 C112.828507,42.6680342 112.943891,44.0396581 112.730769,45.2471795 C112.561086,46.2345299 111.921719,47.1466667 111.004072,47.5569231 C110.068778,47.9494017 108.993665,47.965812 108.035294,47.648547 C107.042986,47.3148718 106.314027,46.397265 106.10362,45.3798291 C105.902715,44.3692308 105.928507,43.2711111 106.373756,42.3275214 C106.778281,41.4755556 107.602262,40.8505983 108.529412,40.6974359 Z M108.785973,41.9268376 C107.98371,42.1442735 107.539819,42.9852991 107.493665,43.7729915 C107.424434,44.6222222 107.486878,45.6218803 108.168326,46.2249573 C108.952941,46.8526496 110.290045,46.7911111 110.900905,45.9432479 C111.266063,45.4345299 111.343439,44.7822222 111.346154,44.1709402 C111.329864,43.5432479 111.20905,42.8676923 110.777376,42.3876923 C110.2819,41.8488889 109.461991,41.7299145 108.785973,41.9268376 Z" id="Shape"></path>
                <path d="M135.9,41.2047863 C136.865158,40.511453 138.154751,40.5073504 139.270588,40.7562393 C140.007692,40.9094017 140.701357,41.4673504 140.788235,42.2591453 C140.888688,43.5979487 140.769231,44.9476923 140.847964,46.2878632 C140.89276,46.6379487 141.295928,46.5613675 141.548416,46.5682051 C141.549774,46.9237607 141.547059,47.2793162 141.541629,47.6362393 C140.957919,47.742906 140.30905,47.8208547 139.775566,47.4994872 C139.502715,47.3353846 139.437557,47.008547 139.376471,46.722735 C138.796833,47.4434188 137.896833,47.9124786 136.965611,47.8687179 C136.142986,47.8646154 135.240271,47.4488889 134.967421,46.6133333 C134.71086,45.8064957 134.808597,44.765812 135.504977,44.2051282 C136.372398,43.5815385 137.481448,43.5678632 138.491403,43.3791453 C138.887783,43.3011966 139.48914,43.0509402 139.320814,42.5340171 C139.240724,42.0731624 138.746606,41.9035897 138.343439,41.8557265 C137.846606,41.8160684 137.280543,41.822906 136.889593,42.1798291 C136.661538,42.3548718 136.649321,42.6611966 136.608597,42.9237607 C136.107692,42.9497436 135.606787,42.9415385 135.108597,42.9388034 C135.100452,42.2769231 135.347511,41.5958974 135.9,41.2047863 Z M136.934389,44.6974359 C136.187783,44.9504274 136.100905,46.1716239 136.824434,46.5025641 C137.671493,46.8676923 138.800905,46.4793162 139.2,45.6259829 C139.383258,45.1555556 139.320814,44.6413675 139.327602,44.1490598 C138.563348,44.4731624 137.713575,44.4417094 136.934389,44.6974359 Z" id="Shape"></path>
                <path d="M145.676471,40.802735 C146.055204,40.5921368 146.495023,40.6071795 146.91448,40.6126496 C146.91448,41.1131624 146.91448,41.6150427 146.91448,42.1169231 C146.363348,42.0977778 145.771493,42.1169231 145.305882,42.4505983 C144.913575,42.7555556 144.739819,43.2670085 144.746606,43.7538462 C144.735747,45.0324786 144.747964,46.3111111 144.742534,47.5897436 C144.241629,47.5897436 143.743439,47.5911111 143.245249,47.585641 C143.246606,45.3100855 143.250679,43.0345299 143.242534,40.7589744 C143.71629,40.7466667 144.190045,40.7425641 144.665158,40.7712821 C144.650226,41.1350427 144.647511,41.5001709 144.659729,41.8652991 C144.938009,41.4618803 145.212217,41.0119658 145.676471,40.802735 Z" id="Shape"></path>
                <path d="M152.438009,41.8147009 C152.831674,41.0639316 153.68552,40.705641 154.48914,40.6345299 C155.500452,40.5319658 156.663801,40.7247863 157.356109,41.5439316 C157.69819,41.917265 157.795928,42.431453 157.850226,42.9210256 C157.369683,42.9470085 156.88914,42.942906 156.409955,42.9388034 C156.333937,42.5244444 156.114027,42.1005128 155.68914,41.9692308 C155.104072,41.7723077 154.354751,41.7490598 153.876923,42.1935043 C153.560633,42.5353846 153.771041,43.0864957 154.175566,43.2396581 C155.243891,43.68 156.50362,43.6102564 157.472851,44.3076923 C158.423077,45.117265 158.121719,46.8512821 157.038462,47.4092308 C155.910407,47.9958974 154.502715,48.0205128 153.329864,47.5487179 C152.482805,47.2054701 152.013122,46.2933333 152.021267,45.4030769 C152.503167,45.3989744 152.985068,45.3948718 153.468326,45.4140171 C153.525339,45.8639316 153.768326,46.3193162 154.21629,46.4779487 C154.855656,46.7117949 155.623982,46.7213675 156.222624,46.3617094 C156.639367,46.114188 156.677376,45.3921368 156.19819,45.1952137 C155.114932,44.7124786 153.826697,44.768547 152.837104,44.0574359 C152.163801,43.5473504 152.08914,42.5367521 152.438009,41.8147009 Z" id="Shape"></path>
                <path d="M173.342986,41.9897436 C174.452036,40.16 177.563348,40.1148718 178.661538,41.9801709 C179.162443,42.7911111 179.243891,43.7852991 179.18552,44.7179487 C177.544344,44.7179487 175.904525,44.7165812 174.266063,44.7193162 C174.30543,45.1651282 174.371946,45.634188 174.651584,46.0006838 C175.423982,47.0003419 177.335294,46.8307692 177.7181,45.5411966 C178.18371,45.5357265 178.650679,45.537094 179.120362,45.5398291 C178.952036,46.2755556 178.517647,46.9511111 177.874208,47.3490598 C176.90362,47.9589744 175.633032,48.0300855 174.586425,47.585641 C173.583258,47.1411966 172.964253,46.0813675 172.848869,45.0105983 C172.733484,43.9904274 172.795928,42.8854701 173.342986,41.9897436 Z M174.699095,42.397265 C174.408597,42.7377778 174.327149,43.1931624 174.253846,43.6211966 C175.415837,43.6252991 176.579186,43.6252991 177.742534,43.6225641 C177.705882,43.0495726 177.542986,42.4191453 177.023077,42.1032479 C176.306335,41.6834188 175.261086,41.7394872 174.699095,42.397265 Z" id="Shape"></path>
                <path d="M182.839819,40.6782906 C183.81991,40.514188 184.926244,40.6194872 185.724434,41.2690598 C186.232127,41.6615385 186.454751,42.3001709 186.490045,42.9264957 C186.009502,42.9442735 185.530317,42.942906 185.052489,42.9388034 C184.937104,41.7873504 183.393665,41.5576068 182.59276,42.1223932 C182.189593,42.434188 182.371493,43.0837607 182.823529,43.2423932 C183.88914,43.6786325 185.142081,43.6116239 186.109955,44.3035897 C187.065611,45.1104274 186.765611,46.8499145 185.682353,47.4092308 C184.552941,47.9945299 183.145249,48.0205128 181.973756,47.5487179 C181.125339,47.2068376 180.655656,46.2933333 180.663801,45.4030769 C181.142986,45.3989744 181.623529,45.3976068 182.10543,45.408547 C182.170588,45.857094 182.40543,46.3179487 182.856109,46.4765812 C183.496833,46.7117949 184.269231,46.7213675 184.869231,46.3589744 C185.284615,46.1087179 185.317195,45.3866667 184.835294,45.1924786 C183.756109,44.7138462 182.474661,44.765812 181.486425,44.062906 C180.833484,43.5774359 180.742534,42.6215385 181.037104,41.9090598 C181.352036,41.2006838 182.101357,40.7904274 182.839819,40.6782906 Z" id="Shape"></path>
                <path d="M201.909502,41.8981197 C203.066063,40.1545299 206.090498,40.1490598 207.168326,41.9815385 C207.669231,42.7924786 207.750679,43.7852991 207.69095,44.7179487 C206.051131,44.7193162 204.411312,44.7152137 202.771493,44.7193162 C202.812217,45.1678632 202.878733,45.6396581 203.162443,46.0061538 C203.938914,46.9989744 205.843439,46.8280342 206.223529,45.5411966 C206.690498,45.5357265 207.157466,45.537094 207.627149,45.5398291 C207.458824,46.2728205 207.027149,46.9483761 206.386425,47.3449573 C205.418552,47.9576068 204.150679,48.0287179 203.102715,47.5911111 C202.091403,47.1466667 201.468326,46.0786325 201.354299,45.0010256 C201.237557,43.9494017 201.308145,42.8006838 201.909502,41.8981197 Z M203.279186,42.3179487 C202.931674,42.6598291 202.838009,43.1603419 202.760633,43.6211966 C203.922624,43.6252991 205.085973,43.6239316 206.249321,43.6225641 C206.214027,43.0495726 206.048416,42.4177778 205.528507,42.1018803 C204.840271,41.7025641 203.857466,41.7353846 203.279186,42.3179487 Z" id="Shape"></path>
                <path d="M35.0375566,40.7548718 C35.5357466,40.7507692 36.0352941,40.7507692 36.5334842,40.7521368 C36.5402715,42.2605128 36.5266968,43.7675214 36.538914,45.2745299 C36.5457014,45.7531624 36.6719457,46.3439316 37.1755656,46.5299145 C37.8542986,46.7678632 38.7217195,46.6338462 39.1886878,46.0430769 C39.5117647,45.6328205 39.5769231,45.0871795 39.5742081,44.5798291 C39.5728507,43.3039316 39.5714932,42.0280342 39.5742081,40.7521368 C40.0656109,40.7521368 40.5570136,40.7521368 41.0497738,40.7521368 C41.0511312,43.0317949 41.0524887,45.3100855 41.0497738,47.5897436 C40.578733,47.5897436 40.1076923,47.5897436 39.638009,47.5897436 C39.6366516,47.3230769 39.6366516,47.0564103 39.6393665,46.7911111 C38.9457014,47.7565812 37.6384615,48.0806838 36.5321267,47.7497436 C35.758371,47.5911111 35.1095023,46.9100855 35.0823529,46.1005128 C34.9873303,44.32 35.0647059,42.5353846 35.0375566,40.7548718 Z" id="Shape"></path>
                <path d="M123.576923,40.7603419 C124.075113,40.7480342 124.576018,40.7507692 125.076923,40.7521368 C125.079638,43.0317949 125.078281,45.3100855 125.078281,47.5883761 C124.576018,47.5911111 124.073756,47.5952137 123.574208,47.5774359 C123.587783,45.3059829 123.58371,43.0331624 123.576923,40.7603419 Z" id="Shape"></path>
                <path d="M131.448869,40.7617094 C131.948416,40.7480342 132.449321,40.7507692 132.950226,40.7521368 C132.951584,43.0317949 132.952941,45.3100855 132.950226,47.5897436 C132.449321,47.5911111 131.949774,47.5924786 131.450226,47.582906 C131.457014,45.3087179 131.459729,43.0345299 131.448869,40.7617094 Z" id="Shape"></path>
                <path d="M148.688688,40.7603419 C149.188235,40.7480342 149.68914,40.7507692 150.191403,40.7521368 C150.191403,43.0317949 150.191403,45.3100855 150.191403,47.5897436 C149.68914,47.5911111 149.189593,47.5924786 148.691403,47.5842735 C148.695475,45.3087179 148.699548,43.0345299 148.688688,40.7603419 Z" id="Shape"></path>
            </g>
        </g>
    </g>
</svg>