<?xml version="1.0" encoding="UTF-8"?>
<svg width="300px" height="73px" viewBox="0 0 300 73" version="1.1" xmlns="http://www.w3.org/2000/svg" xmlns:xlink="http://www.w3.org/1999/xlink">
    <!-- Generator: Sketch 51.1 (57501) - http://www.bohemiancoding.com/sketch -->
    <title>Group</title>
    <desc>Created with Sketch.</desc>
    <defs></defs>
    <g id="Page-1" stroke="none" stroke-width="1" fill="none" fill-rule="evenodd">
        <g id="Group">
            <path d="M14.8582105,5.14504681 C23.7003158,0.706621277 33.2450526,0.0122808511 44.8218947,-0.000314893617 C62.4792632,0.237429787 81.2024211,4.80338723 99.5924211,11.0241106 C100.636105,11.378366 102.415579,11.4460681 102.289263,13.0410043 C102.170842,14.5430468 100.478211,14.4658979 99.354,14.8107064 C87.7692632,18.3611319 83.2645263,24.5377702 83.7445263,36.6029191 C83.8582105,39.4527064 84.3492632,42.3166638 84.9555789,45.1097702 C88.0361053,59.3067489 81.6129474,69.0605787 67.2413684,71.6127915 C54.4392632,73.8863234 41.8061053,72.7353872 29.4224211,69.0353872 C10.5855789,63.4082383 -0.463894737,48.0461532 0.0161052632,28.398366 C0.276631579,17.691983 5.29136842,9.94874894 14.8582105,5.14504681" id="Fill-1" fill="#29A9AC"></path>
            <path d="M68.0142632,41.4584213 C67.5879474,42.2047191 67.1268947,42.8502511 66.6263684,43.3934426 C65.949,44.1302936 65.2021579,44.4908468 64.3858421,44.4688043 C63.5047895,44.4593574 62.9284737,43.9759957 62.6521579,43.0155702 C62.3774211,42.0598681 62.2747895,40.9294 62.3426842,39.6288894 C62.4105789,38.3283787 62.5558421,36.9853574 62.7784737,35.5998255 C63.0011053,34.2174426 63.1653158,33.0696553 63.2695263,32.1533149 C63.4400526,31.2275277 63.2884737,30.5819957 62.8163684,30.2182936 C62.3458421,29.856166 61.8279474,29.6136979 61.2642632,29.4893149 C61.0574211,29.4719957 60.5632105,29.5334 59.7768947,29.6766766 C58.9905789,29.8168043 58.2279474,30.4576128 57.4874211,31.5991021 C55.1111053,35.2754851 53.7642632,38.5708468 53.4468947,41.4851872 C53.1295263,44.3979532 53.4184737,46.822634 54.3105789,48.7639532 C55.2026842,50.7036979 56.4847895,52.0813574 58.1553158,52.9016553 C59.8258421,53.7203787 61.4805789,53.8148468 63.1258421,53.1787617 C64.6479474,52.6276979 66.4447895,51.5287191 67.8768947,50.2124638 C69.2711053,48.9276979 69.9516316,47.8176979 70.4063684,46.9800809 C71.1437368,45.6213149 69.5237368,43.1950596 68.0142632,41.4584213" id="Fill-4" fill="#FFFFFE"></path>
            <path d="M15.9753158,35.3474383 C16.4474211,37.6650553 16.4868947,41.0438638 20.0900526,48.878417 C20.7816316,50.0403745 21.6200526,50.9330979 22.3384737,51.4463745 C23.0553158,51.9612255 23.8147895,52.2698213 24.5032105,52.4068 C25.1932105,52.5437787 25.7837368,52.5296085 26.349,52.4855234 C26.9442632,52.4430128 27.3484737,52.208417 27.6311053,51.6856936 C27.9011053,51.2889277 27.9468947,50.6339489 28.0084737,49.9679489 C28.0684737,49.3035234 28.0574211,48.508417 27.9721579,47.5857787 C27.8884737,46.6631404 27.789,45.6570553 27.6768947,44.5628 C27.6184737,44.2211404 27.5679474,43.8558638 27.5221579,43.4653957 C27.4779474,43.0749277 27.4416316,42.6765872 27.4100526,42.2688 C29.0900526,41.9239915 30.7905789,41.6579064 32.5116316,41.4658213 C34.2326842,41.2753106 35.8526842,41.1713957 37.3668947,41.1540766 C37.6921579,43.8369702 38.1832105,46.0034383 38.8447895,47.6534809 C39.5047895,49.3050979 40.239,50.5961617 41.0505789,51.5282468 C41.8621579,52.4587574 42.6895263,53.0979915 43.5374211,53.4443745 C44.3837368,53.7907574 45.1716316,53.984417 45.9011053,54.0237787 C46.5674211,54.0694383 47.0758421,53.8915234 47.4232105,53.4868851 C47.7721579,53.0838213 48.0374211,52.504417 48.2174211,51.7518213 C48.399,50.9976511 48.5047895,50.1096511 48.5395263,49.0830979 C48.5742632,48.0581191 48.5932105,46.9323745 48.5963684,45.7058638 C48.5821579,44.2573532 48.5932105,42.7301191 48.6326842,41.1210128 C48.6705789,39.5134809 48.8174211,37.8965021 49.0763684,36.2716511 C49.3779474,34.3933106 49.7679474,32.5307149 50.2463684,30.6854383 C50.7232105,28.8401617 51.1684737,27.075183 51.579,25.3920766 C51.9911053,23.7089702 52.3163684,22.1360766 52.5532105,20.6702468 C52.7916316,19.204417 52.8058421,17.9290979 52.6005789,16.8411404 C52.3921579,15.7547574 51.9168947,14.8856511 51.1732105,14.2322468 C50.4311053,13.580417 49.2832105,13.2151404 47.7311053,13.1427149 C46.6858421,13.0939064 45.7005789,13.1190979 44.7768947,13.2198638 C43.8547895,13.3190553 43.0053158,13.580417 42.2316316,13.9976511 C41.4579474,14.418034 40.7553158,15.0446723 40.1221579,15.877566 C39.4905789,16.712034 38.9505789,17.8456511 38.5053158,19.278417 C38.0600526,20.7127574 37.7111053,22.4950553 37.4600526,24.6221617 C37.2074211,26.7492681 37.0511053,29.3109277 36.9895263,32.305566 C36.9247895,33.5383745 36.9153158,34.6877362 36.9626842,35.7536511 C35.3047895,35.5300766 33.6516316,35.3773532 32.0047895,35.2939064 C30.3579474,35.212034 28.7458421,35.1821191 27.1684737,35.2041617 C27.2663684,33.560417 27.4211053,31.935566 27.6342632,30.3296085 C27.8458421,28.7268 28.0305789,27.1932681 28.1900526,25.7337362 C28.3495263,24.2742043 28.4395263,22.9296085 28.4584737,21.6999489 C28.4774211,20.4702894 28.3353158,19.4201191 28.0337368,18.5447149 C27.7321579,17.6693106 27.2095263,17.008034 26.4658421,16.5593106 C25.7221579,16.1121617 24.6911053,15.9358213 23.3726842,16.0334383 C22.4316316,16.1027149 21.5474211,16.2318213 20.7263684,16.419183 C19.9021579,16.6049702 19.1695263,16.9277362 18.5253158,17.3843319 C17.8795263,17.8425021 17.3268947,18.464417 16.8642632,19.2532255 C16.4032105,20.0436085 16.0479474,21.1016511 15.7984737,22.4257787 C15.5505789,23.7514809 15.4258421,25.3653106 15.4258421,27.270417 C15.4258421,29.1739489 15.5726842,31.4537787 15.8647895,34.1067574 C15.8995263,34.5759489 15.9105789,34.8719489 15.9753158,35.3080766" id="Fill-6" fill="#FFFFFE"></path>
            <path d="M60.2197895,26.2473277 C60.0208421,26.0883064 58.5334737,25.5498383 59.6276842,22.4843489 C60.7203158,19.4188596 62.3671579,17.0414128 64.8650526,16.8493277 C67.3645263,16.658817 70.4245263,20.1037532 68.4824211,22.3930298 C66.3176842,24.9436681 62.6876842,28.2185617 60.2197895,26.2473277" id="Fill-8" fill="#FFFFFE"></path>
            <path d="M263.122895,33.6706298 L269.588684,33.6706298 L269.588684,24.2805021 L263.122895,24.2805021 L263.122895,14.6416085 L251.697632,14.6416085 L251.697632,24.2805021 L247.995,24.2805021 L247.995,33.6706298 L251.697632,33.6706298 L251.697632,56.3933532 L263.122895,56.3933532 L263.122895,33.6706298 Z M243.761842,25.2818638 C240.435,23.7798213 236.793947,23.2161617 233.152895,23.2161617 C226.123421,23.2161617 218.966053,26.7225021 218.966053,34.6090128 C218.966053,40.368417 222.543947,42.1208 226.123421,43.0607574 C229.701316,43.9991404 233.279211,44.1235234 233.279211,46.6269277 C233.279211,48.3808851 231.144474,49.0689277 229.701316,49.0689277 C226.875,49.0689277 222.984474,47.4409277 220.661842,45.8145021 L216.518684,53.7639915 C220.409211,56.1398638 224.929737,57.4545447 229.511842,57.4545447 C236.983421,57.4545447 244.702895,53.9513532 244.702895,45.501183 C244.702895,39.554417 240.686053,37.0494383 235.350789,35.9866723 C233.781316,35.6733532 230.203421,35.360034 230.203421,33.1699489 C230.203421,31.5419489 232.462895,30.9798638 233.781316,30.9798638 C235.726579,30.9798638 238.175526,31.6049277 239.931316,32.5433106 L243.761842,25.2818638 Z M213.667105,41.0548851 C213.667105,30.1028851 207.201316,23.2161617 196.027105,23.2161617 C185.544474,23.2161617 178.199211,29.6636085 178.199211,40.368417 C178.199211,51.4479489 186.171316,57.4545447 196.843421,57.4545447 C200.547632,57.4545447 204.188684,56.5807149 207.138158,54.7637787 C210.089211,52.9499915 212.348684,50.1962468 213.226579,46.439566 L202.241842,46.439566 C200.985,48.5682468 199.229211,49.3822468 196.780263,49.3822468 C192.071842,49.3822468 189.624474,46.8788426 189.624474,42.245183 L213.667105,42.245183 L213.667105,41.0548851 Z M189.812368,35.6733532 C190.503947,32.3559489 193.265526,30.603566 196.592368,30.603566 C199.668158,30.603566 202.492895,32.6062894 203.058158,35.6733532 L189.812368,35.6733532 Z M139.252895,24.2805021 L139.252895,43.6228426 C139.252895,54.2016936 146.722895,57.4545447 156.389211,57.4545447 C166.057105,57.4545447 173.527105,54.2016936 173.527105,43.6228426 L173.527105,24.2805021 L162.101842,24.2805021 L162.101842,41.4327574 C162.101842,45.501183 161.097632,48.3808851 156.389211,48.3808851 C151.680789,48.3808851 150.676579,45.501183 150.676579,41.4327574 L150.676579,24.2805021 L139.252895,24.2805021 Z M114.116053,32.8566298 C118.761316,32.8566298 121.461316,36.174034 121.461316,40.1180766 C121.461316,44.1865021 118.761316,47.3165447 114.116053,47.3165447 C109.470789,47.3165447 106.772368,44.1865021 106.772368,40.1180766 C106.772368,36.174034 109.470789,32.8566298 114.116053,32.8566298 Z M132.509211,24.2805021 L121.083947,24.2805021 L121.083947,27.6608851 L120.959211,27.6608851 C118.698158,24.4694383 115.246579,23.2161617 111.479211,23.2161617 C101.625,23.2161617 94.9713158,31.2286298 94.9713158,40.6187574 C94.9713158,49.8829277 101.437105,57.018417 110.852368,57.018417 C115.121842,57.018417 118.134474,55.5793532 121.083947,52.6366723 L121.083947,54.1387149 C121.083947,59.3344596 119.891842,63.3399064 113.740263,63.3399064 C112.672895,63.3399064 111.479211,63.089566 110.475,62.5888851 C109.470789,62.0882043 108.654474,61.2757787 108.340263,60.1468851 L95.535,60.1468851 C96.5407895,68.5986298 106.458158,72.4151404 113.865,72.4151404 C125.729211,72.4151404 132.509211,66.9092255 132.509211,53.2633106 L132.509211,24.2805021 Z" id="Fill-10" fill="#38414F"></path>
            <path d="M298.934526,25.2824936 C295.607684,23.7804511 291.966632,23.2167915 288.325579,23.2167915 C281.296105,23.2167915 274.138737,26.7215574 274.138737,34.6096426 C274.138737,40.3674723 277.716632,42.1198553 281.296105,43.0598128 C284.874,43.9981957 288.450316,44.1241532 288.450316,46.6275574 C288.450316,48.3799404 286.317158,49.0695574 284.874,49.0695574 C282.049263,49.0695574 278.157158,47.4415574 275.834526,45.8135574 L271.691368,53.7630468 C275.583474,56.1420681 280.102421,57.4567489 284.686105,57.4567489 C292.154526,57.4567489 299.875579,53.951983 299.875579,45.5002383 C299.875579,39.5550468 295.858737,37.0500681 290.523474,35.9857277 C288.954,35.673983 285.376105,35.3606638 285.376105,33.1690043 C285.376105,31.5425787 287.635579,30.9789191 288.954,30.9789191 C290.899263,30.9789191 293.346632,31.603983 295.105579,32.5439404 L298.934526,25.2824936 Z" id="Fill-12" fill="#38414F"></path>
        </g>
    </g>
</svg>