<svg xmlns="http://www.w3.org/2000/svg" viewBox="0 0 61 60"><defs><style>.cls-1{fill:#fff;}</style></defs><title>Asset 1</title><g id="Layer_2" data-name="Layer 2"><g id="Capa_1" data-name="Capa 1"><path d="M59.71,54.55,55,42.55A4,4,0,0,0,51.32,40H43V38.41L49.41,32h3.73c.35-.92.55-1.16,0-2H49a1,1,0,0,0-.71.29L43,35.59V32.41l11.71-11.7A1,1,0,0,0,55,20V7.86a3.87,3.87,0,0,0-2,0V19.59l-1,1-3-3V13H47v5a1,1,0,0,0,.29.71L50.59,22,45,27.59l-2-2V22H41v4a1,1,0,0,0,.29.71L43.59,29l-2.3,2.29A1,1,0,0,0,41,32v8H37V23.41l5.71-5.7A1,1,0,0,0,43,17V10.86a2.29,2.29,0,0,0-2,0v5.73l-5.71,5.7A1,1,0,0,0,35,23V40H31V7.86a6.38,6.38,0,0,0-2,0V28.59l-3-3V18H24v8a1,1,0,0,0,.29.71L29,31.41V40H25V35a1,1,0,0,0-.29-.71L15.41,25l5.3-5.29A1,1,0,0,0,21,19V11.86a4.16,4.16,0,0,0-2,0v6.73l-5,5-2-2V17.86a14.68,14.68,0,0,0-2,0V22a1,1,0,0,0,.29.71L23,35.41V40H19V37a1,1,0,0,0-.29-.71L5,22.59V7.86c-.89-.29-1-.45-2,0V23a1,1,0,0,0,.29.71L8.59,29H8a1,1,0,0,0-.71.29L6,30.57c.38.91.53,1.11,1.41,1.41l1-1h2.18L17,37.41V40H8.68A4,4,0,0,0,5,42.55l-4.67,12A4,4,0,0,0,4,60H56a4,4,0,0,0,3.73-5.45ZM37,42h4v2H37Zm-6,0h4v2H31Zm-6,0h4v2H25Zm-6,0h4v2H19Zm0,8V46h4v4h2V46h4v4h2V46h4v4h2V46h4v4h2V46h4.28l2.33,7H10.39l2.33-7H17v4Zm38.63,7.13A2,2,0,0,1,56,58H4a2,2,0,0,1-1.87-2.72l4.67-12A2,2,0,0,1,8.68,42H17v2H12a1,1,0,0,0-.95.68l-3,9a1,1,0,0,0,.14.91A1,1,0,0,0,9,55H51a1,1,0,0,0,.81-.41,1,1,0,0,0,.14-.91l-3-9A1,1,0,0,0,48,44H43V42h8.32a2,2,0,0,1,1.86,1.28l4.67,12A2,2,0,0,1,57.63,57.13Z"/><rect x="24" y="12" width="2" height="4"/><rect x="47" y="9" width="2" height="2"/><path class="cls-1" d="M4,0A4,4,0,1,0,8,4,4,4,0,0,0,4,0ZM4,6A2,2,0,1,1,6,4,2,2,0,0,1,4,6Z"/><path class="cls-1" d="M11,10a4,4,0,1,0,4,4A4,4,0,0,0,11,10Zm0,6a2,2,0,1,1,2-2A2,2,0,0,1,11,16Z"/><path class="cls-1" d="M20,4a4,4,0,1,0,4,4A4,4,0,0,0,20,4Zm0,6a2,2,0,1,1,2-2A2,2,0,0,1,20,10Z"/><path class="cls-1" d="M4,30a4,4,0,1,0,4,4A4,4,0,0,0,4,30Zm0,6a2,2,0,1,1,2-2A2,2,0,0,1,4,36Z"/><path class="cls-1" d="M30,0a4,4,0,1,0,4,4A4,4,0,0,0,30,0Zm0,6a2,2,0,1,1,2-2A2,2,0,0,1,30,6Z"/><path class="cls-1" d="M42,3a4,4,0,1,0,4,4A4,4,0,0,0,42,3Zm0,6a2,2,0,1,1,2-2A2,2,0,0,1,42,9Z"/><path class="cls-1" d="M54,0a4,4,0,1,0,4,4A4,4,0,0,0,54,0Zm0,6a2,2,0,1,1,2-2A2,2,0,0,1,54,6Z"/><path class="cls-1" d="M57,27a4,4,0,1,0,4,4A4,4,0,0,0,57,27Zm0,6a2,2,0,1,1,2-2A2,2,0,0,1,57,33Z"/></g></g></svg>