<svg xmlns="http://www.w3.org/2000/svg" viewBox="0 0 48 48"><defs><style>.cls-1{fill:#fff;}</style></defs><title>icon-07</title><g id="Layer_2" data-name="Layer 2"><g id="Capa_1" data-name="Capa 1"><path class="cls-1" d="M12.64,45a1.09,1.09,0,0,1-.5-.13A24,24,0,1,1,48,24a1,1,0,0,1-2,0A22,22,0,1,0,13.13,43.13,1,1,0,0,1,12.64,45Z"/><path class="cls-1" d="M13.05,38a1,1,0,0,1-.65-.24A18,18,0,1,1,42,24a1,1,0,0,1-2,0A16,16,0,1,0,13.69,36.23,1,1,0,0,1,13.05,38Z"/><path d="M26,28c-4,0-8-1.38-8-4s4-4,8-4,8,1.37,8,4S30,28,26,28Zm0-6c-3.72,0-6,1.3-6,2s2.28,2,6,2,6-1.3,6-2S29.73,22,26,22Z"/><path d="M26,38c-4,0-8-1.38-8-4a1,1,0,0,1,2,0c0,.7,2.28,2,6,2s6-1.3,6-2a1,1,0,0,1,2,0C34,36.62,30,38,26,38Z"/><path d="M26,43c-4,0-8-1.38-8-4a1,1,0,0,1,2,0c0,.7,2.28,2,6,2s6-1.3,6-2a1,1,0,0,1,2,0C34,41.62,30,43,26,43Z"/><path d="M26,48c-4,0-8-1.38-8-4V24a1,1,0,0,1,2,0V44c0,.7,2.28,2,6,2s6-1.3,6-2V24a1,1,0,0,1,2,0V44C34,46.62,30,48,26,48Z"/><path d="M26,33c-4,0-8-1.38-8-4a1,1,0,0,1,2,0c0,.7,2.28,2,6,2s6-1.3,6-2a1,1,0,0,1,2,0C34,31.62,30,33,26,33Z"/><path d="M40,38c-4,0-8-1.38-8-4s4-4,8-4,8,1.37,8,4S44,38,40,38Zm0-6c-3.72,0-6,1.3-6,2s2.28,2,6,2,6-1.3,6-2S43.73,32,40,32Z"/><path d="M40,48c-4,0-8-1.38-8-4V34a1,1,0,0,1,2,0V44c0,.7,2.28,2,6,2s6-1.3,6-2V34a1,1,0,0,1,2,0V44C48,46.62,44,48,40,48Z"/><path d="M40,43c-4,0-8-1.38-8-4a1,1,0,0,1,2,0c0,.7,2.28,2,6,2s6-1.3,6-2a1,1,0,0,1,2,0C48,41.62,44,43,40,43Z"/></g></g></svg>