<svg xmlns="http://www.w3.org/2000/svg" viewBox="0 0 135 144"><defs><style>.cls-1{fill:#fff;stroke:#fff;}.cls-1,.cls-3{stroke-miterlimit:10;}.cls-2{fill:none;}.cls-3{stroke:#000;}</style></defs><title>Asset 1</title><g id="Layer_2" data-name="Layer 2"><g id="Capa_1" data-name="Capa 1"><path class="cls-1" d="M2.27,73.54A1.53,1.53,0,0,0,3.81,72a63.67,63.67,0,0,1,60-63.48l-4,4.38A1.54,1.54,0,0,0,62.08,15l6.49-7.09.09-.14A1.15,1.15,0,0,0,69,7.18a1.22,1.22,0,0,0,0-.27V6.55a1.4,1.4,0,0,0-.13-.34A1.2,1.2,0,0,0,68.69,6a1.51,1.51,0,0,0-.24-.26l-.18-.1-7-4.86A1.54,1.54,0,1,0,59.46,3.3l0,0L62.69,5.5A66.76,66.76,0,0,0,.73,72a1.54,1.54,0,0,0,1.54,1.54Z"/><path class="cls-1" d="M71,135.49l4-4.39A1.54,1.54,0,0,0,72.73,129l-6.48,7.07c0,.06-.07.11-.09.16a1.25,1.25,0,0,0-.21.35.57.57,0,0,0,0,.26.71.71,0,0,0,0,.29v.18a1.45,1.45,0,0,0,.32.74,1.2,1.2,0,0,0,.24.26l.09.09,7,4.79a1.54,1.54,0,1,0,1.77-2.53l0,0-3.2-2.17a66.76,66.76,0,0,0,62-66.5A1.55,1.55,0,1,0,131,72a63.67,63.67,0,0,1-60,63.49Z"/><rect class="cls-2" y="0.5" width="135" height="143"/><path class="cls-3" d="M27.61,40.53a1.64,1.64,0,0,0-.28.31,50.59,50.59,0,0,0,0,62.18,1.58,1.58,0,0,0,.27.31,50.65,50.65,0,0,0,79.53.09,1.45,1.45,0,0,0,.34-.4,50.62,50.62,0,0,0,0-62.18,1.36,1.36,0,0,0-.28-.31,50.71,50.71,0,0,0-79.59,0ZM58.06,25.24C53.34,29.53,49.44,37,46.93,46.49a63.5,63.5,0,0,1-15.84-5.35,47.63,47.63,0,0,1,27-15.9ZM29.12,43.61a65.84,65.84,0,0,0,17.09,5.86,102.89,102.89,0,0,0-2.35,21H19.77a47.34,47.34,0,0,1,9.35-26.84ZM19.77,73.54H43.86a102.81,102.81,0,0,0,2.35,21,65.84,65.84,0,0,0-17.09,5.86,47.49,47.49,0,0,1-9.35-26.84Zm11.32,29.33A63.06,63.06,0,0,1,47,97.54c2.51,9.49,6.4,17,11.12,21.25a47.65,47.65,0,0,1-27-15.92Zm34.77,16.66c-6.58-1.21-12.34-10-15.8-22.59a103.44,103.44,0,0,1,15.8-1.42Zm0-27.1A106.8,106.8,0,0,0,49.31,94,98.27,98.27,0,0,1,47,73.54H65.86Zm0-22H47a97.78,97.78,0,0,1,2.36-20.38,104.39,104.39,0,0,0,16.55,1.54Zm0-22a103.42,103.42,0,0,1-15.8-1.4c3.46-12.57,9.22-21.38,15.8-22.61Zm10.91,70.28c4.71-4.29,8.6-11.76,11.12-21.25a63.26,63.26,0,0,1,15.84,5.36,47.73,47.73,0,0,1-27,15.89ZM105.7,100.4a65.62,65.62,0,0,0-17.09-5.87,102.83,102.83,0,0,0,2.35-21H115a47.46,47.46,0,0,1-9.34,26.86ZM115,70.45H91a102.79,102.79,0,0,0-2.35-21,65.6,65.6,0,0,0,17.09-5.86A47.4,47.4,0,0,1,115,70.45ZM103.73,41.14a63.7,63.7,0,0,1-15.84,5.32c-2.52-9.48-6.41-17-11.12-21.25a47.62,47.62,0,0,1,27,15.93ZM69,24.47c6.59,1.2,12.35,10,15.82,22.6A103.58,103.58,0,0,1,69,48.48Zm0,27.1A106,106,0,0,0,85.52,50a99.09,99.09,0,0,1,2.36,20.43H69Zm0,22H87.88a99.85,99.85,0,0,1-2.36,20.39A105.94,105.94,0,0,0,69,92.39Zm0,22a104.85,104.85,0,0,1,15.82,1.4C81.3,109.49,75.54,118.3,69,119.53Z"/></g></g></svg>