<svg xmlns="http://www.w3.org/2000/svg" viewBox="0 0 507.52 491.72"><defs><style>.cls-1{fill:#fff;}</style></defs><title>Asset 1</title><g id="Layer_2" data-name="Layer 2"><g id="Capa_1" data-name="Capa 1"><path d="M172.8,90.42h0Z"/><path d="M175.1,118.82h0Z"/><path d="M446.8,293.32a105.39,105.39,0,0,0-78.7-34.9H208.3a41.8,41.8,0,0,0,0,83.6h69.9a16.6,16.6,0,0,1,0,33.2H197.3a45.86,45.86,0,0,1-30.5-11.5l-96.7-88.2c-16.6-14.9-43.7-14.9-59.7,3.8a41.79,41.79,0,0,0,1.5,56.8l128.7,132.8a74.45,74.45,0,0,0,53.5,22.8H394.8a14.1,14.1,0,0,0,0-28.2H194.1a46.05,46.05,0,0,1-33.2-14.1L32.2,316.52a13.84,13.84,0,0,1-.5-18.7c5.6-5.7,13.3-6.6,19.5-1.4l96.7,88.2a74.37,74.37,0,0,0,49.4,18.8h80.9a44.8,44.8,0,1,0,0-89.6H208.3a13.6,13.6,0,0,1,0-27.2H368a77.34,77.34,0,0,1,57.7,25.5c22.4,25.1,49.9,68.5,53.6,132.8a14.12,14.12,0,1,0,28.2-1.6C503.4,370.92,472.2,321.72,446.8,293.32Z"/><path class="cls-1" d="M235.79,153.6l24.38,23.49a91.26,91.26,0,0,1-35.1,25.55q-21,8.82-46.25,8.81a119,119,0,0,1-47.43-9.39,103.3,103.3,0,0,1-37-26.44,97.57,97.57,0,0,1-21.29-39.35H39.61V115.71H69.27q-.28-3.22-.29-10t.29-10H39.61V75.18H73.09A97.7,97.7,0,0,1,94.38,35.83a103.4,103.4,0,0,1,37-26.43A118.81,118.81,0,0,1,178.82,0q25.26,0,46.25,8.81a91.26,91.26,0,0,1,35.1,25.55l-24.38,23.2q-22.32-24.08-54.91-24.08-23.5,0-41.27,11.16a67.07,67.07,0,0,0-26.28,30.54h84.28V95.74H107.75c-.4,4.31-.59,7.64-.59,10s.19,5.68.59,10h89.86v20.56H113.33a67,67,0,0,0,26.28,30.54Q157.39,178,180.88,178,213.48,178,235.79,153.6Z"/></g></g></svg>