<svg xmlns="http://www.w3.org/2000/svg" viewBox="0 0 22.07 25.23"><defs><style>.cls-1{fill:#fff;}</style></defs><title>Asset 1</title><g id="Layer_2" data-name="Layer 2"><g id="Modo_de_aislamiento" data-name="Modo de aislamiento"><path d="M22,12.68c-.11-2.1-.32-5-.31-9.36V2.48L11.05,0h0L.4,2.48v.84c0,7.55-.92,10.77,0,13.6a7.72,7.72,0,0,0,3.07,3.69c1.58,1.16,3.8,2.43,7,4.29l.57.33.54-.36c3.22-2.13,5.42-3.38,7-4.38s2.57-1.83,3.08-3.08S22.11,14.79,22,12.68ZM20.05,17c-.27.68-.84,1.21-2.36,2.19S14,21.41,11,23.34c-2.93-1.7-5.19-3-6.55-4a5.71,5.71,0,0,1-2.41-2.79C1.43,14.73,2,11.19,2.1,4L11,1.89,19.94,4c0,4,.19,7,.3,9A10.73,10.73,0,0,1,20.05,17Z"/><path class="cls-1" d="M13.93,13.87l1,1a3.78,3.78,0,0,1-1.44,1.05,5.08,5.08,0,0,1-3.83,0,4.1,4.1,0,0,1-1.51-1.08,4,4,0,0,1-.87-1.61H5.91v-.84H7.13a3.45,3.45,0,0,1,0-.4,3.66,3.66,0,0,1,0-.41H5.91v-.84H7.28a4,4,0,0,1,.87-1.61A4.35,4.35,0,0,1,9.66,8,4.83,4.83,0,0,1,11.6,7.6,4.82,4.82,0,0,1,13.49,8a3.76,3.76,0,0,1,1.44,1l-1,.95a2.94,2.94,0,0,0-2.24-1A3.14,3.14,0,0,0,10,9.42a2.72,2.72,0,0,0-1.07,1.25h3.44v.84H8.7a3.74,3.74,0,0,0,0,.41,3.76,3.76,0,0,0,0,.4h3.67v.84H8.93A2.72,2.72,0,0,0,10,14.41a3.06,3.06,0,0,0,1.69.46A2.91,2.91,0,0,0,13.93,13.87Z"/></g></g></svg>