<svg xmlns="http://www.w3.org/2000/svg" viewBox="0 0 79.77 8.42"><defs><style>.cls-1{fill:#fff;}</style></defs><title>Asset 1</title><g id="Layer_2" data-name="Layer 2"><g id="Capa_1" data-name="Capa 1"><path class="cls-1" d="M79.77,8V7.57L79,7.36,76.25,0a3.51,3.51,0,0,1-1,.85l.1.31L72.81,7.39l-.43.18-.58-.18V1.25l.9-.2V.64H69.62v.41l.89.21V7.37l-.85.2V8h4.7V7.57l-.76-.2.86-2.26h2.35l.83,2.25-.89.21V8ZM76.6,4.54H74.65l1-2.61Zm-7.26-.23a3.68,3.68,0,0,0-4-3.67H62.13v.41l.86.2v6a.73.73,0,0,1-.6.3,1.26,1.26,0,0,1-1.06-.78l-.82-1.46a1.68,1.68,0,0,0-1.49-1v-.1a2,2,0,0,0,2.06-1.86c0-1.25-1.14-1.74-2.46-1.74h-3v.41l1,.2V7.36h0l-1.11.21L52.73,0a3.38,3.38,0,0,1-1,.85l.11.31L49.3,7.37l-.76.2V8h2.3V7.57l-.75-.2L51,5.11H53.3l.82,2.25-.89.21V8h5.63V7.57l-1-.2V4.53a1.38,1.38,0,0,1,1.25.92l1.12,2a1.8,1.8,0,0,0,1.61,1A1.64,1.64,0,0,0,63,8h2.51a3.78,3.78,0,0,0,3.88-3.67m-16.26.23H51.14l1-2.61ZM58.41,4h-.5V1.25h.63a1.24,1.24,0,0,1,1.28,1.31A1.42,1.42,0,0,1,58.41,4M68,4.31C68,6.19,67,7.37,65.32,7.37h-1V1.25h1.08C67,1.25,68,2.4,68,4.31M48.63,1.25l.86-.2V.64H47v.41l.88.2S48,4.89,48,5.81a1.85,1.85,0,0,1-2,1.8,1.82,1.82,0,0,1-2-1.89V1.24l.85-.19V.64h-3v.41l.84.2V5.76a2.7,2.7,0,0,0,2.92,2.57,2.67,2.67,0,0,0,2.92-2.57ZM41.1,4.83l.7-.27V4.23H39v.41l.82.2V7.21a2.71,2.71,0,0,1-1.66.55c-1.67,0-2.73-1.4-2.73-3.35s1-3.5,2.76-3.5a2.61,2.61,0,0,1,2.46,2l.23-.14V.45L40.67.33l-.45.56a4.65,4.65,0,0,0-2-.52,4.11,4.11,0,0,0-4.12,4.05,3.74,3.74,0,0,0,3.81,3.92,3.82,3.82,0,0,0,2.37-.79l.64.43h.21ZM32.87,1.25l.89-.2V.64H31.27v.41l.89.21.06,4.8L27.62.64h-2v.41l.89.19.08,0-.07,6.08h0l-.91.21L22.87,0a3.4,3.4,0,0,1-1,.85l.11.31L19.44,7.37l-.77.2V8H21V7.57l-.76-.2.86-2.26h2.35l.82,2.25-.88.21V8H28.2V7.57l-.95-.2-.06-5.32,5.26,6.19h.35ZM23.22,4.54H21.27l1-2.61ZM19.78,1.26l.9-.21V.64H18.09v.41l.88.2L17.05,6.17,15,1.25l1-.2V.64H12.72v.41l.93.2,2.9,7h.31l2.89-7ZM9.58,8h3V7.57l-.81-.2L9.08,0a3.38,3.38,0,0,1-1,.85l.1.31L5.65,7.37l-.54.2L5,8H7.19V7.57l-.75-.2.85-2.26H9.64l.83,2.25-.89.21ZM9.43,4.54H7.48l1-2.61ZM4.6,8l.73-1.86L5.05,6,3.46,7.41H2.11V1.25l.81-.2V.64H0v.41l.82.2V7.36L0,7.57V8Z"/></g></g></svg>