<?xml version="1.0" encoding="UTF-8"?>
<svg width="230px" height="115px" viewBox="0 0 230 115" version="1.1" xmlns="http://www.w3.org/2000/svg" xmlns:xlink="http://www.w3.org/1999/xlink">
    <!-- Generator: Sketch 51.1 (57501) - http://www.bohemiancoding.com/sketch -->
    <title>Group</title>
    <desc>Created with Sketch.</desc>
    <defs></defs>
    <g id="Page-1" stroke="none" stroke-width="1" fill="none" fill-rule="evenodd">
        <g id="Group" fill-rule="nonzero">
            <path d="M113.694323,0 L118.650873,0 C127.660044,0.61768559 136.433188,4.44432314 142.861135,10.8120087 C149.168559,16.94869 153.271397,25.330131 154.1,34.0982533 C154.843231,41.2141921 153.572707,48.541048 150.353712,54.9388646 C146.672707,62.4163755 140.43559,68.5831878 132.948035,72.2340611 C124.812664,76.2364629 115.210917,77.1604803 106.452838,74.7951965 C96.8510917,72.2943231 88.3943231,65.8061135 83.4076419,57.2388646 C79.2395197,50.1731441 77.4969432,41.7213974 78.4661572,33.5810044 C79.3550218,25.7067686 82.8251092,18.1689956 88.1783843,12.3336245 C94.6866812,5.13231441 104.037336,0.723144105 113.694323,0 Z M94.3652838,18.6812227 C94.1292576,23.1556769 93.968559,27.6451965 94.3100437,32.1196507 C94.9879913,40.3554585 97.1222707,49.0281659 103.012882,55.1497817 C107.221179,59.6091703 113.458297,61.7183406 119.519651,61.4069869 C123.828384,61.5576419 127.76048,59.1823144 130.467249,55.9733624 C126.931878,46.331441 117.716812,40.0290393 108.34607,36.7949782 C111.79607,36.9456332 115.105459,38.1508734 118.25917,39.4766376 C124.385808,42.1231441 129.754148,46.9340611 132.144541,53.2665939 C135.187773,51.0569869 136.935371,47.4914847 137.372271,43.8104803 C137.899563,47.210262 137.000655,50.8561135 134.434498,53.2414847 C135.880786,53.080786 137.422489,52.6639738 138.346507,51.4386463 C139.993668,49.4148472 139.812882,46.6528384 139.672271,44.2072052 C139.516594,41.8067686 140.611354,39.6072052 141.635808,37.5181223 C138.175764,38.3818777 134.635371,39.5971616 132.05917,42.1783843 C129.146507,36.0818777 122.472489,32.9733624 116.250437,31.3613537 C111.143231,30.5528384 106.15655,28.6395197 102.033624,25.4908297 C99.3770742,23.3364629 96.7355895,21.1469432 94.3652838,18.6812227 Z" id="Shape" fill="#56EF7A"></path>
            <path d="M0.462008734,93.0043668 C2.45065502,92.999345 4.43930131,92.9893013 6.42292576,93.0244541 C6.48820961,98.3576419 6.43296943,103.695852 6.45305677,109.034061 C9.84781659,109.054148 13.2425764,109.018996 16.6373362,109.054148 C16.6574236,110.826856 16.6724891,112.594541 16.6072052,114.367249 C11.2237991,114.392358 5.84039301,114.372271 0.4569869,114.377293 C0.441921397,107.25131 0.436899563,100.125328 0.462008734,93.0043668 Z" id="Shape" fill="#545A74"></path>
            <path d="M24.7224891,93.029476 C30.4423581,92.9842795 36.1622271,92.9792576 41.8820961,93.0244541 C41.9122271,94.7368996 41.9122271,96.449345 41.8820961,98.1617904 C38.1508734,98.2170306 34.4146288,98.1617904 30.6834061,98.1919214 C30.6884279,99.2063319 30.6984716,100.220742 30.7034934,101.235153 C34.0781659,101.235153 37.4478166,101.225109 40.8224891,101.240175 C40.8375546,102.812009 40.8375546,104.383843 40.8275109,105.955677 C37.4478166,106.041048 34.0681223,105.970742 30.6934498,105.995852 C30.6934498,107.06048 30.6934498,108.125109 30.6934498,109.189738 C34.469869,109.199782 38.2462882,109.169651 42.0227074,109.204803 C42.0528384,110.922271 42.0528384,112.639738 42.0227074,114.357205 C36.2576419,114.392358 30.4925764,114.402402 24.7275109,114.347162 C24.6823144,107.241266 24.6923581,100.135371 24.7224891,93.029476 Z" id="Shape" fill="#545A74"></path>
            <path d="M51.44869,93.0344978 C53.5427948,92.9742358 55.6419214,93.0144105 57.741048,92.999345 C59.3982533,95.5655022 60.9349345,98.2120087 62.5820961,100.78821 C62.6775109,100.803275 62.8633188,100.828384 62.9587336,100.84345 C64.6209607,98.2421397 66.1475983,95.5454148 67.8650655,92.9742358 C69.939083,93.029476 72.0181223,92.9742358 74.0971616,93.029476 C74.1272926,100.135371 74.1272926,107.246288 74.0971616,114.357205 C72.0934498,114.387336 70.0947598,114.39738 68.091048,114.347162 C68.0709607,110.384934 68.0759825,106.417686 68.091048,102.455459 C66.2681223,105.147162 64.5606987,107.919214 62.7277293,110.605895 C60.8847162,107.919214 59.1622271,105.157205 57.3543668,102.445415 C57.3593886,106.422707 57.3945415,110.4 57.3342795,114.377293 C55.3707424,114.377293 53.4072052,114.392358 51.4436681,114.352183 C51.418559,107.246288 51.4135371,100.140393 51.44869,93.0344978 Z" id="Shape" fill="#545A74"></path>
            <path d="M90.6240175,93.2504367 C95.1135371,91.7087336 100.587336,92.9641921 103.595415,96.7406114 C107.010262,100.803275 106.784279,107.36179 103.078166,111.163319 C98.6941048,116.019432 90.1017467,115.944105 85.8030568,111.012664 C83.5131004,108.466594 82.6041485,104.800655 83.3072052,101.461135 C84.0152838,97.659607 86.9781659,94.4657205 90.6240175,93.2504367 Z M93.119869,98.2471616 C88.7558952,99.3318777 87.9473799,105.91048 91.5580786,108.356114 C94.4757642,110.600873 99.2163755,108.70262 99.7286026,105.046725 C100.848472,101.220087 97.0670306,96.9866812 93.119869,98.2471616 Z" id="Shape" fill="#545A74"></path>
            <path d="M115.060262,93.0194323 C116.88821,92.9943231 118.716157,92.999345 120.549127,92.999345 C123.476856,96.6050218 126.218777,100.361354 129.161572,103.962009 C129.201747,100.311135 129.146507,96.660262 129.196725,93.0144105 C131.180349,92.9943231 133.158952,92.9842795 135.142576,93.0244541 C135.147598,100.135371 135.177729,107.25131 135.127511,114.362227 C133.389956,114.382314 131.657424,114.377293 129.919869,114.387336 C126.926856,110.59083 123.999127,106.749127 120.99607,102.962664 C120.960917,106.764192 121.006114,110.570742 120.970961,114.377293 C119.002402,114.382314 117.028821,114.382314 115.060262,114.362227 C115.010044,107.246288 115.010044,100.130349 115.060262,93.0194323 Z" id="Shape" fill="#545A74"></path>
            <path d="M143.137336,93.0344978 C145.251528,92.9792576 147.365721,93.0043668 149.484934,93.0093886 C150.725328,96.9866812 151.85524,100.999127 153.130786,104.966376 C154.521834,100.994105 155.772271,96.9716157 157.148253,92.9943231 C158.860699,93.1399563 160.728821,92.7080786 162.345852,93.1951965 C163.751965,97.0971616 164.906987,101.084498 166.318122,104.986463 C167.568559,101.004148 168.728603,96.9967249 169.958952,93.0093886 C172.027948,92.9943231 174.101965,92.9842795 176.175983,93.029476 C173.84083,100.180568 171.46048,107.321616 169.070087,114.45262 C167.322489,114.472707 165.574891,114.462664 163.832314,114.447598 C162.45131,110.59083 161.145633,106.70393 159.734498,102.857205 C157.976856,106.553275 156.94738,110.600873 155.501092,114.447598 C153.74345,114.472707 151.985808,114.472707 150.233188,114.437555 C147.867904,107.301528 145.487555,100.175546 143.137336,93.0344978 Z" id="Shape" fill="#545A74"></path>
            <path d="M189.564192,92.9893013 C191.527729,92.8838428 193.491266,92.9491266 195.459825,92.939083 C198.427729,100.085153 201.55131,107.170961 204.448908,114.347162 C202.314629,114.402402 200.185371,114.372271 198.056114,114.372271 C197.538865,113.081659 196.986463,111.811135 196.424017,110.540611 C193.777511,110.600873 191.125983,110.550655 188.479476,110.570742 C187.962227,111.821179 187.460044,113.071616 186.982969,114.332096 C184.863755,114.412445 182.749563,114.387336 180.635371,114.352183 C183.522926,107.19607 186.71179,100.16048 189.564192,92.9893013 Z M190.24214,105.85524 C191.738646,105.850218 193.230131,105.850218 194.726638,105.860262 C194.013537,103.9369 193.2,102.04869 192.537118,100.10524 C191.763755,102.018559 190.995415,103.931878 190.24214,105.85524 Z" id="Shape" fill="#545A74"></path>
            <path d="M207.647817,93.0244541 C209.907642,92.9842795 212.167467,93.0043668 214.427293,92.999345 C215.913755,95.5303493 217.329913,98.0965066 218.766157,100.65262 C219.976419,98.5334061 221.201747,96.419214 222.301528,94.239738 C222.572707,93.7375546 222.833843,93.0344978 223.506769,92.969214 C225.666157,92.8436681 227.83559,92.939083 230,93.0495633 L230,93.2353712 C229.924672,93.2152838 229.779039,93.1751092 229.703712,93.1550218 C227.253057,97.539083 224.44083,101.712227 221.939956,106.061135 C221.543231,108.787991 221.914847,111.595197 221.75917,114.357205 C219.740393,114.392358 217.721616,114.387336 215.702838,114.357205 C215.607424,111.715721 215.808297,109.064192 215.612445,106.427729 C213.141703,101.862882 210.198908,97.5541485 207.647817,93.0244541 Z" id="Shape" fill="#545A74"></path>
        </g>
    </g>
</svg>