<?xml version="1.0" encoding="UTF-8"?>
<svg width="182px" height="209px" viewBox="0 0 182 209" version="1.1" xmlns="http://www.w3.org/2000/svg" xmlns:xlink="http://www.w3.org/1999/xlink">
    <!-- Generator: Sketch 51.1 (57501) - http://www.bohemiancoding.com/sketch -->
    <title>Group</title>
    <desc>Created with Sketch.</desc>
    <defs></defs>
    <g id="Page-1" stroke="none" stroke-width="1" fill="none" fill-rule="evenodd">
        <g id="Group" fill-rule="nonzero">
            <path d="M181.379968,105.038446 C180.473434,87.6424891 178.742779,63.6195006 178.825191,27.5021799 L178.825191,20.5437971 L91.1386721,0 L3.36974092,20.5437971 L3.36974092,27.5021799 C3.36974092,90.044788 -4.21217614,116.718589 3.36974092,140.161712 C8.35755103,152.794282 17.2195859,163.501072 28.6702685,170.728894 C41.6913869,180.33809 59.9868824,190.858502 86.3587679,206.26635 L91.05626,209 L95.5065156,206.017836 C122.043225,188.373365 140.173897,178.018629 153.195015,169.734839 C166.216133,161.45105 174.374935,154.575505 178.577955,144.220769 C182.780974,133.866033 182.286501,122.517241 181.379968,105.038446 Z M165.3096,140.824415 C163.084472,146.457392 158.38698,150.8478 145.860334,158.965914 C133.333689,167.084027 115.450254,177.355925 90.7266114,193.343639 C66.5798538,179.261197 47.9547097,168.492271 36.7466584,160.208482 C27.7659676,154.923923 20.7812873,146.796151 16.8853322,137.09671 C11.8581915,122.020214 16.5556836,92.6956005 17.379805,33.1351566 L90.7266114,15.6563615 L164.403066,33.1351566 C164.403066,66.2703131 165.968897,91.1216805 166.875431,107.689259 C168.426731,118.735217 167.895538,129.975991 165.3096,140.824415 Z" id="Shape" fill="#FFFFFF"></path>
            <circle id="Oval" fill="#000000" cx="130.5" cy="99.5" r="16.5"></circle>
            <circle id="Oval-Copy" fill="#000000" cx="88.5" cy="100.5" r="13.5"></circle>
            <circle id="Oval-Copy-2" fill="#000000" cx="52" cy="100" r="10"></circle>
        </g>
    </g>
</svg>