<?xml version="1.0" encoding="UTF-8"?>
<svg width="300px" height="26px" viewBox="0 0 300 26" version="1.1" xmlns="http://www.w3.org/2000/svg" xmlns:xlink="http://www.w3.org/1999/xlink">
    <!-- Generator: Sketch 51.1 (57501) - http://www.bohemiancoding.com/sketch -->
    <title>Group</title>
    <desc>Created with Sketch.</desc>
    <defs></defs>
    <g id="Page-1" stroke="none" stroke-width="1" fill="none" fill-rule="evenodd">
        <g id="Group" fill-rule="nonzero">
            <path d="M67.5842697,0.543908046 C70.5413687,-0.0298850575 73.7129724,0.334712644 76.3820225,1.73034483 C79.7160368,3.40988506 82.2165475,6.56574713 83.0377937,10.134023 C83.7303371,13.1404598 83.3381001,16.403908 81.8089888,19.1114943 C80.1756895,22.1298851 77.2216547,24.3951724 73.8723187,25.3335632 C70.7405516,26.1763218 67.2839632,25.8954023 64.3820225,24.451954 C61.5597549,23.0682759 59.2829418,20.6595402 58.124617,17.7905747 C56.6782431,14.294023 56.9233912,10.1609195 58.8232891,6.86758621 C60.6036772,3.64 63.907048,1.27908046 67.5842697,0.543908046 Z" id="Shape" fill="#1CA249"></path>
            <path d="M113.81001,1.33287356 C113.822268,1.33900227 113.849847,1.35125967 113.862104,1.35738837 C113.849847,1.35125967 113.822268,1.33900227 113.81001,1.33287356 Z" id="Shape" fill="#1CA249"></path>
            <path d="M103.388151,1.68014699 C103.400409,1.67401829 103.424923,1.66176089 103.437181,1.65563218 C103.424923,1.66176089 103.400409,1.67401829 103.388151,1.68014699 Z" id="Shape" fill="#1CA249"></path>
            <path d="M200.846782,1.6831355 C200.85904,1.6770068 200.883555,1.66474939 200.895812,1.65862069 C200.883555,1.66474939 200.85904,1.6770068 200.846782,1.6831355 Z" id="Shape" fill="#1CA249"></path>
            <path d="M211.875383,1.64666667 C211.88764,1.65279537 211.91522,1.66505277 211.927477,1.67118148 C211.91522,1.66505277 211.88764,1.65279537 211.875383,1.64666667 Z" id="Shape" fill="#1CA249"></path>
            <path d="M115.054137,1.93057471 C115.066394,1.93670342 115.090909,1.95202517 115.103166,1.95815388 C115.090909,1.95202517 115.066394,1.93670342 115.054137,1.93057471 Z" id="Shape" fill="#1CA249"></path>
            <path d="M33.8488253,3.1737931 C38.2492339,1.9216092 43.3360572,3.91494253 45.618999,7.79402299 C47.2461696,10.4089655 47.5219612,13.7471264 46.4463739,16.6101149 C45.557712,18.991954 43.6976507,21.0002299 41.3901941,22.1567816 C38.3779367,23.6689655 34.6149132,23.6331034 31.6332993,22.0551724 C27.7630235,20.0977011 25.4800817,15.6 26.258427,11.4101149 C26.8406537,7.53103448 29.9448417,4.13908046 33.8488253,3.1737931 Z" id="Shape" fill="#1CA249"></path>
            <path d="M6.27272727,5.56758621 C8.81307457,4.98183908 11.6475996,5.64827586 13.5413687,7.42942529 C16.4279877,9.96367816 16.8569969,14.6377011 14.4790603,17.6291954 C12.3432074,20.5818391 7.95812053,21.5650575 4.6700715,19.9512644 C1.96118488,18.6871264 0.113381001,15.8032184 0.294177732,12.8535632 C0.239019408,9.45563218 2.90194076,6.31471264 6.27272727,5.56758621 Z" id="Shape" fill="#1CA249"></path>
            <path d="M196.271706,5.84979512 C196.280899,5.83753772 196.296221,5.80995855 196.305414,5.79770115 C196.296221,5.80995855 196.280899,5.83753772 196.271706,5.84979512 Z" id="Shape" fill="#1CA249"></path>
            <path d="M216.162411,5.80367816 C216.168539,5.81593557 216.183861,5.84351473 216.18999,5.85577213 C216.183861,5.84351473 216.168539,5.81593557 216.162411,5.80367816 Z" id="Shape" fill="#1CA249"></path>
            <path d="M211.308478,7.54 L211.357508,7.59822268 L211.378958,7.67176711 C211.363636,7.63805924 211.326864,7.57370787 211.308478,7.54 Z" id="Shape" fill="#1CA249"></path>
            <path d="M146.883555,7.91954023 C146.898876,7.92566893 146.92952,7.93792634 146.941777,7.94405504 C146.92952,7.93792634 146.898876,7.92566893 146.883555,7.91954023 Z" id="Shape" fill="#1CA249"></path>
            <path d="M237.956078,7.93807803 C237.971399,7.93194933 238.002043,7.91969192 238.0143,7.91356322 C238.002043,7.91969192 237.971399,7.93194933 237.956078,7.93807803 Z" id="Shape" fill="#1CA249"></path>
            <path d="M292.777324,7.92551724 C292.789581,7.93164594 292.814096,7.9469677 292.826353,7.9530964 C292.814096,7.9469677 292.789581,7.93164594 292.777324,7.92551724 Z" id="Shape" fill="#1CA249"></path>
            <path d="M104.834525,8.1645977 C104.855975,8.21056297 104.898876,8.30555786 104.920327,8.35152314 L104.834525,8.2779787 L104.834525,8.1645977 Z" id="Shape" fill="#1CA249"></path>
            <path d="M162.907048,10.8757276 C163.538304,10.5294559 164.347293,10.5110698 164.972421,10.8971781 C164.310521,11.0595887 163.553626,11.0749105 162.907048,10.8757276 Z" id="Shape" fill="#1CA249"></path>
            <path d="M171.432074,10.92 C171.441267,10.9383861 171.459653,10.9751583 171.468846,10.9935444 C171.459653,10.9751583 171.441267,10.9383861 171.432074,10.92 Z" id="Shape" fill="#1CA249"></path>
            <path d="M282.977528,10.9966088 C282.986721,10.9782227 283.008172,10.9383861 283.020429,10.92 C283.008172,10.9383861 282.986721,10.9782227 282.977528,10.9966088 Z" id="Shape" fill="#1CA249"></path>
            <path d="M134.987743,11.2350825 C134.996936,11.2228251 135.012257,11.1983103 135.018386,11.1829885 C135.012257,11.1983103 134.996936,11.2228251 134.987743,11.2350825 Z" id="Shape" fill="#1CA249"></path>
            <path d="M156.131767,11.2231285 C156.137896,11.2108711 156.153218,11.1832919 156.162411,11.1710345 C156.153218,11.1832919 156.137896,11.2108711 156.131767,11.2231285 Z" id="Shape" fill="#1CA249"></path>
            <path d="M162.223698,11.1930159 C162.242084,11.1807585 162.28192,11.159308 162.303371,11.1501149 C162.28192,11.159308 162.242084,11.1807585 162.223698,11.1930159 Z" id="Shape" fill="#1CA249"></path>
            <path d="M249.867211,11.174023 C249.87334,11.1862804 249.888662,11.2138596 249.897855,11.226117 C249.888662,11.2138596 249.87334,11.1862804 249.867211,11.174023 Z" id="Shape" fill="#1CA249"></path>
            <path d="M171.723187,11.4758621 C171.726251,11.4881195 171.735444,11.5095699 171.741573,11.518763 C171.735444,11.5095699 171.726251,11.4881195 171.723187,11.4758621 Z" id="Shape" fill="#1CA249"></path>
            <path d="M282.704801,11.5069607 C282.71093,11.4947033 282.723187,11.4701884 282.729316,11.457931 C282.723187,11.4701884 282.71093,11.4947033 282.704801,11.5069607 Z" id="Shape" fill="#1CA249"></path>
            <path d="M115.663943,12.1154023 C115.6762,12.121531 115.697651,12.1368528 115.709908,12.1429815 C115.697651,12.1368528 115.6762,12.121531 115.663943,12.1154023 Z" id="Shape" fill="#1CA249"></path>
            <path d="M228.091931,12.08934 C228.113381,12.080147 228.150153,12.0648252 228.168539,12.0556322 C228.150153,12.0648252 228.113381,12.080147 228.091931,12.08934 Z" id="Shape" fill="#1CA249"></path>
            <path d="M155.515832,12.433625 C155.521961,12.4183032 155.534219,12.3907241 155.540347,12.3754023 C155.534219,12.3907241 155.521961,12.4183032 155.515832,12.433625 Z" id="Shape" fill="#1CA249"></path>
            <path d="M250.483146,12.3754023 C250.489275,12.3876597 250.498468,12.4152389 250.504597,12.4274963 C250.498468,12.4152389 250.489275,12.3876597 250.483146,12.3754023 Z" id="Shape" fill="#1CA249"></path>
            <path d="M238.519918,12.6960067 C238.522983,12.6868137 238.53524,12.6714919 238.541369,12.6622989 C238.53524,12.6714919 238.522983,12.6868137 238.519918,12.6960067 Z" id="Shape" fill="#1CA249"></path>
            <path d="M104.322778,13.8786207 C104.3381,13.881685 104.365679,13.8939424 104.377937,13.8970068 C104.365679,13.8939424 104.3381,13.881685 104.322778,13.8786207 Z" id="Shape" fill="#1CA249"></path>
            <path d="M225.965271,14.2151536 C225.974464,14.1967675 225.989785,14.1599953 225.998979,14.1416092 C225.989785,14.1599953 225.974464,14.1967675 225.965271,14.2151536 Z" id="Shape" fill="#1CA249"></path>
            <path d="M187.035751,15.9616092 C187.044944,15.976931 187.06333,16.0014458 187.072523,16.0167675 C187.06333,16.0014458 187.044944,15.976931 187.035751,15.9616092 Z" id="Shape" fill="#1CA249"></path>
            <path d="M113.871297,17.3811494 L113.947906,17.4455008 L113.960163,17.54356 C113.938713,17.5037235 113.892748,17.420986 113.871297,17.3811494 Z" id="Shape" fill="#1CA249"></path>
            <path d="M182.78856,18.0386207 C182.797753,18.0539424 182.816139,18.0815216 182.825332,18.0968434 C182.816139,18.0815216 182.797753,18.0539424 182.78856,18.0386207 Z" id="Shape" fill="#1CA249"></path>
            <path d="M211.283963,18.4317835 C211.293156,18.4164618 211.308478,18.3827539 211.317671,18.3643678 C211.308478,18.3827539 211.293156,18.4164618 211.283963,18.4317835 Z" id="Shape" fill="#1CA249"></path>
            <path d="M195.677222,19.2698851 C195.68335,19.2821425 195.695608,19.3066573 195.701736,19.321979 C195.695608,19.3066573 195.68335,19.2821425 195.677222,19.2698851 Z" id="Shape" fill="#1CA249"></path>
            <path d="M146.601634,19.6440245 C146.616956,19.6072523 146.650664,19.5367722 146.66905,19.5 C146.650664,19.5367722 146.616956,19.6072523 146.601634,19.6440245 Z" id="Shape" fill="#1CA249"></path>
            <path d="M238.219612,19.4970115 C238.234934,19.5337837 238.268641,19.6042638 238.287028,19.6379717 C238.268641,19.6042638 238.234934,19.5337837 238.219612,19.4970115 Z" id="Shape" fill="#1CA249"></path>
            <path d="M167.184883,19.9724568 C167.200204,19.9387489 167.230848,19.8743975 167.24617,19.8406897 L167.230848,19.9142341 L167.184883,19.9724568 Z" id="Shape" fill="#1CA249"></path>
            <path d="M195.937692,19.7749425 C195.949949,19.796393 195.974464,19.8423583 195.983657,19.8668731 C195.974464,19.8423583 195.949949,19.796393 195.937692,19.7749425 Z" id="Shape" fill="#1CA249"></path>
            <path d="M151.519918,20.2005997 C151.526047,20.1883423 151.53524,20.1638275 151.541369,20.1485057 C151.53524,20.1638275 151.526047,20.1883423 151.519918,20.2005997 Z" id="Shape" fill="#1CA249"></path>
            <path d="M216.153218,20.1885699 C216.159346,20.1763124 216.171604,20.1517976 216.177732,20.1395402 C216.171604,20.1517976 216.159346,20.1763124 216.153218,20.1885699 Z" id="Shape" fill="#1CA249"></path>
            <path d="M233.3381,20.1425287 C233.344229,20.1547861 233.353422,20.179301 233.356486,20.1946227 C233.353422,20.179301 233.344229,20.1547861 233.3381,20.1425287 Z" id="Shape" fill="#1CA249"></path>
            <path d="M134.675179,21.0331034 C134.681307,21.0453609 134.693565,21.07294 134.702758,21.0851974 C134.693565,21.07294 134.681307,21.0453609 134.675179,21.0331034 Z" id="Shape" fill="#1CA249"></path>
            <path d="M250.173647,21.1032043 C250.179775,21.0878825 250.192033,21.0603034 250.201226,21.048046 C250.192033,21.0603034 250.179775,21.0878825 250.173647,21.1032043 Z" id="Shape" fill="#1CA249"></path>
            <path d="M145.075587,21.4252803 C145.08478,21.4191516 145.106231,21.4038299 145.115424,21.3977011 C145.106231,21.4038299 145.08478,21.4191516 145.075587,21.4252803 Z" id="Shape" fill="#1CA249"></path>
            <path d="M239.770174,21.4006897 C239.779367,21.4068184 239.797753,21.4160114 239.806946,21.4221401 C239.797753,21.4160114 239.779367,21.4068184 239.770174,21.4006897 Z" id="Shape" fill="#1CA249"></path>
            <path d="M118.418795,21.7068066 C118.424923,21.6945492 118.440245,21.6700344 118.449438,21.6547126 C118.440245,21.6700344 118.424923,21.6945492 118.418795,21.7068066 Z" id="Shape" fill="#1CA249"></path>
            <path d="M144.499489,21.6999953 C144.508682,21.6938666 144.533197,21.6877379 144.545455,21.6816092 C144.533197,21.6877379 144.508682,21.6938666 144.499489,21.6999953 Z" id="Shape" fill="#1CA249"></path>
            <path d="M240.315628,21.6756322 C240.327886,21.6786965 240.355465,21.6878896 240.367722,21.6940183 C240.355465,21.6878896 240.327886,21.6786965 240.315628,21.6756322 Z" id="Shape" fill="#1CA249"></path>
            <path d="M234.266599,21.9386207 C234.275792,21.9508781 234.291113,21.9753929 234.300306,21.9876503 C234.291113,21.9753929 234.275792,21.9508781 234.266599,21.9386207 Z" id="Shape" fill="#1CA249"></path>
            <path d="M283.299285,22.2344828 C283.305414,22.2498045 283.3238,22.2743193 283.329928,22.2865767 C283.3238,22.2743193 283.305414,22.2498045 283.299285,22.2344828 Z" id="Shape" fill="#1CA249"></path>
            <path d="M123.637385,22.8441379 C123.643514,22.8563953 123.652707,22.8809101 123.655771,22.8962319 C123.652707,22.8809101 123.643514,22.8563953 123.637385,22.8441379 Z" id="Shape" fill="#1CA249"></path>
            <path d="M186.162411,23.417931 C186.171604,23.4301884 186.186925,23.4577676 186.196118,23.470025 C186.186925,23.4577676 186.171604,23.4301884 186.162411,23.417931 Z" id="Shape" fill="#1CA249"></path>
            <path d="M200.564862,24.3264368 L200.62002,24.3540159 L200.672114,24.3815951 C200.644535,24.3693377 200.592441,24.3417585 200.564862,24.3264368 Z" id="Shape" fill="#1CA249"></path>
            <path d="M138.324821,24.6222989 C138.337079,24.6284276 138.364658,24.6437493 138.376915,24.649878 C138.364658,24.6437493 138.337079,24.6284276 138.324821,24.6222989 Z" id="Shape" fill="#1CA249"></path>
            <path d="M201.116445,24.6133333 C201.131767,24.6225264 201.162411,24.6378481 201.177732,24.6439768 C201.162411,24.6378481 201.131767,24.6225264 201.116445,24.6133333 Z" id="Shape" fill="#1CA249"></path>
            <path d="M211.550562,24.6527907 C211.562819,24.646662 211.590398,24.6344046 211.60572,24.6282759 C211.590398,24.6344046 211.562819,24.646662 211.550562,24.6527907 Z" id="Shape" fill="#1CA249"></path>
            <path d="M246.490296,24.6557792 C246.502554,24.6496505 246.527068,24.6373931 246.539326,24.6312644 C246.527068,24.6373931 246.502554,24.6496505 246.490296,24.6557792 Z" id="Shape" fill="#1CA249"></path>
            <path d="M104.313585,24.9301149 C104.328907,24.9362436 104.356486,24.9454367 104.368744,24.9515654 C104.356486,24.9454367 104.328907,24.9362436 104.313585,24.9301149 Z" id="Shape" fill="#1CA249"></path>
            <path d="M114.113381,24.9634436 C114.128703,24.9573149 114.153218,24.9481218 114.168539,24.9450575 C114.153218,24.9481218 114.128703,24.9573149 114.113381,24.9634436 Z" id="Shape" fill="#1CA249"></path>
            <path d="M160.090909,24.9510345 C160.106231,24.9571632 160.13381,24.9694206 160.149132,24.9724849 C160.13381,24.9694206 160.106231,24.9571632 160.090909,24.9510345 Z" id="Shape" fill="#1CA249"></path>
            <path d="M103.437181,1.65563218 C106.621042,0.0836781609 110.509704,0.116551724 113.81001,1.33287356 C113.822268,1.33885057 113.849847,1.3508046 113.862104,1.35678161 C114.266599,1.53011494 114.664964,1.72137931 115.054137,1.93057471 C115.066394,1.93655172 115.090909,1.95149425 115.103166,1.95747126 C117.438202,3.15885057 118.731359,5.76781609 118.608784,8.29609195 C116.852911,8.29310345 115.100102,8.29609195 113.347293,8.29310345 C113.194076,7.05885057 112.697651,5.70804598 111.42288,5.19402299 C109.670072,4.46781609 107.448417,4.34229885 105.799796,5.37931034 C104.834525,5.98 104.708887,7.15149425 104.834525,8.1645977 L104.834525,8.27517241 L104.920327,8.34689655 C105.288049,8.64574713 105.628192,8.9983908 106.066394,9.2045977 C109.158325,10.4956322 112.627171,10.6898851 115.663943,12.1154023 C115.6762,12.1213793 115.697651,12.1363218 115.709908,12.1422989 C117.373851,12.9193103 118.749745,14.3358621 119.215526,16.102069 C119.672114,17.9549425 119.491318,20.0170115 118.449438,21.6547126 C118.440245,21.6696552 118.424923,21.6935632 118.418795,21.7055172 C117.517875,23.2894253 115.890705,24.3563218 114.168539,24.9450575 C114.153218,24.948046 114.128703,24.9570115 114.113381,24.9629885 C110.990807,25.9790805 107.488253,25.9970115 104.368744,24.9510345 C104.356486,24.9450575 104.328907,24.936092 104.313585,24.9301149 C102.052094,24.1949425 100.026558,22.5691954 99.1807967,20.3547126 C98.7487232,19.3266667 98.6690501,18.205977 98.59857,17.1091954 C100.388151,17.1121839 102.180797,17.0912644 103.970378,17.1271264 C103.927477,18.4121839 104.463739,19.742069 105.563841,20.4951724 C107.184883,21.6068966 109.314607,21.7025287 111.208376,21.3528736 C112.357508,21.1197701 113.629213,20.5429885 114,19.3595402 C114.245148,18.7678161 114.039837,18.1402299 113.960163,17.5395402 L113.947906,17.443908 L113.871297,17.3811494 C113.292135,16.8581609 112.700715,16.3232184 111.946885,16.0572414 C109.495403,15.1128736 106.832482,14.837931 104.377937,13.8965517 C104.365679,13.8935632 104.3381,13.8816092 104.322778,13.8786207 C102.137896,13.1733333 100.011236,11.5804598 99.6067416,9.24942529 C98.8590398,6.24896552 100.516854,2.9616092 103.388151,1.67954023 C103.400409,1.67356322 103.424923,1.6616092 103.437181,1.65563218 Z" id="Shape" fill="#000000"></path>
            <path d="M200.895812,1.65862069 C204.294178,0.0717241379 208.483146,0.011954023 211.875383,1.64666667 C211.88764,1.65264368 211.91522,1.6645977 211.927477,1.67057471 C213.772217,2.51931034 215.295199,4.0016092 216.162411,5.80367816 C216.168539,5.81563218 216.183861,5.84252874 216.18999,5.85448276 C216.750766,6.89149425 216.995914,8.04505747 217.188968,9.18965517 C215.417773,9.19264368 213.646578,9.18965517 211.878447,9.18965517 C211.709908,8.6816092 211.538304,8.17655172 211.378958,7.66850575 L211.357508,7.59678161 L211.308478,7.54 C210.177732,5.94114943 208.25332,4.88321839 206.240041,4.9937931 C204.232891,4.98482759 202.283963,6.02781609 201.242084,7.70137931 C199.81716,9.97563218 199.617978,12.7908046 200.028601,15.3698851 C200.423902,17.7367816 201.879469,20.1724138 204.364658,20.8806897 C206.895812,21.7742529 210.058223,20.8717241 211.283963,18.4301149 C211.293156,18.4151724 211.308478,18.3822989 211.317671,18.3643678 C211.688458,17.5634483 211.860061,16.6937931 212.071502,15.842069 C213.836568,15.836092 215.604699,15.8390805 217.372829,15.842069 C217.219612,17.3243678 216.882533,18.8066667 216.177732,20.1395402 C216.171604,20.1514943 216.159346,20.1754023 216.153218,20.1873563 C215.215526,22.1149425 213.588355,23.7287356 211.60572,24.6282759 C211.590398,24.6342529 211.562819,24.6462069 211.550562,24.6521839 C208.3238,26.1255172 204.410623,26.0567816 201.177732,24.6432184 C201.162411,24.6372414 201.131767,24.6222989 201.116445,24.6133333 L200.672114,24.3802299 L200.62002,24.3533333 L200.564862,24.3264368 C198.579162,23.4089655 196.970378,21.7712644 195.983657,19.8645977 C195.974464,19.8406897 195.949949,19.7958621 195.937692,19.7749425 L195.701736,19.3206897 C195.695608,19.3057471 195.68335,19.2818391 195.677222,19.2698851 C193.682329,15.074023 193.875383,9.85310345 196.271706,5.84850575 C196.280899,5.83655172 196.296221,5.80965517 196.305414,5.79770115 C197.350358,4.02252874 198.953013,2.57011494 200.846782,1.68252874 C200.85904,1.67655172 200.883555,1.6645977 200.895812,1.65862069 Z" id="Shape" fill="#000000"></path>
            <path d="M294.946885,1.04597701 C296.601634,1.04298851 298.262513,1.04597701 299.920327,1.04597701 C299.926456,9.08804598 299.92952,17.1331034 299.920327,25.1781609 C298.336057,25.1781609 296.754852,25.1781609 295.176711,25.1781609 C295.167518,24.44 295.170582,23.7018391 295.185904,22.9666667 C292.51379,26.9443678 285.658836,26.2868966 283.329928,22.2852874 C283.3238,22.2733333 283.305414,22.2494253 283.299285,22.2344828 C281.295199,19.0696552 281.129724,14.8708046 282.704801,11.5057471 C282.71093,11.4937931 282.723187,11.4698851 282.729316,11.457931 L282.977528,10.9947126 C282.986721,10.9767816 283.008172,10.937931 283.020429,10.92 C284.727273,7.55793103 289.406537,6.20413793 292.777324,7.92551724 C292.789581,7.93149425 292.814096,7.94643678 292.826353,7.95241379 C293.711951,8.34091954 294.355465,9.05816092 294.971399,9.76643678 C294.910112,6.8616092 294.956078,3.9537931 294.946885,1.04597701 Z M289.611849,11.0544828 C287.984678,11.4937931 287.074566,13.0896552 286.804903,14.6167816 C286.46476,16.6370115 286.602656,18.9351724 287.97855,20.5878161 C289.234934,22.1866667 291.885598,22.3898851 293.436159,21.0928736 C294.668029,20.008046 295.002043,18.3016092 295.090909,16.7595402 C295.121553,15.1308046 294.885598,13.3645977 293.791624,12.0645977 C292.786517,10.908046 291.04903,10.671954 289.611849,11.0544828 Z" id="Shape" fill="#000000"></path>
            <path d="M175.510725,1.04597701 C177.171604,1.04298851 178.829418,1.04597701 180.490296,1.04597701 C180.493361,5.31655172 180.481103,9.58413793 180.496425,13.8547126 C182.534219,11.8075862 184.565884,9.75149425 186.588355,7.68643678 C188.574055,7.70735632 190.562819,7.68344828 192.548519,7.70436782 C190.296221,9.8262069 188.013279,11.9241379 185.840654,14.1236782 C186.193054,14.7632184 186.643514,15.345977 187.035751,15.9616092 C187.044944,15.9765517 187.06333,16.0004598 187.072523,16.0154023 C189.131767,19.0457471 191.233912,22.0491954 193.256384,25.1064368 C191.258427,25.2618391 189.254341,25.1393103 187.256384,25.1811494 C186.891726,24.6163218 186.54239,24.0425287 186.196118,23.4687356 C186.186925,23.4567816 186.171604,23.4298851 186.162411,23.417931 C185.028601,21.6577011 183.897855,19.8914943 182.825332,18.0954023 C182.816139,18.0804598 182.797753,18.0535632 182.78856,18.0386207 C182.684372,17.8832184 182.469867,17.5783908 182.365679,17.4229885 C181.740552,18.0057471 181.109295,18.5825287 180.487232,19.1622989 C180.493361,21.1675862 180.490296,23.1728736 180.487232,25.1781609 C178.829418,25.1781609 177.168539,25.1781609 175.510725,25.1781609 C175.510725,17.1331034 175.507661,9.09103448 175.510725,1.04597701 Z" id="Shape" fill="#000000"></path>
            <path d="M123.340143,2.46850575 C124.997957,2.46252874 126.658836,2.46551724 128.319714,2.46551724 C128.322778,4.20781609 128.31665,5.95011494 128.322778,7.69241379 C129.52094,7.6954023 130.719101,7.6954023 131.917263,7.6954023 C131.923391,8.76827586 131.923391,9.83816092 131.917263,10.908046 C130.719101,10.908046 129.52094,10.908046 128.322778,10.908046 C128.319714,13.6425287 128.319714,16.3770115 128.319714,19.1114943 C128.365679,19.7898851 128.279877,20.5848276 128.785495,21.1257471 C129.707865,21.7324138 130.88764,21.4783908 131.920327,21.3737931 C131.920327,22.6498851 131.926456,23.925977 131.911134,25.202069 C129.949949,25.3455172 127.91522,25.5218391 126,24.9809195 C124.933606,24.7 123.986721,23.9409195 123.655771,22.8949425 C123.652707,22.88 123.643514,22.856092 123.637385,22.8441379 C123.355465,22.0342529 123.334014,21.1675862 123.334014,20.3218391 C123.343207,17.183908 123.340143,14.0489655 123.337079,10.9110345 C122.368744,10.908046 121.400409,10.908046 120.432074,10.908046 C120.42288,9.8291954 120.416752,8.75333333 120.45046,7.67448276 C121.412666,7.6983908 122.374872,7.70137931 123.337079,7.69241379 C123.343207,5.95011494 123.337079,4.20781609 123.340143,2.46850575 Z" id="Shape" fill="#000000"></path>
            <path d="M135.018386,11.1829885 C137.307457,7.26505747 142.832482,6.31471264 146.883555,7.91954023 C146.898876,7.92551724 146.92952,7.93747126 146.941777,7.94344828 C149.313585,8.83103448 151.118488,10.9229885 151.768131,13.2988506 C152.374872,15.5342529 152.371808,17.9698851 151.541369,20.1485057 C151.53524,20.1634483 151.526047,20.1873563 151.519918,20.1993103 C150.643514,22.7216092 148.348315,24.6790805 145.703779,25.2917241 C143.286006,25.8565517 140.623085,25.745977 138.376915,24.6491954 C138.364658,24.6432184 138.337079,24.6282759 138.324821,24.6222989 C136.758938,23.8811494 135.459653,22.6110345 134.702758,21.083908 C134.693565,21.071954 134.681307,21.0450575 134.675179,21.0331034 C133.213483,17.9908046 133.262513,14.1655172 134.987743,11.2337931 C134.996936,11.2218391 135.012257,11.197931 135.018386,11.1829885 Z M139.777324,12.2827586 C138.735444,13.6305747 138.59142,15.4027586 138.658836,17.0314943 C138.717058,18.5377011 139.161389,20.1754023 140.417773,21.1556322 C141.548519,22.0491954 143.154239,22.094023 144.499489,21.6995402 C144.508682,21.6935632 144.533197,21.6875862 144.545455,21.6816092 L145.075587,21.4245977 C145.08478,21.4186207 145.106231,21.4036782 145.115424,21.3977011 C145.74668,20.9404598 146.279877,20.3427586 146.601634,19.6404598 C146.616956,19.6045977 146.650664,19.5358621 146.66905,19.5 C147.432074,17.3841379 147.456588,14.9156322 146.442288,12.8714943 C145.27477,10.4687356 141.386108,10.1848276 139.777324,12.2827586 Z" id="Shape" fill="#000000"></path>
            <path d="M156.162411,11.1710345 C157.550562,8.67862069 160.449438,7.29195402 163.290092,7.20229885 C166.360572,7.04988506 169.924413,8.08988506 171.432074,10.92 C171.441267,10.937931 171.459653,10.9737931 171.468846,10.9917241 L171.723187,11.4758621 C171.726251,11.4878161 171.735444,11.5087356 171.741573,11.5177011 C172.093973,12.2648276 172.231869,13.0806897 172.342186,13.8905747 C170.724208,13.9055172 169.103166,13.8875862 167.485189,13.9055172 C167.258427,12.5218391 166.311542,11.3891954 164.972421,10.8901149 C164.347293,10.5135632 163.538304,10.5314943 162.907048,10.8691954 C162.75383,10.9409195 162.453524,11.0783908 162.303371,11.1501149 C162.28192,11.1590805 162.242084,11.18 162.223698,11.191954 C160.336057,12.208046 159.717058,14.4703448 159.717058,16.4367816 C159.713994,18.2687356 160.195097,20.3905747 161.883555,21.4455172 C163.682329,22.5243678 166.225741,21.7921839 167.184883,19.9691954 L167.230848,19.9124138 L167.24617,19.8406897 C167.362615,19.3505747 167.494382,18.8664368 167.629213,18.3822989 C169.225741,18.3793103 170.825332,18.3703448 172.424923,18.3882759 C172.146067,20.6954023 171.003064,23.0174713 168.934627,24.2756322 C166.348315,25.8505747 162.968335,26.017931 160.149132,24.971954 C160.13381,24.9689655 160.106231,24.9570115 160.090909,24.9510345 C157.302349,23.9678161 155.347293,21.3588506 154.88764,18.5466667 C154.578141,16.5025287 154.706844,14.3567816 155.515832,12.4321839 C155.521961,12.4172414 155.534219,12.3903448 155.540347,12.3754023 C155.711951,11.9809195 155.911134,11.5954023 156.131767,11.2218391 C156.137896,11.2098851 156.153218,11.1829885 156.162411,11.1710345 Z" id="Shape" fill="#000000"></path>
            <path d="M225.251277,10.7257471 C226.406537,8.29310345 229.317671,6.74206897 232.038815,7.31287356 C232.054137,8.83402299 232.044944,10.3521839 232.048008,11.8733333 C230.757916,11.6790805 229.412666,11.6222989 228.168539,12.0556322 C228.150153,12.0645977 228.113381,12.0795402 228.091931,12.0885057 C227.169561,12.5068966 226.458631,13.2689655 225.998979,14.1416092 C225.989785,14.1595402 225.974464,14.1954023 225.965271,14.2133333 C225.278856,15.871954 225.481103,17.674023 225.462717,19.4163218 C225.456588,21.3349425 225.465781,23.2565517 225.456588,25.1781609 C223.79571,25.1781609 222.137896,25.1811494 220.480082,25.1781609 C220.477017,19.3505747 220.477017,13.5229885 220.480082,7.6954023 C222.061287,7.6954023 223.645557,7.6954023 225.226762,7.6954023 C225.220633,8.70551724 225.235955,9.71563218 225.251277,10.7257471 Z" id="Shape" fill="#000000"></path>
            <path d="M238.0143,7.91356322 C242.065373,6.31471264 247.565884,7.27402299 249.867211,11.174023 C249.87334,11.185977 249.888662,11.2128736 249.897855,11.2248276 C250.11236,11.5954023 250.308478,11.9809195 250.483146,12.3754023 C250.489275,12.3873563 250.498468,12.4142529 250.504597,12.4262069 C251.567926,15.1726437 251.534219,18.3942529 250.201226,21.048046 C250.192033,21.06 250.179775,21.0868966 250.173647,21.1018391 C249.416752,22.6289655 248.105209,23.8931034 246.539326,24.6312644 C246.527068,24.6372414 246.502554,24.6491954 246.490296,24.6551724 C242.482125,26.52 236.85904,25.7878161 234.300306,21.9864368 C234.291113,21.9744828 234.275792,21.9505747 234.266599,21.9386207 C233.88049,21.4006897 233.574055,20.811954 233.356486,20.1933333 C233.353422,20.1783908 233.344229,20.1544828 233.3381,20.1425287 C232.553626,18.0117241 232.538304,15.6418391 233.080695,13.4572414 C233.708887,11.0156322 235.51379,8.83402299 237.956078,7.93747126 C237.971399,7.93149425 238.002043,7.91954023 238.0143,7.91356322 Z M238.541369,12.6622989 C238.53524,12.6712644 238.522983,12.6862069 238.519918,12.6951724 C237.465781,14.7811494 237.444331,17.3243678 238.219612,19.4970115 C238.234934,19.5328736 238.268641,19.6016092 238.287028,19.6344828 C238.602656,20.3427586 239.132789,20.9434483 239.770174,21.4006897 C239.779367,21.4066667 239.797753,21.4156322 239.806946,21.4216092 L240.315628,21.6756322 C240.327886,21.6786207 240.355465,21.6875862 240.367722,21.6935632 C241.847804,22.1508046 243.677222,22.0133333 244.79571,20.8627586 C245.969356,19.7062069 246.229826,17.9878161 246.272727,16.4308046 C246.245148,15.0082759 246.033708,13.4901149 245.138917,12.3216092 C243.585291,10.2535632 239.85904,10.4298851 238.541369,12.6622989 Z" id="Shape" fill="#000000"></path>
            <path d="M252.677222,7.69241379 C254.430031,7.6983908 256.18284,7.68942529 257.938713,7.70137931 C259.041879,11.6133333 260.102145,15.5342529 261.21144,19.4462069 C262.201226,15.5312644 263.172625,11.6103448 264.168539,7.6954023 C265.780388,7.6954023 267.395301,7.6983908 269.010215,7.69241379 C270.006129,11.5296552 270.995914,15.3698851 271.991828,19.2071264 C272.191011,18.7468966 272.381001,18.2806897 272.506639,17.7965517 C273.413687,14.4285057 274.388151,11.0783908 275.292135,7.71034483 C277.008172,7.68045977 278.724208,7.70137931 280.443309,7.6954023 C278.564862,13.5229885 276.680286,19.3505747 274.792646,25.1751724 C273.098059,25.1841379 271.400409,25.1751724 269.708887,25.1811494 C268.636364,21.2751724 267.576098,17.3662069 266.515832,13.4542529 C265.522983,17.3662069 264.493361,21.2662069 263.47906,25.1691954 C261.772217,25.1871264 260.068437,25.1721839 258.364658,25.1811494 C256.452503,19.3565517 254.552605,13.5289655 252.677222,7.69241379 Z" id="Shape" fill="#000000"></path>
        </g>
    </g>
</svg>