<?xml version="1.0" encoding="UTF-8"?>
<svg width="507px" height="539px" viewBox="0 0 507 539" version="1.1" xmlns="http://www.w3.org/2000/svg" xmlns:xlink="http://www.w3.org/1999/xlink">
    <!-- Generator: Sketch 51.1 (57501) - http://www.bohemiancoding.com/sketch -->
    <title>Group</title>
    <desc>Created with Sketch.</desc>
    <defs></defs>
    <g id="Page-1" stroke="none" stroke-width="1" fill="none" fill-rule="evenodd">
        <g id="Group" fill-rule="nonzero">
            <path d="M340.25,124 L340.25,118.72 C339.64949,53.0025851 286.205159,0.044383388 220.485,0.044383388 C154.764841,0.044383388 101.32051,53.0025851 100.72,118.72 L100.72,124 C101.32051,189.717415 154.764841,242.675617 220.485,242.675617 C286.205159,242.675617 339.64949,189.717415 340.25,124 Z M303.4,124 C302.900996,169.4375 265.92524,206.00941 220.485,206.00941 C175.04476,206.00941 138.069004,169.4375 137.57,124 L137.57,118.72 C138.069004,73.2825003 175.04476,36.7105905 220.485,36.7105905 C265.92524,36.7105905 302.900996,73.2825003 303.4,118.72 L303.4,124 Z" id="Shape" fill="#000000"></path>
            <path d="M377.1,280.65 C305.855267,280.65 248.1,338.405267 248.1,409.65 C248.1,480.894733 305.855267,538.65 377.1,538.65 C448.344733,538.65 506.1,480.894733 506.1,409.65 C506.1,338.405267 448.344733,280.65 377.1,280.65 Z M377.1,501.75 C339.835983,501.75 306.24141,479.302164 291.982022,444.874315 C277.722635,410.446465 285.60672,370.818925 311.957789,344.470717 C338.308857,318.122508 377.937253,310.242725 412.363554,324.505849 C446.789855,338.768974 469.234045,372.365984 469.23,409.63 C469.23,434.063476 459.523155,457.496074 442.245141,474.772212 C424.967127,492.048351 401.533476,501.752652 377.1,501.75 Z" id="Shape" fill="#FFFFFF"></path>
            <path d="M201.45,501.75 L36.85,501.75 L36.85,446.48 C36.85,375.235267 94.6052673,317.48 165.85,317.48 L201.47,317.48 L201.47,280.65 L165.83,280.65 C121.848336,280.647348 79.6672859,298.117821 48.5675532,329.217553 C17.4678206,360.317286 -0.00265245386,402.498336 0,446.48 L0,520.18 C-7.20169926e-07,525.067021 1.94204493,529.753736 5.39862814,533.208444 C8.85521136,536.663151 13.5429799,538.602653 18.43,538.6 L201.43,538.6 L201.45,501.75 Z" id="Shape" fill="#000000"></path>
            <polygon id="Shape" fill="#FFFFFF" points="310.49 413.77 324.06 396.34 360.31 426.24 419.88 360.91 436.38 375.7 362.62 457.17"></polygon>
        </g>
    </g>
</svg>