<svg xmlns="http://www.w3.org/2000/svg" viewBox="0 0 52.63 52.63"><defs><style>.cls-1{fill:#1f5d7f;}</style></defs><title>Asset 12</title><g id="Layer_2" data-name="Layer 2"><g id="ARTE"><path class="cls-1" d="M49.12,41.23a3.46,3.46,0,0,0-1.75.48v-4a.87.87,0,0,0-.88-.88H40.75a3.46,3.46,0,0,0,.48-1.75,3.51,3.51,0,1,0-7,0,3.46,3.46,0,0,0,.48,1.75H29a.87.87,0,0,0-.88.88v4a3.46,3.46,0,0,0-1.75-.48,3.51,3.51,0,0,0,0,7,3.46,3.46,0,0,0,1.75-.48v4a.87.87,0,0,0,.88.87H46.49a.87.87,0,0,0,.88-.87v-4a3.46,3.46,0,0,0,1.75.48,3.51,3.51,0,1,0,0-7Zm0,5.26a1.72,1.72,0,0,1-1.29-.59.92.92,0,0,0-.66-.29h-.68a.89.89,0,0,0-.88.88v4.39H29.82V46.49a.88.88,0,0,0-.87-.88h-.68a.92.92,0,0,0-.66.29,1.72,1.72,0,0,1-1.29.59,1.76,1.76,0,1,1,0-3.51,1.72,1.72,0,0,1,1.29.59.92.92,0,0,0,.66.29H29a.87.87,0,0,0,.87-.88V38.6H36a.88.88,0,0,0,.88-.88V37a.84.84,0,0,0-.29-.65,1.75,1.75,0,1,1,2.34,0,.84.84,0,0,0-.29.65v.68a.88.88,0,0,0,.87.88h6.14V43a.88.88,0,0,0,.88.88h.68a.92.92,0,0,0,.66-.29A1.72,1.72,0,0,1,49.12,43a1.76,1.76,0,1,1,0,3.51Z"/><path class="cls-1" d="M51.76,0H.88A.87.87,0,0,0,0,.88V28.07A.87.87,0,0,0,.88,29H17.54a.87.87,0,0,0,.88-.88V22.81a.87.87,0,0,0-.88-.88h-.68a.89.89,0,0,0-.65.29,1.73,1.73,0,0,1-1.3.59,1.76,1.76,0,0,1,0-3.51,1.73,1.73,0,0,1,1.3.59.89.89,0,0,0,.65.29h.68a.88.88,0,0,0,.88-.88V14.91h6.14a.87.87,0,0,0,.88-.88v-.68a.89.89,0,0,0-.29-.65,1.73,1.73,0,0,1-.59-1.3,1.76,1.76,0,0,1,3.51,0,1.73,1.73,0,0,1-.59,1.3.89.89,0,0,0-.29.65V14a.88.88,0,0,0,.88.88h6.14V19.3a.88.88,0,0,0,.88.88h.68a.88.88,0,0,0,.65-.29,1.73,1.73,0,0,1,1.3-.59,1.76,1.76,0,0,1,0,3.51,1.73,1.73,0,0,1-1.3-.59.88.88,0,0,0-.65-.29h-.68a.87.87,0,0,0-.88.88v5.26a.87.87,0,0,0,.88.88H51.76a.87.87,0,0,0,.87-.88V.88A.87.87,0,0,0,51.76,0Zm-.88,27.19H36V24.08A3.51,3.51,0,1,0,36,18V14a.87.87,0,0,0-.87-.87H29.35a3.51,3.51,0,1,0-6.06,0H17.54a.87.87,0,0,0-.87.87v4a3.51,3.51,0,1,0,0,6.06v3.11H1.75V1.75H50.88Z"/><path class="cls-1" d="M24.56,29h1.76V20.54l2,2,1.24-1.24L26.06,17.8a.88.88,0,0,0-1.24,0l-3.51,3.51,1.24,1.24,2-2Z"/><rect class="cls-1" x="24.56" y="30.7" width="1.75" height="1.75"/><rect class="cls-1" x="24.56" y="34.21" width="1.75" height="1.75"/><rect class="cls-1" x="24.56" y="37.72" width="1.75" height="1.75"/><rect class="cls-1" x="5.26" y="30.7" width="1.75" height="1.75"/><rect class="cls-1" x="5.26" y="34.21" width="1.75" height="1.75"/><rect class="cls-1" x="5.26" y="37.72" width="1.75" height="1.75"/><rect class="cls-1" x="5.26" y="41.23" width="1.75" height="1.75"/><rect class="cls-1" x="5.26" y="44.74" width="1.75" height="1.75"/><rect class="cls-1" x="8.77" y="44.74" width="1.75" height="1.75"/><rect class="cls-1" x="12.28" y="44.74" width="1.75" height="1.75"/><rect class="cls-1" x="15.79" y="44.74" width="1.75" height="1.75"/><rect class="cls-1" x="19.3" y="44.74" width="1.75" height="1.75"/></g></g></svg>