<svg xmlns="http://www.w3.org/2000/svg" viewBox="0 0 52.97 52.97"><defs><style>.cls-1{fill:#46cdd6;}</style></defs><title>Asset 13</title><g id="Layer_2" data-name="Layer 2"><g id="ARTE"><polygon class="cls-1" points="0 52.97 0 0 9.17 0 9.17 2.43 2.43 2.43 2.43 50.53 50.53 50.53 50.53 2.43 26.95 2.43 26.95 0 52.97 0 52.97 52.97 0 52.97"/><rect class="cls-1" x="13.48" width="2.43" height="2.43"/><rect class="cls-1" x="20.21" width="2.43" height="2.43"/><polygon class="cls-1" points="7.92 28.17 15.19 20.9 16.91 22.62 12.57 26.95 42.11 26.95 42.11 18.53 44.54 18.53 44.54 29.38 12.57 29.38 16.91 33.71 15.19 35.43 7.92 28.17"/><rect class="cls-1" x="42.11" y="11.79" width="2.43" height="2.43"/></g></g></svg>