<svg xmlns="http://www.w3.org/2000/svg" viewBox="0 0 53 53"><defs><style>.cls-1{fill:#3393a9;stroke:#3393a9;stroke-miterlimit:10;stroke-width:0.5px;}</style></defs><title>Asset 14</title><g id="Layer_2" data-name="Layer 2"><g id="ARTE"><path class="cls-1" d="M26.5.25a.88.88,0,0,0-.88.88V12.76a.88.88,0,0,0,1.76,0V2A24.52,24.52,0,1,1,9.15,9.21.88.88,0,1,0,7.91,8,26.25,26.25,0,1,0,26.5.25Z"/><path class="cls-1" d="M25.24,29.59a3.12,3.12,0,0,0,2.27,1.28h.25a3.11,3.11,0,0,0,1.83-5.63L18.26,17A.87.87,0,0,0,17,18.26Zm3.32-2.94a1.38,1.38,0,0,1,.17,2.08,1.41,1.41,0,0,1-1.08.39,1.37,1.37,0,0,1-1-.56l-5-6.91Z"/></g></g></svg>