<svg xmlns="http://www.w3.org/2000/svg" xmlns:xlink="http://www.w3.org/1999/xlink" viewBox="0 0 50.29 38.33"><defs><style>.cls-1{fill:url(#linear-gradient);}</style><linearGradient id="linear-gradient" x1="-689.84" y1="-430.82" x2="-169.84" y2="-118.82" gradientUnits="userSpaceOnUse"><stop offset="0" stop-color="#3dcbd5"/><stop offset="0.25" stop-color="#3dcbd5"/><stop offset="0.34" stop-color="#3bc4cf"/><stop offset="0.47" stop-color="#35b0c0"/><stop offset="0.63" stop-color="#2b8fa7"/><stop offset="0.8" stop-color="#1d6285"/><stop offset="0.83" stop-color="#1b5c80"/></linearGradient></defs><title>Asset 19</title><g id="Layer_2" data-name="Layer 2"><g id="ARTE"><path class="cls-1" d="M-250.67-200h-3.9v1.63h1.66l-5.08,7-4-3.18-4,4a2.44,2.44,0,0,0-2.42-2.14h-.22l3.26-5.71h-18.35l3.08,5.06-2.74,2.28h-16v1.63h16.6l4.79-4,5,1.44,1.72,2.15a1.28,1.28,0,0,1,.28,1,1.33,1.33,0,0,1-.52.89,1.34,1.34,0,0,1-1.74-.12l-1.65-1.65-4.65,3.72.48.6a9.17,9.17,0,0,1-2.68,5.71l0,0h-.33l-1.63-.82h-15.68v1.63h15.3l1.2.6a10.47,10.47,0,0,0-1.76,4.83l-3.33-3.32-12,12,1.15,1.16L-288-174.38l3.34,3.33a10.75,10.75,0,0,0,10.09,9.37h.44a10.52,10.52,0,0,0,7.34-3,10.51,10.51,0,0,0,3.26-7.64,10.52,10.52,0,0,0-2.72-7.07,2.34,2.34,0,0,0,.27-1.09,2.42,2.42,0,0,0-.64-1.63,2.38,2.38,0,0,0,.64-1.63,2.42,2.42,0,0,0-.64-1.63,2.4,2.4,0,0,0,.64-1.63,2.32,2.32,0,0,0-.25-1.05l4.39-4.38,4.17,3.34,6-8.25.39,1.57,1.58-.4Zm-17.77,9a.82.82,0,0,1,.82.82.82.82,0,0,1-.82.81h-.95a3,3,0,0,0-.61-1.42l-.16-.21Zm-3-1.63-.57-.71-6.37-1.83-1,.83-1.44-2.37h12.64l-2.33,4.08Zm.93,6.06a2.83,2.83,0,0,0,.92-1.17h1.18a.82.82,0,0,1,.82.82.82.82,0,0,1-.82.81h-3A2.79,2.79,0,0,0-270.54-186.6Zm-1.16,2.09h3.26a.82.82,0,0,1,.82.82.82.82,0,0,1-.82.81h-3.26a.81.81,0,0,1-.81-.81A.82.82,0,0,1-271.7-184.51Zm0,3.27h3.26a.82.82,0,0,1,.82.81.82.82,0,0,1-.82.82h-3.26a.82.82,0,0,1-.81-.82A.81.81,0,0,1-271.7-181.24Zm6.53,9a8.9,8.9,0,0,1-2.76,6.47,9,9,0,0,1-6.59,2.49,9.08,9.08,0,0,1-8.59-8.8,8.84,8.84,0,0,1,2.53-6.4,10.72,10.72,0,0,0,3.15-7.06l2.41-1.92.61.61.3.25a2.4,2.4,0,0,0,.6,1.31,2.42,2.42,0,0,0-.63,1.63,2.42,2.42,0,0,0,.63,1.63,2.42,2.42,0,0,0-.63,1.63,2.42,2.42,0,0,0,.63,1.63H-275v1.63h-.41a2.86,2.86,0,0,0-2.85,2.86,2.86,2.86,0,0,0,2.85,2.85h2.45a1.22,1.22,0,0,1,1.22,1.22,1.23,1.23,0,0,1-1.22,1.23h-2.45a1.23,1.23,0,0,1-1.22-1.23v-.4h-1.63v.4a2.86,2.86,0,0,0,2.85,2.86h.41v1.63h1.63v-1.63h.41a2.86,2.86,0,0,0,2.85-2.86,2.86,2.86,0,0,0-2.85-2.85h-2.45a1.22,1.22,0,0,1-1.22-1.22,1.23,1.23,0,0,1,1.22-1.23h2.45a1.23,1.23,0,0,1,1.22,1.23v.4h1.63v-.4a2.86,2.86,0,0,0-2.85-2.86h-.41v-1.45a2.42,2.42,0,0,0,1.63.64h3.26a2.61,2.61,0,0,0,1-.22A8.89,8.89,0,0,1-265.17-172.27Z" transform="translate(300 200)"/></g></g></svg>