<svg xmlns="http://www.w3.org/2000/svg" viewBox="0 0 64.83 52.67"><defs><style>.cls-1{fill:#1f5d7f;}</style></defs><title>Asset 15</title><g id="Layer_2" data-name="Layer 2"><g id="ARTE"><path class="cls-1" d="M-236.18-163.53H-253.4v-11.15a1,1,0,0,0-1-1h-26.33a1,1,0,0,0-1,1v7.09H-299a1,1,0,0,0-1,1v18.23a1,1,0,0,0,1,1h62.81a1,1,0,0,0,1-1v-14.18a1,1,0,0,0-1-1Zm-61.79-2h16.2v16.21H-298Zm18.23-8.1h24.31v24.31h-24.31Zm42.55,24.31H-253.4v-12.16h16.21Z" transform="translate(300 200)"/><path class="cls-1" d="M-271.44-188.58l-1.78,5.49a1,1,0,0,0,.37,1.13,1,1,0,0,0,1.19,0l4.67-3.39,4.67,3.39a1,1,0,0,0,.6.19,1,1,0,0,0,.59-.19,1,1,0,0,0,.37-1.13l-1.78-5.49,4.67-3.4a1,1,0,0,0,.36-1.13,1,1,0,0,0-1-.7h-5.77L-266-199.3a1,1,0,0,0-1-.7,1,1,0,0,0-1,.7l-1.78,5.49h-5.78a1,1,0,0,0-1,.7,1,1,0,0,0,.37,1.13Zm2.44-3.2a1,1,0,0,0,1-.71l1.05-3.22,1.05,3.22a1,1,0,0,0,1,.71h3.4l-2.75,2a1,1,0,0,0-.37,1.13l1.05,3.23-2.74-2a1,1,0,0,0-.6-.19,1,1,0,0,0-.59.19l-2.75,2,1.05-3.23a1,1,0,0,0-.36-1.13l-2.75-2Z" transform="translate(300 200)"/></g></g></svg>