<svg xmlns="http://www.w3.org/2000/svg" viewBox="0 0 48.49 48.5"><defs><style>.cls-1{fill:#46cdd6;}</style></defs><title>Asset 10</title><g id="Layer_2" data-name="Layer 2"><g id="ARTE"><path class="cls-1" d="M47.27,0H1.22A1.22,1.22,0,0,0,0,1.22V23.3a1.22,1.22,0,0,0,2.44,0V2.43H46.07V46.06h-21a1.22,1.22,0,1,0,0,2.44h22.2a1.22,1.22,0,0,0,1.22-1.22V1.22A1.21,1.21,0,0,0,47.27,0Z"/><path class="cls-1" d="M18.1,29.17H1.22A1.22,1.22,0,0,0,0,30.39V47.27a1.22,1.22,0,0,0,1.22,1.22H18.1a1.22,1.22,0,0,0,1.22-1.22V30.39A1.22,1.22,0,0,0,18.1,29.17ZM16.89,46.06H2.43V31.6H16.89Z"/><path class="cls-1" d="M35,25.54a1.22,1.22,0,0,0-1.22-1.22H25.88L39.63,10.58a1.22,1.22,0,0,0-1.72-1.72L24.17,22.61V14.69a1.22,1.22,0,0,0-2.44,0V25.54A1.21,1.21,0,0,0,23,26.76H33.8A1.22,1.22,0,0,0,35,25.54Z"/></g></g></svg>