<svg xmlns="http://www.w3.org/2000/svg" xmlns:xlink="http://www.w3.org/1999/xlink" viewBox="0 0 37.64 37.7"><defs><style>.cls-1{fill:url(#linear-gradient);}</style><linearGradient id="linear-gradient" x1="-305.15" y1="-175.53" x2="214.85" y2="136.47" gradientUnits="userSpaceOnUse"><stop offset="0" stop-color="#3dcbd5"/><stop offset="0.25" stop-color="#3dcbd5"/><stop offset="0.34" stop-color="#3bc4cf"/><stop offset="0.47" stop-color="#35b0c0"/><stop offset="0.63" stop-color="#2b8fa7"/><stop offset="0.8" stop-color="#1d6285"/><stop offset="0.83" stop-color="#1b5c80"/></linearGradient></defs><title>Asset 17</title><g id="Layer_2" data-name="Layer 2"><g id="ARTE"><path class="cls-1" d="M36.88,0a.76.76,0,0,0-.77.77V4.58l-5.76,3a4.37,4.37,0,1,0-5.91,6.3L22.53,18.2a4.09,4.09,0,0,0-1.05-.14,4.39,4.39,0,0,0-4.37,4.39,4.49,4.49,0,0,0,.13,1l-4.3,1.92a4.37,4.37,0,1,0-6.15,6L4.54,36.17H.77a.77.77,0,1,0,0,1.53h34a2.88,2.88,0,0,0,2.88-2.88V.77A.76.76,0,0,0,36.88,0ZM24.06,10.26a2.82,2.82,0,0,1,5.33-1.32V9l0,0a2.89,2.89,0,0,1,.32,1.28,2.84,2.84,0,1,1-5.67,0ZM21.49,19.6a2.84,2.84,0,1,1-2.84,2.85A2.84,2.84,0,0,1,21.49,19.6Zm-15,8.26a2.87,2.87,0,1,1,1.63,2.56h0A2.85,2.85,0,0,1,6.49,27.86Zm29.62,7a1.36,1.36,0,0,1-1.35,1.35H6.25l1.93-4.09a4.3,4.3,0,0,0,1.14.16,4.38,4.38,0,0,0,4.37-4.38,4.08,4.08,0,0,0-.13-1.05l4.31-1.91a4.37,4.37,0,0,0,8-2.45,4.41,4.41,0,0,0-1.92-3.63l1.91-4.31a4.35,4.35,0,0,0,5.41-4.25A4.33,4.33,0,0,0,31.06,9l5.05-2.63Z"/></g></g></svg>