<svg xmlns="http://www.w3.org/2000/svg" xmlns:xlink="http://www.w3.org/1999/xlink" viewBox="0 0 45.89 45.9"><defs><style>.cls-1{fill:url(#linear-gradient);}.cls-2{fill:url(#linear-gradient-2);}.cls-3{fill:url(#linear-gradient-3);}.cls-4{fill:url(#linear-gradient-4);}.cls-5{fill:url(#linear-gradient-5);}</style><linearGradient id="linear-gradient" x1="-91.77" y1="-47.18" x2="428.23" y2="264.82" gradientUnits="userSpaceOnUse"><stop offset="0" stop-color="#3dcbd5"/><stop offset="0.25" stop-color="#3dcbd5"/><stop offset="0.34" stop-color="#3bc4cf"/><stop offset="0.47" stop-color="#35b0c0"/><stop offset="0.63" stop-color="#2b8fa7"/><stop offset="0.8" stop-color="#1d6285"/><stop offset="0.83" stop-color="#1b5c80"/></linearGradient><linearGradient id="linear-gradient-2" x1="-86.32" y1="-56.27" x2="433.68" y2="255.73" xlink:href="#linear-gradient"/><linearGradient id="linear-gradient-3" x1="-84.09" y1="-59.98" x2="435.91" y2="252.02" xlink:href="#linear-gradient"/><linearGradient id="linear-gradient-4" x1="-91.77" y1="-47.18" x2="428.23" y2="264.82" xlink:href="#linear-gradient"/><linearGradient id="linear-gradient-5" x1="-91.46" y1="-47.71" x2="428.54" y2="264.29" xlink:href="#linear-gradient"/></defs><title>Asset 18</title><g id="Layer_2" data-name="Layer 2"><g id="ARTE"><path class="cls-1" d="M9.7,9.71a14.13,14.13,0,1,0,20,0A14,14,0,0,0,9.7,9.71Zm19,19A12.69,12.69,0,0,1,7,19.7a12.69,12.69,0,0,1,21.65-9A12.7,12.7,0,0,1,28.66,28.67Z"/><path class="cls-2" d="M35.2,13.23a.72.72,0,0,0-1-.39.73.73,0,0,0-.39.95A15.28,15.28,0,0,1,35,19.7a.73.73,0,1,0,1.45,0A16.57,16.57,0,0,0,35.2,13.23Z"/><path class="cls-3" d="M19.69,4.36A15.22,15.22,0,0,1,30.54,8.85a15,15,0,0,1,1.68,2,.71.71,0,0,0,.59.3A.72.72,0,0,0,33.4,10a16.42,16.42,0,0,0-1.83-2.17A16.69,16.69,0,0,0,19.69,2.9a.73.73,0,0,0,0,1.46Z"/><path class="cls-4" d="M40.2,35.89a.74.74,0,0,0-1,0L38,37l-3.91-3.91a19.68,19.68,0,1,0-1,1L37,38.05l-1.13,1.13a.74.74,0,0,0,0,1l5.48,5.47a.71.71,0,0,0,1,0l3.28-3.28a.72.72,0,0,0,0-1Zm-7.6-3.28A18.25,18.25,0,0,1,6.79,6.8,18.25,18.25,0,0,1,32.6,32.61Zm9.27,11.53-4.45-4.45,1.13-1.13h0l1.13-1.13,4.45,4.45Z"/><path class="cls-5" d="M28.12,11.62H24.63a.72.72,0,0,0-.72.72V23.62h-2V15.83a.73.73,0,0,0-.73-.73H17.66a.73.73,0,0,0-.72.73v7.79h-2v-9a.73.73,0,0,0-.72-.73H10.69a.73.73,0,0,0-.72.73v9H9.14a.73.73,0,0,0,0,1.46H29.67a.73.73,0,1,0,0-1.46h-.82V12.34A.73.73,0,0,0,28.12,11.62Zm-14.67,12h-2V15.39h2Zm7,0h-2V16.56h2Zm7,0h-2V13.07h2Z"/></g></g></svg>