<svg xmlns="http://www.w3.org/2000/svg" xmlns:xlink="http://www.w3.org/1999/xlink" viewBox="0 0 39.12 32.6"><defs><style>.cls-1{fill:url(#linear-gradient);}</style><linearGradient id="linear-gradient" x1="-306.3" y1="-199.21" x2="213.7" y2="112.79" gradientUnits="userSpaceOnUse"><stop offset="0" stop-color="#3dcbd5"/><stop offset="0.25" stop-color="#3dcbd5"/><stop offset="0.34" stop-color="#3bc4cf"/><stop offset="0.47" stop-color="#35b0c0"/><stop offset="0.63" stop-color="#2b8fa7"/><stop offset="0.8" stop-color="#1d6285"/><stop offset="0.83" stop-color="#1b5c80"/></linearGradient></defs><title>Asset 16</title><g id="Layer_2" data-name="Layer 2"><g id="ARTE"><path class="cls-1" d="M-299.19-177.18h2.47a4.28,4.28,0,0,0-.08.81,3.93,3.93,0,0,0,.37,1.68,5.7,5.7,0,0,0-1.94,4.28v2.19a.82.82,0,0,0,.81.82h9.78a.82.82,0,0,0,.82-.82v-2.19a5.72,5.72,0,0,0-2-4.35,4.1,4.1,0,0,0,.33-1.61,4.28,4.28,0,0,0-.08-.81h4.24a3.59,3.59,0,0,0-.08.81,4.08,4.08,0,0,0,.36,1.68,5.7,5.7,0,0,0-1.94,4.28v2.19a.82.82,0,0,0,.82.82h9.78a.82.82,0,0,0,.81-.82v-2.19a5.68,5.68,0,0,0-2-4.35,3.94,3.94,0,0,0,.34-1.61,3.59,3.59,0,0,0-.09-.81h4.24a4.28,4.28,0,0,0-.08.81,3.93,3.93,0,0,0,.37,1.68,5.7,5.7,0,0,0-1.94,4.28v2.19a.82.82,0,0,0,.81.82h9.78a.82.82,0,0,0,.82-.82v-2.19a5.72,5.72,0,0,0-2-4.35,4.1,4.1,0,0,0,.33-1.61,4.28,4.28,0,0,0-.08-.81h2.58a.82.82,0,0,0,.82-.82.82.82,0,0,0-.82-.81h-.81v-20.37a.82.82,0,0,0-.82-.82h-34.23a.82.82,0,0,0-.81.82v20.37h-.82a.81.81,0,0,0-.81.81A.82.82,0,0,0-299.19-177.18Zm10.6,6.77V-169h-8.15v-1.38a4.06,4.06,0,0,1,1.27-3,4.07,4.07,0,0,0,2.75,1.07,4.08,4.08,0,0,0,2.8-1.12A4,4,0,0,1-288.59-170.41Zm-6.58-6a2.45,2.45,0,0,1,2.45-2.44,2.44,2.44,0,0,1,2.44,2.44,2.45,2.45,0,0,1-2.44,2.45A2.45,2.45,0,0,1-295.17-176.37Zm18.8,6V-169h-8.15v-1.38a4.06,4.06,0,0,1,1.27-3,4.09,4.09,0,0,0,2.75,1.07,4.06,4.06,0,0,0,2.8-1.12A4,4,0,0,1-276.37-170.41Zm-6.57-6a2.44,2.44,0,0,1,2.44-2.44,2.45,2.45,0,0,1,2.45,2.44,2.45,2.45,0,0,1-2.45,2.45A2.45,2.45,0,0,1-282.94-176.37Zm18.8,6V-169h-8.15v-1.38a4.06,4.06,0,0,1,1.27-3,4.07,4.07,0,0,0,2.75,1.07,4.08,4.08,0,0,0,2.8-1.12A4,4,0,0,1-264.14-170.41Zm-6.58-6a2.45,2.45,0,0,1,2.45-2.44,2.44,2.44,0,0,1,2.44,2.44,2.45,2.45,0,0,1-2.44,2.45A2.45,2.45,0,0,1-270.72-176.37Zm-26-22h32.6v19.56H-265a4,4,0,0,0-3.25-1.63,4.07,4.07,0,0,0-3.26,1.63h-5.71a4.08,4.08,0,0,0-3.26-1.63,4.08,4.08,0,0,0-3.26,1.63h-5.71a4,4,0,0,0-3.25-1.63,4.07,4.07,0,0,0-3.26,1.63h-.76Z" transform="translate(300 200)"/></g></g></svg>