<svg xmlns="http://www.w3.org/2000/svg" viewBox="0 0 46.16 57.71"><defs><style>.cls-1{fill:#3393a9;}</style></defs><title>Asset 11</title><g id="Layer_2" data-name="Layer 2"><g id="ARTE"><path class="cls-1" d="M43.28,53.46V19.8L38.47,15V0H0V50H4.81v4.81H41.92l2.6,2.6a1,1,0,0,0,.68.29,1,1,0,0,0,.68-1.65ZM40,19.23H28.85V8.09ZM4.81,48.09H1.93V1.93H36.54V13.06L28.29,4.81H4.81Zm36.54,3.44-7.22-7.22a11.41,11.41,0,1,0-1.36,1.36L40,52.9H6.73V6.73h20.2V21.16H41.35Zm-15.91-5.1A9.45,9.45,0,1,1,34.89,37,9.46,9.46,0,0,1,25.44,46.43Z"/><path class="cls-1" d="M19.84,34.62h5.77a1,1,0,1,0,0-1.92H19.84a1,1,0,1,0,0,1.92Z"/><path class="cls-1" d="M31.38,38.47H19.84a1,1,0,1,0,0,1.93H31.38a1,1,0,0,0,0-1.93Z"/></g></g></svg>