<?xml version="1.0" encoding="utf-8"?>
<!DOCTYPE svg PUBLIC "-//W3C//DTD SVG 1.1//EN" "http://www.w3.org/Graphics/SVG/1.1/DTD/svg11.dtd">
<svg width="140px" version="1.1" id="Layer_1" xmlns="http://www.w3.org/2000/svg" xmlns:xlink="http://www.w3.org/1999/xlink" x="0px" y="0px"
	 viewBox="1194.4 -131.2 140 91.8" enable-background="new 1194.4 -131.2 140 91.8" xml:space="preserve">
<g>
	<g>
		<path fill="#FFFFFF" d="M1279.3-39.4h-29.6c-3.8,0-7-3.1-7-7V-76c0-3.8,3.1-7,7-7h29.6c3.8,0,7,3.1,7,7v29.6
			C1286.2-42.5,1283.1-39.4,1279.3-39.4z M1249.6-81c-2.7,0-5,2.2-5,5v29.6c0,2.8,2.2,5,5,5h29.6c2.8,0,5-2.2,5-5V-76
			c0-2.8-2.2-5-5-5H1249.6z"/>
		<path fill="#FFFFFF" d="M1266.7-64.1c1.1,0,1.6,0.8,1.2,1.8l-2.6,5.6c-0.5,1-1.2,1-1.7,0l-2.6-5.6c-0.5-1,0.1-1.8,1.2-1.8H1266.7z
			"/>
	</g>
	<g>
		<path fill="#FFFFFF" d="M1286.2-124.2v29.6c0,3.8-3.1,7-7,7h-29.6c-3.8,0-7-3.1-7-7v-29.6c0-3.8,3.1-7,7-7h29.6
			C1283.1-131.2,1286.2-128.1,1286.2-124.2z M1279.3-89.6c2.8,0,5-2.2,5-5v-29.6c0-2.8-2.2-5-5-5h-29.6c-2.7,0-5,2.2-5,5v29.6
			c0,2.7,2.2,5,5,5H1279.3z"/>
		<path fill="#FFFFFF" d="M1262.2-106.5c-1.1,0-1.6-0.8-1.2-1.8l2.6-5.6c0.5-1,1.2-1,1.7,0l2.6,5.6c0.5,1-0.1,1.8-1.2,1.8H1262.2z"
			/>
	</g>
	<path fill="#FFFFFF" d="M1231.1-83.6h-29.6c-3.8,0-7,3.1-7,7V-47c0,3.8,3.1,7,7,7h29.6c3.8,0,7-3.1,7-7v-29.6
		C1238-80.5,1234.9-83.6,1231.1-83.6z M1219.5-59.5c0,1.1-0.8,1.6-1.8,1.2l-5.6-2.6c-1-0.5-1-1.2,0-1.7l5.6-2.6
		c1-0.5,1.8,0.1,1.8,1.2V-59.5z"/>
	<path fill="#FFFFFF" d="M1327.5-83.6h-29.6c-3.8,0-7,3.1-7,7V-47c0,3.8,3.1,7,7,7h29.6c3.8,0,7-3.1,7-7v-29.6
		C1334.4-80.5,1331.3-83.6,1327.5-83.6z M1316.7-61l-5.6,2.6c-1,0.5-1.8-0.1-1.8-1.2v-4.6c0-1.1,0.8-1.6,1.8-1.2l5.6,2.6
		C1317.7-62.2,1317.7-61.4,1316.7-61z"/>
</g>
</svg>
