<?xml version="1.0" encoding="utf-8"?>
<!-- Generator: Adobe Illustrator 18.0.0, SVG Export Plug-In . SVG Version: 6.00 Build 0)  -->
<!DOCTYPE svg PUBLIC "-//W3C//DTD SVG 1.1//EN" "https://www.w3.org/Graphics/SVG/1.1/DTD/svg11.dtd">
<svg version="1.1" id="Layer_1" xmlns="https://www.w3.org/2000/svg" xmlns:xlink="https://www.w3.org/1999/xlink" x="0px" y="0px"
	 viewBox="0 0 54.1 72" enable-background="new 0 0 54.1 72" xml:space="preserve">
<path fill="#FA7F07" d="M46.2,47.7L27.1,72L7.9,47.7c-3.4-3.6-5.8-7.7-7-12.6c-1.2-4.8-1.2-9.6,0-14.4c1.2-4.8,3.6-9,7-12.6
	c2.6-2.7,5.6-4.7,9-6.1C20.2,0.7,23.6,0,27.1,0c3.4,0,6.8,0.7,10.2,2.1c3.4,1.4,6.3,3.4,9,6.1c3.4,3.6,5.8,7.8,7,12.6
	c1.2,4.8,1.2,9.6,0,14.4C51.9,40,49.6,44.2,46.2,47.7z M39.8,14.3c-3.5-3.5-7.8-5.3-12.8-5.3s-9.2,1.8-12.8,5.3s-5.3,7.8-5.3,12.7
	c0,5,1.8,9.2,5.3,12.7c3.5,3.5,7.8,5.2,12.8,5.2s9.2-1.7,12.8-5.2c3.5-3.5,5.3-7.7,5.3-12.7C45.1,22.1,43.4,17.9,39.8,14.3z
	 M33.5,33.4c-1.8,1.8-3.9,2.6-6.4,2.6c-2.5,0-4.6-0.9-6.4-2.6s-2.6-3.9-2.6-6.4c0-2.5,0.9-4.6,2.6-6.4s3.9-2.6,6.4-2.6
	c2.5,0,4.6,0.9,6.4,2.6s2.6,3.9,2.6,6.4C36.1,29.5,35.2,31.6,33.5,33.4z"/>
</svg>
