
<svg width="163px" height="43px" viewBox="0 0 163 43" version="1.1" xmlns="http://www.w3.org/2000/svg" xmlns:xlink="http://www.w3.org/1999/xlink">
    <g id="Page-1" stroke="none" stroke-width="1" fill="none" fill-rule="evenodd">
        <path d="M144.444124,28.5916433 C144.465121,28.590587 144.488131,28.5900935 144.513148,28.5900625 C144.551596,28.5893368 144.588523,28.5889254 144.62319,28.5889254 C144.649683,28.5889254 144.67402,28.5897766 144.695935,28.5917549 C145.061709,28.5978255 145.542397,28.6181336 145.782234,28.6181336 C146.025923,28.6181336 146.600651,28.5900609 146.970299,28.5900609 C147.09784,28.5900609 147.175378,28.6077246 147.175378,28.6670241 C147.175378,28.7439873 147.117462,28.7648053 147.019353,28.7648053 C146.922827,28.7648053 146.84434,28.7736371 146.726926,28.7928779 C146.464248,28.8417685 146.38671,29.0073655 146.367405,29.3464451 C146.346517,29.6571367 146.346517,29.9296622 146.346517,31.4052106 L146.346517,33.1144875 C146.346517,34.056025 146.346517,34.8240798 146.38671,35.2413844 C146.414877,35.5050779 146.483237,35.6779297 146.77598,35.7164113 C146.9127,35.7372292 147.126324,35.7552083 147.27317,35.7552083 C147.38014,35.7552083 147.429195,35.7845427 147.429195,35.8334332 C147.429195,35.9015646 147.350391,35.9312143 147.243421,35.9312143 C146.600651,35.9312143 145.987313,35.9015646 145.724635,35.9015646 C145.50025,35.9015646 144.88533,35.9312143 144.496377,35.9312143 C144.368519,35.9312143 144.302058,35.9015646 144.302058,35.8334332 C144.302058,35.7845427 144.340669,35.7552083 144.457766,35.7552083 C144.603347,35.7552083 144.720761,35.7372292 144.808109,35.7164113 C145.002744,35.6779297 145.06066,35.5123327 145.090409,35.2309754 C145.139464,34.8240798 145.139464,34.056025 145.139464,33.1144875 L145.139464,31.4052106 C145.139464,29.9296622 145.139464,29.6571367 145.119842,29.3464451 C145.100853,29.0161973 145.002744,28.8506003 144.78912,28.8029714 C144.717318,28.7835681 144.637761,28.7731351 144.558144,28.7682948 C144.453599,28.7754736 144.316801,28.79956 144.193727,28.8803762 C144.067768,28.9677484 143.920605,29.1333454 143.65761,29.7553594 C143.277518,30.6685088 143.014523,31.1908492 142.48885,32.3866176 C141.865385,33.8047591 141.406173,34.863003 141.192549,35.3484389 C140.938732,35.9124151 140.8805,36.0660261 140.744097,36.0660261 C140.617822,36.0660261 140.55864,35.9300788 140.374449,35.4742927 L137.917933,29.5405564 C137.693865,29.0078071 137.528979,28.899617 137.177054,28.803413 C137.031473,28.7652468 136.875449,28.7652468 136.798227,28.7652468 C136.710879,28.7652468 136.68113,28.7352817 136.68113,28.6762976 C136.68113,28.5977573 136.7881,28.5889254 136.933681,28.5889254 C137.451758,28.5889254 138.005598,28.6185752 138.347079,28.6185752 C138.590769,28.6185752 139.058526,28.5889254 139.545905,28.5889254 C139.663002,28.5889254 139.769973,28.6081662 139.769973,28.6762976 C139.769973,28.7444289 139.712057,28.7652468 139.622809,28.7652468 C139.467101,28.7652468 139.321521,28.7725016 139.243983,28.8314857 C139.17594,28.8803762 139.146191,28.9485076 139.146191,29.0358797 C139.146191,29.1617335 139.233539,29.4339435 139.370575,29.7834321 L141.045386,34.1924139 L141.085579,34.1924139 C141.504282,33.123761 142.77115,29.9979197 143.004079,29.3569803 C143.05345,29.2298648 143.092061,29.0831932 143.092061,28.9973981 C143.092061,28.9188578 143.05345,28.8406329 142.965469,28.8122449 C142.848371,28.7725016 142.702791,28.7652468 142.576515,28.7652468 C142.48885,28.7652468 142.410047,28.7545225 142.410047,28.6863911 C142.410047,28.6081662 142.498028,28.5889254 142.68222,28.5889254 C143.170548,28.5889254 143.580389,28.6185752 143.705082,28.6185752 C143.840451,28.6185752 144.168143,28.598969 144.444124,28.5916433 Z M111.758725,35.7516579 C111.849585,35.7447418 111.926153,35.7308427 111.987763,35.716159 C112.182715,35.6776774 112.231453,35.4644515 112.270063,35.1834096 C112.319118,34.7761986 112.319118,34.0081438 112.319118,33.1158123 L112.319118,31.4046429 C112.319118,29.9290944 112.319118,29.6581461 112.299812,29.3474545 C112.280507,29.015945 112.203286,28.8620186 111.88111,28.7938873 C111.803572,28.7730693 111.63742,28.7642375 111.500701,28.7642375 C111.394047,28.7642375 111.336131,28.7434196 111.336131,28.6768653 C111.336131,28.6090494 111.402909,28.5894932 111.550072,28.5894932 C112.065301,28.5894932 112.679905,28.6191429 112.951761,28.6191429 C113.254632,28.6191429 113.86797,28.5894932 114.453141,28.5894932 C115.670955,28.5894932 117.298611,28.5894932 118.360084,29.6966277 C118.847146,30.2013044 119.304776,31.0078408 119.304776,32.1626042 C119.304776,33.3864452 118.789547,34.3191508 118.242986,34.8724026 C117.7958,35.3297659 116.781799,36.0195958 114.978814,36.0195958 C114.628154,36.0195958 114.229073,35.988369 113.859425,35.9587192 C113.487877,35.9306466 113.147978,35.9013122 112.904289,35.9013122 C112.795736,35.9013122 112.581796,35.9013122 112.348867,35.9114058 C112.124483,35.9114058 111.870666,35.9306466 111.676031,35.9306466 C111.669183,35.9306466 111.662506,35.9305599 111.656001,35.9303852 C111.631507,35.9306283 111.605498,35.9307412 111.57789,35.9307412 C111.227231,35.9307412 110.515784,35.9307412 109.736294,35.9115004 C109.561281,35.9010914 109.443551,35.9010914 109.443551,35.8342218 C109.443551,35.7752377 109.482478,35.7559969 109.58027,35.747165 C109.64863,35.7263471 109.716989,35.6405521 109.667935,35.5235302 L108.888445,33.5224871 C108.868823,33.4735965 108.839074,33.4543557 108.791919,33.4543557 L106.617703,33.4543557 C106.568965,33.4543557 106.549343,33.4735965 106.530038,33.532896 L106.004365,34.8620883 C105.906573,35.1046485 105.857202,35.3386923 105.857202,35.4553988 C105.857202,35.6301431 105.945183,35.7559969 106.248054,35.7559969 L106.393635,35.7559969 C106.510733,35.7559969 106.540482,35.7752377 106.540482,35.8342218 C106.540482,35.9115004 106.480983,35.9307412 106.374013,35.9307412 C106.062281,35.9307412 105.643578,35.9010914 105.342289,35.9010914 C105.233737,35.9010914 104.698886,35.9307412 104.191252,35.9307412 C104.064977,35.9307412 104.007061,35.9115004 104.007061,35.8342218 C104.007061,35.7752377 104.045672,35.7559969 104.122893,35.7559969 C104.211823,35.7559969 104.34696,35.747165 104.425764,35.7367561 C104.874216,35.6774566 105.058407,35.3475242 105.254308,34.8620883 L107.70038,28.8412953 C107.816212,28.5599381 107.875393,28.4533251 107.97192,28.4533251 C108.059585,28.4533251 108.119083,28.5406973 108.215609,28.7640167 C108.450121,29.2983431 110.008151,33.1837229 110.631616,34.6592713 C111.002847,35.532362 111.285147,35.6686247 111.489909,35.7159382 C111.582477,35.7355804 111.674419,35.7463618 111.758725,35.7516579 Z M88.351267,35.930219 C88.322475,35.9305773 88.291503,35.9307412 88.258204,35.9307412 C87.907545,35.9307412 87.196415,35.9307412 86.416608,35.9115004 C86.241595,35.9010914 86.124181,35.9010914 86.124181,35.8342218 C86.124181,35.7752377 86.164057,35.7559969 86.2609,35.747165 C86.32926,35.7263471 86.39762,35.6405521 86.348249,35.5235302 L85.568759,33.5224871 C85.549454,33.4735965 85.521287,33.4543557 85.472233,33.4543557 L83.299915,33.4543557 C83.250545,33.4543557 83.231556,33.4735965 83.211934,33.532896 L82.686261,34.8620883 C82.588469,35.1046485 82.539098,35.3386923 82.539098,35.4553988 C82.539098,35.6301431 82.627079,35.7559969 82.929951,35.7559969 L83.075531,35.7559969 C83.191363,35.7559969 83.221112,35.7752377 83.221112,35.8342218 C83.221112,35.9115004 83.163196,35.9307412 83.056226,35.9307412 C82.744493,35.9307412 82.325791,35.9010914 82.022603,35.9010914 C81.915633,35.9010914 81.379516,35.9307412 80.873148,35.9307412 C80.775427,35.9307412 80.717886,35.9192181 80.696861,35.8781907 C80.288941,36.0089366 79.614746,36.0667831 79.039971,36.0667831 C77.706325,36.0667831 76.585037,35.776594 75.698577,35.0085392 C74.743758,34.1739301 74.491207,33.0860364 74.491207,32.1432372 C74.491207,31.483057 74.694704,30.3374409 75.630218,29.4832756 C76.332486,28.8410745 77.257873,28.4534197 78.710199,28.4534197 C79.314675,28.4534197 79.67388,28.493163 80.122332,28.5508854 C80.493879,28.5981989 80.804029,28.6871481 81.096457,28.7152208 C81.205009,28.7256297 81.242037,28.7729432 81.242037,28.8322427 C81.242037,28.9104676 81.213871,29.0262278 81.194882,29.364992 C81.17526,29.6860926 81.184122,30.2219961 81.165133,30.4144041 C81.154689,30.5607604 81.135067,30.638039 81.047719,30.638039 C80.970498,30.638039 80.951192,30.5607604 80.951192,30.4248131 C80.940749,30.1229533 80.81479,29.7838737 80.5711,29.5321662 C80.248607,29.1902477 79.488423,28.9300238 78.593102,28.9300238 C77.744936,28.9300238 77.189514,29.1429343 76.760367,29.5321662 C76.048921,30.1819374 75.864729,31.1042341 75.864729,32.0470332 C75.864729,34.3587679 77.627522,35.504384 78.934267,35.504384 C79.800155,35.504384 80.327094,35.4066029 80.716364,34.9596486 C80.882833,34.7760725 81.009108,34.4934535 81.047719,34.3187092 C81.077468,34.1635211 81.096457,34.1234624 81.17526,34.1234624 C81.242037,34.1234624 81.263241,34.1915938 81.263241,34.2698186 C81.263241,34.3868406 81.145511,35.2305969 81.047719,35.5621064 C81.020894,35.6519709 80.997192,35.7076913 80.954257,35.7506208 C81.011071,35.7470858 81.06713,35.7421312 81.10766,35.7367561 C81.554846,35.6774566 81.740303,35.3475242 81.934938,34.8620883 L84.38101,28.8412953 C84.498108,28.5599381 84.556024,28.4533251 84.654132,28.4533251 C84.741481,28.4533251 84.799713,28.5406973 84.897822,28.7640167 C85.132333,29.2983431 86.690047,33.1837229 87.313512,34.6592713 C87.683477,35.532362 87.967043,35.6686247 88.170539,35.7159382 C88.261067,35.7351889 88.351115,35.7459285 88.434378,35.7513346 C88.527324,35.7446421 88.605446,35.7308264 88.668394,35.7170106 C88.863029,35.6772673 88.912083,35.4653031 88.950694,35.1826842 C88.999432,34.7757886 88.999432,34.0089954 88.999432,33.1150868 L88.999432,31.4054945 C88.999432,29.929946 88.999432,29.657736 88.980443,29.346729 C88.960821,29.0152195 88.883916,28.8612931 88.56174,28.7931618 C88.484202,28.7726593 88.365522,28.7650891 88.239247,28.7650891 C88.132277,28.7650891 88.074361,28.7445866 88.074361,28.6764553 C88.074361,28.6083239 88.142721,28.5890831 88.288301,28.5890831 C88.745931,28.5890831 89.360535,28.6187329 89.623213,28.6187329 C89.856459,28.6187329 90.567589,28.5890831 90.947998,28.5890831 C91.084717,28.5890831 91.15276,28.6083239 91.15276,28.6764553 C91.15276,28.7445866 91.094844,28.7650891 90.977747,28.7650891 C90.870776,28.7650891 90.714752,28.7726593 90.597338,28.7931618 C90.33466,28.8407906 90.255856,29.0079648 90.236867,29.346729 C90.217246,29.657736 90.217246,29.929946 90.217246,31.4054945 L90.217246,33.1150868 C90.217246,34.3581686 90.217246,35.0271807 90.422008,35.201925 C90.588793,35.3485966 90.841344,35.4164126 91.601528,35.4164126 C92.11834,35.4164126 92.498432,35.406319 92.742121,35.1442026 C92.857953,35.0183488 92.975051,34.7461388 92.994356,34.5625627 C93.0048,34.4739288 93.024105,34.4162064 93.101326,34.4162064 C93.169686,34.4162064 93.179813,34.4647816 93.179813,34.5805418 C93.179813,34.6868393 93.11177,35.4164126 93.032966,35.6977698 C92.975051,35.9125728 92.926313,35.9598863 92.419629,35.9598863 C91.718626,35.9598863 91.210992,35.9406455 90.772668,35.9302365 C90.33466,35.9125728 89.984317,35.9018485 89.584603,35.9018485 C89.476367,35.9018485 89.262426,35.9018485 89.029181,35.9125728 C88.805113,35.9125728 88.55098,35.9302365 88.356661,35.9302365 C88.354851,35.9302365 88.353053,35.9302307 88.351267,35.930219 Z M60.222426,35.9111727 C60.155567,35.9258672 60.043167,35.9307412 59.861581,35.9307412 C59.510921,35.9307412 58.799791,35.9307412 58.019985,35.9115004 C57.844655,35.9010914 57.727241,35.9010914 57.727241,35.8342218 C57.727241,35.7752377 57.766168,35.7559969 57.863961,35.747165 C57.93232,35.7263471 58.00068,35.6405521 57.951626,35.5235302 L57.172136,33.5224871 C57.152831,33.4735965 57.123082,33.4543557 57.07561,33.4543557 L54.901393,33.4543557 C54.852339,33.4543557 54.833034,33.4735965 54.813729,33.532896 L54.288056,34.8620883 C54.189947,35.1046485 54.140893,35.3386923 54.140893,35.4553988 C54.140893,35.6301431 54.228557,35.7559969 54.531745,35.7559969 L54.677326,35.7559969 C54.794423,35.7559969 54.824172,35.7752377 54.824172,35.8342218 C54.824172,35.9115004 54.764674,35.9307412 54.65802,35.9307412 C54.345971,35.9307412 53.927269,35.9010914 53.62598,35.9010914 C53.558391,35.9010914 53.325659,35.912586 53.037025,35.9212612 C53.009724,35.9280016 52.977564,35.9312143 52.942352,35.9312143 C52.848355,35.9312143 52.754993,35.9305809 52.663269,35.9294992 C52.600656,35.9302901 52.537597,35.9307412 52.474943,35.9307412 C52.438015,35.9307412 52.406933,35.9290957 52.381436,35.9248343 C51.963484,35.91612 51.607295,35.9015646 51.423249,35.9015646 C51.198865,35.9015646 50.584261,35.9312143 50.194991,35.9312143 C50.06745,35.9312143 50.000672,35.9015646 50.000672,35.8334332 C50.000672,35.7845427 50.039283,35.7552083 50.15638,35.7552083 C50.301961,35.7552083 50.419375,35.7372292 50.50704,35.7164113 C50.701359,35.6779297 50.759274,35.5123327 50.789024,35.2309754 C50.838078,34.8240798 50.838078,34.056025 50.838078,33.1144875 L50.838078,31.4052106 C50.838078,29.9296622 50.838078,29.6571367 50.818773,29.3464451 C50.799467,29.0161973 50.701359,28.8506003 50.487735,28.8029714 C50.379182,28.7736371 50.252907,28.7648053 50.135809,28.7648053 C50.039283,28.7648053 49.979785,28.7439873 49.979785,28.6670241 C49.979785,28.6077246 50.058588,28.5900609 50.214296,28.5900609 C50.584261,28.5900609 51.198865,28.6181336 51.481165,28.6181336 C51.724538,28.6181336 52.299265,28.5900609 52.66923,28.5900609 C52.796771,28.5900609 52.873992,28.6077246 52.873992,28.6670241 C52.873992,28.7439873 52.816077,28.7648053 52.717968,28.7648053 C52.621758,28.7648053 52.542954,28.7736371 52.42554,28.7928779 C52.162862,28.8417685 52.085325,29.0073655 52.066019,29.3464451 C52.045448,29.6571367 52.045448,29.9296622 52.045448,31.4052106 L52.045448,33.1144875 C52.045448,34.056025 52.045448,34.8240798 52.085325,35.2413844 C52.113808,35.5050779 52.182168,35.6779297 52.474595,35.7164113 C52.532815,35.7252764 52.604981,35.7336267 52.680023,35.740293 C52.690478,35.7391426 52.700341,35.7379599 52.709454,35.7367561 C53.157906,35.6774566 53.342098,35.3475242 53.538315,34.8620883 L55.984071,28.8412953 C56.099902,28.5599381 56.159084,28.4533251 56.255927,28.4533251 C56.343275,28.4533251 56.402774,28.5406973 56.4993,28.7640167 C56.733811,29.2983431 58.291841,33.1837229 58.915307,34.6592713 C59.286854,35.532362 59.568837,35.6686247 59.773916,35.7159382 C59.794069,35.7202236 59.814198,35.7240873 59.834229,35.7275643 C59.794177,35.6783821 59.784012,35.6095237 59.784012,35.4834715 C59.784012,34.9507221 59.822622,34.365928 59.83275,34.2120016 C59.843194,34.0656454 59.87136,33.9590324 59.950164,33.9590324 C60.037829,33.9590324 60.04669,34.0476663 60.04669,34.1233678 C60.04669,34.2507986 60.086883,34.4548773 60.134355,34.6188972 C60.349561,35.3383769 60.924289,35.6004934 61.528765,35.6004934 C62.404781,35.6004934 62.834244,35.0084445 62.834244,34.4933589 C62.834244,34.0183319 62.688663,33.5698005 61.879425,32.9408472 L61.430656,32.5897815 C60.358423,31.7551724 59.988774,31.0757514 59.988774,30.2900329 C59.988774,29.2198028 60.885678,28.4533251 62.240211,28.4533251 C62.872538,28.4533251 63.281113,28.5507908 63.53493,28.6189221 C63.622595,28.6365858 63.67165,28.6678127 63.67165,28.7359441 C63.67165,28.8617978 63.633039,29.1428396 63.633039,29.900801 C63.633039,30.1137114 63.60329,30.1906746 63.526069,30.1906746 C63.457709,30.1906746 63.428277,30.1329522 63.428277,30.0162457 C63.428277,29.9288736 63.378906,29.6282755 63.175726,29.3753063 C63.028879,29.1901531 62.746579,28.9002794 62.112354,28.9002794 C61.392046,28.9002794 60.954038,29.3175839 60.954038,29.900801 C60.954038,30.3477553 61.176839,30.6865195 61.986078,31.2978091 L62.259517,31.5022032 C63.437138,32.3872799 63.857423,33.0559766 63.857423,33.9798503 C63.857423,34.5422494 63.643483,35.2125232 62.941214,35.6686247 C62.454152,35.9793163 61.908857,36.0666885 61.392046,36.0666885 C60.938958,36.0666885 60.567528,36.0229594 60.222426,35.9111727 Z M7.265653,35.7196702 C7.270428,35.7185932 7.275121,35.7175062 7.279731,35.7164113 C7.47405,35.6779297 7.523104,35.4650192 7.561715,35.183662 C7.610769,34.7751893 7.610769,34.0083961 7.610769,33.1144875 L7.610769,31.4052106 C7.610769,29.9296622 7.610769,29.6571367 7.591464,29.3464451 C7.572159,29.0161973 7.493355,28.8610093 7.172761,28.7928779 C7.093958,28.7736371 6.929072,28.7648053 6.792669,28.7648053 C6.684116,28.7648053 6.6262,28.7439873 6.6262,28.675856 C6.6262,28.6077246 6.69456,28.5900609 6.840141,28.5900609 C7.104401,28.5900609 7.386701,28.5988928 7.630074,28.5988928 C7.883891,28.6077246 8.106693,28.6181336 8.243412,28.6181336 C8.555145,28.6181336 10.494849,28.6181336 10.680306,28.6077246 C10.864498,28.5900609 11.020522,28.569243 11.099009,28.5500022 C11.148064,28.5399087 11.205979,28.5115206 11.255034,28.5115206 C11.304088,28.5115206 11.31295,28.5500022 11.31295,28.5988928 C11.31295,28.6670241 11.263895,28.7837306 11.235729,29.2294232 C11.225285,29.3272043 11.205979,29.7549178 11.186674,29.8719398 C11.176547,29.9192532 11.157242,29.9785527 11.088882,29.9785527 C11.020522,29.9785527 11.001217,29.9296622 11.001217,29.8407129 C11.001217,29.7725815 10.992356,29.6082462 10.943301,29.4931168 C10.874942,29.3183725 10.776833,29.2013506 10.28977,29.1436282 C10.124884,29.1228103 9.101705,29.1035695 8.907387,29.1035695 C8.858332,29.1035695 8.839027,29.1332192 8.839027,29.2013506 L8.839027,31.6581798 C8.839027,31.7263112 8.847889,31.7647928 8.907387,31.7647928 C9.121011,31.7647928 10.240716,31.7647928 10.4651,31.7439749 C10.699612,31.7263112 10.845192,31.6966614 10.932857,31.6004574 C11.001217,31.5222325 11.041093,31.473342 11.088882,31.473342 C11.128758,31.473342 11.157242,31.4938445 11.157242,31.5515669 C11.157242,31.6092893 11.118315,31.7647928 11.078438,32.2593759 C11.069577,32.4546227 11.041093,32.8438546 11.041093,32.9116706 C11.041093,32.9873721 11.041093,33.0952467 10.952163,33.0952467 C10.885385,33.0952467 10.864498,33.0555034 10.864498,33.00819 C10.855636,32.9116706 10.855636,32.7845551 10.825887,32.6587014 C10.776833,32.4647163 10.641696,32.31836 10.280909,32.2798784 C10.095452,32.2593759 9.129872,32.2502287 8.896626,32.2502287 C8.847889,32.2502287 8.839027,32.2902874 8.839027,32.3480098 L8.839027,33.1144875 C8.839027,33.4447353 8.828583,34.3370668 8.839027,34.6196858 C8.858332,35.2902749 9.014357,35.4353695 10.007787,35.4353695 C10.261604,35.4353695 10.670179,35.4353695 10.923996,35.3199247 C11.176547,35.2016411 11.293644,34.9988241 11.362004,34.600445 C11.381309,34.493832 11.400614,34.4553504 11.468974,34.4553504 C11.547461,34.4553504 11.547461,34.532629 11.547461,34.6304101 C11.547461,34.8521525 11.468974,35.5123327 11.41992,35.7078949 C11.353143,35.959287 11.263895,35.959287 10.894247,35.959287 C10.163495,35.959287 9.627378,35.9400462 9.208676,35.9312143 C8.789973,35.9119735 8.487102,35.9015646 8.19594,35.9015646 C8.087388,35.9015646 7.873764,35.9015646 7.640518,35.9119735 C7.639482,35.9119735 7.638446,35.9119739 7.637409,35.9119748 C7.605735,35.9258161 7.559981,35.9304573 7.50247,35.9304573 L7.039761,35.9304573 C7.014992,35.9309402 6.990915,35.9312143 6.967682,35.9312143 C6.955969,35.9312143 6.944769,35.9309643 6.934086,35.9304573 L6.577399,35.9304573 C6.032105,35.9304573 5.787149,35.8831439 5.534915,35.7468812 C5.115896,35.5235617 4.746247,35.0661985 4.199687,34.3186461 C3.810733,33.7843197 3.361965,33.1241395 3.236006,32.9793603 C3.186951,32.9200608 3.127453,32.911229 3.060676,32.911229 L2.212827,32.8904111 C2.163772,32.8904111 2.134023,32.911229 2.134023,32.9689514 L2.134023,33.1048987 C2.134023,34.0079545 2.134023,34.7760094 2.183078,35.182905 C2.212827,35.4655239 2.270742,35.6771727 2.56317,35.7172314 C2.70875,35.7364722 2.924273,35.755713 3.039788,35.755713 C3.118592,35.755713 3.157202,35.7837856 3.157202,35.8342533 C3.157202,35.9023847 3.088843,35.9304573 2.962567,35.9304573 C2.397018,35.9304573 1.67671,35.9023847 1.529547,35.9023847 C1.345356,35.9023847 0.730752,35.9304573 0.341482,35.9304573 C0.215523,35.9304573 0.147163,35.9023847 0.147163,35.8342533 C0.147163,35.7837856 0.185774,35.755713 0.302871,35.755713 C0.448452,35.755713 0.565866,35.7364722 0.653531,35.7172314 C0.848166,35.6771727 0.896904,35.4655239 0.935514,35.182905 C0.984569,34.7760094 0.984569,34.0079545 0.984569,33.1153076 L0.984569,31.4044536 C0.984569,29.9289051 0.984569,29.6579568 0.965263,29.3469498 C0.945958,29.0154403 0.867471,28.8615139 0.546561,28.793698 C0.467757,28.7728801 0.302871,28.7640482 0.166468,28.7640482 C0.059498,28.7640482 0,28.7448074 0,28.6766761 C0,28.6085447 0.06836,28.5893039 0.215523,28.5893039 C0.730752,28.5893039 1.345356,28.6189537 1.548852,28.6189537 C1.881472,28.6189537 2.621086,28.5893039 2.924273,28.5893039 C3.537295,28.5893039 4.190825,28.6470263 4.716498,29.0066085 C4.98962,29.1901846 5.37889,29.6860295 5.37889,30.3373778 C5.37889,31.0552804 5.075703,31.7151452 4.092717,32.5115881 C4.960188,33.6007435 5.631125,34.4653178 6.207434,35.0661985 C6.715521,35.5917029 7.09707,35.6864957 7.265653,35.7196702 Z M7.731158,12.0963434 L13.613251,12.0963434 L10.726323,3.7903112 L10.644671,3.7903112 L7.731158,12.0963434 Z M8.917641,0.4600759 L12.506838,0.4600759 L19.926073,19.782254 L16.311558,19.782254 L14.504142,14.6673557 L6.813367,14.6673557 L5.005951,19.782254 L1.525306,19.782254 L8.917641,0.4600759 Z M34.767614,6.60401 C34.623616,6.0444497 34.426133,5.529364 34.173582,5.0603301 C33.921031,4.5925579 33.597272,4.1856623 33.202305,3.8421668 C32.805756,3.5002483 32.344012,3.235293 31.812326,3.0460393 C31.282222,2.854893 30.666036,2.7602661 29.965034,2.7602661 C28.939006,2.7602661 28.053812,2.967499 27.30692,3.3819647 C26.559711,3.7976921 25.952386,4.3528365 25.486212,5.046767 C25.018455,5.7425899 24.67096,6.5314627 24.446576,7.4165395 C24.220926,8.3000391 24.109525,9.2015178 24.109525,10.1222374 C24.109525,11.0426415 24.220926,11.9441203 24.446576,12.8276199 C24.67096,13.7126967 25.018455,14.5015694 25.486212,15.1973924 C25.952386,15.8897457 26.559711,16.4448901 27.30692,16.8621947 C28.053812,17.2766604 28.939006,17.4838933 29.965034,17.4838933 C30.719205,17.4838933 31.384762,17.3523619 31.960755,17.0902454 C32.537065,16.8297061 33.031723,16.4685468 33.445995,16.0083448 C33.858684,15.5478273 34.182443,15.0122391 34.417271,14.3981107 C34.6502,13.7852439 34.803377,13.1250637 34.87585,12.4235631 L38.166924,12.4235631 C38.095716,13.5780111 37.847596,14.6334162 37.425728,15.587886 C37.002595,16.54551 36.430716,17.3700256 35.71199,18.0655331 C34.991682,18.759779 34.146997,19.2956826 33.175721,19.6757672 C32.202862,20.0549056 31.133793,20.2441594 29.965034,20.2441594 C28.524418,20.2441594 27.23413,19.9779424 26.093536,19.4464548 C24.950095,18.9121283 23.983249,18.186971 23.191733,17.2662514 C22.400217,16.3458473 21.792893,15.2727785 21.371025,14.0457833 C20.947892,12.8187881 20.737116,11.5104137 20.737116,10.1222374 C20.737116,8.7517247 20.947892,7.4518668 21.371025,6.2236099 C21.792893,4.9981918 22.400217,3.9235459 23.191733,3.0028263 C23.983249,2.0824222 24.950095,1.352849 26.093536,0.8125295 C27.23413,0.2706329 28.524418,0 29.965034,0 C31.044546,0 32.060446,0.1495105 33.013683,0.4469543 C33.967237,0.7443981 34.807491,1.1765275 35.536977,1.7464968 C36.264564,2.3148889 36.854166,3.0028263 37.3042,3.8156712 C37.753918,4.6282007 38.033053,5.556175 38.140023,6.60401 L34.767614,6.60401 Z M65.696392,0.4595712 L70.445488,0.4595712 L75.760449,15.5888323 L75.813934,15.5888323 L80.995025,0.4595712 L85.689053,0.4595712 L85.689053,19.7833265 L82.478682,19.7833265 L82.478682,4.8701301 L82.425197,4.8701301 L77.082069,19.7833265 L74.303693,19.7833265 L68.960248,4.8701301 L68.908346,4.8701301 L68.908346,19.7833265 L65.696392,19.7833265 L65.696392,0.4595712 Z M93.110694,9.6074672 L98.048411,9.6074672 C98.425655,9.6074672 98.811761,9.5544761 99.20831,9.446286 C99.603276,9.3368343 99.966912,9.1605129 100.299848,8.9176372 C100.633735,8.6738153 100.904008,8.3479834 101.110353,7.9439266 C101.317014,7.537031 101.42082,7.027623 101.42082,6.4150716 C101.42082,5.7829641 101.330307,5.2590466 101.150546,4.8433192 C100.970786,4.4301151 100.727096,4.1001827 100.421693,3.8560454 C100.115657,3.6131697 99.764998,3.4459956 99.370031,3.3557846 C98.973482,3.2655736 98.550032,3.221099 98.101896,3.221099 L93.110694,3.221099 L93.110694,9.6074672 Z M89.738285,0.4592558 L98.237033,0.4592558 C99.603276,0.4592558 100.719817,0.6589185 101.582858,1.0557206 C102.445581,1.4525226 103.110822,1.948052 103.578579,2.5445168 C104.046336,3.1397199 104.365664,3.7894911 104.536563,4.4925689 C104.707462,5.1969083 104.793228,5.8451024 104.793228,6.4399901 C104.793228,7.0367702 104.707462,7.6805485 104.536563,8.376056 C104.365664,9.071879 104.046336,9.7156572 103.578579,10.312122 C103.110822,10.9070097 102.445581,11.3984386 101.582858,11.7860934 C100.719817,12.1740636 99.603276,12.3677333 98.237033,12.3677333 L93.110694,12.3677333 L93.110694,19.783011 L89.738285,19.783011 L89.738285,0.4592558 Z M109.70395,12.0963434 L115.58636,12.0963434 L112.699431,3.7903112 L112.61778,3.7903112 L109.70395,12.0963434 Z M110.890433,0.4600759 L114.479947,0.4600759 L121.898866,19.782254 L118.28435,19.782254 L116.477251,14.6673557 L108.786475,14.6673557 L106.979059,19.782254 L103.498098,19.782254 L110.890433,0.4600759 Z M123.600008,0.4595712 L127.161038,0.4595712 L135.958543,14.6949237 L136.012028,14.6949237 L136.012028,0.4595712 L139.222399,0.4595712 L139.222399,19.7833265 L135.661369,19.7833265 L126.892347,5.5747849 L126.810695,5.5747849 L126.810695,19.7833265 L123.600008,19.7833265 L123.600008,0.4595712 Z M147.182056,12.0963434 L153.064149,12.0963434 L150.17722,3.7903112 L150.095569,3.7903112 L147.182056,12.0963434 Z M148.368538,0.4600759 L151.958052,0.4600759 L159.376971,19.782254 L155.762456,19.782254 L153.955039,14.6673557 L146.264264,14.6673557 L144.457165,19.782254 L140.976204,19.782254 L148.368538,0.4600759 Z M130.809797,3.0048135 L129.210308,0.4401096 L134.290758,0.4401096 L134.290758,3.0048135 L130.809797,3.0048135 Z M56.858156,0.4638925 C58.718741,0.4638925 60.389438,1.1209185 61.564211,2.3141634 C62.619987,3.3900711 63.105467,4.918926 62.928871,6.6181094 C62.759555,8.2491614 61.97247,9.8076661 60.952455,10.5492254 C55.689396,5.3113122 54.247198,3.8177846 54.23264,3.8029597 L54.107947,3.6742671 L53.941479,3.9139886 C53.439542,4.6170663 51.626429,6.9095602 49.299353,6.9095602 C48.731905,6.9095602 48.164773,6.7748746 47.609351,6.5055034 C48.286618,5.8737113 51.058981,3.287874 52.808481,1.7826758 C53.766149,0.9565831 55.281138,0.4638925 56.858156,0.4638925 Z M46.719505,9.8487972 C46.967625,10.0677008 47.10561,10.359467 47.10561,10.6673198 C47.104028,10.9751725 46.967625,11.2650462 46.716657,11.4842652 L45.140904,12.8680256 C44.886771,13.0916604 44.546871,13.21436 44.184502,13.21436 C43.82055,13.21436 43.482233,13.0900833 43.225252,12.8664485 C42.977132,12.6459678 42.840729,12.354517 42.842311,12.0466643 C42.842311,11.7372344 42.978714,11.4486224 43.229682,11.2297189 L44.803853,9.8459584 C45.059252,9.6223236 45.397885,9.4996241 45.760255,9.4996241 C46.124206,9.4996241 46.464106,9.6239007 46.719505,9.8487972 Z M49.174723,12.0646118 C49.422844,12.2835153 49.560829,12.5768587 49.559246,12.8847115 C49.559246,13.1925642 49.421261,13.4824379 49.171875,13.7013414 L47.596122,15.0838401 C47.340723,15.307475 47.00209,15.4301745 46.63972,15.4301745 C46.276085,15.4301745 45.935869,15.307475 45.682053,15.082263 C45.43235,14.8617824 45.295947,14.5703316 45.295947,14.2624788 C45.295947,13.954626 45.433932,13.6644369 45.684901,13.4455334 L47.259071,12.061773 C47.514471,11.8397153 47.854686,11.7167003 48.215473,11.7167003 C48.579425,11.7167003 48.919324,11.8397153 49.174723,12.0646118 Z M51.589401,14.3062911 C51.838787,14.52551 51.975506,14.8169608 51.973924,15.1248136 C51.973924,15.4342435 51.837521,15.7244326 51.586236,15.9420744 L50.0108,17.3270965 C49.755401,17.5507314 49.416767,17.6721692 49.054398,17.6721692 C48.692028,17.6721692 48.352129,17.5491543 48.096414,17.3242577 C47.847027,17.1053542 47.710625,16.8120109 47.710625,16.5041581 C47.711891,16.1963053 47.84861,15.9064316 48.097996,15.6887898 L49.673749,14.3050294 C49.929148,14.0813945 50.269364,13.9583796 50.631417,13.9583796 C50.993786,13.9583796 51.334002,14.0829716 51.589401,14.3062911 Z M53.869226,16.6520914 C54.117346,16.8725721 54.255332,17.1643383 54.253749,17.4721911 C54.253749,17.7800439 54.117346,18.070233 53.866378,18.2891365 L52.290625,19.6728969 C52.035226,19.8949546 51.696593,20.0192313 51.334223,20.0192313 C50.971854,20.0192313 50.631955,19.8949546 50.374973,19.6700581 C50.126853,19.4511546 49.99045,19.1578112 49.99045,18.8499584 C49.99045,18.5421057 50.128435,18.252232 50.377821,18.0345902 L51.953574,16.6508297 C52.208973,16.4271949 52.547607,16.3041799 52.909976,16.3041799 C53.273611,16.3041799 53.613827,16.4271949 53.869226,16.6520914 Z M60.524859,11.0267127 C60.682466,11.180639 60.783107,11.4367625 60.780259,11.678061 C60.778993,11.8348262 60.735951,12.0597228 60.528024,12.2537079 C60.279904,12.4890134 60.006466,12.6031965 59.694733,12.6031965 C59.519403,12.6031965 59.323502,12.5707079 59.081395,12.4981606 L54.476298,7.8933012 C54.33673,7.7541997 54.064874,7.7381131 53.909166,7.8592355 C53.824349,7.9261052 53.772447,8.025148 53.763585,8.127345 C53.757572,8.2295421 53.796183,8.3317391 53.872138,8.4055481 L58.673136,13.2097548 C58.821565,13.7308335 58.54243,14.1096564 58.413306,14.2519122 C58.22595,14.4515749 57.796804,14.6055013 57.413863,14.6055013 C57.263852,14.6055013 57.133146,14.5802674 57.037885,14.5345311 L52.128651,9.8706876 C51.986235,9.7363174 51.715645,9.7271702 51.561203,9.8514468 C51.478285,9.9211553 51.42923,10.0145205 51.423217,10.120818 C51.418787,10.2245921 51.460245,10.3223732 51.539049,10.3993364 L56.588167,15.1947113 C56.634057,15.3234039 56.652096,15.4744915 56.637222,15.6240019 C56.616334,15.8340736 56.513795,16.2245672 56.065343,16.5002468 C55.756459,16.6910777 55.239647,16.74123 54.668085,16.6390329 C54.575989,16.4822677 54.455727,16.3403274 54.312994,16.2144737 C53.839224,15.7971691 53.156261,15.6148547 52.496717,15.7391313 C52.577103,15.5438845 52.620144,15.3338128 52.620144,15.1278416 C52.621726,14.6499759 52.413799,14.2045987 52.03339,13.8683579 C51.657729,13.5368484 51.160223,13.3532722 50.630119,13.3532722 C50.453523,13.3532722 50.282624,13.3740901 50.11489,13.4141488 C50.174072,13.2438205 50.205403,13.0646602 50.205403,12.8842383 C50.206986,12.4092114 49.997476,11.9622571 49.618966,11.6260162 C49.243305,11.2960838 48.744216,11.1125077 48.214112,11.1125077 C48.02549,11.1125077 47.842882,11.1349027 47.665969,11.180639 C47.721037,11.0147266 47.750786,10.8418748 47.750786,10.6687076 C47.752368,10.1921036 47.542859,9.7451493 47.162767,9.4092238 C46.788371,9.078976 46.290865,8.896977 45.760761,8.896977 C45.233506,8.896977 44.736,9.078976 44.36192,9.4060696 L42.881112,10.7071892 C42.163968,9.8233742 40.711643,7.9112803 40.563214,6.7347528 C40.325537,4.8475774 41.008501,3.4341672 42.850097,2.008771 C43.935622,1.1681688 45.318322,0.7032354 46.742481,0.7032354 C47.581469,0.7032354 48.359693,0.8659937 48.935686,1.1561828 C49.427496,1.4063132 50.190529,1.8665152 51.099459,2.4573024 C49.355971,4.0170688 47.385252,5.8597696 46.997881,6.2225059 C46.89091,6.3231259 46.840274,6.4622274 46.861161,6.6041677 C46.882049,6.7404304 46.97098,6.8634453 47.101686,6.9328384 C47.813132,7.3176544 48.552429,7.5129012 49.299638,7.5129012 C51.617536,7.5129012 53.410077,5.6200481 54.164565,4.6684171 C54.707961,5.2043207 56.466323,6.9656424 58.151894,8.6544168 L58.478501,8.9811949 C59.583332,10.0870677 60.382443,10.886034 60.524859,11.0267127 Z M2.134023,32.1725085 C2.134023,32.2791214 2.153328,32.3191801 2.221688,32.3472528 C2.42645,32.4153841 2.719194,32.4450339 2.962567,32.4450339 C3.351837,32.4450339 3.479379,32.4049752 3.654709,32.2791214 C3.947136,32.0658955 4.229436,31.6189412 4.229436,30.8228137 C4.229436,29.4434692 3.313227,29.0466672 2.7385,29.0466672 C2.49481,29.0466672 2.31948,29.055499 2.221688,29.0838871 C2.153328,29.1043896 2.134023,29.1428712 2.134023,29.2198344 L2.134023,32.1725085 Z M12.503072,35.814981 C12.347047,35.7468496 12.317615,35.6979591 12.317615,35.4834715 C12.317615,34.9507221 12.355909,34.365928 12.366353,34.2120016 C12.376796,34.0656454 12.404963,33.9590324 12.483767,33.9590324 C12.571431,33.9590324 12.580293,34.0476663 12.580293,34.1233678 C12.580293,34.2507986 12.620486,34.4548773 12.667958,34.6188972 C12.883164,35.3383769 13.457891,35.6004934 14.062368,35.6004934 C14.938384,35.6004934 15.36753,35.0084445 15.36753,34.4933589 C15.36753,34.0183319 15.222266,33.5698005 14.412711,32.9408472 L13.964259,32.5897815 C12.892025,31.7551724 12.522377,31.0757514 12.522377,30.2900329 C12.522377,29.2198028 13.419281,28.4533251 14.773498,28.4533251 C15.406141,28.4533251 15.814716,28.5507908 16.068533,28.6189221 C16.156198,28.6365858 16.205252,28.6678127 16.205252,28.7359441 C16.205252,28.8617978 16.166642,29.1428396 16.166642,29.900801 C16.166642,30.1137114 16.136893,30.1906746 16.059672,30.1906746 C15.991312,30.1906746 15.961563,30.1329522 15.961563,30.0162457 C15.961563,29.9288736 15.912508,29.6282755 15.709328,29.3753063 C15.562165,29.1901531 15.279865,28.9002794 14.645956,28.9002794 C13.925648,28.9002794 13.48764,29.3175839 13.48764,29.900801 C13.48764,30.3477553 13.710442,30.6865195 14.519681,31.2978091 L14.792803,31.5022032 C15.970741,32.3872799 16.391026,33.0559766 16.391026,33.9798503 C16.391026,34.5422494 16.177086,35.2125232 15.4745,35.6686247 C14.987438,35.9793163 14.44246,36.0666885 13.925648,36.0666885 C13.360099,36.0666885 12.921775,35.9985571 12.503072,35.814981 Z M17.979058,31.4052106 C17.979058,29.9296622 17.979058,29.6571367 17.959753,29.3464451 C17.940448,29.0161973 17.842339,28.8506003 17.628715,28.8029714 C17.520162,28.7736371 17.393887,28.7648053 17.27679,28.7648053 C17.180263,28.7648053 17.120765,28.7439873 17.120765,28.6670241 C17.120765,28.6077246 17.199568,28.5900609 17.355277,28.5900609 C17.725241,28.5900609 18.340162,28.6181336 18.622145,28.6181336 C18.865518,28.6181336 19.440245,28.5900609 19.81021,28.5900609 C19.937752,28.5900609 20.014973,28.6077246 20.014973,28.6670241 C20.014973,28.7439873 19.957057,28.7648053 19.858948,28.7648053 C19.762738,28.7648053 19.683935,28.7736371 19.566521,28.7928779 C19.303843,28.8417685 19.226621,29.0073655 19.207316,29.3464451 C19.186429,29.6571367 19.186429,29.9296622 19.186429,31.4052106 L19.186429,33.1144875 C19.186429,34.056025 19.186429,34.8240798 19.226621,35.2413844 C19.254788,35.5050779 19.323148,35.6779297 19.615575,35.7164113 C19.752294,35.7372292 19.965918,35.7552083 20.113081,35.7552083 C20.220051,35.7552083 20.269106,35.7845427 20.269106,35.8334332 C20.269106,35.9015646 20.190302,35.9312143 20.083332,35.9312143 C19.440245,35.9312143 18.827224,35.9015646 18.564229,35.9015646 C18.340162,35.9015646 17.725241,35.9312143 17.335971,35.9312143 C17.20843,35.9312143 17.141653,35.9015646 17.141653,35.8334332 C17.141653,35.7845427 17.180263,35.7552083 17.297361,35.7552083 C17.442941,35.7552083 17.560355,35.7372292 17.64802,35.7164113 C17.842339,35.6779297 17.900255,35.5123327 17.930004,35.2309754 C17.979058,34.8240798 17.979058,34.056025 17.979058,33.1144875 L17.979058,31.4052106 Z M22.87057,32.4732958 C22.87057,33.50189 22.881014,34.2510194 22.889875,34.4342802 C22.900319,34.6771558 22.919624,35.0663877 22.996845,35.1730007 C23.124703,35.3581539 23.504795,35.5622326 24.274158,35.5622326 C25.267588,35.5622326 25.931246,35.3669858 26.514834,34.8623091 C27.138616,34.3292443 27.333251,33.4441676 27.333251,32.443646 C27.333251,31.2109732 26.817706,30.4145303 26.397737,30.0164665 C25.502099,29.1623012 24.391255,29.0468564 23.631071,29.0468564 C23.436436,29.0468564 23.075332,29.0752445 22.996845,29.1137261 C22.90918,29.1522077 22.881014,29.2007828 22.881014,29.3073958 C22.87057,29.6376436 22.87057,30.4826616 22.87057,31.2507165 L22.87057,32.4732958 Z M21.652755,31.4046429 C21.652755,29.9290944 21.652755,29.6581461 21.63345,29.3474545 C21.614145,29.015945 21.53724,28.8620186 21.214747,28.7938873 C21.137526,28.7730693 20.971375,28.7642375 20.834655,28.7642375 C20.727685,28.7642375 20.669769,28.7434196 20.669769,28.6768653 C20.669769,28.6090494 20.736547,28.5894932 20.88371,28.5894932 C21.398939,28.5894932 22.013542,28.6191429 22.285399,28.6191429 C22.58827,28.6191429 23.201608,28.5894932 23.787095,28.5894932 C25.004593,28.5894932 26.632248,28.5894932 27.694038,29.6966277 C28.1811,30.2013044 28.638414,31.0078408 28.638414,32.1626042 C28.638414,33.3864452 28.123185,34.3191508 27.576624,34.8724026 C27.129755,35.3297659 26.115437,36.0195958 24.312452,36.0195958 C23.962108,36.0195958 23.562711,35.988369 23.193063,35.9587192 C22.821515,35.9306466 22.481616,35.9013122 22.237927,35.9013122 C22.129691,35.9013122 21.91575,35.9013122 21.682505,35.9114058 C21.458437,35.9114058 21.204304,35.9306466 21.009985,35.9306466 C20.88371,35.9306466 20.81535,35.9013122 20.81535,35.8344426 C20.81535,35.7842903 20.853961,35.7562177 20.971375,35.7562177 C21.116639,35.7562177 21.234053,35.7369769 21.321718,35.716159 C21.516353,35.6776774 21.565091,35.4644515 21.604018,35.1834096 C21.652755,34.7761986 21.652755,34.0081438 21.652755,33.1158123 L21.652755,31.4046429 Z M29.945633,31.4052106 C29.945633,29.9296622 29.945633,29.6571367 29.926328,29.3464451 C29.907023,29.0161973 29.828219,28.8610093 29.507625,28.7928779 C29.428822,28.7736371 29.263936,28.7648053 29.127533,28.7648053 C29.018981,28.7648053 28.961065,28.7439873 28.961065,28.675856 C28.961065,28.6077246 29.029108,28.5900609 29.174689,28.5900609 C29.439266,28.5900609 29.721566,28.5988928 29.964939,28.5988928 C30.218755,28.6077246 30.441557,28.6181336 30.578277,28.6181336 C30.890009,28.6181336 32.829397,28.6181336 33.015171,28.6077246 C33.199362,28.5900609 33.35507,28.569243 33.433874,28.5500022 C33.482928,28.5399087 33.540844,28.5115206 33.589898,28.5115206 C33.638952,28.5115206 33.647814,28.5500022 33.647814,28.5988928 C33.647814,28.6670241 33.59876,28.7837306 33.570593,29.2294232 C33.560149,29.3272043 33.540844,29.7549178 33.521538,29.8719398 C33.511095,29.9192532 33.491789,29.9785527 33.42343,29.9785527 C33.35507,29.9785527 33.335765,29.9296622 33.335765,29.8407129 C33.335765,29.7725815 33.326903,29.6082462 33.277849,29.4931168 C33.209489,29.3183725 33.111697,29.2013506 32.624635,29.1436282 C32.459749,29.1228103 31.43657,29.1035695 31.241935,29.1035695 C31.19288,29.1035695 31.173575,29.1332192 31.173575,29.2013506 L31.173575,31.6581798 C31.173575,31.7263112 31.182753,31.7647928 31.241935,31.7647928 C31.455875,31.7647928 32.57558,31.7647928 32.799965,31.7439749 C33.034476,31.7263112 33.180057,31.6966614 33.267722,31.6004574 C33.335765,31.5222325 33.375958,31.473342 33.42343,31.473342 C33.463623,31.473342 33.491789,31.4938445 33.491789,31.5515669 C33.491789,31.6092893 33.453179,31.7647928 33.413302,32.2593759 C33.404124,32.4546227 33.375958,32.8438546 33.375958,32.9116706 C33.375958,32.9873721 33.375958,33.0952467 33.287027,33.0952467 C33.219933,33.0952467 33.199362,33.0555034 33.199362,33.00819 C33.190184,32.9116706 33.190184,32.7845551 33.160752,32.6587014 C33.111697,32.4647163 32.97656,32.31836 32.615773,32.2798784 C32.43,32.2593759 31.464736,32.2502287 31.231491,32.2502287 C31.182753,32.2502287 31.173575,32.2902874 31.173575,32.3480098 L31.173575,33.1144875 C31.173575,33.4447353 31.163448,34.3370668 31.173575,34.6196858 C31.19288,35.2902749 31.348905,35.4353695 32.342335,35.4353695 C32.596152,35.4353695 33.004727,35.4353695 33.258544,35.3199247 C33.511095,35.2016411 33.628509,34.9988241 33.696868,34.600445 C33.716174,34.493832 33.735479,34.4553504 33.803522,34.4553504 C33.882325,34.4553504 33.882325,34.532629 33.882325,34.6304101 C33.882325,34.8521525 33.803522,35.5123327 33.754784,35.7078949 C33.688007,35.959287 33.59876,35.959287 33.229111,35.959287 C32.498359,35.959287 31.962243,35.9400462 31.54354,35.9312143 C31.124837,35.9119735 30.821966,35.9015646 30.530805,35.9015646 C30.422252,35.9015646 30.208628,35.9015646 29.975383,35.9119735 C29.750998,35.9119735 29.497182,35.9312143 29.302547,35.9312143 C29.174689,35.9312143 29.108228,35.9015646 29.108228,35.8334332 C29.108228,35.7845427 29.146838,35.7552083 29.263936,35.7552083 C29.409517,35.7552083 29.526931,35.7372292 29.614596,35.7164113 C29.808914,35.6779297 29.857969,35.4650192 29.896579,35.183662 C29.945633,34.7751893 29.945633,34.0083961 29.945633,33.1144875 L29.945633,31.4052106 Z M35.919189,34.6094976 C35.938495,35.3671435 36.066036,35.6204281 36.260671,35.6885595 C36.425557,35.7475436 36.611331,35.7551137 36.767039,35.7551137 C36.874009,35.7551137 36.933507,35.7759316 36.933507,35.833654 C36.933507,35.9118789 36.845842,35.9311197 36.709123,35.9311197 C36.075214,35.9311197 35.685944,35.9017854 35.50017,35.9017854 C35.412822,35.9017854 34.955508,35.9311197 34.447558,35.9311197 C34.321283,35.9311197 34.233618,35.9207107 34.233618,35.833654 C34.233618,35.7759316 34.291534,35.7551137 34.389643,35.7551137 C34.515601,35.7551137 34.690931,35.7475436 34.827651,35.7078003 C35.081467,35.62926 35.120078,35.3482181 35.130522,34.5044618 L35.218187,28.7823743 C35.218187,28.5902817 35.246353,28.454019 35.344462,28.454019 C35.451116,28.454019 35.538781,28.5798728 35.705249,28.7543017 C35.822663,28.8801554 37.303155,30.4342442 38.725732,31.8432385 C39.388124,32.5018416 40.703731,33.9004268 40.868617,34.0559304 L40.917671,34.0559304 L40.819562,29.6971008 C40.810701,29.1037903 40.723036,28.918637 40.488524,28.822433 C40.342944,28.7647106 40.108432,28.7647106 39.971713,28.7647106 C39.855881,28.7647106 39.817271,28.7350609 39.817271,28.6757614 C39.817271,28.5975365 39.924241,28.5902817 40.069822,28.5902817 C40.576189,28.5902817 41.043946,28.618039 41.248709,28.618039 C41.355679,28.618039 41.727226,28.5902817 42.203528,28.5902817 C42.329804,28.5902817 42.427913,28.5975365 42.427913,28.6757614 C42.427913,28.7350609 42.369997,28.7647106 42.252899,28.7647106 C42.15479,28.7647106 42.077569,28.7647106 41.960155,28.7927833 C41.687033,28.8713236 41.609496,29.0757176 41.599368,29.6188759 L41.492398,35.7475436 C41.492398,35.9591923 41.453788,36.0481416 41.366123,36.0481416 C41.259469,36.0481416 41.141739,35.9399515 41.035085,35.833654 C40.420165,35.2520141 39.172918,33.9789672 38.160183,32.9784456 C37.098393,31.9290335 36.017298,30.7452512 35.841968,30.5616751 L35.812219,30.5616751 L35.919189,34.6094976 Z M43.91926,35.0085392 C42.964441,34.1739301 42.71189,33.0860364 42.71189,32.1432372 C42.71189,31.483057 42.915386,30.3374409 43.850901,29.4832756 C44.553169,28.8410745 45.478556,28.4534197 46.929299,28.4534197 C47.535358,28.4534197 47.894563,28.493163 48.343015,28.5508854 C48.714245,28.5981989 49.024712,28.6871481 49.317456,28.7152208 C49.42411,28.7256297 49.46272,28.7729432 49.46272,28.8322427 C49.46272,28.9104676 49.434553,29.0262278 49.415248,29.364992 C49.395943,29.6860926 49.404804,30.2219961 49.385499,30.4144041 C49.375055,30.5607604 49.35575,30.638039 49.269667,30.638039 C49.19118,30.638039 49.171875,30.5607604 49.171875,30.4248131 C49.161431,30.1229533 49.035156,29.7838737 48.791783,29.5321662 C48.46929,29.1902477 47.710371,28.9300238 46.813468,28.9300238 C45.965618,28.9300238 45.410196,29.1429343 44.98105,29.5321662 C44.269603,30.1819374 44.085412,31.1042341 44.085412,32.0470332 C44.085412,34.3587679 45.848204,35.504384 47.155266,35.504384 C48.022421,35.504384 48.548093,35.4066029 48.937047,34.9596486 C49.103515,34.7760725 49.229791,34.4934535 49.269667,34.3187092 C49.298151,34.1635211 49.317456,34.1234624 49.395943,34.1234624 C49.46272,34.1234624 49.483608,34.1915938 49.483608,34.2698186 C49.483608,34.3868406 49.366194,35.2305969 49.269667,35.5621064 C49.219347,35.7264418 49.180737,35.776594 49.015851,35.8431482 C48.625315,35.9986518 47.884119,36.0667831 47.260654,36.0667831 C45.927008,36.0667831 44.80572,35.776594 43.91926,35.0085392 Z M56.889836,32.9689198 C56.93889,32.9689198 56.947752,32.9392701 56.93889,32.9111974 L56.061292,30.5224996 C56.05243,30.4824408 56.041987,30.4335503 56.012237,30.4335503 C55.984071,30.4335503 55.963183,30.4824408 55.954322,30.5224996 L55.057418,32.9007885 C55.048557,32.9392701 55.057418,32.9689198 55.096029,32.9689198 L56.889836,32.9689198 Z M70.081853,34.0226848 C69.642262,33.6451235 68.915941,32.9363682 68.72004,32.7247194 C68.522557,32.5130706 68.038343,31.9699123 67.909219,31.7819203 C67.652237,31.9699123 67.387977,32.3266557 67.387977,32.928798 C67.387977,33.8703355 68.053217,34.4756321 68.840302,34.4756321 C69.423891,34.4756321 69.92298,34.1737724 70.081853,34.0226848 Z M67.713318,31.4961471 C67.39399,31.0728495 67.334492,30.7634196 67.326896,30.4230782 C67.319617,29.8281906 67.849721,29.0361636 69.165327,29.0361636 C69.536874,29.0361636 69.87709,29.1118651 70.081853,29.1945059 C70.209394,29.2405577 70.209394,29.3011189 70.209394,29.3900681 C70.209394,29.6401985 70.150212,30.2426563 70.126476,30.3549469 C70.111602,30.4703917 70.081853,30.4836395 70.035646,30.4836395 C69.989757,30.4836395 69.983744,30.4543051 69.983744,30.3416991 C69.983744,30.1448752 69.930259,29.9035767 69.764107,29.7083299 C69.612513,29.5263308 69.34667,29.3679885 68.923537,29.3679885 C68.605474,29.3679885 68.113981,29.586892 68.113981,30.2294086 C68.113981,30.9365868 68.764664,31.5406217 69.370406,32.2108954 C69.627388,32.5070776 70.558471,33.3432638 70.701203,33.4719563 C70.854063,33.2603075 71.066421,32.7688786 71.066421,32.3102537 C71.066421,32.1976477 71.03509,32.0617004 70.92084,31.9623422 C70.824314,31.8721312 70.663859,31.8497362 70.550876,31.8497362 C70.504986,31.8497362 70.459096,31.8336496 70.459096,31.789175 C70.459096,31.7286138 70.519861,31.7137889 70.580941,31.7137889 C70.761968,31.7137889 71.066421,31.7210436 71.489555,31.7670954 C71.631971,31.7819203 71.746536,31.8276566 71.746536,31.9178675 C71.746536,32.4995074 71.43607,33.1997463 71.005341,33.7060002 C71.512025,34.1204659 71.851924,34.3245445 72.057003,34.4444052 C72.298793,34.5879227 72.714648,34.7093605 72.866242,34.7093605 C72.934601,34.7093605 72.973212,34.7169307 72.973212,34.7774919 C72.973212,34.8219665 72.912131,34.8456232 72.745979,34.8456232 L72.162391,34.8456232 C71.299667,34.8456232 71.027811,34.7610899 70.377445,34.2639833 C70.126476,34.4888799 69.620109,34.9506591 68.583321,34.9506591 C66.963261,34.9506591 66.479047,33.9381514 66.479047,33.2827026 C66.479047,32.4004646 67.258853,31.7137889 67.713318,31.4961471 Z M85.286776,32.9689198 C85.335513,32.9689198 85.345957,32.9392701 85.335513,32.9111974 L84.457915,30.5224996 C84.44937,30.4824408 84.43861,30.4335503 84.410443,30.4335503 C84.38101,30.4335503 84.361389,30.4824408 84.350945,30.5224996 L83.455624,32.9007885 C83.44518,32.9392701 83.455624,32.9689198 83.494234,32.9689198 L85.286776,32.9689198 Z M94.16492,31.4052106 C94.16492,29.9296622 94.16492,29.6571367 94.145298,29.3464451 C94.126309,29.0161973 94.0282,28.8506003 93.814576,28.8029714 C93.706024,28.7736371 93.579748,28.7648053 93.462334,28.7648053 C93.366125,28.7648053 93.306626,28.7439873 93.306626,28.6670241 C93.306626,28.6077246 93.385113,28.5900609 93.541138,28.5900609 C93.910786,28.5900609 94.526023,28.6181336 94.80769,28.6181336 C95.051379,28.6181336 95.626107,28.5900609 95.995755,28.5900609 C96.123613,28.5900609 96.200834,28.6077246 96.200834,28.6670241 C96.200834,28.7439873 96.142918,28.7648053 96.044809,28.7648053 C95.9486,28.7648053 95.869796,28.7736371 95.752382,28.7928779 C95.489704,28.8417685 95.412166,29.0073655 95.393178,29.3464451 C95.371973,29.6571367 95.371973,29.9296622 95.371973,31.4052106 L95.371973,33.1144875 C95.371973,34.056025 95.371973,34.8240798 95.412166,35.2413844 C95.440333,35.5050779 95.508693,35.6779297 95.801437,35.7164113 C95.938156,35.7372292 96.15178,35.7552083 96.298943,35.7552083 C96.405913,35.7552083 96.454651,35.7845427 96.454651,35.8334332 C96.454651,35.9015646 96.375847,35.9312143 96.268877,35.9312143 C95.626107,35.9312143 95.013085,35.9015646 94.750091,35.9015646 C94.526023,35.9015646 93.910786,35.9312143 93.521833,35.9312143 C93.393975,35.9312143 93.327514,35.9015646 93.327514,35.8334332 C93.327514,35.7845427 93.366125,35.7552083 93.483222,35.7552083 C93.628803,35.7552083 93.746217,35.7372292 93.833565,35.7164113 C94.0282,35.6779297 94.086116,35.5123327 94.115865,35.2309754 C94.16492,34.8240798 94.16492,34.056025 94.16492,33.1144875 L94.16492,31.4052106 Z M99.05583,32.4732958 C99.05583,33.50189 99.066274,34.2510194 99.075135,34.4342802 C99.085579,34.6771558 99.104884,35.0663877 99.181789,35.1730007 C99.309963,35.3581539 99.690055,35.5622326 100.459418,35.5622326 C101.452531,35.5622326 102.116506,35.3669858 102.700094,34.8623091 C103.32356,34.3292443 103.518511,33.4441676 103.518511,32.443646 C103.518511,31.2109732 103.002966,30.4145303 102.582997,30.0164665 C101.687043,29.1623012 100.576515,29.0468564 99.816014,29.0468564 C99.621696,29.0468564 99.260592,29.0752445 99.181789,29.1137261 C99.09444,29.1522077 99.066274,29.2007828 99.066274,29.3073958 C99.05583,29.6376436 99.05583,30.4826616 99.05583,31.2507165 L99.05583,32.4732958 Z M97.838016,31.4046429 C97.838016,29.9290944 97.838016,29.6581461 97.81871,29.3474545 C97.799405,29.015945 97.720602,28.8620186 97.400008,28.7938873 C97.322786,28.7730693 97.156318,28.7642375 97.019599,28.7642375 C96.912945,28.7642375 96.855029,28.7434196 96.855029,28.6768653 C96.855029,28.6090494 96.921807,28.5894932 97.06897,28.5894932 C97.584199,28.5894932 98.199119,28.6191429 98.470659,28.6191429 C98.77353,28.6191429 99.386868,28.5894932 99.972355,28.5894932 C101.189853,28.5894932 102.817508,28.5894932 103.878982,29.6966277 C104.366044,30.2013044 104.823674,31.0078408 104.823674,32.1626042 C104.823674,33.3864452 104.308445,34.3191508 103.761884,34.8724026 C103.315015,35.3297659 102.300697,36.0195958 100.498028,36.0195958 C100.147369,36.0195958 99.747971,35.988369 99.378323,35.9587192 C99.006775,35.9306466 98.666876,35.9013122 98.423187,35.9013122 C98.314634,35.9013122 98.100694,35.9013122 97.867765,35.9114058 C97.64338,35.9114058 97.389564,35.9306466 97.194929,35.9306466 C97.06897,35.9306466 97.00061,35.9013122 97.00061,35.8344426 C97.00061,35.7842903 97.039221,35.7562177 97.156318,35.7562177 C97.301899,35.7562177 97.419313,35.7369769 97.506661,35.716159 C97.701613,35.6776774 97.750351,35.4644515 97.788961,35.1834096 C97.838016,34.7761986 97.838016,34.0081438 97.838016,33.1158123 L97.838016,31.4046429 Z M108.606145,32.9689198 C108.6552,32.9689198 108.664061,32.9392701 108.6552,32.9111974 L107.777601,30.5224996 C107.76874,30.4824408 107.757979,30.4335503 107.728547,30.4335503 C107.70038,30.4335503 107.679492,30.4824408 107.670631,30.5224996 L106.773727,32.9007885 C106.764866,32.9392701 106.773727,32.9689198 106.812338,32.9689198 L108.606145,32.9689198 Z M113.536932,32.4732958 C113.536932,33.50189 113.547059,34.2510194 113.556237,34.4342802 C113.566681,34.6771558 113.58567,35.0663877 113.662891,35.1730007 C113.790749,35.3581539 114.171157,35.5622326 114.94052,35.5622326 C115.933633,35.5622326 116.597608,35.3669858 117.181197,34.8623091 C117.804662,34.3292443 117.999613,33.4441676 117.999613,32.443646 C117.999613,31.2109732 117.484068,30.4145303 117.064099,30.0164665 C116.168145,29.1623012 115.057617,29.0468564 114.297116,29.0468564 C114.102798,29.0468564 113.741694,29.0752445 113.662891,29.1137261 C113.575542,29.1522077 113.547059,29.2007828 113.547059,29.3073958 C113.536932,29.6376436 113.536932,30.4826616 113.536932,31.2507165 L113.536932,32.4732958 Z M124.119225,32.4732958 C124.119225,33.50189 124.129352,34.2510194 124.13853,34.4342802 C124.148974,34.6771558 124.167962,35.0663877 124.245183,35.1730007 C124.373041,35.3581539 124.753134,35.5622326 125.522496,35.5622326 C126.515926,35.5622326 127.179901,35.3669858 127.763489,34.8623091 C128.386954,34.3292443 128.581906,33.4441676 128.581906,32.443646 C128.581906,31.2109732 128.06636,30.4145303 127.646392,30.0164665 C126.750437,29.1623012 125.63991,29.0468564 124.879409,29.0468564 C124.684774,29.0468564 124.323987,29.0752445 124.245183,29.1137261 C124.157835,29.1522077 124.129352,29.2007828 124.129352,29.3073958 C124.119225,29.6376436 124.119225,30.4826616 124.119225,31.2507165 L124.119225,32.4732958 Z M122.90141,31.4046429 C122.90141,29.9290944 122.90141,29.6581461 122.882105,29.3474545 C122.8628,29.015945 122.785579,28.8620186 122.463402,28.7938873 C122.385865,28.7730693 122.219713,28.7642375 122.082994,28.7642375 C121.97634,28.7642375 121.918424,28.7434196 121.918424,28.6768653 C121.918424,28.6090494 121.985201,28.5894932 122.132364,28.5894932 C122.647594,28.5894932 123.262197,28.6191429 123.534053,28.6191429 C123.836925,28.6191429 124.450262,28.5894932 125.035434,28.5894932 C126.252931,28.5894932 127.880903,28.5894932 128.942376,29.6966277 C129.429439,30.2013044 129.887069,31.0078408 129.887069,32.1626042 C129.887069,33.3864452 129.371839,34.3191508 128.825279,34.8724026 C128.378093,35.3297659 127.364092,36.0195958 125.561106,36.0195958 C125.210447,36.0195958 124.811366,35.988369 124.441401,35.9587192 C124.07017,35.9306466 123.730271,35.9013122 123.486581,35.9013122 C123.378029,35.9013122 123.164089,35.9013122 122.931159,35.9114058 C122.706775,35.9114058 122.452958,35.9306466 122.258323,35.9306466 C122.132364,35.9306466 122.064005,35.9013122 122.064005,35.8344426 C122.064005,35.7842903 122.102615,35.7562177 122.219713,35.7562177 C122.365294,35.7562177 122.482708,35.7369769 122.570056,35.716159 C122.765008,35.6776774 122.813745,35.4644515 122.852356,35.1834096 C122.90141,34.7761986 122.90141,34.0081438 122.90141,33.1158123 L122.90141,31.4046429 Z M131.19489,31.4052106 C131.19489,29.9296622 131.19489,29.6571367 131.175268,29.3464451 C131.156279,29.0161973 131.077476,28.8610093 130.756565,28.7928779 C130.678078,28.7736371 130.513192,28.7648053 130.376473,28.7648053 C130.268237,28.7648053 130.210321,28.7439873 130.210321,28.675856 C130.210321,28.6077246 130.278364,28.5900609 130.423945,28.5900609 C130.688205,28.5900609 130.970505,28.5988928 131.214195,28.5988928 C131.468012,28.6077246 131.690813,28.6181336 131.827533,28.6181336 C132.139265,28.6181336 134.078653,28.6181336 134.264427,28.6077246 C134.448618,28.5900609 134.604326,28.569243 134.68313,28.5500022 C134.732184,28.5399087 134.7901,28.5115206 134.839154,28.5115206 C134.888209,28.5115206 134.89707,28.5500022 134.89707,28.5988928 C134.89707,28.6670241 134.848016,28.7837306 134.818267,29.2294232 C134.809405,29.3272043 134.7901,29.7549178 134.770795,29.8719398 C134.760667,29.9192532 134.741046,29.9785527 134.672686,29.9785527 C134.604326,29.9785527 134.585338,29.9296622 134.585338,29.8407129 C134.585338,29.7725815 134.576476,29.6082462 134.527105,29.4931168 C134.458746,29.3183725 134.360953,29.2013506 133.873891,29.1436282 C133.709005,29.1228103 132.685826,29.1035695 132.491507,29.1035695 C132.442136,29.1035695 132.423148,29.1332192 132.423148,29.2013506 L132.423148,31.6581798 C132.423148,31.7263112 132.431693,31.7647928 132.491507,31.7647928 C132.705131,31.7647928 133.824837,31.7647928 134.049221,31.7439749 C134.283732,31.7263112 134.429313,31.6966614 134.516978,31.6004574 C134.585338,31.5222325 134.625214,31.473342 134.672686,31.473342 C134.712879,31.473342 134.741046,31.4938445 134.741046,31.5515669 C134.741046,31.6092893 134.702435,31.7647928 134.663824,32.2593759 C134.653697,32.4546227 134.625214,32.8438546 134.625214,32.9116706 C134.625214,32.9873721 134.625214,33.0952467 134.536283,33.0952467 C134.469506,33.0952467 134.448618,33.0555034 134.448618,33.00819 C134.439757,32.9116706 134.439757,32.7845551 134.410008,32.6587014 C134.360953,32.4647163 134.225816,32.31836 133.86503,32.2798784 C133.679572,32.2593759 132.713993,32.2502287 132.480747,32.2502287 C132.431693,32.2502287 132.423148,32.2902874 132.423148,32.3480098 L132.423148,33.1144875 C132.423148,33.4447353 132.412704,34.3370668 132.423148,34.6196858 C132.442136,35.2902749 132.598477,35.4353695 133.591591,35.4353695 C133.845724,35.4353695 134.253983,35.4353695 134.506534,35.3199247 C134.760667,35.2016411 134.877765,34.9988241 134.946124,34.600445 C134.96543,34.493832 134.984735,34.4553504 135.052778,34.4553504 C135.130316,34.4553504 135.130316,34.532629 135.130316,34.6304101 C135.130316,34.8521525 135.052778,35.5123327 135.00404,35.7078949 C134.936947,35.959287 134.848016,35.959287 134.478367,35.959287 C133.747616,35.959287 133.211499,35.9400462 132.792796,35.9312143 C132.374093,35.9119735 132.071222,35.9015646 131.780061,35.9015646 C131.671508,35.9015646 131.457568,35.9015646 131.224639,35.9119735 C131.000255,35.9119735 130.746438,35.9312143 130.551803,35.9312143 C130.423945,35.9312143 130.357484,35.9015646 130.357484,35.8334332 C130.357484,35.7845427 130.396095,35.7552083 130.513192,35.7552083 C130.658773,35.7552083 130.776187,35.7372292 130.863535,35.7164113 C131.05817,35.6779297 131.107225,35.4650192 131.145835,35.183662 C131.19489,34.7751893 131.19489,34.0083961 131.19489,33.1144875 L131.19489,31.4052106 Z M150.030374,32.4732958 C150.030374,33.50189 150.040501,34.2510194 150.049679,34.4342802 C150.060123,34.6771558 150.079112,35.0663877 150.156333,35.1730007 C150.28419,35.3581539 150.664283,35.5622326 151.433645,35.5622326 C152.427075,35.5622326 153.09105,35.3669858 153.674638,34.8623091 C154.298104,34.3292443 154.493055,33.4441676 154.493055,32.443646 C154.493055,31.2109732 153.97751,30.4145303 153.557541,30.0164665 C152.661587,29.1623012 151.551059,29.0468564 150.790558,29.0468564 C150.595923,29.0468564 150.235136,29.0752445 150.156333,29.1137261 C150.068984,29.1522077 150.040501,29.2007828 150.040501,29.3073958 C150.030374,29.6376436 150.030374,30.4826616 150.030374,31.2507165 L150.030374,32.4732958 Z M148.81256,31.4046429 C148.81256,29.9290944 148.81256,29.6581461 148.793254,29.3474545 C148.773949,29.015945 148.696728,28.8620186 148.374551,28.7938873 C148.297014,28.7730693 148.130862,28.7642375 147.994143,28.7642375 C147.887489,28.7642375 147.829573,28.7434196 147.829573,28.6768653 C147.829573,28.6090494 147.896351,28.5894932 148.043514,28.5894932 C148.558743,28.5894932 149.173346,28.6191429 149.445203,28.6191429 C149.748074,28.6191429 150.361412,28.5894932 150.946583,28.5894932 C152.16408,28.5894932 153.792052,28.5894932 154.853526,29.6966277 C155.340588,30.2013044 155.798218,31.0078408 155.798218,32.1626042 C155.798218,33.3864452 155.282989,34.3191508 154.736428,34.8724026 C154.289242,35.3297659 153.275241,36.0195958 151.472256,36.0195958 C151.121596,36.0195958 150.722515,35.988369 150.35255,35.9587192 C149.981319,35.9306466 149.64142,35.9013122 149.397731,35.9013122 C149.289178,35.9013122 149.075238,35.9013122 148.842309,35.9114058 C148.617924,35.9114058 148.364108,35.9306466 148.169473,35.9306466 C148.043514,35.9306466 147.975154,35.9013122 147.975154,35.8344426 C147.975154,35.7842903 148.013765,35.7562177 148.130862,35.7562177 C148.276443,35.7562177 148.393857,35.7369769 148.481205,35.716159 C148.676157,35.6776774 148.724895,35.4644515 148.763505,35.1834096 C148.81256,34.7761986 148.81256,34.0081438 148.81256,33.1158123 L148.81256,31.4046429 Z M159.579803,32.9689198 C159.628857,32.9689198 159.639301,32.9392701 159.628857,32.9111974 L158.751259,30.5224996 C158.742397,30.4824408 158.731954,30.4335503 158.70347,30.4335503 C158.674038,30.4335503 158.654733,30.4824408 158.644289,30.5224996 L157.748967,32.9007885 C157.738524,32.9392701 157.748967,32.9689198 157.787578,32.9689198 L159.579803,32.9689198 Z M157.592943,33.4543557 C157.543889,33.4543557 157.524583,33.4735965 157.505278,33.532896 L156.979605,34.8620883 C156.881813,35.1046485 156.832442,35.3386923 156.832442,35.4553988 C156.832442,35.6301431 156.920423,35.7559969 157.223295,35.7559969 L157.368875,35.7559969 C157.484707,35.7559969 157.514456,35.7752377 157.514456,35.8342218 C157.514456,35.9115004 157.456224,35.9307412 157.349253,35.9307412 C157.037521,35.9307412 156.618818,35.9010914 156.315947,35.9010914 C156.208977,35.9010914 155.67286,35.9307412 155.166492,35.9307412 C155.040217,35.9307412 154.981035,35.9115004 154.981035,35.8342218 C154.981035,35.7752377 155.020912,35.7559969 155.098133,35.7559969 C155.185798,35.7559969 155.322517,35.747165 155.401004,35.7367561 C155.84819,35.6774566 156.033647,35.3475242 156.228282,34.8620883 L158.674038,28.8412953 C158.791452,28.5599381 158.849051,28.4533251 158.94716,28.4533251 C159.034825,28.4533251 159.092741,28.5406973 159.190849,28.7640167 C159.425677,29.2983431 160.983391,33.1837229 161.606856,34.6592713 C161.976821,35.532362 162.260387,35.6686247 162.463883,35.7159382 C162.61073,35.747165 162.756311,35.7559969 162.873725,35.7559969 C162.952212,35.7559969 163,35.7664058 163,35.8342218 C163,35.9115004 162.912335,35.9307412 162.551548,35.9307412 C162.200889,35.9307412 161.489758,35.9307412 160.709952,35.9115004 C160.534939,35.9010914 160.417209,35.9010914 160.417209,35.8342218 C160.417209,35.7752377 160.457401,35.7559969 160.553928,35.747165 C160.622287,35.7263471 160.690647,35.6405521 160.641593,35.5235302 L159.862103,33.5224871 C159.842798,33.4735965 159.814631,33.4543557 159.765577,33.4543557 L157.592943,33.4543557 Z M0.665304,25.2480919 L0.665304,24.7080878 L161.719333,24.7080878 L161.719333,25.2480919 L0.665304,25.2480919 Z M66.990763,41.7613341 L65.433049,43 L66.133736,41.1412126 L64.470634,40.0473259 L66.460659,40.1362752 L66.990763,38.2210271 L67.519284,40.1362752 L69.510891,40.0473259 L67.84779,41.1412126 L68.548476,43 L66.990763,41.7613341 Z M74.09162,41.7613341 L72.533906,43 L73.233327,41.1412126 L71.571491,40.0473259 L73.561516,40.1362752 L74.09162,38.2210271 L74.620141,40.1362752 L76.611748,40.0473259 L74.948647,41.1412126 L75.649333,43 L74.09162,41.7613341 Z M81.192635,41.7613341 L79.634921,43 L80.334342,41.1412126 L78.672823,40.0473259 L80.662531,40.1362752 L81.192635,38.2210271 L81.721473,40.1362752 L83.712763,40.0473259 L82.049662,41.1412126 L82.749082,43 L81.192635,41.7613341 Z M88.293017,41.7613341 L86.734987,43 L87.43599,41.1412126 L85.772888,40.0473259 L87.764179,40.1362752 L88.293017,38.2210271 L88.823121,40.1362752 L90.813145,40.0473259 L89.15131,41.1412126 L89.85073,43 L88.293017,41.7613341 Z M95.394032,41.7613341 L93.836319,43 L94.537005,41.1412126 L92.873904,40.0473259 L94.865194,40.1362752 L95.394032,38.2210271 L95.924136,40.1362752 L97.914161,40.0473259 L96.250743,41.1412126 L96.951746,43 L95.394032,41.7613341 Z M100.552653,40.5148773 L100.552653,39.976135 L161.719333,39.976135 L161.719333,40.5148773 L100.552653,40.5148773 Z M0.66562,40.5148773 L0.66562,39.976135 L62.100992,39.976135 L62.100992,40.5148773 L0.66562,40.5148773 Z" id="Combined-Shape" fill="#0079D4" fill-rule="nonzero"></path>
    </g>
</svg>