<?xml version="1.0" encoding="utf-8"?>
<!-- Generator: Adobe Illustrator 20.0.0, SVG Export Plug-In . SVG Version: 6.00 Build 0)  -->
<svg version="1.1" id="Layer_1" xmlns="http://www.w3.org/2000/svg" xmlns:xlink="http://www.w3.org/1999/xlink" x="0px" y="0px"
	 viewBox="0 0 50 45.6" style="enable-background:new 0 0 50 45.6;" xml:space="preserve">
<path d="M25,45.6l-0.6-0.4C23.4,44.5,0,29.5,0,15.2C0,8.5,2.8,3.5,7.8,1.2c5.1-2.3,11.6-1,17.2,3.4C29.8,0.2,36-1.2,41.4,1
	S50,8.5,50,15.2c0,14.3-23.4,29.3-24.4,29.9L25,45.6z M13.2,2.5c-1.6,0-3,0.3-4.4,0.9c-4,1.9-6.4,6.1-6.4,11.8
	C2.4,27,21.2,40.2,25,42.7c3.7-2.5,22.6-15.7,22.6-27.5c0-5.7-2.6-10.2-7.1-12c-4.8-2-10.4-0.4-14.7,3.9l-0.8,0.8l-0.8-0.7
	C20.7,4.1,16.8,2.5,13.2,2.5z"/>
</svg>
