<?xml version="1.0" encoding="utf-8"?>
<!-- Generator: Adobe Illustrator 20.0.0, SVG Export Plug-In . SVG Version: 6.00 Build 0)  -->
<svg version="1.1" id="Layer_1" xmlns="http://www.w3.org/2000/svg" xmlns:xlink="http://www.w3.org/1999/xlink" x="0px" y="0px"
	 viewBox="0 0 122 180" style="enable-background:new 0 0 122 180;" xml:space="preserve">
<style type="text/css">
	.st0{fill:#82BC00;}
	.st1{fill:#666666;}
</style>
<title>Asset 1</title>
<g>
	<path class="st0" d="M68.7,69.5c-2-24.2-8.5-47.7-19.2-69.5H0v73.8c6.8,0,13.9,1,21.1,1C37.1,74.8,53.1,73.1,68.7,69.5 M68.7,79.4
		c-10.8,2.7-21.9,4-33.1,4c-12,0.1-24-1.4-35.6-4.4V180h58c8-26.6,11.9-54.2,11.5-82c0-6.3,0-12.5,0-18.6H68.7z"/>
	<path class="st1" d="M52.5,0c12.2,21,19.9,44.2,22.7,68.2c17.1-4.1,33.1-11.8,46.8-22.7V0H52.5z M76.6,98c-0.6,28-6,55.7-15.8,81.9
		H122V48.8c-12.5,13.7-28.5,23.8-46.3,29.1C76.3,84.5,76.6,91.2,76.6,98z"/>
</g>
</svg>
