<?xml version="1.0" encoding="utf-8"?>
<!-- Generator: Adobe Illustrator 20.0.0, SVG Export Plug-In . SVG Version: 6.00 Build 0)  -->
<svg version="1.1" id="Layer_1" xmlns="http://www.w3.org/2000/svg" xmlns:xlink="http://www.w3.org/1999/xlink" x="0px" y="0px"
	 viewBox="0 0 50 69.9" style="enable-background:new 0 0 50 69.9;" xml:space="preserve">
<g>
	<path d="M46.8,0.7c-0.4-0.6-1.1-0.8-1.7-0.6c-0.7,0.2-1.1,0.8-1.1,1.5c0,0.2,0.2,5.2-6.3,9.3c-2.2,1.4-5.1,2.4-8.5,3.5
		c-8.4,2.9-19,6.4-25.4,18.7c-8.3,15.7-0.7,33.4,0.9,36.8l4.8-2.7c-2.3-3-8.2-11.8-5.3-19.7c3.6-9.8,19.5-14.8,19.7-14.9l-0.6-2
		c-0.6,0.2-14.4,4.6-19.8,13.7c0.5-3.2,1.4-6.5,3.1-9.7C12.4,23.3,22.3,20,30.2,17.3c3.4-1.2,6.6-2.2,9.1-3.8
		c3.6-2.3,5.5-4.9,6.5-7.1c1.7,5.8,2.9,17.2-7.9,30.3C22.4,55.5,7.9,50.9,7.3,50.7l-0.5,1.4l-0.5,1.4c0.7,0.2,17.1,5.6,34-15
		C57.2,18,46.9,0.9,46.8,0.7z"/>
</g>
</svg>
