<?xml version="1.0" encoding="utf-8"?>
<!-- Generator: Adobe Illustrator 18.0.0, SVG Export Plug-In . SVG Version: 6.00 Build 0)  -->
<!DOCTYPE svg PUBLIC "-//W3C//DTD SVG 1.1//EN" "http://www.w3.org/Graphics/SVG/1.1/DTD/svg11.dtd">
<svg version="1.1" id="Layer_1" xmlns="http://www.w3.org/2000/svg" xmlns:xlink="http://www.w3.org/1999/xlink" x="0px" y="0px"
	 viewBox="0 830.4 595.3 48.4" enable-background="new 0 830.4 595.3 48.4" xml:space="preserve">
<g>
	<g>
		<path fill="#FFFFFF" d="M561.2,856.6l11.5-25.7c-136.5,0-63.8,0-211.4,0h-0.4l-16,11.1l-2.2-11.5h-30.1l-16.8,28.8l6.6-15.1
			c1.3-3.1,0.9-6.2-0.9-8.9c-2.2-3.5-6.2-4.4-10.2-4.4h-85.1l-11.5,25.7h-16.4l11.5-25.7h-29.3l-11.5,25.3h-15.1l11.5-25.7h-29.7
			l-0.9,1.8c-2.7-1.3-6.2-1.3-9.3-1.3c-9.8,0-19.5,0-29.3,0h-66L0,853.1h18.2L6.6,878.8h29.7l11.5-25.7h9.3l-11.5,25.7h29.7l4-9.3
			h0.4l-4,9.3h3.1c59.4,0,118.8,0,178.2,0h1.3l3.1-7.5l7.5,7.5h14.2l0,0H316l2.7-5.3l0.9,5.3h19.5l4.9-4l-1.8,4h90
			c2.2,0,4.4-0.4,5.8-1.8c2.2,1.3,4.9,1.8,7.5,1.8h36.3c2.2,0,4-0.4,5.8-1.3c3.5,1.8,8,1.3,12,1.3c24.8,0,50.1,0,74.9,0h0.9
			l19.9-22.2H561.2z M574.9,877H500c-3.5,0-8.4,0.4-12-1.8c-1.3,1.3-3.5,1.8-5.8,1.8h-36.3c-2.7,0-5.3-0.4-7.5-2.2
			c-1.8,1.3-3.5,2.2-5.8,2.2h-86.4l4-8.9l-11.1,8.9h-17.3l-1.3-9.8l-5.3,9.8h-27.9l0,0h-17.3l-8.9-8.9l-4,8.9
			c-60.3,0-116.6,0-178.2,0l4-8.9H78l-4,9.3H48.8l11.5-25.7H46.5L35,877.4H9.8l11.5-25.7H3.1l8.4-18.6h64.7c9.8,0,19.5,0,29.3,0
			c3.5,0,7.5,0.4,10.2,2.2l0.9-2.2h25.3l-11.5,25.7h19.5l11.5-25.7h25.3l-11.5,25.3h20.8l11.5-25.7h83.8c3.1,0,6.6,0.9,8.4,3.5
			c1.3,2.2,1.8,4.9,0.4,7.1l-6.6,15.1c-0.9,2.2-2.7,4.4-4.4,5.8l3.5,3.5l20.8-35.5h27l2.2,12.9l18.2-12.9c124.6,0,86,0,208.8,0
			L558,857.9h32.8L574.9,877z M293.4,863.2l-0.9,1.8l-0.4-0.4C292.5,864.1,292.5,863.7,293.4,863.2z"/>
	</g>
	<g>
		<path fill="#FFFFFF" d="M289,857l6.6-15.1c0.4-0.9,0.4-4-4.4-4h-36.3l-4,8.9h24.4c0,0,3.5-0.4,2.2,2.7l-1.3,2.7
			c0,0.4-0.9,1.3-4.4,1.3c-4.4,0-23.9,0-23.9,0l-8.4,18.6H254l4.4-9.8h3.5l10.2,9.8H289l-10.2-9.8h1.3
			C280.6,861.9,286.3,862.8,289,857z"/>
		<polygon fill="#FFFFFF" points="68.7,838 14.6,838 10.6,846.4 28.8,846.4 17.7,872.1 31.9,872.1 43,846.4 64.7,846.4 		"/>
		<path fill="#FFFFFF" d="M102.4,838H71.8l-15.5,34.1h14.6l4-8.9h16l-4,8.9h14.6l11.5-25.7C116.6,837.1,108.6,838,102.4,838z
			 M97.5,848.6l-3.1,7.1h-16l3.1-7.1c0.4-0.9,1.3-1.8,2.2-1.8h12.9C98,846.8,97.5,847.7,97.5,848.6z"/>
		<path fill="#FFFFFF" d="M213.6,862.8l1.8-4h14.2l4-8.4h-14.2l1.8-4h26.6l4-8.9H211l-12,27c-3.5,8,1.3,7.5,8.9,7.5h29.3l4-8.9
			L213.6,862.8z"/>
		<path fill="#FFFFFF" d="M126.3,862.8c-0.9,0-2.2,0-2.7-0.9c-0.4-0.9,0-1.3,0-2.2l10.2-22.6h-14.2L107.3,865
			c-1.8,4.4,0,6.2,4.9,6.2h32.8l7.5-8.9L126.3,862.8L126.3,862.8z"/>
		<path fill="#FFFFFF" d="M168.9,862.4c-0.4-0.9,0-1.3,0-2.2l10.2-22.6h-14.2l-12.4,27.9c-1.8,4.4,0,6.2,4.9,6.2h32.8l7.5-8.9h-26.2
			C170.6,862.8,169.3,862.8,168.9,862.4z"/>
	</g>
	<g>
		<path fill="#FFFFFF" d="M554.1,862.8c-0.9,0-2.2,0-2.7-0.9s0-1.3,0-2.2l10.2-22.6h-14.2l-12.9,28.4c-1.8,4.4,0,6.6,4.9,6.6h32.8
			l7.5-8.9L554.1,862.8L554.1,862.8z"/>
		<path fill="#FFFFFF" d="M486.2,838l-11.1,24.4c-0.4,0.9-0.9,0.9-1.8,0.9h-12.9c-0.9,0-2.2,0-2.7-0.9c-0.4-0.9,0-1.3,0-2.2
			l10.2-22.2h-14.2L441,865.9c-0.9,1.3-1.3,3.1-0.4,4.4c0.9,1.3,3.5,1.8,5.3,1.8h36.3c1.8,0,3.1-0.9,3.5-2.2L500,838L486.2,838
			L486.2,838z"/>
		<path fill="#FFFFFF" d="M508.4,858.8h14.2l4-8.4h-14.6l1.8-4h26.6l4-8.9h-41.2l-12,27c-3.5,8,1.3,7.5,8.9,7.5h29.3l4-8.9h-27
			L508.4,858.8z"/>
		<path fill="#FFFFFF" d="M421.1,854.4l-5.3,6.6H426l-0.9,1.3c-0.4,0.9-0.9,0.9-1.8,0.9h-14.2c-1.3,0-1.8-0.9-0.9-2.2l5.8-13.3
			c0.4-0.9,0.9-0.9,1.8-0.9h27.5l7.5-8.9h-43.9c-1.8,0-3.1,0.9-3.5,2.2l-11.5,25.7c-0.9,1.3-1.3,3.1-0.4,4.4
			c0.9,1.3,3.5,1.8,5.3,1.8h36.3c1.8,0,3.1-0.9,3.5-2.2c2.2-5.3,4.4-10.6,7.1-15.5L421.1,854.4z"/>
		<polygon fill="#FFFFFF" points="386.5,838 371,872.1 385.6,872.1 401.1,838 		"/>
		<polygon fill="#FFFFFF" points="362.6,838 339.5,854.4 336.4,838 316,838 296.1,872.1 312.5,872.1 323.1,851.3 326.2,872.1 
			337.3,872.1 363,851.3 353.7,872.1 368.3,872.1 383.9,838 		"/>
	</g>
</g>
</svg>
