<?xml version="1.0" encoding="utf-8"?>
<!-- Generator: Adobe Illustrator 18.0.0, SVG Export Plug-In . SVG Version: 6.00 Build 0)  -->
<!DOCTYPE svg PUBLIC "-//W3C//DTD SVG 1.1//EN" "http://www.w3.org/Graphics/SVG/1.1/DTD/svg11.dtd">
<svg version="1.1" id="Layer_1" xmlns="http://www.w3.org/2000/svg" xmlns:xlink="http://www.w3.org/1999/xlink" x="0px" y="0px"
	 viewBox="79.4 392.8 520.1 42.2" enable-background="new 79.4 392.8 520.1 42.2" xml:space="preserve">
<g>
	<path fill-rule="evenodd" clip-rule="evenodd" fill="#FFFFFF" d="M569.6,414.9l10-22.1c-119.4,0-55.7,0.1-184.9,0.1h-0.6l-14,10
		l-1.8-10h-26.2l-14.7,25l5.9-13.1c1.2-2.5,0.9-5.6-0.7-7.9c-2-3-5.4-4.1-8.8-4.1h-74.3l-9.9,22h-14.4l9.9-22l-25.9,0l-10,22.1
		h-13.2l9.9-22l-25.9,0l-0.6,1.4c-2.5-1.2-5.4-1.4-8.1-1.4c-8.5-0.1-17,0-25.5,0H88.4l-8.9,20h15.8l-10,22h25.9l10-22h8.2l-10,22h26
		l3.5-8h0.5l-3.5,8h2.7c51.9,0,103.7,0,155.6,0h1.1l3-6.6l6.6,6.6h12.6l0,0.1l28.5,0l2.5-4.8l0.7,4.7h17l4.3-3.5l-1.6,3.5h78.4
		c1.8,0,3.6-0.5,5.2-1.4c2,1.1,4.3,1.4,6.5,1.4h31.7c1.8,0,3.5-0.4,5-1.3c3.1,1.6,6.9,1.3,10.2,1.3c21.8,0,43.6,0,65.4,0h0.8
		l17.3-20H569.6z M581.4,432.9H516c-3.3,0-7.5,0.3-10.3-1.7c-1.4,1.1-3.1,1.7-4.9,1.7h-31.7c-2.3,0-4.7-0.4-6.6-1.8
		c-1.4,1.2-3.2,1.8-5.1,1.8h-75.7l3.4-7.6l-9.5,7.6h-14.9l-1.3-8.6l-4.4,8.6h-24.4h0h-15l-7.9-7.7l-3.5,7.9
		c-52.8,0-101.9-0.2-155.6-0.2l3.5-8h-4.3l-3.5,8h-22.2l10-22h-12l-10,22H87.9l10-22H82.1l7.4-16h56.4c8.5,0,17-0.2,25.5-0.1
		c3,0,6.4,0.2,8.9,2.1l1-2.2l22,0.1l-9.9,22.2h17l10-22.2l22,0l-9.9,22.1h18.2l9.9-22h73.2c2.8,0,5.7,0.7,7.4,3.1
		c1.2,1.8,1.4,4.2,0.5,6.2l-5.9,13.2c-0.9,2.1-2.3,3.8-4,5l3.2,3.2l18.1-31l23.7,0l2,11.3l15.8-11.3c108.7,0,75.1,0.1,182.2,0.1
		l-10,22.3h28.8L581.4,432.9z M335.5,421.3l-0.9,1.5l-0.3-0.3C334.8,422.1,335.2,421.7,335.5,421.3z"/>
	<g>
		<g>
			<path fill="#FFFFFF" d="M331.9,415.6l6-13.3c0.4-0.9,0.5-3.4-4-3.4h-31.7l-3.5,7.7l21.2,0c0,0,3.1-0.3,1.9,2.3l-1.1,2.4
				c-0.1,0.3-0.7,1.2-3.8,1.2c-3.7,0-20.8,0-20.8,0l-7.3,16.2h12.6l4-8.8h3.2l8.8,8.8h14.8l-8.8-8.8h1.1
				C324.4,420.1,329.7,420.9,331.9,415.6z"/>
			<polygon fill="#FFFFFF" points="139.3,399 92.3,399 88.8,406.7 104.6,406.7 94.6,428.9 107.2,428.9 117.2,406.7 135.9,406.7 			
				"/>
			<path fill="#FFFFFF" d="M168.7,399l-26.5,0l-13.4,29.9h12.7l3.5-7.8h13.8l-3.5,7.8l12.8,0l10.1-22.5
				C181.4,398.4,174.1,399,168.7,399z M164.5,408.2l-2.8,6.2h-13.8l2.8-6.3c0.4-0.9,1.3-1.4,1.9-1.4l11.3,0
				C164.9,406.9,164.8,407.6,164.5,408.2z"/>
			<path fill="#FFFFFF" d="M266.1,421.1l1.6-3.6l12.5,0l3.4-7.2l-12.6,0l1.6-3.5h23.2l3.5-7.7l-35.8,0l-10.6,23.5
				c-3.2,6.9,1.2,6.4,7.5,6.4l25.5,0l3.5-7.8L266.1,421.1z"/>
			<path fill="#FFFFFF" d="M189.9,421.1c-0.7,0-1.8,0-2.2-0.6c-0.5-0.6-0.2-1.3,0.1-1.9l8.8-19.6l-12.5,0l-11,24.4
				c-1.7,3.7-0.1,5.5,4.1,5.5h28.6l6.7-7.8H189.9z"/>
			<path fill="#FFFFFF" d="M226.8,420.4c-0.5-0.6-0.2-1.3,0.1-1.9l8.8-19.6l-12.5,0l-11,24.4c-1.7,3.7-0.1,5.5,4.1,5.5h28.6l6.7-7.8
				H229C228.3,421.1,227.2,421.1,226.8,420.4z"/>
		</g>
		<g>
			<path fill="#FFFFFF" d="M563.5,421.1c-0.7,0-1.8,0-2.2-0.6c-0.5-0.6-0.2-1.3,0.1-1.9l8.8-19.7h-12.6l-11,24.5
				c-1.7,3.7-0.1,5.6,4.2,5.6h28.7l6.8-7.8H563.5z"/>
			<path fill="#FFFFFF" d="M504,398.9l-9.6,21.3c-0.3,0.6-0.9,0.9-1.5,0.9h-11.2c-0.7,0-1.7-0.1-2.2-0.7c-0.5-0.6-0.2-1.3,0.1-1.9
				l8.8-19.6h-12.6l-11,24.6c-0.6,1.3-1.2,2.6-0.3,3.9c0.9,1.3,3,1.5,4.5,1.5l31.7,0c1.4,0,2.6-0.7,3.2-1.9l12.6-28.1H504z"/>
			<path fill="#FFFFFF" d="M523.4,417.5l12.5,0l3.4-7.3l-12.6,0l1.7-3.5h23.3l3.5-7.8l-36,0l-10.6,23.6c-3.2,6.9,1.2,6.4,7.5,6.4
				l25.6,0l3.6-7.8l-23.5,0L523.4,417.5z"/>
			<path fill="#FFFFFF" d="M447.4,413.3l-4.9,5.6l9,0l-0.6,1.2c-0.3,0.6-0.9,0.9-1.6,0.9H437c-1.4,0-1.5-0.8-1-1.9l5.2-11.5
				c0.3-0.6,0.9-0.9,1.6-0.9h24.1l6.4-7.8h-38.3c-1.4,0-2.7,0.7-3.3,2l-10.1,22.6c-0.7,1.3-1.3,2.6-0.4,3.9c0.9,1.3,3,1.5,4.5,1.5
				h31.7c1.4,0,2.7-0.7,3.3-2c2.2-4.6,4-9.1,6.1-13.7L447.4,413.3z"/>
			<polygon fill="#FFFFFF" points="417.2,398.9 403.6,428.9 416.2,428.9 429.8,398.9 			"/>
			<polygon fill="#FFFFFF" points="396.1,398.9 375.8,413.3 373.2,398.9 355.6,398.9 338.1,428.9 352.3,428.9 361.6,410.9 
				364.4,428.9 374.1,428.9 396.5,410.9 388.4,428.9 401,428.9 414.5,398.9 			"/>
		</g>
	</g>
</g>
</svg>
