<svg version="1.1" id="Layer_1" xmlns="http://www.w3.org/2000/svg" xmlns:xlink="http://www.w3.org/1999/xlink" x="0px" y="0px"
	 viewBox="0 0 44 52.1" style="enable-background:new 0 0 44 52.1;" xml:space="preserve" width="30">
<style type="text/css">
	.st0{fill:#FFFFFF;}
</style>
<g>
	<rect x="3.9" y="43.3" class="st0" width="0.1" height="0.8"/>
	<rect x="5" y="43.3" class="st0" width="0.1" height="0.8"/>
	<path class="st0" d="M28,27.1v0.4c0-0.3,0-0.4-0.3-0.4H28z"/>
	<path class="st0" d="M28,43.9v0.2h0C28,44.1,28,44,28,43.9z"/>
	<path class="st0" d="M27.7,44.1c0.2,0,0.3,0.1,0.3,0H27.7z M5,43.3v0.8h0.1L5,43.3L5,43.3z M3.9,43.3v0.8H4L3.9,43.3L3.9,43.3z"/>
	<path class="st0" d="M5,43.3v0.8h0.1L5,43.3L5,43.3z"/>
	<path class="st0" d="M5,43.3v0.8h0.1L5,43.3L5,43.3z M3.9,44.1L3.9,44.1L4,43.3H3.9V44.1z"/>
	<rect x="5" y="43.3" class="st0" width="0.1" height="0.8"/>
	<rect x="3.9" y="43.3" class="st0" width="0.1" height="0.8"/>
	<rect x="5" y="43.3" class="st0" width="0.1" height="0.8"/>
</g>
<path class="st0" d="M8.7,33.5c0,0-0.1-0.1-0.1-0.1c0,0,0,0,0,0c0,0-0.1-0.1-0.1-0.1c-0.1,0-0.1-0.2-0.2-0.2h0c-0.2,0-0.3,0-0.5,0
	c-0.2,0-0.5,0-0.9,0H6v3h0.5c0.8,0,1.4-0.2,1.8-0.5c0.1-0.1,0.2-0.1,0.3-0.2c0.2-0.3,0.4-0.6,0.4-1v0C9,34,8.8,33.7,8.7,33.5z
	 M8.7,33.5c0,0-0.1-0.1-0.1-0.1c0,0,0,0,0,0c0,0-0.1-0.1-0.1-0.1c-0.1,0-0.1-0.2-0.2-0.2h0c-0.2,0-0.3,0-0.5,0c-0.2,0-0.5,0-0.9,0H6
	v3h0.5c0.8,0,1.4-0.2,1.8-0.5c0.1-0.1,0.2-0.1,0.3-0.2c0.2-0.3,0.4-0.6,0.4-1v0C9,34,8.8,33.7,8.7,33.5z M8.7,33.5
	c0,0-0.1-0.1-0.1-0.1c0,0,0,0,0,0c0,0-0.1-0.1-0.1-0.1c-0.1,0-0.1-0.2-0.2-0.2h0c-0.2,0-0.3,0-0.5,0c-0.2,0-0.5,0-0.9,0H6v3h0.5
	c0.8,0,1.4-0.2,1.8-0.5c0.1-0.1,0.2-0.1,0.3-0.2c0.2-0.3,0.4-0.6,0.4-1v0C9,34,8.8,33.7,8.7,33.5z M15.9,33.7
	c-0.5-0.5-1.3-0.6-2.3-0.6H12v6h1.3c1.1,0,1.9-0.3,2.5-0.8c0.6-0.5,0.8-1.3,0.8-2.3C16.7,34.9,16.4,34.2,15.9,33.7z M15.9,33.7
	c-0.5-0.5-1.3-0.6-2.3-0.6H12v6h1.3c1.1,0,1.9-0.3,2.5-0.8c0.6-0.5,0.8-1.3,0.8-2.3C16.7,34.9,16.4,34.2,15.9,33.7z M8.7,33.5
	c0,0-0.1-0.1-0.1-0.1c0,0,0,0,0,0c0,0-0.1-0.1-0.1-0.1c-0.1,0-0.1-0.2-0.2-0.2h0c-0.2,0-0.3,0-0.5,0c-0.2,0-0.5,0-0.9,0H6v3h0.5
	c0.8,0,1.4-0.2,1.8-0.5c0.1-0.1,0.2-0.1,0.3-0.2c0.2-0.3,0.4-0.6,0.4-1v0C9,34,8.8,33.7,8.7,33.5z M43.6,14.3L29,0
	c-0.1-0.1-0.3,0.1-0.4,0.1H4.5C4.2,0.1,4-0.1,4,0.2v26.9H0.7c-0.3,0-0.7,0.1-0.7,0.4v16.4c0,0.3,0.4,0.2,0.7,0.2H4v7.7
	c0,0.3,0.2,0.3,0.5,0.3h38.4c0.3,0,1.1,0.1,1.1-0.3V14.6C44,14.4,43.7,14.4,43.6,14.3z M5,32.1h1.8c0.1,0,0.2,0,0.4,0
	c0.2,0,0.4,0,0.6,0.1c1.2,0.2,1.9,0.8,2,2c0,0.1,0,0.2,0,0.3c0,0.1,0,0.1,0,0.2c0,0.4-0.1,0.8-0.3,1.1c0,0.1-0.1,0.2-0.1,0.2
	c-0.1,0.1-0.2,0.3-0.4,0.4c-0.4,0.3-1,0.6-1.6,0.7c-0.2,0-0.5,0.1-0.7,0.1H6v3H5V32.1z M42,51.1H5v-7h23c0,0,0-0.1,0-0.2V27.5
	c0-0.3,0-0.4-0.3-0.4H5v-26h23.3L29,1.4v9.5c0,2,1.2,3.2,3.2,3.2h9.5l0.2,0.7V51.1z M11,40.1v-8h2.7c1.2,0,2.2,0.3,2.9,1
	c0.7,0.7,1,1.6,1,2.8c0,1.3-0.4,2.4-1.1,3.1c-0.7,0.7-1.7,1.1-3.1,1.1H11z M23,35.1v1h-3v4h-1v-8h5v1h-4v2H23z M15.9,33.7
	c-0.5-0.5-1.3-0.6-2.3-0.6H12v6h1.3c1.1,0,1.9-0.3,2.5-0.8c0.6-0.5,0.8-1.3,0.8-2.3C16.7,34.9,16.4,34.2,15.9,33.7z M8.3,35.6
	c0.1-0.1,0.2-0.1,0.3-0.2c0.2-0.3,0.4-0.6,0.4-1v0c0-0.4-0.2-0.6-0.3-0.8c0,0-0.1-0.1-0.1-0.1c0,0,0,0,0,0c0,0-0.1-0.1-0.1-0.1
	c-0.1,0-0.1-0.2-0.2-0.2h0c-0.2,0-0.3,0-0.5,0c-0.2,0-0.5,0-0.9,0H6v3h0.5C7.4,36.1,8,35.9,8.3,35.6z M8.7,33.5c0,0-0.1-0.1-0.1-0.1
	c0,0,0,0,0,0c0,0-0.1-0.1-0.1-0.1c-0.1,0-0.1-0.2-0.2-0.2h0c-0.2,0-0.3,0-0.5,0c-0.2,0-0.5,0-0.9,0H6v3h0.5c0.8,0,1.4-0.2,1.8-0.5
	c0.1-0.1,0.2-0.1,0.3-0.2c0.2-0.3,0.4-0.6,0.4-1v0C9,34,8.8,33.7,8.7,33.5z M15.9,33.7c-0.5-0.5-1.3-0.6-2.3-0.6H12v6h1.3
	c1.1,0,1.9-0.3,2.5-0.8c0.6-0.5,0.8-1.3,0.8-2.3C16.7,34.9,16.4,34.2,15.9,33.7z M15.9,33.7c-0.5-0.5-1.3-0.6-2.3-0.6H12v6h1.3
	c1.1,0,1.9-0.3,2.5-0.8c0.6-0.5,0.8-1.3,0.8-2.3C16.7,34.9,16.4,34.2,15.9,33.7z M8.7,33.5c0,0-0.1-0.1-0.1-0.1c0,0,0,0,0,0
	c0,0-0.1-0.1-0.1-0.1c-0.1,0-0.1-0.2-0.2-0.2h0c-0.2,0-0.3,0-0.5,0c-0.2,0-0.5,0-0.9,0H6v3h0.5c0.8,0,1.4-0.2,1.8-0.5
	c0.1-0.1,0.2-0.1,0.3-0.2c0.2-0.3,0.4-0.6,0.4-1v0C9,34,8.8,33.7,8.7,33.5z M8.7,33.5c0,0-0.1-0.1-0.1-0.1c0,0,0,0,0,0
	c0,0-0.1-0.1-0.1-0.1c-0.1,0-0.1-0.2-0.2-0.2h0c-0.2,0-0.3,0-0.5,0c-0.2,0-0.5,0-0.9,0H6v3h0.5c0.8,0,1.4-0.2,1.8-0.5
	c0.1-0.1,0.2-0.1,0.3-0.2c0.2-0.3,0.4-0.6,0.4-1v0C9,34,8.8,33.7,8.7,33.5z M8.7,33.5c0,0-0.1-0.1-0.1-0.1c0,0,0,0,0,0
	c0,0-0.1-0.1-0.1-0.1c-0.1,0-0.1-0.2-0.2-0.2h0c-0.2,0-0.3,0-0.5,0c-0.2,0-0.5,0-0.9,0H6v3h0.5c0.8,0,1.4-0.2,1.8-0.5
	c0.1-0.1,0.2-0.1,0.3-0.2c0.2-0.3,0.4-0.6,0.4-1v0C9,34,8.8,33.7,8.7,33.5z"/>
<g>
	<path class="st0" d="M3.9,43.3v1.2H4L3.9,43.3L3.9,43.3z M5,43.3v1.2h0.1L5,43.3L5,43.3z"/>
</g>
</svg>
