<?xml version="1.0" encoding="UTF-8"?>
<svg width="197px" height="41px" viewBox="0 0 197 41" version="1.1" xmlns="http://www.w3.org/2000/svg" xmlns:xlink="http://www.w3.org/1999/xlink">
    <title>Group</title>
    <g id="Page-1" stroke="none" stroke-width="1" fill="none" fill-rule="evenodd">
        <g id="Group" transform="translate(0.000000, 0.050000)" fill="#FFFFFF" fill-rule="nonzero">
            <path d="M0,39.16 L0,38.34 L4.29,38.34 L4.29,2.12 L0,2.12 L0,1.32 L16,1.32 C20.34,1.32 23.63,2.07666667 25.87,3.59 C28.0978184,5.07508085 29.37544,7.62652149 29.23,10.3 C29.3241103,12.6676663 28.31142,14.9443716 26.49,16.46 C24.65,17.99 21.99,18.92 18.49,19.26 C21.76,19.73 24.09,20.68 25.49,22.08 C26.89,23.48 27.78,25.77 28.14,28.91 C28.22,29.54 28.31,30.41 28.39,31.51 C28.79,36.0566667 29.9166667,38.3333333 31.77,38.34 C32.1314842,38.34011 32.4924773,38.3133698 32.85,38.26 C33.1945517,38.1971137 33.5302939,38.0930336 33.85,37.95 L34.19,38.71 C33.3454262,38.9737931 32.4832831,39.1776332 31.61,39.32 C30.77108,39.4639579 29.9211714,39.5342259 29.07,39.53 C28.0097788,39.5578946 26.957939,39.3351923 26,38.88 C25.1141379,38.4071009 24.3611341,37.7194262 23.81,36.88 C23,35.62 22.4,33.16 22.01,29.54 C21.87,28.1 21.74,27 21.64,26.25 C21.3133333,23.83 20.47,22.1633333 19.11,21.25 C17.78,20.36 15.44,19.9 12.11,19.9 L10.16,19.9 L10.16,38.34 L14.16,38.34 L14.16,39.16 L0,39.16 Z M10.16,2.16 L10.16,19.03 L12.07,19.03 C15.89,19.03 18.7233333,18.3633333 20.57,17.03 C22.4,15.68 23.33,13.59 23.33,10.78 C23.33,7.78 22.6,5.55 21.16,4.2 C19.72,2.85 17.33,2.2 14.05,2.2 L10.16,2.16 Z" id="Shape"></path>
            <path d="M41,25.49 L41,32.09 C41,34.48 41.45,36.22 42.37,37.29 C43.5026698,38.4664323 45.1017353,39.0752508 46.73,38.95 C48.6522104,38.972147 50.5097304,38.2563396 51.92,36.95 C53.47369,35.4983775 54.5480841,33.6077229 55,31.53 L55.88,31.53 C55.3516448,33.8827392 54.1329395,36.0241787 52.38,37.68 C50.7740886,39.140442 48.6702877,39.9311563 46.5,39.89 C43.5825617,39.906965 40.8058761,38.6375185 38.91,36.42 C36.8127311,34.1050493 35.6850372,31.0728055 35.76,27.95 C35.6522748,24.7921126 36.661434,21.6973577 38.61,19.21 C40.2465939,16.9865149 42.8492061,15.6814907 45.61,15.7 C48.159852,15.6506221 50.6194437,16.6438493 52.42,18.45 C54.2929551,20.3141131 55.4021011,22.8105833 55.53,25.45 L41,25.49 Z M41,24.68 L49.89,24.68 L49.89,22 C50.008222,20.5270527 49.6163068,19.0582533 48.78,17.84 C47.9189154,16.8918378 46.6666506,16.3968423 45.39,16.5 C44.0944924,16.4133111 42.8475249,17.0083686 42.1,18.07 C41.2637864,19.4956261 40.880197,21.1415734 41,22.79 L41,24.68 L41,24.68 Z" id="Shape"></path>
            <path d="M58.41,17.22 L58.41,16.41 L69.59,16.41 L69.59,17.22 L66.73,17.22 L70.91,24.11 L74.13,20.06 C74.3862781,19.7715059 74.6108945,19.4563725 74.8,19.12 C74.8911069,18.9153437 74.9387774,18.694016 74.94,18.47 C74.9675762,18.0297962 74.7034905,17.6235104 74.29,17.47 C73.6101685,17.246397 72.8946205,17.1514428 72.18,17.19 L72.18,16.38 L80.61,16.38 L80.61,17.19 L80.34,17.19 C78.3957169,17.1616562 76.5610733,18.0883194 75.43,19.67 L75.28,19.86 L71.38,24.86 L79.61,38.28 L82.41,38.28 L82.41,39.09 L70.41,39.09 L70.41,38.28 L74.2,38.28 L68.75,29.28 L64.53,34.53 C64.1893959,34.9825676 63.8787339,35.4569118 63.6,35.95 C63.4202205,36.2553553 63.3108938,36.5970013 63.28,36.95 C63.2806385,37.3852014 63.5400937,37.7783153 63.94,37.95 C64.5727962,38.211015 65.2568943,38.3238912 65.94,38.28 L66.27,38.28 L66.27,39.09 L57.29,39.09 L57.29,38.28 L57.75,38.28 C59.58,38.28 61.41,37.12 63.22,34.79 L63.33,34.62 L68.2,28.46 L61.37,17.16 L58.41,17.22 Z" id="Path"></path>
            <path d="M109.71,36.7 C109.034378,37.5832152 108.2125,38.3442129 107.28,38.95 C106.518122,39.4031627 105.646422,39.6383834 104.76,39.63 C103.685068,39.6688694 102.628338,39.3448056 101.76,38.71 C100.922637,38.0416307 100.354524,37.0935911 100.16,36.04 C99.4353944,37.3009417 98.3288029,38.2989752 97,38.89 C95.42584,39.5828278 93.719543,39.9240872 92,39.89 C90.2703638,39.9448068 88.5817316,39.3569918 87.26,38.24 C86.0467189,37.2357128 85.3551262,35.7348096 85.38,34.16 C85.38,31.71 86.61,29.81 89.1,28.45 C91.59,27.09 95.1,26.45 99.67,26.45 L99.94,26.45 L99.94,20.6 C100.059234,19.4596681 99.6967177,18.3213663 98.94,17.46 C97.9728694,16.7182791 96.7648557,16.3619329 95.55,16.46 C94.3268434,16.4479797 93.1271284,16.7957232 92.1,17.46 C91.1,18.09 90.61,18.7 90.61,19.3 C90.844571,19.6059005 91.1129383,19.8843315 91.41,20.13 C91.9018008,20.5510026 92.1894434,21.1626981 92.2,21.81 C92.2497346,22.5372897 92.0128376,23.2551592 91.54,23.81 C91.0725919,24.300414 90.4169669,24.5663064 89.74,24.54 C89.0216517,24.5730818 88.3220921,24.3048568 87.81,23.8 C87.3050566,23.2613489 87.0477226,22.5364645 87.1,21.8 C87.1350868,20.0412968 88.0519285,18.418036 89.54,17.48 C91.3300744,16.2404635 93.4742869,15.6157993 95.65,15.7 C96.8189077,15.6876919 97.9826798,15.8563545 99.1,16.2 C100.172888,16.5385598 101.185419,17.0448251 102.1,17.7 C102.870574,18.2057823 103.505705,18.8924098 103.95,19.7 C104.360294,20.8049259 104.534042,21.9836835 104.46,23.16 L104.46,34.68 C104.405984,35.6103026 104.552631,36.5413441 104.89,37.41 C105.1076,37.9465194 105.631059,38.2954922 106.21,38.29 C106.693529,38.2777898 107.160117,38.1093972 107.54,37.81 C108.133771,37.3126916 108.661398,36.7413762 109.11,36.11 L109.71,36.7 Z M99.93,34.95 L99.93,27.24 C99.72,27.24 99.49,27.24 99.25,27.24 L98.25,27.24 C95.59,27.24 93.62,27.76 92.33,28.78 C90.9720175,29.9692565 90.2563527,31.7306076 90.4,33.53 C90.3246491,34.8710065 90.7014226,36.1985169 91.47,37.3 C92.1990475,38.1995757 93.313516,38.6973716 94.47,38.64 C95.6083403,38.6263925 96.7176015,38.2786617 97.66,37.64 C98.6489662,36.9683936 99.4342501,36.0378149 99.93,34.95" id="Shape"></path>
            <path d="M111.24,39.16 L111.24,38.34 L114.49,38.34 L114.49,2.12 L111.24,2.12 L111.24,1.32 L114,1.32 C114.96603,1.32866938 115.929603,1.22123269 116.87,1 C117.733964,0.796927878 118.560695,0.459486971 119.32,0 L119.32,38.34 L122.48,38.34 L122.48,39.16 L111.24,39.16 Z" id="Path"></path>
            <path d="M139.63,39.16 L139.63,38.34 L142.9,38.34 L142.9,17.22 L139.63,17.22 L139.63,16.41 L142.4,16.41 C143.452561,16.4210329 144.50474,16.3642486 145.55,16.24 C146.298127,16.1615925 147.031775,15.9798632 147.73,15.7 L147.73,20.82 C148.63382,19.2800156 149.866489,17.9585671 151.34,16.95 C152.695639,16.1085441 154.264643,15.6746382 155.86,15.7 C157.825338,15.5863371 159.752578,16.275668 161.2,17.61 C162.570484,19.0039692 163.295641,20.9075067 163.2,22.86 L163.2,38.34 L166.56,38.34 L166.56,39.15 L155.19,39.15 L155.19,38.34 L158.39,38.34 L158.39,21.2 C158.503582,19.9996321 158.260059,18.7924577 157.69,17.73 C157.06889,17.0462714 156.158363,16.7006426 155.24,16.8 C153.765615,16.791019 152.330176,17.2730168 151.16,18.17 C149.735234,19.3304076 148.567201,20.7742745 147.73,22.41 L147.73,38.34 L150.9,38.34 L150.9,39.15 L139.63,39.15 L139.63,39.16 Z" id="Path"></path>
            <path d="M174.85,25.49 L174.85,32.09 C174.85,34.48 175.31,36.22 176.23,37.29 C177.366449,38.4732878 178.97475,39.0828266 180.61,38.95 C182.535469,38.9736929 184.396663,38.257849 185.81,36.95 C187.359691,35.4920958 188.439077,33.6049119 188.91,31.53 L189.77,31.53 C189.234312,33.8821508 188.012762,36.0224721 186.26,37.68 C184.658781,39.141584 182.557558,39.932675 180.39,39.89 C177.471679,39.9110853 174.693338,38.6408821 172.8,36.42 C170.702731,34.1050493 169.575037,31.0728055 169.65,27.95 C169.542275,24.7921126 170.551434,21.6973577 172.5,19.21 C174.136594,16.9865149 176.739206,15.6814907 179.5,15.7 C182.039719,15.6576666 184.487361,16.6504417 186.28,18.45 C188.156206,20.3118734 189.265942,22.8096722 189.39,25.45 L174.85,25.49 Z M174.85,24.68 L183.75,24.68 L183.75,22 C183.86363,20.5303197 183.479721,19.0651244 182.66,17.84 C181.782996,16.8904707 180.518416,16.3964365 179.23,16.5 C177.936009,16.4211686 176.692679,17.0144904 175.94,18.07 C175.11711,19.5006143 174.737732,21.1434276 174.85,22.79 L174.85,24.68 L174.85,24.68 Z" id="Shape"></path>
            <path d="M133.51,15.7 C132.811042,15.9775836 132.077711,16.1592342 131.33,16.24 C130.281014,16.359804 129.225785,16.4165727 128.17,16.41 L125.44,16.41 L125.44,17.22 L128.7,17.22 L128.7,38.34 L125.44,38.34 L125.44,39.15 L136.69,39.15 L136.69,38.34 L133.51,38.34 L133.51,15.7 Z" id="Path"></path>
            <path d="M131.11,11.26 C129.6091,11.2544819 128.396333,10.0342639 128.4,8.53335783 C128.403683,7.03245179 129.622412,5.81818782 131.123321,5.82001834 C132.624231,5.821853 133.84,7.03908946 133.84,8.54 C133.829049,10.0415531 132.611583,11.2545597 131.11,11.26" id="Path"></path>
            <path d="M194.29,19.76 C193.575054,19.7771084 192.884853,19.4978399 192.382967,18.9883784 C191.881081,18.4789169 191.612183,17.7846094 191.64,17.07 C191.662012,15.6118553 192.858027,14.4455134 194.316265,14.4601332 C195.774502,14.474753 196.946892,15.6648396 196.939699,17.1231325 C196.932439,18.5814255 195.748311,19.7598339 194.29,19.76 M194.29,14.84 C193.714047,14.844217 193.165365,15.0859315 192.773519,15.5080647 C192.381673,15.9301979 192.181403,16.4953265 192.22,17.07 C192.166241,17.8420533 192.54765,18.5796101 193.20874,18.9819975 C193.869831,19.3843849 194.700169,19.3843849 195.36126,18.9819975 C196.02235,18.5796101 196.403759,17.8420533 196.35,17.07 C196.388508,16.4970441 196.189574,15.9334845 195.799916,15.5116697 C195.410257,15.089855 194.864206,14.8469502 194.29,14.84 M193.76,18.61 L193.27,18.61 L193.27,15.61 L194.4,15.61 C195.12,15.61 195.49,15.86 195.49,16.47 C195.504171,16.6836025 195.4276,16.8932761 195.27911,17.0474766 C195.130621,17.201677 194.923985,17.286103 194.71,17.28 L195.55,18.59 L195,18.59 L194.23,17.32 L193.77,17.32 L193.77,18.59 L193.76,18.61 Z M194.31,16.92 C194.67,16.92 195,16.92 195,16.45 C195,15.98 194.64,16.05 194.35,16.05 L193.76,16.05 L193.76,16.95 L194.31,16.92 Z" id="Shape"></path>
        </g>
    </g>
</svg>