<svg xmlns="http://www.w3.org/2000/svg" viewBox="0 0 196.93 39.94"><g id="Layer_2" data-name="Layer 2"><g id="Layer_1-2" data-name="Layer 1"><path d="M0,39.21v-.82H4.29V2.17H0v-.8H16q6.51,0,9.87,2.27a7.57,7.57,0,0,1,3.36,6.71,7.62,7.62,0,0,1-2.74,6.16c-1.84,1.53-4.5,2.46-8,2.8,3.27.47,5.6,1.42,7,2.82s2.29,3.69,2.65,6.83c.08.63.17,1.5.25,2.6q.6,6.82,3.38,6.83a7.3,7.3,0,0,0,1.08-.08,4.37,4.37,0,0,0,1-.31l.34.76a18.8,18.8,0,0,1-2.58.61,14.59,14.59,0,0,1-2.54.21A6.74,6.74,0,0,1,26,38.93a6,6,0,0,1-2.19-2c-.81-1.26-1.41-3.72-1.8-7.34-.14-1.44-.27-2.54-.37-3.29q-.49-3.63-2.53-5c-1.33-.89-3.67-1.35-7-1.35H10.16V38.39h4v.82Zm10.16-37V19.08h1.91q5.73,0,8.5-2c1.83-1.35,2.76-3.44,2.76-6.25,0-3-.73-5.23-2.17-6.58s-3.83-2-7.11-2Z"/><path d="M41,25.54v6.6c0,2.39.45,4.13,1.37,5.2A5.47,5.47,0,0,0,46.73,39a7.51,7.51,0,0,0,5.19-2A10.46,10.46,0,0,0,55,31.58h.88a12.11,12.11,0,0,1-3.5,6.15,8.5,8.5,0,0,1-5.88,2.21,9.91,9.91,0,0,1-7.59-3.47A12.18,12.18,0,0,1,35.76,28a13.43,13.43,0,0,1,2.85-8.74,8.62,8.62,0,0,1,7-3.51,9.36,9.36,0,0,1,6.81,2.75,10.6,10.6,0,0,1,3.11,7Zm0-.81h8.89V22.05a6.44,6.44,0,0,0-1.11-4.16,4.13,4.13,0,0,0-3.39-1.34,3.72,3.72,0,0,0-3.29,1.57A8.16,8.16,0,0,0,41,22.84v1.89Z"/><path d="M58.41,17.27v-.81H69.59v.81H66.73l4.18,6.89,3.22-4.05a5.4,5.4,0,0,0,.67-.94,1.62,1.62,0,0,0,.14-.65,1,1,0,0,0-.65-1,5.76,5.76,0,0,0-2.11-.28v-.81h8.43v.81h-.27a5.93,5.93,0,0,0-4.91,2.48l-.15.19-3.9,5,8.23,13.42h2.8v.81h-12v-.81H74.2l-5.45-9-4.22,5.25A13,13,0,0,0,63.6,36a2.38,2.38,0,0,0-.32,1,1.09,1.09,0,0,0,.66,1,4.49,4.49,0,0,0,2,.33h.33v.81H57.29v-.81h.46c1.83,0,3.66-1.16,5.47-3.49l.11-.17,4.87-6.16-6.83-11.3Z"/><path d="M109.71,36.75A9.74,9.74,0,0,1,107.28,39a4.84,4.84,0,0,1-2.52.68,4.79,4.79,0,0,1-3-.92,4.45,4.45,0,0,1-1.6-2.67A6.86,6.86,0,0,1,97,38.94a11.83,11.83,0,0,1-5,1,7,7,0,0,1-4.74-1.65,5.19,5.19,0,0,1-1.88-4.08c0-2.45,1.23-4.35,3.72-5.71s6-2,10.57-2h.27V20.65a4.11,4.11,0,0,0-1-3.14,4.92,4.92,0,0,0-3.39-1,6.24,6.24,0,0,0-3.45,1c-1,.63-1.49,1.24-1.49,1.84a5.12,5.12,0,0,0,.8.83,2.26,2.26,0,0,1,.79,1.68,2.79,2.79,0,0,1-.66,2,2.36,2.36,0,0,1-1.8.73,2.58,2.58,0,0,1-1.93-.74,2.65,2.65,0,0,1-.71-2,5.23,5.23,0,0,1,2.44-4.32,10.05,10.05,0,0,1,6.11-1.78,11.33,11.33,0,0,1,3.45.5,10.66,10.66,0,0,1,3,1.5,5.65,5.65,0,0,1,1.85,2,8.42,8.42,0,0,1,.51,3.46V34.73a6.5,6.5,0,0,0,.43,2.73,1.41,1.41,0,0,0,1.32.88,2.24,2.24,0,0,0,1.33-.48,9.07,9.07,0,0,0,1.57-1.7ZM99.93,35V27.29c-.21,0-.44,0-.68,0l-1,0c-2.66,0-4.63.52-5.92,1.54a5.71,5.71,0,0,0-1.93,4.75,6,6,0,0,0,1.07,3.77,3.63,3.63,0,0,0,3,1.34,5.81,5.81,0,0,0,3.19-1A6.52,6.52,0,0,0,99.93,35"/><path d="M111.24,39.21v-.82h3.25V2.17h-3.25v-.8H114a12.06,12.06,0,0,0,2.87-.32,8.48,8.48,0,0,0,2.45-1V38.39h3.16v.82Z"/><path d="M139.63,39.21v-.82h3.27V17.27h-3.27v-.81h2.77a24.51,24.51,0,0,0,3.15-.17,8.14,8.14,0,0,0,2.18-.54v5.12A12.13,12.13,0,0,1,151.34,17a8.32,8.32,0,0,1,4.52-1.25,7.26,7.26,0,0,1,5.34,1.91,7,7,0,0,1,2,5.25V38.39h3.36v.81H155.19v-.81h3.2V21.25a6.12,6.12,0,0,0-.7-3.47,2.89,2.89,0,0,0-2.45-.93,6.64,6.64,0,0,0-4.08,1.37,13.26,13.26,0,0,0-3.43,4.24V38.39h3.17v.81H139.63Z"/><path d="M174.85,25.54v6.6c0,2.39.46,4.13,1.38,5.2A5.46,5.46,0,0,0,180.61,39a7.52,7.52,0,0,0,5.2-2,10.69,10.69,0,0,0,3.1-5.42h.86a12.19,12.19,0,0,1-3.51,6.15,8.46,8.46,0,0,1-5.87,2.21,9.88,9.88,0,0,1-7.59-3.47A12.18,12.18,0,0,1,169.65,28a13.43,13.43,0,0,1,2.85-8.74,8.62,8.62,0,0,1,7-3.51,9.35,9.35,0,0,1,6.78,2.75,10.56,10.56,0,0,1,3.11,7Zm0-.81h8.9V22.05a6.57,6.57,0,0,0-1.09-4.16,4.21,4.21,0,0,0-3.43-1.34,3.76,3.76,0,0,0-3.29,1.57,8.33,8.33,0,0,0-1.09,4.72v1.89Z"/><path d="M133.51,15.75a8.33,8.33,0,0,1-2.18.54,26.4,26.4,0,0,1-3.16.17h-2.73v.81h3.26V38.39h-3.26v.81h11.25v-.81h-3.18Z"/><path d="M131.11,11.31a2.72,2.72,0,1,1,2.73-2.72,2.74,2.74,0,0,1-2.73,2.72"/><path d="M194.29,19.81a2.59,2.59,0,0,1-2.65-2.69,2.65,2.65,0,1,1,2.65,2.69m0-4.92a2.09,2.09,0,0,0-2.07,2.23,2.07,2.07,0,1,0,4.13,0,2.09,2.09,0,0,0-2.06-2.23m-.53,3.77h-.49v-3h1.13c.72,0,1.09.25,1.09.86a.76.76,0,0,1-.78.81l.84,1.31H195l-.77-1.27h-.46v1.27Zm.55-1.69c.36,0,.69,0,.69-.47s-.36-.4-.65-.4h-.59V17Z"/></g></g></svg>