<svg xmlns="http://www.w3.org/2000/svg" viewBox="0 0 67.87 12.94"><defs><style>.cls-1{fill:#82bc00;}.cls-2{fill:#666;}</style></defs><title>Asset 1</title><g id="Layer_2" data-name="Layer 2"><g id="Layer_1-2" data-name="Layer 1"><path class="cls-1" d="M4.94,5A14,14,0,0,0,3.56,0H0V5.31c.49,0,1,.07,1.52.07A15.17,15.17,0,0,0,4.94,5m0,.71A10.1,10.1,0,0,1,2.56,6,10.06,10.06,0,0,1,0,5.68v7.27H4.17A19.79,19.79,0,0,0,5,7.05C5,6.6,5,6.15,5,5.71Z"/><path class="cls-2" d="M3.78,0A12.7,12.7,0,0,1,5.41,4.91,8.71,8.71,0,0,0,8.78,3.28V0ZM5.51,7.05a17.85,17.85,0,0,1-1.14,5.89H8.78V3.51A7.28,7.28,0,0,1,5.45,5.6C5.49,6.08,5.51,6.56,5.51,7.05Z"/><path class="cls-2" d="M13.95,12.31h0c.49,0,1-.17,1-.93s-.5-.94-1-.94h-.64v1.87Zm-.2-2.38h0c.44,0,1-.1,1-1,0-.68-.4-.77-.84-.77h-.64V9.93Zm.17-2.29c.57,0,1.51.06,1.51,1.24a1.3,1.3,0,0,1-.75,1.24,1.19,1.19,0,0,1,.93,1.29,1.47,1.47,0,0,1-.5,1.15,2,2,0,0,1-1.33.29H12.17a.08.08,0,0,1-.09-.09v-.31a.08.08,0,0,1,.09-.09h.48V8.13h-.48A.08.08,0,0,1,12.08,8V7.73a.08.08,0,0,1,.09-.09Zm4,3.39h0c-.33,0-1.41,0-1.41.8a.58.58,0,0,0,.55.65,1.46,1.46,0,0,0,.87-.47ZM16.16,9.53a.25.25,0,0,1,0-.1c0-.13.7-.35,1.18-.35.87,0,1.17.43,1.17,1.06v1.46a1.87,1.87,0,0,0,.09.76h.36a.08.08,0,0,1,.09.09v.29a.08.08,0,0,1-.09.09h-.65c-.19,0-.25-.28-.29-.4a1.54,1.54,0,0,1-1.09.51,1,1,0,0,1-1-1.07c0-1.28,1.52-1.31,2-1.32v-.27c0-.44-.14-.68-.68-.68a2.44,2.44,0,0,0-.93.24.06.06,0,0,1-.05,0Zm6.52,3.21a.08.08,0,0,1-.09.09h-.64c-.23,0-.26-.24-.32-.34a1.81,1.81,0,0,1-1.05.45c-1,0-1.11-.59-1.11-1.14V9.66H19A.08.08,0,0,1,19,9.57V9.28A.08.08,0,0,1,19,9.19H20a.08.08,0,0,1,.09.09v2.54a.55.55,0,0,0,.62.61,1.59,1.59,0,0,0,.87-.39V9.66H21.1A.08.08,0,0,1,21,9.57V9.28a.08.08,0,0,1,.09-.09H22a.08.08,0,0,1,.09.09v2.6a2.41,2.41,0,0,0,0,.48h.43a.08.08,0,0,1,.09.09Zm3.25-4.43h0a.46.46,0,0,1,0-.93.46.46,0,0,1,0,.93Zm-.86,4.07a.09.09,0,0,1,.07,0h.55V9.66h-.6A.08.08,0,0,1,25,9.57V9.3l-.1.3a.11.11,0,0,1-.1.07h-1v2.16c0,.3,0,.61.46.61a2.28,2.28,0,0,0,.73-.2.05.05,0,0,1,.05,0Zm1.83.35a.08.08,0,0,1-.09.09H25.14a.08.08,0,0,1-.09-.09v0a2.13,2.13,0,0,1-.9.23.93.93,0,0,1-.71-.27,1.2,1.2,0,0,1-.22-.86V9.66h-.57c-.05,0-.05-.05-.05-.09V9.28c0-.05,0-.09.05-.09h.57v-1s0-.08.08-.09l.4-.11h.05s0,0,0,.08V9.19h1.12s.08,0,.08,0a.08.08,0,0,1,.08,0h1.08c.08,0,.1,0,.1.11v3.06h.54a.08.08,0,0,1,.09.09Zm1.78-3.07a1.39,1.39,0,0,0-.49-.1.49.49,0,0,0-.56.5c0,.83,1.69.6,1.69,1.78a1.09,1.09,0,0,1-1.21,1.08c-.46,0-1.15-.22-1.15-.38v-.71c0-.05,0-.08.08-.08h.33c.06,0,.08,0,.08.08v.45a2.2,2.2,0,0,0,.69.14.55.55,0,0,0,.61-.55c0-.79-1.69-.62-1.69-1.76a1.06,1.06,0,0,1,1.15-1.06,2.43,2.43,0,0,1,.89.23c.08,0,.08.08.08.12v.66a.08.08,0,0,1-.09.09h-.31a.08.08,0,0,1-.09-.09Zm3.18,2.88a.42.42,0,0,1,0,.08c0,.1-.57.31-1,.31a.94.94,0,0,1-.71-.27,1.2,1.2,0,0,1-.22-.86V9.66h-.57c-.05,0-.05-.05-.05-.09V9.28c0-.05,0-.09.05-.09H30v-1s0-.08.08-.09l.4-.11h.05s0,0,0,.08V9.19h1.12s.09,0,.09.05,0,0,0,.05l-.1.3a.11.11,0,0,1-.1.07h-1v2.16c0,.3,0,.61.46.61a2.27,2.27,0,0,0,.73-.2.05.05,0,0,1,.05,0ZM33.9,11h0c-.33,0-1.41,0-1.41.8a.58.58,0,0,0,.55.65A1.46,1.46,0,0,0,33.9,12ZM32.15,9.53a.24.24,0,0,1,0-.1c0-.13.7-.35,1.18-.35.87,0,1.17.43,1.17,1.06v1.46a1.87,1.87,0,0,0,.09.76h.36a.08.08,0,0,1,.09.09v.29a.08.08,0,0,1-.09.09h-.65c-.19,0-.25-.28-.29-.4a1.54,1.54,0,0,1-1.09.51,1,1,0,0,1-1-1.07c0-1.28,1.52-1.31,2-1.32v-.27c0-.44-.14-.68-.68-.68a2.46,2.46,0,0,0-.93.24.06.06,0,0,1-.05,0Zm7.08.31h0a1.41,1.41,0,0,0-.9-.25c-.64,0-.71.74-.71,1.48s.07,1.36.67,1.36a1.44,1.44,0,0,0,.94-.45Zm1.15,2.9a.08.08,0,0,1-.09.09h-.68c-.19,0-.22-.24-.27-.34a1.69,1.69,0,0,1-1.15.45c-.83,0-1.18-.91-1.18-1.85,0-1.09.37-2,1.27-2a1.6,1.6,0,0,1,1,.26V7.86h-.48a.08.08,0,0,1-.09-.09V7.49a.08.08,0,0,1,.09-.09h1a.08.08,0,0,1,.09.09v4.4a1.81,1.81,0,0,0,0,.48h.43a.08.08,0,0,1,.09.09Zm2.24-2.08h0c0-.39-.13-1.11-.79-1.11s-.85.73-.85,1.11Zm.52,1.82s0,0,0,.06a2,2,0,0,1-1.2.39c-1,0-1.6-.77-1.6-1.93s.56-1.93,1.5-1.93c1.27,0,1.38,1.23,1.38,1.88,0,.11,0,.17-.08.17H41c0,.46.18,1.3,1,1.3a2.08,2.08,0,0,0,.93-.31s0,0,0,0Zm5.25-.13c0,.09,0,.14-.07.2a2.05,2.05,0,0,1-1.14.39c-1.29,0-1.75-1.18-1.75-2.76s.39-2.66,1.68-2.66a1.88,1.88,0,0,1,1.15.38.15.15,0,0,1,.08.14V8.9c0,.06,0,.09-.08.09h-.35c-.05,0-.08,0-.08-.09V8.25a1.32,1.32,0,0,0-.7-.21c-.81,0-1,.79-1,2.07s.3,2.32,1.08,2.32a1.29,1.29,0,0,0,.68-.21v-.65c0-.06,0-.09.08-.09h.35c.05,0,.08,0,.08.09ZM50.6,11h0c-.33,0-1.41,0-1.41.8a.58.58,0,0,0,.55.65A1.46,1.46,0,0,0,50.6,12ZM48.85,9.53a.23.23,0,0,1,0-.1c0-.13.7-.35,1.19-.35.87,0,1.17.43,1.17,1.06v1.46a1.84,1.84,0,0,0,.09.76h.36a.08.08,0,0,1,.09.09v.29a.08.08,0,0,1-.09.09H51c-.19,0-.25-.28-.29-.4a1.54,1.54,0,0,1-1.09.51,1,1,0,0,1-1-1.07c0-1.28,1.52-1.31,2-1.32v-.27c0-.44-.14-.68-.68-.68a2.44,2.44,0,0,0-.93.24.05.05,0,0,1-.05,0Zm6.87,3.21a.08.08,0,0,1-.09.09H54.14a.08.08,0,0,1-.09-.09v-.29a.08.08,0,0,1,.09-.09h.43V10.14a1.62,1.62,0,0,0-.08-.48h-.41A.08.08,0,0,1,54,9.57V9.38l-.12.28s0,.05,0,.05a.74.74,0,0,0-.25-.07c-.26,0-.53.39-.71.59v2.13h.48a.08.08,0,0,1,.09.09v.29a.08.08,0,0,1-.09.09H51.85a.08.08,0,0,1-.09-.09v-.29a.08.08,0,0,1,.09-.09h.43V10.14a1.59,1.59,0,0,0-.08-.48h-.41a.08.08,0,0,1-.09-.09V9.28a.08.08,0,0,1,.09-.09h.68c.21,0,.27.39.3.53.2-.21.47-.64.91-.64a.52.52,0,0,1,.37.11h.71c.21,0,.27.39.3.53.2-.21.47-.64.91-.64.17,0,.37.06.37.13a.27.27,0,0,1,0,.06l-.17.39s0,.05,0,.05a.75.75,0,0,0-.25-.07c-.27,0-.53.39-.71.59v2.13h.48a.08.08,0,0,1,.09.09ZM58.19,11h0c-.33,0-1.41,0-1.41.8a.58.58,0,0,0,.55.65,1.46,1.46,0,0,0,.86-.47ZM56.43,9.53a.23.23,0,0,1,0-.1c0-.13.7-.35,1.19-.35.87,0,1.17.43,1.17,1.06v1.46a1.86,1.86,0,0,0,.09.76h.36a.08.08,0,0,1,.09.09v.29a.08.08,0,0,1-.09.09h-.64c-.19,0-.25-.28-.29-.4a1.54,1.54,0,0,1-1.09.51,1,1,0,0,1-1-1.07c0-1.28,1.52-1.31,2-1.32v-.27c0-.44-.14-.68-.68-.68a2.47,2.47,0,0,0-.93.24.06.06,0,0,1-.05,0Zm4.65.14a1.39,1.39,0,0,0-.49-.1.49.49,0,0,0-.56.5c0,.83,1.69.6,1.69,1.78a1.09,1.09,0,0,1-1.21,1.08c-.46,0-1.15-.22-1.15-.38v-.71a.07.07,0,0,1,.08-.08h.33c.06,0,.08,0,.08.08v.45a2.21,2.21,0,0,0,.69.14.55.55,0,0,0,.61-.55c0-.79-1.69-.62-1.69-1.76A1.06,1.06,0,0,1,60.6,9.09a2.43,2.43,0,0,1,.89.23c.08,0,.08.08.08.12v.66a.08.08,0,0,1-.09.09h-.31a.08.08,0,0,1-.09-.09Zm3.48,2.81s0,0,0,.06a2,2,0,0,1-1.2.39c-.9,0-1.43-.71-1.43-1.81,0-1.27.61-2,1.54-2a2,2,0,0,1,1,.33s0,.05,0,.11v.65c0,.06,0,.09-.08.09h-.33c-.05,0-.08,0-.08-.09V9.74a1.1,1.1,0,0,0-.52-.14c-.74,0-1,.56-1,1.42,0,.69.14,1.42.87,1.42a2.08,2.08,0,0,0,.93-.31s0,0,0,0ZM67.24,11h0c0-.74-.2-1.43-.89-1.43s-.89.65-.89,1.4.2,1.51.9,1.51S67.24,11.86,67.24,11Zm-.93,2c-1,0-1.46-.83-1.46-1.91s.44-1.94,1.54-1.94,1.48.84,1.48,1.91S67.42,12.94,66.31,12.94Z"/><path class="cls-2" d="M16.48,2.5h0a1.61,1.61,0,0,0-.7-.21c-.58,0-.85.51-.85,1.32s.14,1.31.66,1.31a1.58,1.58,0,0,0,.89-.38Zm.58,1.57c0,.43.05,1.31.05,1.72a1.2,1.2,0,0,1-1.34,1.34c-.57,0-1.28-.26-1.28-.4a.18.18,0,0,1,0-.1l.12-.26a.06.06,0,0,1,.05,0,2.81,2.81,0,0,0,1,.3c.71,0,.79-.41.79-.82s0-.69,0-.78a1.59,1.59,0,0,1-1,.42c-.69,0-1.17-.61-1.17-1.68s.46-2,1.43-2a1.39,1.39,0,0,1,.9.33c.07-.19.15-.33.22-.33h.07l.34.21s0,0,0,0-.07.1-.14.28a1.32,1.32,0,0,0-.1.56ZM19.41,5.4a.15.15,0,0,1,0,.05c0,.08-.36.19-.64.19a.72.72,0,0,1-.71-.36A3.83,3.83,0,0,1,18,4.18V.56H17.5a.08.08,0,0,1-.09-.09V.18A.08.08,0,0,1,17.5.09h.93c.09,0,.11,0,.11.11v4c0,.24,0,.62,0,.71a.31.31,0,0,0,.3.27,1.47,1.47,0,0,0,.39-.1s0,0,.05,0Zm2.1-2h0c0-.4-.13-1.11-.79-1.11s-.85.73-.85,1.11ZM22,5.19s0,0,0,.06a2,2,0,0,1-1.2.39c-1,0-1.6-.77-1.6-1.93s.56-1.93,1.5-1.93C22,1.79,22.13,3,22.13,3.67c0,.11,0,.17-.08.17H19.87c0,.46.18,1.3,1,1.3a2.06,2.06,0,0,0,.93-.31s0,0,0,0Zm2.09-2.81a1.36,1.36,0,0,0-.49-.1.49.49,0,0,0-.56.5c0,.83,1.69.6,1.69,1.78a1.09,1.09,0,0,1-1.21,1.08c-.45,0-1.15-.22-1.15-.38V4.56a.07.07,0,0,1,.08-.08h.33a.07.07,0,0,1,.08.08V5a2.18,2.18,0,0,0,.69.14.55.55,0,0,0,.61-.55c0-.79-1.69-.61-1.69-1.76a1.06,1.06,0,0,1,1.15-1.05,2.44,2.44,0,0,1,.9.23c.08,0,.08.08.08.12V2.8a.08.08,0,0,1-.09.09h-.31a.08.08,0,0,1-.09-.09ZM25.68,1h0a.46.46,0,1,1,.46-.46A.46.46,0,0,1,25.68,1Zm1,4.43a.08.08,0,0,1-.09.09H24.89a.08.08,0,0,1-.09-.09V5.16a.08.08,0,0,1,.09-.09h.55V2.36h-.6a.08.08,0,0,1-.09-.09V2a.08.08,0,0,1,.09-.09h1.08c.08,0,.1,0,.1.11V5.07h.54a.08.08,0,0,1,.09.09Zm2-1.72h0c-.33,0-1.41,0-1.41.8a.58.58,0,0,0,.55.65,1.46,1.46,0,0,0,.87-.47ZM26.91,2.23a.24.24,0,0,1,0-.1c0-.13.7-.35,1.18-.35.87,0,1.17.43,1.17,1.06V4.31a1.86,1.86,0,0,0,.09.76h.36a.08.08,0,0,1,.09.09v.29a.08.08,0,0,1-.09.09H29c-.19,0-.25-.28-.29-.4a1.54,1.54,0,0,1-1.09.51,1,1,0,0,1-1-1.07c0-1.28,1.52-1.31,2-1.32V3c0-.44-.14-.68-.68-.68a2.45,2.45,0,0,0-.93.24.06.06,0,0,1-.05,0Zm7.87,3.2c0,.09,0,.11-.11.11H31.76a.08.08,0,0,1-.09-.09V5.13A.08.08,0,0,1,31.76,5h.48V.83h-.48a.08.08,0,0,1-.09-.09V.43a.08.08,0,0,1,.09-.09h2.86c.08,0,.1,0,.1.11v1c0,.06,0,.09-.08.09h-.35c-.05,0-.08,0-.08-.09V.87H32.86V2.55h1.49c.08,0,.1,0,.1.1V3c0,.08,0,.1-.1.1H32.86V5h1.4V4.32a.07.07,0,0,1,.08-.08h.34c.06,0,.09,0,.09.08Zm1.92.14c0,.05,0,.07-.1.07h-.3c-.07,0-.08,0-.09-.07L35.05,2.36H34.8a.08.08,0,0,1-.09-.09V2a.08.08,0,0,1,.09-.09h1.29c.05,0,.08,0,.08.09v.27c0,.06,0,.08-.08.08h-.43l.67,2c.05.16.1.33.14.48h0a2.83,2.83,0,0,1,.14-.47l.74-2H36.9c-.06,0-.08,0-.08-.08V2c0-.06,0-.09.08-.09h1.27a.08.08,0,0,1,.09.09v.29a.08.08,0,0,1-.09.09H38Zm3.37-1.85h0c-.33,0-1.41,0-1.41.8a.58.58,0,0,0,.55.65,1.45,1.45,0,0,0,.87-.47ZM38.31,2.23a.24.24,0,0,1,0-.1c0-.13.7-.35,1.19-.35.87,0,1.17.43,1.17,1.06V4.31a1.85,1.85,0,0,0,.09.76h.36a.08.08,0,0,1,.09.09v.29a.08.08,0,0,1-.09.09h-.65c-.19,0-.25-.28-.29-.4a1.54,1.54,0,0,1-1.09.51,1,1,0,0,1-1-1.07c0-1.28,1.52-1.31,2-1.32V3c0-.44-.14-.68-.68-.68a2.45,2.45,0,0,0-.93.24.06.06,0,0,1-.05,0ZM44.9,5.45a.08.08,0,0,1-.09.09H43.9a.08.08,0,0,1-.09-.09V2.91c0-.33-.08-.62-.49-.62a1.46,1.46,0,0,0-1,.46V5.07h.43a.08.08,0,0,1,.09.09v.29a.08.08,0,0,1-.09.09H41.31a.08.08,0,0,1-.09-.09V5.16a.08.08,0,0,1,.09-.09h.43V2.84a1.79,1.79,0,0,0,0-.48h-.43a.08.08,0,0,1-.09-.09V2a.08.08,0,0,1,.09-.09H42c.17,0,.2.3.24.41a1.92,1.92,0,0,1,1.22-.52c.84,0,.9.59.9,1.14V5.07h.42a.08.08,0,0,1,.09.09ZM47.17,2.5h0a1.62,1.62,0,0,0-.7-.21c-.58,0-.85.51-.85,1.32s.14,1.31.66,1.31a1.59,1.59,0,0,0,.89-.38Zm.58,1.57c0,.43.05,1.31.05,1.72a1.2,1.2,0,0,1-1.34,1.34c-.57,0-1.28-.26-1.28-.4a.18.18,0,0,1,0-.1l.12-.26a.06.06,0,0,1,.05,0,2.81,2.81,0,0,0,1,.3c.71,0,.79-.41.79-.82s0-.69,0-.78a1.6,1.6,0,0,1-1,.42c-.69,0-1.17-.61-1.17-1.68s.46-2,1.43-2a1.39,1.39,0,0,1,.9.33c.07-.19.15-.33.22-.33h.07L48,2s0,0,0,0-.07.1-.14.28a1.33,1.33,0,0,0-.1.56Zm1.37-2.73h0l-.08,0s0,0-.07-.06l-.07-.11a.17.17,0,0,1,0-.08s0,0,.06-.07L50,.2a.14.14,0,0,1,.08,0s.06,0,.08.06l.22.33a.14.14,0,0,1,0,.08s0,.05-.07.07Zm1.35,2h0c0-.4-.13-1.11-.79-1.11s-.85.73-.85,1.11ZM51,5.19s0,0,0,.06a2,2,0,0,1-1.2.39c-1,0-1.6-.77-1.6-1.93s.56-1.93,1.5-1.93C51,1.79,51.1,3,51.1,3.67c0,.11,0,.17-.08.17H48.84c0,.46.18,1.3,1,1.3a2.07,2.07,0,0,0,.93-.31s0,0,0,0ZM53.81,1h0a.46.46,0,0,1-.46-.46.46.46,0,0,1,.46-.46.46.46,0,1,1,0,.93Zm1,4.43a.08.08,0,0,1-.09.09H53a1.52,1.52,0,0,1-.55.11.72.72,0,0,1-.71-.36,3.82,3.82,0,0,1-.11-1.1V.56H51.2a.08.08,0,0,1-.09-.09V.18A.08.08,0,0,1,51.2.09h.93c.09,0,.11,0,.11.11v4c0,.24,0,.62,0,.71a.3.3,0,0,0,.3.27,1.48,1.48,0,0,0,.39-.1h.61V2.36H53a.08.08,0,0,1-.09-.09V2A.08.08,0,0,1,53,1.89H54c.08,0,.1,0,.1.11V5.07h.54a.08.08,0,0,1,.09.09Zm2.68-.26s0,0,0,.06a2,2,0,0,1-1.2.39c-.9,0-1.43-.71-1.43-1.81,0-1.27.61-2,1.54-2a2,2,0,0,1,1,.33s0,.05,0,.11v.65c0,.06,0,.09-.08.09H57C57,3,57,2.95,57,2.88V2.44a1.1,1.1,0,0,0-.52-.14c-.74,0-1,.55-1,1.42,0,.69.14,1.42.87,1.42a2.07,2.07,0,0,0,.93-.31s0,0,0,0Zm2.19-1.46h0c-.33,0-1.41,0-1.41.8a.58.58,0,0,0,.55.65,1.46,1.46,0,0,0,.86-.47ZM57.88,2.23a.23.23,0,0,1,0-.1c0-.13.7-.35,1.18-.35.87,0,1.17.43,1.17,1.06V4.31a1.84,1.84,0,0,0,.09.76h.36a.08.08,0,0,1,.09.09v.29a.08.08,0,0,1-.09.09H60c-.19,0-.25-.28-.29-.4a1.54,1.54,0,0,1-1.09.51,1,1,0,0,1-1-1.07c0-1.28,1.52-1.31,2-1.32V3c0-.44-.14-.68-.68-.68a2.46,2.46,0,0,0-.93.24.06.06,0,0,1-.05,0ZM14.27,5.45a.08.08,0,0,1-.09.09h-2a.08.08,0,0,1-.09-.09V5.13A.08.08,0,0,1,12.17,5h.69V.83h-.69a.08.08,0,0,1-.09-.09V.43a.08.08,0,0,1,.09-.09h2a.08.08,0,0,1,.09.09V.74a.08.08,0,0,1-.09.09h-.69V5h.69a.08.08,0,0,1,.09.09Z"/></g></g></svg>