<?xml version="1.0" encoding="utf-8"?>
<!-- Generator: Adobe Illustrator 20.0.0, SVG Export Plug-In . SVG Version: 6.00 Build 0)  -->
<svg version="1.1" id="Layer_1" xmlns="http://www.w3.org/2000/svg" xmlns:xlink="http://www.w3.org/1999/xlink" x="0px" y="0px"
	 viewBox="0 0 161.5 53.8" style="enable-background:new 0 0 161.5 53.8;" xml:space="preserve">
<style type="text/css">
	.st0{fill:#FFFFFF;}
</style>
<g>
	<g>
		<path class="st0" d="M31.2,26.6l3.8,1.3c-1.2,1.6-2.7,3-4.3,4c-1.6,1-3.5,1.8-5.5,2.3c-2,0.5-4.4,0.8-6.9,0.8
			c-5.7,0-10.2-1.2-13.4-3.7S0,25.9,0,22.7c0-3,1.4-5.6,4.1-7.9c3.5-3,8.1-4.4,13.9-4.4c6,0,10.8,1.5,14.3,4.5
			c2.5,2.1,3.8,4.8,3.9,8H4.6c0.1,2.7,1.4,4.9,3.9,6.7c2.5,1.7,5.6,2.6,9.3,2.6c1.8,0,3.5-0.2,5.2-0.6c1.7-0.4,3.1-1,4.3-1.6
			C28.6,29.2,29.8,28.1,31.2,26.6z M31.2,20.3c-0.6-1.6-1.5-2.9-2.6-3.8c-1.2-1-2.7-1.7-4.6-2.3c-1.9-0.6-3.9-0.9-6-0.9
			c-3.4,0-6.4,0.7-8.9,2.2c-1.8,1.1-3.2,2.7-4.1,4.8H31.2z M20.4,0h6.9l-9.5,6.6h-4.4L20.4,0z"/>
		<path class="st0" d="M75.5,15.8l-3.6,1.5c-3.1-2.7-7.3-4.1-12.6-4.1c-4.3,0-7.8,0.9-10.6,2.7c-2.8,1.8-4.2,4.1-4.2,6.7
			c0,1.7,0.6,3.3,1.9,4.8c1.3,1.5,3.1,2.7,5.3,3.5c2.3,0.8,4.8,1.2,7.6,1.2c5.1,0,9.3-1.4,12.6-4.1l3.6,1.6c-1.7,1.7-3.9,3-6.7,3.9
			c-2.8,0.9-6,1.4-9.6,1.4c-5.5,0-10.1-1.2-13.7-3.5c-3.6-2.3-5.5-5.2-5.5-8.6c0-2.3,0.9-4.4,2.5-6.3c1.7-1.9,4-3.5,7-4.5
			c3-1.1,6.3-1.6,10-1.6c2.3,0,4.5,0.2,6.7,0.7c2.1,0.5,4,1.1,5.5,1.8C73.1,13.7,74.4,14.6,75.5,15.8z"/>
		<path class="st0" d="M115.7,11v23.4h-4.5v-4c-1.9,1.5-4,2.7-6.4,3.5c-2.4,0.8-4.9,1.2-7.7,1.2c-5,0-9.2-1.2-12.7-3.6
			c-3.5-2.4-5.3-5.3-5.3-8.8c0-3.4,1.8-6.2,5.3-8.6c3.6-2.4,7.8-3.6,12.8-3.6c2.9,0,5.5,0.4,7.8,1.2c2.3,0.8,4.4,2,6.2,3.7V11H115.7
			z M97.6,13.3c-2.5,0-4.8,0.4-7,1.2c-2.1,0.8-3.8,2-5.1,3.5s-1.9,3.1-1.9,4.7c0,1.6,0.6,3.2,1.9,4.7c1.3,1.5,3,2.7,5.1,3.5
			c2.1,0.8,4.4,1.3,6.9,1.3c2.5,0,4.8-0.4,7-1.2c2.2-0.8,3.9-2,5.1-3.4c1.2-1.4,1.8-3,1.8-4.8c0-2.7-1.3-5-4-6.8
			C104.8,14.2,101.5,13.3,97.6,13.3z"/>
		<path class="st0" d="M124.2,11.3h4.6v3.4c1.4-1.3,2.8-2.4,4.3-3c1.5-0.7,3.1-1,4.7-1c1.2,0,2.6,0.3,4,0.8l-2.3,2.5
			c-0.9-0.3-1.7-0.4-2.4-0.4c-1.5,0-2.9,0.4-4.3,1.2c-1.4,0.8-2.4,2.1-3.2,3.8c-0.6,1.3-0.8,4-0.8,8.1v7.9h-4.6V11.3z"/>
		<path class="st0" d="M149.8,2.7h4.5v8.6h7.2v2.6h-7.2v20.5h-4.5V13.8h-6.2v-2.6h6.2V2.7z"/>
	</g>
	<g>
		<path class="st0" d="M67.5,44.8l-1.2,0.8c-1-0.7-1.9-1-2.8-1c-0.6,0-1.1,0.1-1.5,0.4c-0.4,0.3-0.6,0.6-0.6,0.9
			c0,0.3,0.2,0.6,0.5,0.9c0.3,0.3,1.1,0.6,2.2,1c1.4,0.5,2.3,1,2.8,1.4c0.5,0.5,0.7,1,0.7,1.5c0,0.8-0.4,1.5-1.2,2
			c-0.8,0.6-1.8,0.8-3.1,0.8c-0.8,0-1.6-0.1-2.3-0.4c-0.7-0.2-1.4-0.6-1.8-1l1.1-0.9c0.9,0.7,1.9,1.1,3,1.1c0.7,0,1.3-0.2,1.9-0.5
			c0.5-0.3,0.8-0.7,0.8-1.1c0-0.4-0.2-0.7-0.5-1c-0.3-0.3-1.1-0.6-2.3-1c-1.3-0.5-2.1-0.9-2.6-1.3c-0.5-0.4-0.7-1-0.7-1.5
			c0-0.7,0.4-1.4,1.1-1.9c0.7-0.5,1.7-0.7,2.8-0.7C64.9,43.5,66.2,43.9,67.5,44.8z"/>
		<path class="st0" d="M70.7,40h1.8v7.7l6.5-3.9h2.7L74,48.4l8.2,5.1h-2.6l-7.1-4.4v4.4h-1.8V40z"/>
		<path class="st0" d="M84.7,39.7c0.4,0,0.8,0.1,1.1,0.3c0.3,0.2,0.4,0.4,0.4,0.7c0,0.3-0.1,0.5-0.4,0.7c-0.3,0.2-0.6,0.3-1.1,0.3
			c-0.4,0-0.8-0.1-1-0.3c-0.3-0.2-0.4-0.4-0.4-0.7c0-0.3,0.1-0.5,0.4-0.7C84,39.8,84.3,39.7,84.7,39.7z M83.8,43.8h1.8v9.8h-1.8
			V43.8z"/>
		<path class="st0" d="M98.3,40.1h1.8v3.6h2.9v1.1h-2.9v8.7h-1.8v-8.7h-2.5v-1.1h2.5V40.1z"/>
		<path class="st0" d="M112.4,43.5c2.2,0,4,0.5,5.4,1.6c1.3,1,1.9,2.2,1.9,3.5c0,1.4-0.7,2.6-2.1,3.6c-1.4,1-3.1,1.5-5.3,1.5
			c-2.2,0-3.9-0.5-5.3-1.5c-1.4-1-2.1-2.2-2.1-3.6c0-1.4,0.6-2.5,1.9-3.5C108.5,44,110.3,43.5,112.4,43.5z M112.4,44.7
			c-1.5,0-2.8,0.4-3.9,1.2c-1.1,0.8-1.6,1.7-1.6,2.8c0,0.7,0.2,1.4,0.7,2c0.5,0.6,1.2,1.1,2,1.4c0.8,0.3,1.8,0.5,2.8,0.5
			c1,0,1.9-0.2,2.8-0.5c0.8-0.3,1.5-0.8,2-1.4c0.5-0.6,0.7-1.3,0.7-2c0-1.1-0.5-2-1.6-2.8C115.2,45.1,113.9,44.7,112.4,44.7z"/>
		<path class="st0" d="M122.9,43.8h1.8v4.6c0,1.1,0.1,1.9,0.3,2.3c0.3,0.6,0.8,1.1,1.5,1.4c0.7,0.3,1.6,0.5,2.6,0.5
			c1,0,1.9-0.2,2.6-0.5c0.7-0.3,1.2-0.8,1.5-1.3c0.2-0.4,0.3-1.2,0.3-2.4v-4.6h1.9v4.8c0,1.3-0.2,2.4-0.7,3c-0.5,0.7-1.1,1.2-2,1.6
			c-0.9,0.4-2.1,0.6-3.4,0.6c-1.4,0-2.5-0.2-3.4-0.6c-0.9-0.4-1.6-0.9-2.1-1.6c-0.5-0.7-0.7-1.7-0.7-3.1V43.8z"/>
		<path class="st0" d="M138.6,43.8h1.9v1.4c0.6-0.6,1.1-1,1.8-1.3c0.6-0.3,1.3-0.4,1.9-0.4c0.5,0,1,0.1,1.6,0.3l-0.9,1.1
			c-0.4-0.1-0.7-0.2-1-0.2c-0.6,0-1.2,0.2-1.8,0.5c-0.6,0.3-1,0.9-1.3,1.6c-0.2,0.6-0.3,1.7-0.3,3.4v3.3h-1.9V43.8z"/>
		<path class="st0" d="M154.4,44.8l-1.2,0.8c-1-0.7-1.9-1-2.8-1c-0.6,0-1.1,0.1-1.5,0.4c-0.4,0.3-0.6,0.6-0.6,0.9
			c0,0.3,0.2,0.6,0.5,0.9c0.3,0.3,1.1,0.6,2.2,1c1.4,0.5,2.3,1,2.8,1.4c0.5,0.5,0.7,1,0.7,1.5c0,0.8-0.4,1.5-1.2,2
			c-0.8,0.6-1.8,0.8-3.1,0.8c-0.8,0-1.6-0.1-2.3-0.4c-0.7-0.2-1.4-0.6-1.8-1l1.1-0.9c0.9,0.7,1.9,1.1,3,1.1c0.7,0,1.3-0.2,1.9-0.5
			c0.5-0.3,0.8-0.7,0.8-1.1c0-0.4-0.2-0.7-0.5-1c-0.3-0.3-1.1-0.6-2.3-1c-1.3-0.5-2.1-0.9-2.6-1.3c-0.5-0.4-0.7-1-0.7-1.5
			c0-0.7,0.4-1.4,1.1-1.9c0.7-0.5,1.7-0.7,2.8-0.7C151.8,43.5,153.1,43.9,154.4,44.8z"/>
	</g>
</g>
</svg>
