<?xml version="1.0" encoding="utf-8"?>
<!-- Generator: Adobe Illustrator 16.0.0, SVG Export Plug-In . SVG Version: 6.00 Build 0)  -->
<!DOCTYPE svg PUBLIC "-//W3C//DTD SVG 1.1//EN" "https://www.w3.org/Graphics/SVG/1.1/DTD/svg11.dtd">
<svg version="1.1" id="Capa_1" xmlns="https://www.w3.org/2000/svg" xmlns:xlink="https://www.w3.org/1999/xlink" x="0px" y="0px"
	 width="129.245px" height="130.419px" viewBox="0 0 129.245 130.419" enable-background="new 0 0 129.245 130.419"
	 xml:space="preserve">
<path fill="#FFFFFF" d="M21.545,89.662h7.603v4.493c-0.04,2.209-0.773,4.057-2.199,5.55c-1.438,1.481-3.246,2.245-5.425,2.284
	c-1.683-0.039-3.084-0.465-4.207-1.273c-1.146-0.776-1.976-1.676-2.494-2.695c-0.158-0.332-0.298-0.65-0.426-0.955
	c-0.116-0.311-0.216-0.705-0.293-1.18c-0.147-0.887-0.218-2.594-0.218-5.119c0-2.562,0.071-4.279,0.218-5.149
	c0.159-0.868,0.396-1.568,0.719-2.106c0.518-1.019,1.348-1.928,2.494-2.724c1.122-0.809,2.524-1.22,4.207-1.241
	c2.063,0.021,3.743,0.649,5.042,1.893c1.299,1.251,2.123,2.8,2.464,4.648h-3.435c-0.265-0.893-0.744-1.653-1.44-2.283
	c-0.725-0.6-1.605-0.907-2.642-0.928c-0.761,0.021-1.418,0.176-1.968,0.469c-0.556,0.305-1.008,0.686-1.349,1.139
	c-0.422,0.477-0.702,1.088-0.837,1.838c-0.159,0.789-0.234,2.27-0.234,4.445c0,2.175,0.075,3.648,0.234,4.418
	c0.137,0.768,0.417,1.391,0.837,1.863c0.341,0.457,0.793,0.826,1.351,1.11c0.548,0.335,1.206,0.501,1.972,0.501
	c1.263,0,2.305-0.447,3.128-1.338c0.823-0.85,1.243-1.969,1.265-3.357V92.81h-4.366V89.662z"/>
<path fill="#FFFFFF" d="M33.395,79.726h3.239v22.082h-3.239V79.726z"/>
<path fill="#FFFFFF" d="M58.776,90.767c0-2.57,0.072-4.291,0.219-5.159c0.157-0.87,0.396-1.573,0.718-2.109
	c0.52-1.017,1.35-1.921,2.494-2.717c1.124-0.805,2.525-1.214,4.208-1.235c1.701,0.021,3.117,0.433,4.254,1.241
	c1.123,0.796,1.934,1.705,2.432,2.724c0.361,0.538,0.611,1.238,0.748,2.106c0.127,0.87,0.189,2.587,0.189,5.149
	c0,2.525-0.062,4.232-0.189,5.119c-0.137,0.889-0.387,1.602-0.748,2.135c-0.498,1.02-1.311,1.919-2.434,2.695
	c-1.135,0.809-2.551,1.234-4.252,1.273c-1.683-0.039-3.084-0.465-4.208-1.273c-1.145-0.776-1.976-1.676-2.494-2.695
	c-0.155-0.332-0.298-0.65-0.425-0.955c-0.116-0.311-0.211-0.705-0.293-1.18C58.848,94.999,58.776,93.292,58.776,90.767z
	 M62.014,90.767c0,2.175,0.08,3.648,0.236,4.418c0.138,0.768,0.416,1.391,0.838,1.863c0.342,0.457,0.792,0.826,1.353,1.11
	c0.545,0.335,1.204,0.501,1.967,0.501c0.773,0,1.445-0.166,2.014-0.501c0.539-0.284,0.969-0.653,1.291-1.11
	c0.424-0.473,0.713-1.096,0.869-1.863c0.146-0.77,0.219-2.243,0.219-4.418c0-2.176-0.072-3.656-0.219-4.445
	c-0.156-0.75-0.445-1.361-0.869-1.838c-0.322-0.453-0.752-0.834-1.291-1.139c-0.568-0.293-1.24-0.448-2.014-0.469
	c-0.763,0.021-1.421,0.176-1.967,0.469c-0.56,0.305-1.01,0.686-1.353,1.139c-0.422,0.477-0.7,1.088-0.838,1.838
	C62.094,87.11,62.014,88.591,62.014,90.767z"/>
<path fill="#FFFFFF" d="M78.151,79.726h3.051l9.688,15.699h0.059V79.726h3.236v22.082h-3.066l-9.67-15.697H81.39v15.697h-3.238
	V79.726z"/>
<path fill="#FFFFFF" d="M106.309,84.244h-0.058l-5.677,17.563h-3.431l7.772-22.082h2.713l7.774,22.082h-3.418L106.309,84.244z"/>
<path fill="#FFFFFF" d="M15.799,123.417c-0.47,2.046-1.367,3.617-2.686,4.718c-1.358,1.089-2.97,1.632-4.828,1.632
	c-1.681-0.041-3.083-0.466-4.208-1.271c-1.143-0.777-1.975-1.676-2.493-2.695c-0.157-0.336-0.3-0.652-0.425-0.954
	c-0.119-0.313-0.216-0.708-0.295-1.181c-0.146-0.889-0.219-2.596-0.219-5.119c0-2.565,0.073-4.283,0.219-5.148
	c0.158-0.871,0.396-1.572,0.72-2.105c0.518-1.02,1.35-1.928,2.493-2.727c1.126-0.807,2.53-1.223,4.211-1.242
	c2.062,0.02,3.746,0.65,5.048,1.89c1.298,1.251,2.119,2.8,2.462,4.643h-3.436c-0.266-0.892-0.748-1.647-1.444-2.276
	c-0.721-0.598-1.603-0.904-2.641-0.926c-0.764,0.021-1.419,0.176-1.97,0.472c-0.559,0.302-1.008,0.681-1.352,1.138
	c-0.421,0.473-0.701,1.086-0.838,1.836c-0.155,0.789-0.234,2.271-0.234,4.447c0,2.176,0.079,3.645,0.234,4.414
	c0.137,0.77,0.417,1.393,0.838,1.869c0.343,0.455,0.793,0.825,1.353,1.107c0.549,0.332,1.205,0.5,1.969,0.5
	c1.823,0,3.187-1.007,4.087-3.02H15.799z"/>
<path fill="#FFFFFF" d="M25.564,112.021h-0.059l-5.677,17.564h-3.434l7.775-22.082h2.714l7.774,22.082h-3.417L25.564,112.021z"/>
<path fill="#FFFFFF" d="M37.538,107.503h3.051l6.132,14.395l6.016-14.395H55.8v22.082h-3.238v-13.77h-0.074l-4.478,10.604h-2.699
	l-4.477-10.604h-0.058v13.77h-3.239V107.503z"/>
<path fill="#FFFFFF" d="M63.478,129.585h-3.237v-22.082h7.75c0.844,0,1.654,0.082,2.438,0.244c0.783,0.213,1.576,0.646,2.379,1.301
	c0.676,0.496,1.221,1.203,1.643,2.119c0.438,0.893,0.658,1.939,0.658,3.152c0,1.634-0.557,3.123-1.672,4.467
	c-1.139,1.402-2.796,2.129-4.973,2.18c-0.018,0-2.17,0-2.17,0v-3.146h1.998c1.203-0.021,2.104-0.406,2.711-1.156
	c0.579-0.73,0.866-1.541,0.866-2.433c0-0.741-0.116-1.365-0.351-1.874c-0.247-0.456-0.587-0.815-1.029-1.08
	c-0.668-0.436-1.441-0.645-2.324-0.623h-4.688V129.585z"/>
<path fill="#FFFFFF" d="M78.624,107.503h13.664v3.15H81.862v6.316h8.898v2.967h-8.898v6.5h10.426v3.148H78.624V107.503z"/>
<path fill="#FFFFFF" d="M115.054,124.237c1.705,1.445,3.731,2.179,6.078,2.199c2.78-0.04,4.188-1.066,4.229-3.076
	c0.02-1.648-0.908-2.637-2.787-2.972c-0.861-0.122-1.803-0.257-2.83-0.409c-1.843-0.314-3.24-1.016-4.197-2.107
	c-0.988-1.122-1.484-2.485-1.484-4.092c0-1.93,0.621-3.486,1.863-4.668c1.202-1.174,2.906-1.77,5.113-1.789
	c2.661,0.061,4.97,0.82,6.935,2.28l-1.806,2.749c-1.604-1.092-3.371-1.658-5.299-1.699c-0.998,0-1.83,0.26-2.494,0.773
	c-0.694,0.535-1.053,1.332-1.073,2.394c0,0.638,0.239,1.214,0.72,1.729c0.479,0.523,1.246,0.889,2.303,1.092
	c0.588,0.099,1.389,0.217,2.407,0.348c2.005,0.283,3.488,1.025,4.447,2.229c0.947,1.183,1.421,2.556,1.421,4.121
	c-0.107,4.226-2.607,6.368-7.504,6.428c-3.166,0-5.888-1.006-8.166-3.012L115.054,124.237z"/>
<path fill="#FFFFFF" d="M46.854,89.399h2.144c1.215-0.021,2.127-0.385,2.732-1.093c0.597-0.659,0.897-1.468,0.897-2.431
	c-0.018-1.15-0.377-1.985-1.073-2.502c-0.549-0.456-1.341-0.685-2.38-0.685H44.09v19.103h-3.234V79.726h8.349
	c1.779,0,3.233,0.485,4.356,1.452c1.356,1.101,2.062,2.67,2.121,4.71c-0.039,2.995-1.416,5.031-4.128,6.114l4.948,9.79h-3.845
	L46.854,89.399z"/>
<path fill="#FFFFFF" d="M101.874,117.192h2.145c1.213-0.02,2.125-0.383,2.732-1.092c0.598-0.658,0.897-1.468,0.897-2.43
	c-0.02-1.152-0.378-1.986-1.075-2.504c-0.546-0.453-1.342-0.682-2.379-0.682H99.11v19.1h-3.236v-22.064h8.35
	c1.782,0,3.235,0.484,4.361,1.453c1.354,1.1,2.06,2.67,2.119,4.705c-0.041,3-1.417,5.035-4.131,6.115l4.95,9.791h-3.847
	L101.874,117.192z"/>
<g>
	<path fill="#FFFFFF" d="M72.62,13.37L64.646,0.652l-0.012,0.202l-0.01-0.041L56.467,13.37h-15.3L64.68,68.213L88.183,13.37H72.62z
		 M74.319,18.806l-6.027,4.563l5.533-5.365L74.319,18.806z M73.765,26.892l3.275-3.656l0.492,0.804L73.765,26.892z M78.112,24.98
		l0.492,0.802l-2.926,2.216L78.112,24.98z M71.851,25.786l4.117-4.295l0.494,0.804L71.851,25.786z M69.409,25.078l5.488-5.331
		l0.492,0.804L69.409,25.078z M72.756,16.259l0.492,0.802l-3.865,2.927L72.756,16.259z M72.177,15.317l-3.342,2.532l2.85-3.334
		L72.177,15.317z M71.105,13.573l-2.82,2.136l2.327-2.939L71.105,13.573z M70.034,11.829l-2.297,1.739l1.805-2.542L70.034,11.829z
		 M68.964,10.085l-1.775,1.343l1.281-2.144L68.964,10.085z M67.892,8.341l-1.251,0.948l0.757-1.749L67.892,8.341z M66.327,5.796
		l0.494,0.8l-0.729,0.552L66.327,5.796z M45.634,16.315h8.921l-5.374,8.276L45.634,16.315z M64.68,60.738L54.624,37.283l3.005-2.206
		l2.436-4.842l0.65,1.103l2.071,10.351l4.226,1.603l4.354,1.842L64.68,60.738z M66.526,41.676l2.395-2.989l0.725,0.627
		L66.526,41.676z M70.342,40.166l0.349,0.912l-1.986,1.503L70.342,40.166z M64.348,40.77l3-3.45l0.726,0.628L64.348,40.77z
		 M63.601,38.78l2.175-2.823l0.725,0.628L63.601,38.78z M63.09,36.61l1.209-2.092l0.499,0.589l0.128,0.114L63.09,36.61z
		 M62.58,34.44l0.407-1.483l0.604,0.718L62.58,34.44z M70.882,43.488l0.22-1.342l0.351,0.91L70.882,43.488z M77.507,30.808
		l-0.917,2.138l-4.136,9.648l-1.193-3.371l-0.059-0.169l-0.39-0.36l-0.706-0.653l-4.491-4.164l-2.8-3.173l-2.664-3.019l-0.182-0.307
		l-0.033,0.062h-0.003l0.002,0.004l-3.385,6.723l-2.483,1.821l-4.238-9.88L64.054,4.209l0.302,1.218l0.551,2.224l0.552,2.225
		l2.538,10.243l-2.736,7.218l4.829-0.832l6.898,3.855l0.575,0.319L77.507,30.808z M78.513,28.408l-0.919,0.696l1.591-2.38
		l0.002,0.002L78.513,28.408z M74.467,16.315h9.251l-3.756,8.764L74.467,16.315z"/>
</g>
</svg>
