<?xml version="1.0" encoding="utf-8"?>
<!-- Generator: Adobe Illustrator 21.0.0, SVG Export Plug-In . SVG Version: 6.00 Build 0)  -->
<svg id="iso-mountain" version="1.1" xmlns="https://www.w3.org/2000/svg" xmlns:xlink="https://www.w3.org/1999/xlink" x="0px" y="0px"
	 viewBox="0 0 132 132" style="enable-background:new 0 0 132 132;" xml:space="preserve">
<g>
	<path style="fill:#FFFFFF;" d="M81.2,25.8L65.9,1.5v0.4V1.8l-15.6,24H21.1L66,130.5l44.8-104.6H81.2V25.8z M84.4,36.2l-11.5,8.7
		l10.6-10.2L84.4,36.2z M83.3,51.6l6.2-7l0.9,1.5L83.3,51.6z M91.6,48l0.9,1.5L87,53.7L91.6,48z M79.7,49.5l7.9-8.2l0.9,1.5
		L79.7,49.5z M75,48.2L85.5,38l0.9,1.5L75,48.2z M81.4,31.3l0.9,1.5L75,38.4L81.4,31.3z M80.3,29.5l-6.4,4.8l5.4-6.4L80.3,29.5z
		 M78.3,26.2l-5.4,4.1l4.4-5.6L78.3,26.2z M76.2,22.9l-4.4,3.3l3.4-4.8L76.2,22.9z M74.2,19.5l-3.4,2.6l2.4-4.1L74.2,19.5z
		 M72.1,16.2L69.8,18l1.4-3.3L72.1,16.2z M69.2,11.4l0.9,1.5L68.7,14L69.2,11.4z M29.7,31.4h17L36.4,47.2L29.7,31.4z M66,116.2
		L46.8,71.4l5.7-4.2l4.6-9.2l1.2,2.1l4,19.7l8.1,3.1l8.3,3.5L66,116.2z M69.5,79.8l4.6-5.7l1.4,1.2L69.5,79.8z M76.8,76.9l0.7,1.7
		l-3.8,2.9L76.8,76.9z M65.4,78.1l5.7-6.6l1.4,1.2L65.4,78.1z M63.9,74.3l4.2-5.4l1.4,1.2L63.9,74.3z M63,70.2l2.3-4l1,1.1l0.2,0.2
		L63,70.2z M62,66l0.8-2.8l1.2,1.4L62,66z M77.8,83.3l0.4-2.6l0.7,1.7L77.8,83.3z M90.5,59.1l-1.8,4.1l-7.9,18.4l-2.3-6.4l-0.1-0.3
		l-0.7-0.7L76.4,73l-8.6-7.9L62.5,59l-5.1-5.8L57,52.5v0.2l0,0l0,0l-6.5,12.8L45.8,69l-8.1-18.9L64.8,8.3l0.6,2.3l1.1,4.2l1.1,4.2
		l4.8,19.5l-5.2,13.8l9.2-1.6l13.2,7.4l1.1,0.6L90.5,59.1z M92.4,54.5l-1.8,1.3l3-4.5l0,0L92.4,54.5z M84.7,31.4h17.7l-7.2,16.7
		L84.7,31.4z"/>
</g>
</svg>
