<?xml version="1.0" encoding="utf-8"?>
<!-- Generator: Adobe Illustrator 18.0.0, SVG Export Plug-In . SVG Version: 6.00 Build 0)  -->
<!DOCTYPE svg PUBLIC "-//W3C//DTD SVG 1.1//EN" "http://www.w3.org/Graphics/SVG/1.1/DTD/svg11.dtd">
<svg version="1.1" id="Layer_1" xmlns="http://www.w3.org/2000/svg" xmlns:xlink="http://www.w3.org/1999/xlink" x="0px" y="0px"
	 viewBox="0 0 323 26.2" enable-background="new 0 0 323 26.2" xml:space="preserve">
<g>
	<g>
		<path fill-rule="evenodd" clip-rule="evenodd" fill="#6ABD45" d="M304.4,14.1l6.2-13.9c-74.1,0-34.6-0.1-114.8-0.1h-0.3l-8.7,6.1
			L185.6,0l-16.3,0l-9.1,15.6l3.6-8.1c0.7-1.6,0.6-3.4-0.4-4.9c-1.2-1.9-3.4-2.5-5.5-2.5h-46.2l-6.2,14h-9l6.2-13.9L86.8,0.3
			l-6.2,13.8h-8.2l6.2-13.9L62.6,0.1L62.2,1c-1.5-0.7-3.3-0.8-5-0.8c-5.3-0.1-10.5,0-15.8,0H5.6L0,12.1h9.8l-6.2,14h16.1l6.2-14H31
			l-6.2,14H41l2.2-5h0.3l-2.2,5H43c32.2,0,64.4,0,96.6,0h0.7l1.8-4.1l4.1,4.1h7.8h0h17.7l1.5-3l0.5,3h10.6L187,24l-1,2.1h48.7
			c1.1,0,2.3-0.3,3.2-0.9c1.2,0.7,2.7,0.9,4.1,0.9l19.7,0c1.1,0,2.2-0.3,3.1-0.8c1.9,1,4.3,0.8,6.4,0.8c13.5,0,27.1,0,40.6,0h0.5
			l10.7-12H304.4z M311.8,25.1h-40.6c-2,0-4.6,0.2-6.4-1c-0.8,0.7-1.9,1-3.1,1H242c-1.5,0-2.9-0.3-4.1-1.1c-0.9,0.7-2,1.1-3.2,1.1
			h-47l2.1-4.7l-5.9,4.7h-9.3l-0.8-5.3l-2.8,5.3h-15.2h0h-9.3l-4.9-4.9l-2.2,4.8c-32.8,0-63.3-0.1-96.6,0l2.2-4.9h-2.7l-2.2,5H26.5
			l6.2-14h-7.5l-6.2,14H5.3l6.2-14H1.7l4.6-10h35c5.3,0,10.6-0.1,15.8,0c1.9,0,4,0.2,5.5,1.3l0.6-1.3l13.7,0.1l-6.2,13.9h10.6
			l6.2-13.9l13.7,0.1l-6.2,13.8h11.3l6.2-14H158c1.8,0,3.6,0.5,4.6,2c0.8,1.1,0.9,2.6,0.3,3.9l-3.7,8.2c-0.5,1.3-1.4,2.4-2.5,3.1
			l2,2L170,1.1l14.7,0l1.3,7l9.8-7c67.5,0,46.7,0.1,113.2,0.1l-6.2,13.9h17.9L311.8,25.1z M159.1,17.6l-0.5,0.9l-0.2-0.2
			C158.6,18.2,158.8,17.9,159.1,17.6z"/>
	</g>
	<g>
		<path fill="#6ABD45" d="M156.8,14.2l3.7-8.2c0.3-0.6,0.3-2.1-2.5-2.1h-19.7l-2.2,4.8l13.2,0c0,0,1.9-0.2,1.2,1.4l-0.7,1.5
			c-0.1,0.2-0.4,0.8-2.4,0.8c-2.3,0-12.9,0-12.9,0L130,22.4h7.9l2.5-5.4h2l5.5,5.4h9.2l-5.5-5.4h0.7
			C152.1,16.9,155.4,17.4,156.8,14.2z"/>
		<polygon fill="#6ABD45" points="37.2,3.8 8,3.8 5.8,8.6 15.7,8.6 9.5,22.4 17.3,22.4 23.4,8.6 35.1,8.6 		"/>
		<path fill="#6ABD45" d="M55.5,3.8L39,3.8l-8.3,18.6h7.9l2.2-4.9h8.6l-2.2,4.9l7.9,0l6.3-14C63.3,3.5,58.8,3.8,55.5,3.8z M52.9,9.6
			l-1.7,3.9h-8.6l1.8-3.9c0.2-0.6,0.8-0.9,1.2-0.9l7,0C53.1,8.7,53,9.2,52.9,9.6z"/>
		<path fill="#6ABD45" d="M115.9,17.5l1-2.2l7.7,0l2.1-4.5l-7.8,0l1-2.2h14.4l2.2-4.8l-22.2,0l-6.6,14.6c-2,4.3,0.7,4,4.7,4l15.8,0
			l2.2-4.8L115.9,17.5z"/>
		<path fill="#6ABD45" d="M68.6,17.5c-0.5,0-1.1,0-1.4-0.4c-0.3-0.4-0.1-0.8,0.1-1.2l5.5-12.2l-7.8,0l-6.8,15.1
			c-1,2.3,0,3.4,2.6,3.4h17.7l4.2-4.8H68.6z"/>
		<path fill="#6ABD45" d="M91.5,17.1c-0.3-0.4-0.1-0.8,0.1-1.2l5.5-12.2l-7.8,0l-6.8,15.1c-1,2.3,0,3.4,2.6,3.4h17.7l4.2-4.8H92.9
			C92.5,17.5,91.8,17.5,91.5,17.1z"/>
	</g>
	<g>
		<path fill="#6ABD45" d="M300.6,17.5c-0.5,0-1.1,0-1.4-0.4c-0.3-0.4-0.1-0.8,0.1-1.2l5.5-12.2H297L290.1,19c-1,2.3,0,3.5,2.6,3.5
			h17.8l4.2-4.9H300.6z"/>
		<path fill="#6ABD45" d="M263.7,3.8l-6,13.2c-0.2,0.4-0.5,0.6-0.9,0.6h-7c-0.5,0-1.1-0.1-1.4-0.5c-0.3-0.4-0.1-0.8,0.1-1.2L254,3.8
			h-7.8L239.3,19c-0.4,0.8-0.7,1.6-0.2,2.4c0.6,0.8,1.9,0.9,2.8,0.9l19.7,0c0.9,0,1.6-0.5,2-1.2l7.8-17.4H263.7z"/>
		<path fill="#6ABD45" d="M275.7,15.3l7.8,0l2.1-4.5l-7.9,0l1-2.2h14.5l2.2-4.8l-22.4,0l-6.6,14.7c-2,4.3,0.7,4,4.7,4l15.9,0
			l2.2-4.9l-14.6,0L275.7,15.3z"/>
		<path fill="#6ABD45" d="M228.5,12.7l-3,3.5l5.6,0l-0.4,0.8c-0.2,0.4-0.5,0.6-1,0.6h-7.7c-0.8,0-0.9-0.5-0.6-1.2l3.2-7.2
			c0.2-0.4,0.6-0.6,1-0.6h15l4-4.8h-23.8c-0.9,0-1.7,0.5-2,1.2l-6.3,14c-0.4,0.8-0.8,1.6-0.2,2.4c0.6,0.8,1.9,0.9,2.8,0.9h19.7
			c0.9,0,1.7-0.5,2-1.2c1.3-2.8,2.5-5.7,3.8-8.5L228.5,12.7z"/>
		<polygon fill="#6ABD45" points="209.7,3.8 201.3,22.4 209.2,22.4 217.6,3.8 		"/>
		<polygon fill="#6ABD45" points="196.7,3.8 184.1,12.7 182.5,3.8 171.5,3.8 160.6,22.4 169.5,22.4 175.3,11.2 177,22.4 183,22.4 
			196.9,11.2 191.9,22.4 199.7,22.4 208.1,3.8 		"/>
	</g>
</g>
</svg>
