<?xml version="1.0" encoding="utf-8"?>
<!-- Generator: Adobe Illustrator 18.0.0, SVG Export Plug-In . SVG Version: 6.00 Build 0)  -->
<!DOCTYPE svg PUBLIC "-//W3C//DTD SVG 1.1//EN" "http://www.w3.org/Graphics/SVG/1.1/DTD/svg11.dtd">
<svg version="1.1" id="Layer_1" xmlns="http://www.w3.org/2000/svg" xmlns:xlink="http://www.w3.org/1999/xlink" x="0px" y="0px"
	 viewBox="0 0 349.5 60.5" enable-background="new 0 0 349.5 60.5" xml:space="preserve">
<path d="M0,0v60.5h349.5V0H0z M325.5,43.3H325c-13.5,0-27.1,0-40.6,0c-2.1,0-4.5,0.2-6.4-0.8c-0.9,0.5-2,0.8-3.1,0.8l-19.7,0
	c-1.4,0-2.8-0.2-4.1-0.9c-1,0.6-2.1,0.9-3.2,0.9h-48.7l1-2.1l-2.7,2.1H187l-0.5-3l-1.5,3h-25.5l-4.1-4.1l-1.9,4.1h-99l2.2-5h-0.3
	l-2.2,5H38.1l6.2-14h-5.1l-6.2,14H16.9l6.2-14h-9.8l5.5-12h35.7c5.3,0,10.5-0.1,15.8,0c1.7,0,3.5,0.1,5,0.8l0.4-0.8l16,0.1
	l-6.2,13.9h8.2l6.2-13.8l16.1-0.1L110,31.3h9l6.2-14h46.2c2.1,0,4.3,0.6,5.5,2.5c1,1.4,1.1,3.3,0.4,4.9l-3.6,8.1l9.1-15.6l16.3,0
	l1.1,6.2l8.7-6.1h0.4c80.2,0,40.7,0.1,114.8,0.1l-6.2,13.9h18.6L325.5,43.3z"/>
<path fill-rule="evenodd" clip-rule="evenodd" d="M316,32.3l6.2-13.9c-66.5,0-45.7-0.1-113.1-0.1l-9.8,7l-1.3-7l-14.7,0L172,37.5
	l-2-2c1.1-0.8,2-1.9,2.5-3.1l3.7-8.2c0.6-1.2,0.5-2.7-0.3-3.9c-1-1.5-2.8-2-4.6-2h-45.5l-6.2,14h-11.3l6.2-13.8l-13.7-0.1l-6.2,13.9
	H84l6.2-13.9l-13.7-0.1l-0.6,1.3c-1.5-1.2-3.6-1.3-5.5-1.3c-5.3-0.1-10.5,0-15.8,0h-35l-4.6,10h9.8l-6.2,14h13.7l6.2-14h7.5l-6.2,14
	h13.8l2.2-5h2.7l-2.2,4.9c33.4,0,63.9,0.1,96.6,0.1l2.2-4.8l4.9,4.9h24.4l2.8-5.3l0.8,5.3h9.3l5.9-4.7l-2.1,4.7h47
	c1.2,0,2.3-0.4,3.2-1.1c1.1,0.9,2.6,1.1,4.1,1.1h19.7c1.1,0,2.2-0.4,3.1-1c1.7,1.3,4.3,1,6.4,1H325l8.9-10H316z M36.7,25.8
	l-6.2,13.8h-7.8l6.2-13.8h-9.8l2.2-4.8h29.2l-2.1,4.8H36.7z M60.4,39.5l2.2-4.8H54l-2.2,4.8h-7.9L52.3,21h16.5
	c3.3,0,7.9-0.3,5.9,4.6l-6.3,14H60.4z M74,39.5c-2.6,0-3.6-1.1-2.6-3.4L78.2,21H86l-5.5,12.2c-0.2,0.4-0.4,0.8-0.1,1.2
	c0.3,0.4,0.9,0.4,1.4,0.4h14.1l-4.2,4.8H74z M116,39.5H98.3c-2.6,0-3.6-1.1-2.6-3.4l6.8-15.1h7.8l-5.5,12.2
	c-0.2,0.4-0.4,0.8-0.1,1.2c0.3,0.4,0.9,0.4,1.4,0.4h14L116,39.5z M161.1,39.5l-5.5-5.5h-2l-2.5,5.5h-7.9l1.9-4.2l-1.5-0.7l-2.2,4.8
	h-15.8c-3.9,0-6.6,0.3-4.7-4l6.6-14.6h22.2l-1.9,4.1l1.5,0.7l2.2-4.8h19.7c2.8,0,2.7,1.5,2.5,2.1l-3.7,8.2c-1.3,3.2-4.6,2.8-4.6,2.8
	h-0.7l5.5,5.5H161.1z M205.1,39.6l5-11.2l-13.9,11.2h-6l-1.7-11.2l-5.8,11.2h-8.8l10.9-18.6h10.9l1.6,9l12.6-9h11.4L213,39.6H205.1z
	 M214.6,39.6l8.4-18.6h7.9l-8.4,18.6H214.6z M276.9,38.4c-0.3,0.8-1.1,1.2-2,1.2h-19.7c-0.9,0-2.2-0.1-2.8-0.9
	c-0.6-0.8-0.2-1.6,0.2-2.4l-1.3-0.6c-0.4,0.9-0.8,1.8-1.2,2.8c-0.4,0.8-1.1,1.2-2,1.2h-19.7c-1,0-2.2-0.1-2.8-0.9
	c-0.6-0.8-0.2-1.6,0.2-2.5l6.3-14c0.4-0.8,1.1-1.2,2-1.2h23.8l1.3,0.6l0.3-0.6h7.8l-5.5,12.2c-0.2,0.4-0.4,0.8-0.1,1.2
	c0.3,0.4,0.9,0.5,1.4,0.5h7c0.4,0,0.8-0.2,1-0.6l6-13.2h7.8L276.9,38.4z M323.8,39.6H306c-2.6,0-3.6-1.1-2.6-3.5l0.4-0.8l-1.2-0.6
	l-2.2,4.9h-15.9c-4,0-6.7,0.3-4.7-4l6.6-14.7h22.4l1.3,0.6l0.3-0.6h7.8l-5.5,12.2c-0.2,0.4-0.4,0.8-0.1,1.2c0.3,0.4,0.9,0.4,1.4,0.4
	H328L323.8,39.6z"/>
<polygon fill-rule="evenodd" clip-rule="evenodd" points="310,21.5 303.8,35.3 303.8,35.3 302.5,34.7 287.9,34.7 289,32.4 
	296.7,32.4 298.8,27.9 291,27.9 292,25.8 306.5,25.8 308.7,20.9 "/>
<path fill-rule="evenodd" clip-rule="evenodd" d="M259.2,21.5l-6.6,14.7l-1.3-0.6c0.8-1.9,1.7-3.8,2.6-5.7l-12,0l-3,3.5h5.6
	l-0.4,0.8c-0.2,0.4-0.5,0.6-1,0.6h-7.7c-0.8,0-0.9-0.5-0.6-1.2l3.2-7.2c0.2-0.4,0.6-0.6,1-0.6h15l4-4.8L259.2,21.5z"/>
<path fill-rule="evenodd" clip-rule="evenodd" d="M163.8,27.2l-0.7,1.5c-0.1,0.2-0.4,0.8-2.4,0.8c-2.3,0-12.9,0-12.9,0l-2.6,5.9
	l-1.5-0.7l-14.5,0l1-2.2l7.8,0l2.1-4.5h-7.8l1-2.2h14.4l0.3-0.7l1.5,0.7h13.2C162.6,25.8,164.5,25.6,163.8,27.2z"/>
<path d="M66.1,26.7l-1.7,3.9h-8.6l1.8-3.9c0.2-0.5,0.8-0.9,1.2-0.9h7C66.3,25.9,66.3,26.3,66.1,26.7z"/>
</svg>
