<?xml version="1.0" encoding="utf-8"?>
<!-- Generator: Adobe Illustrator 21.0.0, SVG Export Plug-In . SVG Version: 6.00 Build 0)  -->
<svg id="bravavans-brand" version="1.1" xmlns="http://www.w3.org/2000/svg" xmlns:xlink="http://www.w3.org/1999/xlink" x="0px" y="0px"
	 viewBox="0 0 150.7 21.6" style="enable-background:new 0 0 150.7 21.6;" xml:space="preserve">
<g>
	<path style="fill:#FFFFFF;" d="M0,0.2h8c2,0,3.5,0.5,4.6,1.6c1,1,1.5,2.4,1.5,4.1c0,0.9-0.2,1.7-0.6,2.5c-0.2,0.4-0.5,0.7-0.9,1.1
		c-0.4,0.4-0.9,0.7-1.5,1v0.1c1.1,0.3,2,0.9,2.5,1.8c0.5,0.9,0.8,2,0.8,3.1c0,1.8-0.6,3.3-1.7,4.4s-2.4,1.7-4.1,1.7H0V0.2z
		 M7.5,10.4c0,0,2.1-1.6,2.7-2.2C10.7,7.6,11,6.9,11,6.1c0-0.9-0.3-1.6-0.8-2.2C9.6,3.3,8.8,3,7.6,3H3.1v15.4h4.8c1.2,0,2-0.3,2.5-1
		c0.5-0.6,0.8-1.4,0.8-2.2c0-0.9-0.3-1.6-0.8-2.2C9.9,12.3,7.5,10.4,7.5,10.4z"/>
	<path style="fill:#FFFFFF;" d="M24.2,9.5h2.1c1.2,0,2-0.4,2.6-1.1c0.6-0.6,0.9-1.4,0.9-2.3c0-1.1-0.4-1.9-1-2.4
		C28.2,3.2,27.5,3,26.5,3h-4.9v18.4h-3.1V0.2h8c1.7,0,3.1,0.5,4.2,1.4c1.3,1.1,2,2.6,2,4.5c0,2.9-1.4,4.8-4,5.9l4.8,9.4h-3.7
		L24.2,9.5z"/>
	<path style="fill:#FFFFFF;" d="M37.8,21.4h-3.3L42,0.2h2.6l7.5,21.2h-3.3L43.3,4.5h-0.1L37.8,21.4z"/>
	<path style="fill:#FFFFFF;" d="M51.2,0.2h3.3l4.7,16.2h0.1L64,0.2h3.3l-6.8,21.2H58L51.2,0.2z"/>
	<path style="fill:#FFFFFF;" d="M83,0.2h3.3L91,16.4l0,0l4.7-16.2H99l-6.8,21.2h-2.4L83,0.2z"/>
	<path style="fill:#FFFFFF;" d="M106.5,4.5L106.5,4.5L101,21.4h-3.3l7.5-21.2h2.6l7.5,21.2H112L106.5,4.5z"/>
	<path style="fill:#FFFFFF;" d="M75.1,4.5L75.1,4.5l-5.5,16.9h-3.3l7.5-21.2h2.6l7.5,21.2h-3.3L75.1,4.5z"/>
	<path style="fill:#FFFFFF;" d="M116.3,0.2h2.9l9.3,15.1h0.1V0.2h3.1v21.2h-2.9l-9.3-15.1h-0.1v15.1h-3.1L116.3,0.2L116.3,0.2z"/>
	<path style="fill:#FFFFFF;" d="M137.7,16.3c1.6,1.4,3.6,2.1,5.8,2.1c2.7,0,4-1,4.1-3c0-1.6-0.9-2.5-2.7-2.9
		c-0.8-0.1-1.7-0.2-2.7-0.4c-1.8-0.3-3.1-1-4-2c-1-1.1-1.4-2.4-1.4-3.9c0-1.9,0.6-3.4,1.8-4.5s2.8-1.7,4.9-1.7
		c2.6,0.1,4.8,0.8,6.7,2.2l-1.7,2.6c-1.5-1.1-3.2-1.6-5.1-1.6c-1,0-1.8,0.2-2.4,0.7c-0.7,0.5-1,1.3-1,2.3c0,0.6,0.2,1.2,0.7,1.7
		s1.2,0.9,2.2,1.1c0.6,0.1,1.3,0.2,2.3,0.3c1.9,0.3,3.4,1,4.3,2.1c0.9,1.1,1.4,2.5,1.4,4c-0.1,4.1-2.5,6.1-7.2,6.2
		c-3,0-5.7-1-7.9-2.9L137.7,16.3z"/>
</g>
</svg>
