<?xml version="1.0" encoding="utf-8"?>
<!-- Generator: Adobe Illustrator 21.0.0, SVG Export Plug-In . SVG Version: 6.00 Build 0)  -->
<svg id="footer-brand" version="1.1" xmlns="http://www.w3.org/2000/svg" xmlns:xlink="http://www.w3.org/1999/xlink" x="0px" y="0px"
	 viewBox="0 0 285.3 115" style="enable-background:new 0 0 285.3 115;" xml:space="preserve">
<g>
	<g>
		<path style="fill:#119795;" d="M79.8,62.4h7.1c1.8,0,3.2,0.5,4.1,1.4s1.4,2.2,1.4,3.7c0,0.8-0.2,1.5-0.5,2.2
			c-0.2,0.3-0.5,0.7-0.8,1c-0.4,0.3-0.8,0.6-1.3,0.9v0.1c1,0.3,1.8,0.8,2.3,1.6c0.5,0.8,0.7,1.8,0.7,2.7c0,1.6-0.5,2.9-1.5,3.9
			s-2.2,1.5-3.6,1.5H80v-19H79.8z M86.4,71.6c0,0,1.9-1.4,2.4-2c0.5-0.5,0.7-1.1,0.7-1.9s-0.2-1.4-0.7-1.9S87.6,65,86.6,65h-4v13.7
			h4.3c1,0,1.8-0.3,2.3-0.9s0.7-1.2,0.7-2s-0.2-1.5-0.7-2C88.6,73.3,86.4,71.6,86.4,71.6z"/>
		<path style="fill:#119795;" d="M100.5,70.7h1.8c1,0,1.8-0.3,2.3-0.9s0.8-1.3,0.8-2.1c0-1-0.3-1.7-0.9-2.1c-0.5-0.4-1.2-0.6-2-0.6
			h-4.4v16.4h-2.8v-19h7.2c1.5,0,2.8,0.4,3.7,1.2c1.2,0.9,1.8,2.3,1.8,4c0,2.6-1.2,4.3-3.5,5.2l4.2,8.4h-3.3L100.5,70.7z"/>
		<path style="fill:#119795;" d="M111.7,81.4h-2.9l6.7-19h2.3l6.7,19h-2.9l-4.9-15.1l0,0L111.7,81.4z"/>
		<path style="fill:#119795;" d="M122.8,62.4h2.9l4.2,14.4h0.1l4.2-14.4h2.9l-6.1,19h-2.2L122.8,62.4z"/>
		<path style="fill:#119795;" d="M149.4,62.4h2.9l4.2,14.4h0.1l4.2-14.4h2.9l-6.1,19h-2.2L149.4,62.4z"/>
		<path style="fill:#119795;" d="M169.5,66.3L169.5,66.3l-4.9,15.1h-2.9l6.7-19h2.3l6.7,19h-2.9L169.5,66.3z"/>
		<path style="fill:#119795;" d="M143.2,66.3L143.2,66.3l-4.9,15.1h-2.9l6.7-19h2.3l6.7,19h-2.9L143.2,66.3z"/>
		<path style="fill:#119795;" d="M177.3,62.4h2.6l8.3,13.5l0,0V62.4h2.8v19h-2.6l-8.3-13.5l0,0v13.5h-2.8V62.4z"/>
		<path style="fill:#119795;" d="M195.5,76.8c1.5,1.2,3.2,1.9,5.2,1.9c2.4,0,3.6-0.9,3.6-2.6c0-1.4-0.8-2.3-2.4-2.6
			c-0.7-0.1-1.6-0.2-2.4-0.3c-1.6-0.3-2.8-0.9-3.6-1.8c-0.8-1-1.3-2.1-1.3-3.5c0-1.7,0.5-3,1.6-4c1-1,2.5-1.5,4.4-1.5
			c2.3,0.1,4.3,0.7,6,2l-1.5,2.4c-1.4-0.9-2.9-1.4-4.5-1.5c-0.9,0-1.6,0.2-2.1,0.7c-0.6,0.5-0.9,1.1-0.9,2.1c0,0.5,0.2,1,0.6,1.5
			c0.4,0.5,1.1,0.8,2,0.9c0.5,0.1,1.2,0.2,2.1,0.3c1.7,0.2,3,0.9,3.8,1.9s1.2,2.2,1.2,3.5c-0.1,3.6-2.2,5.5-6.4,5.5
			c-2.7,0-5.1-0.9-7-2.6L195.5,76.8z"/>
	</g>
	<path style="fill:#119795;" d="M164.4,23.1c0-0.2-1-4.3-3.5-9.1c-0.4-0.8-0.9-1.7-1.4-2.4l3.6-8.5h-11.6c-1.2-0.8-2.4-1.4-3.6-1.9
		C146,0.4,144.1,0,142.3,0c-1.7,0-5,0.4-8.3,3.1h-10.7l19.9,46.4l11.5-26.9l9.8,1.4L164.4,23.1z M159.3,5.5l-1.5,3.6
		c-1-1.3-2-2.5-3.2-3.6C154.6,5.5,159.3,5.5,159.3,5.5z M127.1,5.5h4.4c-0.9,1.1-1.8,2.5-2.6,4.1L127.1,5.5z M130.2,12.6
		c0.6-1.3,1.4-2.4,2.3-3.4c1.8-1.8,4-3.1,6.4-3.6c1.1,0,2,0.2,2.9,0.5c-0.2,0-0.4,0-0.6,0c-3,0-6,1.3-8.1,3.6
		c-1,1.1-1.8,2.3-2.5,3.8L130.2,12.6z M131,14.3c0.6-1.7,1.6-3.3,2.7-4.5c2.1-2.2,5.2-3.6,8.1-3.6c0.2,0,0.3,0,0.5,0
		c0.6,0.2,1.1,0.5,1.5,0.9c-0.6-0.1-1.3-0.2-2-0.2c-2.8,0-5.7,1.3-7.7,3.4c-1.3,1.3-2.2,3-2.8,4.9L131,14.3z M131.8,16.2
		c0.6-2.3,1.6-4.2,3.1-5.7c2-2.1,4.9-3.4,7.7-3.4c0.5,0,1,0,1.4,0.1c0.3,0.3,0.7,0.6,1,0.9c-0.8-0.2-1.6-0.3-2.4-0.3
		c-2.6,0-5.3,1.2-7.2,3.2c-1.5,1.6-2.6,3.8-3.1,6.3L131.8,16.2z M132.8,18.5c0.4-3,1.5-5.5,3.2-7.3c1.9-2,4.6-3.2,7.2-3.2
		c0.6,0,1.2,0.1,1.7,0.2c0.2,0.3,0.5,0.5,0.7,0.8c-0.8-0.2-1.6-0.3-2.4-0.3c-2.5,0-5,1.1-6.8,3c-1.9,2-2.9,4.7-3.2,8.1L132.8,18.5z
		 M134,21.3c0-4,1-7.2,3.2-9.4c1.8-1.9,4.3-3,6.8-3c0.6,0,1.2,0.1,1.8,0.2c0.2,0.3,0.4,0.5,0.5,0.8c-0.7-0.2-1.5-0.3-2.3-0.3
		c-2.3,0-4.7,1-6.3,2.8c-2,2.1-3.1,5.3-3,9.2c0,0.5,0,1,0.1,1.5L134,21.3z M136,25.9c-0.4-1.6-0.6-3.2-0.6-4.6c-0.1-3.7,1-6.8,3-8.9
		c1.7-1.7,4-2.8,6.3-2.8c0.5,0,1.1,0,1.6,0.1c0.1,0.2,0.3,0.5,0.4,0.7c-0.7-0.1-1.3-0.2-2-0.2c-0.8,0-3.6,0.2-5.9,2.6
		c-1.9,2-2.8,4.8-2.8,8.4c0,2,0.3,4.2,0.8,6.4L136,25.9z M144.4,40.3c-3.3-5.3-7.6-13.9-7.7-18.9c-0.1-3.5,0.9-6.2,2.7-8.2
		c2.3-2.4,5.1-2.6,5.9-2.6c0.5,0,0.9,0,1.4,0.1c0.1,0.2,0.2,0.5,0.3,0.7c-0.6-0.1-1.1-0.2-1.7-0.2c-0.7,0-3.3,0.2-5.4,2.4
		c-1.7,1.8-2.6,4.4-2.6,7.7c0.1,5.3,3.8,13,7,18c0.1,0.2,0.2,0.3,0.3,0.5L144.4,40.3z M145.7,37.2c-2.8-4.2-7.6-10.9-7.7-15.9
		c0-3.2,0.8-5.7,2.5-7.4c1.7-1.8,3.9-2.4,5.5-2.4c0.3,0,0.7,0,1.1,0.1c0.1,0.2,0.2,0.5,0.3,0.7c-0.4-0.1-0.9-0.1-1.3-0.1
		c-1.4,0-3.4,0.6-5,2.2s-2.4,4-2.3,7c0.1,4.9,3,9.5,5.9,13.8c0.5,0.7,0.9,1.2,1.3,1.7L145.7,37.2z M146.6,35.2
		c-2.7-3.6-7.1-9.5-7.1-14c0-2.8,0.7-5.1,2.3-6.7s3.6-2.2,5-2.2c0.2,0,0.4,0,0.7,0c0.1,0.2,0.2,0.4,0.2,0.7c-0.3,0-0.6,0-0.9,0
		c-1.3,0-3.1,0.5-4.6,2c-1.4,1.5-2.1,3.6-2.1,6.2c0.1,4.5,3.2,8.6,5.7,12.1c0.4,0.5,0.7,0.9,1,1.3L146.6,35.2z M147.4,33.2
		c-2.5-3.1-6.6-8-6.6-12.1c0-2.5,0.7-4.5,2-6c1.4-1.5,3.3-2,4.6-2c0.1,0,0.2,0,0.3,0c0.1,0.2,0.1,0.4,0.2,0.7c-0.2,0-0.3,0-0.5,0
		c-1.2,0-2.8,0.5-4.1,1.8s-1.9,3.1-1.9,5.5c0,4.3,3.2,7.5,5.5,10.4c0.3,0.4,0.6,0.6,0.9,0.9L147.4,33.2z M148.1,31.6
		c-2.4-2.6-5.9-6.9-6-10.5c0-2.2,0.6-4,1.8-5.2c1.2-1.3,2.8-1.7,4-1.8c0.1,0.2,0.1,0.4,0.2,0.7c-1,0-2.5,0.4-3.7,1.6
		c-1.1,1.1-1.6,2.7-1.6,4.8c0,4.1,3.1,6.9,5.3,9.2c0.1,0.1,0.3,0.3,0.4,0.4L148.1,31.6z M148.8,30c-2.3-2.3-5.2-5.8-5.2-9
		c0-1.9,0.5-3.4,1.6-4.5c0.9-0.9,2.1-1.4,3-1.5c0,0.2,0.1,0.4,0.1,0.6c-0.7,0.1-1.8,0.4-2.7,1.3s-1.4,2.3-1.4,4c0,3.9,3.2,6.5,5,8.1
		L148.8,30z M149.8,27.8c-1.5-0.9-4-3-4-6.6c0-2.8,1.8-3.7,2.7-3.9c0.3,2.2,0.3,3.8,0.3,3.8v0.5l3.5,0.5L149.8,27.8z M160,22.1
		c-0.2-1.4-0.9-4.9-3.6-9.7c0,0,2.5,5.1,2.9,9.5l-2.7-0.4c-0.1-1-0.4-3-1.4-6c0,0,0.9,3.1,1,5.9l-2.3-0.3c-0.1-1.3-0.4-4.9-2.8-10.1
		c0,0,2.1,5.5,2,10l-3.1-0.4c0-2-0.4-9.4-4.3-13.4c-1.7-1.7-3.8-2.6-6.3-2.6c-3.1,0-5.8,1.1-8,3.2c2.2-3.2,5.7-6.7,11.1-6.7
		c1.7,0,3.4,0.4,5.2,1.1c10.3,4.1,14.6,16.9,15.5,20.3L160,22.1z"/>
	<g>
		<path style="fill:#119795;" d="M0,114.9v-13.1h2.8c0.6,0,1.1,0.1,1.6,0.2s0.9,0.3,1.3,0.6c0.4,0.3,0.6,0.6,0.8,1
			c0.2,0.4,0.3,0.9,0.3,1.5c0,0.8-0.2,1.4-0.5,1.9c-0.3,0.4-0.9,0.7-1.6,0.9c0.8,0.3,1.4,0.6,1.8,1.1c0.4,0.5,0.6,1.2,0.6,2.1
			c0,1.2-0.3,2.1-1,2.7c-0.7,0.7-1.6,1-2.7,1H0V114.9z M1.9,107.4h0.9c1.6,0,2.3-0.8,2.3-2.3c0-0.3,0-0.5-0.1-0.7s-0.1-0.4-0.2-0.5
			s-0.2-0.2-0.4-0.3c-0.2-0.1-0.3-0.2-0.5-0.2s-0.4-0.1-0.6-0.1c-0.3,0-0.5,0-0.7,0s-0.4,0-0.8,0L1.9,107.4L1.9,107.4z M1.9,113.5
			h0.9c0.8,0,1.4-0.2,1.8-0.6s0.6-1,0.6-1.8s-0.2-1.4-0.6-1.8s-1-0.6-1.8-0.6H1.9V113.5z"/>
		<path style="fill:#119795;" d="M8.7,114.9v-13.1H11c1.4,0,2.4,0.3,3.2,0.8c0.7,0.5,1.1,1.4,1.1,2.7c0,0.8-0.1,1.4-0.4,2
			s-0.7,0.9-1.2,1.1l2.1,6.6h-1.9l-1.9-6.1h-1.4v6.1L8.7,114.9L8.7,114.9z M10.6,107.4H11c0.8,0,1.4-0.2,1.8-0.5
			c0.4-0.3,0.6-0.9,0.6-1.6s-0.2-1.3-0.6-1.6c-0.4-0.3-1-0.5-1.8-0.5h-0.5v4.2H10.6z"/>
		<path style="fill:#119795;" d="M16.3,114.9l2.8-13.1H21l2.8,13.1h-1.9l-0.7-3.3h-2.3l-0.7,3.3H16.3z M19.1,110.2H21l-0.9-5.6
			L19.1,110.2z"/>
		<path style="fill:#119795;" d="M26.9,114.9l-2.8-13.1H26l1.4,7l0.5,3.3l0.5-3.3l1.4-7h1.9l-2.8,13.1H26.9z"/>
		<path style="fill:#119795;" d="M31.7,114.9l2.8-13.1h1.9l2.8,13.1h-1.9l-0.7-3.3h-2.3l-0.7,3.3H31.7z M34.5,110.2h1.9l-0.9-5.6
			L34.5,110.2z"/>
		<path style="fill:#119795;" d="M42.2,114.9l-2.8-13.1h1.9l1.4,7l0.5,3.3l0.5-3.3l1.4-7H47l-2.8,13.1H42.2z"/>
		<path style="fill:#119795;" d="M47,114.9l2.8-13.1h1.9l2.8,13.1h-1.9l-0.7-3.3h-2.3l-0.7,3.3H47z M49.9,110.2h1.9l-0.9-5.6
			L49.9,110.2z"/>
		<path style="fill:#119795;" d="M55.9,114.9v-13.1h1.4l3.3,8.1v-8.1h1.9v13.1h-1.3l-3.4-8.7v8.7H55.9z"/>
		<path style="fill:#119795;" d="M68.1,115c-1.2,0-2.1-0.3-2.7-1s-1-1.6-1-2.8l1.9-0.5c0.1,1.9,0.7,2.8,1.9,2.8
			c0.9,0,1.4-0.5,1.4-1.4c0-0.3,0-0.5-0.1-0.8c-0.1-0.2-0.2-0.5-0.3-0.7c-0.2-0.2-0.3-0.4-0.4-0.5s-0.3-0.3-0.5-0.4l-2.3-1.9
			c-0.4-0.3-0.8-0.8-1-1.3c-0.3-0.5-0.4-1.1-0.4-1.8c0-1,0.3-1.7,0.9-2.3c0.6-0.6,1.4-0.9,2.4-0.9c1.1,0,1.9,0.3,2.5,0.8
			s1,1.3,1.2,2.2c0,0.1,0,0.2,0.1,0.4l-1.9,0.5c0-0.1,0-0.2,0-0.4c-0.1-0.6-0.3-1.1-0.6-1.4c-0.3-0.4-0.7-0.5-1.3-0.5
			c-0.4,0-0.8,0.1-1,0.4s-0.4,0.6-0.4,1.1c0,0.7,0.3,1.4,0.9,1.9l2.3,1.9c1.2,1,1.9,2.2,1.9,3.6c0,1-0.3,1.7-0.9,2.3
			C69.9,114.7,69.1,115,68.1,115z"/>
		<path style="fill:#119795;" d="M76.4,114.9v-13.1h1.9v11.7h3.3v1.4H76.4z"/>
		<path style="fill:#119795;" d="M82.7,114.9v-13.1h1.9v11.7h3.3v1.4H82.7z"/>
		<path style="fill:#119795;" d="M92.4,115c-0.7,0-1.2-0.1-1.7-0.3c-0.5-0.2-0.8-0.5-1.1-0.9s-0.5-0.8-0.6-1.4
			c-0.1-0.5-0.2-1.1-0.2-1.8v-4.8c0-0.7,0.1-1.3,0.2-1.8s0.3-1,0.6-1.3c0.3-0.4,0.7-0.7,1.1-0.9c0.5-0.2,1-0.3,1.7-0.3
			c1.3,0,2.2,0.4,2.8,1.1s0.8,1.8,0.8,3.2v4.8c0,0.7-0.1,1.3-0.2,1.8s-0.3,1-0.6,1.4c-0.3,0.4-0.7,0.7-1.1,0.9
			C93.6,114.9,93.1,115,92.4,115z M91,112.9c0.3,0.4,0.7,0.6,1.4,0.6s1.1-0.2,1.4-0.6s0.4-1,0.4-1.8v-5.7c0-0.8-0.1-1.3-0.4-1.7
			s-0.7-0.6-1.4-0.6s-1.1,0.2-1.4,0.6s-0.4,0.9-0.4,1.7v5.7C90.7,111.9,90.8,112.5,91,112.9z"/>
		<path style="fill:#119795;" d="M101.5,115c-0.6,0-1.1-0.1-1.6-0.3c-0.4-0.2-0.8-0.4-1.1-0.7s-0.5-0.7-0.7-1.1
			c-0.2-0.5-0.3-0.9-0.3-1.4c-0.1-0.5-0.1-1.1-0.1-1.7v-3.3c0-3.2,1.3-4.8,3.8-4.8c0.6,0,1.1,0.1,1.6,0.3c0.4,0.2,0.8,0.5,1.1,0.8
			s0.5,0.8,0.6,1.2c0.1,0.5,0.2,1,0.2,1.6c0,0.1,0,0.2,0,0.4h-1.9v-0.4c0-0.3,0-0.6,0-0.8c0-0.2-0.1-0.4-0.1-0.7
			c-0.1-0.2-0.2-0.4-0.3-0.5c-0.1-0.1-0.3-0.2-0.5-0.3c-0.2-0.1-0.4-0.1-0.7-0.1c-0.4,0-0.7,0.1-1,0.2s-0.5,0.3-0.6,0.6
			c-0.1,0.3-0.2,0.6-0.3,0.9c-0.1,0.3-0.1,0.7-0.1,1.1v4.2c0,0.3,0,0.6,0,0.8c0,0.3,0.1,0.5,0.1,0.8s0.1,0.5,0.2,0.7
			s0.2,0.4,0.3,0.5c0.1,0.2,0.3,0.3,0.5,0.4s0.4,0.1,0.7,0.1c0.3,0,0.6-0.1,0.8-0.2c0.2-0.1,0.4-0.3,0.5-0.5s0.2-0.4,0.3-0.7
			s0.1-0.6,0.2-0.9c0-0.3,0-0.6,0-1v-0.5h-1.9v-1.4h3.8v6.5h-1.4l-0.5-1.4C103,114.5,102.4,115,101.5,115z"/>
		<path style="fill:#119795;" d="M112.2,114.8c-0.4,0.2-0.9,0.2-1.5,0.2s-1.1-0.1-1.5-0.2s-0.8-0.4-1.1-0.6c-0.3-0.3-0.5-0.6-0.7-1
			s-0.3-0.9-0.4-1.3c-0.1-0.5-0.1-1-0.1-1.6v-8.4h1.9v8.4c0,0.4,0,0.7,0,1s0.1,0.6,0.1,0.9c0.1,0.3,0.2,0.6,0.3,0.7s0.3,0.3,0.5,0.5
			c0.2,0.1,0.5,0.2,0.9,0.2s0.6-0.1,0.9-0.2c0.2-0.1,0.4-0.3,0.5-0.5s0.2-0.4,0.3-0.7c0.1-0.3,0.1-0.6,0.1-0.9s0-0.6,0-1v-8.4h1.9
			v8.4c0,0.6,0,1.1-0.1,1.6s-0.2,0.9-0.4,1.3s-0.4,0.8-0.7,1C113,114.4,112.6,114.6,112.2,114.8z"/>
		<path style="fill:#119795;" d="M116.5,114.9v-13.1h5.2v1.4h-3.3v4.2h2.3v1.4h-2.3v4.7h3.3v1.4H116.5z"/>
		<path style="fill:#119795;" d="M123.1,114.9v-13.1h2.3c1.4,0,2.4,0.3,3.2,0.8c0.7,0.5,1.1,1.4,1.1,2.7c0,0.8-0.1,1.4-0.4,2
			s-0.7,0.9-1.2,1.1l2.1,6.6h-1.9l-1.9-6.1H125v6.1L123.1,114.9L123.1,114.9z M125,107.4h0.5c0.8,0,1.4-0.2,1.8-0.5s0.6-0.9,0.6-1.6
			s-0.2-1.3-0.6-1.6c-0.4-0.3-1-0.5-1.8-0.5H125V107.4z"/>
		<path style="fill:#119795;" d="M134.9,114.9v-13.1h2.9c1.4,0,2.3,0.3,2.9,0.8c0.6,0.6,0.8,1.5,0.8,2.9v5.2c0,1.4-0.3,2.5-0.9,3.2
			c-0.6,0.7-1.5,1-2.9,1H134.9z M136.8,113.5h1c0.3,0,0.6,0,0.8-0.1s0.4-0.2,0.5-0.3c0.1-0.1,0.2-0.3,0.3-0.4s0.1-0.3,0.2-0.6
			c0-0.3,0-0.5,0.1-0.7c0-0.2,0-0.5,0-0.9c0-0.1,0-0.2,0-0.3V106c0-0.2,0-0.4,0-0.6c0-0.1,0-0.3,0-0.5s0-0.3-0.1-0.5
			c0-0.1-0.1-0.2-0.1-0.4c0-0.1-0.1-0.2-0.2-0.3c-0.1-0.1-0.1-0.2-0.2-0.2c-0.1-0.1-0.2-0.1-0.3-0.2c-0.1,0-0.3-0.1-0.4-0.1
			c-0.2,0-0.4,0-0.6,0h-1V113.5z"/>
		<path style="fill:#119795;" d="M143.5,114.9v-13.1h5.2v1.4h-3.3v4.2h2.3v1.4h-2.3v4.7h3.3v1.4H143.5z"/>
		<path style="fill:#119795;" d="M153.4,114.9v-13.1h5.2v1.4h-3.3v4.2h2.3v1.4h-2.3v6.1H153.4z"/>
		<path style="fill:#119795;" d="M164.9,114.8c-0.4,0.2-0.9,0.2-1.5,0.2s-1.1-0.1-1.5-0.2s-0.8-0.4-1.1-0.6c-0.3-0.3-0.5-0.6-0.7-1
			s-0.3-0.9-0.4-1.3c-0.1-0.5-0.1-1-0.1-1.6v-8.4h1.9v8.4c0,0.4,0,0.7,0,1s0.1,0.6,0.1,0.9c0.1,0.3,0.2,0.6,0.3,0.7s0.3,0.3,0.5,0.5
			c0.2,0.1,0.5,0.2,0.9,0.2s0.6-0.1,0.9-0.2c0.2-0.1,0.4-0.3,0.5-0.5s0.2-0.4,0.3-0.7c0.1-0.3,0.1-0.6,0.1-0.9s0-0.6,0-1v-8.4h1.9
			v8.4c0,0.6,0,1.1-0.1,1.6s-0.2,0.9-0.4,1.3s-0.4,0.8-0.7,1C165.7,114.4,165.3,114.6,164.9,114.8z"/>
		<path style="fill:#119795;" d="M169.2,114.9v-13.1h2.3c1.4,0,2.4,0.3,3.2,0.8c0.7,0.5,1.1,1.4,1.1,2.7c0,0.8-0.1,1.4-0.4,2
			c-0.3,0.5-0.7,0.9-1.2,1.1l2.1,6.6h-1.9l-1.9-6.1h-1.4v6.1L169.2,114.9L169.2,114.9z M171.1,107.4h0.5c0.8,0,1.4-0.2,1.8-0.5
			c0.4-0.3,0.6-0.9,0.6-1.6s-0.2-1.3-0.6-1.6c-0.4-0.3-1-0.5-1.8-0.5h-0.5V107.4z"/>
		<path style="fill:#119795;" d="M181.1,115c-0.6,0-1.1-0.1-1.6-0.3c-0.4-0.2-0.8-0.4-1.1-0.7s-0.5-0.7-0.7-1.1
			c-0.2-0.5-0.3-0.9-0.3-1.4c-0.1-0.5-0.1-1.1-0.1-1.7v-3.3c0-3.2,1.3-4.8,3.8-4.8c0.6,0,1.1,0.1,1.6,0.3c0.4,0.2,0.8,0.5,1.1,0.8
			c0.3,0.4,0.5,0.8,0.6,1.2c0.1,0.5,0.2,1,0.2,1.6c0,0.1,0,0.2,0,0.4h-1.9v-0.4c0-0.3,0-0.6,0-0.8c0-0.2-0.1-0.4-0.1-0.7
			c-0.1-0.2-0.2-0.4-0.3-0.5s-0.3-0.2-0.5-0.3c-0.2-0.1-0.4-0.1-0.7-0.1c-0.4,0-0.7,0.1-1,0.2s-0.5,0.3-0.6,0.6
			c-0.1,0.3-0.2,0.6-0.3,0.9s-0.1,0.7-0.1,1.1v4.2c0,0.3,0,0.6,0,0.8c0,0.3,0.1,0.5,0.1,0.8s0.1,0.5,0.2,0.7
			c0.1,0.2,0.2,0.4,0.3,0.5c0.1,0.2,0.3,0.3,0.5,0.4s0.4,0.1,0.7,0.1s0.6-0.1,0.8-0.2s0.4-0.3,0.5-0.5s0.2-0.4,0.3-0.7
			s0.1-0.6,0.2-0.9c0-0.3,0-0.6,0-1v-0.5h-1.9v-1.4h3.8v6.5h-1.4l-0.5-1.4C182.7,114.5,182,115,181.1,115z"/>
		<path style="fill:#119795;" d="M190.1,115c-0.7,0-1.2-0.1-1.7-0.3c-0.5-0.2-0.8-0.5-1.1-0.9s-0.5-0.8-0.6-1.4
			c-0.1-0.5-0.2-1.1-0.2-1.8v-4.8c0-0.7,0.1-1.3,0.2-1.8s0.3-1,0.6-1.3c0.3-0.4,0.7-0.7,1.1-0.9c0.5-0.2,1-0.3,1.7-0.3
			c1.3,0,2.2,0.4,2.8,1.1s0.8,1.8,0.8,3.2v4.8c0,0.7-0.1,1.3-0.2,1.8c-0.1,0.5-0.3,1-0.6,1.4s-0.7,0.7-1.1,0.9
			C191.3,114.9,190.7,115,190.1,115z M188.7,112.9c0.3,0.4,0.7,0.6,1.4,0.6s1.1-0.2,1.4-0.6c0.3-0.4,0.4-1,0.4-1.8v-5.7
			c0-0.8-0.1-1.3-0.4-1.7c-0.2-0.4-0.7-0.6-1.4-0.6s-1.1,0.2-1.4,0.6c-0.2,0.4-0.4,0.9-0.4,1.7v5.7
			C188.3,111.9,188.5,112.5,188.7,112.9z"/>
		<path style="fill:#119795;" d="M195.7,114.9v-13.1h1.4l3.3,8.1v-8.1h1.9v13.1H201l-3.4-8.7v8.7H195.7z"/>
		<path style="fill:#119795;" d="M204.4,114.9v-13.1h5.2v1.4h-3.3v4.2h2.3v1.4h-2.3v4.7h3.3v1.4H204.4z"/>
		<path style="fill:#119795;" d="M212.4,114.9v-11.5h-2.3v-1.7h6.6v1.7h-2.3v11.5H212.4z"/>
		<path style="fill:#119795;" d="M217.8,114.9v-13.1h5.2v1.4h-3.3v4.2h2.3v1.4h-2.3v4.7h3.3v1.4H217.8z"/>
		<path style="fill:#119795;" d="M227.9,115c-1.2,0-2.1-0.3-2.7-1c-0.6-0.7-1-1.6-1-2.8l1.9-0.5c0.1,1.9,0.7,2.8,1.9,2.8
			c0.9,0,1.4-0.5,1.4-1.4c0-0.3,0-0.5-0.1-0.8c-0.1-0.2-0.2-0.5-0.3-0.7c-0.2-0.2-0.3-0.4-0.4-0.5c-0.1-0.1-0.3-0.3-0.5-0.4
			l-2.3-1.9c-0.4-0.3-0.8-0.8-1-1.3c-0.3-0.5-0.4-1.1-0.4-1.8c0-1,0.3-1.7,0.9-2.3c0.6-0.6,1.4-0.9,2.4-0.9c1.1,0,1.9,0.3,2.5,0.8
			s1,1.3,1.2,2.2c0,0.1,0,0.2,0.1,0.4l-1.9,0.5c0-0.1,0-0.2,0-0.4c-0.1-0.6-0.3-1.1-0.6-1.4c-0.3-0.4-0.7-0.5-1.3-0.5
			c-0.4,0-0.8,0.1-1,0.4s-0.4,0.6-0.4,1.1c0,0.7,0.3,1.4,0.9,1.9l2.3,1.9c1.2,1,1.9,2.2,1.9,3.6c0,1-0.3,1.7-0.9,2.3
			C229.7,114.7,228.9,115,227.9,115z"/>
		<path style="fill:#119795;" d="M239.5,115c-0.6,0-1-0.1-1.5-0.2s-0.8-0.4-1-0.6c-0.3-0.3-0.5-0.6-0.7-1s-0.3-0.9-0.4-1.3
			s-0.1-1-0.1-1.6v-3.7c0-0.6,0-1.1,0.1-1.6s0.2-0.9,0.4-1.3s0.4-0.8,0.7-1c0.3-0.3,0.6-0.5,1-0.6s0.9-0.2,1.5-0.2s1.1,0.1,1.6,0.3
			c0.4,0.2,0.8,0.4,1.1,0.8s0.5,0.8,0.6,1.2c0.1,0.5,0.2,1,0.2,1.6c0,0.1,0,0.2,0,0.4h-1.9v-0.4c0-0.3,0-0.5,0-0.7s0-0.4-0.1-0.6
			c0-0.2-0.1-0.4-0.2-0.5c-0.1-0.1-0.2-0.2-0.3-0.4c-0.1-0.1-0.3-0.2-0.4-0.2c-0.2-0.1-0.4-0.1-0.6-0.1c-0.3,0-0.6,0-0.8,0.1
			s-0.4,0.2-0.5,0.4c-0.1,0.2-0.2,0.4-0.3,0.6c-0.1,0.3-0.1,0.5-0.1,0.8c0,0.2,0,0.6,0,0.9v4.7c0,0.3,0,0.6,0,0.8
			c0,0.3,0.1,0.5,0.2,0.8c0.1,0.3,0.2,0.5,0.3,0.6c0.1,0.2,0.3,0.3,0.5,0.4s0.4,0.2,0.7,0.2s0.5-0.1,0.7-0.2s0.4-0.2,0.5-0.4
			s0.2-0.4,0.3-0.6c0.1-0.3,0.1-0.5,0.1-0.8s0-0.5,0-0.8v-0.5h1.9v0.5c0,0.7-0.1,1.3-0.2,1.8c-0.1,0.5-0.3,1-0.6,1.4
			s-0.6,0.7-1.1,0.9C240.7,114.9,240.2,115,239.5,115z"/>
		<path style="fill:#119795;" d="M243.8,114.9l2.8-13.1h1.9l2.8,13.1h-1.9l-0.7-3.3h-2.3l-0.7,3.3H243.8z M246.6,110.2h1.9l-0.9-5.6
			L246.6,110.2z"/>
		<path style="fill:#119795;" d="M252.6,114.9v-13.1h2.6l1.9,10l1.9-10h2.6v13.1h-1.9v-10.4l-1.9,10.4h-1.4l-1.9-10.4v10.4H252.6z"
			/>
		<path style="fill:#119795;" d="M263.7,114.9v-13.1h3.3c2.2,0,3.3,1.2,3.3,3.8c0,1.1-0.3,1.9-0.8,2.4c-0.6,0.6-1.4,0.8-2.4,0.8
			h-1.4v6.1C265.7,114.9,263.7,114.9,263.7,114.9z M265.6,107.4h0.5c0.4,0,0.8,0,1-0.1s0.5-0.1,0.7-0.3c0.2-0.1,0.4-0.3,0.4-0.6
			c0.1-0.2,0.1-0.6,0.1-1c0-0.5,0-0.8-0.1-1.1c-0.1-0.3-0.2-0.5-0.4-0.7c-0.2-0.2-0.4-0.3-0.7-0.4c-0.3-0.1-0.7-0.1-1.2-0.1h-0.5
			v4.3H265.6z"/>
		<path style="fill:#119795;" d="M271.6,114.9v-13.1h5.2v1.4h-3.3v4.2h2.3v1.4h-2.3v4.7h3.3v1.4H271.6z"/>
		<path style="fill:#119795;" d="M278.2,114.9v-13.1h2.3c1.4,0,2.4,0.3,3.2,0.8c0.7,0.5,1.1,1.4,1.1,2.7c0,0.8-0.1,1.4-0.4,2
			c-0.3,0.5-0.7,0.9-1.2,1.1l2.1,6.6h-1.9l-1.9-6.1h-1.4v6.1L278.2,114.9L278.2,114.9z M280.1,107.4h0.5c0.8,0,1.4-0.2,1.8-0.5
			s0.6-0.9,0.6-1.6s-0.2-1.3-0.6-1.6c-0.4-0.3-1-0.5-1.8-0.5h-0.5V107.4z"/>
	</g>
</g>
</svg>
