<?xml version="1.0" encoding="utf-8"?>
<!-- Generator: Adobe Illustrator 21.0.0, SVG Export Plug-In . SVG Version: 6.00 Build 0)  -->
<svg id="girona-campers" version="1.1" xmlns="http://www.w3.org/2000/svg" xmlns:xlink="http://www.w3.org/1999/xlink" x="0px" y="0px"
	 viewBox="0 0 570.7 133.8" style="enable-background:new 0 0 570.7 133.8;" xml:space="preserve">
<g>
	<g>
		<path style="fill:#714155;" d="M21.4,91h7.8v4.6c0,2.3-0.8,4.1-2.2,5.7c-1.5,1.5-3.3,2.3-5.5,2.3c-1.7,0-3.2-0.5-4.3-1.3
			c-1.2-0.8-2-1.7-2.5-2.8c-0.2-0.3-0.3-0.7-0.4-1c-0.1-0.3-0.2-0.7-0.3-1.2c-0.2-0.9-0.2-2.7-0.2-5.2c0-2.6,0.1-4.4,0.2-5.3
			c0.2-0.9,0.4-1.6,0.7-2.2c0.5-1,1.4-2,2.5-2.8s2.6-1.2,4.3-1.3c2.1,0,3.8,0.7,5.2,1.9c1.3,1.3,2.2,2.9,2.5,4.8h-3.5
			c-0.3-0.9-0.8-1.7-1.5-2.3c-0.7-0.6-1.6-0.9-2.7-0.9c-0.8,0-1.5,0.2-2,0.5c-0.6,0.3-1,0.7-1.4,1.2s-0.7,1.1-0.9,1.9
			C17,88.4,17,89.9,17,92.1s0.1,3.7,0.2,4.5s0.4,1.4,0.9,1.9c0.3,0.5,0.8,0.8,1.4,1.1c0.6,0.3,1.2,0.5,2,0.5c1.3,0,2.4-0.5,3.2-1.4
			c0.8-0.9,1.3-2,1.3-3.4v-1.2h-4.5V91H21.4z"/>
		<path style="fill:#714155;" d="M33.5,80.9h3.3v22.6h-3.3V80.9z"/>
		<path style="fill:#714155;" d="M59.4,92.1c0-2.6,0.1-4.4,0.2-5.3c0.2-0.9,0.4-1.6,0.7-2.2c0.5-1,1.4-2,2.5-2.8s2.6-1.2,4.3-1.3
			c1.7,0,3.2,0.4,4.3,1.3c1.1,0.8,2,1.7,2.5,2.8c0.4,0.6,0.6,1.3,0.8,2.2c0.1,0.9,0.2,2.6,0.2,5.3c0,2.6-0.1,4.3-0.2,5.2
			c-0.1,0.9-0.4,1.6-0.8,2.2c-0.5,1-1.3,2-2.5,2.8s-2.6,1.3-4.3,1.3c-1.7,0-3.2-0.5-4.3-1.3c-1.2-0.8-2-1.7-2.5-2.8
			c-0.2-0.3-0.3-0.7-0.4-1c-0.1-0.3-0.2-0.7-0.3-1.2C59.5,96.5,59.4,94.7,59.4,92.1z M62.7,92.1c0,2.2,0.1,3.7,0.2,4.5
			c0.1,0.8,0.4,1.4,0.9,1.9c0.3,0.5,0.8,0.8,1.4,1.1c0.6,0.3,1.2,0.5,2,0.5s1.5-0.2,2.1-0.5s1-0.7,1.3-1.1c0.4-0.5,0.7-1.1,0.9-1.9
			c0.2-0.8,0.2-2.3,0.2-4.5s-0.1-3.7-0.2-4.5c-0.2-0.8-0.5-1.4-0.9-1.9c-0.3-0.5-0.8-0.9-1.3-1.2C68.7,84.2,68,84,67.2,84
			c-0.8,0-1.5,0.2-2,0.5c-0.6,0.3-1,0.7-1.4,1.2s-0.7,1.1-0.9,1.9C62.8,88.4,62.7,89.9,62.7,92.1z"/>
		<path style="fill:#714155;" d="M79.2,80.9h3.1L92.2,97h0.1V80.9h3.3v22.6h-3.1l-9.9-16.1h-0.1v16.1h-3.3V80.9z"/>
		<path style="fill:#714155;" d="M108,85.5L108,85.5l-5.9,18h-3.5l7.9-22.6h2.8l7.9,22.6h-3.5L108,85.5z"/>
		<path style="fill:#714155;" d="M15.5,125.5c-0.5,2.1-1.4,3.7-2.7,4.8c-1.4,1.1-3,1.7-4.9,1.7c-1.7,0-3.2-0.5-4.3-1.3
			c-1.2-0.8-2-1.7-2.5-2.8c-0.2-0.3-0.3-0.7-0.4-1s-0.2-0.7-0.3-1.2c-0.2-0.9-0.2-2.7-0.2-5.2c0-2.6,0.1-4.4,0.2-5.3
			c0.2-0.9,0.4-1.6,0.7-2.2c0.5-1,1.4-2,2.5-2.8c1.2-0.8,2.6-1.2,4.3-1.3c2.1,0,3.8,0.7,5.2,1.9c1.3,1.3,2.2,2.9,2.5,4.7H12
			c-0.3-0.9-0.8-1.7-1.5-2.3c-0.7-0.6-1.6-0.9-2.7-0.9c-0.8,0-1.5,0.2-2,0.5c-0.6,0.3-1,0.7-1.4,1.2s-0.7,1.1-0.9,1.9
			s-0.2,2.3-0.2,4.5s0.1,3.7,0.2,4.5c0.1,0.8,0.4,1.4,0.9,1.9c0.4,0.5,0.8,0.8,1.4,1.1s1.2,0.5,2,0.5c1.9,0,3.3-1,4.2-3.1h3.5V125.5
			z"/>
		<path style="fill:#714155;" d="M25.5,113.9L25.5,113.9l-5.9,18h-3.5l8-22.6h2.8l7.9,22.6h-3.5L25.5,113.9z"/>
		<path style="fill:#714155;" d="M37.7,109.3h3.1l6.3,14.7l6.2-14.7h3.1v22.6h-3.3v-14.1H53l-4.6,10.8h-2.8L41,117.8h0v14.1h-3.3
			V109.3z"/>
		<path style="fill:#714155;" d="M64.2,131.8h-3.3v-22.6h7.9c0.9,0,1.7,0.1,2.5,0.2c0.8,0.2,1.6,0.7,2.4,1.3
			c0.7,0.5,1.2,1.2,1.7,2.2c0.5,0.9,0.7,2,0.7,3.2c0,1.7-0.6,3.2-1.7,4.6c-1.2,1.4-2.9,2.2-5.1,2.2h-2.2v-3.2h2
			c1.2,0,2.2-0.4,2.8-1.2c0.6-0.7,0.9-1.6,0.9-2.5c0-0.8-0.1-1.4-0.4-1.9s-0.6-0.8-1.1-1.1c-0.7-0.4-1.5-0.7-2.4-0.6h-4.8
			L64.2,131.8L64.2,131.8z"/>
		<path style="fill:#714155;" d="M79.7,109.3h14v3.2H83v6.5h9.1v3H83v6.6h10.7v3.2h-14V109.3z"/>
		<path style="fill:#714155;" d="M117,126.4c1.7,1.5,3.8,2.2,6.2,2.2c2.8,0,4.3-1.1,4.3-3.1c0-1.7-0.9-2.7-2.8-3
			c-0.9-0.1-1.8-0.3-2.9-0.4c-1.9-0.3-3.3-1-4.3-2.2c-1-1.1-1.5-2.5-1.5-4.2c0-2,0.6-3.6,1.9-4.8c1.2-1.2,3-1.8,5.2-1.8
			c2.7,0.1,5.1,0.8,7.1,2.3l-1.8,2.8c-1.6-1.1-3.4-1.7-5.4-1.7c-1,0-1.9,0.3-2.5,0.8c-0.7,0.5-1.1,1.4-1.1,2.4
			c0,0.7,0.2,1.2,0.7,1.8c0.5,0.5,1.3,0.9,2.4,1.1c0.6,0.1,1.4,0.2,2.5,0.4c2.1,0.3,3.6,1,4.5,2.3c1,1.2,1.5,2.6,1.5,4.2
			c-0.1,4.3-2.7,6.5-7.7,6.6c-3.2,0-6-1-8.3-3.1L117,126.4z"/>
		<path style="fill:#714155;" d="M47.2,90.7h2.2c1.2,0,2.2-0.4,2.8-1.1s0.9-1.5,0.9-2.5c0-1.2-0.4-2-1.1-2.6
			c-0.6-0.5-1.4-0.7-2.4-0.7h-5.2v19.5h-3.3V80.9h8.5c1.8,0,3.3,0.5,4.5,1.5c1.4,1.1,2.1,2.7,2.2,4.8c0,3.1-1.4,5.1-4.2,6.3l5.1,10
			h-3.9L47.2,90.7z"/>
		<path style="fill:#714155;" d="M103.5,119.2h2.2c1.2,0,2.2-0.4,2.8-1.1c0.6-0.7,0.9-1.5,0.9-2.5c0-1.2-0.4-2-1.1-2.6
			c-0.6-0.5-1.4-0.7-2.4-0.7h-5.2v19.5h-3.3v-22.6h8.5c1.8,0,3.3,0.5,4.5,1.5c1.4,1.1,2.1,2.7,2.2,4.8c0,3.1-1.4,5.1-4.2,6.3l5.1,10
			h-3.9L103.5,119.2z"/>
	</g>
	<g>
		<path style="fill:#714155;" d="M73.6,13L65.4,0v0.2l0,0L57.1,13H41.4l24,56.1l24-56.1H73.6z M75.3,18.6l-6.2,4.7l5.7-5.5
			L75.3,18.6z M74.8,26.8l3.3-3.7l0.5,0.8L74.8,26.8z M79.2,24.9l0.5,0.8l-3,2.3L79.2,24.9z M72.8,25.7l4.2-4.4l0.5,0.8L72.8,25.7z
			 M70.3,25l5.6-5.4l0.5,0.8L70.3,25z M73.7,16l0.5,0.8l-4,3L73.7,16z M73.1,15l-3.4,2.6l2.9-3.4L73.1,15z M72,13.2l-2.9,2.2l2.4-3
			L72,13.2z M70.9,11.4l-2.3,1.8l1.8-2.6L70.9,11.4z M69.9,9.6L68,11l1.3-2.2L69.9,9.6z M68.8,7.9l-1.3,1L68.3,7L68.8,7.9z
			 M67.2,5.3l0.5,0.8L67,6.7L67.2,5.3z M46,16h9.1l-5.5,8.5L46,16z M65.5,61.4l-10.3-24l3.1-2.3l2.5-5l0.7,1.1l2,10.8l4.3,1.6
			l4.5,1.9L65.5,61.4z M67.4,41.9l2.4-3.1l0.7,0.6L67.4,41.9z M71.3,40.4l0.4,0.9l-2,1.5L71.3,40.4z M65.1,41l3.1-3.5l0.7,0.6
			L65.1,41z M64.4,39l2.2-2.9l0.7,0.6L64.4,39z M63.8,36.8l1.2-2.1l0.5,0.6l0.1,0.1L63.8,36.8z M63.3,34.5l0.4-1.5l0.6,0.7
			L63.3,34.5z M71.8,43.8l0.2-1.4l0.4,0.9L71.8,43.8z M78.6,30.8L77.7,33l-4.2,9.9l-1.2-3.4l-0.1-0.2l-0.4-0.4L71,38.2L66.4,34
			l-2.9-3.2l-2.7-3.1l-0.2-0.3v0.1l0,0l0,0l-3.5,6.9l-2.5,1.9L50.3,26L64.8,3.6l0.3,1.2l0.6,2.3l0.6,2.3l2.6,10.5l-2.8,7.4l4.9-0.9
			l7.1,3.9l0.6,0.3L78.6,30.8z M79.6,28.4l-0.9,0.7l1.6-2.4l0,0L79.6,28.4z M75.5,16H85l-3.8,9L75.5,16z"/>
	</g>
	<g>
		<path style="fill:#714155;" d="M195.2,102.9c-0.9,0-1.7-0.1-2.3-0.4c-0.7-0.3-1.2-0.6-1.6-1s-0.7-1-1-1.7
			c-0.2-0.7-0.4-1.4-0.5-2.1s-0.1-1.6-0.1-2.6v-4.9c0-4.8,1.9-7.1,5.7-7.1c0.9,0,1.7,0.1,2.4,0.4s1.2,0.7,1.6,1.2
			c0.4,0.5,0.7,1.1,0.9,1.8c0.2,0.7,0.3,1.5,0.4,2.4c0,0.1,0,0.3,0,0.6h-2.8V89c0-0.5,0-0.8-0.1-1.2c0-0.3-0.1-0.7-0.2-1
			c-0.1-0.3-0.2-0.6-0.4-0.8c-0.2-0.2-0.4-0.4-0.7-0.5s-0.7-0.2-1.1-0.2c-0.6,0-1,0.1-1.4,0.3c-0.4,0.2-0.7,0.5-0.9,0.9
			s-0.4,0.8-0.4,1.3c-0.1,0.5-0.1,1-0.1,1.7v6.3c0,0.5,0,0.9,0,1.3s0.1,0.8,0.1,1.1c0.1,0.4,0.2,0.7,0.3,1s0.3,0.5,0.5,0.8
			c0.2,0.2,0.4,0.4,0.8,0.5c0.3,0.1,0.6,0.2,1,0.2c0.5,0,0.9-0.1,1.2-0.3c0.3-0.2,0.6-0.4,0.8-0.7c0.2-0.3,0.4-0.7,0.5-1.1
			s0.2-0.9,0.2-1.3s0.1-0.9,0.1-1.5v-0.7h-2.8V93h5.6v9.7h-2.1l-0.7-2.1C197.4,102.2,196.5,102.9,195.2,102.9z"/>
		<path style="fill:#714155;" d="M204.5,102.8V83.3h2.8v19.5H204.5z"/>
		<path style="fill:#714155;" d="M211.6,102.8V83.3h3.5c2.1,0,3.6,0.4,4.7,1.2c1,0.8,1.6,2.1,1.6,4c0,1.2-0.2,2.1-0.6,2.9
			c-0.4,0.8-1,1.3-1.8,1.6l3.1,9.7h-2.8l-2.8-9h-2.1v9h-2.8V102.8z M214.3,91.6h0.7c1.2,0,2-0.2,2.6-0.7s0.9-1.3,0.9-2.4
			s-0.3-1.9-0.9-2.4c-0.6-0.5-1.4-0.7-2.6-0.7h-0.7V91.6z"/>
		<path style="fill:#714155;" d="M229.9,102.9c-1,0-1.8-0.1-2.5-0.4s-1.3-0.7-1.7-1.3s-0.7-1.2-0.9-2s-0.3-1.7-0.3-2.7v-7.1
			c0-1,0.1-1.9,0.3-2.7c0.2-0.8,0.5-1.4,0.9-2s1-1,1.7-1.3s1.5-0.4,2.5-0.4c1.9,0,3.3,0.5,4.1,1.6s1.3,2.7,1.3,4.7v7.1
			c0,1-0.1,1.9-0.3,2.7c-0.2,0.8-0.5,1.4-0.9,2s-1,1-1.7,1.3C231.8,102.8,230.9,102.9,229.9,102.9z M227.9,99.8c0.4,0.6,1,0.9,2,0.9
			s1.7-0.3,2-0.9c0.4-0.6,0.6-1.5,0.6-2.6v-8.5c0-1.1-0.2-2-0.6-2.5c-0.4-0.6-1-0.8-2-0.8s-1.7,0.3-2,0.8c-0.4,0.6-0.6,1.4-0.6,2.5
			v8.5C227.4,98.3,227.5,99.2,227.9,99.8z"/>
		<path style="fill:#714155;" d="M239.1,102.8V83.3h2.1l4.9,12v-12h2.8v19.5h-2l-5-12.9v12.9H239.1z"/>
		<path style="fill:#714155;" d="M251.7,102.8l4.2-19.5h2.8l4.2,19.5h-2.8l-1-4.9h-3.5l-1,4.9H251.7z M255.9,95.8h2.8l-1.4-8.3
			L255.9,95.8z"/>
		<path style="fill:#714155;" d="M276.6,102.9c-0.8,0-1.5-0.1-2.2-0.3c-0.6-0.2-1.1-0.6-1.5-1s-0.7-0.9-1-1.5s-0.4-1.3-0.5-2
			s-0.2-1.5-0.2-2.4v-5.5c0-0.9,0.1-1.7,0.2-2.4s0.3-1.3,0.5-2c0.2-0.6,0.6-1.1,1-1.5s0.9-0.7,1.5-1c0.6-0.2,1.3-0.3,2.2-0.3
			c0.9,0,1.7,0.1,2.3,0.4c0.7,0.3,1.2,0.7,1.6,1.2s0.7,1.1,0.9,1.8c0.2,0.7,0.3,1.5,0.4,2.4c0,0.1,0,0.4,0,0.6H279v-0.6
			c0-0.4,0-0.7,0-1s-0.1-0.6-0.1-0.8c-0.1-0.3-0.1-0.5-0.3-0.7c-0.1-0.2-0.3-0.4-0.4-0.5c-0.2-0.2-0.4-0.3-0.6-0.4
			c-0.3-0.1-0.6-0.1-0.9-0.1c-0.4,0-0.8,0.1-1.2,0.2c-0.3,0.1-0.6,0.3-0.8,0.6c-0.2,0.2-0.3,0.5-0.4,0.9s-0.2,0.8-0.2,1.1
			c0,0.4,0,0.8,0,1.4v7c0,0.5,0,0.9,0.1,1.3c0,0.4,0.1,0.8,0.2,1.1c0.1,0.4,0.3,0.7,0.5,0.9c0.2,0.3,0.4,0.5,0.7,0.6
			c0.3,0.2,0.7,0.2,1.1,0.2s0.8-0.1,1.1-0.2c0.3-0.2,0.5-0.4,0.7-0.6s0.3-0.6,0.4-0.9c0.1-0.4,0.2-0.8,0.2-1.1c0-0.4,0-0.8,0-1.3
			v-0.7h2.8v0.7c0,1-0.1,1.9-0.3,2.7c-0.2,0.8-0.5,1.4-0.9,2s-0.9,1-1.6,1.3C278.4,102.8,277.5,102.9,276.6,102.9z"/>
		<path style="fill:#714155;" d="M283.7,102.8l4.2-19.5h2.8l4.2,19.5h-2.8l-1-4.9h-3.5l-1,4.9H283.7z M287.9,95.8h2.8l-1.4-8.3
			L287.9,95.8z"/>
		<path style="fill:#714155;" d="M297.7,102.8V83.3h3.8l2.8,14.9l2.8-14.9h3.8v19.5h-2.8V87.4l-2.8,15.4h-2.1l-2.8-15.4v15.4H297.7z
			"/>
		<path style="fill:#714155;" d="M315.1,102.8V83.3h4.9c3.2,0,4.9,1.9,4.9,5.6c0,1.6-0.4,2.8-1.3,3.6c-0.8,0.8-2,1.2-3.6,1.2h-2.1v9
			h-2.8V102.8z M317.9,91.6h0.7c0.6,0,1.1,0,1.5-0.1s0.8-0.2,1.1-0.4c0.3-0.2,0.5-0.5,0.7-0.9c0.1-0.4,0.2-0.8,0.2-1.4
			c0-0.7-0.1-1.3-0.2-1.7c-0.1-0.4-0.3-0.8-0.6-1.1c-0.3-0.3-0.6-0.5-1.1-0.6c-0.4-0.1-1-0.2-1.7-0.2h-0.7v6.4H317.9z"/>
		<path style="fill:#714155;" d="M327.7,102.8V83.3h7.6v2.1h-4.9v6.3h3.5v2.1h-3.5v7h4.9v2.1L327.7,102.8L327.7,102.8z"/>
		<path style="fill:#714155;" d="M338.4,102.8V83.3h3.5c2.1,0,3.6,0.4,4.7,1.2c1,0.8,1.6,2.1,1.6,4c0,1.2-0.2,2.1-0.6,2.9
			s-1,1.3-1.8,1.6l3.1,9.7h-2.8l-2.8-9h-2.1v9h-2.8V102.8z M341.2,91.6h0.7c1.2,0,2-0.2,2.6-0.7s0.9-1.3,0.9-2.4s-0.3-1.9-0.9-2.4
			s-1.4-0.7-2.6-0.7h-0.7V91.6z"/>
		<path style="fill:#714155;" d="M356.8,102.9c-1.8,0-3.1-0.5-4-1.5s-1.4-2.4-1.5-4.2l2.8-0.7c0.1,2.8,1.1,4.2,2.8,4.2
			c1.4,0,2.1-0.7,2.1-2.1c0-0.4-0.1-0.8-0.2-1.1c-0.1-0.4-0.3-0.7-0.5-1s-0.4-0.5-0.6-0.7s-0.4-0.4-0.8-0.7l-3.5-2.8
			c-0.6-0.5-1.1-1.1-1.5-1.9s-0.6-1.6-0.6-2.6c0-1.4,0.4-2.6,1.3-3.4s2.1-1.3,3.5-1.3c1.6,0,2.8,0.4,3.8,1.2
			c0.9,0.8,1.5,1.9,1.7,3.3c0,0.2,0,0.4,0.1,0.6l-2.8,0.7c0-0.1,0-0.3-0.1-0.6c-0.1-0.9-0.4-1.6-0.8-2.1s-1.1-0.8-1.9-0.8
			c-0.7,0-1.2,0.2-1.5,0.6c-0.4,0.4-0.5,0.9-0.5,1.6c0,1.1,0.5,2,1.4,2.7l3.5,2.8c1.9,1.5,2.8,3.3,2.8,5.4c0,1.4-0.4,2.5-1.3,3.3
			C359.5,102.5,358.3,102.9,356.8,102.9z"/>
		<path style="fill:#714155;" d="M371.1,102.8V83.3h2.8v19.5H371.1z"/>
		<path style="fill:#714155;" d="M378.1,102.8V83.3h3.8l2.8,14.9l2.8-14.9h3.8v19.5h-2.8V87.4l-2.8,15.4h-2.1l-2.8-15.4v15.4H378.1z
			"/>
		<path style="fill:#714155;" d="M395.5,102.8V83.3h4.9c3.2,0,4.9,1.9,4.9,5.6c0,1.6-0.4,2.8-1.3,3.6c-0.8,0.8-2,1.2-3.6,1.2h-2.1v9
			h-2.8V102.8z M398.2,91.6h0.7c0.6,0,1.1,0,1.5-0.1s0.8-0.2,1.1-0.4c0.3-0.2,0.5-0.5,0.7-0.9c0.1-0.4,0.2-0.8,0.2-1.4
			c0-0.7-0.1-1.3-0.2-1.7c-0.1-0.4-0.3-0.8-0.6-1.1c-0.3-0.3-0.6-0.5-1.1-0.6c-0.4-0.1-1-0.2-1.7-0.2h-0.7v6.4H398.2z"/>
		<path style="fill:#714155;" d="M413.1,102.9c-1,0-1.8-0.1-2.5-0.4s-1.3-0.7-1.7-1.3c-0.4-0.6-0.7-1.2-0.9-2
			c-0.2-0.8-0.3-1.7-0.3-2.7v-7.1c0-1,0.1-1.9,0.3-2.7c0.2-0.8,0.5-1.4,0.9-2s1-1,1.7-1.3s1.5-0.4,2.5-0.4c1.9,0,3.3,0.5,4.1,1.6
			c0.8,1.1,1.3,2.7,1.3,4.7v7.1c0,1-0.1,1.9-0.3,2.7c-0.2,0.8-0.5,1.4-0.9,2s-1,1-1.7,1.3C414.9,102.8,414.1,102.9,413.1,102.9z
			 M411.1,99.8c0.4,0.6,1,0.9,2,0.9s1.7-0.3,2-0.9c0.4-0.6,0.6-1.5,0.6-2.6v-8.5c0-1.1-0.2-2-0.6-2.5c-0.4-0.6-1-0.8-2-0.8
			s-1.7,0.3-2,0.8c-0.4,0.6-0.6,1.4-0.6,2.5v8.5C410.5,98.3,410.7,99.2,411.1,99.8z"/>
		<path style="fill:#714155;" d="M422.3,102.8V83.3h3.5c2.1,0,3.6,0.4,4.7,1.2c1,0.8,1.6,2.1,1.6,4c0,1.2-0.2,2.1-0.6,2.9
			s-1,1.3-1.8,1.6l3.1,9.7H430l-2.8-9H425v9h-2.7V102.8z M425,91.6h0.7c1.2,0,2-0.2,2.6-0.7s0.9-1.3,0.9-2.4s-0.3-1.9-0.9-2.4
			s-1.4-0.7-2.6-0.7H425V91.6z"/>
		<path style="fill:#714155;" d="M437.7,102.8v-17h-3.5v-2.5h9.7v2.5h-3.5v17H437.7z"/>
		<path style="fill:#714155;" d="M445.2,102.8l4.2-19.5h2.8l4.2,19.5h-2.8l-1-4.9H449l-1,4.9H445.2z M449.3,95.8h2.8l-1.4-8.3
			L449.3,95.8z"/>
		<path style="fill:#714155;" d="M464.1,102.9c-0.8,0-1.5-0.1-2.2-0.3s-1.1-0.6-1.5-1s-0.7-0.9-1-1.5c-0.2-0.6-0.4-1.3-0.5-2
			s-0.2-1.5-0.2-2.4v-5.5c0-0.9,0-1.7,0.2-2.4s0.3-1.3,0.5-2c0.2-0.6,0.6-1.1,1-1.5s0.9-0.7,1.5-1s1.3-0.3,2.2-0.3
			c0.9,0,1.7,0.1,2.3,0.4c0.7,0.3,1.2,0.7,1.6,1.2s0.7,1.1,0.9,1.8c0.2,0.7,0.3,1.5,0.4,2.4c0,0.1,0,0.4,0,0.6h-2.8v-0.6
			c0-0.4,0-0.7,0-1s-0.1-0.6-0.1-0.8c-0.1-0.3-0.1-0.5-0.3-0.7c-0.1-0.2-0.3-0.4-0.4-0.5c-0.2-0.2-0.4-0.3-0.6-0.4
			c-0.3-0.1-0.6-0.1-0.9-0.1c-0.4,0-0.8,0.1-1.2,0.2c-0.3,0.1-0.6,0.3-0.8,0.6c-0.2,0.2-0.3,0.5-0.4,0.9s-0.2,0.8-0.2,1.1
			c0,0.4,0,0.8,0,1.4v7c0,0.5,0,0.9,0.1,1.3c0,0.4,0.1,0.8,0.2,1.1c0.1,0.4,0.3,0.7,0.5,0.9c0.2,0.3,0.4,0.5,0.7,0.6
			c0.3,0.2,0.7,0.2,1.1,0.2s0.8-0.1,1.1-0.2c0.3-0.2,0.5-0.4,0.7-0.6s0.3-0.6,0.4-0.9c0.1-0.4,0.2-0.8,0.2-1.1c0-0.4,0-0.8,0-1.3
			v-0.7h2.8v0.7c0,1-0.1,1.9-0.3,2.7c-0.2,0.8-0.5,1.4-0.9,2s-0.9,1-1.6,1.3C465.9,102.8,465.1,102.9,464.1,102.9z"/>
		<path style="fill:#714155;" d="M472.6,102.8V83.3h2.8v19.5H472.6z"/>
		<path style="fill:#714155;" d="M484.7,102.9c-1,0-1.8-0.1-2.5-0.4s-1.3-0.7-1.7-1.3c-0.4-0.6-0.7-1.2-0.9-2
			c-0.2-0.8-0.3-1.7-0.3-2.7v-7.1c0-1,0.1-1.9,0.3-2.7c0.2-0.8,0.5-1.4,0.9-2s1-1,1.7-1.3s1.5-0.4,2.5-0.4c1.9,0,3.3,0.5,4.1,1.6
			c0.8,1.1,1.3,2.7,1.3,4.7v7.1c0,1-0.1,1.9-0.3,2.7c-0.2,0.8-0.5,1.4-0.9,2s-1,1-1.7,1.3C486.5,102.8,485.7,102.9,484.7,102.9z
			 M482.7,99.8c0.4,0.6,1,0.9,2,0.9s1.7-0.3,2-0.9c0.4-0.6,0.6-1.5,0.6-2.6v-8.5c0-1.1-0.2-2-0.6-2.5c-0.4-0.6-1-0.8-2-0.8
			s-1.7,0.3-2,0.8c-0.4,0.6-0.6,1.4-0.6,2.5v8.5C482.1,98.3,482.3,99.2,482.7,99.8z M484,82l1.4-4.2h2.8l-2.8,4.2H484z"/>
		<path style="fill:#714155;" d="M499.8,102.8V83.3h2.8v19.5H499.8z"/>
		<path style="fill:#714155;" d="M515.7,102.8l-4.2-19.5h2.8l2.1,10.4l0.7,4.9l0.7-4.9l2.1-10.4h2.8l-4.2,19.5H515.7z"/>
		<path style="fill:#714155;" d="M525.5,102.8V83.3h7.6v2.1h-4.9v6.3h3.5v2.1h-3.5v7h4.9v2.1L525.5,102.8L525.5,102.8z"/>
		<path style="fill:#714155;" d="M536.2,102.8V83.3h2.1l4.9,12v-12h2.8v19.5h-2l-5-12.9v12.9H536.2z"/>
		<path style="fill:#714155;" d="M552.1,102.8v-17h-3.5v-2.5h9.7v2.5h-3.5v17H552.1z"/>
		<path style="fill:#714155;" d="M559.6,102.8l4.2-19.5h2.8l4.2,19.5H568l-1-4.9h-3.5l-1,4.9H559.6z M563.7,95.8h2.8l-1.4-8.3
			L563.7,95.8z"/>
		<path style="fill:#714155;" d="M190,133.6v-19.5h4.3c2,0,3.5,0.4,4.3,1.2c0.8,0.8,1.3,2.3,1.3,4.3v7.6c0,2.1-0.4,3.7-1.3,4.7
			c-0.9,1-2.3,1.5-4.3,1.5H190V133.6z M192.8,131.5h1.5c0.5,0,0.8,0,1.2-0.1c0.3-0.1,0.6-0.2,0.8-0.5c0.2-0.2,0.4-0.4,0.5-0.6
			c0.1-0.2,0.2-0.5,0.2-0.9s0.1-0.8,0.1-1c0-0.3,0-0.7,0-1.3c0-0.2,0-0.3,0-0.4v-6.3c0-0.4,0-0.6,0-0.8c0-0.2,0-0.5,0-0.7
			c0-0.3,0-0.5-0.1-0.7c0-0.2-0.1-0.4-0.2-0.6c-0.1-0.2-0.1-0.4-0.2-0.5c-0.1-0.1-0.2-0.2-0.4-0.4c-0.1-0.1-0.3-0.2-0.5-0.3
			c-0.2-0.1-0.4-0.1-0.6-0.2c-0.2,0-0.5-0.1-0.8-0.1h-1.5V131.5z"/>
		<path style="fill:#714155;" d="M203.6,133.6v-19.5h7.6v2.1h-4.9v6.3h3.5v2.1h-3.5v7h4.9v2.1h-7.6V133.6z"/>
		<path style="fill:#714155;" d="M220.2,133.6v-19.5h7.6v2.1h-4.9v6.3h3.5v2.1h-3.5v9H220.2z"/>
		<path style="fill:#714155;" d="M238.1,133.5c-0.6,0.2-1.4,0.3-2.2,0.3s-1.6-0.1-2.2-0.3c-0.6-0.2-1.2-0.5-1.6-0.9
			c-0.4-0.4-0.8-0.9-1-1.5c-0.3-0.6-0.4-1.3-0.6-2c-0.1-0.7-0.2-1.5-0.2-2.4v-12.5h2.8v12.5c0,0.6,0,1.1,0,1.5
			c0,0.4,0.1,0.8,0.2,1.3c0.1,0.5,0.3,0.8,0.5,1.1s0.5,0.5,0.8,0.7c0.4,0.2,0.8,0.3,1.3,0.3s0.9-0.1,1.3-0.3
			c0.4-0.2,0.6-0.4,0.8-0.7s0.3-0.6,0.5-1.1c0.1-0.5,0.2-0.9,0.2-1.3c0-0.4,0-0.9,0-1.5v-12.5h2.8v12.5c0,0.9-0.1,1.7-0.2,2.4
			c-0.1,0.7-0.3,1.4-0.6,2s-0.6,1.1-1,1.5C239.2,132.9,238.7,133.3,238.1,133.5z"/>
		<path style="fill:#714155;" d="M245.3,133.6v-19.5h3.5c2.1,0,3.6,0.4,4.7,1.2c1,0.8,1.6,2.1,1.6,4c0,1.2-0.2,2.1-0.6,2.9
			c-0.4,0.8-1,1.3-1.8,1.6l3.1,9.7H253l-2.8-9h-2.1v9h-2.8V133.6z M248.1,122.5h0.7c1.2,0,2-0.2,2.6-0.7s0.9-1.3,0.9-2.4
			s-0.3-1.9-0.9-2.4c-0.6-0.5-1.4-0.7-2.6-0.7h-0.7V122.5z"/>
		<path style="fill:#714155;" d="M263.9,133.8c-0.9,0-1.7-0.1-2.3-0.4c-0.7-0.3-1.2-0.6-1.6-1s-0.7-1-1-1.7
			c-0.2-0.7-0.4-1.4-0.5-2.1c-0.1-0.7-0.1-1.6-0.1-2.6v-4.9c0-4.8,1.9-7.1,5.7-7.1c0.9,0,1.7,0.1,2.4,0.4c0.7,0.3,1.2,0.7,1.6,1.2
			s0.7,1.1,0.9,1.8c0.2,0.7,0.3,1.5,0.4,2.4c0,0.1,0,0.3,0,0.6h-2.8v-0.6c0-0.5,0-0.8-0.1-1.2c0-0.3-0.1-0.7-0.2-1s-0.2-0.6-0.4-0.8
			c-0.2-0.2-0.4-0.4-0.7-0.5c-0.3-0.1-0.7-0.2-1.1-0.2c-0.6,0-1,0.1-1.4,0.3c-0.4,0.2-0.7,0.5-0.9,0.9c-0.2,0.4-0.4,0.8-0.4,1.3
			c-0.1,0.5-0.1,1-0.1,1.7v6.3c0,0.5,0,0.9,0,1.3c0,0.4,0.1,0.8,0.1,1.1c0.1,0.4,0.2,0.7,0.3,1c0.1,0.3,0.3,0.5,0.5,0.8
			c0.2,0.2,0.4,0.4,0.8,0.5c0.3,0.1,0.6,0.2,1,0.2c0.5,0,0.9-0.1,1.2-0.3c0.3-0.2,0.6-0.4,0.8-0.7c0.2-0.3,0.4-0.7,0.5-1.1
			c0.1-0.4,0.2-0.9,0.2-1.3c0-0.4,0.1-0.9,0.1-1.5V126H264v-2.1h5.6v9.7h-2.1l-0.7-2.1C266.2,133,265.2,133.8,263.9,133.8z"/>
		<path style="fill:#714155;" d="M278.1,133.8c-1,0-1.8-0.1-2.5-0.4c-0.7-0.3-1.3-0.7-1.7-1.3c-0.4-0.6-0.7-1.2-0.9-2
			c-0.2-0.8-0.3-1.7-0.3-2.7v-7.1c0-1,0.1-1.9,0.3-2.7c0.2-0.8,0.5-1.4,0.9-2s1-1,1.7-1.3s1.5-0.4,2.5-0.4c1.9,0,3.3,0.5,4.1,1.6
			c0.8,1.1,1.3,2.7,1.3,4.7v7.1c0,1-0.1,1.9-0.3,2.7c-0.2,0.8-0.5,1.4-0.9,2s-1,1-1.7,1.3C279.9,133.7,279.1,133.8,278.1,133.8z
			 M276.1,130.6c0.4,0.6,1,0.9,2,0.9s1.7-0.3,2-0.9c0.4-0.6,0.6-1.5,0.6-2.6v-8.5c0-1.1-0.2-2-0.6-2.5c-0.4-0.6-1-0.8-2-0.8
			s-1.7,0.3-2,0.8c-0.4,0.6-0.6,1.4-0.6,2.5v8.5C275.5,129.2,275.7,130.1,276.1,130.6z"/>
		<path style="fill:#714155;" d="M287.2,133.6v-19.5h2.1l4.9,12v-12h2.8v19.5h-2l-5-12.9v12.9H287.2z"/>
		<path style="fill:#714155;" d="M301.1,133.6v-19.5h7.6v2.1h-4.9v6.3h3.5v2.1h-3.5v7h4.9v2.1h-7.6V133.6z"/>
		<path style="fill:#714155;" d="M313.8,133.6v-17h-3.5v-2.5h9.7v2.5h-3.5v17H313.8z"/>
		<path style="fill:#714155;" d="M322.8,133.6v-19.5h7.6v2.1h-4.9v6.3h3.5v2.1h-3.5v7h4.9v2.1h-7.6V133.6z"/>
		<path style="fill:#714155;" d="M338.6,133.8c-1.8,0-3.1-0.5-4-1.5s-1.4-2.4-1.5-4.2l2.8-0.7c0.1,2.8,1.1,4.2,2.8,4.2
			c1.4,0,2.1-0.7,2.1-2.1c0-0.4-0.1-0.8-0.2-1.1c-0.1-0.4-0.3-0.7-0.5-1s-0.4-0.5-0.6-0.7s-0.4-0.4-0.8-0.7l-3.5-2.8
			c-0.6-0.5-1.1-1.1-1.5-1.9s-0.6-1.6-0.6-2.6c0-1.4,0.4-2.6,1.3-3.4s2.1-1.3,3.5-1.3c1.6,0,2.8,0.4,3.8,1.2
			c0.9,0.8,1.5,1.9,1.7,3.3c0,0.2,0,0.4,0.1,0.6l-2.8,0.7c0-0.1,0-0.3-0.1-0.6c-0.1-0.9-0.4-1.6-0.8-2.1s-1.1-0.8-1.9-0.8
			c-0.7,0-1.2,0.2-1.5,0.6c-0.4,0.4-0.5,0.9-0.5,1.6c0,1.1,0.5,2,1.4,2.7l3.5,2.8c1.9,1.5,2.8,3.3,2.8,5.4c0,1.4-0.4,2.5-1.3,3.3
			C341.2,133.4,340,133.8,338.6,133.8z"/>
		<path style="fill:#714155;" d="M357.6,133.8c-0.8,0-1.5-0.1-2.2-0.3s-1.1-0.6-1.5-1s-0.7-0.9-1-1.5s-0.4-1.3-0.5-2
			s-0.2-1.5-0.2-2.4v-5.5c0-0.9,0.1-1.7,0.2-2.4s0.3-1.3,0.5-2c0.2-0.6,0.6-1.1,1-1.5s0.9-0.7,1.5-1s1.3-0.3,2.2-0.3
			c0.9,0,1.7,0.1,2.3,0.4c0.7,0.3,1.2,0.7,1.6,1.2s0.7,1.1,0.9,1.8c0.2,0.7,0.3,1.5,0.4,2.4c0,0.1,0,0.4,0,0.6H360v-0.6
			c0-0.4,0-0.7,0-1s-0.1-0.6-0.1-0.8c-0.1-0.3-0.1-0.5-0.3-0.7c-0.1-0.2-0.3-0.4-0.4-0.5c-0.2-0.2-0.4-0.3-0.6-0.4
			c-0.3-0.1-0.6-0.1-0.9-0.1c-0.4,0-0.8,0.1-1.2,0.2c-0.3,0.1-0.6,0.3-0.8,0.6c-0.2,0.2-0.3,0.5-0.4,0.9s-0.2,0.8-0.2,1.1
			c0,0.4,0,0.8,0,1.4v7c0,0.5,0,0.9,0.1,1.3c0,0.4,0.1,0.8,0.2,1.1c0.1,0.4,0.3,0.7,0.5,0.9c0.2,0.3,0.4,0.5,0.7,0.6
			c0.3,0.2,0.7,0.2,1.1,0.2s0.8-0.1,1.1-0.2s0.5-0.4,0.7-0.6c0.2-0.2,0.3-0.6,0.4-0.9c0.1-0.4,0.2-0.8,0.2-1.1s0-0.8,0-1.3v-0.7h2.8
			v0.7c0,1-0.1,1.9-0.3,2.7c-0.2,0.8-0.5,1.4-0.9,2s-0.9,1-1.6,1.3C359.4,133.7,358.6,133.8,357.6,133.8z"/>
		<path style="fill:#714155;" d="M364.8,133.6l4.2-19.5h2.8l4.2,19.5h-2.8l-1-4.9h-3.5l-1,4.9H364.8z M369,126.7h2.8l-1.4-8.3
			L369,126.7z"/>
		<path style="fill:#714155;" d="M378.8,133.6v-19.5h3.8l2.8,14.9l2.8-14.9h3.8v19.5h-2.8v-15.4l-2.8,15.4h-2.1l-2.8-15.4v15.4
			H378.8z"/>
		<path style="fill:#714155;" d="M396.1,133.6v-19.5h4.9c3.2,0,4.9,1.9,4.9,5.6c0,1.6-0.4,2.8-1.3,3.6c-0.8,0.8-2,1.2-3.6,1.2h-2.1
			v9h-2.8V133.6z M398.9,122.5h0.7c0.6,0,1.1,0,1.5-0.1s0.8-0.2,1.1-0.4c0.3-0.2,0.5-0.5,0.7-0.9c0.1-0.4,0.2-0.8,0.2-1.4
			c0-0.7-0.1-1.3-0.2-1.7c-0.1-0.4-0.3-0.8-0.6-1.1c-0.3-0.3-0.6-0.5-1.1-0.6c-0.4-0.1-1-0.2-1.7-0.2h-0.7v6.4H398.9z"/>
		<path style="fill:#714155;" d="M408.8,133.6v-19.5h7.6v2.1h-4.9v6.3h3.5v2.1h-3.5v7h4.9v2.1h-7.6V133.6z"/>
		<path style="fill:#714155;" d="M419.5,133.6v-19.5h3.5c2.1,0,3.6,0.4,4.7,1.2c1,0.8,1.6,2.1,1.6,4c0,1.2-0.2,2.1-0.6,2.9
			s-1,1.3-1.8,1.6l3.1,9.7h-2.8l-2.8-9h-2.1v9h-2.8V133.6z M422.2,122.5h0.7c1.2,0,2-0.2,2.6-0.7s0.9-1.3,0.9-2.4s-0.3-1.9-0.9-2.4
			s-1.4-0.7-2.6-0.7h-0.7V122.5z"/>
	</g>
</g>
</svg>
