<?xml version="1.0" encoding="utf-8"?>
<!-- Generator: Adobe Illustrator 21.0.0, SVG Export Plug-In . SVG Version: 6.00 Build 0)  -->
<svg id="ico-square-bed" version="1.1" xmlns="http://www.w3.org/2000/svg" xmlns:xlink="http://www.w3.org/1999/xlink" x="0px" y="0px"
	 viewBox="0 0 75.3 75.3" style="enable-background:new 0 0 75.3 75.3;" xml:space="preserve">
<g>
	
		<rect x="21.8" y="35.5" style="fill:#4D4D4D;stroke:#4D4D4D;stroke-width:1.4895;stroke-linecap:round;stroke-linejoin:round;stroke-miterlimit:10;" width="2.4" height="3.7"/>
	
		<rect x="51.8" y="35.5" style="fill:#4D4D4D;stroke:#4D4D4D;stroke-width:1.4895;stroke-linecap:round;stroke-linejoin:round;stroke-miterlimit:10;" width="2.4" height="3.7"/>
	<path style="fill:none;stroke:#4D4D4D;stroke-width:1.9198;stroke-linecap:round;stroke-linejoin:round;stroke-miterlimit:10;" d="
		M18.9,26.3c-2.5,0-4.6,2-4.6,4.6l0,0c0,2.5,2,4.6,4.6,4.6h37.6c2.5,0,4.6-2,4.6-4.6l0,0c0-2.5-2-4.6-4.6-4.6H18.9z"/>
	<path style="fill:none;stroke:#4D4D4D;stroke-width:1.9198;stroke-linecap:round;stroke-linejoin:round;stroke-miterlimit:10;" d="
		M18.4,22.3c-0.8,0-1.4,0.6-1.4,1.4l0,0c0,0.8,0.6,1.4,1.4,1.4h12.5c0.8,0,1.4-0.6,1.4-1.4l0,0c0-0.7-0.6-1.4-1.4-1.4
		c0,0-2.1-1.6-6.4-1.6S18.4,22.3,18.4,22.3z"/>
</g>
</svg>
