<?xml version="1.0" encoding="utf-8"?>
<!-- Generator: Adobe Illustrator 21.0.0, SVG Export Plug-In . SVG Version: 6.00 Build 0)  -->
<svg id="ico-square-shower" version="1.1" xmlns="http://www.w3.org/2000/svg" xmlns:xlink="http://www.w3.org/1999/xlink" x="0px" y="0px"
	 viewBox="0 0 75.3 75.3" style="enable-background:new 0 0 75.3 75.3;" xml:space="preserve">
<g>
	<path style="fill:none;stroke:#4D4D4D;stroke-width:1.9198;stroke-linecap:round;stroke-linejoin:round;stroke-miterlimit:10;" d="
		M32.6,27.6c0-3.9,3.1-7,7-7h4.8c3.9,0,7,3.1,7,7v30.7"/>
	<g>
		<g>
			
				<line style="fill:none;stroke:#4D4D4D;stroke-width:1.3214;stroke-linecap:round;stroke-linejoin:round;" x1="32.6" y1="42.5" x2="32.6" y2="44.5"/>
			
				<line style="fill:none;stroke:#4D4D4D;stroke-width:1.3214;stroke-linecap:round;stroke-linejoin:round;stroke-dasharray:2.8417,2.8417;" x1="32.6" y1="47.4" x2="32.6" y2="51.6"/>
			
				<line style="fill:none;stroke:#4D4D4D;stroke-width:1.3214;stroke-linecap:round;stroke-linejoin:round;" x1="32.6" y1="53" x2="32.6" y2="55"/>
		</g>
	</g>
	<g>
		<g>
			
				<line style="fill:none;stroke:#4D4D4D;stroke-width:1.3214;stroke-linecap:round;stroke-linejoin:round;" x1="36.5" y1="41.9" x2="37.2" y2="43.7"/>
			
				<line style="fill:none;stroke:#4D4D4D;stroke-width:1.3214;stroke-linecap:round;stroke-linejoin:round;stroke-dasharray:2.9174,2.9174;" x1="38.3" y1="46.4" x2="40" y2="50.5"/>
			
				<line style="fill:none;stroke:#4D4D4D;stroke-width:1.3214;stroke-linecap:round;stroke-linejoin:round;" x1="40.5" y1="51.8" x2="41.3" y2="53.7"/>
		</g>
	</g>
	<g>
		<g>
			
				<line style="fill:none;stroke:#4D4D4D;stroke-width:1.3214;stroke-linecap:round;stroke-linejoin:round;" x1="28.7" y1="41.9" x2="28" y2="43.7"/>
			
				<line style="fill:none;stroke:#4D4D4D;stroke-width:1.3214;stroke-linecap:round;stroke-linejoin:round;stroke-dasharray:2.9173,2.9173;" x1="26.9" y1="46.4" x2="25.2" y2="50.5"/>
			
				<line style="fill:none;stroke:#4D4D4D;stroke-width:1.3214;stroke-linecap:round;stroke-linejoin:round;" x1="24.7" y1="51.8" x2="23.9" y2="53.7"/>
		</g>
	</g>
	<g>
		
			<path style="fill:none;stroke:#4D4D4D;stroke-width:1.9198;stroke-linecap:round;stroke-linejoin:round;stroke-miterlimit:10;" d="
			M35.1,28.4c2.6,1.1,4.4,3.9,4.4,7.2c0,4.3-13.8,4.3-13.8,0c0-3.3,1.8-6,4.4-7.2L35.1,28.4z"/>
	</g>
</g>
</svg>
