<?xml version="1.0" encoding="utf-8"?>
<!-- Generator: Adobe Illustrator 21.0.0, SVG Export Plug-In . SVG Version: 6.00 Build 0)  -->
<svg id="ico-square-toilet" version="1.1" xmlns="http://www.w3.org/2000/svg" xmlns:xlink="http://www.w3.org/1999/xlink" x="0px" y="0px"
	 viewBox="0 0 75.3 75.3" style="enable-background:new 0 0 75.3 75.3;" xml:space="preserve">
<g>
	<path style="fill:none;stroke:#4D4D4D;stroke-width:1.9198;stroke-linecap:round;stroke-linejoin:round;stroke-miterlimit:10;" d="
		M58.1,37c0,11.3-9.1,20.4-20.4,20.4c-11.3,0-20.4-9.1-20.4-20.4H58.1z"/>
	<path style="fill:none;stroke:#4D4D4D;stroke-width:1.9198;stroke-linecap:round;stroke-linejoin:round;stroke-miterlimit:10;" d="
		M39.3,27.4c0-3.3-2.7-6-6-6c-3.3,0-6,2.7-6,6V37"/>
	<path style="fill:#4D4D4D;" d="M24.6,33.7c-1.2,0-2.2-1-2.2-2.2c0-1.2,1-2.2,2.2-2.2V33.7z"/>
	<path style="fill:#4D4D4D;" d="M29.7,33.7c1.2,0,2.2-1,2.2-2.2c0-1.2-1-2.2-2.2-2.2V33.7z"/>
</g>
</svg>
