<?xml version="1.0" encoding="utf-8"?>
<!-- Generator: Adobe Illustrator 21.0.0, SVG Export Plug-In . SVG Version: 6.00 Build 0)  -->
<svg id="ico-square-kitchen" version="1.1" xmlns="http://www.w3.org/2000/svg" xmlns:xlink="http://www.w3.org/1999/xlink" x="0px" y="0px"
	 viewBox="0 0 75.3 75.3" style="enable-background:new 0 0 75.3 75.3;" xml:space="preserve">
<g>
	<path style="fill:none;stroke:#4D4D4D;stroke-width:1.9198;stroke-linecap:round;stroke-linejoin:round;stroke-miterlimit:10;" d="
		M52.5,49.4c0,2.6-2.1,4.6-4.6,4.6H27.4c-2.6,0-4.6-2.1-4.6-4.6V29c0-2.6,2.1-4.6,4.6-4.6h20.4c2.6,0,4.6,2.1,4.6,4.6V49.4z"/>
	
		<line style="fill:none;stroke:#4D4D4D;stroke-width:1.9198;stroke-linecap:round;stroke-linejoin:round;stroke-miterlimit:10;" x1="23" y1="30.4" x2="52.4" y2="30.4"/>
	
		<line style="fill:none;stroke:#4D4D4D;stroke-width:1.9198;stroke-linecap:round;stroke-linejoin:round;stroke-miterlimit:10;" x1="23" y1="48.1" x2="52.4" y2="48.1"/>
	
		<rect x="28.8" y="23.2" style="fill:none;stroke:#4D4D4D;stroke-width:1.9198;stroke-linecap:round;stroke-linejoin:round;stroke-miterlimit:10;" width="7.1" height="0.9"/>
	
		<rect x="39.5" y="23.2" style="fill:none;stroke:#4D4D4D;stroke-width:1.9198;stroke-linecap:round;stroke-linejoin:round;stroke-miterlimit:10;" width="7.1" height="0.9"/>
	<rect x="25.7" y="33.1" style="fill:#4D4D4D;" width="24" height="12.2"/>
	<circle style="fill:#4D4D4D;" cx="29.3" cy="27.5" r="0.9"/>
	<circle style="fill:#4D4D4D;" cx="33" cy="27.5" r="0.9"/>
	<circle style="fill:#4D4D4D;" cx="45.8" cy="27.5" r="0.9"/>
</g>
</svg>
