<?xml version="1.0" encoding="utf-8"?>
<!-- Generator: Adobe Illustrator 21.0.0, SVG Export Plug-In . SVG Version: 6.00 Build 0)  -->
<svg id="ico-square-heating" version="1.1" xmlns="http://www.w3.org/2000/svg" xmlns:xlink="http://www.w3.org/1999/xlink" x="0px" y="0px"
	 viewBox="0 0 75.3 75.3" style="enable-background:new 0 0 75.3 75.3;" xml:space="preserve">
<g>
	<path style="fill:none;stroke:#4D4D4D;stroke-width:1.9198;stroke-linecap:round;stroke-linejoin:round;stroke-miterlimit:10;" d="
		M34.8,49.7c0,2.3-1.8,4.1-4.1,4.1l0,0c-2.3,0-4.1-1.8-4.1-4.1V31.6c0-2.3,1.8-4.1,4.1-4.1l0,0c2.3,0,4.1,1.8,4.1,4.1V49.7z"/>
	<path style="fill:none;stroke:#4D4D4D;stroke-width:1.9198;stroke-linecap:round;stroke-linejoin:round;stroke-miterlimit:10;" d="
		M45.5,49.7c0,2.3-1.8,4.1-4.1,4.1l0,0c-2.3,0-4.1-1.8-4.1-4.1V31.6c0-2.3,1.8-4.1,4.1-4.1l0,0c2.3,0,4.1,1.8,4.1,4.1V49.7z"/>
	<path style="fill:none;stroke:#4D4D4D;stroke-width:1.9198;stroke-linecap:round;stroke-linejoin:round;stroke-miterlimit:10;" d="
		M56.2,49.7c0,2.3-1.8,4.1-4.1,4.1l0,0c-2.3,0-4.1-1.8-4.1-4.1V31.6c0-2.3,1.8-4.1,4.1-4.1l0,0c2.3,0,4.1,1.8,4.1,4.1V49.7z"/>
	
		<circle style="fill:#4D4D4D;stroke:#4D4D4D;stroke-width:2;stroke-linecap:round;stroke-linejoin:round;stroke-miterlimit:10;" cx="20.7" cy="31" r="1.6"/>
</g>
</svg>
