<?xml version="1.0" encoding="utf-8"?>
<!-- Generator: Adobe Illustrator 21.0.0, SVG Export Plug-In . SVG Version: 6.00 Build 0)  -->
<svg id="iso-wave" version="1.1" xmlns="http://www.w3.org/2000/svg" xmlns:xlink="http://www.w3.org/1999/xlink" x="0px" y="0px"
	 viewBox="0 0 132 132" style="enable-background:new 0 0 132 132;" xml:space="preserve">
<path style="fill:#FFFFFF;" d="M113.6,70.6c-0.1-0.4-2.3-9.7-8-20.5c-1-1.9-2.1-3.8-3.2-5.5l8.2-19.2H84.5c-2.6-1.7-5.3-3.2-8.2-4.3
	c-4.3-1.7-8.6-2.6-12.7-2.6c-3.9,0-11.3,0.9-18.7,6.9h-24l44.9,104.7l26-60.8l22.2,3.1L113.6,70.6z M102.2,31.1l-3.5,8.1
	c-2.2-3-4.6-5.7-7.1-8.1H102.2z M29.5,31.1h9.9c-2.1,2.5-4.1,5.5-5.9,9.2L29.5,31.1z M36.5,46.9c1.4-2.9,3.2-5.5,5.3-7.8
	c4-4.2,9-6.9,14.4-8c2.4,0,4.5,0.4,6.4,1c-0.5,0-1-0.1-1.5-0.1c-6.8,0-13.5,2.9-18.4,8.1c-2.3,2.4-4.2,5.3-5.6,8.5L36.5,46.9z
	 M38.2,50.8c1.5-3.9,3.5-7.3,6.2-10.2c4.8-5.1,11.7-8.1,18.4-8.1c0.4,0,0.7,0,1.1,0c1.3,0.5,2.4,1.2,3.5,2c-1.5-0.3-3-0.5-4.5-0.5
	c-6.3,0-12.8,2.9-17.3,7.6c-2.9,3-5,6.7-6.4,11.1L38.2,50.8z M40,55.1c1.3-5.2,3.6-9.5,6.9-13c4.6-4.8,11.1-7.6,17.4-7.6
	c1.1,0,2.2,0.1,3.2,0.2c0.8,0.6,1.5,1.3,2.2,2C68,36.2,66.2,36,64.3,36c-5.9,0-12,2.7-16.3,7.2c-3.5,3.7-5.8,8.5-7,14.2L40,55.1z
	 M42.2,60.2c0.9-6.7,3.4-12.4,7.3-16.5c4.3-4.5,10.4-7.2,16.4-7.2c1.3,0,2.6,0.1,3.9,0.4c0.5,0.6,1,1.2,1.5,1.8
	c-1.8-0.5-3.6-0.7-5.4-0.7c-5.6,0-11.3,2.5-15.3,6.8c-4.2,4.4-6.7,10.7-7.2,18.2L42.2,60.2z M44.9,66.5c-0.1-8.9,2.4-16.3,7.2-21.3
	c4-4.2,9.8-6.8,15.4-6.8c1.3,0,2.7,0.1,4,0.4c0.4,0.6,0.8,1.2,1.2,1.8c-1.6-0.4-3.3-0.6-5.1-0.6c-5.2,0-10.5,2.4-14.3,6.3
	c-4.6,4.8-6.9,12-6.8,20.7c0,1.2,0.1,2.3,0.2,3.5L44.9,66.5z M49.5,77.1c-0.9-3.7-1.4-7.2-1.5-10.3c-0.1-8.4,2.2-15.4,6.7-20.1
	c3.8-3.9,9.1-6.3,14.3-6.3c1.2,0,2.4,0.1,3.7,0.3c0.3,0.5,0.6,1.1,0.9,1.7c-1.5-0.3-3-0.5-4.6-0.5c-1.8,0-8.1,0.4-13.3,5.8
	c-4.3,4.5-6.4,10.9-6.3,19c0.1,4.5,0.7,9.4,1.8,14.5L49.5,77.1z M68.5,109.4c-7.4-12-17.2-31.4-17.4-42.8c-0.1-7.9,2-14.1,6.2-18.4
	c5.2-5.4,11.5-5.8,13.3-5.8c1,0,2.1,0.1,3.1,0.2c0.3,0.5,0.5,1.1,0.7,1.6c-1.2-0.2-2.5-0.4-3.9-0.4c-1.7,0-7.5,0.4-12.3,5.4
	c-3.9,4.1-5.9,9.9-5.8,17.4c0.2,12,8.5,29.3,15.8,40.7c0.2,0.4,0.4,0.7,0.6,1.1L68.5,109.4z M71.5,102.5c-6.4-9.4-17.1-24.7-17.3-36
	c-0.1-7.1,1.8-12.8,5.7-16.8c3.8-4,8.9-5.4,12.3-5.4c0.8,0,1.6,0.1,2.4,0.1c0.2,0.5,0.4,1,0.6,1.6c-1-0.1-2-0.2-3-0.2
	c-3.2,0-7.8,1.3-11.3,4.9c-3.6,3.7-5.3,9-5.2,15.7c0.2,11,6.8,21.5,13.4,31.2c1,1.5,1.9,2.7,2.8,3.9L71.5,102.5z M73.4,98
	c-6-8.2-16-21.4-16.1-31.7c-0.1-6.4,1.7-11.5,5.1-15.1c3.5-3.6,8.2-4.9,11.3-4.9c0.5,0,1,0,1.6,0.1c0.2,0.5,0.3,1,0.5,1.5
	c-0.7-0.1-1.4-0.1-2.1-0.1c-2.9,0-7.1,1.2-10.3,4.5c-3.2,3.3-4.8,8-4.7,14.1c0.1,10.2,7.2,19.4,13,27.4c0.8,1.1,1.6,2.1,2.3,3
	L73.4,98z M75.3,93.5c-5.7-6.9-14.9-18-15-27.3C60.3,60.5,61.9,56,65,52.7c3.2-3.3,7.4-4.5,10.3-4.5c0.2,0,0.4,0,0.6,0
	c0.2,0.5,0.3,1,0.4,1.5c-0.3,0-0.7,0-1,0c-2.6,0-6.4,1.1-9.3,4c-2.8,2.9-4.2,7.1-4.2,12.4c0.1,9.7,7.1,17,12.4,23.5
	c0.6,0.8,1.3,1.5,1.9,2.1L75.3,93.5z M76.9,89.8c-5.4-5.9-13.4-15.5-13.4-23.8c0-5,1.3-9,4.1-11.8c2.7-2.8,6.3-3.9,9-4
	c0.1,0.5,0.2,1,0.4,1.5c-2.2,0-5.7,1-8.3,3.6c-2.5,2.5-3.7,6.1-3.6,10.7c0,9.3,7.1,15.7,11.9,20.9c0.3,0.3,0.6,0.6,0.9,0.9
	L76.9,89.8z M78.4,86.3c-5.2-5.2-11.8-13.1-11.9-20.4c0-4.3,1.2-7.7,3.5-10.2c2.1-2.1,4.7-3.1,6.9-3.4c0.1,0.5,0.2,1,0.3,1.5
	c-1.5,0.2-4.1,0.9-6.2,3C69,58.9,68,62,68,65.9c0,8.8,7.1,14.6,11.3,18.2L78.4,86.3z M80.6,81.3c-3.4-2.1-9.1-6.7-9.1-14.8
	c0-6.4,4.1-8.3,6.2-8.8c0.7,4.9,0.6,8.5,0.6,8.6l0,1.2l7.8,1.1L80.6,81.3z M103.6,68.4c-0.5-3.2-2.1-11-8.2-21.8
	c0,0,5.6,11.6,6.4,21.6l-6-0.8c-0.2-2.2-0.8-6.7-3.2-13.4c0,0,2,7,2.2,13.3l-5.2-0.7c-0.1-2.9-0.9-11-6.3-22.8
	c0,0,4.7,12.4,4.6,22.6l-7-1C80.8,60.6,80,44.1,71.2,35c-3.8-3.9-8.6-5.9-14.3-5.9c-7,0-13.1,2.5-18.1,7.2
	c4.9-7.3,12.9-15.2,25-15.2c3.8,0,7.7,0.8,11.7,2.4c23.1,9.2,32.9,38.1,35.1,45.8L103.6,68.4z"/>
</svg>
