<svg 
	version="1.1" 
	id="Layer_1" 
	xmlns="http://www.w3.org/2000/svg" 
	xmlns:xlink="http://www.w3.org/1999/xlink" 
	x="0px" 
	y="0px"
	viewBox="0 0 263.4 63" 
	enable-background="new 0 0 263.4 63" 
	xml:space="preserve"
	width="180px"
	class="nitro-brand">
<g>
	<path fill="#FFFFFF" d="M19.3,30.8v31.3H0V0.9h20.5l18.6,29.7V0.9h19.5v61.2H39.1L19.3,30.8z"/>
	<path fill="#FFFFFF" d="M63.2,0.9h20.4v61.2H63.2V0.9z"/>
	<path fill="#FFFFFF" d="M122.6,18.3v43.8h-19.8V18.3H87.3V0.9H138v17.4H122.6z"/>
	<path fill="#FFFFFF" d="M142,0.9h29.3c7,0,12.7,1.9,17,5.8c4.4,3.9,6.6,9,6.6,15.3c0,8-3.3,14.1-10,18.3l12.6,21.9h-22.8l-9.4-18.3
		h-3.3v18.3h-20V0.9z M162.1,17.3v11.5h6.5c2.1,0,3.7-0.5,4.9-1.5c1.2-1,1.7-2.4,1.7-4.2c0-1.8-0.6-3.2-1.7-4.2
		c-1.2-1-2.8-1.5-4.9-1.5H162.1z"/>
	<path fill="#FFFFFF" d="M254.2,9c6.1,6,9.2,13.4,9.2,22.3c0,8.9-3.2,16.4-9.5,22.5S239.8,63,230.5,63c-9.3,0-17-3-23.1-8.9
		c-6.1-5.9-9.1-13.3-9.1-22.2c0-8.9,3.1-16.5,9.4-22.6S221.8,0,231.1,0C240.4,0,248.1,3,254.2,9z M221.8,40.8c2.4,2.5,5.5,3.8,9,3.8
		s6.6-1.3,9-3.8c2.4-2.5,3.7-5.6,3.7-9.3c0-3.7-1.2-6.8-3.7-9.3c-2.4-2.5-5.5-3.8-9-3.8s-6.6,1.3-9,3.8c-2.4,2.5-3.7,5.6-3.7,9.3
		C218.1,35.1,219.3,38.3,221.8,40.8z"/>
</g>
</svg>
