<?xml version="1.0" encoding="utf-8"?>
<!-- Generator: Adobe Illustrator 21.0.0, SVG Export Plug-In . SVG Version: 6.00 Build 0)  -->
<svg version="1.1" id="objects" xmlns="http://www.w3.org/2000/svg" xmlns:xlink="http://www.w3.org/1999/xlink" x="0px" y="0px"
	 viewBox="0 0 271 374.2" enable-background="new 0 0 271 374.2" xml:space="preserve">
<g>
	<path opacity="0.2" fill="#D6D6D6" d="M233,129.6c-0.3-0.6-0.7-1.1-1-1.7c-0.1-0.2-0.2-0.3-0.3-0.4c0,0,0-0.1-0.1-0.1
		c-0.4-0.7-0.9-1.4-1.3-2.1c-0.5-0.7-1-1.5-1.4-2.2c-1-1.5-2-3.1-3.1-4.7c-0.4-0.7-0.9-1.3-1.3-2c-0.1-0.1-0.2-0.2-0.2-0.3
		c0,0,0,0,0,0c0,0,0,0,0,0c-0.2-0.3-0.4-0.6-0.6-0.8c-2-3-4.1-6-6.3-9.1c-0.1-0.2-0.3-0.4-0.4-0.6c-1.5-2.1-3-4.2-4.5-6.4
		c-2.7-3.8-5.5-7.6-8.3-11.5c-1.2-1.7-2.5-3.4-3.8-5.1c-2.8-3.7-5.5-7.4-8.4-11.1c-1.3-1.7-2.6-3.5-4-5.2c-0.7-1-1.5-1.9-2.2-2.9
		c-0.7-0.9-1.3-1.7-2-2.6c-1.4-1.8-2.7-3.5-4.1-5.2c-1.1-1.4-2.2-2.8-3.2-4.2c-0.9-1.2-1.8-2.4-2.8-3.5C152.9,21.1,135.5,0,135.5,0
		s-17.4,21.1-38.3,47.8c0,0.1-0.1,0.1-0.1,0.2c-1.2,1.6-2.5,3.1-3.7,4.8c-4.8,6.1-9.6,12.4-14.5,18.8l-4,5.2c0,0-0.1,0.1-0.1,0.1
		c-2,2.7-4,5.3-6,8c-0.7,0.9-1.3,1.8-2,2.7c-0.7,0.9-1.3,1.8-2,2.7c-1.3,1.8-2.7,3.6-4,5.4c-0.8,1.1-1.6,2.2-2.4,3.4
		c-1.5,2.2-3.1,4.3-4.5,6.4c-0.1,0.2-0.3,0.4-0.4,0.6c-1.8,2.6-3.5,5.1-5.2,7.6c-0.7,1.1-1.5,2.2-2.2,3.2c-0.3,0.5-0.7,1-1,1.5
		c-0.1,0.2-0.2,0.4-0.4,0.6c-2.5,3.7-4.8,7.3-6.8,10.7c-0.4,0.7-0.8,1.4-1.2,2c-0.8,1.4-1.6,2.7-2.4,4c-1.6,2.7-3.1,5.3-4.5,7.9
		c-1.8,3.3-3.6,6.5-5.2,9.6c-0.7,1.3-1.3,2.5-1.9,3.8s-1.2,2.5-1.8,3.7c-0.6,1.2-1.2,2.5-1.8,3.7c-0.6,1.2-1.1,2.4-1.7,3.6
		c-0.5,1.2-1.1,2.4-1.6,3.6c-0.3,0.6-0.5,1.2-0.8,1.8c-0.5,1.2-1,2.4-1.5,3.5c-0.5,1.2-0.9,2.4-1.4,3.5c-0.5,1.2-0.9,2.3-1.3,3.5
		c-0.4,1.1-0.8,2.3-1.2,3.4c-0.4,1.1-0.8,2.3-1.1,3.4c-0.2,0.6-0.4,1.1-0.5,1.7c-0.4,1.1-0.7,2.2-1,3.3c-0.5,1.7-1,3.3-1.4,5
		c-0.3,1.1-0.6,2.2-0.9,3.3c-0.3,1.1-0.5,2.2-0.8,3.2c-3.9,17.3-4.7,33.4-2.8,48.9c0.3,2.3,0.6,4.6,1,6.9v0c0.1,0.7,0.3,1.5,0.4,2.2
		c0.1,0.7,0.3,1.3,0.4,2c0,0.1,0,0.3,0.1,0.4c0.1,0.7,0.3,1.3,0.4,2c0.2,0.7,0.3,1.5,0.5,2.2c0.1,0.6,0.3,1.1,0.4,1.7
		c0.1,0.2,0.1,0.5,0.2,0.7c0.2,0.8,0.4,1.6,0.7,2.4c0.1,0.4,0.2,0.8,0.3,1.2c0.1,0.4,0.2,0.8,0.4,1.2c0.1,0.4,0.2,0.8,0.4,1.2
		c0.2,0.8,0.5,1.5,0.8,2.3c0,0.1,0.1,0.2,0.1,0.3c0.1,0.4,0.3,0.9,0.5,1.3c0.2,0.4,0.3,0.9,0.5,1.3c0.5,1.3,1,2.7,1.6,4.1
		c0,0,0,0,0,0.1c0,0.1,0,0.1,0.1,0.1c0,0.1,0.1,0.3,0.2,0.4c0.1,0.3,0.2,0.5,0.4,0.8c0.2,0.5,0.4,1,0.6,1.4c0,0.1,0.1,0.2,0.2,0.4
		c0.2,0.4,0.3,0.8,0.5,1.1c0.2,0.5,0.4,0.9,0.7,1.4c0.2,0.5,0.5,1,0.7,1.5c0.1,0.2,0.2,0.4,0.2,0.5c0.2,0.3,0.3,0.6,0.5,0.9
		c0,0,0,0,0,0c0.1,0.2,0.2,0.5,0.4,0.7c0.1,0.2,0.2,0.5,0.4,0.7c0.3,0.5,0.5,1,0.8,1.6c0.3,0.5,0.5,1,0.8,1.5c0.3,0.5,0.6,1,0.8,1.5
		c0.2,0.5,0.5,0.9,0.8,1.3c0.3,0.5,0.5,1,0.8,1.4c0.1,0.2,0.2,0.4,0.4,0.6c0.2,0.3,0.3,0.5,0.5,0.8c0.5,0.8,1,1.6,1.5,2.4
		c0.2,0.3,0.3,0.6,0.5,0.8c0.4,0.7,0.9,1.4,1.3,2c0.3,0.5,0.6,0.9,0.9,1.4c1.1,1.6,2.2,3.1,3.3,4.7c0.2,0.3,0.5,0.6,0.7,0.9
		c0.2,0.2,0.3,0.4,0.5,0.6c0.3,0.4,0.6,0.8,1,1.3c0.3,0.4,0.7,0.8,1,1.3c1.1,1.3,2.2,2.7,3.3,4c1.4,1.7,3,3.4,4.6,5.1
		c0,0,0.1,0.1,0.1,0.1v0c0.3,0.3,0.6,0.7,1,1c0.3,0.3,0.5,0.5,0.8,0.8c0,0,0.1,0.1,0.1,0.1c0.1,0.1,0.2,0.2,0.2,0.3
		c0.1,0.1,0.3,0.3,0.4,0.4c1.6,1.6,3.3,3.2,5,4.7c0.2,0.1,0.3,0.3,0.5,0.4c0.2,0.1,0.3,0.3,0.5,0.4c0,0,0,0.1,0.1,0.1
		c1.4,1.2,2.8,2.5,4.3,3.6c0.1,0.1,0.2,0.1,0.2,0.2c0.3,0.2,0.6,0.5,0.9,0.7c0.4,0.3,0.8,0.6,1.1,0.9c0.1,0.1,0.2,0.2,0.3,0.3
		c0.3,0.2,0.5,0.4,0.8,0.6c0.4,0.3,0.8,0.6,1.2,0.9c0.2,0.1,0.4,0.3,0.6,0.4c0.2,0.1,0.4,0.3,0.6,0.4c0.4,0.3,0.9,0.6,1.3,0.9
		c0.1,0,0.1,0.1,0.2,0.2c0.2,0.2,0.5,0.3,0.8,0.5c0.1,0,0.1,0.1,0.2,0.1c0.4,0.3,0.7,0.5,1.1,0.8c0.3,0.2,0.6,0.4,0.9,0.6
		c0,0,0,0,0,0c0,0,0,0,0,0c0.1,0.1,0.2,0.1,0.2,0.2c0.3,0.2,0.6,0.4,0.9,0.6c0.1,0.1,0.2,0.1,0.3,0.2c0.4,0.3,0.8,0.5,1.2,0.8
		c0.1,0.1,0.2,0.1,0.3,0.2h0c0.5,0.3,1,0.6,1.5,0.9c0,0,0.1,0,0.1,0.1c0.3,0.2,0.6,0.4,0.9,0.6c0.2,0.1,0.3,0.2,0.5,0.3
		c0.2,0.1,0.3,0.2,0.5,0.3c0.2,0.1,0.4,0.2,0.5,0.3c0.2,0.1,0.3,0.2,0.5,0.3c0.2,0.1,0.3,0.2,0.5,0.3c0,0,0,0,0,0
		c0.3,0.2,0.5,0.3,0.8,0.5c0.3,0.2,0.6,0.3,0.9,0.5c0.4,0.2,0.8,0.4,1.1,0.6c0,0,0.1,0,0.1,0c0.4,0.2,0.8,0.4,1.1,0.6
		c0.5,0.2,1,0.5,1.5,0.7c0.1,0,0.2,0.1,0.2,0.1c0,0,0,0,0.1,0c0,0,0,0,0,0c0.9,0.5,1.9,0.9,2.8,1.4c0.1,0.1,0.3,0.1,0.4,0.2
		c0.1,0,0.1,0,0.2,0.1c0.3,0.2,0.7,0.3,1,0.4c0.1,0,0.2,0.1,0.2,0.1c0.1,0,0.1,0.1,0.2,0.1c0.4,0.2,0.7,0.3,1.1,0.5
		c0.5,0.2,1,0.4,1.5,0.7c0,0,0,0,0.1,0c0.3,0.1,0.6,0.3,0.9,0.4c0.7,0.3,1.5,0.6,2.2,0.9c0.3,0.1,0.6,0.2,0.9,0.3
		c0.2,0.1,0.3,0.1,0.5,0.2c0,0,0,0,0,0c0,0,0.1,0,0.1,0c0.3,0.1,0.6,0.2,0.9,0.3c0.2,0.1,0.4,0.2,0.6,0.2c0.1,0,0.1,0,0.2,0.1
		c0.5,0.2,1,0.4,1.6,0.5c0.1,0,0.2,0.1,0.3,0.1c0.1,0,0.1,0,0.2,0.1c0.2,0.1,0.5,0.2,0.7,0.2c0,0,0,0,0,0c0.1,0,0.3,0.1,0.4,0.1
		c0.4,0.1,0.7,0.2,1.1,0.4c0,0,0,0,0,0c0.2,0.1,0.4,0.1,0.6,0.2c0,0,0.1,0,0.1,0c0.4,0.1,0.9,0.3,1.3,0.4c0.7,0.2,1.3,0.4,2,0.6
		c0.1,0,0.2,0,0.3,0.1c0,0,0,0,0,0c0.2,0,0.4,0.1,0.5,0.2c0.3,0.1,0.5,0.1,0.8,0.2c0.6,0.2,1.1,0.3,1.7,0.4c0,0,0,0,0,0
		c0.6,0.1,1.1,0.3,1.7,0.4c0.6,0.1,1.1,0.3,1.7,0.4c0.7,0.2,1.4,0.3,2.1,0.5c0.5,0.1,1.1,0.2,1.7,0.3c0.4,0.1,0.9,0.2,1.3,0.2
		c0.4,0.1,0.8,0.2,1.2,0.2c0.4,0.1,0.7,0.1,1.1,0.2c0.5,0.1,1.1,0.2,1.6,0.2c0.1,0,0.2,0,0.4,0c0.6,0.1,1.1,0.2,1.7,0.2
		c0.1,0,0.1,0,0.2,0c0.2,0,0.5,0.1,0.7,0.1c0.2,0,0.4,0.1,0.6,0.1c0.2,0,0.3,0,0.5,0.1c0.1,0,0.2,0,0.3,0c0.4,0,0.9,0.1,1.3,0.2
		c0.5,0.1,1,0.1,1.5,0.1c0.6,0.1,1.2,0.1,1.8,0.2h0c0.6,0.1,1.2,0.1,1.8,0.1c0.5,0,0.9,0.1,1.4,0.1c0.2,0,0.3,0,0.5,0
		c0.6,0,1.2,0.1,1.9,0.1c0.1,0,0.2,0,0.3,0c0.2,0,0.3,0,0.5,0c0.1,0,0.2,0,0.3,0c0.1,0,0.2,0,0.4,0c0.1,0,0.3,0,0.4,0
		c1.2,0,2.4,0.1,3.7,0.1c0.7,0,1.4,0,2.1,0s1.4,0,2.1,0c1.2,0,2.5-0.1,3.7-0.1c0.1,0,0.3,0,0.4,0c0.1,0,0.3,0,0.4,0
		c0.1,0,0.2,0,0.3,0c0.2,0,0.3,0,0.5,0c0.1,0,0.2,0,0.4,0c0.6,0,1.2-0.1,1.9-0.1c0.2,0,0.3,0,0.5,0c0.5,0,0.9-0.1,1.4-0.1
		c0.6,0,1.2-0.1,1.8-0.1c0.5,0,1-0.1,1.5-0.1c0.1,0,0.2,0,0.3,0c0.5,0,1-0.1,1.5-0.1c0.5,0,0.9-0.1,1.3-0.2c0.1,0,0.2,0,0.3,0
		c0.2,0,0.3,0,0.5-0.1c0.4,0,0.8-0.1,1.2-0.2c0.1,0,0.1,0,0.2,0c0.5-0.1,0.9-0.1,1.4-0.2c0.3,0,0.5-0.1,0.8-0.1
		c0.5-0.1,1-0.2,1.5-0.2h0c0,0,0,0,0,0c0.4-0.1,0.8-0.1,1.2-0.2c0.2,0,0.4-0.1,0.6-0.1c0.2,0,0.4-0.1,0.5-0.1
		c0.4-0.1,0.9-0.2,1.3-0.2c0.6-0.1,1.1-0.2,1.7-0.3c0.1,0,0.1,0,0.2,0c0.4-0.1,0.9-0.2,1.3-0.3c0.2,0,0.4-0.1,0.6-0.1
		c1.1-0.3,2.3-0.5,3.4-0.8c0,0,0,0,0,0c0.6-0.1,1.1-0.3,1.7-0.4c0.2,0,0.4-0.1,0.6-0.2c0.2-0.1,0.5-0.1,0.8-0.2
		c0.1,0,0.3-0.1,0.4-0.1c0.3-0.1,0.6-0.2,0.8-0.2c0.3-0.1,0.6-0.2,0.8-0.2c0.1,0,0.2,0,0.2-0.1c0.3-0.1,0.6-0.2,0.9-0.3
		c0.2-0.1,0.4-0.1,0.6-0.2c0.5-0.2,1.1-0.3,1.6-0.5c0,0,0,0,0.1,0c0.3-0.1,0.6-0.2,0.9-0.3c0.2-0.1,0.5-0.2,0.7-0.2
		c0.1,0,0.2-0.1,0.3-0.1c0.4-0.1,0.8-0.3,1.2-0.4c0,0,0.1,0,0.2-0.1c0.2-0.1,0.4-0.2,0.6-0.2c0.3-0.1,0.6-0.2,0.9-0.3
		c0.3-0.1,0.7-0.2,1-0.4c0.9-0.3,1.9-0.7,2.8-1.1c0.3-0.1,0.6-0.2,0.9-0.4c0,0,0,0,0.1,0c0.5-0.2,1-0.4,1.5-0.7
		c0.4-0.2,0.7-0.3,1.1-0.5c0.7-0.3,1.3-0.6,2-0.9c1-0.4,1.9-0.9,2.9-1.4c0,0,0.1,0,0.1,0c1-0.5,1.9-1,2.8-1.5
		c0.1-0.1,0.2-0.1,0.3-0.2c0.4-0.2,0.9-0.5,1.3-0.7c0.4-0.2,0.9-0.5,1.3-0.7c0,0,0.1,0,0.1-0.1c0.9-0.5,1.8-1,2.6-1.5
		c0.8-0.5,1.5-0.9,2.3-1.4c0.3-0.2,0.6-0.4,1-0.6c0.7-0.5,1.5-0.9,2.2-1.4c0.7-0.5,1.4-1,2.1-1.5c0.4-0.3,0.8-0.5,1.1-0.8
		c0.6-0.5,1.3-0.9,1.9-1.4c1.6-1.2,3.2-2.4,4.7-3.7c0.8-0.6,1.6-1.3,2.3-1.9c0,0,0.1,0,0.1-0.1c0.6-0.5,1.2-1,1.8-1.5
		c0.2-0.2,0.5-0.4,0.7-0.6c1.2-1.1,2.4-2.2,3.6-3.3c1.6-1.5,3.1-3,4.5-4.6c0,0,0.1-0.1,0.1-0.1c18.2-19.3,28.7-41.3,32.9-56.5
		C277.5,234.8,270.4,190.5,233,129.6z M193.3,245.5c-1.8,6.4-6.1,15.6-13.5,23.9c0,0,0,0.1-0.1,0.1l-4.6,4.6
		c-9.2,8.3-22.2,14.7-39.7,14.7c-36.9,0-53.8-28.8-57.8-43.3c-4.9-17.6-2.4-36.1,12-60.9c0.8-1.4,1.7-2.9,2.6-4.4
		c7-11.4,20.2-28.6,30.1-41.2c7-8.8,12.5-15.4,13.1-16.2c0.1,0,0.1-0.1,0.1-0.1s5.7,6.9,13.2,16.3c10,12.6,23.2,29.8,30.1,41.2
		c0.9,1.5,1.8,2.9,2.6,4.4C195.7,209.5,198.3,228,193.3,245.5z"/>
	<path opacity="0.3" fill="#D6D6D6" d="M233,129.6c-0.3-0.6-0.7-1.1-1-1.7c-0.1-0.2-0.2-0.3-0.3-0.4c0,0,0-0.1-0.1-0.1
		c-0.4-0.7-0.9-1.4-1.3-2.1c-0.5-0.7-1-1.5-1.4-2.2c-1-1.5-2-3.1-3.1-4.7c-0.4-0.7-0.9-1.3-1.3-2c-0.1-0.1-0.2-0.2-0.2-0.3
		c0,0,0,0,0,0c0,0,0,0,0,0c-0.2-0.3-0.4-0.6-0.6-0.8c-2-3-4.1-6-6.3-9.1c-0.1-0.2-0.3-0.4-0.4-0.6c-1.5-2.1-3-4.2-4.5-6.4
		c-2.7-3.8-5.5-7.6-8.3-11.5c-1.2-1.7-2.5-3.4-3.8-5.1c-2.8-3.7-5.5-7.4-8.4-11.1c-1.3-1.7-2.6-3.5-4-5.2c-0.7-1-1.5-1.9-2.2-2.9
		c-0.7-0.9-1.3-1.7-2-2.6c-1.4-1.8-2.7-3.5-4.1-5.2c-1.1-1.4-2.2-2.8-3.2-4.2c-0.9-1.2-1.8-2.4-2.8-3.5
		C162.9,58,149.3,71,135.5,84.6c-13,12.8-26.3,26.2-37.7,38.6c-7.1,7.6-13.5,14.8-18.7,21.2c-25.7,31.2-41.4,58.6-49.4,84.2
		c-6.7,21.3-8,41.5-5.3,61.7c1.5,11.4,5.8,26.8,13.7,42.8c0,0,0,0,0,0c0,0,0.1,0.1,0.1,0.1v0c0.3,0.3,0.6,0.7,1,1
		c0.3,0.3,0.5,0.5,0.8,0.8c0,0,0.1,0.1,0.1,0.1c0.5,0.5,1,1,1.5,1.5c1.6,1.6,3.3,3.2,5.1,4.8c1.5,1.3,3,2.6,4.6,3.9
		c0.7,0.5,1.3,1,2,1.6c0.1,0.1,0.2,0.2,0.3,0.3c0.8,0.6,1.7,1.3,2.5,1.9c0.6,0.5,1.2,0.9,1.9,1.4c0.1,0,0.1,0.1,0.2,0.2
		c0.2,0.2,0.5,0.3,0.8,0.5c0.1,0,0.1,0.1,0.2,0.1c0.7,0.5,1.3,0.9,2,1.4c0,0,0,0,0,0c0,0,0,0,0,0c0.4,0.2,0.8,0.5,1.2,0.8
		c0.1,0.1,0.2,0.1,0.3,0.2c0.4,0.3,0.8,0.5,1.2,0.8c0.1,0.1,0.2,0.1,0.3,0.2h0c0.5,0.3,1,0.6,1.5,0.9c0,0,0.1,0,0.1,0.1
		c0.5,0.3,0.9,0.6,1.4,0.8c0.2,0.1,0.3,0.2,0.5,0.3c0.2,0.1,0.4,0.2,0.5,0.3c0.2,0.1,0.3,0.2,0.5,0.3c0.2,0.1,0.3,0.2,0.5,0.3
		c0,0,0,0,0,0c0.3,0.2,0.5,0.3,0.8,0.5c0.3,0.2,0.6,0.3,0.9,0.5c0.4,0.2,0.8,0.4,1.1,0.6c0.4,0.2,0.8,0.4,1.2,0.6
		c0.5,0.2,1,0.5,1.5,0.7c0.1,0,0.2,0.1,0.2,0.1c0,0,0,0,0.1,0c0,0,0,0,0,0c0.9,0.5,1.9,0.9,2.8,1.4c0.1,0.1,0.3,0.1,0.4,0.2
		c0.1,0,0.1,0,0.2,0.1c0.3,0.2,0.7,0.3,1,0.4c0.1,0,0.2,0.1,0.2,0.1c0.1,0,0.1,0.1,0.2,0.1c0.4,0.2,0.7,0.3,1.1,0.5
		c0.5,0.2,1,0.4,1.5,0.7c0,0,0,0,0.1,0c0.3,0.1,0.6,0.3,0.9,0.4c0.7,0.3,1.5,0.6,2.2,0.9c0.3,0.1,0.6,0.2,0.9,0.3
		c0.2,0.1,0.4,0.2,0.6,0.2c0.3,0.1,0.6,0.2,0.9,0.3c0.2,0.1,0.4,0.2,0.6,0.2c0.1,0,0.1,0,0.2,0.1c0.5,0.2,1,0.4,1.6,0.5
		c0.1,0,0.2,0.1,0.3,0.1c0.1,0,0.1,0,0.2,0.1c0.2,0.1,0.5,0.2,0.7,0.2c0,0,0,0,0,0c0.1,0,0.3,0.1,0.4,0.1c0.4,0.1,0.7,0.2,1.1,0.4
		c0,0,0,0,0,0c0.2,0.1,0.4,0.1,0.6,0.2c0,0,0.1,0,0.1,0c0.4,0.1,0.9,0.3,1.3,0.4c0.7,0.2,1.3,0.4,2,0.6c0.1,0,0.2,0,0.3,0.1
		c0,0,0,0,0,0c0.2,0,0.4,0.1,0.5,0.2c0.3,0.1,0.5,0.1,0.8,0.2c0.6,0.2,1.1,0.3,1.7,0.4c0,0,0,0,0,0c0.6,0.1,1.1,0.3,1.7,0.4
		c0.6,0.1,1.1,0.3,1.7,0.4c0.7,0.2,1.4,0.3,2.1,0.5c0.5,0.1,1.1,0.2,1.7,0.3c0.4,0.1,0.9,0.2,1.3,0.2c0.4,0.1,0.8,0.2,1.2,0.2
		c0.4,0.1,0.7,0.1,1.1,0.2c0.5,0.1,1.1,0.2,1.6,0.2c0.1,0,0.2,0,0.4,0c0.6,0.1,1.1,0.2,1.7,0.2c0.1,0,0.1,0,0.2,0
		c0.2,0,0.5,0.1,0.7,0.1c0.2,0,0.4,0.1,0.6,0.1c0.2,0,0.3,0,0.5,0.1c0.1,0,0.2,0,0.3,0c0.4,0,0.9,0.1,1.3,0.2c0.5,0.1,1,0.1,1.5,0.1
		c0.6,0.1,1.2,0.1,1.8,0.2h0c0.6,0.1,1.2,0.1,1.8,0.1c0.5,0,0.9,0.1,1.4,0.1c0.2,0,0.3,0,0.5,0c0.6,0,1.2,0.1,1.9,0.1
		c0.1,0,0.2,0,0.3,0c0.2,0,0.3,0,0.5,0c0.1,0,0.2,0,0.3,0c0.1,0,0.2,0,0.3,0h0.1c0.1,0,0.3,0,0.4,0c1.2,0,2.4,0.1,3.7,0.1
		c0.7,0,1.4,0,2.1,0s1.4,0,2.1,0c1.2,0,2.5-0.1,3.7-0.1c0.1,0,0.3,0,0.4,0c0.1,0,0.3,0,0.4,0c0.1,0,0.2,0,0.3,0c0.2,0,0.3,0,0.5,0
		c0.1,0,0.2,0,0.4,0c0.6,0,1.2-0.1,1.9-0.1c0.2,0,0.3,0,0.5,0c0.5,0,0.9-0.1,1.4-0.1c0.6,0,1.2-0.1,1.8-0.1c0.5,0,1-0.1,1.5-0.1
		c0.1,0,0.2,0,0.3,0c0.5,0,1-0.1,1.5-0.1c0.5,0,0.9-0.1,1.3-0.2c0.1,0,0.2,0,0.3,0c0.2,0,0.3,0,0.5-0.1c0.4,0,0.8-0.1,1.2-0.2
		c0.1,0,0.1,0,0.2,0c0.5-0.1,0.9-0.1,1.4-0.2c0.3,0,0.5-0.1,0.8-0.1c0.5-0.1,1-0.2,1.5-0.2h0c0,0,0,0,0,0c0.4-0.1,0.8-0.1,1.2-0.2
		c0.2,0,0.4-0.1,0.6-0.1c0.2,0,0.4-0.1,0.5-0.1c0.4-0.1,0.9-0.2,1.3-0.2c0.6-0.1,1.1-0.2,1.7-0.3c0.1,0,0.1,0,0.2,0
		c0.4-0.1,0.9-0.2,1.3-0.3c0.2,0,0.4-0.1,0.6-0.1c1.1-0.3,2.3-0.5,3.4-0.8c0,0,0,0,0,0c0.6-0.1,1.1-0.3,1.7-0.4
		c0.2,0,0.4-0.1,0.6-0.2c0.2-0.1,0.5-0.1,0.8-0.2c0.1,0,0.3-0.1,0.4-0.1c0.3-0.1,0.6-0.2,0.8-0.2c0.3-0.1,0.6-0.2,0.8-0.2
		c0.1,0,0.2,0,0.2-0.1c0.3-0.1,0.6-0.2,0.9-0.3c0.2-0.1,0.4-0.1,0.6-0.2c0.5-0.2,1.1-0.3,1.6-0.5c0,0,0,0,0.1,0
		c0.3-0.1,0.6-0.2,0.9-0.3c0.2-0.1,0.5-0.2,0.7-0.2c0.1,0,0.2-0.1,0.3-0.1c0.4-0.1,0.8-0.3,1.2-0.4c0,0,0.1,0,0.2-0.1
		c0.2-0.1,0.4-0.2,0.6-0.2c0.3-0.1,0.6-0.2,0.9-0.3c0.3-0.1,0.7-0.2,1-0.4c0.9-0.3,1.9-0.7,2.8-1.1c0.3-0.1,0.6-0.2,0.9-0.4
		c0,0,0,0,0.1,0c0.5-0.2,1-0.4,1.5-0.7c0.4-0.2,0.7-0.3,1.1-0.5c0.7-0.3,1.3-0.6,2-0.9c1-0.4,1.9-0.9,2.9-1.4c0,0,0.1,0,0.1,0
		c1-0.5,1.9-1,2.8-1.5c0.1-0.1,0.2-0.1,0.3-0.2c0.4-0.2,0.9-0.5,1.3-0.7c0.4-0.2,0.9-0.5,1.3-0.7c0,0,0.1,0,0.1-0.1
		c0.9-0.5,1.8-1,2.6-1.5c0.8-0.5,1.5-0.9,2.3-1.4c0.3-0.2,0.6-0.4,1-0.6c0.7-0.5,1.5-0.9,2.2-1.4c0.7-0.5,1.4-1,2.1-1.5
		c0.4-0.3,0.8-0.5,1.1-0.8c0.6-0.5,1.3-0.9,1.9-1.4c1.6-1.2,3.2-2.4,4.7-3.7c0.8-0.6,1.6-1.3,2.3-1.9c0,0,0.1,0,0.1-0.1
		c0.6-0.5,1.2-1,1.8-1.5c0.2-0.2,0.5-0.4,0.7-0.6c1.2-1.1,2.4-2.2,3.6-3.3c1.6-1.5,3.1-3,4.5-4.6c0,0,0.1-0.1,0.1-0.1
		c18.2-19.3,28.7-41.3,32.9-56.5C277.5,234.8,270.4,190.5,233,129.6z M193.3,245.5c-1.8,6.4-6.1,15.6-13.5,23.9c0,0,0,0.1-0.1,0.1
		l-4.6,4.6c-9.2,8.3-22.2,14.7-39.7,14.7c-36.9,0-53.8-28.8-57.8-43.3c-4.9-17.6-2.4-36.1,12-60.9c0.8-1.4,1.7-2.9,2.6-4.4
		c7-11.4,20.2-28.6,30.1-41.2c7-8.8,12.5-15.4,13.1-16.2c0.1,0,0.1-0.1,0.1-0.1s5.7,6.9,13.2,16.3c10,12.6,23.2,29.8,30.1,41.2
		c0.9,1.5,1.8,2.9,2.6,4.4C195.7,209.5,198.3,228,193.3,245.5z"/>
	<path opacity="0.3" fill="#D6D6D6" d="M192,144.4c-5.3-6.4-11.7-13.6-18.7-21.2c-11.5-12.3-24.7-25.7-37.7-38.6
		C121.7,71,108.1,58,97.2,47.8c0,0.1-0.1,0.1-0.1,0.2c-1.2,1.6-2.5,3.1-3.7,4.8c-4.8,6.1-9.6,12.4-14.5,18.8l-4,5.2
		c0,0-0.1,0.1-0.1,0.1c-2,2.7-4,5.3-6,8c-0.7,0.9-1.3,1.8-2,2.7c-0.7,0.9-1.3,1.8-2,2.7c-1.3,1.8-2.7,3.6-4,5.4
		c-0.8,1.1-1.6,2.2-2.4,3.4c-1.5,2.2-3.1,4.3-4.5,6.4c-0.1,0.2-0.3,0.4-0.4,0.6c-1.8,2.6-3.5,5.1-5.2,7.6c-0.7,1.1-1.5,2.2-2.2,3.2
		c-0.3,0.5-0.7,1-1,1.5c-0.1,0.2-0.2,0.4-0.4,0.6c-2.5,3.7-4.8,7.3-6.8,10.7c-0.4,0.7-0.8,1.4-1.2,2c-0.8,1.4-1.6,2.7-2.4,4
		c-1.6,2.7-3.1,5.3-4.5,7.9c-1.8,3.3-3.6,6.5-5.2,9.6c-0.7,1.3-1.3,2.5-1.9,3.8s-1.2,2.5-1.8,3.7c-0.6,1.2-1.2,2.5-1.8,3.7
		c-0.6,1.2-1.1,2.4-1.7,3.6c-0.5,1.2-1.1,2.4-1.6,3.6c-0.3,0.6-0.5,1.2-0.8,1.8c-0.5,1.2-1,2.4-1.5,3.5c-0.5,1.2-0.9,2.4-1.4,3.5
		c-0.5,1.2-0.9,2.3-1.3,3.5c-0.4,1.1-0.8,2.3-1.2,3.4c-0.4,1.1-0.8,2.3-1.1,3.4c-0.2,0.6-0.4,1.1-0.5,1.7c-0.4,1.1-0.7,2.2-1,3.3
		c-0.5,1.7-1,3.3-1.4,5c-0.3,1.1-0.6,2.2-0.9,3.3c-0.3,1.1-0.5,2.2-0.8,3.2c-3.9,17.3-4.7,33.4-2.8,48.9c0.3,2.3,0.6,4.6,1,6.9v0
		c0.1,0.7,0.3,1.5,0.4,2.2c0.1,0.7,0.3,1.3,0.4,2c0,0.1,0,0.3,0.1,0.4c0.1,0.7,0.3,1.3,0.4,2c0.2,0.7,0.3,1.5,0.5,2.2
		c0.1,0.6,0.3,1.1,0.4,1.7c0.1,0.2,0.1,0.5,0.2,0.7c0.2,0.8,0.4,1.6,0.7,2.4c0.1,0.4,0.2,0.8,0.3,1.2c0.1,0.4,0.2,0.8,0.4,1.2
		c0.1,0.4,0.2,0.8,0.4,1.2c0.2,0.8,0.5,1.5,0.8,2.3c0,0.1,0.1,0.2,0.1,0.3c0.1,0.4,0.3,0.9,0.5,1.3c0.2,0.4,0.3,0.9,0.5,1.3
		c0.5,1.3,1,2.7,1.6,4.1c0,0,0,0,0,0.1c0,0.1,0,0.1,0.1,0.1c0,0.1,0.1,0.3,0.2,0.4c0.1,0.3,0.2,0.5,0.4,0.8c0.2,0.5,0.4,1,0.6,1.4
		c0,0.1,0.1,0.2,0.2,0.4c0.2,0.4,0.3,0.8,0.5,1.1c0.2,0.5,0.4,0.9,0.7,1.4c0.2,0.5,0.5,1,0.7,1.5c0.1,0.2,0.2,0.4,0.2,0.5
		c0.2,0.3,0.3,0.6,0.5,0.9c0,0,0,0,0,0c0.1,0.2,0.2,0.5,0.4,0.7c0.1,0.2,0.2,0.5,0.4,0.7c0.3,0.5,0.5,1,0.8,1.6
		c0.3,0.5,0.5,1,0.8,1.5c0.3,0.5,0.6,1,0.8,1.5c0.2,0.5,0.5,0.9,0.8,1.3c0.3,0.5,0.5,1,0.8,1.4c0.1,0.2,0.2,0.4,0.4,0.6
		c0.2,0.3,0.3,0.5,0.5,0.8c0.5,0.8,1,1.6,1.5,2.4c0.2,0.3,0.3,0.6,0.5,0.8c0.4,0.7,0.9,1.4,1.3,2c0.3,0.5,0.6,0.9,0.9,1.4
		c1.1,1.6,2.2,3.1,3.3,4.7c0.2,0.3,0.5,0.6,0.7,0.9c0.2,0.2,0.3,0.4,0.5,0.6c0.3,0.4,0.6,0.8,1,1.3c0.3,0.4,0.7,0.8,1,1.3
		c1.1,1.3,2.2,2.7,3.3,4c1.4,1.7,3,3.4,4.6,5.1c0,0,0.1,0.1,0.1,0.1v0c0.3,0.3,0.6,0.7,1,1c0.3,0.3,0.5,0.5,0.8,0.8
		c0,0,0.1,0.1,0.1,0.1c0.1,0.1,0.2,0.2,0.2,0.3c0.1,0.1,0.3,0.3,0.4,0.4c1.6,1.6,3.3,3.2,5,4.7c0.2,0.1,0.3,0.3,0.5,0.4
		c0.2,0.1,0.3,0.3,0.5,0.4c0,0,0,0.1,0.1,0.1c1.4,1.2,2.8,2.5,4.3,3.6c0.1,0.1,0.2,0.1,0.2,0.2c0.3,0.2,0.6,0.5,0.9,0.7
		c0.4,0.3,0.8,0.6,1.1,0.9c0.1,0.1,0.2,0.2,0.3,0.3c0.3,0.2,0.5,0.4,0.8,0.6c0.4,0.3,0.8,0.6,1.2,0.9c0.2,0.1,0.4,0.3,0.6,0.4
		c0.2,0.1,0.4,0.3,0.6,0.4c0.4,0.3,0.9,0.6,1.3,0.9c0.1,0,0.1,0.1,0.2,0.2c0.2,0.2,0.5,0.3,0.8,0.5c0.1,0,0.1,0.1,0.2,0.1
		c0.4,0.3,0.7,0.5,1.1,0.8c0.3,0.2,0.6,0.4,0.9,0.6c0,0,0,0,0,0c0,0,0,0,0,0c0.1,0.1,0.2,0.1,0.2,0.2c0.3,0.2,0.6,0.4,0.9,0.6
		c0.1,0.1,0.2,0.1,0.3,0.2c0.4,0.3,0.8,0.5,1.2,0.8c0.1,0.1,0.2,0.1,0.3,0.2h0c0.5,0.3,1,0.6,1.5,0.9c0,0,0.1,0,0.1,0.1
		c0.3,0.2,0.6,0.4,0.9,0.6c0.2,0.1,0.3,0.2,0.5,0.3c0.2,0.1,0.3,0.2,0.5,0.3c0.2,0.1,0.4,0.2,0.5,0.3c0.2,0.1,0.3,0.2,0.5,0.3
		c0.2,0.1,0.3,0.2,0.5,0.3c0,0,0,0,0,0c0.3,0.2,0.5,0.3,0.8,0.5c0.3,0.2,0.6,0.3,0.9,0.5c0.4,0.2,0.8,0.4,1.1,0.6c0,0,0.1,0,0.1,0
		c0.4,0.2,0.8,0.4,1.1,0.6c0.5,0.2,1,0.5,1.5,0.7c0.1,0,0.2,0.1,0.2,0.1c0,0,0,0,0.1,0c0,0,0,0,0,0c0.9,0.5,1.9,0.9,2.8,1.4
		c0.1,0.1,0.3,0.1,0.4,0.2c0.1,0,0.1,0,0.2,0.1c0.3,0.2,0.7,0.3,1,0.4c0.1,0,0.2,0.1,0.2,0.1c0.1,0,0.1,0.1,0.2,0.1
		c0.4,0.2,0.7,0.3,1.1,0.5c0.5,0.2,1,0.4,1.5,0.7c0,0,0,0,0.1,0c0.3,0.1,0.6,0.3,0.9,0.4c0.7,0.3,1.5,0.6,2.2,0.9
		c0.3,0.1,0.6,0.2,0.9,0.3c0.2,0.1,0.3,0.1,0.5,0.2c0,0,0,0,0,0c0,0,0.1,0,0.1,0c0.3,0.1,0.6,0.2,0.9,0.3c0.2,0.1,0.4,0.2,0.6,0.2
		c0.1,0,0.1,0,0.2,0.1c0.5,0.2,1,0.4,1.6,0.5c0.1,0,0.2,0.1,0.3,0.1c0.1,0,0.1,0,0.2,0.1c0.2,0.1,0.5,0.2,0.7,0.2c0,0,0,0,0,0
		c0.1,0,0.3,0.1,0.4,0.1c0.4,0.1,0.7,0.2,1.1,0.4c0,0,0,0,0,0c0.2,0.1,0.4,0.1,0.6,0.2c0,0,0.1,0,0.1,0c0.4,0.1,0.9,0.3,1.3,0.4
		c0.7,0.2,1.3,0.4,2,0.6c0.1,0,0.2,0,0.3,0.1c0,0,0,0,0,0c0.2,0,0.4,0.1,0.5,0.2c0.3,0.1,0.5,0.1,0.8,0.2c0.6,0.2,1.1,0.3,1.7,0.4
		c0,0,0,0,0,0c0.6,0.1,1.1,0.3,1.7,0.4c0.6,0.1,1.1,0.3,1.7,0.4c0.7,0.2,1.4,0.3,2.1,0.5c0.5,0.1,1.1,0.2,1.7,0.3
		c0.4,0.1,0.9,0.2,1.3,0.2c0.4,0.1,0.8,0.2,1.2,0.2c0.4,0.1,0.7,0.1,1.1,0.2c0.5,0.1,1.1,0.2,1.6,0.2c0.1,0,0.2,0,0.4,0
		c0.6,0.1,1.1,0.2,1.7,0.2c0.1,0,0.1,0,0.2,0c0.2,0,0.5,0.1,0.7,0.1c0.2,0,0.4,0.1,0.6,0.1c0.2,0,0.3,0,0.5,0.1c0.1,0,0.2,0,0.3,0
		c0.4,0,0.9,0.1,1.3,0.2c0.5,0.1,1,0.1,1.5,0.1c0.6,0.1,1.2,0.1,1.8,0.2h0c0.6,0.1,1.2,0.1,1.8,0.1c0.5,0,0.9,0.1,1.4,0.1
		c0.2,0,0.3,0,0.5,0c0.6,0,1.2,0.1,1.9,0.1c0.1,0,0.2,0,0.3,0c0.2,0,0.3,0,0.5,0c0.1,0,0.2,0,0.3,0c0.1,0,0.2,0,0.4,0
		c0.1,0,0.3,0,0.4,0c1.2,0,2.4,0.1,3.7,0.1c0.7,0,1.4,0,2.1,0s1.4,0,2.1,0c1.2,0,2.5-0.1,3.7-0.1c0.1,0,0.3,0,0.4,0h0.1
		c0.1,0,0.2,0,0.3,0c0.1,0,0.2,0,0.3,0c0.2,0,0.3,0,0.5,0c0.1,0,0.2,0,0.4,0c0.6,0,1.2-0.1,1.9-0.1c0.2,0,0.3,0,0.5,0
		c0.5,0,0.9-0.1,1.4-0.1c0.6,0,1.2-0.1,1.8-0.1c0.5,0,1-0.1,1.5-0.1c0.1,0,0.2,0,0.3,0c0.5,0,1-0.1,1.5-0.1c0.5,0,0.9-0.1,1.3-0.2
		c0.1,0,0.2,0,0.3,0c0.2,0,0.3,0,0.5-0.1c0.4,0,0.8-0.1,1.2-0.2c0.1,0,0.1,0,0.2,0c0.5-0.1,0.9-0.1,1.4-0.2c0.3,0,0.5-0.1,0.8-0.1
		c0.5-0.1,1-0.2,1.6-0.2c0,0,0,0,0,0c0.4-0.1,0.8-0.1,1.2-0.2c0.2,0,0.4-0.1,0.6-0.1c0.2,0,0.4-0.1,0.5-0.1c0.4-0.1,0.9-0.2,1.3-0.2
		c0.6-0.1,1.1-0.2,1.7-0.3c0.1,0,0.1,0,0.2,0c0.4-0.1,0.9-0.2,1.3-0.3c0.2,0,0.4-0.1,0.6-0.1c1.1-0.3,2.3-0.5,3.4-0.8c0,0,0,0,0,0
		c0.6-0.1,1.1-0.3,1.7-0.4c0.2,0,0.4-0.1,0.6-0.2c0.2-0.1,0.5-0.1,0.8-0.2c0.1,0,0.3-0.1,0.4-0.1c0.3-0.1,0.6-0.2,0.8-0.2
		c0.3-0.1,0.6-0.2,0.8-0.2c0.1,0,0.2,0,0.2-0.1c0.3-0.1,0.6-0.2,0.9-0.3c0.2-0.1,0.4-0.1,0.6-0.2c0.5-0.2,1.1-0.3,1.6-0.5
		c0,0,0,0,0.1,0c0.6-0.2,1.1-0.4,1.7-0.5c0.1,0,0.2-0.1,0.3-0.1c0.4-0.1,0.8-0.3,1.2-0.4c0,0,0.1,0,0.2-0.1c0.2-0.1,0.4-0.2,0.6-0.2
		c0.3-0.1,0.6-0.2,0.9-0.3c0.3-0.1,0.7-0.2,1-0.4c0.9-0.3,1.9-0.7,2.8-1.1c0.3-0.1,0.6-0.2,0.9-0.4c0,0,0,0,0.1,0
		c0.5-0.2,1-0.4,1.5-0.7c0.4-0.2,0.7-0.3,1.1-0.5c0.7-0.3,1.3-0.6,2-0.9c1-0.4,1.9-0.9,2.9-1.4c0,0,0.1,0,0.1,0c1-0.5,1.9-1,2.8-1.5
		c0.1-0.1,0.2-0.1,0.3-0.2c0.4-0.2,0.9-0.5,1.3-0.7c0.4-0.2,0.9-0.5,1.3-0.7c0,0,0.1,0,0.1-0.1c0.9-0.5,1.8-1,2.6-1.5
		c0.8-0.5,1.5-0.9,2.3-1.4c0.3-0.2,0.6-0.4,1-0.6c0.7-0.5,1.5-0.9,2.2-1.4c0.7-0.5,1.4-1,2.1-1.5c0.4-0.3,0.8-0.5,1.1-0.8
		c0.6-0.5,1.3-0.9,1.9-1.4c1.6-1.2,3.2-2.4,4.7-3.7c0.8-0.6,1.6-1.3,2.3-1.9c0,0,0.1,0,0.1-0.1c0.6-0.5,1.2-1,1.8-1.5
		c0.2-0.2,0.5-0.4,0.7-0.6c1.2-1.1,2.4-2.2,3.6-3.3c1.6-1.5,3.1-3,4.5-4.6v0c0,0,0.1-0.1,0.1-0.1c8-16,12.2-31.4,13.7-42.8
		C252.6,245.8,239,201.5,192,144.4z M193.3,245.5c-1.8,6.4-6.1,15.6-13.5,23.9c0,0,0,0.1-0.1,0.1l-4.6,4.6
		c-9.2,8.3-22.2,14.7-39.7,14.7c-36.9,0-53.8-28.8-57.8-43.3c-4.9-17.6-2.4-36.1,12-60.9c0.8-1.4,1.7-2.9,2.6-4.4
		c7-11.4,20.2-28.6,30.1-41.2c7-8.8,12.5-15.4,13.1-16.2c0.1,0,0.1-0.1,0.1-0.1s5.7,6.9,13.2,16.3c10,12.6,23.2,29.8,30.1,41.2
		c0.9,1.5,1.8,2.9,2.6,4.4C195.7,209.5,198.3,228,193.3,245.5z"/>
	<path opacity="0.2" fill="#D6D6D6" d="M233,129.6c-0.3-0.6-0.7-1.1-1-1.7c-0.1-0.2-0.2-0.3-0.3-0.4c0,0,0-0.1-0.1-0.1
		c-0.4-0.7-0.9-1.4-1.3-2.1c-0.5-0.7-1-1.5-1.4-2.2c-1-1.5-2-3.1-3.1-4.7c-0.4-0.7-0.9-1.3-1.3-2c-0.1-0.1-0.2-0.2-0.2-0.3
		c0,0,0,0,0,0c0,0,0,0,0,0c-0.2-0.3-0.4-0.6-0.6-0.8c-2-3-4.1-6-6.3-9.1c-0.1-0.2-0.3-0.4-0.4-0.6c-1.5-2.1-3-4.2-4.5-6.4
		c-12.1,7.2-25.7,15.6-39.3,24.1c-8.4,5.3-16.7,10.6-24.6,15.8c10,12.6,23.2,29.8,30.1,41.2c0.9,1.5,1.8,2.9,2.6,4.4
		c14.3,24.8,16.9,43.4,11.9,60.9c-1.8,6.4-6.1,15.6-13.5,23.9c0,0,0,0.1-0.1,0.1l-4.6,4.6c-9.2,8.3-22.2,14.7-39.7,14.7
		c-36.9,0-53.8-28.8-57.8-43.3c-4.9-17.6-2.4-36.1,12-60.9c-37,34.9-52.7,67.6-55.8,103.3c-1,11.6-0.2,27.8,4.4,45.3c0,0,0,0,0,0v0
		c0.3,0.3,0.6,0.7,1,1c0.3,0.3,0.5,0.5,0.8,0.8c0,0,0.1,0.1,0.1,0.1c0.5,0.5,1,1,1.5,1.5c1.6,1.6,3.3,3.2,5.1,4.8
		c1.5,1.3,3,2.6,4.6,3.9c0.7,0.5,1.3,1,2,1.6c0.1,0.1,0.2,0.2,0.3,0.3c0.8,0.6,1.7,1.3,2.5,1.9c0.6,0.5,1.2,0.9,1.9,1.4
		c0.1,0,0.1,0.1,0.2,0.2c0.2,0.2,0.5,0.3,0.8,0.5c0.1,0,0.1,0.1,0.2,0.1c0.7,0.5,1.3,0.9,2,1.4c0,0,0,0,0,0c0,0,0,0,0,0
		c0.4,0.2,0.8,0.5,1.2,0.8c0.1,0.1,0.2,0.1,0.3,0.2c0.4,0.3,0.8,0.5,1.2,0.8c0.1,0.1,0.2,0.1,0.3,0.2h0c0.5,0.3,1,0.6,1.5,0.9
		c0,0,0.1,0,0.1,0.1c0.5,0.3,0.9,0.6,1.4,0.8c0.2,0.1,0.3,0.2,0.5,0.3c0.2,0.1,0.4,0.2,0.5,0.3c0.2,0.1,0.3,0.2,0.5,0.3
		c0.2,0.1,0.4,0.2,0.6,0.3c0.3,0.2,0.5,0.3,0.8,0.5c0.3,0.2,0.6,0.3,0.9,0.5c0.4,0.2,0.8,0.4,1.1,0.6c0,0,0.1,0,0.1,0
		c0.4,0.2,0.8,0.4,1.1,0.6c0.5,0.2,1,0.5,1.5,0.7c0.1,0,0.2,0.1,0.2,0.1c0,0,0,0,0.1,0c0,0,0,0,0,0c0.9,0.5,1.9,0.9,2.8,1.4
		c0.1,0.1,0.3,0.1,0.4,0.2c0.1,0,0.1,0,0.2,0.1c0.3,0.2,0.7,0.3,1,0.4c0.1,0,0.2,0.1,0.2,0.1c0.1,0,0.1,0.1,0.2,0.1
		c0.4,0.2,0.7,0.3,1.1,0.5c0.5,0.2,1,0.4,1.5,0.7c0,0,0,0,0.1,0c0.3,0.1,0.6,0.3,0.9,0.4c0.7,0.3,1.5,0.6,2.2,0.9
		c0.3,0.1,0.6,0.2,0.9,0.3c0.2,0.1,0.4,0.2,0.6,0.2c0.3,0.1,0.6,0.2,0.9,0.3c0.2,0.1,0.4,0.2,0.6,0.2c0.1,0,0.1,0,0.2,0.1
		c0.5,0.2,1,0.4,1.6,0.5c0,0,0.1,0,0.1,0c0.1,0,0.3,0.1,0.4,0.1c0.2,0.1,0.5,0.2,0.7,0.2c0,0,0,0,0,0c0.1,0,0.3,0.1,0.4,0.1
		c0.4,0.1,0.7,0.2,1.1,0.4c0,0,0,0,0,0c0.2,0.1,0.4,0.1,0.6,0.2c0,0,0.1,0,0.1,0c0.4,0.1,0.9,0.3,1.3,0.4c0.7,0.2,1.3,0.4,2,0.6
		c0.1,0,0.2,0,0.3,0.1c0,0,0,0,0,0c0.2,0,0.4,0.1,0.5,0.2c0.3,0.1,0.5,0.1,0.8,0.2c0.6,0.2,1.1,0.3,1.7,0.4c0,0,0,0,0,0
		c0.6,0.1,1.1,0.3,1.7,0.4c0.6,0.1,1.1,0.3,1.7,0.4c0.7,0.2,1.4,0.3,2.1,0.5c0.5,0.1,1.1,0.2,1.7,0.3c0.4,0.1,0.9,0.2,1.3,0.2
		c0.4,0.1,0.8,0.2,1.2,0.2c0.4,0.1,0.7,0.1,1.1,0.2c0.5,0.1,1.1,0.2,1.6,0.2c0.1,0,0.2,0,0.4,0c0.6,0.1,1.1,0.2,1.7,0.2
		c0.1,0,0.1,0,0.2,0c0.2,0,0.5,0.1,0.7,0.1c0.2,0,0.4,0.1,0.6,0.1c0.2,0,0.3,0,0.5,0.1c0.1,0,0.2,0,0.3,0c0.4,0,0.9,0.1,1.3,0.2
		c0.5,0.1,1,0.1,1.5,0.1c0.6,0.1,1.2,0.1,1.8,0.2h0c0.6,0.1,1.2,0.1,1.8,0.1c0.5,0,0.9,0.1,1.4,0.1c0.2,0,0.3,0,0.5,0
		c0.6,0,1.2,0.1,1.9,0.1c0.3,0,0.6,0,0.9,0c0.1,0,0.2,0,0.3,0c0.1,0,0.2,0,0.3,0h0.1c0.1,0,0.3,0,0.4,0c1.2,0,2.4,0.1,3.7,0.1
		c0.7,0,1.4,0,2.1,0s1.4,0,2.1,0c1.2,0,2.5-0.1,3.7-0.1c0.1,0,0.3,0,0.4,0c0.1,0,0.3,0,0.4,0c0.1,0,0.2,0,0.3,0c0.2,0,0.3,0,0.5,0
		c0.1,0,0.2,0,0.4,0c0.6,0,1.2-0.1,1.9-0.1c0.2,0,0.3,0,0.5,0c0.5,0,0.9-0.1,1.4-0.1c0.6,0,1.2-0.1,1.8-0.1c0.5,0,1-0.1,1.5-0.1
		c0.1,0,0.2,0,0.3,0c0.5,0,1-0.1,1.5-0.1c0.5,0,0.9-0.1,1.3-0.2c0.1,0,0.2,0,0.3,0c0.2,0,0.3,0,0.5-0.1c0.4,0,0.8-0.1,1.2-0.2
		c0.1,0,0.1,0,0.2,0c0.5-0.1,0.9-0.1,1.4-0.2c0.3,0,0.5-0.1,0.8-0.1c0.5-0.1,1-0.2,1.5-0.2h0c0,0,0,0,0,0c0.4-0.1,0.8-0.1,1.2-0.2
		c0.2,0,0.4-0.1,0.6-0.1c0.2,0,0.4-0.1,0.5-0.1c0.4-0.1,0.9-0.2,1.3-0.2c0.6-0.1,1.1-0.2,1.7-0.3c0.1,0,0.1,0,0.2,0
		c0.4-0.1,0.9-0.2,1.3-0.3c0.2,0,0.4-0.1,0.6-0.1c1.1-0.3,2.3-0.5,3.4-0.8c0,0,0,0,0,0c0.6-0.1,1.1-0.3,1.7-0.4
		c0.2,0,0.4-0.1,0.6-0.2c0.2-0.1,0.5-0.1,0.8-0.2c0.1,0,0.3-0.1,0.4-0.1c0.3-0.1,0.6-0.2,0.8-0.2c0.3-0.1,0.6-0.2,0.8-0.2
		c0.1,0,0.2,0,0.2-0.1c0.3-0.1,0.6-0.2,0.9-0.3c0.2-0.1,0.4-0.1,0.6-0.2c0.5-0.2,1.1-0.3,1.6-0.5c0,0,0,0,0.1,0
		c0.3-0.1,0.6-0.2,0.9-0.3c0.2-0.1,0.5-0.2,0.7-0.2c0.1,0,0.2-0.1,0.3-0.1c0.4-0.1,0.8-0.3,1.2-0.4c0,0,0.1,0,0.2-0.1
		c0.2-0.1,0.4-0.2,0.6-0.2c0.3-0.1,0.6-0.2,0.9-0.3c0.3-0.1,0.7-0.2,1-0.4c0.9-0.3,1.9-0.7,2.8-1.1c0.3-0.1,0.6-0.2,0.9-0.4
		c0,0,0,0,0.1,0c0.5-0.2,1-0.4,1.5-0.7c0.4-0.2,0.7-0.3,1.1-0.5c0.7-0.3,1.3-0.6,2-0.9c1-0.4,1.9-0.9,2.9-1.4c0,0,0.1,0,0.1,0
		c1-0.5,1.9-1,2.8-1.5c0.1-0.1,0.2-0.1,0.3-0.2c0.4-0.2,0.9-0.5,1.3-0.7c0.4-0.2,0.9-0.5,1.3-0.7c0,0,0.1,0,0.1-0.1
		c0.9-0.5,1.8-1,2.6-1.5c0.8-0.5,1.5-0.9,2.3-1.4c0.3-0.2,0.6-0.4,1-0.6c0.7-0.5,1.5-0.9,2.2-1.4c0.7-0.5,1.4-1,2.1-1.5
		c0.4-0.3,0.8-0.5,1.1-0.8c0.6-0.5,1.3-0.9,1.9-1.4c1.6-1.2,3.2-2.4,4.7-3.7c0.8-0.6,1.6-1.3,2.3-1.9c0,0,0.1,0,0.1-0.1
		c0.6-0.5,1.2-1,1.8-1.5c0.2-0.2,0.5-0.4,0.7-0.6c1.2-1.1,2.4-2.2,3.6-3.3c1.6-1.5,3.1-3,4.5-4.6c0,0,0.1-0.1,0.1-0.1
		c18.2-19.3,28.7-41.3,32.9-56.5C277.5,234.8,270.4,190.5,233,129.6z"/>
	<path opacity="0.2" fill="#D6D6D6" d="M232.8,333.2L232.8,333.2c-1.5,1.6-3,3.1-4.5,4.6c-1.2,1.1-2.3,2.2-3.6,3.3
		c-0.2,0.2-0.5,0.4-0.7,0.6c-0.6,0.5-1.2,1-1.8,1.5c0,0-0.1,0-0.1,0.1c-0.8,0.7-1.5,1.3-2.3,1.9c-1.5,1.2-3.1,2.5-4.7,3.7
		c-0.6,0.5-1.2,0.9-1.9,1.4c-0.4,0.3-0.8,0.5-1.1,0.8c-0.7,0.5-1.4,1-2.1,1.5c-0.7,0.5-1.4,1-2.2,1.4c-0.3,0.2-0.6,0.4-1,0.6
		c-0.8,0.5-1.5,1-2.3,1.4c-0.9,0.5-1.7,1-2.6,1.5c0,0-0.1,0-0.1,0.1c-0.9,0.5-1.7,0.9-2.6,1.4c-0.1,0.1-0.2,0.1-0.3,0.2
		c-0.9,0.5-1.9,1-2.8,1.5c0,0-0.1,0-0.1,0c-0.9,0.5-1.9,0.9-2.9,1.4c-0.7,0.3-1.3,0.6-2,0.9c-0.4,0.2-0.7,0.3-1.1,0.5
		c-0.5,0.2-1,0.4-1.5,0.7c0,0-0.1,0-0.1,0c-0.3,0.1-0.6,0.3-0.9,0.4c-0.9,0.4-1.9,0.7-2.8,1.1c-0.3,0.1-0.6,0.2-1,0.4
		c-0.3,0.1-0.6,0.2-0.9,0.3c-0.2,0.1-0.4,0.2-0.6,0.2c-0.1,0-0.1,0-0.2,0.1c-0.4,0.1-0.8,0.3-1.2,0.4c-0.1,0-0.2,0.1-0.3,0.1
		c-0.2,0.1-0.5,0.2-0.7,0.2c-0.3,0.1-0.6,0.2-0.9,0.3c0,0,0,0-0.1,0c-0.5,0.2-1.1,0.3-1.6,0.5c-0.2,0.1-0.4,0.1-0.6,0.2
		c-0.3,0.1-0.6,0.2-0.9,0.3c-0.1,0-0.2,0-0.2,0.1c-0.3,0.1-0.6,0.2-0.8,0.2c-0.3,0.1-0.5,0.2-0.8,0.2c-0.1,0-0.3,0.1-0.4,0.1
		c-0.3,0.1-0.5,0.1-0.8,0.2c-0.2,0-0.4,0.1-0.6,0.2c-0.6,0.2-1.1,0.3-1.7,0.4c0,0,0,0,0,0c-1.1,0.3-2.3,0.5-3.4,0.8
		c-0.2,0-0.4,0.1-0.6,0.1c-0.4,0.1-0.9,0.2-1.3,0.3c-0.1,0-0.1,0-0.2,0c-0.6,0.1-1.1,0.2-1.7,0.3c-0.4,0.1-0.9,0.2-1.3,0.2
		c-0.2,0-0.4,0.1-0.5,0.1c-0.2,0-0.4,0.1-0.6,0.1c-0.4,0.1-0.8,0.1-1.2,0.2c0,0,0,0,0,0h0c-0.5,0.1-1,0.2-1.5,0.2
		c-0.3,0-0.5,0.1-0.8,0.1c-0.5,0.1-0.9,0.1-1.4,0.2c-0.1,0-0.1,0-0.2,0c-0.4,0-0.8,0.1-1.2,0.2c-0.2,0-0.3,0-0.5,0.1
		c-0.1,0-0.2,0-0.3,0c-0.4,0-0.9,0.1-1.3,0.2c-0.5,0.1-1,0.1-1.5,0.1c-0.1,0-0.2,0-0.3,0c-0.5,0-1,0.1-1.5,0.1
		c-0.6,0.1-1.2,0.1-1.8,0.1c-0.5,0-0.9,0.1-1.4,0.1c-0.1,0-0.3,0-0.5,0c-0.6,0-1.2,0.1-1.9,0.1c-0.3,0-0.6,0-0.9,0
		c-0.1,0-0.2,0-0.3,0c-0.1,0-0.2,0-0.3,0h-0.1c-0.1,0-0.3,0-0.4,0c-1.2,0-2.5,0.1-3.7,0.1c-0.7,0-1.4,0-2.1,0s-1.4,0-2.1,0
		c-1.2,0-2.5-0.1-3.7-0.1c-0.1,0-0.3,0-0.4,0c-0.1,0-0.3,0-0.4,0c-0.1,0-0.2,0-0.3,0c-0.2,0-0.3,0-0.5,0c-0.1,0-0.2,0-0.3,0
		c-0.6,0-1.2-0.1-1.9-0.1c-0.2,0-0.3,0-0.5,0c-0.5,0-0.9-0.1-1.4-0.1c-0.6,0-1.2-0.1-1.8-0.1h0c-0.6-0.1-1.2-0.1-1.8-0.2
		c-0.5,0-1-0.1-1.5-0.1c-0.4,0-0.9-0.1-1.3-0.2c-0.1,0-0.2,0-0.3,0c-0.2,0-0.3,0-0.5-0.1c-0.2,0-0.4,0-0.6-0.1
		c-0.2,0-0.5-0.1-0.7-0.1c-0.1,0-0.1,0-0.2,0c-0.6-0.1-1.1-0.2-1.7-0.2c-0.1,0-0.2,0-0.4,0c-0.5-0.1-1.1-0.2-1.6-0.2
		c-0.4-0.1-0.7-0.1-1.1-0.2c-0.4-0.1-0.8-0.1-1.2-0.2c-0.4-0.1-0.9-0.2-1.3-0.2c-0.6-0.1-1.1-0.2-1.7-0.3c-0.7-0.1-1.4-0.3-2.1-0.5
		c-0.6-0.1-1.1-0.2-1.7-0.4c-0.6-0.1-1.1-0.3-1.7-0.4c0,0,0,0,0,0c-0.6-0.1-1.1-0.3-1.7-0.4c-0.3-0.1-0.6-0.1-0.8-0.2
		c-0.2-0.1-0.4-0.1-0.5-0.2c0,0,0,0,0,0c-0.1,0-0.2,0-0.3-0.1c-0.7-0.2-1.3-0.4-2-0.6c-0.5-0.1-0.9-0.3-1.3-0.4c-0.1,0-0.1,0-0.1,0
		c-0.2,0-0.4-0.1-0.6-0.2c0,0,0,0,0,0c-0.4-0.1-0.7-0.2-1.1-0.4c-0.1,0-0.3-0.1-0.4-0.1c0,0,0,0,0,0c-0.2-0.1-0.5-0.2-0.7-0.2
		c0,0-0.1,0-0.2-0.1c-0.1,0-0.2,0-0.2-0.1c0,0,0,0-0.1,0c-0.5-0.2-1-0.3-1.6-0.5c-0.1,0-0.1,0-0.2-0.1c-0.2-0.1-0.4-0.2-0.6-0.2
		c-0.3-0.1-0.6-0.2-0.9-0.3c0,0-0.1,0-0.1,0c0,0,0,0,0,0c-0.2-0.1-0.4-0.1-0.5-0.2c-0.3-0.1-0.6-0.2-0.9-0.3
		c-0.8-0.3-1.5-0.6-2.2-0.9c-0.3-0.1-0.6-0.2-0.9-0.4c0,0,0,0-0.1,0c-0.5-0.2-1-0.4-1.5-0.7c-0.4-0.2-0.7-0.3-1.1-0.5
		c-0.1,0-0.1-0.1-0.2-0.1c-0.1,0-0.2-0.1-0.2-0.1c-0.3-0.1-0.7-0.3-1-0.4c-0.1,0-0.1,0-0.2-0.1c-0.1,0-0.3-0.1-0.4-0.2
		c-1-0.4-1.9-0.9-2.8-1.4c0,0,0,0,0,0c0,0,0,0-0.1,0c-0.1,0-0.2-0.1-0.2-0.1c-0.5-0.2-1-0.5-1.5-0.7c-0.4-0.2-0.8-0.4-1.1-0.6
		c0,0,0,0-0.1,0c-0.4-0.2-0.8-0.4-1.1-0.6c-0.3-0.2-0.6-0.3-0.9-0.5c-0.3-0.1-0.5-0.3-0.8-0.5c0,0,0,0,0,0c-0.2-0.1-0.3-0.2-0.5-0.3
		c-0.2-0.1-0.4-0.2-0.5-0.3c-0.2-0.1-0.4-0.2-0.5-0.3c-0.2-0.1-0.3-0.2-0.5-0.3c-0.2-0.1-0.3-0.2-0.5-0.3c-0.3-0.2-0.6-0.4-0.9-0.6
		c0,0-0.1,0-0.1-0.1c-0.5-0.3-1-0.6-1.5-0.9h0c-0.1-0.1-0.2-0.1-0.3-0.2c-0.4-0.2-0.8-0.5-1.2-0.8c-0.1-0.1-0.2-0.1-0.3-0.2
		c-0.3-0.2-0.6-0.4-0.9-0.6c-0.1-0.1-0.2-0.1-0.3-0.2c0,0,0,0,0,0c-0.3-0.2-0.6-0.4-0.9-0.6c-0.4-0.2-0.7-0.5-1.1-0.8
		c0,0-0.1-0.1-0.2-0.1c-0.2-0.2-0.5-0.3-0.8-0.5c-0.1-0.1-0.2-0.1-0.2-0.2c-0.4-0.3-0.9-0.6-1.3-0.9c-0.4-0.3-0.8-0.6-1.2-0.9
		c-0.4-0.3-0.8-0.6-1.2-0.9c-0.2-0.2-0.5-0.4-0.8-0.6c-0.1-0.1-0.2-0.2-0.3-0.3c-0.4-0.3-0.8-0.6-1.1-0.9c-0.4-0.3-0.7-0.6-1.1-0.9
		c-1.5-1.2-2.9-2.4-4.3-3.6c-0.2-0.2-0.4-0.3-0.5-0.5c-0.2-0.1-0.3-0.3-0.5-0.4c-1.7-1.5-3.4-3.1-5-4.7c-0.1-0.1-0.3-0.3-0.4-0.4
		c-0.1-0.1-0.2-0.2-0.3-0.4c-0.3-0.3-0.5-0.5-0.8-0.8c-0.3-0.3-0.7-0.7-1-1v0c0,0-0.1-0.1-0.1-0.1c-1.7-1.8-3.2-3.5-4.6-5.1
		c-1.1-1.3-2.2-2.7-3.3-4c-0.3-0.4-0.7-0.8-1-1.3c-0.5-0.6-1-1.2-1.4-1.9c-0.2-0.3-0.5-0.6-0.7-0.9c-1.2-1.6-2.3-3.1-3.3-4.7
		c-0.3-0.5-0.6-0.9-0.9-1.4c-0.5-0.7-0.9-1.4-1.3-2c-0.2-0.3-0.4-0.6-0.5-0.8c-0.5-0.8-1-1.6-1.5-2.4c-0.2-0.3-0.4-0.5-0.5-0.8
		c-0.1-0.2-0.2-0.4-0.4-0.6c-0.3-0.5-0.5-0.9-0.8-1.4c-0.2-0.4-0.5-0.9-0.8-1.3c-0.3-0.5-0.6-1-0.8-1.5c-0.3-0.5-0.5-1-0.8-1.5
		c-0.3-0.5-0.6-1-0.8-1.6c-0.1-0.2-0.2-0.5-0.4-0.7c-0.1-0.2-0.2-0.5-0.4-0.7c0,0,0,0,0,0c-0.2-0.3-0.3-0.6-0.5-0.9
		c-0.1-0.2-0.2-0.3-0.2-0.5c-0.2-0.5-0.5-1-0.7-1.5c-0.2-0.5-0.4-0.9-0.7-1.4c-0.2-0.4-0.4-0.8-0.5-1.1c-0.3-0.6-0.5-1.2-0.8-1.8
		c-0.1-0.3-0.2-0.5-0.4-0.8c-0.1-0.1-0.1-0.3-0.2-0.4c0,0,0-0.1-0.1-0.1c0,0,0,0,0-0.1c-0.6-1.4-1.1-2.8-1.6-4.1
		c-0.2-0.4-0.3-0.9-0.5-1.3c-0.2-0.4-0.3-0.9-0.5-1.3c0-0.1-0.1-0.2-0.1-0.3c-0.3-0.8-0.5-1.6-0.8-2.3c-0.1-0.4-0.3-0.8-0.4-1.2
		c-0.1-0.4-0.2-0.8-0.4-1.2c-0.1-0.4-0.2-0.8-0.4-1.2c-0.2-0.8-0.4-1.6-0.6-2.4c-0.1-0.2-0.1-0.5-0.2-0.7c-0.2-0.6-0.3-1.1-0.4-1.7
		c-0.2-0.7-0.3-1.4-0.5-2.2c-0.2-0.6-0.3-1.3-0.4-2c0-0.1-0.1-0.3-0.1-0.4c-0.1-0.7-0.3-1.3-0.4-2c-0.1-0.7-0.3-1.5-0.4-2.2v0
		c-0.4-2.3-0.8-4.6-1-6.9c-1.9-15.5-1.2-31.5,2.8-48.9c0.2-1.1,0.5-2.2,0.8-3.2c0.3-1.1,0.5-2.2,0.9-3.3c0.4-1.7,0.9-3.3,1.4-5
		c0.3-1.1,0.7-2.2,1-3.3c0.2-0.6,0.4-1.1,0.5-1.7c0.4-1.1,0.8-2.3,1.1-3.4c0.4-1.1,0.8-2.3,1.2-3.4c0.4-1.2,0.9-2.3,1.3-3.5
		c0.4-1.2,0.9-2.3,1.4-3.5c0.5-1.2,1-2.4,1.5-3.5c0.2-0.6,0.5-1.2,0.8-1.8c0.5-1.2,1-2.4,1.6-3.6c0.5-1.2,1.1-2.4,1.7-3.6
		c0.6-1.2,1.2-2.5,1.8-3.7c0.6-1.2,1.2-2.5,1.8-3.7s1.3-2.5,1.9-3.8c1.6-3.2,3.4-6.4,5.2-9.6c1.5-2.6,3-5.2,4.5-7.9
		c0.8-1.3,1.6-2.7,2.4-4c0.4-0.7,0.8-1.3,1.2-2c2.1-3.4,4.3-6.9,6.8-10.7c0.1-0.2,0.3-0.4,0.4-0.6c0.3-0.5,0.7-1,1-1.5
		c0.7-1.1,1.5-2.2,2.2-3.2c1.7-2.5,3.4-5,5.2-7.6c0.1-0.2,0.3-0.4,0.4-0.6c1.5-2.1,3-4.2,4.5-6.4c12.1,7.2,25.7,15.6,39.3,24.1
		c7.7,4.8,15.3,9.8,22.7,14.6c0.6,0.4,1.3,0.8,1.9,1.2c-10,12.6-23.2,29.8-30.1,41.2c-0.9,1.5-1.8,2.9-2.6,4.4
		c-14.3,24.8-16.9,43.4-12,60.9c4.1,14.6,21,43.3,57.8,43.3c17.4,0,30.4-6.4,39.7-14.7l4.6-4.6c0,0,0.1-0.1,0.1-0.1
		c7.4-8.3,11.7-17.5,13.5-23.9c4.9-17.5,2.4-36.1-11.9-60.9c37,34.9,52.6,67.6,55.8,103.3C238.2,299.5,237.4,315.7,232.8,333.2z"/>
	<path opacity="0.4" fill="#D6D6D6" d="M175.2,274.1l-90.7,90.7c-17.3-6.9-31.5-17-43-28.2c-1.1-1.1-2.3-2.3-3.3-3.4
		c0,0-0.1-0.1-0.1-0.1c-3.6-3.8-6.9-7.7-9.9-11.6c-1.6-2.1-3.1-4.2-4.5-6.2c-0.3-0.5-0.6-0.9-0.9-1.4c-0.6-1-1.3-1.9-1.9-2.9
		c-0.5-0.8-1-1.6-1.5-2.4c-0.3-0.5-0.6-1-0.9-1.4c-0.3-0.5-0.5-0.9-0.8-1.4c-0.2-0.4-0.5-0.9-0.8-1.3c-0.3-0.5-0.6-1-0.8-1.5
		c-0.3-0.5-0.5-1-0.8-1.5c-0.4-0.8-0.8-1.5-1.2-2.3c-0.1-0.2-0.2-0.5-0.4-0.7c0,0,0,0,0,0c-0.2-0.3-0.3-0.6-0.5-0.9
		c-0.1-0.2-0.2-0.3-0.2-0.5c-0.2-0.5-0.5-1-0.7-1.5c-0.5-1-0.9-1.9-1.3-2.9c-0.2-0.5-0.4-1-0.6-1.4c-0.2-0.4-0.3-0.8-0.5-1.2
		c0,0,0-0.1-0.1-0.1c0,0,0,0,0-0.1c-0.6-1.4-1.1-2.8-1.6-4.1c-0.2-0.4-0.3-0.9-0.5-1.3c-0.2-0.4-0.3-0.9-0.5-1.3
		c0-0.1-0.1-0.2-0.1-0.3c-0.3-0.8-0.5-1.6-0.8-2.3c-0.1-0.4-0.3-0.8-0.4-1.2c-0.1-0.4-0.2-0.8-0.4-1.2c-0.1-0.4-0.2-0.8-0.3-1.2
		c-0.2-0.8-0.4-1.6-0.7-2.4c-0.1-0.2-0.1-0.5-0.2-0.7c-0.2-0.6-0.3-1.1-0.4-1.7c-1.2-4.9-2.1-9.8-2.7-14.8l28.4-28.4l90.8-90.8
		l15-15c-0.6,0.8-6.1,7.4-13.1,16.2c-10,12.6-23.2,29.8-30.1,41.2c-0.9,1.5-1.8,2.9-2.6,4.4c-14.3,24.8-16.9,43.4-12,60.9
		c4.1,14.6,21,43.3,57.8,43.3C152.9,288.8,165.9,282.4,175.2,274.1z"/>
</g>
</svg>
