<svg xmlns="http://www.w3.org/2000/svg" viewBox="0 0 53.1 19.26"><defs><style>.cls-1{fill:#fff;fill-rule:evenodd;}</style></defs><g id="Layer_2" data-name="Layer 2"><g id="Layer_1-2" data-name="Layer 1"><path class="cls-1" d="M20.14,11.45H46.92l-4.68,4.68a1.85,1.85,0,0,0,0,2.59,1.87,1.87,0,0,0,1.3.54,1.84,1.84,0,0,0,1.29-.54l7.8-7.8a1.49,1.49,0,0,0,.23-.28v-.07a1.83,1.83,0,0,0,.13-.24v-.11A1.63,1.63,0,0,0,53,9V8.92c0-.08-.08-.16-.13-.24V8.61a1.18,1.18,0,0,0-.23-.27L44.83.54A1.8,1.8,0,0,0,43.54,0a1.83,1.83,0,0,0-1.83,1.83,1.86,1.86,0,0,0,.53,1.3l4.68,4.66H20.14Z"/><path class="cls-1" d="M33,7.81H6.18l4.68-4.68a1.87,1.87,0,0,0,.54-1.3A1.84,1.84,0,0,0,10.86.54a1.82,1.82,0,0,0-2.59,0L.47,8.34a1.49,1.49,0,0,0-.23.27v.07c0,.08-.09.16-.13.24V9a1.63,1.63,0,0,0,0,1.19v.11a1.83,1.83,0,0,0,.13.24v.07a2,2,0,0,0,.23.28l7.8,7.8a1.83,1.83,0,1,0,2.59-2.59L6.18,11.47H33Z"/></g></g></svg>