<svg xmlns="http://www.w3.org/2000/svg" viewBox="0 0 36.03 29.25"><defs><style>.cls-1{fill:#404040;}</style></defs><g id="Layer_2" data-name="Layer 2"><g id="Layer_1-2" data-name="Layer 1"><path class="cls-1" d="M.55,27.2a4.1,4.1,0,0,0,5.58,1.5l.2-.12a4.08,4.08,0,1,0-4.09-7.06l-.2.11A4.07,4.07,0,0,0,.55,27.2Z"/><path class="cls-1" d="M28.16,27a4.21,4.21,0,1,0,7.3-4.2l-7-12.09A4.21,4.21,0,0,0,21.17,15Z"/><path class="cls-1" d="M14.33,27a4.2,4.2,0,1,0,7.27-4.19L9.59,2.1A4.2,4.2,0,0,0,2.32,6.29Z"/></g></g></svg>