<?xml version="1.0" encoding="UTF-8"?>
<svg width="53px" height="44px" viewBox="0 0 53 44" version="1.1" xmlns="http://www.w3.org/2000/svg" xmlns:xlink="http://www.w3.org/1999/xlink">
    <title>Group</title>
    <g id="Page-1" stroke="none" stroke-width="1" fill="none" fill-rule="evenodd">
        <g id="Group" transform="translate(-0.000000, 0.882812)" fill="#FFFFFF" fill-rule="nonzero">
            <path d="M41.4266001,39.079588 C43.1391001,41.987388 46.9320001,42.983688 49.8982001,41.304888 C52.8643001,39.626088 53.8806001,35.907788 52.1681001,32.999988 L41.8728001,15.518688 C40.1603001,12.610888 36.3674001,11.614588 33.4012001,13.293388 C30.4350001,14.972288 29.4188001,18.690488 31.1313001,21.598288 L41.4266001,39.079588 Z" id="Path"></path>
            <path d="M0.806884094,39.318388 C2.46793009,42.138788 6.14675009,43.105188 9.02376009,41.476788 L9.30421009,41.318088 C12.1812001,39.689688 13.1670001,36.083188 11.5059001,33.262788 C9.84488009,30.442388 6.16606009,29.475988 3.28905009,31.104388 L3.00859009,31.263188 C0.131580094,32.891488 -0.854159906,36.497988 0.806884094,39.318388 Z" id="Path"></path>
            <path d="M29.5171001,41.305188 C26.5626001,42.977388 22.7848001,41.985088 21.0790001,39.088688 L3.40843009,9.084398 C1.70268009,6.188048 2.71495009,2.484508 5.66941009,0.812308004 C8.62387009,-0.859897096 12.4017001,0.132458004 14.1075001,3.028798 L31.7781001,33.033088 C33.4838001,35.929488 32.4715001,39.632988 29.5171001,41.305188 Z" id="Path"></path>
        </g>
    </g>
</svg>