<svg width="180" height="50" viewBox="0 0 180 50" fill="none" xmlns="http://www.w3.org/2000/svg">
<path d="M86.826 44.8263C86.712 44.8263 86.616 44.784 86.5379 44.6995C86.4599 44.615 86.4209 44.511 86.4209 44.3875V38.5672C86.4209 38.3917 86.4779 38.2422 86.592 38.1187C86.706 37.9887 86.844 37.9237 87.0061 37.9237H87.3032C87.4232 37.9237 87.5312 37.9627 87.6273 38.0407C87.7293 38.1187 87.8043 38.2162 87.8523 38.3332L89.896 43.8513L91.9396 38.3332C91.9876 38.2162 92.0596 38.1187 92.1556 38.0407C92.2577 37.9627 92.3687 37.9237 92.4887 37.9237H92.7858C92.9479 37.9237 93.0859 37.9887 93.2 38.1187C93.314 38.2422 93.371 38.3917 93.371 38.5672V44.3875C93.371 44.511 93.332 44.615 93.254 44.6995C93.176 44.784 93.0799 44.8263 92.9659 44.8263C92.8519 44.8263 92.7528 44.784 92.6688 44.6995C92.5908 44.615 92.5518 44.511 92.5518 44.3875V38.8499L90.4721 44.4168C90.4241 44.5403 90.3461 44.641 90.2381 44.719C90.136 44.7905 90.022 44.8263 89.896 44.8263C89.7699 44.8263 89.6529 44.7905 89.5449 44.719C89.4428 44.641 89.3678 44.5403 89.3198 44.4168L87.2401 38.8499V44.3875C87.2401 44.511 87.1981 44.615 87.1141 44.6995C87.0361 44.784 86.9401 44.8263 86.826 44.8263Z" fill="url(#paint0_linear)"/>
<path d="M96.4213 44.7775C96.3073 44.7775 96.2113 44.7353 96.1332 44.6508C96.0552 44.5663 96.0162 44.4623 96.0162 44.3388V38.421C96.0162 38.2975 96.0552 38.1935 96.1332 38.109C96.2113 38.018 96.3073 37.9725 96.4213 37.9725H100.031C100.139 37.9725 100.229 38.0147 100.302 38.0992C100.38 38.1772 100.419 38.2747 100.419 38.3917C100.419 38.5087 100.38 38.6062 100.302 38.6842C100.229 38.7622 100.139 38.8012 100.031 38.8012H96.8355V40.9558H99.7073C99.8154 40.9558 99.9054 40.998 99.9774 41.0825C100.055 41.1605 100.094 41.258 100.094 41.375C100.094 41.492 100.055 41.5895 99.9774 41.6675C99.9054 41.7455 99.8154 41.7845 99.7073 41.7845H96.8355V43.9488H100.031C100.139 43.9488 100.229 43.9911 100.302 44.0756C100.38 44.1536 100.419 44.251 100.419 44.368C100.419 44.485 100.38 44.5825 100.302 44.6605C100.229 44.7385 100.139 44.7775 100.031 44.7775H96.4213Z" fill="url(#paint1_linear)"/>
<path d="M104.521 44.8263C104.407 44.8263 104.311 44.784 104.233 44.6995C104.155 44.615 104.116 44.511 104.116 44.3875V38.8012H102.279C102.171 38.8012 102.081 38.7622 102.009 38.6842C101.937 38.6062 101.901 38.5087 101.901 38.3917C101.901 38.2747 101.937 38.1772 102.009 38.0992C102.081 38.0147 102.171 37.9725 102.279 37.9725H106.763C106.871 37.9725 106.961 38.0147 107.033 38.0992C107.111 38.1772 107.15 38.2747 107.15 38.3917C107.15 38.5087 107.111 38.6062 107.033 38.6842C106.961 38.7622 106.871 38.8012 106.763 38.8012H104.935V44.3875C104.935 44.511 104.893 44.615 104.809 44.6995C104.731 44.784 104.635 44.8263 104.521 44.8263Z" fill="url(#paint2_linear)"/>
<path d="M109.449 44.8263C109.335 44.8263 109.239 44.784 109.161 44.6995C109.083 44.615 109.044 44.511 109.044 44.3875V38.421C109.044 38.2975 109.083 38.1935 109.161 38.109C109.239 38.018 109.335 37.9725 109.449 37.9725H111.547C112.363 37.9725 112.975 38.1545 113.383 38.5185C113.791 38.8824 113.995 39.3601 113.995 39.9516C113.995 40.3416 113.893 40.699 113.689 41.024C113.491 41.3425 113.2 41.5732 112.816 41.7162C113.248 41.8397 113.542 42.1322 113.698 42.5937C113.86 43.0486 113.941 43.4971 113.941 43.9391V44.3875C113.941 44.511 113.902 44.615 113.824 44.6995C113.746 44.784 113.65 44.8263 113.536 44.8263C113.41 44.8263 113.308 44.7873 113.23 44.7093C113.158 44.6248 113.122 44.5175 113.122 44.3875V44.0951C113.122 43.7701 113.095 43.4711 113.041 43.1981C112.987 42.9186 112.858 42.6717 112.654 42.4572C112.45 42.2362 112.141 42.1257 111.727 42.1257H109.863V44.3875C109.863 44.511 109.821 44.615 109.737 44.6995C109.659 44.784 109.563 44.8263 109.449 44.8263ZM111.493 41.2873C112.009 41.2873 112.417 41.1768 112.717 40.9558C113.023 40.7348 113.176 40.4228 113.176 40.0198C113.176 39.6299 113.044 39.3309 112.78 39.1229C112.522 38.9149 112.078 38.8109 111.448 38.8109H109.863V41.2873H111.493Z" fill="url(#paint3_linear)"/>
<path d="M116.758 44.8263C116.644 44.8263 116.548 44.784 116.47 44.6995C116.392 44.615 116.353 44.511 116.353 44.3875V38.3722C116.353 38.2487 116.392 38.1447 116.47 38.0602C116.548 37.9692 116.644 37.9237 116.758 37.9237C116.872 37.9237 116.968 37.9692 117.046 38.0602C117.13 38.1447 117.173 38.2487 117.173 38.3722V44.3875C117.173 44.511 117.13 44.615 117.046 44.6995C116.968 44.784 116.872 44.8263 116.758 44.8263Z" fill="url(#paint4_linear)"/>
<path d="M122.594 44.875C121.993 44.875 121.453 44.7353 120.973 44.4558C120.499 44.1698 120.124 43.7636 119.848 43.2371C119.578 42.7042 119.443 42.0834 119.443 41.375C119.443 40.6666 119.578 40.0491 119.848 39.5226C120.124 38.9897 120.499 38.5834 120.973 38.304C121.453 38.018 121.993 37.875 122.594 37.875C123.002 37.875 123.365 37.927 123.683 38.031C124.007 38.135 124.328 38.2845 124.646 38.4795C124.778 38.5575 124.844 38.6809 124.844 38.8499C124.844 38.9474 124.811 39.0352 124.745 39.1132C124.679 39.1847 124.592 39.2204 124.484 39.2204C124.424 39.2204 124.37 39.2074 124.322 39.1814C124.058 39.0319 123.8 38.9182 123.548 38.8402C123.296 38.7622 123.005 38.7232 122.675 38.7232C122.158 38.7232 121.717 38.8402 121.351 39.0742C120.991 39.3016 120.718 39.6169 120.532 40.0198C120.352 40.4163 120.262 40.868 120.262 41.375C120.262 41.882 120.352 42.3369 120.532 42.7399C120.718 43.1364 120.991 43.4516 121.351 43.6856C121.717 43.9131 122.158 44.0268 122.675 44.0268C123.005 44.0268 123.296 43.9878 123.548 43.9098C123.8 43.8318 124.058 43.7181 124.322 43.5686C124.37 43.5426 124.424 43.5296 124.484 43.5296C124.592 43.5296 124.679 43.5653 124.745 43.6368C124.811 43.7083 124.844 43.7961 124.844 43.9001C124.844 44.0691 124.778 44.1925 124.646 44.2705C124.328 44.4655 124.007 44.615 123.683 44.719C123.365 44.823 123.002 44.875 122.594 44.875Z" fill="url(#paint5_linear)"/>
<path d="M126.963 44.8263C126.843 44.8263 126.744 44.784 126.666 44.6995C126.594 44.615 126.558 44.511 126.558 44.3875C126.558 44.3355 126.573 44.2705 126.603 44.1925L128.898 38.3235C128.946 38.2065 129.012 38.1122 129.096 38.0407C129.186 37.9627 129.294 37.9237 129.42 37.9237H129.51C129.637 37.9237 129.742 37.9627 129.826 38.0407C129.916 38.1122 129.985 38.2065 130.033 38.3235L132.328 44.1925C132.358 44.2705 132.373 44.3355 132.373 44.3875C132.373 44.511 132.334 44.615 132.256 44.6995C132.184 44.784 132.088 44.8263 131.968 44.8263C131.884 44.8263 131.806 44.8035 131.734 44.758C131.668 44.706 131.617 44.6378 131.581 44.5533L130.996 43.0324H127.935L127.35 44.5533C127.314 44.6378 127.26 44.706 127.188 44.758C127.122 44.8035 127.047 44.8263 126.963 44.8263ZM128.25 42.2232H130.681L129.465 39.0547L128.25 42.2232Z" fill="url(#paint6_linear)"/>
<path d="M139.817 44.875C139.055 44.875 138.341 44.719 137.675 44.407C137.603 44.3745 137.543 44.3225 137.495 44.251C137.447 44.173 137.423 44.0918 137.423 44.0073C137.423 43.8968 137.456 43.8026 137.522 43.7246C137.594 43.6401 137.684 43.5978 137.792 43.5978C137.852 43.5978 137.909 43.6108 137.963 43.6368C138.515 43.9033 139.106 44.0366 139.736 44.0366C140.787 44.0366 141.312 43.6628 141.312 42.9154C141.312 42.7204 141.243 42.5579 141.105 42.4279C140.973 42.2979 140.808 42.1972 140.61 42.1257C140.412 42.0477 140.129 41.9567 139.763 41.8527C139.277 41.7162 138.884 41.5862 138.584 41.4627C138.284 41.3328 138.026 41.141 137.81 40.8875C137.594 40.6341 137.486 40.2961 137.486 39.8736C137.486 39.5031 137.576 39.1684 137.756 38.8694C137.936 38.564 138.2 38.3235 138.548 38.148C138.902 37.966 139.325 37.875 139.817 37.875C140.478 37.875 141.075 37.9822 141.609 38.1967C141.777 38.2617 141.861 38.3917 141.861 38.5867C141.861 38.6907 141.828 38.7849 141.762 38.8694C141.696 38.9539 141.609 38.9962 141.501 38.9962C141.465 38.9962 141.417 38.9832 141.357 38.9572C140.889 38.7817 140.406 38.6939 139.907 38.6939C139.433 38.6939 139.046 38.7914 138.746 38.9864C138.452 39.1814 138.305 39.4544 138.305 39.8054C138.305 40.0393 138.374 40.2311 138.512 40.3806C138.656 40.5236 138.833 40.6373 139.043 40.7218C139.259 40.7998 139.55 40.8843 139.916 40.9753C140.391 41.0988 140.772 41.2223 141.06 41.3458C141.354 41.4692 141.603 41.661 141.807 41.921C142.017 42.1809 142.122 42.5319 142.122 42.9739C142.122 43.3379 142.026 43.6661 141.834 43.9586C141.642 44.2445 141.372 44.4688 141.024 44.6313C140.676 44.7938 140.273 44.875 139.817 44.875Z" fill="url(#paint7_linear)"/>
<path d="M144.69 44.8263C144.576 44.8263 144.48 44.784 144.402 44.6995C144.324 44.615 144.285 44.511 144.285 44.3875V38.421C144.285 38.2975 144.324 38.1935 144.402 38.109C144.48 38.018 144.576 37.9725 144.69 37.9725H146.742C147.313 37.9725 147.778 38.0765 148.138 38.2845C148.498 38.4925 148.756 38.7589 148.912 39.0839C149.068 39.4089 149.146 39.7599 149.146 40.1368C149.146 40.5138 149.068 40.8648 148.912 41.1898C148.756 41.5147 148.498 41.7812 148.138 41.9892C147.778 42.1972 147.313 42.3012 146.742 42.3012H145.104V44.3875C145.104 44.511 145.062 44.615 144.978 44.6995C144.9 44.784 144.804 44.8263 144.69 44.8263ZM146.661 41.4627C147.274 41.4627 147.703 41.336 147.949 41.0825C148.201 40.829 148.327 40.5138 148.327 40.1368C148.327 39.7599 148.201 39.4446 147.949 39.1912C147.703 38.9377 147.274 38.8109 146.661 38.8109H145.104V41.4627H146.661Z" fill="url(#paint8_linear)"/>
<path d="M154.015 44.875C153.385 44.875 152.833 44.7255 152.359 44.4265C151.885 44.1276 151.519 43.7148 151.261 43.1884C151.003 42.6619 150.868 42.0575 150.855 41.375C150.868 40.6925 151.003 40.0881 151.261 39.5616C151.519 39.0352 151.885 38.6224 152.359 38.3235C152.833 38.0245 153.385 37.875 154.015 37.875C154.646 37.875 155.195 38.0245 155.663 38.3235C156.137 38.6224 156.503 39.0384 156.761 39.5714C157.025 40.0978 157.163 40.699 157.175 41.375C157.163 42.051 157.025 42.6554 156.761 43.1884C156.503 43.7148 156.137 44.1276 155.663 44.4265C155.195 44.7255 154.646 44.875 154.015 44.875ZM154.015 44.0463C154.496 44.0463 154.913 43.9293 155.267 43.6953C155.621 43.4614 155.891 43.1429 156.077 42.7399C156.263 42.3369 156.356 41.882 156.356 41.375C156.356 40.868 156.263 40.4131 156.077 40.0101C155.891 39.6071 155.621 39.2886 155.267 39.0547C154.913 38.8207 154.496 38.7037 154.015 38.7037C153.529 38.7037 153.109 38.8207 152.755 39.0547C152.407 39.2886 152.14 39.6071 151.954 40.0101C151.768 40.4131 151.675 40.868 151.675 41.375C151.675 41.882 151.768 42.3369 151.954 42.7399C152.14 43.1429 152.407 43.4614 152.755 43.6953C153.109 43.9293 153.529 44.0463 154.015 44.0463Z" fill="url(#paint9_linear)"/>
<path d="M159.845 44.8263C159.731 44.8263 159.635 44.784 159.557 44.6995C159.479 44.615 159.44 44.511 159.44 44.3875V38.421C159.44 38.2975 159.479 38.1935 159.557 38.109C159.635 38.018 159.731 37.9725 159.845 37.9725H161.943C162.759 37.9725 163.371 38.1545 163.779 38.5185C164.187 38.8824 164.391 39.3601 164.391 39.9516C164.391 40.3416 164.289 40.699 164.085 41.024C163.887 41.3425 163.596 41.5732 163.212 41.7162C163.644 41.8397 163.938 42.1322 164.094 42.5937C164.256 43.0486 164.337 43.4971 164.337 43.9391V44.3875C164.337 44.511 164.298 44.615 164.22 44.6995C164.142 44.784 164.046 44.8263 163.932 44.8263C163.806 44.8263 163.704 44.7873 163.626 44.7093C163.554 44.6248 163.518 44.5175 163.518 44.3875V44.0951C163.518 43.7701 163.491 43.4711 163.437 43.1981C163.383 42.9186 163.254 42.6717 163.05 42.4572C162.846 42.2362 162.537 42.1257 162.123 42.1257H160.259V44.3875C160.259 44.511 160.217 44.615 160.133 44.6995C160.055 44.784 159.959 44.8263 159.845 44.8263ZM161.889 41.2873C162.405 41.2873 162.813 41.1768 163.113 40.9558C163.419 40.7348 163.572 40.4228 163.572 40.0198C163.572 39.6299 163.44 39.3309 163.176 39.1229C162.918 38.9149 162.474 38.8109 161.844 38.8109H160.259V41.2873H161.889Z" fill="url(#paint10_linear)"/>
<path d="M168.613 44.8263C168.499 44.8263 168.403 44.784 168.325 44.6995C168.247 44.615 168.208 44.511 168.208 44.3875V38.8012H166.371C166.263 38.8012 166.173 38.7622 166.101 38.6842C166.029 38.6062 165.993 38.5087 165.993 38.3917C165.993 38.2747 166.029 38.1772 166.101 38.0992C166.173 38.0147 166.263 37.9725 166.371 37.9725H170.855C170.963 37.9725 171.053 38.0147 171.125 38.0992C171.203 38.1772 171.242 38.2747 171.242 38.3917C171.242 38.5087 171.203 38.6062 171.125 38.6842C171.053 38.7622 170.963 38.8012 170.855 38.8012H169.027V44.3875C169.027 44.511 168.985 44.615 168.901 44.6995C168.823 44.784 168.727 44.8263 168.613 44.8263Z" fill="url(#paint11_linear)"/>
<path d="M175.116 44.875C174.354 44.875 173.64 44.719 172.974 44.407C172.902 44.3745 172.841 44.3225 172.793 44.251C172.745 44.173 172.721 44.0918 172.721 44.0073C172.721 43.8968 172.754 43.8026 172.82 43.7246C172.893 43.6401 172.983 43.5978 173.091 43.5978C173.151 43.5978 173.208 43.6108 173.262 43.6368C173.814 43.9033 174.405 44.0366 175.035 44.0366C176.085 44.0366 176.611 43.6628 176.611 42.9154C176.611 42.7204 176.542 42.5579 176.404 42.4279C176.272 42.2979 176.106 42.1972 175.908 42.1257C175.71 42.0477 175.428 41.9567 175.062 41.8527C174.576 41.7162 174.183 41.5862 173.883 41.4627C173.583 41.3328 173.325 41.141 173.109 40.8875C172.893 40.6341 172.784 40.2961 172.784 39.8736C172.784 39.5031 172.875 39.1684 173.055 38.8694C173.235 38.564 173.499 38.3235 173.847 38.148C174.201 37.966 174.624 37.875 175.116 37.875C175.776 37.875 176.374 37.9822 176.908 38.1967C177.076 38.2617 177.16 38.3917 177.16 38.5867C177.16 38.6907 177.127 38.7849 177.061 38.8694C176.995 38.9539 176.908 38.9962 176.8 38.9962C176.764 38.9962 176.716 38.9832 176.656 38.9572C176.188 38.7817 175.704 38.6939 175.206 38.6939C174.732 38.6939 174.345 38.7914 174.045 38.9864C173.751 39.1814 173.604 39.4544 173.604 39.8054C173.604 40.0393 173.673 40.2311 173.811 40.3806C173.955 40.5236 174.132 40.6373 174.342 40.7218C174.558 40.7998 174.849 40.8843 175.215 40.9753C175.689 41.0988 176.07 41.2223 176.359 41.3458C176.653 41.4692 176.902 41.661 177.106 41.921C177.316 42.1809 177.421 42.5319 177.421 42.9739C177.421 43.3379 177.325 43.6661 177.133 43.9586C176.941 44.2445 176.671 44.4688 176.323 44.6313C175.974 44.7938 175.572 44.875 175.116 44.875Z" fill="url(#paint12_linear)"/>
<rect width="12.5502" height="12.2069" rx="6.10347" transform="matrix(0.866532 -0.499122 -0.500879 -0.865517 6.11426 49.125)" fill="white"/>
<rect width="12.6" height="33.4782" rx="6.30002" transform="matrix(0.866532 -0.499122 -0.500879 -0.865517 47.4971 49.0435)" fill="url(#paint13_linear)"/>
<rect width="12.5502" height="48.3955" rx="6.27512" transform="matrix(0.866532 -0.499122 -0.500879 -0.865517 26.8027 49.0273)" fill="url(#paint14_linear)"/>
<path d="M70.2498 28.875C69.735 28.875 69.3015 28.7036 68.9493 28.3609C68.597 28.0181 68.4209 27.5963 68.4209 27.0953V2.89195C68.4209 2.39101 68.597 1.96916 68.9493 1.62641C69.3015 1.2573 69.735 1.07274 70.2498 1.07274H79.5164C82.0904 1.07274 84.1903 1.49459 85.816 2.33828C87.4417 3.18197 88.6068 4.26295 89.3113 5.58121C90.0158 6.89948 90.368 8.32321 90.368 9.8524C90.368 11.3816 90.0158 12.8053 89.3113 14.1236C88.6068 15.4419 87.4417 16.5228 85.816 17.3665C84.1903 18.2102 82.0904 18.6321 79.5164 18.6321H72.1194V27.0953C72.1194 27.5963 71.9297 28.0181 71.5504 28.3609C71.1982 28.7036 70.7646 28.875 70.2498 28.875ZM79.1506 15.2309C81.9143 15.2309 83.8516 14.7168 84.9625 13.6886C86.1005 12.6603 86.6695 11.3816 86.6695 9.8524C86.6695 8.32321 86.1005 7.04449 84.9625 6.01624C83.8516 4.98799 81.9143 4.47387 79.1506 4.47387H72.1194V15.2309H79.1506Z" fill="white"/>
<path d="M102.353 28.6773C101.648 28.6773 101.038 28.44 100.524 27.9654C100.036 27.4645 99.7921 26.8712 99.7921 26.1857V2.69421C99.7921 2.19327 99.9682 1.77142 100.32 1.42867C100.673 1.05956 101.106 0.875 101.621 0.875C102.136 0.875 102.569 1.05956 102.922 1.42867C103.301 1.77142 103.491 2.19327 103.491 2.69421V25.0784H116.781C117.296 25.0784 117.729 25.2629 118.081 25.6321C118.461 25.9748 118.65 26.3967 118.65 26.8976C118.65 27.3985 118.461 27.8204 118.081 28.1631C117.729 28.5059 117.296 28.6773 116.781 28.6773H102.353Z" fill="white"/>
<path d="M126.399 28.875C125.857 28.875 125.41 28.7036 125.057 28.3609C124.732 28.0181 124.57 27.5963 124.57 27.0953C124.57 26.8844 124.637 26.6208 124.773 26.3044L135.137 2.49647C135.353 2.02189 135.652 1.63959 136.031 1.34957C136.437 1.03319 136.925 0.875 137.494 0.875H137.9C138.469 0.875 138.944 1.03319 139.323 1.34957C139.729 1.63959 140.041 2.02189 140.258 2.49647L150.622 26.3044C150.757 26.6208 150.825 26.8844 150.825 27.0953C150.825 27.5963 150.649 28.0181 150.296 28.3609C149.971 28.7036 149.538 28.875 148.996 28.875C148.617 28.875 148.264 28.7827 147.939 28.5982C147.641 28.3872 147.411 28.1104 147.248 27.7677L144.606 21.5982H130.788L128.146 27.7677C127.984 28.1104 127.74 28.3872 127.415 28.5982C127.117 28.7827 126.778 28.875 126.399 28.875ZM132.21 18.3157H143.184L137.697 5.46257L132.21 18.3157Z" fill="white"/>
<path d="M167.51 28.875C166.995 28.875 166.548 28.7036 166.168 28.3609C165.816 28.0181 165.64 27.5963 165.64 27.0953V17.0106L155.926 3.762C155.71 3.41926 155.601 3.06332 155.601 2.69421C155.601 2.19327 155.764 1.77142 156.089 1.42867C156.441 1.05956 156.875 0.875 157.39 0.875C158.067 0.875 158.609 1.1782 159.015 1.7846L167.51 13.8072L176.004 1.7846C176.41 1.1782 176.952 0.875 177.63 0.875C178.145 0.875 178.578 1.05956 178.93 1.42867C179.283 1.77142 179.445 2.19327 179.418 2.69421C179.418 3.06332 179.31 3.41926 179.093 3.762L169.339 17.0106V27.0953C169.339 27.5963 169.162 28.0181 168.81 28.3609C168.458 28.7036 168.024 28.875 167.51 28.875Z" fill="white"/>
<path d="M70.9139 44.7874C70.2923 44.7874 69.7499 44.5523 69.2868 44.0822V44.3235C69.2868 44.441 69.2424 44.5399 69.1536 44.6204C69.0711 44.7008 68.9696 44.741 68.8491 44.741C68.7286 44.741 68.6271 44.7008 68.5446 44.6204C68.4621 44.5399 68.4209 44.441 68.4209 44.3235V38.3018C68.4209 38.1843 68.4621 38.0853 68.5446 38.0049C68.6271 37.9183 68.7286 37.875 68.8491 37.875C68.976 37.875 69.0806 37.9152 69.1631 37.9956C69.2456 38.076 69.2868 38.1781 69.2868 38.3018V40.575C69.7499 40.1049 70.2923 39.8698 70.9139 39.8698C71.3072 39.8698 71.6783 39.9688 72.0272 40.1668C72.3825 40.3585 72.6679 40.643 72.8836 41.0204C73.1056 41.3915 73.2166 41.8276 73.2166 42.3286C73.2166 42.8296 73.1056 43.2688 72.8836 43.6461C72.6679 44.0173 72.3825 44.3018 72.0272 44.4997C71.6783 44.6915 71.3072 44.7874 70.9139 44.7874ZM70.7902 43.9987C71.2597 43.9987 71.6371 43.8534 71.9226 43.5626C72.208 43.2719 72.3507 42.8606 72.3507 42.3286C72.3507 41.7966 72.208 41.3853 71.9226 41.0946C71.6371 40.8039 71.2597 40.6585 70.7902 40.6585C70.4984 40.6585 70.2225 40.7235 69.9624 40.8534C69.7086 40.9771 69.4834 41.1441 69.2868 41.3544V43.3028C69.4834 43.5131 69.7086 43.6832 69.9624 43.8131C70.2225 43.9369 70.4984 43.9987 70.7902 43.9987Z" fill="white"/>
<path d="M76.395 46.875C76.2808 46.875 76.1825 46.8348 76.1 46.7544C76.0239 46.674 75.9858 46.5781 75.9858 46.4668C75.9858 46.4173 75.9954 46.3678 76.0144 46.3183L76.6329 44.7688L74.844 40.5193C74.8186 40.4575 74.8059 40.3987 74.8059 40.343C74.8059 40.2255 74.8472 40.1265 74.9296 40.0461C75.0121 39.9595 75.1136 39.9162 75.2341 39.9162C75.3229 39.9162 75.4022 39.941 75.472 39.9905C75.5481 40.0399 75.6021 40.1018 75.6338 40.176L77.0991 43.7204L78.5931 40.1946C78.6755 40.009 78.8087 39.9162 78.9927 39.9162C79.1132 39.9162 79.2147 39.9595 79.2972 40.0461C79.3797 40.1265 79.4209 40.2255 79.4209 40.343C79.4209 40.3987 79.4114 40.4513 79.3924 40.5008L76.7947 46.5874C76.7058 46.7791 76.5726 46.875 76.395 46.875Z" fill="white"/>
<defs>
<linearGradient id="paint0_linear" x1="177.421" y1="37.9644" x2="176.851" y2="49.3846" gradientUnits="userSpaceOnUse">
<stop stop-color="white"/>
<stop offset="1" stop-color="white"/>
</linearGradient>
<linearGradient id="paint1_linear" x1="177.421" y1="37.9644" x2="176.851" y2="49.3846" gradientUnits="userSpaceOnUse">
<stop stop-color="white"/>
<stop offset="1" stop-color="white"/>
</linearGradient>
<linearGradient id="paint2_linear" x1="177.421" y1="37.9644" x2="176.851" y2="49.3846" gradientUnits="userSpaceOnUse">
<stop stop-color="white"/>
<stop offset="1" stop-color="white"/>
</linearGradient>
<linearGradient id="paint3_linear" x1="177.421" y1="37.9644" x2="176.851" y2="49.3846" gradientUnits="userSpaceOnUse">
<stop stop-color="white"/>
<stop offset="1" stop-color="white"/>
</linearGradient>
<linearGradient id="paint4_linear" x1="177.421" y1="37.9644" x2="176.851" y2="49.3846" gradientUnits="userSpaceOnUse">
<stop stop-color="white"/>
<stop offset="1" stop-color="white"/>
</linearGradient>
<linearGradient id="paint5_linear" x1="177.421" y1="37.9644" x2="176.851" y2="49.3846" gradientUnits="userSpaceOnUse">
<stop stop-color="white"/>
<stop offset="1" stop-color="white"/>
</linearGradient>
<linearGradient id="paint6_linear" x1="177.421" y1="37.9644" x2="176.851" y2="49.3846" gradientUnits="userSpaceOnUse">
<stop stop-color="white"/>
<stop offset="1" stop-color="white"/>
</linearGradient>
<linearGradient id="paint7_linear" x1="177.421" y1="37.9644" x2="176.851" y2="49.3846" gradientUnits="userSpaceOnUse">
<stop stop-color="white"/>
<stop offset="1" stop-color="white"/>
</linearGradient>
<linearGradient id="paint8_linear" x1="177.421" y1="37.9644" x2="176.851" y2="49.3846" gradientUnits="userSpaceOnUse">
<stop stop-color="white"/>
<stop offset="1" stop-color="white"/>
</linearGradient>
<linearGradient id="paint9_linear" x1="177.421" y1="37.9644" x2="176.851" y2="49.3846" gradientUnits="userSpaceOnUse">
<stop stop-color="white"/>
<stop offset="1" stop-color="white"/>
</linearGradient>
<linearGradient id="paint10_linear" x1="177.421" y1="37.9644" x2="176.851" y2="49.3846" gradientUnits="userSpaceOnUse">
<stop stop-color="white"/>
<stop offset="1" stop-color="white"/>
</linearGradient>
<linearGradient id="paint11_linear" x1="177.421" y1="37.9644" x2="176.851" y2="49.3846" gradientUnits="userSpaceOnUse">
<stop stop-color="white"/>
<stop offset="1" stop-color="white"/>
</linearGradient>
<linearGradient id="paint12_linear" x1="177.421" y1="37.9644" x2="176.851" y2="49.3846" gradientUnits="userSpaceOnUse">
<stop stop-color="white"/>
<stop offset="1" stop-color="white"/>
</linearGradient>
<linearGradient id="paint13_linear" x1="12.6" y1="0.427778" x2="-11.1745" y2="14.2303" gradientUnits="userSpaceOnUse">
<stop stop-color="#E9F75F"/>
<stop offset="1" stop-color="#B4ED4B"/>
</linearGradient>
<linearGradient id="paint14_linear" x1="12.5502" y1="0.618388" x2="-14.7443" y2="11.5367" gradientUnits="userSpaceOnUse">
<stop stop-color="#E9F75F"/>
<stop offset="1" stop-color="#B4ED4B"/>
</linearGradient>
</defs>
</svg>
