<svg xmlns="http://www.w3.org/2000/svg" viewBox="0 0 229.93 229.5"><defs><style>.cls-1{fill:#4edd76;}</style></defs><g id="Layer_2" data-name="Layer 2"><g id="Layer_1-2" data-name="Layer 1"><polygon class="cls-1" points="106.48 228.13 106.86 226.21 111.26 227.09 111.76 224.59 108.39 223.92 108.76 222.08 112.13 222.75 112.64 220.2 108.24 219.32 108.62 217.41 115.52 218.78 113.38 229.5 106.48 228.13"/><polygon class="cls-1" points="88.05 216.36 84.35 214.72 85.16 212.87 91.19 215.53 86.78 225.53 84.46 224.5 88.05 216.36"/><polygon class="cls-1" points="57.95 212.85 59.13 211.3 62.7 214.01 64.24 211.98 61.51 209.9 62.64 208.41 65.38 210.49 66.95 208.42 63.38 205.71 64.56 204.15 70.16 208.41 63.55 217.11 57.95 212.85"/><path class="cls-1" d="M40.53,202.52l-1.24-1.62a1,1,0,0,1-.21-.52.83.83,0,0,1,.13-.48l3.36-5.24c.14-.23.3-.47.48-.73s.37-.53.59-.79c-.31.14-.61.27-.9.38l-.83.29L36,195.7a.78.78,0,0,1-.48,0,.85.85,0,0,1-.46-.32l-1.25-1.63,11.34-3.18,1.4,1.82Z"/><path class="cls-1" d="M24.67,173.27l-1.12-2.77-2.4,2.06-.53.47-.68.55.88-.09.71,0Zm1.23-8.07.74,1.82a.94.94,0,0,1,.07.56.84.84,0,0,1-.26.42l-1.52,1.31,1.56,3.85,2-.11a.85.85,0,0,1,.47.12.88.88,0,0,1,.35.43l.75,1.84-11.72.19-1-2.41Z"/><polygon class="cls-1" points="5.61 143.51 7.6 143.21 8.05 146.26 16.87 144.96 17.24 147.47 8.41 148.76 8.86 151.81 6.87 152.1 5.61 143.51"/><rect class="cls-1" x="6.56" y="118.8" width="2.55" height="10.93" transform="translate(-116.57 129.38) rotate(-88.75)"/><path class="cls-1" d="M.4,104.42a1.09,1.09,0,0,1,.1-.26A.78.78,0,0,1,.61,104l.16-.13.25-.12,7.82-3-.6-.14-.54-.15L2.18,98.72l.67-2.13,10.43,3.26-.4,1.26a1,1,0,0,1-.66.72l-7.75,3,.55.14.49.13,5.59,1.76L10.43,109,0,105.69Z"/><path class="cls-1" d="M18.28,73.18a3.9,3.9,0,0,0,.44-.82,3.75,3.75,0,0,0,.23-.77l-1.37-.93-.6.9a.56.56,0,0,1-.32.24.42.42,0,0,1-.34-.07L15.16,71l2.17-3.22,3.83,2.58a6.9,6.9,0,0,1-.05,1,6.42,6.42,0,0,1-.24,1,8.72,8.72,0,0,1-.44,1,10.4,10.4,0,0,1-.64,1.07A5.81,5.81,0,0,1,18.2,76a5.66,5.66,0,0,1-2,.81,5.41,5.41,0,0,1-2.12,0A5.85,5.85,0,0,1,12,75.94a6.23,6.23,0,0,1-1.64-1.59,5.21,5.21,0,0,1-.82-1.95,5.27,5.27,0,0,1,.06-2.16,6.48,6.48,0,0,1,1-2.21,6.3,6.3,0,0,1,.81-1,5.35,5.35,0,0,1,.87-.74,6,6,0,0,1,.9-.52,4.79,4.79,0,0,1,.91-.29l.51,1.23a.91.91,0,0,1,.07.35.55.55,0,0,1-.11.31.85.85,0,0,1-.38.31q-.32.15-.57.3a2.76,2.76,0,0,0-.49.32,5.55,5.55,0,0,0-.42.42,5.26,5.26,0,0,0-.42.55,3.21,3.21,0,0,0-.5,1.21,2.56,2.56,0,0,0,0,1.2,3.09,3.09,0,0,0,.57,1.13,4.16,4.16,0,0,0,1.06,1,4.51,4.51,0,0,0,1.41.67,3.33,3.33,0,0,0,1.32.09,2.84,2.84,0,0,0,1.15-.44A3.32,3.32,0,0,0,18.28,73.18Z"/><path class="cls-1" d="M40.34,35.54l1.1-.73a1.86,1.86,0,0,0,.92-1.19A1.93,1.93,0,0,0,42,32.28a2.08,2.08,0,0,0-.48-.5,1.38,1.38,0,0,0-.57-.25,1.45,1.45,0,0,0-.68,0,2.54,2.54,0,0,0-.75.36l-1.1.73Zm1.06,1.59,2,3-2.11,1.41-6.07-9.09,3.21-2.14a6.14,6.14,0,0,1,1.8-.87,3.86,3.86,0,0,1,1.55-.14,3,3,0,0,1,1.29.5,3.9,3.9,0,0,1,1,1,4.12,4.12,0,0,1,.62,1.4,3,3,0,0,1,0,1.42A3.75,3.75,0,0,1,44,35.08,6.27,6.27,0,0,1,42.5,36.4Z"/><polygon class="cls-1" points="64.21 13.13 64.88 14.97 60.66 16.5 61.53 18.89 64.76 17.72 65.4 19.49 62.17 20.66 63.06 23.1 67.27 21.57 67.94 23.41 61.33 25.81 57.6 15.54 64.21 13.13"/><path class="cls-1" d="M85.4,9.17l1-.1a2.72,2.72,0,0,0,.86-.2,1.69,1.69,0,0,0,.57-.42,1.54,1.54,0,0,0,.29-.57,2.19,2.19,0,0,0,0-.68,1.42,1.42,0,0,0-.57-1.08,2.18,2.18,0,0,0-1.48-.27l-1,.09Zm.16,1.74.36,4-2.52.23-1-10.88L86,4A7.38,7.38,0,0,1,88,4a3.73,3.73,0,0,1,1.42.55,2.51,2.51,0,0,1,.86.95,3.47,3.47,0,0,1,.36,1.27,3.75,3.75,0,0,1-.05,1,3,3,0,0,1-.35.91,3.23,3.23,0,0,1-.62.77,3.31,3.31,0,0,1-.89.6,2.42,2.42,0,0,1,.5.27,2.19,2.19,0,0,1,.43.43l2.66,3.57L90,14.56a1,1,0,0,1-1-.4l-2.1-3a.72.72,0,0,0-.31-.27.87.87,0,0,0-.45-.05Z"/><polygon class="cls-1" points="118.55 0.99 118.28 2.93 113.84 2.29 113.45 5.03 117.14 5.56 116.87 7.5 113.17 6.97 112.57 11.18 110.04 10.82 111.59 0 118.55 0.99"/><path class="cls-1" d="M144.53,9.35A4.6,4.6,0,0,0,145,8a3.08,3.08,0,0,0-.07-1.26,2.73,2.73,0,0,0-.57-1,3.24,3.24,0,0,0-1.07-.77A3.37,3.37,0,0,0,142,4.53a2.73,2.73,0,0,0-1.17.2,3.16,3.16,0,0,0-1,.74A4.82,4.82,0,0,0,139,6.69a5,5,0,0,0-.44,1.42,3,3,0,0,0,.07,1.25,2.73,2.73,0,0,0,.57,1,3.6,3.6,0,0,0,1.09.77,3.33,3.33,0,0,0,1.27.35,2.52,2.52,0,0,0,1.16-.21,3,3,0,0,0,1-.72A4.69,4.69,0,0,0,144.53,9.35Zm2.35,1.12a5.91,5.91,0,0,1-1.32,1.81,5.24,5.24,0,0,1-1.81,1.11,5.32,5.32,0,0,1-2.12.29,6.16,6.16,0,0,1-2.28-.61,6.24,6.24,0,0,1-1.91-1.39,5.43,5.43,0,0,1-1.12-1.84,5.48,5.48,0,0,1-.28-2.1,5.91,5.91,0,0,1,.59-2.16,6,6,0,0,1,1.31-1.82,5.47,5.47,0,0,1,1.81-1.1,5.4,5.4,0,0,1,2.13-.29,6.13,6.13,0,0,1,2.28.62,6,6,0,0,1,1.91,1.39,5.14,5.14,0,0,1,1.38,3.93A5.88,5.88,0,0,1,146.88,10.47Z"/><path class="cls-1" d="M170.42,19.56l.77.66a2.47,2.47,0,0,0,.75.48,1.56,1.56,0,0,0,.69.11,1.32,1.32,0,0,0,.61-.19,2.14,2.14,0,0,0,.52-.44,1.39,1.39,0,0,0,.38-1.16,2.19,2.19,0,0,0-.83-1.25l-.77-.67Zm-1.14,1.32-2.64,3.06-1.92-1.66L171.86,14l2.69,2.32a7,7,0,0,1,1.36,1.51,3.8,3.8,0,0,1,.6,1.4,2.62,2.62,0,0,1-.09,1.28,3.46,3.46,0,0,1-.66,1.14,3.18,3.18,0,0,1-.77.66,2.84,2.84,0,0,1-.89.39,3.27,3.27,0,0,1-1,.09,3.72,3.72,0,0,1-1.05-.22,2.55,2.55,0,0,1,.15.54,2.08,2.08,0,0,1,0,.61l-.73,4.39-1.73-1.5a1,1,0,0,1-.38-1l.7-3.59a.8.8,0,0,0,0-.41,1,1,0,0,0-.28-.36Z"/><path class="cls-1" d="M196.23,39.68c-.12.18-.24.36-.38.54s-.27.37-.41.55c.23,0,.46-.06.69-.08l.67,0,6.19-.27.26,0a.85.85,0,0,1,.19.1.83.83,0,0,1,.15.17l.15.25.95,1.69L195.17,48,194.07,46l5.48-3.08c.26-.15.56-.3.88-.45l-6.31.24a.93.93,0,0,1-.53-.13.91.91,0,0,1-.37-.38l-.17-.3a1,1,0,0,1-.14-.53.88.88,0,0,1,.17-.5l3.47-5.3-.44.3-.4.24-5.48,3.09-1.09-1.95,9.52-5.37,1,1.69.13.25a.7.7,0,0,1,.07.22.5.5,0,0,1,0,.21.83.83,0,0,1-.11.24Z"/><path class="cls-1" d="M214.25,70.27l.69,2.9,2.67-1.67.6-.38.76-.44c-.32,0-.61,0-.88-.05l-.72-.07Zm-2.44,7.79-.46-1.91a1,1,0,0,1,0-.57.83.83,0,0,1,.32-.37l1.7-1.07-1-4-2-.19a.87.87,0,0,1-.44-.2.78.78,0,0,1-.28-.48l-.46-1.92,11.61,1.59.6,2.52Z"/><path class="cls-1" d="M229.85,96.34c0,.11,0,.2,0,.28a.68.68,0,0,1-.07.2.83.83,0,0,1-.12.16l-.22.18-6.85,4.8h1.17l5.77.34-.13,2.23-10.91-.63.08-1.32a1.14,1.14,0,0,1,.12-.49,1.1,1.1,0,0,1,.35-.37l6.8-4.77h-.56l-.51,0-5.85-.34.13-2.23,10.91.64Z"/><path class="cls-1" d="M219.93,133.67a.51.51,0,0,1-.09.16.7.7,0,0,1-.16.13l-1.33.61a4.14,4.14,0,0,1-.7-2,5.68,5.68,0,0,1,.33-2.36,5.6,5.6,0,0,1,1.12-2,4.89,4.89,0,0,1,1.64-1.21,5.17,5.17,0,0,1,2-.43A6.8,6.8,0,0,1,225,127a5.85,5.85,0,0,1,2,1.12,5.24,5.24,0,0,1,1.31,1.67,5.54,5.54,0,0,1,.51,2.09,6.19,6.19,0,0,1-.35,2.32,5.42,5.42,0,0,1-.48,1.06,5,5,0,0,1-.61.87,4.13,4.13,0,0,1-.71.68,4.55,4.55,0,0,1-.78.48l-.81-1.18a.9.9,0,0,1-.12-.24.55.55,0,0,1,0-.33.52.52,0,0,1,.14-.22l.21-.2c.09-.06.18-.14.28-.22a2.12,2.12,0,0,0,.3-.3,2.92,2.92,0,0,0,.3-.45,2.64,2.64,0,0,0,.28-.63,3,3,0,0,0,.17-1.27,2.62,2.62,0,0,0-.35-1.16,3.08,3.08,0,0,0-.83-1,4.84,4.84,0,0,0-2.78-.94,3.28,3.28,0,0,0-1.25.23,2.81,2.81,0,0,0-.93.66,2.73,2.73,0,0,0-.58,1c-.08.22-.13.42-.18.61a3.5,3.5,0,0,0,0,.54,2.73,2.73,0,0,0,0,.5,3.32,3.32,0,0,0,.17.54.79.79,0,0,1,0,.22A.53.53,0,0,1,219.93,133.67Z"/><polygon class="cls-1" points="218.31 163.8 216.67 162.76 219.07 158.97 216.92 157.6 215.08 160.5 213.5 159.5 215.34 156.6 213.14 155.2 210.74 158.99 209.09 157.94 212.87 152 222.09 157.87 218.31 163.8"/></g></g></svg>