<svg xmlns="http://www.w3.org/2000/svg" xmlns:xlink="http://www.w3.org/1999/xlink" viewBox="0 0 176.36 173.62"><defs><style>.cls-1{fill:none;clip-rule:evenodd;}.cls-2{fill:#b1ee4d;}.cls-3{clip-path:url(#clip-path);}.cls-4{clip-path:url(#clip-path-2);}</style><clipPath id="clip-path" transform="translate(0 1)"><path class="cls-1" d="M116,2.85A1.47,1.47,0,0,1,115.15,1a1.46,1.46,0,0,1,2.76,1A1.47,1.47,0,0,1,116,2.85Z"/></clipPath><clipPath id="clip-path-2" transform="translate(0 1)"><path class="cls-1" d="M58,168.31a1.47,1.47,0,0,1,1-2.77,1.47,1.47,0,0,1-1,2.77Z"/></clipPath></defs><g id="Layer_2" data-name="Layer 2"><g id="Layer_1-2" data-name="Layer 1"><path class="cls-2" d="M62.82,148.57c.52.19,1,.39,1.56.57l2.68-7.54q-.69-.24-1.38-.51Zm-7-3.16c1,.5,2,1,3,1.45l3.33-7.28c-.9-.41-1.77-.83-2.64-1.28Zm-6.66-3.93c.92.61,1.85,1.2,2.8,1.78L56,136.4c-.84-.51-1.66-1-2.47-1.57Zm-6.17-4.66c.84.71,1.7,1.41,2.58,2.08l4.87-6.35q-1.17-.88-2.28-1.83Zm-5.61-5.32c.75.8,1.53,1.59,2.33,2.36l5.55-5.76c-.7-.68-1.39-1.38-2.06-2.09Zm-5-5.92c.66.88,1.35,1.75,2,2.61l6.17-5.1c-.63-.76-1.23-1.52-1.82-2.31Zm-4.28-6.43c.56.95,1.14,1.89,1.75,2.81l6.69-4.38c-.53-.81-1-1.64-1.54-2.49Zm-3.54-6.87c.45,1,.93,2,1.42,3l7.15-3.61q-.66-1.3-1.26-2.64Zm-2.75-7.23c.34,1.06.7,2.1,1.08,3.14l7.5-2.79c-.34-.92-.66-1.84-1-2.77Zm-1.93-7.48c.22,1.08.46,2.16.73,3.23l7.76-1.93c-.24-1-.45-1.9-.64-2.86Zm-1.07-7.66c.09,1.1.21,2.2.35,3.3l7.93-1c-.13-1-.23-1.94-.31-2.92Zm-.21-7.73c0,1.11,0,2.21,0,3.31l8-.15c0-1,0-2,0-2.93Zm.66-7.71q-.24,1.65-.39,3.3l8,.75c.1-1,.21-1.94.35-2.91Zm1.53-7.57c-.28,1.07-.54,2.15-.76,3.22l7.83,1.64c.2-1,.42-1.9.67-2.85Zm1.78-5.81L22,62.66l7.6,2.5c.16-.46.31-.93.48-1.39Zm.58-1.56c-.2.52-.39,1-.58,1.56l7.54,2.68q.24-.69.51-1.38Zm3.16-7.05c-.51,1-1,2-1.45,3l7.27,3.33c.41-.9.84-1.77,1.28-2.64Zm3.92-6.66c-.61.92-1.2,1.85-1.77,2.8l6.86,4.12c.5-.84,1-1.66,1.56-2.47Zm4.66-6.17c-.71.84-1.4,1.7-2.08,2.58l6.35,4.87c.59-.78,1.21-1.54,1.84-2.28ZM40.19,34c-.81.75-1.59,1.53-2.36,2.33l5.76,5.55c.67-.71,1.37-1.39,2.08-2.06Zm5.91-5c-.88.66-1.75,1.35-2.6,2.05l5.1,6.17c.75-.63,1.52-1.23,2.3-1.82Zm6.44-4.28c-.95.56-1.89,1.14-2.82,1.75l4.38,6.69c.82-.53,1.65-1,2.49-1.54Zm6.87-3.54c-1,.45-2,.93-3,1.42L60,29.81c.87-.45,1.76-.86,2.65-1.26Zm7.22-2.75c-1,.34-2.1.7-3.13,1.08l2.79,7.5c.91-.34,1.84-.66,2.77-1Zm7.49-1.93c-1.09.22-2.17.46-3.24.73l1.94,7.76c.94-.24,1.9-.45,2.86-.64Zm7.65-1.08c-1.1.1-2.2.22-3.29.36l1,7.93c1-.13,1.94-.23,2.91-.31Zm7.73-.2c-1.1,0-2.21,0-3.31,0l.15,8c1,0,2,0,2.93,0Zm7.71.66c-1.1-.16-2.19-.29-3.29-.39l-.75,8c1,.09,1.94.21,2.91.35Zm7.58,1.53c-1.08-.28-2.15-.54-3.23-.76l-1.64,7.83c1,.2,1.9.42,2.85.67Zm5.8,1.78L109,18.71l-2.5,7.6c.47.16.93.31,1.39.48ZM63.54,146.7l1.51.56,1.34-3.77L65,143Zm-6.85-3.07c1,.49,1.91,1,2.89,1.41l1.67-3.64c-.93-.42-1.83-.86-2.73-1.32Zm-6.47-3.81c.89.59,1.8,1.17,2.72,1.72L55,138.11c-.86-.52-1.72-1.06-2.55-1.62Zm-6-4.52c.82.69,1.65,1.36,2.51,2l2.43-3.18c-.8-.61-1.59-1.25-2.36-1.9Zm-5.45-5.17c.74.78,1.49,1.54,2.26,2.29l2.78-2.88c-.73-.7-1.44-1.42-2.13-2.15ZM34,124.38c.64.86,1.31,1.7,2,2.53L39,124.36c-.64-.78-1.26-1.57-1.87-2.38Zm-4.16-6.25c.55.93,1.11,1.84,1.7,2.74l3.35-2.19c-.55-.85-1.09-1.7-1.6-2.57Zm-3.43-6.67q.66,1.47,1.38,2.91l3.57-1.81c-.45-.9-.89-1.81-1.3-2.73Zm-2.67-7c.32,1,.67,2,1,3l3.75-1.4c-.36-.94-.69-1.89-1-2.86Zm-1.88-7.27c.21,1,.45,2.1.71,3.14l3.88-1c-.24-1-.47-2-.66-2.95Zm-1-7.44c.09,1.08.2,2.14.34,3.2l4-.52c-.13-1-.24-2-.33-3Zm-.2-7.5c0,1.07,0,2.15,0,3.22l4-.08c0-1,0-2,0-3Zm.64-7.48c-.15,1.06-.28,2.13-.38,3.19l4,.38c.1-1,.22-2,.36-3Zm1.48-7.36c-.27,1-.51,2.09-.73,3.13l3.91.82q.31-1.47.69-2.94Zm1.74-5.64c-.18.51-.36,1-.53,1.53l3.8,1.25c.16-.48.33-1,.5-1.44ZM25,60.25c-.2.5-.38,1-.56,1.51L28.2,63.1c.17-.48.34-1,.52-1.42Zm3.06-6.85c-.49,1-1,1.91-1.41,2.89L30.28,58c.42-.92.87-1.82,1.33-2.72Zm3.82-6.47c-.6.89-1.17,1.8-1.73,2.72l3.43,2.06c.52-.86,1.06-1.72,1.62-2.55Zm4.52-6c-.69.82-1.37,1.65-2,2.5l3.17,2.44c.62-.8,1.25-1.59,1.9-2.36Zm5.17-5.45c-.78.74-1.55,1.49-2.29,2.26l2.88,2.78c.7-.73,1.42-1.44,2.15-2.13Zm5.74-4.83c-.86.64-1.7,1.31-2.53,2l2.55,3.08c.78-.64,1.57-1.26,2.38-1.87Zm6.25-4.16c-.92.55-1.84,1.11-2.73,1.7L53,31.55c.85-.56,1.71-1.09,2.58-1.6Zm6.67-3.43c-1,.43-1.95.9-2.9,1.38L59.12,28c.9-.45,1.81-.89,2.73-1.3Zm7-2.67c-1,.32-2,.67-3,1.05l1.39,3.74c.94-.35,1.9-.68,2.86-1Zm7.27-1.88c-1.06.21-2.1.45-3.14.71l1,3.88c1-.25,2-.47,3-.66Zm7.43-1c-1.07.09-2.14.2-3.2.34l.53,4c1-.13,2-.24,3-.33Zm7.51-.2c-1.08,0-2.15,0-3.22,0l.07,4c1,0,2,0,3,0Zm7.48.64c-1.07-.15-2.13-.28-3.2-.38l-.38,4c1,.1,2,.22,3,.36Zm7.35,1.48c-1-.27-2.08-.52-3.13-.73l-.82,3.91c1,.21,2,.44,3,.69Zm5.64,1.74-1.52-.53-1.25,3.8,1.43.49Z" transform="translate(0 1)"/><path class="cls-2" d="M149.54,106.28a62.93,62.93,0,0,1-80.38,38.19l-1.35,3.77a66.94,66.94,0,0,0,85.5-40.62ZM111.35,25.89a62.94,62.94,0,0,1,38.19,80.39l3.77,1.34a66.93,66.93,0,0,0-40.62-85.5Z" transform="translate(0 1)"/><path class="cls-2" d="M123.17,157.07l-8.63,10.56.78.63,8.62-10.55ZM161.7,49.2l-.78-14.62-1,.05.79,14.63Zm2.57,61.73a80.55,80.55,0,0,1-40.93,46l.44.9a81.6,81.6,0,0,0,41.44-46.58Zm-3.51-61.48a80.57,80.57,0,0,1,3.51,61.48l.95.33A81.6,81.6,0,0,0,161.66,49ZM53.35,11.78a80.59,80.59,0,0,1,61.49-3.37l.33-1a81.55,81.55,0,0,0-62.25,3.42ZM12.2,57.61A80.63,80.63,0,0,1,53.35,11.78l-.43-.9A81.57,81.57,0,0,0,11.26,57.27Zm3.24,61.49A80.58,80.58,0,0,1,12.2,57.61l-.94-.34a81.59,81.59,0,0,0,3.28,62.27Zm45.73,41.25A80.52,80.52,0,0,1,15.44,119.1l-.9.44A81.56,81.56,0,0,0,60.83,161.3Zm62.39-3-.22-.45-.1.05-.07.08Zm41.19-46.3-.48-.16Zm-3.54-61.86-.5,0v.1l0,.09ZM53.13,11.33l-.21-.45ZM11.73,57.44l-.47-.17ZM15,119.32l.45-.22Z" transform="translate(0 1)"/><path class="cls-2" d="M5.85,55.79A87.15,87.15,0,0,1,50.13,6l-.43-.89A88.17,88.17,0,0,0,4.9,55.46Zm3.8,66.52a87.16,87.16,0,0,1-3.8-66.52l-.95-.33a88.16,88.16,0,0,0,3.85,67.28Zm116.21,40.75a87.17,87.17,0,0,1-66.53,3.65l-.33.95a88.22,88.22,0,0,0,67.29-3.7Zm44.52-49.58a87.18,87.18,0,0,1-44.52,49.58l.43.9a88.2,88.2,0,0,0,45-50.15Zm-3.5-66.54a87.18,87.18,0,0,1,3.5,66.54l.94.33a88.14,88.14,0,0,0-3.54-67.3ZM117.4,2.31a87.19,87.19,0,0,1,49.48,44.63l.9-.43a88.19,88.19,0,0,0-50-45.14ZM5.37,55.62l.48.17ZM126.08,163.51l.21.45Zm44.77-49.86.47.16Zm-3.52-66.93.45-.21Z" transform="translate(0 1)"/><path class="cls-2" d="M116,2.85A1.47,1.47,0,0,1,115.15,1a1.46,1.46,0,0,1,2.76,1A1.47,1.47,0,0,1,116,2.85Z" transform="translate(0 1)"/><g class="cls-3"><path class="cls-2" d="M117,1.62a.46.46,0,0,1-.59.29l-.67,1.88a2.46,2.46,0,0,0,3.15-1.49ZM116.69,1a.46.46,0,0,1,.28.59l1.89.68a2.49,2.49,0,0,0-1.5-3.16Zm-.6.28a.47.47,0,0,1,.6-.28l.67-1.89a2.47,2.47,0,0,0-3.15,1.5Zm.29.6a.48.48,0,0,1-.29-.6L114.21.64a2.46,2.46,0,0,0,1.5,3.15Z" transform="translate(0 1)"/></g><path class="cls-2" d="M58,168.31a1.47,1.47,0,0,1,1-2.77,1.47,1.47,0,0,1-1,2.77Z" transform="translate(0 1)"/><g class="cls-4"><path class="cls-2" d="M58.88,167.08a.47.47,0,0,1-.6.29l-.67,1.88a2.47,2.47,0,0,0,3.16-1.5Zm-.28-.6a.47.47,0,0,1,.28.6l1.89.67a2.48,2.48,0,0,0-1.5-3.15Zm-.6.29a.48.48,0,0,1,.6-.29l.67-1.88a2.45,2.45,0,0,0-3.15,1.5Zm.28.6a.47.47,0,0,1-.28-.6l-1.88-.67a2.46,2.46,0,0,0,1.49,3.15Z" transform="translate(0 1)"/></g></g></g></svg>