<svg xmlns="http://www.w3.org/2000/svg" xmlns:xlink="http://www.w3.org/1999/xlink" viewBox="0 0 24 24"><defs><style>.cls-1{fill:none;}.cls-2{fill:#1e1e1e;}.cls-3{clip-path:url(#clip-path);}.cls-4{fill:#fff;}</style><clipPath id="clip-path" transform="translate(1 1)"><circle class="cls-1" cx="11" cy="11" r="11"/></clipPath></defs><g id="Layer_2" data-name="Layer 2"><g id="Layer_1-2" data-name="Layer 1"><circle class="cls-2" cx="12" cy="12" r="11"/><g class="cls-3"><path class="cls-4" d="M1,11A10,10,0,0,1,11,1V-1A12,12,0,0,0-1,11ZM11,21A10,10,0,0,1,1,11H-1A12,12,0,0,0,11,23ZM21,11A10,10,0,0,1,11,21v2A12,12,0,0,0,23,11ZM11,1A10,10,0,0,1,21,11h2A12,12,0,0,0,11-1Z" transform="translate(1 1)"/></g></g></g></svg>