<svg xmlns="http://www.w3.org/2000/svg" viewBox="0 0 214.84 110.88"><defs><style>.cls-1{fill:#fff;}</style></defs><g id="Layer_2" data-name="Layer 2"><g id="Layer_1-2" data-name="Layer 1"><path class="cls-1" d="M185.91,69.07a23.24,23.24,0,0,1,9.39-1.71v-2a25.15,25.15,0,0,0-10.19,1.88Zm-5.85,4.58a13.4,13.4,0,0,1,5.85-4.58l-.8-1.83a15.43,15.43,0,0,0-6.7,5.27Zm-2,6.47a10.9,10.9,0,0,1,2-6.46l-1.63-1.16a12.87,12.87,0,0,0-2.36,7.62Zm1.43,5.33a9.32,9.32,0,0,1-1.43-5.33h-2a11.3,11.3,0,0,0,1.77,6.45Zm4,3.38a10.52,10.52,0,0,1-4-3.39l-1.64,1.14a12.67,12.67,0,0,0,4.72,4Zm6.17,2.09a30.22,30.22,0,0,1-6.2-2.1l-.86,1.8a32.54,32.54,0,0,0,6.6,2.25Zm7.8,1.73-7.81-1.73-.44,2L197,94.6Zm4.13,1.87a8.69,8.69,0,0,0-4.12-1.87L197,94.6a7.1,7.1,0,0,1,3.17,1.33Zm1.26,2.94a3.93,3.93,0,0,0-1.28-3L200.18,96a1.91,1.91,0,0,1,.65,1.5Zm-.92,2.73a4.29,4.29,0,0,0,.92-2.73h-2a2.33,2.33,0,0,1-.49,1.5Zm-2.75,1.69a5.19,5.19,0,0,0,2.75-1.69L200.34,99a3.31,3.31,0,0,1-1.74,1Zm-4,.49a14.15,14.15,0,0,0,4-.49l-.58-1.92a11.93,11.93,0,0,1-3.42.41Zm-6-.87a21.05,21.05,0,0,0,6,.87v-2a18.94,18.94,0,0,1-5.41-.79Zm-5.35-2.34a24,24,0,0,0,5.35,2.33l.57-1.91a22,22,0,0,1-4.89-2.14Zm-4.15-3.54a18.76,18.76,0,0,0,4.13,3.52l1.07-1.69a16.55,16.55,0,0,1-3.68-3.13ZM176,102.91l5.31-7.36-1.62-1.17-5.31,7.36Zm4.86,2.51a20.65,20.65,0,0,1-4.94-3.78L174.41,103a22.82,22.82,0,0,0,5.42,4.16Zm6.67,2.59a26.4,26.4,0,0,1-6.67-2.59l-1,1.75A28.61,28.61,0,0,0,187,110Zm7.82.87a34.31,34.31,0,0,1-7.84-.87L187,110a36.7,36.7,0,0,0,8.29.92Zm8.86-1.47a24.85,24.85,0,0,1-8.86,1.47v2a26.87,26.87,0,0,0,9.57-1.6Zm5.89-4.34a13.21,13.21,0,0,1-5.9,4.34l.73,1.86a15.18,15.18,0,0,0,6.77-5Zm2.1-7a11.45,11.45,0,0,1-2.11,7l1.62,1.18a13.48,13.48,0,0,0,2.49-8.2Zm-2.63-6.77a8.87,8.87,0,0,1,2.63,6.77h2a10.86,10.86,0,0,0-3.25-8.21Zm-8.82-4c4.15,1,7,2.34,8.82,4l1.38-1.44c-2.15-2.06-5.44-3.54-9.74-4.54Zm-7.09-1.59,7.1,1.6.44-2-7.1-1.6ZM189.16,82a13,13,0,0,0,4.45,1.7l.44-2a11,11,0,0,1-3.75-1.38Zm-1.65-3.12a3.86,3.86,0,0,0,1.6,3.09l1.24-1.57a1.87,1.87,0,0,1-.84-1.52Zm.83-2.63a4.47,4.47,0,0,0-.83,2.63h2a2.45,2.45,0,0,1,.46-1.47Zm2.6-1.77a5.18,5.18,0,0,0-2.6,1.77L190,77.37a3.19,3.19,0,0,1,1.63-1Zm4.17-.57a13,13,0,0,0-4.17.57l.66,1.89a10.94,10.94,0,0,1,3.51-.46Zm7.59,1.57a17.7,17.7,0,0,0-7.59-1.57v2a15.69,15.69,0,0,1,6.74,1.38Zm6.25,4.5a19.63,19.63,0,0,0-6.27-4.51l-.81,1.83a17.51,17.51,0,0,1,5.63,4.06Zm3.79-7L207.43,80l1.6,1.2,5.31-7.1Zm-7.44-3.78a20.55,20.55,0,0,1,7.51,5.07l1.46-1.38A22.53,22.53,0,0,0,206,67.29Zm-10-1.79a25.86,25.86,0,0,1,10,1.78l.77-1.85a28,28,0,0,0-10.75-1.93Zm-9.79.79-.4-.91Zm-6.28,4.93.82.58h0ZM178.66,86l-.83.56h0ZM183,89.72l-.45.89h0Zm6.4,2.18-.23,1h0Zm7.81,1.72.23-1h0Zm3.65,1.6-.71.71h0v0Zm-2,5.7-.28-1h0Zm-9.4-.38-.29.95h0Zm-5.13-2.24-.53.84h0ZM180.45,95l.76-.65-.83-1-.74,1Zm-5.31,7.36-.81-.59-.49.67.57.6Zm5.18,4-.49.87Zm6.91,2.68-.24,1h0Zm17.28-.64.36.94h0Zm6.34-4.67.8.6h0Zm-9.92-19.39.23-1h0Zm-7.1-1.6-.22,1h0Zm-4.1-1.54-.62.79,0,0h0Zm-.58-4.35.82.58Zm2.12-1.41-.33-.94Zm11,1-.42.91h0Zm6,4.29-.73.69.82.86.71-1Zm5.31-7.1.8.6.5-.68-.57-.61Zm-7.87-5.31-.39.92h0Zm-62.29,6.84v9.22h2V75.06Zm9-1h-8v2h8Zm6.89,5.61a5.11,5.11,0,0,0-1.86-4.24,8,8,0,0,0-5-1.37v2a6.15,6.15,0,0,1,3.8.94,3.15,3.15,0,0,1,1.09,2.67Zm-6.89,5.61a8.06,8.06,0,0,0,5-1.36,5.13,5.13,0,0,0,1.86-4.25h-2a3.13,3.13,0,0,1-1.09,2.67,6.15,6.15,0,0,1-3.8.94Zm-8,0h8v-2h-8Zm-1,6.87v9.35h2V92.15Zm10-1h-9v2h9Zm5.12,1.45a7.85,7.85,0,0,0-5.12-1.45v2a6,6,0,0,1,3.85,1Zm1.84,4.16a5.06,5.06,0,0,0-1.86-4.18l-1.23,1.58a3.05,3.05,0,0,1,1.09,2.6Zm-1.84,4.29a5.29,5.29,0,0,0,1.84-4.29h-2a3.32,3.32,0,0,1-1.11,2.75Zm-5.12,1.45a7.91,7.91,0,0,0,5.12-1.45l-1.27-1.54a6,6,0,0,1-3.85,1Zm-9,0h9v-2h-9Zm10.88,5.74h-21.5v2h21.5Zm10.91-2.74c-2.31,1.77-5.89,2.74-10.91,2.74v2c5.22,0,9.32-1,12.13-3.15Zm3.45-7.65a9.11,9.11,0,0,1-3.46,7.66l1.24,1.57a11.11,11.11,0,0,0,4.22-9.23ZM167.45,92a8.41,8.41,0,0,1,2.17,5.86h2a10.38,10.38,0,0,0-2.69-7.2Zm-6.62-3.07c3.08.41,5.23,1.46,6.6,3l1.52-1.3c-1.79-2.08-4.46-3.29-7.86-3.73ZM160,87.86v.07h2v-.07Zm6.69-3.9a9.14,9.14,0,0,1-5.85,2.92l.32,2a11.1,11.1,0,0,0,7.07-3.61Zm1.88-5.57A8.57,8.57,0,0,1,166.64,84l1.56,1.26a10.62,10.62,0,0,0,2.33-6.84Zm-3.32-7.59c2.19,1.69,3.32,4.17,3.32,7.59h2c0-3.92-1.33-7-4.1-9.17ZM154.29,68c5.12,0,8.69,1,10.91,2.79l1.24-1.57C163.71,67.06,159.6,66,154.31,66Zm-20.53,0H154.3V66H133.76Zm1,41.24V67h-2v42.24Zm9.62-34.18v-1h-1v1Zm0,9.22h-1v1h1Zm0,7.87v-1h-1v1Zm13.5,1.22-.63.77h0Zm0,6.91.64.77Zm-13.5,1.22h-1v1h1Zm22.4,4.8.61.79h0Zm1.41-15-.76.65h0ZM161,87.93h-1v.88l.87.11Zm0-.07-.16-1L160,87v.85Zm6.46-3.26.77.64h0ZM165.82,70l-.62.78h0ZM154.3,67V66h0Zm-20.54,0V66h-1v1Zm0,42.24h-1v1h1ZM113,68h11V66H113Zm1,24.22V67h-2V92.22Zm-2.24,7.44c1.55-1.75,2.24-4.29,2.24-7.44h-2c0,2.9-.64,4.88-1.73,6.12Zm-6.63,2.58c2.83,0,5.12-.8,6.64-2.59l-1.51-1.3c-1,1.2-2.67,1.89-5.13,1.89Zm-6.64-2.58a8.45,8.45,0,0,0,6.64,2.58v-2c-2.41,0-4.06-.68-5.14-1.9Zm-2.17-7.44c0,3.14.66,5.68,2.16,7.43l1.52-1.3c-1.06-1.24-1.68-3.22-1.68-6.13Zm0-25.22V92.22h2V67ZM86.21,68H97.28V66H86.21Zm1,24V67h-2V92Zm4.48,12.71C88.76,102,87.21,97.82,87.21,92h-2c0,6.15,1.65,10.94,5.12,14.18Zm13.4,4.15c-6,0-10.46-1.44-13.41-4.15l-1.35,1.47c3.45,3.17,8.43,4.68,14.76,4.68Zm13.4-4.15c-2.91,2.71-7.32,4.15-13.4,4.15v2c6.37,0,11.35-1.5,14.76-4.68ZM123,92c0,5.8-1.55,10-4.49,12.71l1.37,1.47C123.32,103,125,98.17,125,92Zm0-25V92h2V67Zm-10,0V66h-1v1Zm-2,32-.75-.66h0ZM99.2,99l-.76.65h0ZM97.28,67h1V66h-1ZM86.21,67V66h-1v1ZM91,105.46l-.68.74h0Zm28.16,0,.68.74h0ZM124,67h1V66h-1ZM57.64,67v33.73h2V67Zm-10,1h11V66h-11Zm1,41.24V67h-2v42.24Zm31.2-1H47.63v2h32.2Zm-1-7.51v8.51h2v-8.51Zm-20.19,1H79.83v-2H58.64Zm0-34.73h1V66h-1Zm-11,0V66h-1v1Zm0,42.24h-1v1h1Zm32.2,0v1h1v-1Zm0-8.51h1v-1h-1Zm-21.19,0h-1v1h1ZM30,95.29l10,2.82.54-1.93-10-2.81Zm-2.05,5.07a9.85,9.85,0,0,0,3.3-5.82l-2-.43a7.86,7.86,0,0,1-2.59,4.68Zm-5.81,1.88a9.09,9.09,0,0,0,5.8-1.88l-1.23-1.57a7.14,7.14,0,0,1-4.57,1.45Zm-6.05-1.64a10.79,10.79,0,0,0,6.05,1.64v-2a8.73,8.73,0,0,1-4.95-1.31Zm-3.66-4.9a9.84,9.84,0,0,0,3.65,4.9l1.12-1.66A7.82,7.82,0,0,1,14.29,95Zm-1.15-7.58a22.18,22.18,0,0,0,1.15,7.58L14.29,95a20.09,20.09,0,0,1-1-6.89Zm1.23-7.6a20.55,20.55,0,0,0-1.23,7.6h2a18.74,18.74,0,0,1,1.08-6.86Zm3.76-4.88a10.54,10.54,0,0,0-3.76,4.87l1.85.76a8.51,8.51,0,0,1,3-4ZM22.06,74a10.33,10.33,0,0,0-5.8,1.64l1.1,1.67A8.34,8.34,0,0,1,22.06,76Zm5.65,1.67A9.24,9.24,0,0,0,22.06,74v2a7.27,7.27,0,0,1,4.46,1.28Zm3.32,6c-.62-2.74-1.68-4.84-3.33-6l-1.17,1.62c1.07.78,2,2.31,2.55,4.85Zm8.32-4.61L29.68,81l.75,1.86,9.66-3.9Zm-4-5a13.33,13.33,0,0,1,3.39,6.15l1.94-.52a15.48,15.48,0,0,0-3.91-7Zm-5.87-3.53a14.6,14.6,0,0,1,5.87,3.53l1.42-1.41a16.62,16.62,0,0,0-6.67-4Zm-7.82-1.23a23.55,23.55,0,0,1,7.8,1.23l.66-1.9a26,26,0,0,0-8.46-1.33Zm-10.52,2.5a21,21,0,0,1,10.52-2.5v-2a23.11,23.11,0,0,0-11.5,2.75Zm-6.76,7a16.19,16.19,0,0,1,6.75-7l-1-1.75A18.2,18.2,0,0,0,2.61,76ZM2,88.12A24.35,24.35,0,0,1,4.39,76.86L2.61,76A26.32,26.32,0,0,0,0,88.12ZM4.39,99.38A24.35,24.35,0,0,1,2,88.12H0a26.32,26.32,0,0,0,2.61,12.17Zm6.76,7.07a16.55,16.55,0,0,1-6.76-7.07l-1.78.91a18.6,18.6,0,0,0,7.56,7.9Zm10.59,2.43a21.74,21.74,0,0,1-10.6-2.44l-1,1.76a23.73,23.73,0,0,0,11.56,2.68Zm7.86-1.23a23.74,23.74,0,0,1-7.86,1.23v2a26.05,26.05,0,0,0,8.51-1.33Zm6-3.9a15.43,15.43,0,0,1-6,3.91l.68,1.88a17.48,17.48,0,0,0,6.78-4.41Zm3.67-6.87a16.33,16.33,0,0,1-3.67,6.88l1.46,1.36a18.16,18.16,0,0,0,4.14-7.71Zm-9-2.55.27-1-1-.29-.23,1ZM27.3,99.58l.62.78h0Zm-10.68.19-.56.83h0Zm-3.27-4.42-.94.35Zm.07-14.46-.93-.38h0Zm3.39-4.42-.55-.83h0Zm10.3,0-.59.81h0Zm2.95,5.44-1,.22.26,1.15,1.09-.44ZM39.72,78l.37.93.83-.34-.23-.85Zm-3.65-6.59.71-.71ZM29.8,67.64l-.33,1h0ZM10.66,69l.48.88h0ZM3.5,76.41l.89.45Zm0,23.42.89-.45Zm7.16,7.49-.49.87h0Zm19.27,1.28.32,1h0Zm6.4-4.16.72.69h0Zm3.9-7.3,1,.27.26-1-1-.27ZM182.7,42.24H149v2H182.7Zm-1-7.51v8.51h2V34.73Zm-21.72,1H182.7v-2H160Zm-1-9.64v8.64h2V26.09Zm18.41-1H160v2h17.41Zm-1-7v8h2v-8Zm-16.41,1h17.41v-2H160Zm-1-9.58v8.58h2V9.51Zm22.89-1H160v2h21.89Zm-1-7.51V9.51h2V1ZM149,2h32.9V0H149Zm1,41.24V1h-2V43.24Zm32.73,0v1h1v-1Zm0-8.51h1v-1h-1Zm-22.72,0h-1v1h1Zm0-8.64v-1h-1v1Zm17.41,0v1h1v-1Zm0-8h1v-1h-1Zm-17.41,0h-1v1h1Zm0-8.58v-1h-1v1Zm21.89,0v1h1v-1Zm0-8.51h1V0h-1ZM149,1V0h-1V1Zm0,42.24h-1v1h1ZM102.81,2H141.4V0H102.81Zm1,7.51V1h-2V9.51Zm12.82-1H102.81v2h13.82Zm1,34.73V9.51h-2V43.24Zm10-1h-11v2h11Zm-1-32.73V43.24h2V9.51Zm14.76-1H127.64v2H141.4ZM140.4,1V9.51h2V1ZM102.81,1V0h-1V1Zm0,8.51h-1v1h1Zm13.82,0h1v-1h-1Zm0,33.73h-1v1h1Zm11,0v1h1v-1Zm0-33.73v-1h-1v1Zm13.76,0v1h1v-1Zm0-8.51h1V0h-1ZM84.23,2h11V0h-11Zm1,41.24V1h-2V43.24Zm10-1h-11v2h11ZM94.23,1V43.24h2V1Zm-10,0V0h-1V1Zm0,42.24h-1v1h1Zm11,0v1h1v-1ZM95.23,1h1V0h-1ZM54.46,1V34.73h2V1Zm-10,1h11V0h-11Zm1,41.24V1h-2V43.24Zm31.19-1H44.45v2H76.64Zm-1-7.51v8.51h2V34.73Zm-20.18,1H76.64v-2H55.46ZM55.46,1h1V0h-1Zm-11,0V0h-1V1Zm0,42.24h-1v1h1Zm32.19,0v1h1v-1Zm0-8.51h1v-1h-1Zm-21.18,0h-1v1h1ZM36.52,42.24H2.79v2H36.52Zm-1-7.51v8.51h2V34.73Zm-21.72,1H36.52v-2H13.8Zm-1-9.64v8.64h2V26.09Zm18.41-1H13.8v2H31.21Zm-1-7v8h2v-8Zm-16.41,1H31.21v-2H13.8Zm-1-9.58v8.58h2V9.51Zm22.89-1H13.8v2H35.69ZM34.69,1V9.51h2V1ZM2.79,2h32.9V0H2.79Zm1,41.24V1h-2V43.24Zm32.73,0v1h1v-1Zm0-8.51h1v-1h-1Zm-22.72,0h-1v1h1Zm0-8.64v-1h-1v1Zm17.41,0v1h1v-1Zm0-8h1v-1h-1Zm-17.41,0h-1v1h1Zm0-8.58v-1h-1v1Zm21.89,0v1h1v-1Zm0-8.51h1V0h-1ZM2.79,1V0h-1V1Zm0,42.24h-1v1h1Z"></path><path class="cls-1" d="M149,43.24V1h32.9V9.51H160v8.58h17.41v8H160v8.64H182.7v8.51ZM141.4,1V9.51H127.64V43.24h-11V9.51H102.81V1ZM95.23,1V43.24h-11V1ZM55.46,34.73H76.64v8.51H44.45V1h11ZM2.79,43.24V1h32.9V9.51H13.8v8.58H31.21v8H13.8v8.64H36.52v8.51Z"></path></g></g></svg>