<svg xmlns="http://www.w3.org/2000/svg" viewBox="0 0 262.94 269.52"><defs><style>.cls-1{fill:#2f2f2f;}</style></defs><g id="Layer_2" data-name="Layer 2"><g id="Layer_1-2" data-name="Layer 1"><path d="M74.26,188.61a1.06,1.06,0,0,1,0,2.11,1.06,1.06,0,1,1,0-2.11Z"/><path class="cls-1" d="M237.06,202.06c.18-.48.36-1,.53-1.45l-7.54-2.69c-.15.44-.31.87-.47,1.3Zm-2.88,6.6c.45-.92.89-1.85,1.31-2.79l-7.31-3.25q-.56,1.26-1.17,2.49Zm-3.51,6.3c.54-.87,1.07-1.76,1.58-2.66l-7-3.94c-.46.8-.93,1.59-1.41,2.36Zm-4.12,5.92c.63-.82,1.24-1.64,1.83-2.49l-6.53-4.61c-.53.75-1.08,1.49-1.64,2.21Zm-4.69,5.48c.71-.75,1.4-1.51,2.08-2.29l-6.05-5.24c-.6.7-1.22,1.38-1.85,2Zm-5.19,5c.77-.68,1.53-1.37,2.28-2.08l-5.5-5.81c-.67.63-1.34,1.25-2,1.85ZM211,235.82c.84-.6,1.67-1.21,2.48-1.84l-4.9-6.32c-.73.56-1.47,1.11-2.21,1.64Zm-6.07,3.88c.89-.51,1.78-1,2.65-1.59l-4.26-6.77c-.78.49-1.57,1-2.37,1.42ZM198.51,243q1.41-.63,2.79-1.32l-3.58-7.15c-.82.41-1.65.8-2.49,1.18Zm-6.71,2.64q1.47-.5,2.91-1.05l-2.87-7.47c-.86.33-1.72.64-2.59.94Zm-6.93,2c1-.23,2-.48,3-.76l-2.12-7.71c-.89.24-1.78.47-2.67.68Zm-7.1,1.28c1-.13,2-.29,3.06-.46l-1.36-7.89c-.91.16-1.81.3-2.73.41Zm-7.19.57c1,0,2.07-.08,3.09-.16l-.58-8c-.91.07-1.83.12-2.75.14Zm-7.21-.14c1,.07,2.06.12,3.09.15l.21-8c-.91,0-1.83-.07-2.75-.13Zm-7.16-.85q1.53.25,3.06.45l1-7.94c-.91-.11-1.81-.24-2.72-.4Zm-7-1.55c1,.27,2,.52,3,.75l1.78-7.8c-.89-.21-1.78-.43-2.67-.67Zm-5.41-1.7c.49.18,1,.35,1.46.51l2.53-7.59-1.31-.45Zm-1.45-.53,1.45.53,2.68-7.53-1.3-.48Zm-6.61-2.88c.92.46,1.85.89,2.8,1.31l3.24-7.31q-1.26-.56-2.49-1.17Zm-6.29-3.51c.87.54,1.75,1.07,2.65,1.58l4-7q-1.2-.67-2.37-1.41Zm-5.92-4.12c.81.63,1.64,1.24,2.48,1.84l4.62-6.54c-.75-.53-1.49-1.07-2.22-1.63ZM118,229.46c.75.7,1.51,1.39,2.29,2.07l5.24-6.05c-.69-.6-1.37-1.21-2-1.84Zm-5-5.2c.67.77,1.36,1.54,2.07,2.29L120.9,221c-.63-.66-1.25-1.34-1.85-2Zm-4.46-5.66c.59.83,1.21,1.66,1.84,2.48l6.32-4.91c-.56-.73-1.11-1.46-1.64-2.21Zm-3.89-6.08c.51.9,1,1.78,1.59,2.65l6.77-4.26c-.49-.78-1-1.57-1.42-2.36Zm-3.27-6.42c.42.94.86,1.87,1.33,2.79l7.15-3.58c-.41-.82-.81-1.65-1.18-2.49Zm-2.63-6.7c.33,1,.68,1.94,1,2.9l7.46-2.87c-.33-.85-.64-1.72-.93-2.59Zm-2-6.94c.24,1,.49,2,.76,3l7.71-2.13c-.24-.89-.46-1.78-.67-2.67Zm-1.27-7.09c.13,1,.28,2,.46,3l7.88-1.36c-.15-.9-.29-1.81-.41-2.72ZM95,178.18c0,1,.09,2.06.16,3.08l8-.57c-.06-.92-.11-1.83-.14-2.75Zm.14-7.21C95,172,95,173,95,174.06l8,.21c0-.92.07-1.83.14-2.75Zm.86-7.16c-.18,1-.33,2-.46,3.05l7.94,1c.12-.9.25-1.81.4-2.72Zm1.55-7c-.28,1-.53,2-.75,3l7.8,1.77q.3-1.33.66-2.67Zm1.69-5.41c-.17.49-.34,1-.5,1.47l7.59,2.52c.14-.43.29-.87.45-1.31Zm136,50,.52-1.41-3.77-1.35c-.16.45-.32.9-.49,1.34Zm-2.8,6.43c.44-.9.86-1.81,1.27-2.72L230,203.43c-.39.87-.79,1.73-1.21,2.57ZM229,213.9c.53-.85,1-1.71,1.54-2.58l-3.48-2c-.47.83-.95,1.64-1.45,2.44Zm-4,5.76c.61-.79,1.21-1.6,1.79-2.42l-3.27-2.31c-.54.78-1.11,1.54-1.68,2.28ZM220.41,225c.69-.73,1.36-1.47,2-2.23l-3-2.62c-.62.72-1.25,1.42-1.9,2.11Zm-5.06,4.86c.76-.66,1.5-1.33,2.23-2l-2.75-2.91c-.69.66-1.39,1.29-2.1,1.91Zm-5.51,4.34c.82-.58,1.62-1.18,2.42-1.79l-2.46-3.16c-.74.58-1.5,1.14-2.27,1.69Zm-5.9,3.78c.87-.5,1.72-1,2.57-1.55L204.38,233q-1.2.76-2.43,1.47Zm-6.25,3.18c.91-.41,1.82-.84,2.72-1.29l-1.8-3.58c-.84.43-1.7.83-2.56,1.22Zm-6.53,2.56c1-.32,1.9-.66,2.83-1L192.56,239q-1.34.51-2.67,1Zm-6.74,1.91c1-.22,2-.47,2.91-.74L186.27,241c-.91.25-1.83.48-2.75.7Zm-6.9,1.24c1-.12,2-.27,3-.44l-.68-3.95c-.93.16-1.87.31-2.81.43Zm-7,.56c1,0,2-.08,3-.15l-.29-4c-.94.07-1.89.11-2.84.14Zm-7-.13c1,.06,2,.11,3,.14l.11-4c-.94,0-1.89-.07-2.83-.14Zm-7-.83c1,.17,2,.31,3,.44l.5-4c-.93-.12-1.87-.26-2.8-.42ZM149.7,245c1,.26,1.94.51,2.92.73l.88-3.9c-.91-.21-1.83-.44-2.75-.69Zm-5.26-1.65,1.43.49,1.26-3.79-1.35-.47Zm-1.42-.52,1.42.52,1.34-3.77-1.34-.49ZM136.6,240c.89.44,1.8.87,2.72,1.28l1.62-3.66c-.87-.39-1.72-.79-2.57-1.21Zm-6.12-3.42c.84.53,1.7,1,2.58,1.54l2-3.48c-.82-.47-1.64-1-2.44-1.45Zm-5.76-4c.79.61,1.6,1.2,2.42,1.78l2.3-3.26c-.77-.55-1.53-1.11-2.28-1.69ZM119.38,228c.73.69,1.48,1.36,2.23,2l2.62-3c-.71-.63-1.41-1.26-2.1-1.91ZM114.53,223c.65.75,1.33,1.49,2,2.22l2.9-2.75c-.65-.69-1.29-1.39-1.91-2.1Zm-4.34-5.51c.58.81,1.17,1.62,1.79,2.41l3.16-2.45c-.58-.75-1.15-1.51-1.69-2.28Zm-3.78-5.91c.5.87,1,1.73,1.55,2.58l3.38-2.14c-.5-.8-1-1.61-1.46-2.43Zm-3.19-6.25c.42.92.85,1.82,1.29,2.72l3.58-1.79c-.42-.85-.83-1.7-1.22-2.57Zm-2.56-6.52q.48,1.43,1,2.82l3.74-1.43c-.34-.88-.66-1.77-1-2.67ZM98.75,192c.23,1,.47,2,.74,2.91l3.86-1.06c-.25-.91-.49-1.83-.7-2.75Zm-1.24-6.9q.19,1.48.45,3l3.94-.68c-.16-.93-.3-1.87-.42-2.81Zm-.56-7c0,1,.09,2,.16,3l4-.29c-.07-.94-.12-1.89-.15-2.83Zm.14-7c-.07,1-.12,2-.14,3l4,.1c0-.94.06-1.88.13-2.83Zm.83-7c-.17,1-.32,2-.44,3l4,.5c.11-.93.25-1.87.41-2.8Zm1.51-6.85c-.27,1-.51,2-.73,2.92l3.9.89c.21-.92.44-1.84.68-2.76Zm1.64-5.26c-.16.48-.33.95-.49,1.43l3.8,1.26c.15-.45.3-.9.46-1.35Z"/><path class="cls-1" d="M192.05,109.48A67.45,67.45,0,0,1,233,195.64l3.77,1.34a71.45,71.45,0,0,0-43.37-91.27ZM105.9,150.42a67.44,67.44,0,0,1,86.15-40.94l1.34-3.77a71.44,71.44,0,0,0-91.26,43.37Z"/><path class="cls-1" d="M246.36,137.79,257.65,147l.63-.77L247,137ZM131,96.64l-15.64.84,0,1L131,97.64Zm66-2.82a86.27,86.27,0,0,1,49.23,43.8l.9-.43a87.19,87.19,0,0,0-49.8-44.31Zm-65.79,3.77A86.23,86.23,0,0,1,197,93.82l.33-.94a87.23,87.23,0,0,0-66.55,3.81ZM90.91,212.51a86.17,86.17,0,0,1-3.61-65.79l-1-.33A87.25,87.25,0,0,0,90,213Zm49,44a86.23,86.23,0,0,1-49-44L90,213a87.21,87.21,0,0,0,49.6,44.53Zm65.8-3.47a86.19,86.19,0,0,1-65.8,3.47l-.33.94a87.26,87.26,0,0,0,66.57-3.5Zm44.14-48.92a86.16,86.16,0,0,1-44.14,48.92l.44.91a87.24,87.24,0,0,0,44.64-49.5Zm-3.2-66.75-.45.22.05.1.08.07ZM197.16,93.35l-.16.47ZM131,97.14l0,.5h.1l.09,0ZM90.46,212.73,90,213ZM139.77,257l.17-.47Z"/><path class="cls-1" d="M138,263.34A93.29,93.29,0,0,1,84.73,216l-.9.44a94.28,94.28,0,0,0,53.84,47.89Zm71.18-4.07A93.33,93.33,0,0,1,138,263.34l-.32.94a94.28,94.28,0,0,0,71.94-4.11Zm43.6-124.35a93.3,93.3,0,0,1,3.91,71.19l.95.33a94.3,94.3,0,0,0-4-71.95ZM199.72,87.29a93.29,93.29,0,0,1,53.05,47.63l.9-.43a94.29,94.29,0,0,0-53.61-48.14ZM128.53,91a93.28,93.28,0,0,1,71.19-3.75l.34-.94a94.31,94.31,0,0,0-72,3.79ZM80.78,144A93.26,93.26,0,0,1,128.53,91l-.43-.9a94.28,94.28,0,0,0-48.27,53.5Zm57.05,119.83-.16.47Zm115.39-129.1.45-.22ZM199.89,86.82l.17-.47Zm-71.58,3.77.22.45Z"/><path d="M81.39,145.44a1.57,1.57,0,1,1-1-2A1.58,1.58,0,0,1,81.39,145.44Z"/><path class="cls-1" d="M28.78,147a12.5,12.5,0,0,1-12.5-12.5h-1A13.5,13.5,0,0,0,28.78,148Zm-12.5-12.5V47.94h-1v86.58ZM67.94,147H28.78v1H67.94Z"/><path class="cls-1" d="M10.5,75.36A9.5,9.5,0,0,1,1,65.86H0a10.5,10.5,0,0,0,10.5,10.5ZM1,65.86V0H0V65.86Zm14.25,9.5H10.5v1h4.75Z"/></g></g></svg>