<svg xmlns="http://www.w3.org/2000/svg" viewBox="0 0 167.52 544.48"><defs><style>.cls-1{fill:#e9f75f;}</style></defs><g id="Layer_2" data-name="Layer 2"><g id="Layer_1-2" data-name="Layer 1"><path class="cls-1" d="M157.16,192.82a5.89,5.89,0,0,1-1.29-4.07h-2a7.87,7.87,0,0,0,1.79,5.4Zm3.54,1.33a4.58,4.58,0,0,1-3.56-1.34l-1.47,1.35a6.56,6.56,0,0,0,5,2Zm3.49-1.34a4.49,4.49,0,0,1-3.49,1.34v2a6.41,6.41,0,0,0,5-2Zm1.27-4.06a5.89,5.89,0,0,1-1.29,4.07l1.5,1.33a7.87,7.87,0,0,0,1.79-5.4Zm-1.27-4a5.65,5.65,0,0,1,1.27,4h2a7.6,7.6,0,0,0-1.81-5.35Zm-3.49-1.41a4.37,4.37,0,0,1,3.47,1.39l1.5-1.33a6.37,6.37,0,0,0-5-2.06Zm-3.54,1.39a4.42,4.42,0,0,1,3.54-1.39v-2a6.46,6.46,0,0,0-5,2.06Zm-1.29,4a5.65,5.65,0,0,1,1.27-4l-1.47-1.36a7.64,7.64,0,0,0-1.8,5.35Zm.54,4.74-.75.66h0Zm8.51,0,.73.67h0Zm0-9.41-.75.66h0Zm-8.51,0,.73.68h0Zm8.47,17.83v33.73h2V201.91Zm-7.51,1h8.51v-2h-8.51Zm1,21.72V201.91h-2v22.72Zm-9.64,1h8.64v-2h-8.64Zm-1-18.41v17.41h2V207.22Zm-7,1h8v-2h-8Zm1,16.41V207.22h-2v17.41Zm-9.58,1h8.58v-2h-8.58Zm-1-22.89v21.89h2V202.74Zm-7.51,1h8.51v-2h-8.51Zm1,31.9v-32.9h-2v32.9Zm41.24-1H123.64v2h42.24Zm0-32.73h1v-1h-1Zm-8.51,0v-1h-1v1Zm0,22.72v1h1v-1Zm-8.64,0h-1v1h1Zm0-17.41h1v-1h-1Zm-8,0v-1h-1v1Zm0,17.41v1h1v-1Zm-8.58,0h-1v1h1Zm0-21.89h1v-1h-1Zm-8.51,0v-1h-1v1Zm0,32.9h-1v1h1Zm42.24,0v1h1v-1Zm-41.24,25.67v-15h-2v15ZM145.5,267l-21.57-6.6-.58,1.92,21.57,6.59Zm8.87,2.42-8.9-2.43-.53,1.93,8.9,2.43Zm.73,1.09v-.12h-2v.12Zm-9.7,3.34,9-2.37-.51-1.93-9,2.36Zm-21.46,6.64,21.5-6.65-.59-1.91-21.51,6.65Zm.7,14.73V279.49h-2v15.68Zm41.24-1H123.64v2h42.24Zm-1-8.79v9.79h2v-9.79Zm-18.39,1h19.39v-2H146.49Zm-13,.31,13-.31,0-2-13,.32Zm-1-1.12v.13h2v-.13Zm33.07-11.39-32.38,10.44.61,1.9,32.39-10.43Zm-.69-7.94v8.9h2v-8.9Zm-31.69-9.48,32.38,10.43.62-1.9L133.8,254.86Zm-.69-1.08v.13h2v-.13Zm14-.68-13-.32-.05,2,13,.32Zm19.37,0H146.49v2h19.39Zm-1-8.73V256h2v-9.73Zm-41.24,1h42.24v-2H123.64Zm0,14h-1v.74l.71.22Zm21.57,6.59-.29,1h0Zm8.89,2.44h1v-.77l-.73-.2Zm0,.12.26,1,.74-.2v-.77Zm-9,2.37-.25-1h0Zm-21.5,6.66-.3-1-.7.22v.74Zm0,15.68h-1v1h1Zm42.24,0v1h1v-1Zm0-9.79h1v-1h-1Zm-19.39,0v-1h0Zm-13,.32h-1v1l1,0Zm0-.13-.31-.95-.69.22v.73Zm32.38-10.43.31.95.69-.23v-.72Zm0-8.9h1v-.73l-.69-.22ZM133.5,255.81h-1v.73l.69.22Zm0-.13,0-1-1,0v1Zm13,.32,0,1h0Zm19.39,0v1h1v-1Zm0-9.73h1v-1h-1Zm-42.24,0v-1h-1v1Zm8.19,77.63,6.6,1.72.5-1.93L132.34,322Zm-.74-1.1v.13h2v-.13Zm7.39-2.82-6.66,1.86.54,1.92,6.65-1.85Zm10.09-3.06L138.45,320l.58,1.91,10.12-3.07Zm1.29,10.94v-10h-2v10Zm-11.48-2.25,10.18,3.2.6-1.91L139,323.7Zm26.5,7.49v11.08h2V333.1Zm-8.83-2,9.54,2.94.58-1.91-9.53-2.95Zm-.71-15.55v14.59h2V315.57Zm10.25-3.84-9.54,2.88.58,1.91,9.54-2.87Zm-.71-10.37v11.33h2V301.36ZM124,317.09l42.24-14.79-.66-1.88L123.31,315.2Zm.67,12.24V316.14h-2v13.19Zm41.57,13.9L124,328.38l-.66,1.89,42.24,14.85Zm-34.12-20.3h-1v.77l.74.2Zm0-.13-.27-1-.73.2v.76Zm6.65-1.86.27,1h0Zm10.12-3.07h1v-1.35l-1.29.4Zm0,10-.3.95,1.3.41v-1.36Zm-10.18-3.2.3-1h0Zm27.2,8.44h1v-.73l-.71-.22Zm-9.54-2.94h-1v.74l.71.22Zm0-14.59-.29-1-.71.22v.74Zm9.54-2.88.29,1,.71-.22v-.74Zm0-11.33h1V300l-1.33.47Zm-42.24,14.78-.33-.94-.67.23v.71Zm0,13.19h-1V330l.67.23Zm42.24,14.85-.33.94,1.33.47v-1.41Zm-1.73,18.58a16.26,16.26,0,0,1,1.37,7.06h2A18.23,18.23,0,0,0,166,361.9Zm-4-4.51a11,11,0,0,1,4,4.52l1.8-.88a12.92,12.92,0,0,0-4.72-5.33Zm5.63-2.29-5.18.45.17,2L166,358Zm-.91-6.49V357h2v-7.48Zm-21.78,1h22.78v-2H143.1Zm1,18v-19h-2v19Zm6.36-1H143.1v2h7.36Zm-1-8.66v9.66h2v-9.66Zm1.64-1h-.64v2h.64Zm6.12,2.85a7.05,7.05,0,0,0-6.12-2.85v2a5.07,5.07,0,0,1,4.49,2Zm1.92,6.66a11.23,11.23,0,0,0-1.92-6.66l-1.63,1.16a9.23,9.23,0,0,1,1.55,5.5ZM155.5,376c2.47-2,3.64-4.93,3.64-8.65h-2c0,3.28-1,5.58-2.89,7.09Zm-10.74,2.85c4.62,0,8.26-.89,10.73-2.84l-1.24-1.57c-2,1.55-5.07,2.41-9.49,2.41Zm-10.34-2.77c2.47,1.9,6,2.77,10.34,2.77v-2c-4.16,0-7.14-.84-9.12-2.35Zm-3.78-8.15a9.78,9.78,0,0,0,3.78,8.15l1.22-1.58a7.81,7.81,0,0,1-3-6.57Zm1.65-5.82a10,10,0,0,0-1.65,5.82h2a8,8,0,0,1,1.29-4.68Zm5.31-3.34a8.85,8.85,0,0,0-5.31,3.34l1.64,1.14a6.92,6.92,0,0,1,4.16-2.55Zm-4.71-8.84,4,10.17,1.86-.73-4-10.18Zm-6.4,7a15.71,15.71,0,0,1,7.72-6.43l-.79-1.84a17.68,17.68,0,0,0-8.66,7.27ZM124,368c0-4.71.86-8.37,2.48-11.07l-1.71-1C122.89,359,122,363,122,368Zm2.5,10.79A22.23,22.23,0,0,1,124,368h-2a24.08,24.08,0,0,0,2.75,11.75Zm7.14,6.88a16.73,16.73,0,0,1-7.14-6.89l-1.75,1a18.86,18.86,0,0,0,8,7.7Zm11.18,2.45a23.8,23.8,0,0,1-11.18-2.44l-.93,1.77a25.81,25.81,0,0,0,12.11,2.67Zm11.4-2.32a25.37,25.37,0,0,1-11.4,2.32v2a27.2,27.2,0,0,0,12.29-2.54Zm6.94-6.39a16.1,16.1,0,0,1-6.94,6.39l.89,1.78a18,18,0,0,0,7.78-7.18Zm2.36-9.55a19,19,0,0,1-2.37,9.55l1.74,1a21,21,0,0,0,2.63-10.54Zm-.47-7.49.9-.43h0Zm-4.35-4.93-.09-1-2.94.25,2.49,1.59Zm5.18-.45.09,1,.91-.08V357Zm0-7.48h1v-1h-1Zm-22.78,0v-1h-1v1Zm0,19h-1v1h1Zm7.36,0v1h1v-1Zm0-9.66v-1h-1v1Zm5.95,2.43.81-.58Zm-1.54,13.95.62.79h0Zm-19.84.07-.61.79h0Zm-1.92-12.61-.82-.57Zm4.74-2.94.24,1,1.11-.28-.42-1.05Zm-4-10.18.93-.37-.38-1-1,.41Zm-8.2,6.85.86.51h0Zm0,22.85-.87.48h0Zm7.56,7.29.46-.88h0ZM164,379.87l.87.49h0Zm.86,34.94v33.73h2V414.81Zm-7.51,1h8.51v-2h-8.51Zm1,21.72V414.81h-2v22.72Zm-9.64,1h8.64v-2h-8.64Zm-1-18.41v17.41h2V420.12Zm-7,1h8v-2h-8Zm1,16.41V420.12h-2v17.41Zm-9.58,1h8.58v-2h-8.58Zm-1-22.89v21.89h2V415.64Zm-7.51,1h8.51v-2h-8.51Zm1,31.9v-32.9h-2v32.9Zm41.24-1H123.64v2h42.24Zm0-32.73h1v-1h-1Zm-8.51,0v-1h-1v1Zm0,22.72v1h1v-1Zm-8.64,0h-1v1h1Zm0-17.41h1v-1h-1Zm-8,0v-1h-1v1Zm0,17.41v1h1v-1Zm-8.58,0h-1v1h1Zm0-21.89h1v-1h-1Zm-8.51,0v-1h-1v1Zm0,32.9h-1v1h1Zm42.24,0v1h1v-1Zm-41.24,48.78v-11h-2v11Zm41.24-1H123.64v2h42.24Zm-1-10v11h2v-11Zm-16,1h17v-2h-17Zm-1-17.13v16.13h2V470.18Zm18-1h-17v2h17Zm-1-10v11h2v-11Zm-41.24,1h42.24v-2H123.64Zm1,10v-11h-2v11Zm15.7-1h-16.7v2h16.7Zm1,17.13V470.18h-2v16.13Zm-17.7,1h16.7v-2h-16.7Zm0,10h-1v1h1Zm42.24,0v1h1v-1Zm0-11h1v-1h-1Zm-17,0h-1v1h1Zm0-16.13v-1h-1v1Zm17,0v1h1v-1Zm0-11h1v-1h-1Zm-42.24,0v-1h-1v1Zm0,11h-1v1h1Zm16.7,0h1v-1h-1Zm0,16.13v1h1v-1Zm-16.7,0v-1h-1v1Zm1,57.17V504.89h-2v38.59Zm7.51-1h-8.51v2h8.51Zm-1-12.82v13.82h2V529.66Zm34.73-1H132.15v2h33.73Zm-1-10v11h2v-11Zm-32.73,1h33.73v-2H132.15Zm-1-14.76v13.76h2V504.89Zm-7.51,1h8.51v-2h-8.51Zm0,37.59h-1v1h1Zm8.51,0v1h1v-1Zm0-13.82v-1h-1v1Zm33.73,0v1h1v-1Zm0-11h1v-1h-1Zm-33.73,0h-1v1h1Zm0-13.76h1v-1h-1Zm-8.51,0v-1h-1v1ZM62.64,2h8.51V0H62.64Zm1,31.83V1h-2V33.83Zm41.24-1H62.64v2h42.24Zm-1-10v11h2v-11Zm-15.26,1h16.26v-2H88.62Zm-1-18.4v17.4h2V5.42Zm-7.51,1h8.51v-2H80.11Zm1,16.4V5.42h-2v17.4Zm-10,1h9v-2h-9ZM70.15,1V22.82h2V1ZM62.64,1V0h-1V1Zm0,32.83h-1v1h1Zm42.24,0v1h1v-1Zm0-11h1v-1h-1Zm-16.26,0h-1v1h1Zm0-17.4h1v-1h-1Zm-8.51,0v-1h-1v1Zm0,17.4v1h1v-1Zm-9,0h-1v1h1ZM71.15,1h1V0h-1Zm2.23,54.57a9.11,9.11,0,0,0-3.74,7.79h2a7.13,7.13,0,0,1,2.92-6.17ZM83.76,53c-4.45,0-8,.82-10.39,2.63l1.2,1.6C76.49,55.75,79.5,55,83.76,55Zm10.45,2.62c-2.47-1.8-6-2.62-10.45-2.62v2c4.25,0,7.29.8,9.27,2.24Zm3.67,7.79a9.17,9.17,0,0,0-3.67-7.78L93,57.18a7.19,7.19,0,0,1,2.86,6.18ZM94.21,71.2a9.23,9.23,0,0,0,3.67-7.84h-2A7.22,7.22,0,0,1,93,69.59ZM83.76,73.83c4.45,0,8-.83,10.45-2.63L93,69.59c-2,1.44-5,2.24-9.27,2.24ZM73.37,71.2c2.43,1.8,5.94,2.63,10.39,2.63v-2c-4.26,0-7.27-.8-9.19-2.24Zm-3.73-7.84a9.17,9.17,0,0,0,3.74,7.84l1.18-1.61a7.19,7.19,0,0,1-2.92-6.23ZM65.5,74A21.38,21.38,0,0,1,63,63.36H61A23.36,23.36,0,0,0,63.75,75Zm7,6.71a16.31,16.31,0,0,1-7-6.7l-1.75,1a18.41,18.41,0,0,0,7.84,7.51Zm11.26,2.38A24.48,24.48,0,0,1,72.5,80.71l-.91,1.78a26.44,26.44,0,0,0,12.17,2.6ZM95,80.71a24.48,24.48,0,0,1-11.26,2.38v2a26.44,26.44,0,0,0,12.17-2.6ZM102.09,74A16.79,16.79,0,0,1,95,80.71l.91,1.78a18.76,18.76,0,0,0,7.9-7.5Zm2.43-10.64A21.86,21.86,0,0,1,102.08,74l1.76,1a23.85,23.85,0,0,0,2.68-11.61Zm-2.43-10.53a21.46,21.46,0,0,1,2.43,10.53h2a23.3,23.3,0,0,0-2.69-11.5ZM95,46.07a16.63,16.63,0,0,1,7.07,6.77l1.74-1a18.62,18.62,0,0,0-7.9-7.57ZM83.76,43.68A24.35,24.35,0,0,1,95,46.07l.91-1.78a26.44,26.44,0,0,0-12.17-2.61ZM72.5,46.07a24.35,24.35,0,0,1,11.26-2.39v-2a26.44,26.44,0,0,0-12.17,2.61Zm-7,6.76a16.16,16.16,0,0,1,7-6.76l-.91-1.78a18.17,18.17,0,0,0-7.84,7.58ZM63,63.36a21,21,0,0,1,2.49-10.52l-1.73-1A22.81,22.81,0,0,0,61,63.36Zm11-7,.59.81h0Zm19.65,0,.59-.8h0Zm0,14,.59.8h0ZM74,70.4l.6-.81h0Zm-9.35,4.09L65.5,74h0Zm7.43,7.11.45-.89Zm23.42,0L95,80.71ZM103,74.49l.87.5h0Zm0-22.14.87-.49h0Zm-7.49-7.17.46-.89Zm-23.42,0-.46-.89Zm-7.43,7.17.87.49h0Zm-2,77.81H96.37v-2H62.64Zm1,10v-11h-2v11Zm41.24-1H62.64v2h42.24Zm-1-31.19v32.19h2V108Zm-7.51,1h8.51v-2H96.37Zm1,20.18V108h-2v21.18Zm-34.73,0v-1h-1v1Zm0,11h-1v1h1Zm42.24,0v1h1v-1Zm0-32.19h1v-1h-1Zm-8.51,0v-1h-1v1Zm0,21.18v1h1v-1Zm7.51,18.94v33.73h2V148.1Zm-7.51,1h8.51v-2H96.37Zm1,21.72V148.1h-2v22.72Zm-9.64,1h8.64v-2H87.73Zm-1-18.41v17.41h2V153.41Zm-7,1h8v-2h-8Zm1,16.41V153.41h-2v17.41Zm-9.58,1h8.58v-2H71.15Zm-1-22.89v21.89h2V148.93Zm-7.51,1h8.51v-2H62.64Zm1,31.9v-32.9h-2v32.9Zm41.24-1H62.64v2h42.24Zm0-32.73h1v-1h-1Zm-8.51,0v-1h-1v1Zm0,22.72v1h1v-1Zm-8.64,0h-1v1h1Zm0-17.41h1v-1h-1Zm-8,0v-1h-1v1Zm0,17.41v1h1v-1Zm-8.58,0h-1v1h1Zm0-21.89h1v-1h-1Zm-8.51,0v-1h-1v1Zm0,32.9h-1v1h1Zm42.24,0v1h1v-1ZM63.64,199.34v-11.2h-2v11.2Zm25,6.91-25.67-7.87-.58,1.91L88,208.17Zm8.16,2.24-8.19-2.24L88,208.18l8.19,2.24Zm-8.32,4.23,8.32-2.31-.53-1.92-8.32,2.3Zm-25.51,7.74,25.54-7.75-.58-1.91-25.54,7.74Zm.71,10.62V219.5h-2v11.58Zm40.9-16-42.24,15L63,232l42.24-15Zm-.66-12V216h2V203.11Zm-41.57-14,42.24,15,.66-1.89L63,187.2Zm.33,10.26h-1v.74l.71.21Zm25.66,7.87-.29,1h0Zm8.2,2.24.26,1,3.51-1-3.51-.95Zm-8.32,2.3-.27-1h0ZM62.64,219.5l-.29-1-.71.22v.74Zm0,11.58h-1v1.42L63,232Zm42.24-15,.34.94.66-.23V216Zm0-12.93h1v-.7l-.67-.24Zm-42.24-15,.33-.94-1.33-.48v1.42Zm41.24,46.58v33.73h2V234.72Zm-7.51,1h8.51v-2H96.37Zm1,21.72V234.72h-2v22.72Zm-9.64,1h8.64v-2H87.73Zm-1-18.41v17.41h2V240Zm-7,1h8v-2h-8Zm1,16.41V240h-2v17.41Zm-9.58,1h8.58v-2H71.15Zm-1-22.89v21.89h2V235.55Zm-7.51,1h8.51v-2H62.64Zm1,31.9v-32.9h-2v32.9Zm41.24-1H62.64v2h42.24Zm0-32.73h1v-1h-1Zm-8.51,0v-1h-1v1Zm0,22.72v1h1v-1Zm-8.64,0h-1v1h1Zm0-17.41h1v-1h-1Zm-8,0v-1h-1v1Zm0,17.41v1h1v-1Zm-8.58,0h-1v1h1Zm0-21.89h1v-1h-1Zm-8.51,0v-1h-1v1Zm0,32.9h-1v1h1Zm42.24,0v1h1v-1ZM62.64,298.22H96.37v-2H62.64Zm1,10v-11h-2v11Zm41.24-1H62.64v2h42.24Zm-1-31.19v32.19h2V276Zm-7.51,1h8.51v-2H96.37Zm1,20.18V276h-2v21.18Zm-34.73,0v-1h-1v1Zm0,11h-1v1h1Zm42.24,0v1h1v-1Zm0-32.19h1v-1h-1Zm-8.51,0v-1h-1v1Zm0,21.18v1h1v-1ZM63.64,343.75v-11.2h-2v11.2Zm11,5.07-11.58-6-.92,1.78,11.59,6Zm7,3.18-7-3.2-.83,1.82,7,3.2Zm-7.05,5,7-3.14L80.86,352l-7,3.14ZM63.1,362.88l11.58-5.95-.91-1.78-11.59,6Zm.54,10.51V362h-2v11.4ZM89,357.6,62.15,372.51l1,1.75,26.81-14.91Zm15.91-.13H89.46v2h15.42Zm-1-10v11h2v-11Zm-14.42,1h15.42v-2H89.46Zm-27.31-15L89,348.34l1-1.75L63.13,331.68Zm.49,10.32h-1v.61l.54.28Zm11.58,6-.45.89h0Zm7,3.2.41.91,2-.9-2-.92Zm-7,3.13-.4-.91h0ZM62.64,362l-.46-.89-.54.28V362Zm0,11.4h-1v1.7l1.49-.83Zm26.82-14.92v-1H89.2l-.23.13Zm15.42,0v1h1v-1Zm0-11h1v-1h-1Zm-15.42,0-.49.87.23.13h.26ZM62.64,332.55l.49-.87-1.49-.83v1.7Zm20,68.77v-7.81h-2v7.81Zm-11.69,1H81.65v-2H71Zm-1-8.81v7.81h2v-7.81Zm6.31-7.4a5.84,5.84,0,0,0-4.75,2A8.33,8.33,0,0,0,70,393.51h2a6.38,6.38,0,0,1,1.1-4.16,3.87,3.87,0,0,1,3.21-1.24Zm4.88,2a5.94,5.94,0,0,0-4.88-2v2a4,4,0,0,1,3.32,1.22Zm1.5,5.43a8.6,8.6,0,0,0-1.5-5.43l-1.56,1.25a6.66,6.66,0,0,1,1.06,4.18Zm-19,18.62V392h-2v20.16Zm41.24-1H62.64v2h42.24Zm-1-9.81v10.81h2V401.32Zm-14.42,1h15.42v-2H89.46Zm-1-7.6v6.6h2v-6.6Zm15.92-9.88-15.43,9,1,1.73,15.42-9Zm-.5-11.3V385.7h2V373.54ZM88.4,385.39l17-11-1.08-1.68-17,11Zm-5.55-6.3a11.39,11.39,0,0,1,4.06,5.78l1.89-.65A13.47,13.47,0,0,0,84,377.47Zm-7.22-2a11.93,11.93,0,0,1,7.22,2L84,377.47a13.88,13.88,0,0,0-8.4-2.43Zm-8.7,3.86a10.68,10.68,0,0,1,8.7-3.86v-2a12.72,12.72,0,0,0-10.24,4.58ZM63.64,392c0-4.89,1.14-8.53,3.28-11.06l-1.52-1.3c-2.55,3-3.76,7.18-3.76,12.36Zm18,9.35v1h1v-1Zm-10.69,0H70v1h1Zm9.41-12.61-.78.62ZM62.64,412.13h-1v1h1Zm42.24,0v1h1v-1Zm0-10.81h1v-1h-1Zm-15.42,0h-1v1h1Zm0-6.6-.51-.86-.49.29v.57Zm15.42-9,.5.86.5-.29v-.57Zm0-12.16h1V371.7l-1.54,1Zm-17,11-1,.32.42,1.21,1.07-.69Zm-4.42-6.27-.59.8h0Zm-17.28,2,.76.65h0Zm37.72,39.8v33.73h2V420.06Zm-7.51,1h8.51v-2H96.37Zm1,21.72V420.06h-2v22.72Zm-9.64,1h8.64v-2H87.73Zm-1-18.41v17.41h2V425.37Zm-7,1h8v-2h-8Zm1,16.41V425.37h-2v17.41Zm-9.58,1h8.58v-2H71.15Zm-1-22.89v21.89h2V420.89Zm-7.51,1h8.51v-2H62.64Zm1,31.9v-32.9h-2v32.9Zm41.24-1H62.64v2h42.24Zm0-32.73h1v-1h-1Zm-8.51,0v-1h-1v1Zm0,22.72v1h1v-1Zm-8.64,0h-1v1h1Zm0-17.41h1v-1h-1Zm-8,0v-1h-1v1Zm0,17.41v1h1v-1Zm-8.58,0h-1v1h1Zm0-21.89h1v-1h-1Zm-8.51,0v-1h-1v1Zm0,32.9h-1v1h1Zm42.24,0v1h1v-1ZM63.64,471.3V460.1h-2v11.2Zm25,6.91-25.67-7.87-.58,1.91L88,480.13Zm8.16,2.24-8.19-2.24L88,480.14l8.19,2.24Zm-8.32,4.23,8.32-2.31-.53-1.92-8.32,2.3Zm-25.51,7.74,25.54-7.75-.58-1.91L62.35,490.5ZM63.64,503V491.46h-2V503Zm40.9-16-42.24,15L63,504l42.24-15Zm-.66-12V488h2V475.07ZM62.31,461l42.24,15,.66-1.89L63,459.16Zm.33,10.26h-1V472l.71.21Zm25.66,7.87-.29,1h0Zm8.2,2.24.26,1,3.51-1-3.51-.95Zm-8.32,2.3-.27-1h0Zm-25.54,7.75-.29-1-.71.22v.74Zm0,11.58h-1v1.42L63,504Zm42.24-15,.34.94.66-.23V488Zm0-12.93h1v-.7l-.67-.24Zm-42.24-15,.33-.94-1.33-.48v1.42Zm41.24,46.58v33.73h2V506.68Zm-7.51,1h8.51v-2H96.37Zm1,21.72V506.68h-2V529.4Zm-9.64,1h8.64v-2H87.73Zm-1-18.41V529.4h2V512Zm-7,1h8v-2h-8Zm1,16.41V512h-2V529.4Zm-9.58,1h8.58v-2H71.15Zm-1-22.89V529.4h2V507.51Zm-7.51,1h8.51v-2H62.64Zm1,31.9v-32.9h-2v32.9Zm41.24-1H62.64v2h42.24Zm0-32.73h1v-1h-1Zm-8.51,0v-1h-1v1Zm0,22.72v1h1v-1Zm-8.64,0h-1v1h1Zm0-17.41h1v-1h-1Zm-8,0v-1h-1v1Zm0,17.41v1h1v-1Zm-8.58,0h-1v1h1Zm0-21.89h1v-1h-1Zm-8.51,0v-1h-1v1Zm0,32.9h-1v1h1Zm42.24,0v1h1v-1ZM2.64,78.06V39.47h-2V78.06Zm7.51-1H1.64v2h8.51Zm-1-12.82V78.06h2V64.24Zm34.73-1H10.15v2H43.88Zm-1-10v11h2v-11Zm-32.73,1H43.88v-2H10.15Zm-1-14.76V53.23h2V39.47Zm-7.51,1h8.51v-2H1.64Zm0,37.59h-1v1h1Zm8.51,0v1h1v-1Zm0-13.82v-1h-1v1Zm33.73,0v1h1v-1Zm0-11h1v-1h-1Zm-33.73,0h-1v1h1Zm0-13.76h1v-1h-1Zm-8.51,0v-1h-1v1ZM9.83,98.4l6.6,1.73.5-1.93-6.59-1.73Zm-.74-1.09v.13h2v-.13Zm7.39-2.82L9.82,96.34l.54,1.93L17,96.41Zm10.09-3.07L16.45,94.49,17,96.41l10.12-3.07Zm1.29,10.94v-10h-2v10Zm-11.48-2.24,10.18,3.2.6-1.91L17,98.21Zm26.5,7.49v11.07h2V107.61Zm-8.83-2,9.54,2.95.58-1.91-9.53-3Zm-.71-15.54v14.59h2V90.08Zm10.25-3.84-9.54,2.88L34.63,91l9.54-2.88Zm-.71-10.37V87.2h2V75.87ZM2,91.6,44.21,76.81l-.66-1.89L1.31,89.71Zm.67,12.24V90.65h-2v13.19Zm41.57,13.9L2,102.89l-.66,1.89,42.24,14.85ZM10.09,97.44h-1v.77l.74.19Zm0-.13-.27-1-.73.21v.76Zm6.65-1.86.27,1h0Zm10.12-3.07h1V91l-1.29.39Zm0,10-.3,1,1.3.41v-1.37Zm-10.18-3.2.3-1h-.05Zm27.2,8.45h1v-.74l-.71-.21Zm-9.54-2.94h-1v.74l.71.21Zm0-14.59-.29-1-.71.21v.75Zm9.54-2.88.29,1,.71-.21V87.2Zm0-11.33h1V74.46l-1.33.46ZM1.64,90.65l-.33-.94-.67.23v.71Zm0,13.19h-1v.7l.67.24Zm42.24,14.84-.33.95,1.33.46v-1.41ZM2.64,152.79v-9.73h-2v9.73Zm20.31-1H1.64v2H23Zm7.78-.26-7.81.26.06,2,7.81-.26Zm1,1.07v-.07h-2v.07Zm-6.82,4.09,6.27-3.2-.9-1.78L24,154.9ZM2.14,169.78,25,156.66l-1-1.73L1.14,168.05Zm.5,11.36V168.92h-2v12.22Zm41.24-1H1.64v2H43.88Zm-1-8.73v9.73h2v-9.73Zm-20.31,1H43.88v-2H22.57Zm-7.78.26,7.81-.26-.06-2-7.81.26Zm-1-1.07v.07h2v-.07Zm6.82-4.09-6.27,3.2.9,1.78,6.28-3.2Zm22.8-13.09L20.53,167.54l1,1.73,22.85-13.12Zm-.5-11.36v12.22h2V143.06Zm-41.24,1H43.88v-2H1.64Zm0,8.73h-1v1h1Zm21.31,0v1h0Zm7.81-.26h1v-1l-1,0Zm0,.07.45.89.55-.28v-.61Zm-6.27,3.2-.46-.9,0,0h0ZM1.64,168.92l-.5-.87-.5.29v.58Zm0,12.22h-1v1h1Zm42.24,0v1h1v-1Zm0-9.73h1v-1h-1Zm-21.31,0v-1h0Zm-7.81.26h-1v1l1,0Zm0-.07-.45-.89-.55.28v.61ZM21,168.4l.46.89h0Zm22.85-13.12.5.87.5-.29v-.58Zm0-12.22h1v-1h-1Zm-42.24,0v-1h-1v1Zm10.74,59.82a9.1,9.1,0,0,0-3.74,7.78h2a7.15,7.15,0,0,1,2.92-6.17Zm10.38-2.62c-4.45,0-8,.82-10.39,2.63l1.2,1.6c1.92-1.44,4.93-2.23,9.19-2.23Zm10.45,2.62c-2.47-1.8-6-2.62-10.45-2.62v2c4.25,0,7.29.79,9.27,2.23Zm3.67,7.78a9.16,9.16,0,0,0-3.67-7.77L32,204.49a7.18,7.18,0,0,1,2.86,6.17Zm-3.67,7.85a9.25,9.25,0,0,0,3.67-7.85h-2A7.23,7.23,0,0,1,32,216.9Zm-10.45,2.63c4.45,0,8-.83,10.45-2.63L32,216.9c-2,1.44-5,2.24-9.27,2.24Zm-10.39-2.63c2.43,1.8,5.94,2.63,10.39,2.63v-2c-4.26,0-7.27-.8-9.19-2.24Zm-3.73-7.85a9.17,9.17,0,0,0,3.74,7.85l1.18-1.61a7.19,7.19,0,0,1-2.92-6.24ZM4.5,221.31A21.4,21.4,0,0,1,2,210.66H0a23.37,23.37,0,0,0,2.75,11.63Zm7,6.7a16.2,16.2,0,0,1-7-6.7l-1.75,1a18.33,18.33,0,0,0,7.84,7.5Zm11.26,2.39A24.35,24.35,0,0,1,11.5,228l-.91,1.78a26.32,26.32,0,0,0,12.17,2.61ZM34,228a24.35,24.35,0,0,1-11.26,2.39v2a26.32,26.32,0,0,0,12.17-2.61Zm7.07-6.71A16.67,16.67,0,0,1,34,228l.91,1.78a18.7,18.7,0,0,0,7.9-7.5Zm2.43-10.64a21.87,21.87,0,0,1-2.44,10.66l1.76,1a23.89,23.89,0,0,0,2.68-11.62Zm-2.43-10.52a21.44,21.44,0,0,1,2.43,10.52h2a23.26,23.26,0,0,0-2.69-11.49ZM34,193.38a16.57,16.57,0,0,1,7.07,6.77l1.74-1a18.62,18.62,0,0,0-7.9-7.57ZM22.76,191A24.35,24.35,0,0,1,34,193.38l.91-1.78A26.44,26.44,0,0,0,22.76,189ZM11.5,193.38A24.35,24.35,0,0,1,22.76,191v-2a26.44,26.44,0,0,0-12.17,2.61Zm-7,6.76a16.16,16.16,0,0,1,7-6.76l-.91-1.78a18.2,18.2,0,0,0-7.84,7.57ZM2,210.66a21,21,0,0,1,2.49-10.51l-1.73-1A22.8,22.8,0,0,0,0,210.66Zm11-7,.59.8h0Zm19.65,0,.59-.8h0Zm0,14,.59.81h0ZM13,217.7l.6-.8h0Zm-9.35,4.1.88-.49h0Zm7.43,7.1.45-.89Zm23.42,0L34,228ZM42,221.8l.87.49h0Zm0-22.14.87-.49h0Zm-7.49-7.17.46-.89Zm-23.42,0-.46-.89Zm-7.43,7.17.87.49h0Zm-1,51.6v-11h-2v11Zm41.24-1H1.64v2H43.88Zm-1-10v11h2v-11Zm-41.24,1H43.88v-2H1.64Zm0,10h-1v1h1Zm42.24,0v1h1v-1Zm0-11h1v-1h-1Zm-42.24,0v-1h-1v1Zm1,57.18v-38.6h-2v38.6Zm7.51-1H1.64v2h8.51Zm-1-12.83v13.83h2V283.6Zm34.73-1H10.15v2H43.88Zm-1-10v11h2v-11Zm-32.73,1H43.88v-2H10.15Zm-1-14.76v13.76h2V258.83Zm-7.51,1h8.51v-2H1.64Zm0,37.6h-1v1h1Zm8.51,0v1h1v-1Zm0-13.83v-1h-1v1Zm33.73,0v1h1v-1Zm0-11h1v-1h-1Zm-33.73,0h-1v1h1Zm0-13.76h1v-1h-1Zm-8.51,0v-1h-1v1Zm8.19,58.94,6.6,1.73.5-1.94-6.59-1.72Zm-.74-1.1v.13h2v-.13Zm7.39-2.81-6.66,1.85.54,1.93L17,315.78Zm10.09-3.07-10.12,3.07.58,1.92,10.12-3.08Zm1.29,10.94v-10h-2v10Zm-11.48-2.25,10.18,3.2.6-1.9L17,317.58Zm26.5,7.5v11.07h2V327Zm-8.83-2,9.54,2.94.58-1.91-9.53-2.94Zm-.71-15.55V324h2V309.44Zm10.25-3.83-9.54,2.88.58,1.91,9.54-2.88Zm-.71-10.38v11.33h2V295.23ZM2,311l42.24-14.78-.66-1.89L1.31,309.07Zm.67,12.24V310h-2V323.2Zm41.57,13.91L2,322.26l-.66,1.89L43.55,339ZM10.09,316.8h-1v.77l.74.2Zm0-.13-.27-1-.73.21v.75Zm6.65-1.85.27,1h0Zm10.12-3.07h1V310.4l-1.29.39Zm0,10-.3.95,1.3.41v-1.36Zm-10.18-3.2.3-.95h-.05ZM43.88,327h1v-.74l-.71-.22Zm-9.54-3h-1v.74l.71.22Zm0-14.59-.29-.95-.71.21v.74Zm9.54-2.88.29,1,.71-.21v-.75Zm0-11.33h1v-1.4l-1.33.46ZM1.64,310l-.33-.95-.67.24V310Zm0,13.18h-1v.71l.67.24Zm42.24,14.85-.33.94,1.33.47v-1.41ZM2.64,346.52v-11.2h-2v11.2Zm25,6.92L1.93,345.57l-.58,1.91L27,355.35Zm8.16,2.23-8.19-2.24L27,355.36l8.19,2.24Zm-8.32,4.23,8.32-2.3-.53-1.93L26.91,358ZM1.93,367.64l25.54-7.75L26.89,358,1.35,365.72Zm.71,10.63V366.68h-2v11.59Zm40.9-16-42.24,15L2,379.21l42.24-15Zm-.66-12v12.93h2V350.3Zm-41.57-14,42.24,15,.66-1.89L2,334.38Zm.33,10.26h-1v.74l.71.22Zm25.66,7.87-.29,1h0Zm8.2,2.24.26,1,3.51-1-3.51-1Zm-8.32,2.31-.27-1h0ZM1.64,366.68l-.29-1-.71.22v.74Zm0,11.59h-1v1.41L2,379.21Zm42.24-15,.34.94.66-.24v-.7Zm0-12.93h1v-.71l-.67-.24Zm-42.24-15,.33-.94-1.33-.47v1.41Zm10.74,59.27a9.11,9.11,0,0,0-3.74,7.79h2a7.13,7.13,0,0,1,2.92-6.17ZM22.76,392c-4.45,0-8,.82-10.39,2.63l1.2,1.6c1.92-1.43,4.93-2.23,9.19-2.23Zm10.45,2.62c-2.47-1.8-6-2.62-10.45-2.62v2c4.25,0,7.29.8,9.27,2.24Zm3.67,7.79a9.17,9.17,0,0,0-3.67-7.78L32,396.2a7.19,7.19,0,0,1,2.86,6.18Zm-3.67,7.84a9.23,9.23,0,0,0,3.67-7.84h-2A7.22,7.22,0,0,1,32,408.61Zm-10.45,2.63c4.45,0,8-.83,10.45-2.63L32,408.61c-2,1.44-5,2.24-9.27,2.24Zm-10.39-2.63c2.43,1.8,5.94,2.63,10.39,2.63v-2c-4.26,0-7.27-.8-9.19-2.24Zm-3.73-7.84a9.17,9.17,0,0,0,3.74,7.84l1.18-1.61a7.19,7.19,0,0,1-2.92-6.23ZM4.5,413A21.38,21.38,0,0,1,2,402.38H0A23.36,23.36,0,0,0,2.75,414Zm7,6.71a16.31,16.31,0,0,1-7-6.7l-1.75,1a18.41,18.41,0,0,0,7.84,7.51Zm11.26,2.38a24.48,24.48,0,0,1-11.26-2.38l-.91,1.78a26.44,26.44,0,0,0,12.17,2.6ZM34,419.73a24.48,24.48,0,0,1-11.26,2.38v2a26.44,26.44,0,0,0,12.17-2.6ZM41.09,413A16.79,16.79,0,0,1,34,419.73l.91,1.78a18.76,18.76,0,0,0,7.9-7.5Zm2.43-10.64A21.86,21.86,0,0,1,41.08,413l1.76,1a23.85,23.85,0,0,0,2.68-11.61Zm-2.43-10.53a21.46,21.46,0,0,1,2.43,10.53h2a23.3,23.3,0,0,0-2.69-11.5ZM34,385.09a16.63,16.63,0,0,1,7.07,6.77l1.74-1a18.62,18.62,0,0,0-7.9-7.57ZM22.76,382.7A24.35,24.35,0,0,1,34,385.09l.91-1.78a26.44,26.44,0,0,0-12.17-2.61ZM11.5,385.09a24.35,24.35,0,0,1,11.26-2.39v-2a26.44,26.44,0,0,0-12.17,2.61Zm-7,6.76a16.16,16.16,0,0,1,7-6.76l-.91-1.78a18.17,18.17,0,0,0-7.84,7.58ZM2,402.38a21,21,0,0,1,2.49-10.52l-1.73-1A22.81,22.81,0,0,0,0,402.38Zm11-7,.59.81h0Zm19.65,0,.59-.8h0Zm0,14,.59.8h0Zm-19.65,0,.6-.81h0Zm-9.35,4.09L4.5,413h0Zm7.43,7.11.45-.89Zm23.42,0-.45-.89ZM42,413.51l.87.5h0Zm0-22.14.87-.49h0Zm-7.49-7.17.46-.89Zm-23.42,0-.46-.89Zm-7.43,7.17.87.49h0Zm-1,50.32V432h-2v9.73Zm20.31-1H1.64v2H23Zm7.78-.26-7.81.26.06,2,7.81-.25Zm1,1.06v-.06h-2v.06Zm-6.82,4.09,6.27-3.2-.9-1.78L24,443.8Zm-22.8,13.1L25,445.56l-1-1.73L1.14,457ZM2.64,470V457.81h-2V470Zm41.24-1H1.64v2H43.88Zm-1-8.73V470h2v-9.73Zm-20.31,1H43.88v-2H22.57Zm-7.78.25,7.81-.25-.06-2-7.81.26Zm-1-1.06v.07h2v-.07Zm6.82-4.09-6.27,3.2.9,1.78,6.28-3.2Zm22.8-13.1L20.53,456.43l1,1.74,22.85-13.12ZM42.88,432v12.22h2V432ZM1.64,433H43.88v-2H1.64Zm0,8.73h-1v1h1Zm21.31,0v1h0Zm7.81-.26h1v-1l-1,0Zm0,.06.45.89.55-.27v-.62Zm-6.27,3.2L24,443.8h0l0,0ZM1.64,457.81l-.5-.86-.5.28v.58Zm0,12.23h-1v1h1Zm42.24,0v1h1v-1Zm0-9.73h1v-1h-1Zm-21.31,0v-1h0Zm-7.81.26h-1v1l1,0Zm0-.07-.45-.89-.55.28v.61ZM21,457.3l.46.89h0Zm22.85-13.12.5.87.5-.29v-.58Zm0-12.22h1v-1h-1ZM1.64,432v-1h-1v1Zm1,58.44v-9.73h-2v9.73Zm20.31-1H1.64v2H23Zm7.78-.25-7.81.25.06,2,7.81-.25Zm1,1.06v-.06h-2v.06Zm-6.82,4.09,6.27-3.2-.9-1.78L24,492.52ZM2.14,507.4,25,494.28l-1-1.74L1.14,505.66Zm.5,11.35V506.53h-2v12.22Zm41.24-1H1.64v2H43.88Zm-1-8.72v9.72h2V509Zm-20.31,1H43.88v-2H22.57Zm-7.78.25L22.6,510l-.06-2-7.81.25Zm-1-1.06v.06h2v-.06Zm6.82-4.09-6.27,3.2.9,1.78,6.28-3.2ZM43.38,492,20.53,505.15l1,1.74,22.85-13.12Zm-.5-11.36V492.9h2V480.67Zm-41.24,1H43.88v-2H1.64Zm0,8.73h-1v1h1Zm21.31,0v1h0Zm7.81-.25h1v-1l-1,0Zm0,.06.45.89.55-.28v-.61Zm-6.27,3.2-.46-.89h0ZM1.64,506.53l-.5-.87-.5.29v.58Zm0,12.22h-1v1h1Zm42.24,0v1h1v-1Zm0-9.72h1v-1h-1Zm-21.31,0v-1h0Zm-7.81.25h-1v1l1,0Zm0-.06-.45-.89-.55.28v.61ZM21,506l.46.89h0ZM43.88,492.9l.5.87.5-.29v-.58Zm0-12.23h1v-1h-1Zm-42.24,0v-1h-1v1Zm1,59.74v-11h-2v11Zm41.24-1H1.64v2H43.88Zm-1-10v11h2v-11Zm-41.24,1H43.88v-2H1.64Zm0,10h-1v1h1Zm42.24,0v1h1v-1Zm0-11h1v-1h-1Zm-42.24,0v-1h-1v1Z"/><path class="cls-1" d="M1.64,143.06H43.88v12.22L21,168.4l-6.27,3.2v.07l7.81-.26H43.88v9.73H1.64V168.92L24.49,155.8l6.27-3.2v-.07l-7.81.26H1.64Zm8,67.6a8.17,8.17,0,0,0,3.33,7q3.26,2.43,9.79,2.44t9.86-2.44a9.16,9.16,0,0,0,0-14q-3.33-2.43-9.86-2.43T13,203.69A8.1,8.1,0,0,0,9.64,210.66Zm-8.64,0a21.87,21.87,0,0,1,2.62-11,17.21,17.21,0,0,1,7.43-7.17A25.28,25.28,0,0,1,22.76,190a25.28,25.28,0,0,1,11.71,2.5A17.58,17.58,0,0,1,42,199.66a22.28,22.28,0,0,1,2.56,11A22.84,22.84,0,0,1,42,221.8a17.72,17.72,0,0,1-7.49,7.1,25.28,25.28,0,0,1-11.71,2.5,25.28,25.28,0,0,1-11.71-2.5,17.34,17.34,0,0,1-7.43-7.1A22.41,22.41,0,0,1,1,210.66Zm.64,29.59H43.88v11H1.64Zm0,18.58h8.51v13.76H43.88v11H10.15v13.83H1.64Zm15,59.7,10.18,3.2v-10l-10.12,3.07-6.65,1.85v.13Zm27.2,19.52L1.64,323.2V310l42.24-14.79v11.33l-9.54,2.88V324l9.54,3ZM1.64,335.32l42.24,15v12.93l-42.24,15V366.68l25.54-7.74,8.32-2.31-8.2-2.24L1.64,346.52Zm8,67.06a8.19,8.19,0,0,0,3.33,7q3.26,2.43,9.79,2.43t9.86-2.43a9.17,9.17,0,0,0,0-14Q29.29,393,22.76,393T13,395.4A8.12,8.12,0,0,0,9.64,402.38Zm-8.64,0a21.88,21.88,0,0,1,2.62-11,17.21,17.21,0,0,1,7.43-7.17,25.41,25.41,0,0,1,11.71-2.5,25.41,25.41,0,0,1,11.71,2.5A17.58,17.58,0,0,1,42,391.37a22.29,22.29,0,0,1,2.56,11A22.77,22.77,0,0,1,42,413.51a17.8,17.8,0,0,1-7.49,7.11,25.41,25.41,0,0,1-11.71,2.49,25.41,25.41,0,0,1-11.71-2.49,17.42,17.42,0,0,1-7.43-7.11A22.35,22.35,0,0,1,1,402.38ZM1.64,432H43.88v12.22L21,457.3l-6.27,3.2v.07l7.81-.26H43.88V470H1.64V457.81l22.85-13.12,6.27-3.2v-.06l-7.81.26H1.64Zm0,48.71H43.88V492.9L21,506l-6.27,3.2v.06l7.81-.25H43.88v9.72H1.64V506.53l22.85-13.12,6.27-3.2v-.06L23,490.4H1.64Zm0,48.73H43.88v11H1.64Z"/></g></g></svg>