<svg xmlns="http://www.w3.org/2000/svg" xmlns:xlink="http://www.w3.org/1999/xlink" viewBox="0 0 124 133.44"><defs><style>.cls-1{fill:none;clip-rule:evenodd;}.cls-2{clip-path:url(#clip-path);}.cls-3{fill:#245af3;}</style><clipPath id="clip-path" transform="translate(0 1)"><path class="cls-1" d="M32.61,4.61a15.71,15.71,0,0,1,22.24,0L75.5,25.26,96.15,4.61a15.73,15.73,0,1,1,22.24,22.24L97.74,47.5,118.4,68.15A15.73,15.73,0,1,1,96.16,90.39L75.5,69.74,54.85,90.4A15.73,15.73,0,0,1,32.61,68.15L53.26,47.5,32.61,26.85A15.73,15.73,0,0,1,32.61,4.61Z"/></clipPath></defs><g id="Layer_2" data-name="Layer 2"><g id="Layer_1-2" data-name="Layer 1"><g class="cls-2"><path class="cls-3" d="M31.9,3.9a16.72,16.72,0,0,0,0,23.65l1.42-1.41a14.73,14.73,0,0,1,0-20.83Zm0,23.65L52.56,48.21,54,46.79,33.32,26.14ZM52.56,46.79,31.9,67.45l1.42,1.41L54,48.21ZM31.9,67.45a16.72,16.72,0,0,0,0,23.65l1.42-1.41a14.71,14.71,0,0,1,0-20.83Zm0,23.65a16.74,16.74,0,0,0,23.66,0l-1.42-1.41a14.72,14.72,0,0,1-20.82,0Zm23.66,0L76.21,70.45,74.8,69,54.14,89.69ZM74.8,70.45,95.45,91.1l1.41-1.41L76.21,69ZM95.45,91.1a16.72,16.72,0,0,0,23.65,0l-1.41-1.41a14.73,14.73,0,0,1-20.83,0Zm23.65,0a16.71,16.71,0,0,0,0-23.65l-1.41,1.41a14.73,14.73,0,0,1,0,20.83Zm0-23.65L98.45,46.79,97,48.21l20.65,20.65ZM98.45,48.21,119.1,27.56l-1.41-1.42L97,46.79ZM119.1,27.56a16.74,16.74,0,0,0,0-23.66l-1.41,1.42a14.72,14.72,0,0,1,0,20.82Zm0-23.66a16.72,16.72,0,0,0-23.65,0l1.41,1.42a14.73,14.73,0,0,1,20.83,0Zm-23.65,0L74.8,24.55,76.21,26,96.86,5.32ZM76.21,24.55,55.56,3.9,54.14,5.31,74.8,26ZM55.56,3.9a16.74,16.74,0,0,0-23.66,0l1.42,1.41a14.72,14.72,0,0,1,20.82,0Zm-23,23-.71.7ZM53.26,47.5l.71.71.71-.71L54,46.79ZM32.61,68.15l-.71-.7Zm0,22.25.71-.71Zm22.24,0-.71-.71ZM75.5,69.74l.71-.71-.71-.7-.7.7ZM96.16,90.39l.7-.7Zm22.24,0,.7.71ZM97.74,47.5l-.7-.71-.71.71.71.71Zm20.65-20.65.71.71Zm0-22.24.71-.71Zm-22.24,0,.71.71ZM75.5,25.26l-.7.71.7.7.71-.7ZM32.61,4.61,31.9,3.9Zm22.24,0-.71.7Z" transform="translate(0 1)"/></g><path class="cls-3" d="M26.11,112.76a4.54,4.54,0,0,0-6.42-6.43L1.33,124.69a4.54,4.54,0,1,0,6.43,6.42Z" transform="translate(0 1)"/><path class="cls-3" d="M7.76,106.33a4.55,4.55,0,1,0-6.43,6.43l18.36,18.35a4.54,4.54,0,0,0,6.42-6.42Z" transform="translate(0 1)"/></g></g></svg>