<svg width="23" height="26" viewBox="0 0 23 26" fill="none" xmlns="http://www.w3.org/2000/svg">
<path d="M22.5059 7.45904C22.2082 7.31392 21.8604 7.38588 21.6307 7.6397L19.2992 10.2124L15.0461 9.38214L14.2937 4.68656L16.6253 2.11394C16.8548 1.86007 16.9201 1.4765 16.7889 1.14777C16.6578 0.819456 16.3562 0.613304 16.032 0.63038C14.4431 0.712304 12.8769 1.42042 11.663 2.76082C9.79904 4.8178 9.28378 7.79071 10.1006 10.3633L0.954952 20.4619C-0.190713 21.7258 -0.190713 23.776 0.954952 25.0404C1.50433 25.6473 2.24997 25.9885 3.02809 25.9885C3.80547 25.9885 4.55177 25.6473 5.10114 25.0408L14.2922 14.8942C16.5912 15.7219 19.2175 15.1343 21.0435 13.1171C22.2574 11.7774 22.8991 10.0488 22.9742 8.2951C22.9885 7.93671 22.8037 7.60457 22.5059 7.45904ZM4.45256 23.1094C3.96992 23.6422 3.18642 23.6422 2.70378 23.1094C2.2203 22.5757 2.2203 21.7116 2.70378 21.1779C3.18642 20.6451 3.96992 20.6451 4.45256 21.1779C4.93529 21.7116 4.93529 22.5757 4.45256 23.1094Z" fill="#404040"/>
</svg>
