<svg xmlns="http://www.w3.org/2000/svg" xmlns:xlink="http://www.w3.org/1999/xlink" viewBox="0 0 144.59 119.44"><defs><style>.cls-1,.cls-2{fill:none;}.cls-2{clip-rule:evenodd;}.cls-3{clip-path:url(#clip-path);}.cls-4{fill:#d0f256;}.cls-5{clip-path:url(#clip-path-2);}.cls-6{clip-path:url(#clip-path-3);}</style><clipPath id="clip-path" transform="translate(5 5)"><rect class="cls-1" width="134.59" height="97.05" rx="19"/></clipPath><clipPath id="clip-path-2" transform="translate(5 5)"><path class="cls-2" d="M87.89,37.08a20.6,20.6,0,1,1-20.6-20.6A20.6,20.6,0,0,1,87.89,37.08Z"/></clipPath><clipPath id="clip-path-3" transform="translate(5 5)"><path class="cls-2" d="M35.18,97.05H99.41C97,74.23,83.53,56.76,67.29,56.76S37.59,74.23,35.18,97.05Z"/></clipPath></defs><g id="Layer_2" data-name="Layer 2"><g id="Layer_1-2" data-name="Layer 1"><g class="cls-3"><path class="cls-4" d="M19-5A24,24,0,0,0-5,19H5A14,14,0,0,1,19,5ZM115.59,5a14,14,0,0,1,14,14h10a24,24,0,0,0-24-24Zm14,73.05a14,14,0,0,1-14,14v10a24,24,0,0,0,24-24ZM19,92.05a14,14,0,0,1-14-14H-5a24,24,0,0,0,24,24Zm-14-14V19H-5V78.05Zm110.59,14H19v10h96.59Zm14-73V78.05h10V19ZM19,5h96.59V-5H19Z" transform="translate(5 5)"/></g><g class="cls-5"><path class="cls-4" d="M67.29,21.48a15.59,15.59,0,0,1,15.6,15.6h10a25.6,25.6,0,0,0-25.6-25.6Zm-15.6,15.6a15.6,15.6,0,0,1,15.6-15.6v-10a25.6,25.6,0,0,0-25.6,25.6Zm15.6,15.6a15.6,15.6,0,0,1-15.6-15.6h-10a25.6,25.6,0,0,0,25.6,25.6Zm15.6-15.6a15.59,15.59,0,0,1-15.6,15.6v10a25.6,25.6,0,0,0,25.6-25.6Z" transform="translate(5 5)"/></g><rect class="cls-4" x="70" y="102.05" width="5" height="12.82"/><rect class="cls-4" x="48.95" y="114.87" width="46.69" height="4.58" rx="2"/><g class="cls-6"><path class="cls-4" d="M40.15,97.57C41.27,87,45,77.81,50,71.45s11.12-9.69,17.31-9.69v-10c-10,0-18.79,5.42-25.16,13.49S31.5,84.33,30.21,96.52ZM67.29,61.76c6.2,0,12.3,3.32,17.32,9.69s8.7,15.5,9.83,26.12l9.94-1c-1.29-12.19-5.55-23.2-11.92-31.27S77.34,51.76,67.29,51.76ZM35.18,102.05H99.41v-10H35.18Zm64.23-5v5H105l-.59-5.53Zm-64.23,0-5-.53-.59,5.53h5.56Z" transform="translate(5 5)"/></g></g></g></svg>