<svg xmlns="http://www.w3.org/2000/svg" viewBox="0 0 63.4 80"><defs><style>.cls-1{fill:#cdf256;}</style></defs><g id="Layer_2" data-name="Layer 2"><g id="Layer_1-2" data-name="Layer 1"><path class="cls-1" d="M22.6,0a2,2,0,0,0-1.7.9c-.4.7.2,2.2.9,4.1,1.4,4.3-2.9,11.2-9,18.1C7.1,29.6,0,37.6,0,49.5,0,65.5,15.1,80,31.7,80S63.4,65.5,63.4,49.5A35.48,35.48,0,0,0,50.6,22.7l-1-.8a2.45,2.45,0,0,0-1.6-.6,2.4,2.4,0,0,0-2.2,1.4c-.3.7-.6,7.7-.6,8.9v.7a1.58,1.58,0,0,1-1.6,1.6h-.3a1.72,1.72,0,0,1-1.4-1.7c-.1-12-3.7-20.4-10.5-26.7C28.3,2.6,24.8,0,22.6,0Zm6.1,8.4c6.2,5.8,9.1,13.3,9.2,23.7a5.61,5.61,0,0,0,4.7,5.6,2.77,2.77,0,0,0,.9.1,5.57,5.57,0,0,0,5.6-5.5v-.8a23,23,0,0,1,.1-2.3,1,1,0,0,1,1.7-.7,31.31,31.31,0,0,1,8.4,20.9c0,6.5-3.1,13.2-8.4,18.3a28.16,28.16,0,0,1-19.3,8.1,28.62,28.62,0,0,1-19.3-8.1C7,62.6,3.9,55.9,3.9,49.4c0-10.3,6.3-17.5,11.8-23.7C22,18.6,25.3,12.8,25.9,8.1a1,1,0,0,1,1.6-.6Z"/><path class="cls-1" d="M31.7,42.3a2.84,2.84,0,0,0-2.2,1l-7.2,8.6a13.09,13.09,0,1,0,22.4,9.2,12.84,12.84,0,0,0-3.8-9.2l-7.2-8.6A2.22,2.22,0,0,0,31.7,42.3Zm0,4.6L38,54.4l.1.1.1.1A9,9,0,0,1,40.8,61a9.1,9.1,0,0,1-18.2,0,9,9,0,0,1,2.6-6.4l.1-.1.1-.1Z"/></g></g></svg>