<svg xmlns="http://www.w3.org/2000/svg" viewBox="0 0 14.61 17.53"><defs><style>.cls-1{opacity:0.24;}</style></defs><g id="Layer_2" data-name="Layer 2"><g id="Layer_1-2" data-name="Layer 1"><path class="cls-1" d="M2,17.53a.29.29,0,0,1-.22-.06l-.39-.53a1.4,1.4,0,0,0,.09-.4c0-.05,0-.08-.05-.08a.37.37,0,0,0-.26.11.56.56,0,0,1-.31.11.11.11,0,0,1-.09-.11l0-.29s0,0,0,0l-.13,0-.18,0a.1.1,0,0,1,0-.08l0-.36a.79.79,0,0,0-.06-.28c0-.1-.08-.16-.11-.16L0,15.31c0-.09.09-.18.13-.28a.75.75,0,0,0,.09-.29,1.45,1.45,0,0,0,0-.31A2,2,0,0,0,0,14a10.4,10.4,0,0,1,1.3-1.89c.65-.8,1.52-1.78,2.62-3Q2.84,6.8,1.72,3.83L1.61,3.7a1.25,1.25,0,0,1-.16-.33q-.09-.27-.15-.51a1.71,1.71,0,0,1-.07-.33s0-.07.05-.07a.51.51,0,0,0,.3-.13.47.47,0,0,0,.22-.28A1.16,1.16,0,0,1,2,1.76q.18-.18.24-.18a1.11,1.11,0,0,1,.2.11.3.3,0,0,1,.11.07l.13,0,.09,0Q3,1.67,3,1.19c.08.12.16.17.24.17l.06,0a.64.64,0,0,0,.11-.22C3.5,1,3.54,1,3.59,1l.06,0c.09.09.25.29.49.6s.48.65.74,1a9.41,9.41,0,0,1,.66,1c.14.24.32.54.55.9L7,5.81c.93-1,1.67-1.84,2.22-2.42s.94-1,1.13-1.15.36-.32.52-.48l.47-.46A5.35,5.35,0,0,1,12,.62L12.76,0l.07,0c.22.15.34.28.37.4l0,.15.31.18,0,.24a1,1,0,0,0,.11.35.61.61,0,0,0,.2.29A.26.26,0,0,0,14,1.56a.68.68,0,0,1,.31-.06h.11l-.09.35.22,0,0,.38a.53.53,0,0,1-.27.46l.18.26L12.1,5.35c-.34.33-.77.79-1.3,1.36S9.69,8,9,8.76l2.05,2.72c.51.65.84,1,1,1.21.29.33.44.55.44.69a1.39,1.39,0,0,1-.14.48,2.55,2.55,0,0,1-.26.55c-.1.16-.19.24-.26.24l-.66,0,.17.61-.09.07a.49.49,0,0,1-.19.06H11a.28.28,0,0,0-.27.22.33.33,0,0,1-.33.25.34.34,0,0,1-.24-.11.41.41,0,0,0-.33-.11.18.18,0,0,0-.15.06l-.07.16a.89.89,0,0,1-.07.26.75.75,0,0,1,0,.15.17.17,0,0,1-.18.11H9.22a.69.69,0,0,1-.22,0l-.29-.11A37.84,37.84,0,0,1,6,12.5L5,13.82,3.78,15.31,3.3,16l-.22.39a4.74,4.74,0,0,1-.7,1.1Z"/></g></g></svg>