<svg xmlns="http://www.w3.org/2000/svg" viewBox="0 0 86 79"><defs><style>.cls-1{fill:#cdf256;}</style></defs><g id="Layer_2" data-name="Layer 2"><g id="Layer_1-2" data-name="Layer 1"><path class="cls-1" d="M77.12,39.56l-11.07-11L52.8,15.46a2.2,2.2,0,0,0-.25-.17,2.11,2.11,0,0,0-.31-.21h-.3a.91.91,0,0,0-.65,0H51a2.11,2.11,0,0,0-.27.18,1.26,1.26,0,0,0-.28.19L38,27.49a4.46,4.46,0,0,1-6.19,0,3.77,3.77,0,0,1-.91-1.32,3.82,3.82,0,0,1-.3-1.57A4,4,0,0,1,31,23a3.93,3.93,0,0,1,1.05-1.31L44,10a23.14,23.14,0,0,1,32-.26,21.56,21.56,0,0,1,1.15,29.78Zm-1.89,9a4.43,4.43,0,0,1-6.15,0,1.79,1.79,0,0,0-.61-.36L56.88,36.89a1.71,1.71,0,0,0-2.33.12,1.7,1.7,0,0,0-.49,1.16,1.72,1.72,0,0,0,.43,1.18l12,11.74a3.9,3.9,0,0,1,.93,1.34,4,4,0,0,1,0,3.2A3.9,3.9,0,0,1,66.53,57a4.45,4.45,0,0,1-5.62.43c-.12-.14-.23-.29-.37-.43l-12-11.74a1.68,1.68,0,0,0-.56-.42,1.7,1.7,0,0,0-2.33,1,1.64,1.64,0,0,0-.11.69,1.6,1.6,0,0,0,.18.68,1.68,1.68,0,0,0,.43.56L57.65,58.92a1.67,1.67,0,0,0,.37.51,4.53,4.53,0,0,0,.55.43,4,4,0,0,1,.87,2.5A4,4,0,0,1,59.09,64a4.08,4.08,0,0,1-1,1.37A4.45,4.45,0,0,1,54,66.47a7.25,7.25,0,0,0-.59-2.94,7.54,7.54,0,0,0-1.69-2.48,8.2,8.2,0,0,0-6.51-2.17A6.88,6.88,0,0,0,43,52.55a7.71,7.71,0,0,0-3-1.78,8,8,0,0,0-3.43-.36,6.89,6.89,0,0,0-2.22-6.23,8,8,0,0,0-2.95-1.78A7.83,7.83,0,0,0,28,42.05a7,7,0,0,0-.31-3.4,6.94,6.94,0,0,0-1.91-2.83,7.94,7.94,0,0,0-11,0L9.65,41A23.25,23.25,0,0,1,3.44,25.22,21,21,0,0,1,9.7,10,23,23,0,0,1,40.21,8.75L29.72,19.08a7.42,7.42,0,0,0-1.87,2.4A7.29,7.29,0,0,0,29.41,30a7.9,7.9,0,0,0,11,0L51.6,19l12,12L75.28,42.64A4.08,4.08,0,0,1,76.21,44a4,4,0,0,1,.31,1.6,4,4,0,0,1-1.29,2.93ZM49.38,69.43l-5.16,5.16a4.48,4.48,0,0,1-6.21,0,4.32,4.32,0,0,1-1.3-3.09,3.93,3.93,0,0,1,1.13-3L43,63.3a4.66,4.66,0,0,1,3.18-1.19,4.59,4.59,0,0,1,3.13,1.3,4.19,4.19,0,0,1,1,1.35,4.14,4.14,0,0,1,.34,1.63A4.08,4.08,0,0,1,50.29,68a4,4,0,0,1-.94,1.37ZM35.45,66a4.48,4.48,0,0,1-6.21,0,4,4,0,0,1-.92-1.35A4.11,4.11,0,0,1,28,63.05a4.17,4.17,0,0,1,1.25-2.95l5.16-5.16a4.48,4.48,0,0,1,6.21,0,4,4,0,0,1,.92,1.35,3.94,3.94,0,0,1,.33,1.59,4,4,0,0,1-.33,1.6,4.15,4.15,0,0,1-.92,1.35ZM20.64,57.63a4.17,4.17,0,0,1-1.25-3,4.2,4.2,0,0,1,.33-1.6,4.11,4.11,0,0,1,.92-1.34l5.16-5.16a4.46,4.46,0,0,1,6.21,0,4.11,4.11,0,0,1,.92,1.34,4,4,0,0,1,0,3.2A4.11,4.11,0,0,1,32,52.46l-5.16,5.17a4.51,4.51,0,0,1-6.21,0ZM12,49.26a4.11,4.11,0,0,1-.92-1.34,4.16,4.16,0,0,1,0-3.2A4.11,4.11,0,0,1,12,43.38l5.16-5.17a4.51,4.51,0,0,1,6.21,0,4.15,4.15,0,0,1,.92,1.35,4,4,0,0,1,.33,1.6,3.94,3.94,0,0,1-.33,1.59,4,4,0,0,1-.92,1.35l-5.16,5.16a4.48,4.48,0,0,1-6.21,0ZM86,25.32a24.92,24.92,0,0,0-7.64-18,26.57,26.57,0,0,0-35.62-.91A26.43,26.43,0,0,0,7.29,7.55,24.37,24.37,0,0,0,0,25.22,26.73,26.73,0,0,0,7.72,44a7.35,7.35,0,0,0,1.9,7.74,7.83,7.83,0,0,0,5.5,2.2,6.61,6.61,0,0,0,.89,0,6.9,6.9,0,0,0,.32,3.4,6.82,6.82,0,0,0,1.9,2.83,7.82,7.82,0,0,0,5.51,2.2,6.61,6.61,0,0,0,.89,0,7,7,0,0,0,.31,3.4,6.87,6.87,0,0,0,1.91,2.83,7.85,7.85,0,0,0,5.5,2.21,8.57,8.57,0,0,0,.9-.28q0,.39,0,.78A7.87,7.87,0,0,0,38,78.37a7.86,7.86,0,0,0,8.41-1.44l5.16-5.16a7.59,7.59,0,0,0,1.46-2,7.87,7.87,0,0,0,7.48-1.94A6.89,6.89,0,0,0,62.44,65a6.81,6.81,0,0,0,.32-3.38h.67A7.89,7.89,0,0,0,69,59.35,7,7,0,0,0,71.17,53a7.46,7.46,0,0,0,6.52-2.15,7.46,7.46,0,0,0,1.57-8.61A24.88,24.88,0,0,0,86,25.32Z"/></g></g></svg>