<svg xmlns="http://www.w3.org/2000/svg" viewBox="0 0 117.19 117.19"><defs><style>.cls-1{fill:#d0f256;}</style></defs><g id="Layer_2" data-name="Layer 2"><g id="Layer_1-2" data-name="Layer 1"><path class="cls-1" d="M20.14,80.57a16.43,16.43,0,1,0,6.31,1.25A16.39,16.39,0,0,0,20.14,80.57Zm0,36.62a20.14,20.14,0,1,1,14.24-5.9A20.17,20.17,0,0,1,20.14,117.19Z"/><path class="cls-1" d="M3.66,20.14A16.47,16.47,0,1,1,8.49,31.8,16.47,16.47,0,0,1,3.66,20.14ZM106.15,63.42a1.81,1.81,0,0,0-.59-.4,2,2,0,0,0-.71-.14,1.9,1.9,0,0,0-.7.14,1.81,1.81,0,0,0-.59.4L98.88,68.1V58.59a1.8,1.8,0,0,0-.54-1.29,1.84,1.84,0,0,0-1.29-.54H22V40.2a20.14,20.14,0,1,0-3.66,0V58.59a1.81,1.81,0,0,0,.54,1.3,1.84,1.84,0,0,0,1.29.54H95.22V68.1l-4.68-4.68A1.81,1.81,0,0,0,90,63a2,2,0,0,0-.71-.14,1.9,1.9,0,0,0-.7.14,1.89,1.89,0,0,0-1,1,1.85,1.85,0,0,0,0,1.41A1.81,1.81,0,0,0,88,66l7.8,7.8a1.81,1.81,0,0,0,.59.4,1.85,1.85,0,0,0,1.41,0,1.81,1.81,0,0,0,.59-.4l7.8-7.8a1.81,1.81,0,0,0,.4-.59,1.88,1.88,0,0,0,0-1.4A1.91,1.91,0,0,0,106.15,63.42Z"/><path class="cls-1" d="M97.05,36.62A16.5,16.5,0,0,1,81.82,26.45,16.48,16.48,0,0,1,93.83,4a16.48,16.48,0,1,1,3.22,32.64ZM97.05,0A20.15,20.15,0,0,0,77,18.31H49.28L54,13.63a1.8,1.8,0,0,0,.54-1.29A1.82,1.82,0,0,0,54,11a1.82,1.82,0,0,0-2.59,0l-7.8,7.8a3.11,3.11,0,0,0-.23.28v.07c-.05.08-.09.16-.13.24v.11a1.74,1.74,0,0,0,0,1.19v.11c0,.08.08.16.13.24v.07a2,2,0,0,0,.23.27l7.8,7.8A1.83,1.83,0,1,0,54,26.63L49.28,22H77A20.14,20.14,0,1,0,97.05,0Z"/><path class="cls-1" d="M97.05,113.53a16.49,16.49,0,1,1,11.65-4.83A16.5,16.5,0,0,1,97.05,113.53Zm0-36.62A20.13,20.13,0,0,0,77,95.22H49.28L54,90.54a1.82,1.82,0,0,0,.54-1.3A1.83,1.83,0,0,0,51.37,88l-7.8,7.8a2,2,0,0,0-.23.27v.08a1.71,1.71,0,0,0-.13.23v.11a1.74,1.74,0,0,0,0,1.19v.11a1.36,1.36,0,0,0,.13.24v.07a2.15,2.15,0,0,0,.23.28l7.8,7.8a1.82,1.82,0,0,0,2.59,0,1.82,1.82,0,0,0,0-2.59l-4.68-4.66H77a20.15,20.15,0,1,0,20.06-22Z"/></g></g></svg>