<svg xmlns="http://www.w3.org/2000/svg" xmlns:xlink="http://www.w3.org/1999/xlink" viewBox="0 0 29.04 79.26"><defs><style>.cls-1{fill:none;clip-rule:evenodd;}.cls-2{clip-path:url(#clip-path);}.cls-3{fill:#fff;}</style><clipPath id="clip-path" transform="translate(1 1)"><path class="cls-1" d="M1.31,1.31a4.47,4.47,0,0,1,6.33,0l5.88,5.88L19.4,1.31a4.47,4.47,0,0,1,6.32,6.33l-5.87,5.88,5.88,5.88a4.47,4.47,0,0,1-6.33,6.32l-5.88-5.87L7.64,25.72A4.47,4.47,0,0,1,1.31,19.4l5.88-5.88L1.31,7.64A4.47,4.47,0,0,1,1.31,1.31Z"/></clipPath></defs><g id="Layer_2" data-name="Layer 2"><g id="Layer_1-2" data-name="Layer 1"><g class="cls-2"><path class="cls-3" d="M.6.6a5.5,5.5,0,0,0,0,7.75L2,6.93A3.46,3.46,0,0,1,2,2Zm0,7.75,5.88,5.88L7.9,12.81,2,6.93Zm5.88,4.46L.6,18.69,2,20.1,7.9,14.23ZM.6,18.69a5.49,5.49,0,0,0,0,7.74L2,25A3.48,3.48,0,0,1,2,20.1Zm0,7.74a5.48,5.48,0,0,0,7.75,0L6.93,25A3.46,3.46,0,0,1,2,25Zm7.75,0,5.88-5.88-1.42-1.41L6.93,25Zm4.46-5.88,5.88,5.88L20.1,25l-5.87-5.88Zm5.88,5.88a5.47,5.47,0,0,0,7.74,0L25,25a3.48,3.48,0,0,1-4.92,0Zm7.74,0a5.47,5.47,0,0,0,0-7.74L25,20.1A3.48,3.48,0,0,1,25,25Zm0-7.74-5.88-5.88-1.41,1.42L25,20.1Zm-5.88-4.46,5.88-5.88L25,6.93l-5.88,5.88Zm5.88-5.88a5.48,5.48,0,0,0,0-7.75L25,2a3.48,3.48,0,0,1,0,4.91Zm0-7.75a5.49,5.49,0,0,0-7.74,0L20.1,2A3.48,3.48,0,0,1,25,2ZM18.69.6,12.81,6.48,14.23,7.9,20.1,2ZM14.23,6.48,8.35.6,6.93,2,12.81,7.9ZM8.35.6A5.5,5.5,0,0,0,.6.6L2,2A3.46,3.46,0,0,1,6.93,2Zm-7,7L.6,8.35Zm5.88,5.88.71.71.7-.71-.7-.71ZM1.31,19.4l.71.7Zm0,6.32-.71.71Zm6.33,0L6.93,25Zm5.88-5.87.71-.71-.71-.71-.71.71Zm6.33-6.33-.71-.71-.71.71.71.71Zm5.87-5.88.71.71Zm0-6.33L26.43.6Zm-6.32,0,.7.71ZM13.52,7.19l-.71.71.71.7.71-.7ZM1.31,1.31.6.6Zm6.33,0L6.93,2Z" transform="translate(1 1)"/></g><path class="cls-3" d="M25.73,58.87a4.48,4.48,0,0,0-6.33-6.33L1.31,70.62A4.48,4.48,0,0,0,7.64,77Z" transform="translate(1 1)"/><path class="cls-3" d="M7.64,52.54a4.48,4.48,0,0,0-6.33,6.33L19.4,77a4.48,4.48,0,0,0,6.33-6.33Z" transform="translate(1 1)"/></g></g></svg>