<svg xmlns="http://www.w3.org/2000/svg" xmlns:xlink="http://www.w3.org/1999/xlink" viewBox="0 0 29.44 80.44"><defs><style>.cls-1{fill:none;clip-rule:evenodd;}.cls-2{clip-path:url(#clip-path);}.cls-3{fill:#e9f75f;}.cls-4{fill:#b1ee4d;}</style><clipPath id="clip-path" transform="translate(1 1)"><path class="cls-1" d="M1.33,1.33a4.56,4.56,0,0,1,6.43,0l6,6,6-6a4.54,4.54,0,0,1,6.42,6.43l-6,6,6,6a4.54,4.54,0,0,1-6.42,6.42l-6-6-6,6a4.54,4.54,0,0,1-6.43-6.42l6-6-6-6A4.56,4.56,0,0,1,1.33,1.33Z"/></clipPath></defs><g id="Layer_2" data-name="Layer 2"><g id="Layer_1-2" data-name="Layer 1"><g class="cls-2"><path class="cls-3" d="M.62.62a5.55,5.55,0,0,0,0,7.84L2,7.05A3.53,3.53,0,0,1,2,2Zm0,7.84,6,6L8,13l-6-6Zm6,4.55-6,6L2,20.4l6-6Zm-6,6a5.55,5.55,0,0,0,0,7.84L2,25.41a3.53,3.53,0,0,1,0-5Zm0,7.84a5.55,5.55,0,0,0,7.84,0L7.05,25.41a3.55,3.55,0,0,1-5,0Zm7.84,0,6-6L13,19.44l-6,6Zm4.56-6,6,6,1.42-1.41-6-6Zm6,6a5.55,5.55,0,0,0,7.84,0l-1.41-1.41a3.55,3.55,0,0,1-5,0Zm7.84,0a5.53,5.53,0,0,0,0-7.84l-1.41,1.41a3.56,3.56,0,0,1,0,5Zm0-7.84-6-6-1.41,1.42,6,6Zm-6-4.55,6-6L25.41,7.05l-6,6Zm6-6a5.55,5.55,0,0,0,0-7.84L25.41,2a3.55,3.55,0,0,1,0,5Zm0-7.84A5.55,5.55,0,0,0,19,.62L20.39,2a3.54,3.54,0,0,1,5,0ZM19,.62l-6,6L14.43,8l6-6Zm-4.55,6-6-6L7.05,2l6,6Zm-6-6A5.55,5.55,0,0,0,.62.62L2,2a3.53,3.53,0,0,1,5,0ZM1.33,7.76l-.71.7Zm6,6,.7.71.71-.71L8,13Zm-6,6L.62,19Zm0,6.42-.71.71Zm6.43,0,.7.71Zm6-6,.71-.71-.71-.71-.7.71Zm12.39-.46-.7.7Zm-6-6L19.44,13l-.71.71.71.71Zm6-6,.71.7Zm0-6.43.71-.71Zm-6.42,0,.7.71Zm-6,6L13,8l.7.71L14.43,8Zm-12.39-6L.62.62Zm6.43,0L7.05,2Z" transform="translate(1 1)"/></g><path class="cls-4" d="M26.11,59.76a4.54,4.54,0,0,0-6.42-6.43L1.33,71.69a4.54,4.54,0,1,0,6.43,6.42Z" transform="translate(1 1)"/><path class="cls-4" d="M7.76,53.33a4.55,4.55,0,0,0-6.43,6.43L19.69,78.11a4.54,4.54,0,1,0,6.42-6.42Z" transform="translate(1 1)"/></g></g></svg>