<svg xmlns="http://www.w3.org/2000/svg" viewBox="0 0 15.99 16.94"><g id="Layer_2" data-name="Layer 2"><g id="Layer_1-2" data-name="Layer 1"><path d="M3.48,16.94c0-.19,0-.29-.11-.29l-.51.25a.22.22,0,0,0-.18-.22l-.17,0a1,1,0,0,0-.44.16A1.51,1.51,0,0,0,2,16.59a2.19,2.19,0,0,1-.11-.2c-.19-.37-.38-.77-.57-1.21l-.51-1.3-.35-1a7.34,7.34,0,0,1-.2-.85C.15,11.67.07,11.19,0,10.6a.76.76,0,0,0,.37.16c.11,0,.2-.16.29-.46a.3.3,0,0,0,.24.08.25.25,0,0,0,.2-.08l.35-.53.4.13h0a.12.12,0,0,0,.09,0,.48.48,0,0,1,.13-.09.55.55,0,0,1,.26-.11l.07,0a1.3,1.3,0,0,1,.7,1c.27,1.11.53,1.67.8,1.67s.57-.28.92-.84a9.2,9.2,0,0,0,.53-1c.19-.37.38-.78.57-1.24q0,.27.09.27c.07,0,.2-.19.37-.55s.49-.87.9-1.52c.24-.4.53-.84.88-1.34s.76-1,1.17-1.54.81-1,1.19-1.5.75-.87,1.05-1.21a4.61,4.61,0,0,1,.69-.66A8.32,8.32,0,0,0,13.6.13a2.46,2.46,0,0,1-.07.29c0,.07,0,.12,0,.15a.08.08,0,0,0,.09.09l.61-.31V.44q0,.18.09.18s.13-.07.26-.2a.68.68,0,0,0,.22-.29l0,.31L15.49,0l-.18.4a1.12,1.12,0,0,1,.51-.25c.06,0,.1,0,.13.11a.39.39,0,0,1,0,.18.56.56,0,0,1-.11.31c-.07.12-.16.25-.28.42l-.44.52-.88,1c-.4.43-.93,1-1.59,1.79-.17.19-.44.52-.81,1s-.78,1-1.25,1.65S9.72,8.37,9.26,9s-.86,1.2-1.21,1.71-.6.88-.75,1.13L5.94,14.15l-.73,1.23a4.65,4.65,0,0,1-.44.64,5.29,5.29,0,0,1-.72.7l-.2-.11-.18.11Z"/></g></g></svg>