<svg xmlns="http://www.w3.org/2000/svg" xmlns:xlink="http://www.w3.org/1999/xlink" viewBox="0 0 92.57 161.14"><defs><style>.cls-1{fill:none;}.cls-2,.cls-4{fill:#d0f256;}.cls-2{fill-rule:evenodd;}.cls-3{clip-path:url(#clip-path);}</style><clipPath id="clip-path"><circle class="cls-1" cx="47.29" cy="80.57" r="40.28"/></clipPath></defs><g id="Layer_2" data-name="Layer 2"><g id="Layer_1-2" data-name="Layer 1"><path class="cls-2" d="M48.67,161.14V134.36L53.35,139a1.85,1.85,0,0,0,2.59,0,1.87,1.87,0,0,0,.54-1.3,1.82,1.82,0,0,0-.54-1.29l-7.8-7.8a1.23,1.23,0,0,0-.28-.23h-.07a.92.92,0,0,0-.24-.13h-.11a1.63,1.63,0,0,0-1.19,0h-.11a1,1,0,0,0-.23.13h-.08a1.18,1.18,0,0,0-.27.23l-7.8,7.8a1.78,1.78,0,0,0-.54,1.29,1.83,1.83,0,0,0,1.83,1.83,1.86,1.86,0,0,0,1.3-.53L45,134.36v26.78Z"/><path class="cls-2" d="M48.67,33V6.18l4.68,4.68a1.83,1.83,0,1,0,2.59-2.59L48.14.47a1.56,1.56,0,0,0-.28-.23h-.07a1.36,1.36,0,0,0-.24-.13h-.11a1.63,1.63,0,0,0-1.19,0h-.11a1.71,1.71,0,0,0-.23.13h-.08a1.49,1.49,0,0,0-.27.23l-7.8,7.8a1.82,1.82,0,0,0,0,2.59,1.84,1.84,0,0,0,1.29.54,1.87,1.87,0,0,0,1.3-.54L45,6.18V33Z"/><path class="cls-2" d="M70.42,41.83l15.3-22,1.17,6.51a1.85,1.85,0,0,0,.76,1.18,1.79,1.79,0,0,0,1.37.3,1.87,1.87,0,0,0,1.18-.76,1.89,1.89,0,0,0,.3-1.37l-2-10.86a2.14,2.14,0,0,0-.09-.34l-.06,0-.12-.24-.09-.07a1.67,1.67,0,0,0-1-.68l-.09-.06-.27,0-.06,0a2,2,0,0,0-.35,0L75.58,15.33a1.82,1.82,0,0,0-1.18.76,1.84,1.84,0,0,0,.45,2.55,1.85,1.85,0,0,0,1.37.3l6.5-1.18-15.31,22Z"/><path class="cls-2" d="M20.68,41.31,9,17.2l6.25,2.18a1.83,1.83,0,0,0,2.25-2.53,1.82,1.82,0,0,0-1.05-.93L6.05,12.29a1.37,1.37,0,0,0-.35-.08l-.06,0a1.22,1.22,0,0,0-.27,0l-.1,0a1.68,1.68,0,0,0-1.07.52l-.1.05a1.77,1.77,0,0,0-.16.22l-.06,0a1.66,1.66,0,0,0-.15.33L.1,23.83a1.84,1.84,0,0,0,2.53,2.26A1.85,1.85,0,0,0,3.56,25L5.72,18.8,17.38,42.91Z"/><g class="cls-3"><path class="cls-4" d="M47.29,45.28A35.28,35.28,0,0,1,82.57,80.57h10A45.29,45.29,0,0,0,47.29,35.28ZM12,80.57A35.28,35.28,0,0,1,47.29,45.28v-10A45.29,45.29,0,0,0,2,80.57Zm35.28,35.28A35.27,35.27,0,0,1,12,80.57H2a45.28,45.28,0,0,0,45.28,45.28ZM82.57,80.57a35.27,35.27,0,0,1-35.28,35.28v10A45.28,45.28,0,0,0,92.57,80.57Z"/></g></g></g></svg>