<svg xmlns="http://www.w3.org/2000/svg" xmlns:xlink="http://www.w3.org/1999/xlink" viewBox="0 0 97 114.23"><defs><style>.cls-1{fill:none;clip-rule:evenodd;}.cls-2{clip-path:url(#clip-path);}.cls-3{fill:#cdf256;}.cls-4{fill:#b1ee4d;}</style><clipPath id="clip-path" transform="translate(1 1)"><path class="cls-1" d="M4.61,4.61a15.71,15.71,0,0,1,22.24,0L47.5,25.26,68.15,4.61A15.73,15.73,0,1,1,90.39,26.85L69.74,47.5,90.4,68.15A15.73,15.73,0,1,1,68.15,90.39L47.5,69.74,26.85,90.4A15.73,15.73,0,0,1,4.61,68.15L25.26,47.5,4.61,26.85A15.73,15.73,0,0,1,4.61,4.61Z"/></clipPath></defs><g id="Layer_2" data-name="Layer 2"><g id="Layer_1-2" data-name="Layer 1"><g class="cls-2"><path class="cls-3" d="M3.9,3.9a16.72,16.72,0,0,0,0,23.65l1.42-1.41a14.71,14.71,0,0,1,0-20.83Zm0,23.65L24.55,48.21,26,46.79,5.32,26.14ZM24.55,46.79,3.9,67.45l1.41,1.41L26,48.21ZM3.9,67.45a16.72,16.72,0,0,0,0,23.65l1.41-1.41a14.73,14.73,0,0,1,0-20.83Zm0,23.65a16.72,16.72,0,0,0,23.65,0l-1.41-1.41a14.73,14.73,0,0,1-20.83,0Zm23.65,0L48.21,70.45,46.79,69,26.14,89.69ZM46.79,70.45,67.45,91.1l1.41-1.41L48.21,69ZM67.45,91.1a16.72,16.72,0,0,0,23.65,0l-1.41-1.41a14.73,14.73,0,0,1-20.83,0Zm23.65,0a16.72,16.72,0,0,0,0-23.65l-1.41,1.41a14.73,14.73,0,0,1,0,20.83Zm0-23.65L70.45,46.79,69,48.21,89.69,68.86ZM70.45,48.21,91.1,27.56l-1.41-1.42L69,46.79ZM91.1,27.56a16.74,16.74,0,0,0,0-23.66L89.69,5.32a14.72,14.72,0,0,1,0,20.82Zm0-23.66a16.74,16.74,0,0,0-23.66,0l1.42,1.42a14.73,14.73,0,0,1,20.83,0Zm-23.66,0L46.8,24.55,48.21,26,68.86,5.32ZM48.21,24.55,27.56,3.9,26.14,5.31,46.8,26ZM27.56,3.9A16.74,16.74,0,0,0,3.9,3.9L5.32,5.31a14.72,14.72,0,0,1,20.82,0Zm-22.95,23-.71.7ZM25.26,47.5l.71.71.71-.71L26,46.79ZM4.61,68.15l-.71-.7Zm0,22.25.7-.71Zm22.24,0-.71-.71ZM47.5,69.74l.71-.71-.71-.7-.71.7ZM68.15,90.39l.71-.7Zm22.25,0,.7.71ZM69.74,47.5l-.7-.71-.71.71.71.71ZM90.39,26.85l.71.71Zm0-22.24.71-.71Zm-22.24,0,.71.71ZM47.5,25.26l-.7.71.7.7.71-.7ZM4.61,4.61,3.9,3.9Zm22.24,0-.71.7Z" transform="translate(1 1)"/></g><path class="cls-4" d="M26.11,93.54a4.54,4.54,0,0,0-6.42-6.43L1.33,105.47a4.55,4.55,0,0,0,6.43,6.43Z" transform="translate(1 1)"/><path class="cls-4" d="M7.76,87.11a4.55,4.55,0,1,0-6.43,6.43L19.69,111.9a4.54,4.54,0,0,0,6.42-6.43Z" transform="translate(1 1)"/></g></g></svg>