<svg xmlns="http://www.w3.org/2000/svg" xmlns:xlink="http://www.w3.org/1999/xlink" viewBox="0 0 127.97 115.93"><defs><style>.cls-1{fill:none;clip-rule:evenodd;}.cls-2{fill:#cdf256;}.cls-3{clip-path:url(#clip-path);}.cls-4{clip-path:url(#clip-path-2);}.cls-5{clip-path:url(#clip-path-3);}.cls-6{fill:#b1ee4d;}</style><clipPath id="clip-path" transform="translate(0.94 0.94)"><path class="cls-1" d="M8.7,84.77A5.09,5.09,0,0,0,1.49,92l20.59,20.58a5.09,5.09,0,0,0,7.2-7.2Z"/></clipPath><clipPath id="clip-path-2" transform="translate(0.94 0.94)"><path class="cls-1" d="M29.28,92a5.09,5.09,0,0,0-7.2-7.21L1.49,105.35a5.09,5.09,0,0,0,7.21,7.2Z"/></clipPath><clipPath id="clip-path-3" transform="translate(0.94 0.94)"><path class="cls-1" d="M122.4,3.68a12.54,12.54,0,0,1,0,17.74L105.92,37.9,122.4,54.38a12.55,12.55,0,0,1-17.74,17.75L88.18,55.65,71.7,72.13A12.55,12.55,0,0,1,54,54.38L70.43,37.9,54,21.43A12.55,12.55,0,0,1,71.7,3.68L88.18,20.16,104.66,3.68A12.52,12.52,0,0,1,122.4,3.68Z"/></clipPath></defs><g id="Layer_2" data-name="Layer 2"><g id="Layer_1-2" data-name="Layer 1"><path class="cls-2" d="M29.28,92a5.09,5.09,0,0,0-7.2-7.21L1.49,105.35a5.09,5.09,0,0,0,7.21,7.2Z" transform="translate(0.94 0.94)"/><g class="cls-3"><path class="cls-2" d="M.83,84.1a6,6,0,0,1,8.53,0L8,85.43a4.15,4.15,0,0,0-5.87,0Zm1.33,1.33a4.15,4.15,0,0,0,0,5.87L.83,92.64a6,6,0,0,1,0-8.54Zm20.58,26.46a4.15,4.15,0,0,0,5.87,0L30,113.22a6,6,0,0,1-8.54,0Zm5.87,0a4.13,4.13,0,0,0,0-5.87L30,104.68a6,6,0,0,1,0,8.54Zm0-5.87L8,85.43,9.36,84.1,30,104.68ZM2.16,91.3l20.58,20.59-1.33,1.33L.83,92.64Z" transform="translate(0.94 0.94)"/></g><g class="cls-4"><path class="cls-2" d="M30,84.1a6,6,0,0,1,0,8.53L28.61,91.3a4.15,4.15,0,0,0,0-5.87Zm-1.34,1.33a4.15,4.15,0,0,0-5.87,0L21.41,84.1a6,6,0,0,1,8.54,0ZM2.16,106a4.15,4.15,0,0,0,0,5.87L.83,113.22a6,6,0,0,1,0-8.54Zm0,5.87a4.15,4.15,0,0,0,5.87,0l1.33,1.34a6,6,0,0,1-8.53,0Zm5.87,0L28.61,91.3,30,92.63,9.36,113.22ZM22.74,85.43,2.16,106,.83,104.68,21.41,84.1Z" transform="translate(0.94 0.94)"/></g><path class="cls-2" d="M8.7,84.77A5.09,5.09,0,0,0,1.49,92l20.59,20.58a5.09,5.09,0,0,0,7.2-7.2Z" transform="translate(0.94 0.94)"/><g class="cls-5"><path class="cls-6" d="M121.74,4.34a11.62,11.62,0,0,0-16.42,0L104,3a13.49,13.49,0,0,1,19.08,0Zm-16.42,0L88.84,20.82l-1.33-1.33L104,3ZM87.51,20.82,71,4.35,72.37,3,88.84,19.49ZM71,4.35a11.59,11.59,0,0,0-16.41,0L53.29,3A13.49,13.49,0,0,1,72.37,3Zm-16.41,0a11.61,11.61,0,0,0,0,16.41l-1.33,1.33A13.49,13.49,0,0,1,53.29,3Zm0,16.41L71.1,37.24l-1.34,1.33L53.29,22.09ZM71.1,38.57,54.62,55.05l-1.33-1.34L69.76,37.24ZM54.62,55.05a11.61,11.61,0,0,0,0,16.41l-1.33,1.33a13.49,13.49,0,0,1,0-19.08Zm0,16.41a11.61,11.61,0,0,0,16.41,0l1.34,1.33a13.49,13.49,0,0,1-19.08,0Zm16.41,0L87.51,55l1.33,1.34L72.37,72.79ZM88.84,55l16.48,16.48L104,72.8,87.51,56.32Zm16.48,16.48a11.6,11.6,0,0,0,16.42,0l1.33,1.34a13.49,13.49,0,0,1-19.08,0Zm16.42,0a11.61,11.61,0,0,0,0-16.41l1.33-1.33a13.49,13.49,0,0,1,0,19.08Zm0-16.41L105.26,38.57l1.33-1.33,16.48,16.48ZM105.26,37.24l16.48-16.49,1.33,1.34L106.59,38.57Zm16.48-16.49a11.61,11.61,0,0,0,0-16.41L123.07,3a13.49,13.49,0,0,1,0,19.08ZM104.66,3.68l.66.66ZM88.18,20.16l.66.66-.66.67-.67-.67ZM71.7,3.68,71,4.35ZM54,3.68l.67.67Zm0,17.75.67-.67ZM70.43,37.9l.67-.66.66.66-.66.67ZM54,54.38l.67.67ZM71.7,72.13l.67.66ZM88.18,55.65,87.51,55l.67-.66.66.66Zm16.48,16.48.66-.67Zm17.74,0,.67.67Zm0-17.75-.66.67ZM105.92,37.9l-.66.67-.67-.67.67-.66ZM122.4,3.68l.67-.67Zm0,17.74-.66-.67Z" transform="translate(0.94 0.94)"/></g></g></g></svg>