<svg width="28" height="28" viewBox="0 0 28 28" fill="none" xmlns="http://www.w3.org/2000/svg">
<mask id="path-1-inside-1" fill="white">
<path fill-rule="evenodd" clip-rule="evenodd" d="M1.54319 1.33065C3.31739 -0.443551 6.19394 -0.44355 7.96814 1.33065L13.9342 7.29674L19.8995 1.33152C21.6737 -0.442658 24.5502 -0.442658 26.3244 1.33152C28.0986 3.1057 28.0986 5.98221 26.3244 7.75639L20.3591 13.7216L26.3252 19.6877C28.0994 21.4619 28.0994 24.3384 26.3252 26.1126C24.551 27.8868 21.6744 27.8868 19.9002 26.1126L13.9341 20.1466L7.9675 26.1131C6.1933 27.8873 3.31676 27.8873 1.54256 26.1131C-0.231634 24.339 -0.231636 21.4625 1.54256 19.6883L7.50924 13.7217L1.54319 7.75561C-0.231015 5.98141 -0.231016 3.10486 1.54319 1.33065Z"/>
</mask>
<path d="M7.96814 1.33065L7.26104 2.03776L7.96814 1.33065ZM1.54319 1.33065L0.83608 0.623545H0.83608L1.54319 1.33065ZM13.9342 7.29674L13.2271 8.00385L13.9342 8.71095L14.6413 8.00385L13.9342 7.29674ZM19.8995 1.33152L20.6066 2.03863L19.8995 1.33152ZM26.3244 1.33152L27.0316 0.62441L27.0315 0.624409L26.3244 1.33152ZM26.3244 7.75639L27.0316 8.4635L26.3244 7.75639ZM20.3591 13.7216L19.652 13.0145L18.9449 13.7216L19.652 14.4287L20.3591 13.7216ZM26.3252 19.6877L25.6181 20.3948H25.6181L26.3252 19.6877ZM13.9341 20.1466L14.6412 19.4395L13.9341 18.7324L13.227 19.4395L13.9341 20.1466ZM7.9675 26.1131L8.6746 26.8203V26.8203L7.9675 26.1131ZM1.54256 26.1131L0.835459 26.8203L0.83546 26.8203L1.54256 26.1131ZM1.54256 19.6883L0.835458 18.9812L0.835458 18.9812L1.54256 19.6883ZM7.50924 13.7217L8.21634 14.4288L8.92346 13.7217L8.21635 13.0146L7.50924 13.7217ZM1.54319 7.75561L0.836081 8.46272L1.54319 7.75561ZM8.67525 0.623546C6.51052 -1.54118 3.00081 -1.54118 0.83608 0.623545L2.25029 2.03776C3.63397 0.65408 5.87736 0.65408 7.26104 2.03776L8.67525 0.623546ZM14.6413 6.58963L8.67525 0.623546L7.26104 2.03776L13.2271 8.00385L14.6413 6.58963ZM19.1924 0.62441L13.2271 6.58963L14.6413 8.00385L20.6066 2.03863L19.1924 0.62441ZM27.0315 0.624409C24.8668 -1.54029 21.3571 -1.54029 19.1924 0.62441L20.6066 2.03863C21.9903 0.654972 24.2337 0.654971 25.6173 2.03863L27.0315 0.624409ZM27.0316 8.4635C29.1963 6.29879 29.1963 2.78911 27.0316 0.62441L25.6173 2.03863C27.001 3.42228 27.001 5.66562 25.6173 7.04928L27.0316 8.4635ZM21.0662 14.4288L27.0316 8.4635L25.6173 7.04928L19.652 13.0145L21.0662 14.4288ZM27.0323 18.9806L21.0662 13.0145L19.652 14.4287L25.6181 20.3948L27.0323 18.9806ZM27.0323 26.8197C29.197 24.655 29.197 21.1453 27.0323 18.9806L25.6181 20.3948C27.0017 21.7785 27.0017 24.0218 25.6181 25.4055L27.0323 26.8197ZM19.1931 26.8197C21.3578 28.9845 24.8675 28.9845 27.0323 26.8197L25.6181 25.4055C24.2344 26.7892 21.991 26.7892 20.6073 25.4055L19.1931 26.8197ZM13.227 20.8537L19.1931 26.8197L20.6073 25.4055L14.6412 19.4395L13.227 20.8537ZM8.6746 26.8203L14.6412 20.8537L13.227 19.4395L7.2604 25.406L8.6746 26.8203ZM0.83546 26.8203C3.00018 28.985 6.50988 28.985 8.6746 26.8203L7.2604 25.406C5.87672 26.7897 3.63334 26.7897 2.24967 25.406L0.83546 26.8203ZM0.835458 18.9812C-1.32927 21.1459 -1.32927 24.6556 0.835459 26.8203L2.24967 25.406C0.865997 24.0224 0.865997 21.779 2.24966 20.3954L0.835458 18.9812ZM6.80214 13.0146L0.835458 18.9812L2.24966 20.3954L8.21634 14.4288L6.80214 13.0146ZM0.836081 8.46272L6.80213 14.4288L8.21635 13.0146L2.25029 7.0485L0.836081 8.46272ZM0.83608 0.623545C-1.32865 2.78827 -1.32865 6.29799 0.836081 8.46272L2.25029 7.0485C0.866616 5.66482 0.866615 3.42144 2.25029 2.03776L0.83608 0.623545Z" fill="#E9F75F" mask="url(#path-1-inside-1)"/>
</svg>
