<svg xmlns="http://www.w3.org/2000/svg" xmlns:xlink="http://www.w3.org/1999/xlink" viewBox="0 0 115.28 89.86"><defs><style>.cls-1{fill:none;clip-rule:evenodd;}.cls-2{fill:#fff;}.cls-3{clip-path:url(#clip-path);}.cls-4{clip-path:url(#clip-path-2);}.cls-5{clip-path:url(#clip-path-3);}</style><clipPath id="clip-path" transform="translate(0.95 0.95)"><path class="cls-1" d="M29.28,65.88a5.09,5.09,0,0,0-7.2-7.2L1.49,79.26A5.1,5.1,0,1,0,8.7,86.47Z"/></clipPath><clipPath id="clip-path-2" transform="translate(0.95 0.95)"><path class="cls-1" d="M8.7,58.68a5.1,5.1,0,1,0-7.21,7.21L22.08,86.47a5.09,5.09,0,1,0,7.2-7.2Z"/></clipPath><clipPath id="clip-path-3" transform="translate(0.95 0.95)"><path class="cls-1" d="M110.94,2.44a8.36,8.36,0,0,1,0,11.8l-11,11,11,11A8.34,8.34,0,0,1,99.14,48l-11-11-11,11a8.34,8.34,0,1,1-11.8-11.8l11-11-11-11A8.34,8.34,0,1,1,77.22,2.45l11,11,11-11A8.36,8.36,0,0,1,110.94,2.44Z"/></clipPath></defs><g id="Layer_2" data-name="Layer 2"><g id="Layer_1-2" data-name="Layer 1"><path class="cls-2" d="M29.28,65.88a5.09,5.09,0,0,0-7.2-7.2L1.49,79.26A5.1,5.1,0,1,0,8.7,86.47Z" transform="translate(0.95 0.95)"/><g class="cls-3"><path class="cls-2" d="M30,58a6,6,0,0,1,0,8.54l-1.34-1.34a4.14,4.14,0,0,0,0-5.86Zm-1.34,1.34a4.14,4.14,0,0,0-5.86,0L21.41,58A6,6,0,0,1,30,58ZM2.16,79.93a4.15,4.15,0,0,0,0,5.87L.82,87.14a6,6,0,0,1,0-8.55Zm0,5.87A4.15,4.15,0,0,0,8,85.8l1.34,1.34a6,6,0,0,1-8.55,0ZM8,85.8,28.61,65.21,30,66.55,9.37,87.14ZM22.75,59.35,2.16,79.93.82,78.59,21.41,58Z" transform="translate(0.95 0.95)"/></g><path class="cls-2" d="M8.7,58.68a5.1,5.1,0,1,0-7.21,7.21L22.08,86.47a5.09,5.09,0,1,0,7.2-7.2Z" transform="translate(0.95 0.95)"/><g class="cls-4"><path class="cls-2" d="M.82,58a6,6,0,0,1,8.55,0L8,59.35a4.15,4.15,0,0,0-5.87,0Zm1.34,1.34a4.15,4.15,0,0,0,0,5.87L.82,66.56A6,6,0,0,1,.82,58ZM22.75,85.8a4.14,4.14,0,0,0,5.86,0L30,87.14a6,6,0,0,1-8.54,0Zm5.86,0a4.14,4.14,0,0,0,0-5.86L30,78.6a6,6,0,0,1,0,8.54Zm0-5.86L8,59.35,9.37,58,30,78.6ZM2.16,65.22,22.75,85.8l-1.34,1.34L.82,66.56Z" transform="translate(0.95 0.95)"/></g><g class="cls-5"><path class="cls-2" d="M110.27,3.11a7.41,7.41,0,0,0-10.46,0L98.47,1.77a9.29,9.29,0,0,1,13.14,0Zm-10.46,0-11,11-1.34-1.34,11-11Zm-12.3,11-11-10.95,1.34-1.34,11,11Zm-11-10.95a7.39,7.39,0,0,0-10.46,0L64.75,1.78a9.29,9.29,0,0,1,13.14,0Zm-10.46,0a7.4,7.4,0,0,0,0,10.45l-1.34,1.35a9.29,9.29,0,0,1,0-13.14Zm0,10.45,11,11-1.34,1.34-11-11Zm11,12.3-11,11-1.34-1.34,11-11Zm-11,11a7.41,7.41,0,0,0,0,10.46l-1.34,1.34a9.29,9.29,0,0,1,0-13.14Zm0,10.46a7.41,7.41,0,0,0,10.46,0l1.34,1.34a9.31,9.31,0,0,1-13.14,0Zm10.46,0,11-11,1.34,1.34-11,11Zm12.3-11,11,11-1.34,1.34-11-11Zm11,11a7.39,7.39,0,0,0,10.46,0l1.34,1.34a9.29,9.29,0,0,1-13.14,0Zm10.46,0a7.41,7.41,0,0,0,0-10.46l1.34-1.34a9.31,9.31,0,0,1,0,13.14Zm0-10.46-11-11,1.34-1.34,11,11Zm-11-12.3,11-11,1.34,1.34-11,11Zm11-11a7.41,7.41,0,0,0,0-10.46l1.34-1.34a9.31,9.31,0,0,1,0,13.14ZM99.14,2.44l-.67-.67Zm-11,11,.67.67-.67.67-.67-.67Zm-11-10.95-.67.67Zm-11.8,0,.67.67Zm0,11.79.67-.67Zm11,11,.67-.67.67.67-.67.67Zm-11,11-.67-.67Zm0,11.8-.67.67Zm11.8,0-.67-.67Zm11-11-.67-.67.67-.67.67.67Zm11,11-.67.67Zm11.8,0,.67.67Zm0-11.8-.67.67Zm-11-11-.67.67-.67-.67.67-.67Zm11-22.76.67-.67Zm0,11.8.67.67Z" transform="translate(0.95 0.95)"/></g></g></g></svg>