<?xml version="1.0" encoding="UTF-8"?>
<svg width="63px" height="63px" viewBox="0 0 63 63" version="1.1" xmlns="http://www.w3.org/2000/svg" xmlns:xlink="http://www.w3.org/1999/xlink">
    <title>icon-x-green</title>
    <defs>
        <path d="M3.4721775,2.9939625 C7.4641275,-0.99798975 13.936365,-0.9979875 17.928315,2.9939625 L31.35195,16.417665 L44.773875,2.99592 C48.765825,-0.9959805 55.23795,-0.9959805 59.2299,2.99592 C63.22185,6.987825 63.22185,13.4599725 59.2299,17.4518775 L45.807975,30.8736 L59.2317,44.297325 C63.22365,48.289275 63.22365,54.7614 59.2317,58.75335 C55.23975,62.7453 48.7674,62.7453 44.77545,58.75335 L31.351725,45.32985 L17.926875,58.754475 C13.934925,62.746425 7.46271,62.746425 3.47076,58.754475 C-0.5211765,54.76275 -0.521181,48.290625 3.47076,44.298675 L16.89579,30.873825 L3.4721775,17.4501225 C-0.51978375,13.4581725 -0.519786,6.985935 3.4721775,2.9939625 Z" id="path-1"></path>
    </defs>
    <g id="Page-1" stroke="none" stroke-width="1" fill="none" fill-rule="evenodd">
        <g id="icon-x-green">
            <mask id="mask-2" fill="white">
                <use xlink:href="#path-1"></use>
            </mask>
            <g id="Path"></g>
            <path d="M17.928315,2.9939625 L16.33734,4.58496 L17.928315,2.9939625 Z M3.4721775,2.9939625 L1.88118,1.40297625 L1.88118,1.40297625 L3.4721775,2.9939625 Z M31.35195,16.417665 L29.760975,18.0086625 L31.35195,19.5996375 L32.942925,18.0086625 L31.35195,16.417665 Z M44.773875,2.99592 L46.36485,4.5869175 L44.773875,2.99592 Z M59.2299,2.99592 L60.8211,1.4049225 L60.820875,1.40492025 L59.2299,2.99592 Z M59.2299,17.4518775 L60.8211,19.042875 L59.2299,17.4518775 Z M45.807975,30.8736 L44.217,29.282625 L42.626025,30.8736 L44.217,32.464575 L45.807975,30.8736 Z M59.2317,44.297325 L57.640725,45.8883 L57.640725,45.8883 L59.2317,44.297325 Z M31.351725,45.32985 L32.9427,43.738875 L31.351725,42.1479 L29.76075,43.738875 L31.351725,45.32985 Z M17.926875,58.754475 L19.51785,60.345675 L19.51785,60.345675 L17.926875,58.754475 Z M3.47076,58.754475 L1.87978275,60.345675 L1.879785,60.345675 L3.47076,58.754475 Z M3.47076,44.298675 L1.8797805,42.7077 L1.8797805,42.7077 L3.47076,44.298675 Z M16.89579,30.873825 L18.486765,32.4648 L20.077785,30.873825 L18.4867875,29.28285 L16.89579,30.873825 Z M3.4721775,17.4501225 L1.88118225,19.04112 L3.4721775,17.4501225 Z M19.5193125,1.4029785 C14.64867,-3.467655 6.7518225,-3.467655 1.88118,1.40297625 L5.0631525,4.58496 C8.1764325,1.47168 13.22406,1.47168 16.33734,4.58496 L19.5193125,1.4029785 Z M32.942925,14.8266675 L19.5193125,1.4029785 L16.33734,4.58496 L29.760975,18.0086625 L32.942925,14.8266675 Z M43.1829,1.4049225 L29.760975,14.8266675 L32.942925,18.0086625 L46.36485,4.5869175 L43.1829,1.4049225 Z M60.820875,1.40492025 C55.9503,-3.4656525 48.053475,-3.4656525 43.1829,1.4049225 L46.36485,4.5869175 C49.478175,1.473687 54.525825,1.47368475 57.638925,4.5869175 L60.820875,1.40492025 Z M60.8211,19.042875 C65.691675,14.1722775 65.691675,6.2754975 60.8211,1.4049225 L57.638925,4.5869175 C60.75225,7.70013 60.75225,12.747645 57.638925,15.86088 L60.8211,19.042875 Z M47.39895,32.4648 L60.8211,19.042875 L57.638925,15.86088 L44.217,29.282625 L47.39895,32.4648 Z M60.822675,42.70635 L47.39895,29.282625 L44.217,32.464575 L57.640725,45.8883 L60.822675,42.70635 Z M60.822675,60.344325 C65.69325,55.47375 65.69325,47.576925 60.822675,42.70635 L57.640725,45.8883 C60.753825,49.001625 60.753825,54.04905 57.640725,57.162375 L60.822675,60.344325 Z M43.184475,60.344325 C48.05505,65.215125 55.951875,65.215125 60.822675,60.344325 L57.640725,57.162375 C54.5274,60.2757 49.47975,60.2757 46.366425,57.162375 L43.184475,60.344325 Z M29.76075,46.920825 L43.184475,60.344325 L46.366425,57.162375 L32.9427,43.738875 L29.76075,46.920825 Z M19.51785,60.345675 L32.9427,46.920825 L29.76075,43.738875 L16.3359,57.1635 L19.51785,60.345675 Z M1.879785,60.345675 C6.750405,65.21625 14.64723,65.21625 19.51785,60.345675 L16.3359,57.1635 C13.22262,60.276825 8.175015,60.276825 5.0617575,57.1635 L1.879785,60.345675 Z M1.8797805,42.7077 C-2.9908575,47.578275 -2.9908575,55.4751 1.87978275,60.345675 L5.0617575,57.1635 C1.94849325,54.0504 1.94849325,49.00275 5.0617575,45.88965 L1.8797805,42.7077 Z M15.304815,29.28285 L1.8797805,42.7077 L5.061735,45.88965 L18.486765,32.4648 L15.304815,29.28285 Z M1.88118225,19.04112 L15.3047925,32.4648 L18.4867875,29.28285 L5.0631525,15.859125 L1.88118225,19.04112 Z M1.88118,1.40297625 C-2.9894625,6.2736075 -2.9894625,14.1704775 1.88118225,19.04112 L5.0631525,15.859125 C1.949886,12.745845 1.94988375,7.69824 5.0631525,4.58496 L1.88118,1.40297625 Z" id="Shape" fill="#E9F75F" fill-rule="nonzero" mask="url(#mask-2)"></path>
        </g>
    </g>
</svg>