<svg xmlns="http://www.w3.org/2000/svg" viewBox="0 0 229.87 225.45"><defs><style>.cls-1{fill:#404040;}</style></defs><g id="Layer_2" data-name="Layer 2"><g id="Layer_1-2" data-name="Layer 1"><polygon class="cls-1" points="88.05 216.28 84.35 214.65 85.16 212.79 91.19 215.45 86.78 225.45 84.46 224.43 88.05 216.28"/><polygon class="cls-1" points="57.95 212.77 59.13 211.22 62.7 213.94 64.24 211.91 61.51 209.82 62.64 208.33 65.38 210.41 66.95 208.34 63.38 205.63 64.56 204.07 70.16 208.34 63.54 217.03 57.95 212.77"/><path class="cls-1" d="M40.53,202.44l-1.24-1.62a.93.93,0,0,1-.21-.52.83.83,0,0,1,.13-.48l3.36-5.23c.14-.24.3-.48.48-.74s.38-.52.59-.79c-.31.14-.61.27-.9.38l-.83.29L36,195.62a.78.78,0,0,1-.48,0,.88.88,0,0,1-.46-.32l-1.25-1.63,11.34-3.17,1.4,1.82Z"/><path class="cls-1" d="M26.05,165.49l.66,1.62a.9.9,0,0,1,.06.5.91.91,0,0,1-.24.38l-1.64,1.46,1.62,4,2.21-.1a.83.83,0,0,1,.41.12.68.68,0,0,1,.32.38l.66,1.63-11.68.15-.87-2.13Zm-2.4,5.06L21,172.89c-.13.13-.3.28-.48.44s-.4.32-.63.49l.81-.09.65,0,3.51-.16Z"/><polygon class="cls-1" points="5.61 143.43 7.6 143.14 8.05 146.18 16.87 144.88 17.24 147.39 8.42 148.69 8.86 151.73 6.87 152.02 5.61 143.43"/><rect class="cls-1" x="6.56" y="118.72" width="2.55" height="10.93" transform="translate(-116.49 129.31) rotate(-88.75)"/><path class="cls-1" d="M.4,104.34a1.09,1.09,0,0,1,.1-.26.78.78,0,0,1,.11-.18l.16-.13.25-.12,7.82-3-.6-.14-.54-.15L2.18,98.64l.67-2.13,10.43,3.27-.4,1.25a1,1,0,0,1-.66.72l-7.75,3,.55.13.49.14,5.59,1.75-.67,2.13L0,105.61Z"/><path class="cls-1" d="M18.28,73.1a4.52,4.52,0,0,0,.45-.82,4.45,4.45,0,0,0,.22-.77l-1.37-.92-.6.89a.56.56,0,0,1-.32.24.39.39,0,0,1-.34-.07l-1.16-.78,2.17-3.22,3.83,2.58a6.84,6.84,0,0,1-.05,1,6.42,6.42,0,0,1-.24,1,8.72,8.72,0,0,1-.44,1,10.4,10.4,0,0,1-.64,1.07A5.81,5.81,0,0,1,18.2,76a5.48,5.48,0,0,1-2,.81,5.41,5.41,0,0,1-2.12,0A5.85,5.85,0,0,1,12,75.86a6.23,6.23,0,0,1-1.64-1.59,5.21,5.21,0,0,1-.82-2,5.27,5.27,0,0,1,.06-2.16,6.48,6.48,0,0,1,1-2.21,6.3,6.3,0,0,1,.81-1,5.35,5.35,0,0,1,.87-.74,5.13,5.13,0,0,1,.9-.51,4.84,4.84,0,0,1,.91-.3l.51,1.23a.91.91,0,0,1,.07.35.62.62,0,0,1-.11.32.91.91,0,0,1-.38.3q-.32.15-.57.3a2.76,2.76,0,0,0-.49.32,5.55,5.55,0,0,0-.42.42,5.26,5.26,0,0,0-.42.55,3.21,3.21,0,0,0-.5,1.21,2.56,2.56,0,0,0,0,1.2,3.09,3.09,0,0,0,.57,1.13,4.38,4.38,0,0,0,1.06,1,4.7,4.7,0,0,0,1.41.66,3.33,3.33,0,0,0,1.32.09A2.84,2.84,0,0,0,17.37,74,3.32,3.32,0,0,0,18.28,73.1Z"/><path class="cls-1" d="M38.53,30.27a6.5,6.5,0,0,1,1.75-.85,3.53,3.53,0,0,1,1.52-.13,2.67,2.67,0,0,1,1.26.49,3.89,3.89,0,0,1,1,1,4.1,4.1,0,0,1,.59,1.37,2.88,2.88,0,0,1,0,1.4,3.8,3.8,0,0,1-.7,1.37,6.24,6.24,0,0,1-1.43,1.27L41.32,37l2.08,3.11-1.88,1.25-6-9Zm3,4.51a2,2,0,0,0,1-1.29,1.88,1.88,0,0,0-.36-1.43,1.8,1.8,0,0,0-.52-.54,1.49,1.49,0,0,0-.62-.27,1.67,1.67,0,0,0-.73.05,2.73,2.73,0,0,0-.83.4l-1.18.79,2.06,3.08Z"/><polygon class="cls-1" points="60.57 16.3 61.52 18.93 64.94 17.69 65.52 19.29 62.1 20.53 63.08 23.22 67.47 21.63 68.07 23.28 61.55 25.65 57.84 15.42 64.36 13.05 64.96 14.71 60.57 16.3"/><path class="cls-1" d="M92.28,14.27l-2,.19a.92.92,0,0,1-.87-.36L87,11a.88.88,0,0,0-.31-.25.9.9,0,0,0-.46-.05l-.76.07.38,4.13-2.24.2-1-10.84,3.41-.31A6.85,6.85,0,0,1,88,4a3.59,3.59,0,0,1,1.38.53,2.45,2.45,0,0,1,.85.93,3.31,3.31,0,0,1,.35,1.25,3.53,3.53,0,0,1-.06,1,2.94,2.94,0,0,1-.36.92,3.14,3.14,0,0,1-.66.76,3.72,3.72,0,0,1-.92.59,2.09,2.09,0,0,1,.43.25,1.85,1.85,0,0,1,.37.37ZM86.51,9.05a3.34,3.34,0,0,0,.93-.22,1.92,1.92,0,0,0,.61-.44,1.5,1.5,0,0,0,.32-.61,2.19,2.19,0,0,0,.06-.73A1.49,1.49,0,0,0,87.8,5.9a2.36,2.36,0,0,0-1.59-.28l-1.16.1.31,3.43Z"/><polygon class="cls-1" points="113.81 2.06 113.39 5.04 117.26 5.6 117.01 7.35 113.14 6.79 112.52 11.09 110.28 10.77 111.82 0 118.68 0.98 118.43 2.73 113.81 2.06"/><path class="cls-1" d="M144.76,9.4a4.69,4.69,0,0,0,.46-1.47,3.24,3.24,0,0,0-.09-1.33,2.75,2.75,0,0,0-.62-1.1,3.55,3.55,0,0,0-1.12-.81A3.7,3.7,0,0,0,142,4.32a2.83,2.83,0,0,0-1.25.22,3.29,3.29,0,0,0-1.08.76,5.2,5.2,0,0,0-.86,1.28,5.14,5.14,0,0,0-.46,1.5,3.16,3.16,0,0,0,.09,1.31,2.87,2.87,0,0,0,.62,1.1,3.62,3.62,0,0,0,1.13.82,3.68,3.68,0,0,0,1.34.36,2.87,2.87,0,0,0,1.24-.21,3.38,3.38,0,0,0,1.08-.76A5.08,5.08,0,0,0,144.76,9.4Zm2.08,1a6,6,0,0,1-1.32,1.82,5.09,5.09,0,0,1-1.78,1.1,5.18,5.18,0,0,1-2.09.3,6,6,0,0,1-2.24-.6,6.14,6.14,0,0,1-1.87-1.36,5.35,5.35,0,0,1-1.09-1.82,5.17,5.17,0,0,1-.27-2.08,6,6,0,0,1,.59-2.17,6.15,6.15,0,0,1,1.31-1.82,5.49,5.49,0,0,1,1.79-1.1A5.38,5.38,0,0,1,142,2.38a5.9,5.9,0,0,1,2.24.6,5.93,5.93,0,0,1,1.88,1.37,5,5,0,0,1,1.08,1.81,5.16,5.16,0,0,1,.26,2.08A6,6,0,0,1,146.84,10.4Z"/><path class="cls-1" d="M170.42,19.48l.77.66a2.47,2.47,0,0,0,.75.48,1.56,1.56,0,0,0,.69.11,1.31,1.31,0,0,0,.61-.18,2.44,2.44,0,0,0,.52-.45,1.39,1.39,0,0,0,.38-1.16,2.23,2.23,0,0,0-.83-1.25l-.77-.67Zm-1.14,1.32-2.64,3.06-1.92-1.66,7.14-8.27,2.69,2.32a7,7,0,0,1,1.36,1.51,3.8,3.8,0,0,1,.6,1.4,2.67,2.67,0,0,1-.09,1.29,3.52,3.52,0,0,1-.66,1.13,3.47,3.47,0,0,1-.77.67,3.07,3.07,0,0,1-.89.38,3.27,3.27,0,0,1-1,.09,3.72,3.72,0,0,1-1.05-.22,2.48,2.48,0,0,1,.15.55,2,2,0,0,1,0,.6L171.48,28l-1.73-1.49a1,1,0,0,1-.38-1l.7-3.58a.83.83,0,0,0,0-.42,1,1,0,0,0-.28-.36Z"/><path class="cls-1" d="M204.63,42.51l-9.48,5.34-1-1.73L200,42.84l.4-.21.44-.2-6.67.18a.84.84,0,0,1-.81-.44l-.15-.28a.78.78,0,0,1,0-.92l3.62-5.64-.42.29-.39.23-5.82,3.28-1-1.73,9.49-5.34.83,1.49a1.64,1.64,0,0,1,.12.22.52.52,0,0,1,.06.19.4.4,0,0,1,0,.19.84.84,0,0,1-.1.22l-3.57,5.51c-.1.16-.22.33-.34.49s-.24.33-.38.49l.63-.09c.2,0,.41,0,.61,0l6.52-.21a.88.88,0,0,1,.24,0,.46.46,0,0,1,.17.09.64.64,0,0,1,.13.15c0,.06.09.13.14.22Z"/><path class="cls-1" d="M211.71,77.59l-.4-1.7a.76.76,0,0,1,0-.5.79.79,0,0,1,.29-.34l1.85-1.2-1-4.22-2.19-.23a.86.86,0,0,1-.39-.18.71.71,0,0,1-.26-.42l-.41-1.72,11.57,1.62.54,2.24ZM214.86,73l3-1.92.55-.36c.21-.13.44-.26.7-.39a7.15,7.15,0,0,1-.82,0c-.24,0-.46,0-.64-.07l-3.5-.37Z"/><path class="cls-1" d="M229.33,104.47l-10.87-.63.07-1.16a.88.88,0,0,1,.43-.77l7.2-5h-.52l-.47,0-6.28-.36.12-2,10.86.64-.07,1.18a.88.88,0,0,1,0,.24.48.48,0,0,1-.06.18.44.44,0,0,1-.12.15,1.54,1.54,0,0,1-.18.16l-7.24,5h.55l.51,0,6.21.36Z"/><path class="cls-1" d="M219.69,133.84a.43.43,0,0,1-.23.25l-1.19.54a4.26,4.26,0,0,1-.68-2,5.73,5.73,0,0,1,.33-2.34,5.43,5.43,0,0,1,1.1-2,4.63,4.63,0,0,1,1.63-1.2,5.08,5.08,0,0,1,2-.43,6.31,6.31,0,0,1,2.23.36,6.22,6.22,0,0,1,1.4.66,5.34,5.34,0,0,1,1.12.92,5.41,5.41,0,0,1,.79,1.12,4.94,4.94,0,0,1,.45,1.29,5.52,5.52,0,0,1,.09,1.41,6.36,6.36,0,0,1-.31,1.5,6.55,6.55,0,0,1-.46,1,5.37,5.37,0,0,1-.6.85,4.07,4.07,0,0,1-.71.67,5,5,0,0,1-.77.49l-.74-1.05a.76.76,0,0,1-.11-.22.49.49,0,0,1,0-.29.64.64,0,0,1,.24-.31,4.86,4.86,0,0,0,.41-.34,3,3,0,0,0,.49-.54,3.43,3.43,0,0,0,.44-.92,3.1,3.1,0,0,0,.17-1.26,2.82,2.82,0,0,0-.37-1.16,3.24,3.24,0,0,0-.89-1,5.17,5.17,0,0,0-1.39-.71,4.85,4.85,0,0,0-1.57-.27,3.54,3.54,0,0,0-1.3.26,2.89,2.89,0,0,0-1,.71,3.1,3.1,0,0,0-.62,1.07,5.67,5.67,0,0,0-.18.67,2.54,2.54,0,0,0,0,1.14,2.93,2.93,0,0,0,.19.57,1.17,1.17,0,0,1,.05.2A.47.47,0,0,1,219.69,133.84Z"/><polygon class="cls-1" points="219.22 158.93 216.86 157.43 214.91 160.49 213.47 159.58 215.42 156.52 213.01 154.98 210.5 158.92 209.02 157.97 212.74 152.13 221.92 157.97 218.2 163.81 216.71 162.87 219.22 158.93"/></g></g></svg>