<svg width="1355" height="301" viewBox="0 0 1355 301" fill="none" xmlns="http://www.w3.org/2000/svg">
<path fill-rule="evenodd" clip-rule="evenodd" d="M729.897 31.4892C738.592 31.4892 745.642 24.4401 745.642 15.7446C745.642 7.04911 738.592 0 729.897 0C721.201 0 714.152 7.04911 714.152 15.7446C714.152 24.4401 721.201 31.4892 729.897 31.4892ZM388.705 28.4425C381.081 32.6233 378.289 42.1934 382.47 49.8179L419.321 117.021C423.502 124.646 433.072 127.437 440.696 123.256C448.321 119.076 451.112 109.506 446.931 101.881L410.081 34.6777C405.9 27.0532 396.33 24.2616 388.705 28.4425ZM1037.21 68.8333C1033.03 61.2089 1035.82 51.6388 1043.44 47.4579C1051.07 43.2771 1060.64 46.0687 1064.82 53.6932L1101.67 120.897C1105.85 128.521 1103.06 138.091 1095.44 142.272C1087.81 146.453 1078.24 143.661 1074.06 136.037L1037.21 68.8333ZM604.971 74.7868C597.347 78.9676 594.555 88.5377 598.736 96.1622L635.587 163.366C639.767 170.99 649.338 173.782 656.962 169.601C664.587 165.42 667.378 155.85 663.197 148.225L626.347 81.0221C622.166 73.3976 612.596 70.6059 604.971 74.7868ZM57.1774 113.402C49.5529 117.583 46.7613 127.153 50.9421 134.778L87.7926 201.981C91.9734 209.605 101.544 212.397 109.168 208.216C116.792 204.035 119.584 194.465 115.403 186.841L78.5528 119.637C74.3719 112.013 64.8018 109.221 57.1774 113.402ZM976.012 209.046C971.832 201.422 974.623 191.852 982.248 187.671C989.872 183.49 999.442 186.282 1003.62 193.906L1040.47 261.109C1044.65 268.734 1041.86 278.304 1034.24 282.485C1026.61 286.666 1017.04 283.874 1012.86 276.25L976.012 209.046ZM1166.43 187.671C1158.81 191.852 1156.02 201.422 1160.2 209.046L1197.05 276.25C1201.23 283.874 1210.8 286.666 1218.42 282.485C1226.05 278.304 1228.84 268.734 1224.66 261.109L1187.81 193.906C1183.63 186.282 1174.06 183.49 1166.43 187.671ZM1049.09 223.898C1044.91 216.273 1047.7 206.703 1055.33 202.522C1062.95 198.341 1072.52 201.133 1076.7 208.758L1113.55 275.961C1117.73 283.585 1114.94 293.155 1107.32 297.336C1099.69 301.517 1090.12 298.726 1085.94 291.101L1049.09 223.898ZM1239.51 202.522C1231.88 206.703 1229.09 216.273 1233.27 223.898L1270.12 291.101C1274.31 298.726 1283.88 301.517 1291.5 297.336C1299.12 293.155 1301.92 283.585 1297.74 275.961L1260.88 208.758C1256.7 201.133 1247.13 198.341 1239.51 202.522ZM195.911 165.087C191.73 157.462 194.522 147.892 202.146 143.712C209.771 139.531 219.341 142.322 223.522 149.947L243.804 186.935C247.985 194.559 245.193 204.129 237.569 208.31C229.944 212.491 220.374 209.699 216.193 202.075L195.911 165.087ZM749.941 105.085C742.317 109.266 739.525 118.836 743.706 126.461L763.988 163.449C768.169 171.073 777.739 173.865 785.363 169.684C792.988 165.503 795.779 155.933 791.599 148.308L771.316 111.32C767.136 103.696 757.566 100.904 749.941 105.085ZM567.841 164.492C563.66 156.867 566.451 147.297 574.076 143.116C581.7 138.935 591.271 141.727 595.451 149.351L659.325 265.836C663.506 273.46 660.714 283.031 653.09 287.211C645.465 291.392 635.895 288.601 631.714 280.976L567.841 164.492ZM1127.22 217.973C1119.59 222.154 1116.8 231.724 1120.98 239.348L1141.26 276.336C1145.45 283.961 1155.02 286.752 1162.64 282.571C1170.26 278.391 1173.06 268.82 1168.88 261.196L1148.59 224.208C1144.41 216.584 1134.84 213.792 1127.22 217.973ZM380.094 165.087C375.913 157.462 378.705 147.892 386.329 143.712C393.954 139.531 403.524 142.322 407.704 149.947L441.859 212.234C446.04 219.858 443.248 229.428 435.624 233.609C427.999 237.79 418.429 234.998 414.248 227.374L380.094 165.087ZM1123.06 102.711C1115.43 106.892 1112.64 116.462 1116.82 124.086L1137.11 161.074C1141.29 168.699 1150.86 171.49 1158.48 167.31C1166.11 163.129 1168.9 153.559 1164.72 145.934L1144.43 108.946C1140.25 101.322 1130.68 98.5302 1123.06 102.711ZM1305.17 239.348C1300.98 231.724 1303.78 222.154 1311.4 217.973C1319.02 213.792 1328.59 216.584 1332.78 224.208L1353.06 261.196C1357.24 268.82 1354.45 278.391 1346.82 282.571C1339.2 286.752 1329.63 283.961 1325.45 276.336L1305.17 239.348ZM924.617 202.522C916.993 206.703 914.201 216.273 918.382 223.898L938.664 260.886C942.845 268.51 952.415 271.302 960.039 267.121C967.664 262.94 970.455 253.37 966.275 245.745L945.992 208.758C941.812 201.133 932.242 198.341 924.617 202.522ZM864.909 251.822C860.729 244.197 863.52 234.627 871.145 230.447C878.769 226.266 888.339 229.057 892.52 236.682L912.802 273.67C916.983 281.294 914.191 290.864 906.567 295.045C898.942 299.226 889.372 296.434 885.191 288.81L864.909 251.822ZM528.514 59.83C520.889 64.0108 518.098 73.5809 522.279 81.2054L542.561 118.193C546.742 125.818 556.312 128.609 563.936 124.429C571.561 120.248 574.352 110.678 570.171 103.053L549.889 66.0652C545.708 58.4408 536.138 55.6491 528.514 59.83ZM137.84 238.623C137.84 247.318 130.791 254.368 122.095 254.368C113.4 254.368 106.351 247.318 106.351 238.623C106.351 229.927 113.4 222.878 122.095 222.878C130.791 222.878 137.84 229.927 137.84 238.623ZM669.889 215.748C678.585 215.748 685.634 208.699 685.634 200.004C685.634 191.308 678.585 184.259 669.889 184.259C661.194 184.259 654.144 191.308 654.144 200.004C654.144 208.699 661.194 215.748 669.889 215.748ZM322.022 238.623C322.022 247.318 314.972 254.368 306.277 254.368C297.581 254.368 290.532 247.318 290.532 238.623C290.532 229.927 297.581 222.878 306.277 222.878C314.972 222.878 322.022 229.927 322.022 238.623ZM854.072 215.748C862.767 215.748 869.817 208.699 869.817 200.004C869.817 191.308 862.767 184.259 854.072 184.259C845.376 184.259 838.327 191.308 838.327 200.004C838.327 208.699 845.376 215.748 854.072 215.748ZM86.1494 271.303C86.1494 279.998 79.1003 287.047 70.4047 287.047C61.7092 287.047 54.6601 279.998 54.6601 271.303C54.6601 262.607 61.7092 255.558 70.4047 255.558C79.1003 255.558 86.1494 262.607 86.1494 271.303ZM573.342 219.611C573.342 228.307 566.293 235.356 557.597 235.356C548.902 235.356 541.853 228.307 541.853 219.611C541.853 210.916 548.902 203.866 557.597 203.866C566.293 203.866 573.342 210.916 573.342 219.611ZM1107.17 195.546C1115.87 195.546 1122.92 188.497 1122.92 179.801C1122.92 171.106 1115.87 164.057 1107.17 164.057C1098.48 164.057 1091.43 171.106 1091.43 179.801C1091.43 188.497 1098.48 195.546 1107.17 195.546ZM1053.4 168.511C1053.4 177.207 1046.36 184.256 1037.66 184.256C1028.96 184.256 1021.92 177.207 1021.92 168.511C1021.92 159.816 1028.96 152.766 1037.66 152.766C1046.36 152.766 1053.4 159.816 1053.4 168.511ZM251.617 254.368C260.312 254.368 267.361 247.318 267.361 238.623C267.361 229.927 260.312 222.878 251.617 222.878C242.921 222.878 235.872 229.927 235.872 238.623C235.872 247.318 242.921 254.368 251.617 254.368ZM815.155 200.004C815.155 208.699 808.106 215.748 799.411 215.748C790.715 215.748 783.666 208.699 783.666 200.004C783.666 191.308 790.715 184.259 799.411 184.259C808.106 184.259 815.155 191.308 815.155 200.004ZM15.7446 287.047C24.4401 287.047 31.4892 279.998 31.4892 271.303C31.4892 262.607 24.4401 255.558 15.7446 255.558C7.04911 255.558 0 262.607 0 271.303C0 279.998 7.04911 287.047 15.7446 287.047ZM521.058 130.487C521.058 139.183 514.009 146.232 505.314 146.232C496.618 146.232 489.569 139.183 489.569 130.487C489.569 121.792 496.618 114.743 505.314 114.743C514.009 114.743 521.058 121.792 521.058 130.487ZM460.159 175.351C468.854 175.351 475.903 168.301 475.903 159.606C475.903 150.91 468.854 143.861 460.159 143.861C451.463 143.861 444.414 150.91 444.414 159.606C444.414 168.301 451.463 175.351 460.159 175.351ZM294.098 284.368C294.098 293.064 287.049 300.113 278.353 300.113C269.657 300.113 262.608 293.064 262.608 284.368C262.608 275.673 269.657 268.624 278.353 268.624C287.049 268.624 294.098 275.673 294.098 284.368ZM826.147 261.494C834.842 261.494 841.892 254.445 841.892 245.749C841.892 237.054 834.842 230.005 826.147 230.005C817.451 230.005 810.402 237.054 810.402 245.749C810.402 254.445 817.451 261.494 826.147 261.494ZM547.794 176.236C547.794 184.932 540.745 191.981 532.05 191.981C523.354 191.981 516.305 184.932 516.305 176.236C516.305 167.541 523.354 160.492 532.05 160.492C540.745 160.492 547.794 167.541 547.794 176.236ZM486.896 221.096C495.591 221.096 502.64 214.047 502.64 205.351C502.64 196.656 495.591 189.607 486.896 189.607C478.2 189.607 471.151 196.656 471.151 205.351C471.151 214.047 478.2 221.096 486.896 221.096ZM929.824 66.9173C929.824 75.6128 922.775 82.6619 914.08 82.6619C905.384 82.6619 898.335 75.6128 898.335 66.9173C898.335 58.2217 905.384 51.1726 914.08 51.1726C922.775 51.1726 929.824 58.2217 929.824 66.9173ZM743.562 234.165C752.258 234.165 759.307 227.116 759.307 218.42C759.307 209.725 752.258 202.676 743.562 202.676C734.867 202.676 727.817 209.725 727.817 218.42C727.817 227.116 734.867 234.165 743.562 234.165ZM1307.1 179.801C1307.1 188.497 1300.05 195.546 1291.36 195.546C1282.66 195.546 1275.61 188.497 1275.61 179.801C1275.61 171.106 1282.66 164.057 1291.36 164.057C1300.05 164.057 1307.1 171.106 1307.1 179.801ZM889.126 33.348C897.822 33.348 904.871 26.2989 904.871 17.6033C904.871 8.90782 897.822 1.85871 889.126 1.85871C880.431 1.85871 873.382 8.90782 873.382 17.6033C873.382 26.2989 880.431 33.348 889.126 33.348Z" fill="url(#paint0_linear)"/>
<defs>
<linearGradient id="paint0_linear" x1="677" y1="621.5" x2="656.698" y2="14.5678" gradientUnits="userSpaceOnUse">
<stop stop-color="#C4C4C4"/>
<stop offset="1" stop-color="white" stop-opacity="0"/>
</linearGradient>
</defs>
</svg>
