<svg xmlns="http://www.w3.org/2000/svg" xmlns:xlink="http://www.w3.org/1999/xlink" width="2508px" height="253px" viewBox="0 0 2508 253"><title>Group</title><g id="Page-1" stroke="none" stroke-width="1" fill="none" fill-rule="evenodd"><g id="Group" fill-rule="nonzero"><path d="M2193.96,215.65 L2195.24,214.84 L2190.88,208.13 L2189.71,208.87 L2193.96,215.65 Z M2187.87,219.15 C2188.76,218.68 2189.64,218.15 2190.52,217.71 L2186.57,210.71 C2185.77,211.16 2184.97,211.6 2184.16,212.02 L2187.87,219.15 Z M2181.52,222.15 C2182.44,221.76 2183.36,221.35 2184.27,220.92 L2180.88,213.67 C2180.05,214.06 2179.22,214.44 2178.38,214.79 L2181.52,222.15 Z M2174.95,224.65 C2175.9,224.33 2176.85,224 2177.79,223.65 L2174.98,216.15 C2174.12,216.48 2173.26,216.78 2172.4,217.07 L2174.95,224.65 Z M2168.2,226.65 C2169.2,226.41 2170.15,226.15 2171.11,225.87 L2168.91,218.18 C2168.03,218.43 2167.14,218.67 2166.26,218.89 L2168.2,226.65 Z M2161.32,228.09 C2162.32,227.92 2163.32,227.74 2164.32,227.54 L2162.73,219.7 C2161.83,219.88 2160.93,220.05 2160.03,220.2 L2161.32,228.09 Z M2154.32,228.98 C2155.32,228.89 2156.32,228.79 2157.32,228.67 L2156.32,220.72 C2155.42,220.84 2154.51,220.93 2153.6,221.01 L2154.32,228.98 Z M2147.32,229.32 C2148.32,229.32 2149.32,229.32 2150.32,229.24 L2149.98,221.24 C2149.07,221.24 2148.16,221.3 2147.24,221.31 L2147.32,229.32 Z M2140.32,229.1 C2141.32,229.17 2142.32,229.23 2143.32,229.26 L2143.6,221.26 C2142.69,221.26 2141.77,221.18 2140.86,221.11 L2140.32,229.1 Z M2133.32,228.34 C2134.32,228.49 2135.32,228.62 2136.32,228.74 L2137.23,220.79 C2136.32,220.68 2135.41,220.56 2134.51,220.43 L2133.32,228.34 Z M2126.4,227 C2127.4,227.22 2128.4,227.43 2129.4,227.62 L2130.93,219.77 C2130.03,219.6 2129.14,219.41 2128.25,219.2 L2126.4,227 Z M2119.62,225.16 C2120.62,225.46 2121.54,225.74 2122.51,226.01 L2124.65,218.3 C2123.77,218.06 2122.89,217.8 2122.01,217.53 L2119.62,225.16 Z M2113,222.8 C2113.94,223.17 2114.87,223.53 2115.82,223.87 L2118.55,216.35 C2117.69,216.04 2116.83,215.71 2115.99,215.35 L2113,222.8 Z M2106.59,220 C2107.49,220.45 2108.4,220.88 2109.31,221.3 L2112.62,214.01 C2111.79,213.64 2110.96,213.24 2110.14,212.84 L2106.59,220 Z M2100.42,216.63 C2101.28,217.15 2102.15,217.63 2103.03,218.14 L2106.9,211.14 C2106.1,210.69 2105.31,210.24 2104.53,209.77 L2100.42,216.63 Z M2094.5,212.74 C2095.32,213.32 2096.15,213.89 2096.99,214.44 L2101.4,207.77 C2100.64,207.27 2099.88,206.77 2099.14,206.22 L2094.5,212.74 Z M2088.94,208.44 C2089.71,209.08 2090.49,209.72 2091.28,210.34 L2096.21,204.03 C2095.49,203.47 2094.78,202.89 2094.07,202.31 L2088.94,208.44 Z M2083.73,203.71 C2084.45,204.42 2085.18,205.11 2085.91,205.79 L2091.32,199.89 C2090.65,199.28 2089.99,198.65 2089.32,198.01 L2083.73,203.71 Z M2078.91,198.59 C2079.57,199.35 2080.25,200.1 2080.91,200.83 L2086.77,195.39 C2086.14,194.72 2085.53,194.04 2084.93,193.39 L2078.91,198.59 Z M2074.51,193.11 C2075.11,193.92 2075.72,194.72 2076.35,195.5 L2082.61,190.5 C2082.05,189.78 2081.49,189.06 2080.94,188.32 L2074.51,193.11 Z M2071.36,188.57 C2071.64,189.003333 2071.92,189.423333 2072.2,189.83 L2078.83,185.36 C2078.58,184.98 2078.32,184.6 2078.07,184.21 L2071.36,188.57 Z M2070.55,187.3 L2071.36,188.57 L2078.07,184.21 C2077.82,183.83 2077.57,183.44 2077.33,183.05 L2070.55,187.3 Z M2067.05,181.21 C2067.52,182.09 2068,182.98 2068.5,183.85 L2075.5,179.91 C2075.04,179.11 2074.6,178.31 2074.18,177.5 L2067.05,181.21 Z M2064.05,174.85 C2064.44,175.78 2064.85,176.69 2065.28,177.61 L2072.53,174.22 C2072.14,173.39 2071.77,172.55 2071.41,171.71 L2064.05,174.85 Z M2061.55,168.29 C2061.87,169.29 2062.2,170.18 2062.55,171.13 L2070.04,168.32 C2069.72,167.46 2069.41,166.6 2069.12,165.74 L2061.55,168.29 Z M2059.55,161.54 C2059.79,162.513333 2060.05,163.483333 2060.33,164.45 L2068.02,162.24 C2067.77,161.36 2067.53,160.48 2067.31,159.59 L2059.55,161.54 Z M2058.11,154.65 C2058.28,155.65 2058.46,156.65 2058.66,157.65 L2066.5,156 C2066.32,155.1 2066.15,154.2 2066,153.3 L2058.11,154.65 Z M2057.22,147.65 C2057.31,148.65 2057.41,149.65 2057.54,150.65 L2065.48,149.65 C2065.37,148.74 2065.27,147.83 2065.19,146.92 L2057.22,147.65 Z M2056.88,140.65 C2056.88,141.65 2056.88,142.65 2056.96,143.65 L2064.96,143.31 C2064.96,142.4 2064.9,141.48 2064.89,140.57 L2056.88,140.65 Z M2057.1,133.65 C2057.03,134.65 2056.97,135.65 2056.94,136.65 L2064.94,136.94 C2064.94,136.02 2065.02,135.11 2065.09,134.2 L2057.1,133.65 Z M2057.86,126.65 C2057.71,127.65 2057.58,128.65 2057.46,129.65 L2065.41,130.57 C2065.52333,129.656667 2065.64333,128.746667 2065.77,127.84 L2057.86,126.65 Z M2059.16,119.74 C2058.94,120.74 2058.73,121.74 2058.54,122.74 L2066.39,124.27 C2066.57,123.37 2066.75,122.47 2066.96,121.58 L2059.16,119.74 Z M2061,112.96 C2060.7,113.96 2060.42,114.88 2060.15,115.85 L2067.9,118 C2068.14,117.12 2068.4,116.24 2068.68,115.37 L2061,112.96 Z M2063.36,106.34 C2062.99,107.27 2062.63,108.21 2062.29,109.15 L2069.81,111.88 C2070.12,111.03 2070.45,110.17 2070.81,109.32 L2063.36,106.34 Z M2066.24,99.92 C2065.79,100.83 2065.36,101.73 2064.95,102.65 L2072.23,105.96 C2072.61,105.13 2073,104.3 2073.41,103.48 L2066.24,99.92 Z M2069.61,93.75 C2069.09,94.62 2068.61,95.49 2068.1,96.37 L2075.1,100.24 C2075.55,99.44 2076,98.65 2076.47,97.86 L2069.61,93.75 Z M2073.5,87.87 C2072.92,88.69 2072.35,89.52 2071.8,90.35 L2078.5,94.77 C2079.01,94.01 2079.5,93.25 2080.05,92.51 L2073.5,87.87 Z M2077.8,82.3 C2077.16,83.07 2076.52,83.86 2075.91,84.65 L2082.21,89.57 C2082.77,88.85 2083.35,88.14 2083.94,87.44 L2077.8,82.3 Z M2082.5,77.1 C2081.79,77.81 2081.1,78.54 2080.42,79.28 L2086.32,84.69 C2086.93,84.02 2087.56,83.36 2088.21,82.69 L2082.5,77.1 Z M2087.62,72.28 C2086.86,72.94 2086.11,73.61 2085.38,74.28 L2090.83,80.14 C2091.49667,79.52 2092.16333,78.91 2092.83,78.31 L2087.62,72.28 Z M2093.1,67.88 C2092.29,68.48 2091.49,69.09 2090.71,69.71 L2095.71,75.98 C2096.43,75.41 2097.15,74.86 2097.89,74.31 L2093.1,67.88 Z M2097.64,64.73 L2096.38,65.56 L2100.85,72.2 L2102,71.44 L2097.64,64.73 Z M2192.9,214 L2194.15,213.2 L2191.97,209.85 L2190.78,210.61 L2192.9,214 Z M2186.9,217.42 C2187.77,216.96 2188.63,216.49 2189.49,216.01 L2187.49,212.53 C2186.67,212.99 2185.85,213.44 2185.02,213.87 L2186.9,217.42 Z M2180.69,220.36 C2181.59,219.98 2182.49,219.58 2183.38,219.16 L2181.69,215.54 C2180.84,215.93 2179.98,216.32 2179.12,216.68 L2180.69,220.36 Z M2174.27,222.81 C2175.2,222.5 2176.13,222.17 2177.05,221.81 L2175.68,218 C2174.8,218.33 2173.92,218.64 2173.04,218.94 L2174.27,222.81 Z M2167.67,224.74 C2168.67,224.5 2169.58,224.25 2170.52,223.98 L2169.42,220.13 C2168.52,220.39 2167.61,220.63 2166.7,220.86 L2167.67,224.74 Z M2160.95,226.15 C2161.95,225.98 2162.88,225.81 2163.84,225.61 L2163.05,221.69 C2162.13,221.88 2161.21,222.05 2160.28,222.2 L2160.95,226.15 Z M2154.13,227.02 C2155.13,226.93 2156.08,226.83 2157.06,226.71 L2156.58,222.71 C2155.64,222.82 2154.71,222.92 2153.78,223 L2154.13,227.02 Z M2147.26,227.35 C2148.26,227.35 2149.26,227.35 2150.21,227.27 L2150.04,223.27 C2149.1,223.27 2148.17,223.33 2147.23,223.34 L2147.26,227.35 Z M2140.4,227.14 C2141.4,227.21 2142.4,227.26 2143.34,227.29 L2143.48,223.29 C2142.54,223.29 2141.61,223.2 2140.67,223.14 L2140.4,227.14 Z M2133.56,226.39 C2134.56,226.54 2135.51,226.67 2136.49,226.78 L2136.94,222.78 C2136.01,222.67 2135.08,222.55 2134.15,222.41 L2133.56,226.39 Z M2126.81,225.12 C2127.81,225.34 2128.73,225.54 2129.69,225.73 L2130.46,221.8 C2129.54,221.63 2128.62,221.43 2127.71,221.22 L2126.81,225.12 Z M2120.18,223.32 C2121.12,223.62 2122.06,223.89 2123.01,224.16 L2124.07,220.3 C2123.17,220.05 2122.27,219.79 2121.38,219.5 L2120.18,223.32 Z M2113.75,221 C2114.66,221.37 2115.58,221.72 2116.5,222.05 L2117.87,218.29 C2116.98,217.97 2116.11,217.64 2115.24,217.29 L2113.75,221 Z M2107.5,218.16 C2108.38,218.6 2109.26,219.02 2110.16,219.43 L2111.81,215.78 C2110.96,215.4 2110.11,214.99 2109.27,214.58 L2107.5,218.16 Z M2101.5,214.87 C2102.35,215.37 2103.2,215.87 2104.06,216.34 L2105.99,212.84 C2105.18,212.38 2104.36,211.92 2103.56,211.43 L2101.5,214.87 Z M2095.75,211.11 C2096.55,211.68 2097.36,212.23 2098.18,212.77 L2100.39,209.44 C2099.61,208.92 2098.83,208.39 2098.07,207.85 L2095.75,211.11 Z M2090.31,206.9 C2091.07,207.54 2091.83,208.16 2092.6,208.76 L2095.07,205.61 C2094.33,205.03 2093.6,204.44 2092.88,203.84 L2090.31,206.9 Z M2085.22,202.29 C2085.92,202.98 2086.63,203.65 2087.36,204.29 L2090.06,201.35 C2089.37,200.72 2088.69,200.07 2088.06,199.41 L2085.22,202.29 Z M2080.51,197.29 C2081.16,198.03 2081.82,198.76 2082.51,199.48 L2085.44,196.76 C2084.81,196.07 2084.18,195.38 2083.56,194.67 L2080.51,197.29 Z M2076.21,191.93 C2076.8,192.72 2077.39,193.5 2078,194.27 L2081.14,191.78 C2080.56,191.05 2079.99,190.31 2079.43,189.55 L2076.21,191.93 Z M2073.13,187.49 C2073.4,187.91 2073.67,188.32 2073.95,188.73 L2077.26,186.49 L2076.48,185.31 L2073.13,187.49 Z M2072.34,186.25 C2072.6,186.66 2072.86,187.08 2073.13,187.49 L2076.48,185.31 L2075.72,184.12 L2072.34,186.25 Z M2068.92,180.25 C2069.37,181.12 2069.84,181.98 2070.33,182.84 L2073.81,180.84 C2073.34,180.03 2072.89,179.2 2072.46,178.38 L2068.92,180.25 Z M2065.97,174.04 C2066.35,174.94 2066.76,175.84 2067.17,176.73 L2070.8,175.04 C2070.4,174.18 2070.02,173.33 2069.65,172.47 L2065.97,174.04 Z M2063.5,167.65 C2063.82,168.58 2064.14,169.5 2064.5,170.42 L2068.24,169.02 C2067.92,168.14 2067.6,167.26 2067.3,166.37 L2063.5,167.65 Z M2061.57,161.05 C2061.81,162 2062.06,162.95 2062.33,163.9 L2066.18,162.8 C2065.92,161.89 2065.68,160.99 2065.45,160.08 L2061.57,161.05 Z M2060.16,154.32 C2060.33,155.32 2060.51,156.26 2060.7,157.22 L2064.62,156.42 C2064.42667,155.5 2064.25667,154.58 2064.11,153.66 L2060.16,154.32 Z M2059.29,147.51 C2059.38,148.51 2059.48,149.51 2059.6,150.44 L2063.6,149.95 C2063.49,149.02 2063.39,148.09 2063.31,147.16 L2059.29,147.51 Z M2058.96,140.64 C2058.96,141.64 2058.96,142.64 2059.04,143.64 L2063.04,143.47 C2063.04,142.53 2062.97,141.59 2062.96,140.66 L2058.96,140.64 Z M2059.17,133.77 C2059.09667,134.75 2059.04667,135.73 2059.02,136.71 L2063.02,136.86 C2063.02,135.92 2063.11,134.98 2063.17,134.05 L2059.17,133.77 Z M2059.92,126.94 C2059.77,127.94 2059.64,128.89 2059.53,129.86 L2063.53,130.32 C2063.63,129.39 2063.76,128.46 2063.89,127.53 L2059.92,126.94 Z M2061.19,120.19 C2060.97,121.19 2060.77,122.11 2060.58,123.07 L2064.51,123.83 C2064.69,122.91 2064.88,122 2065.09,121.08 L2061.19,120.19 Z M2062.99,113.56 C2062.7,114.49 2062.42,115.44 2062.16,116.38 L2066.01,117.45 C2066.26,116.55 2066.53,115.65 2066.81,114.75 L2062.99,113.56 Z M2065.3,107.08 C2064.93,108 2064.58,108.91 2064.25,109.84 L2068.01,111.2 C2068.33,110.32 2068.66,109.45 2069.01,108.58 L2065.3,107.08 Z M2068.11,100.81 C2067.67,101.69 2067.25,102.58 2066.85,103.47 L2070.49,105.13 C2070.87,104.28 2071.28,103.43 2071.69,102.59 L2068.11,100.81 Z M2071.4,94.81 C2070.9,95.65 2070.4,96.51 2069.93,97.36 L2073.43,99.3 C2073.89,98.48 2074.36,97.67 2074.84,96.86 L2071.4,94.81 Z M2075.12,89 C2074.55,89.8 2074,90.61 2073.46,91.43 L2076.79,93.63 C2077.31,92.85 2077.84,92.08 2078.38,91.32 L2075.12,89 Z M2079.33,83.56 C2078.69,84.31 2078.08,85.08 2077.47,85.85 L2080.62,88.31 C2081.2,87.57 2081.79,86.85 2082.39,86.13 L2079.33,83.56 Z M2083.94,78.47 C2083.26,79.17 2082.58,79.88 2081.94,80.6 L2084.88,83.31 C2085.52,82.62 2086.16,81.94 2086.82,81.31 L2083.94,78.47 Z M2088.94,73.76 C2088.2,74.41 2087.47,75.06 2086.75,75.76 L2089.5,78.69 C2090.19,78.05 2090.89,77.42 2091.59,76.81 L2088.94,73.76 Z M2094.3,69.46 C2093.51,70.04 2092.73,70.64 2091.96,71.25 L2094.5,74.41 C2095.23,73.83 2095.97,73.26 2096.73,72.7 L2094.3,69.46 Z M2098.74,66.38 L2097.51,67.19 L2099.74,70.51 L2100.92,69.73 L2098.74,66.38 Z" id="Shape" fill="#2F2F2F"></path><path d="M2219.71,92.16 C2244.84747,130.831449 2233.87886,182.558541 2195.21,207.7 L2197.39,211.05 C2237.90005,184.707724 2249.39183,130.516841 2223.06,90 L2219.71,92.16 Z M2104.17,67.66 C2142.84145,42.5225299 2194.56854,53.4911447 2219.71,92.16 L2223.06,90 C2210.41439,70.5356085 2190.55383,56.8925658 2167.84824,52.0727635 C2145.14266,47.2529611 2121.45238,51.6512966 2101.99,64.3 L2104.17,67.66 Z" id="Shape" fill="#2F2F2F"></path><path d="M2251.4,160.69 L2255.5,178.16 L2256.5,177.93 L2252.36,160.46 L2251.4,160.69 Z M2169.09,34.27 L2153.16,23.39 L2152.6,24.22 L2168.5,35.09 L2169.09,34.27 Z M2235.96,80.72 C2251.46092,104.21127 2257.01011,132.892242 2251.39,160.47 L2252.39,160.67 C2258.06146,132.832243 2252.45833,103.881517 2236.81,80.17 L2235.96,80.72 Z M2168.71,35.17 C2196.27371,40.8496772 2220.459,57.2309438 2235.96,80.72 L2236.79,80.17 C2221.15026,56.4500957 2196.73686,39.9059534 2168.91,34.17 L2168.71,35.17 Z M2043.22,117.57 C2048.9601,90.0154069 2065.39987,65.8646592 2088.93,50.42 L2088.38,49.58 C2064.63363,65.1743779 2048.04074,89.5494624 2042.24,117.36 L2043.22,117.57 Z M2058.28,197.38 C2042.88792,173.821201 2037.47167,145.117956 2043.22,117.57 L2042.22,117.36 C2036.4403,145.180419 2041.93575,174.157434 2057.5,197.93 L2058.28,197.38 Z M2125.33,243.25 C2097.78799,237.441308 2073.67465,220.944977 2058.28,197.38 L2057.45,197.93 C2072.98964,221.711406 2097.32442,238.361328 2125.12,244.23 L2125.33,243.25 Z M2205.18,228.36 C2181.58341,243.696776 2152.86833,249.05141 2125.33,243.25 L2125.12,244.25 C2152.913,250.117845 2181.89871,244.723483 2205.72,229.25 L2205.18,228.36 Z M2251.88,160.57 L2251.39,160.47 L2251.39,160.58 L2251.39,160.69 L2251.88,160.57 Z M2236.38,80.45 L2236.79,80.17 L2236.38,80.45 Z M2168.81,34.68 L2168.53,35.09 L2168.61,35.15 L2168.71,35.15 L2168.81,34.68 Z M2042.73,117.46 L2043.22,117.57 L2042.73,117.46 Z M2057.87,197.66 L2057.45,197.93 L2057.87,197.66 Z M2125.22,243.74 L2125.33,243.25 L2125.22,243.74 Z" id="Shape" fill="#2F2F2F"></path><path d="M2051.3,202.58 C2034.53317,177.167643 2028.52758,146.14354 2034.6,116.31 L2033.6,116.11 C2027.47881,146.195826 2033.53453,177.481288 2050.44,203.11 L2051.3,202.58 Z M2124.05,251.86 C2094.22901,245.719932 2068.06377,227.9959 2051.3,202.58 L2050.46,203.13 C2067.3782,228.761947 2093.77068,246.638639 2123.85,252.84 L2124.05,251.86 Z M2259.81,162.73 C2253.59228,192.534619 2235.80917,218.657277 2210.36,235.37 L2210.91,236.2 C2236.58011,219.342335 2254.51781,192.993183 2260.79,162.93 L2259.81,162.73 Z M2243.5,76.38 C2260.14981,101.870732 2266.01159,132.923798 2259.8,162.73 L2260.8,162.93 C2267.06588,132.86512 2261.15376,101.542407 2244.36,75.83 L2243.5,76.38 Z M2170.98,26.76 C2200.76851,33.0484753 2226.84786,50.8926189 2243.5,76.38 L2244.34,75.83 C2227.53102,50.1384064 2201.22251,32.1582923 2171.18,25.83 L2170.98,26.76 Z M2084.6,42.86 C2110.12721,26.2712589 2141.19065,20.4814765 2170.98,26.76 L2171.19,25.76 C2141.13879,19.4244333 2109.80156,25.2646525 2084.05,42 L2084.6,42.86 Z M2050.88,202.86 L2050.46,203.13 L2050.88,202.86 Z M2260.3,162.86 L2260.79,162.96 L2260.3,162.86 Z M2243.93,76.1 L2243.51,76.38 L2243.93,76.1 Z" id="Shape" fill="#2F2F2F"></path><path d="M2084.16,44.85 C2083.2655,45.4294299 2082.07065,45.1741261 2081.49106,44.2797263 C2080.91147,43.3853264 2081.16656,42.1904317 2082.06085,41.6106817 C2082.95515,41.0309316 2084.15009,41.2858077 2084.73,42.18 C2085.01131,42.6088388 2085.10935,43.1323997 2085.00228,43.633969 C2084.8952,44.1355383 2084.5919,44.5734199 2084.16,44.85 L2084.16,44.85 Z" id="Path" fill="#2F2F2F"></path><path d="M2289.84,157 C2288.94538,157.575921 2287.75341,157.319198 2287.17519,156.42606 C2286.59697,155.532922 2286.85062,154.340296 2287.74227,153.75978 C2288.63392,153.179263 2289.82719,153.429849 2290.41,154.32 C2290.99116,155.217741 2290.7362,156.416473 2289.84,157 Z" id="Path" fill="#2F2F2F"></path><path d="M2335.5,156 C2345.44113,156 2353.5,164.058875 2353.5,174 L2354.5,174 C2354.5,163.50659 2345.99341,155 2335.5,155 L2335.5,156 Z M2353.5,174 C2353.5,184.49341 2362.00659,193 2372.5,193 L2372.5,192 C2362.55887,192 2354.5,183.941125 2354.5,174 L2353.5,174 Z M2372.5,193 L2508,193 L2508,192 L2372.5,192 L2372.5,193 Z M2289,156 L2335.5,156 L2335.5,155 L2289,155 L2289,156 Z" id="Shape" fill="#000000"></path><path d="M1824,1 C1833.94113,1 1842,9.0588745 1842,19 L1843,19 C1843,8.50658975 1834.49341,0 1824,0 L1824,1 Z M1842,19 C1842,29.4934102 1850.50659,38 1861,38 L1861,37 C1851.05887,37 1843,28.9411255 1843,19 L1842,19 Z M1861,38 L1996.5,38 L1996.5,37 L1861,37 L1861,38 Z M0,3 L1824,3 L1824,1 L0,1 L0,3 Z" id="Shape" fill="#000000"></path></g></g></svg>