<svg xmlns="http://www.w3.org/2000/svg" viewBox="0 0 85.6 546.65"><defs><style>.cls-1{fill:#245af3;}</style></defs><g id="Layer_2" data-name="Layer 2"><g id="Layer_1-2" data-name="Layer 1"><rect class="cls-1" x="53.45" y="1.7" width="2" height="7.88"/><rect class="cls-1" x="57.52" y="7.09" width="2" height="9.16" transform="translate(21.4 58.39) rotate(-62.8)"/><rect class="cls-1" x="64.07" y="12.17" width="2" height="5.44" transform="translate(24.59 67.96) rotate(-65.56)"/><rect class="cls-1" x="62.36" y="16.11" width="5.42" height="2" transform="translate(-1.33 27.96) rotate(-24.01)"/><rect class="cls-1" x="53.94" y="19.31" width="9.16" height="2" transform="translate(-2.81 28.99) rotate(-27.2)"/><rect class="cls-1" x="53.45" y="22.4" width="2" height="8.01"/><rect class="cls-1" x="53.09" y="24.17" width="21.57" height="2" transform="translate(-4.18 34.22) rotate(-29.08)"/><rect class="cls-1" x="73.3" y="18.93" width="10.85" height="2"/><rect class="cls-1" x="83.15" y="12.19" width="2" height="7.74"/><rect class="cls-1" x="73.3" y="11.19" width="10.85" height="2"/><rect class="cls-1" x="62.88" y="-3.84" width="2" height="21.57" transform="translate(26.77 59.4) rotate(-60.92)"/><polygon class="cls-1" points="54.45 9.57 53.45 9.57 53.45 10.19 53.99 10.46 54.45 9.57"/><polygon class="cls-1" points="62.59 13.76 62.14 14.65 62.16 14.66 62.18 14.67 62.59 13.76"/><polygon class="cls-1" points="67.55 16.01 67.95 16.92 69.98 16.02 67.96 15.1 67.55 16.01"/><polygon class="cls-1" points="62.59 18.21 62.19 17.3 62.16 17.31 62.14 17.33 62.59 18.21"/><polygon class="cls-1" points="54.45 22.4 53.99 21.51 53.45 21.79 53.45 22.4 54.45 22.4"/><polygon class="cls-1" points="54.45 30.41 53.45 30.41 53.45 32.11 54.94 31.28 54.45 30.41"/><polygon class="cls-1" points="73.31 19.93 73.31 18.93 73.05 18.93 72.82 19.05 73.31 19.93"/><rect class="cls-1" x="84.15" y="19.93" width="1" height="1"/><rect class="cls-1" x="84.15" y="11.19" width="1" height="1"/><polygon class="cls-1" points="73.31 12.19 72.82 13.06 73.05 13.19 73.31 13.19 73.31 12.19"/><polygon class="cls-1" points="54.45 1.7 54.94 0.83 53.45 0 53.45 1.7 54.45 1.7"/><rect class="cls-1" x="53.45" y="32.06" width="2" height="27.14"/><rect class="cls-1" x="54.45" y="58.2" width="5.98" height="2"/><rect class="cls-1" x="59.43" y="49.48" width="2" height="9.72"/><rect class="cls-1" x="60.43" y="48.48" width="23.72" height="2"/><rect class="cls-1" x="83.15" y="41.74" width="2" height="7.74"/><rect class="cls-1" x="60.43" y="40.74" width="23.72" height="2"/><rect class="cls-1" x="59.43" y="32.06" width="2" height="9.67"/><rect class="cls-1" x="54.45" y="31.06" width="5.98" height="2"/><rect class="cls-1" x="53.45" y="59.2" width="1" height="1"/><rect class="cls-1" x="60.43" y="59.2" width="1" height="1"/><rect class="cls-1" x="59.43" y="48.48" width="1" height="1"/><rect class="cls-1" x="84.15" y="49.48" width="1" height="1"/><rect class="cls-1" x="84.15" y="40.74" width="1" height="1"/><rect class="cls-1" x="59.43" y="41.74" width="1" height="1"/><rect class="cls-1" x="60.43" y="31.06" width="1" height="1"/><rect class="cls-1" x="53.45" y="31.06" width="1" height="1"/><rect class="cls-1" x="53.45" y="64.52" width="2" height="7.74"/><rect class="cls-1" x="54.45" y="71.26" width="29.7" height="2"/><rect class="cls-1" x="83.15" y="64.52" width="2" height="7.74"/><rect class="cls-1" x="54.45" y="63.52" width="29.7" height="2"/><rect class="cls-1" x="53.45" y="72.26" width="1" height="1"/><rect class="cls-1" x="84.15" y="72.26" width="1" height="1"/><rect class="cls-1" x="84.15" y="63.52" width="1" height="1"/><rect class="cls-1" x="53.45" y="63.52" width="1" height="1"/><rect class="cls-1" x="53.45" y="79.74" width="2" height="6.84"/><rect class="cls-1" x="54.45" y="85.58" width="14.98" height="2"/><rect class="cls-1" x="69.43" y="85.49" width="5.49" height="2" transform="translate(-2.79 2.41) rotate(-1.88)"/><rect class="cls-1" x="73.92" y="86.4" width="2" height="0.05"/><rect class="cls-1" x="70.24" y="86.57" width="4.95" height="2" transform="translate(-31.86 42.62) rotate(-27.03)"/><rect class="cls-1" x="53.22" y="92.31" width="18.53" height="2" transform="translate(-38.17 43.51) rotate(-29.87)"/><rect class="cls-1" x="53.45" y="97.92" width="2" height="8.59"/><rect class="cls-1" x="54.45" y="105.52" width="29.7" height="2"/><rect class="cls-1" x="83.15" y="99.68" width="2" height="6.84"/><rect class="cls-1" x="69.17" y="98.68" width="14.98" height="2"/><rect class="cls-1" x="63.67" y="98.77" width="5.49" height="2" transform="translate(-3.23 2.23) rotate(-1.88)"/><rect class="cls-1" x="62.67" y="99.81" width="2" height="0.05"/><rect class="cls-1" x="63.4" y="97.69" width="4.95" height="2" transform="translate(-37.65 40.72) rotate(-27.03)"/><rect class="cls-1" x="66.85" y="91.95" width="18.53" height="2" transform="translate(-36.18 50.25) rotate(-29.87)"/><rect class="cls-1" x="83.15" y="79.74" width="2" height="8.59"/><rect class="cls-1" x="54.45" y="78.74" width="29.7" height="2"/><rect class="cls-1" x="53.45" y="86.58" width="1" height="1"/><polygon class="cls-1" points="69.44 86.58 69.44 87.58 69.45 87.58 69.47 87.58 69.44 86.58"/><polygon class="cls-1" points="74.92 86.4 75.92 86.4 75.92 85.37 74.89 85.41 74.92 86.4"/><polygon class="cls-1" points="74.92 86.45 75.38 87.34 75.92 87.06 75.92 86.45 74.92 86.45"/><polygon class="cls-1" points="70.52 88.7 70.06 87.81 70.04 87.82 70.02 87.83 70.52 88.7"/><polygon class="cls-1" points="54.45 97.92 53.95 97.06 53.45 97.34 53.45 97.92 54.45 97.92"/><rect class="cls-1" x="53.45" y="106.52" width="1" height="1"/><rect class="cls-1" x="84.15" y="106.52" width="1" height="1"/><rect class="cls-1" x="84.15" y="98.68" width="1" height="1"/><polygon class="cls-1" points="69.17 99.68 69.17 98.68 69.15 98.68 69.13 98.68 69.17 99.68"/><polygon class="cls-1" points="63.67 99.86 62.67 99.86 62.67 100.89 63.71 100.86 63.67 99.86"/><polygon class="cls-1" points="63.67 99.81 63.22 98.92 62.67 99.2 62.67 99.81 63.67 99.81"/><polygon class="cls-1" points="68.08 97.56 68.54 98.45 68.56 98.44 68.58 98.43 68.08 97.56"/><polygon class="cls-1" points="84.15 88.34 84.65 89.21 85.15 88.92 85.15 88.34 84.15 88.34"/><rect class="cls-1" x="84.15" y="78.74" width="1" height="1"/><rect class="cls-1" x="53.45" y="78.74" width="1" height="1"/><rect class="cls-1" x="53.45" y="113.4" width="2" height="7.74"/><rect class="cls-1" x="54.45" y="120.14" width="17.73" height="2"/><path class="cls-1" d="M77.61,121.79a8,8,0,0,0-5.43-1.65v2a6,6,0,0,1,4.11,1.15Z"/><path class="cls-1" d="M79.53,126.68a6.15,6.15,0,0,0-1.93-4.9l-1.3,1.52a4.16,4.16,0,0,1,1.23,3.38Z"/><path class="cls-1" d="M77.61,131.57a6.23,6.23,0,0,0,1.92-4.89h-2a4.29,4.29,0,0,1-1.24,3.39Z"/><path class="cls-1" d="M72.18,133.17a8.15,8.15,0,0,0,5.42-1.59l-1.3-1.52a6.23,6.23,0,0,1-4.12,1.11Z"/><rect class="cls-1" x="54.45" y="131.17" width="17.73" height="2"/><rect class="cls-1" x="53.45" y="132.17" width="2" height="7.78"/><rect class="cls-1" x="54.45" y="138.95" width="17.59" height="2"/><path class="cls-1" d="M80.76,135.9c-1.85,2-4.69,3-8.72,3v2c4.38,0,7.84-1.17,10.19-3.69Z"/><path class="cls-1" d="M83.6,126.68c0,4.2-1,7.22-2.84,9.22l1.47,1.35c2.3-2.5,3.37-6.08,3.37-10.57Z"/><path class="cls-1" d="M80.76,117.46c1.84,2,2.84,5,2.84,9.22h2c0-4.52-1.07-8.11-3.37-10.58Z"/><path class="cls-1" d="M72,114.4c4,0,6.87,1.08,8.72,3.06l1.47-1.36c-2.35-2.52-5.81-3.7-10.19-3.7Z"/><rect class="cls-1" x="54.45" y="112.4" width="17.59" height="2"/><rect class="cls-1" x="53.45" y="121.14" width="1" height="1"/><polygon class="cls-1" points="76.95 122.54 76.29 123.29 76.29 123.29 76.3 123.3 76.95 122.54"/><polygon class="cls-1" points="76.95 130.82 77.6 131.58 77.61 131.57 77.61 131.57 76.95 130.82"/><rect class="cls-1" x="53.45" y="131.17" width="1" height="1"/><rect class="cls-1" x="53.45" y="139.95" width="1" height="1"/><polygon class="cls-1" points="81.5 136.58 82.23 137.26 82.23 137.25 81.5 136.58"/><polygon class="cls-1" points="81.5 116.78 82.23 116.1 82.23 116.09 81.5 116.78"/><rect class="cls-1" x="53.45" y="112.4" width="1" height="1"/><rect class="cls-1" x="53.45" y="146.84" width="2" height="10.58"/><rect class="cls-1" x="61.03" y="151.81" width="2" height="15.86" transform="translate(-108.86 172.37) rotate(-73)"/><rect class="cls-1" x="71.74" y="159.67" width="2" height="6.48" transform="translate(-103.58 190.12) rotate(-74.71)"/><rect class="cls-1" x="74.87" y="163.76" width="2" height="0.09"/><rect class="cls-1" x="69.46" y="163.69" width="6.52" height="2" transform="translate(-39.67 24.05) rotate(-14.8)"/><rect class="cls-1" x="54.1" y="166.86" width="15.83" height="2" transform="translate(-46.86 25.84) rotate(-17.2)"/><rect class="cls-1" x="53.45" y="170.2" width="2" height="11.03"/><rect class="cls-1" x="54.45" y="180.22" width="29.7" height="2"/><rect class="cls-1" x="83.15" y="174.34" width="2" height="6.89"/><rect class="cls-1" x="70.52" y="173.34" width="13.64" height="2"/><rect class="cls-1" x="61.38" y="173.45" width="9.14" height="2" transform="translate(-4.28 1.68) rotate(-1.41)"/><rect class="cls-1" x="60.38" y="174.47" width="2" height="0.09"/><rect class="cls-1" x="60.8" y="169.81" width="23.92" height="2" transform="matrix(0.95, -0.31, 0.31, 0.95, -48.87, 30.54)"/><rect class="cls-1" x="83.15" y="160.88" width="2" height="6.26"/><rect class="cls-1" x="71.76" y="145.26" width="2" height="23.92" transform="translate(-99.19 178.27) rotate(-72.14)"/><rect class="cls-1" x="60.38" y="153.46" width="2" height="0.09"/><rect class="cls-1" x="64.95" y="149" width="2" height="9.14" transform="matrix(0.02, -1, 1, 0.02, -89.2, 215.72)"/><rect class="cls-1" x="70.52" y="152.68" width="13.64" height="2"/><rect class="cls-1" x="83.15" y="146.84" width="2" height="6.84"/><rect class="cls-1" x="54.45" y="145.84" width="29.7" height="2"/><polygon class="cls-1" points="54.45 157.42 53.45 157.42 53.45 158.16 54.16 158.38 54.45 157.42"/><polygon class="cls-1" points="69.61 162.06 69.32 163.01 69.34 163.01 69.35 163.02 69.61 162.06"/><polygon class="cls-1" points="75.87 163.76 76.87 163.76 76.87 163 76.13 162.8 75.87 163.76"/><polygon class="cls-1" points="75.87 163.85 76.13 164.82 76.87 164.63 76.87 163.85 75.87 163.85"/><polygon class="cls-1" points="69.57 165.52 69.31 164.55 69.29 164.56 69.27 164.56 69.57 165.52"/><polygon class="cls-1" points="54.45 170.2 54.15 169.24 53.45 169.46 53.45 170.2 54.45 170.2"/><rect class="cls-1" x="53.45" y="181.22" width="1" height="1"/><rect class="cls-1" x="84.15" y="181.22" width="1" height="1"/><rect class="cls-1" x="84.15" y="173.34" width="1" height="1"/><polygon class="cls-1" points="70.52 174.34 70.52 173.34 70.5 173.34 70.49 173.34 70.52 174.34"/><polygon class="cls-1" points="61.38 174.56 60.38 174.56 60.38 175.59 61.41 175.56 61.38 174.56"/><polygon class="cls-1" points="61.38 174.47 61.07 173.52 60.38 173.75 60.38 174.47 61.38 174.47"/><polygon class="cls-1" points="84.15 167.14 84.46 168.09 85.15 167.87 85.15 167.14 84.15 167.14"/><polygon class="cls-1" points="84.15 160.88 85.15 160.88 85.15 160.16 84.46 159.93 84.15 160.88"/><polygon class="cls-1" points="61.38 153.55 60.38 153.55 60.38 154.28 61.07 154.5 61.38 153.55"/><polygon class="cls-1" points="61.38 153.46 61.41 152.46 60.38 152.44 60.38 153.46 61.38 153.46"/><polygon class="cls-1" points="70.52 153.69 70.49 154.68 70.5 154.69 70.52 154.69 70.52 153.69"/><rect class="cls-1" x="84.15" y="153.68" width="1" height="1"/><rect class="cls-1" x="84.15" y="145.84" width="1" height="1"/><rect class="cls-1" x="53.45" y="145.84" width="1" height="1"/><rect class="cls-1" x="53.45" y="188.7" width="2" height="10.57"/><rect class="cls-1" x="61.03" y="193.67" width="2" height="15.86" transform="translate(-148.89 201.99) rotate(-73)"/><rect class="cls-1" x="71.74" y="201.52" width="2" height="6.48" transform="translate(-143.96 220.93) rotate(-74.71)"/><rect class="cls-1" x="74.87" y="205.62" width="2" height="0.09"/><rect class="cls-1" x="69.46" y="205.54" width="6.52" height="2" transform="translate(-50.36 25.44) rotate(-14.8)"/><rect class="cls-1" x="54.1" y="208.72" width="15.83" height="2" transform="translate(-59.24 27.71) rotate(-17.2)"/><rect class="cls-1" x="53.45" y="212.06" width="2" height="11.03"/><rect class="cls-1" x="54.45" y="222.08" width="29.7" height="2"/><rect class="cls-1" x="83.15" y="216.2" width="2" height="6.89"/><rect class="cls-1" x="70.52" y="215.2" width="13.64" height="2"/><rect class="cls-1" x="61.38" y="215.31" width="9.14" height="2" transform="translate(-5.31 1.69) rotate(-1.41)"/><rect class="cls-1" x="60.38" y="216.33" width="2" height="0.09"/><rect class="cls-1" x="60.8" y="211.66" width="23.92" height="2" transform="translate(-61.7 32.55) rotate(-17.86)"/><rect class="cls-1" x="83.15" y="202.74" width="2" height="6.26"/><rect class="cls-1" x="71.76" y="187.11" width="2" height="23.92" transform="translate(-139.03 207.29) rotate(-72.14)"/><rect class="cls-1" x="60.38" y="195.32" width="2" height="0.09"/><rect class="cls-1" x="64.95" y="190.86" width="2" height="9.14" transform="translate(-131.05 256.54) rotate(-88.59)"/><rect class="cls-1" x="70.52" y="194.54" width="13.64" height="2"/><rect class="cls-1" x="83.15" y="188.7" width="2" height="6.84"/><rect class="cls-1" x="54.45" y="187.7" width="29.7" height="2"/><polygon class="cls-1" points="54.45 199.28 53.45 199.28 53.45 200.02 54.16 200.23 54.45 199.28"/><polygon class="cls-1" points="69.61 203.91 69.32 204.87 69.34 204.87 69.35 204.88 69.61 203.91"/><polygon class="cls-1" points="75.87 205.62 76.87 205.62 76.87 204.86 76.13 204.66 75.87 205.62"/><polygon class="cls-1" points="75.87 205.71 76.13 206.68 76.87 206.48 76.87 205.71 75.87 205.71"/><polygon class="cls-1" points="69.57 207.38 69.31 206.41 69.29 206.41 69.27 206.42 69.57 207.38"/><polygon class="cls-1" points="54.45 212.06 54.15 211.1 53.45 211.32 53.45 212.06 54.45 212.06"/><rect class="cls-1" x="53.45" y="223.08" width="1" height="1"/><rect class="cls-1" x="84.15" y="223.08" width="1" height="1"/><rect class="cls-1" x="84.15" y="215.2" width="1" height="1"/><polygon class="cls-1" points="70.52 216.2 70.52 215.2 70.5 215.2 70.49 215.2 70.52 216.2"/><polygon class="cls-1" points="61.38 216.42 60.38 216.42 60.38 217.45 61.41 217.42 61.38 216.42"/><polygon class="cls-1" points="61.38 216.33 61.07 215.38 60.38 215.6 60.38 216.33 61.38 216.33"/><polygon class="cls-1" points="84.15 209 84.46 209.95 85.15 209.72 85.15 209 84.15 209"/><polygon class="cls-1" points="84.15 202.74 85.15 202.74 85.15 202.01 84.46 201.79 84.15 202.74"/><polygon class="cls-1" points="61.38 195.41 60.38 195.41 60.38 196.13 61.07 196.36 61.38 195.41"/><polygon class="cls-1" points="61.38 195.32 61.41 194.32 60.38 194.29 60.38 195.32 61.38 195.32"/><polygon class="cls-1" points="70.52 195.54 70.49 196.54 70.5 196.54 70.52 196.54 70.52 195.54"/><rect class="cls-1" x="84.15" y="195.54" width="1" height="1"/><rect class="cls-1" x="84.15" y="187.7" width="1" height="1"/><rect class="cls-1" x="53.45" y="187.7" width="1" height="1"/><path class="cls-1" d="M60.3,239.66a7,7,0,0,0-1.22,4.18h2a5.06,5.06,0,0,1,.84-3Z"/><path class="cls-1" d="M63.87,237.05a7.34,7.34,0,0,0-3.58,2.62l1.64,1.14a5.28,5.28,0,0,1,2.63-1.88Z"/><path class="cls-1" d="M69.3,236.23a15.69,15.69,0,0,0-5.44.82l.71,1.88a13.37,13.37,0,0,1,4.73-.7Z"/><path class="cls-1" d="M74.73,237.05a15.79,15.79,0,0,0-5.43-.82v2a13.75,13.75,0,0,1,4.74.7Z"/><path class="cls-1" d="M78.31,239.67a7.34,7.34,0,0,0-3.58-2.62L74,238.93a5.28,5.28,0,0,1,2.63,1.88Z"/><path class="cls-1" d="M79.53,243.84a7,7,0,0,0-1.23-4.18l-1.62,1.16a5.06,5.06,0,0,1,.85,3Z"/><path class="cls-1" d="M78.31,248.06a7.22,7.22,0,0,0,1.22-4.22h-2a5.22,5.22,0,0,1-.86,3.07Z"/><path class="cls-1" d="M74.73,250.67a7.27,7.27,0,0,0,3.58-2.61l-1.64-1.15A5.35,5.35,0,0,1,74,248.8Z"/><path class="cls-1" d="M69.3,251.5a15.54,15.54,0,0,0,5.43-.83L74,248.8a14,14,0,0,1-4.74.7Z"/><path class="cls-1" d="M63.86,250.67a15.45,15.45,0,0,0,5.44.83v-2a13.61,13.61,0,0,1-4.73-.7Z"/><path class="cls-1" d="M60.29,248.06a7.27,7.27,0,0,0,3.58,2.61l.69-1.87a5.35,5.35,0,0,1-2.63-1.89Z"/><path class="cls-1" d="M59.08,243.84a7.22,7.22,0,0,0,1.21,4.22l1.64-1.15a5.21,5.21,0,0,1-.85-3.07Z"/><path class="cls-1" d="M56.72,251.14a14.7,14.7,0,0,1-1.72-7.3H53a16.65,16.65,0,0,0,2,8.28Z"/><path class="cls-1" d="M61.52,255.78a11.15,11.15,0,0,1-4.8-4.64l-1.75,1a13.14,13.14,0,0,0,5.64,5.45Z"/><path class="cls-1" d="M69.3,257.42a16.9,16.9,0,0,1-7.78-1.64l-.91,1.78a18.93,18.93,0,0,0,8.69,1.86Z"/><path class="cls-1" d="M77.08,255.78a16.9,16.9,0,0,1-7.78,1.64v2A18.93,18.93,0,0,0,78,257.56Z"/><path class="cls-1" d="M81.93,251.14a11.44,11.44,0,0,1-4.85,4.64l.91,1.78a13.43,13.43,0,0,0,5.68-5.44Z"/><path class="cls-1" d="M83.6,243.84a14.86,14.86,0,0,1-1.68,7.3l1.76,1a17.06,17.06,0,0,0,1.92-8.27Z"/><path class="cls-1" d="M81.93,236.59a14.69,14.69,0,0,1,1.67,7.25h2a16.72,16.72,0,0,0-1.93-8.23Z"/><path class="cls-1" d="M77.08,232a11.32,11.32,0,0,1,4.85,4.64l1.74-1A13.43,13.43,0,0,0,78,230.17Z"/><path class="cls-1" d="M69.3,230.31A16.9,16.9,0,0,1,77.08,232l.91-1.78a18.81,18.81,0,0,0-8.69-1.86Z"/><path class="cls-1" d="M61.52,232a16.9,16.9,0,0,1,7.78-1.64v-2a18.81,18.81,0,0,0-8.69,1.86Z"/><path class="cls-1" d="M56.72,236.58a11.07,11.07,0,0,1,4.8-4.63l-.91-1.78A13.14,13.14,0,0,0,55,235.62Z"/><path class="cls-1" d="M55,243.84a14.47,14.47,0,0,1,1.71-7.24l-1.73-1a16.26,16.26,0,0,0-2,8.23Z"/><polygon class="cls-1" points="61.11 240.24 61.92 240.82 61.93 240.82 61.93 240.81 61.11 240.24"/><polygon class="cls-1" points="64.22 237.99 64.56 238.93 64.57 238.93 64.22 237.99"/><path class="cls-1" d="M74.39,238l-.35.94Z"/><polygon class="cls-1" points="77.49 240.24 76.67 240.81 76.67 240.82 76.68 240.82 77.49 240.24"/><path class="cls-1" d="M74.39,249.74l.34.93Z"/><polygon class="cls-1" points="64.22 249.74 64.57 248.8 64.56 248.8 64.22 249.74"/><polygon class="cls-1" points="55.84 251.63 56.72 251.15 56.72 251.14 55.84 251.63"/><path class="cls-1" d="M61.07,256.67l.45-.89Z"/><path class="cls-1" d="M77.54,256.67l-.46-.89Z"/><polygon class="cls-1" points="82.8 251.63 83.67 252.12 83.68 252.11 82.8 251.63"/><polygon class="cls-1" points="82.8 236.1 83.67 235.62 83.67 235.61 82.8 236.1"/><path class="cls-1" d="M77.54,231.06l.45-.89Z"/><path class="cls-1" d="M61.07,231.06l-.46-.89Z"/><polygon class="cls-1" points="55.84 236.1 56.71 236.59 56.72 236.59 56.72 236.58 55.84 236.1"/><rect class="cls-1" x="71.01" y="264.88" width="7.29" height="2" transform="matrix(0.27, -0.96, 0.96, 0.27, -201.5, 265.55)"/><path class="cls-1" d="M78.14,270.83a7.19,7.19,0,0,0-4.26-2.42l-.43,1.95a5.26,5.26,0,0,1,3.12,1.72Z"/><path class="cls-1" d="M79.53,275.1a6.69,6.69,0,0,0-1.39-4.26l-1.57,1.23a4.73,4.73,0,0,1,1,3Z"/><path class="cls-1" d="M78.33,279.52a8,8,0,0,0,1.2-4.42h-2a5.82,5.82,0,0,1-.88,3.32Z"/><path class="cls-1" d="M74.73,282.2a7.12,7.12,0,0,0,3.59-2.67l-1.66-1.12A5.17,5.17,0,0,1,74,280.33Z"/><path class="cls-1" d="M69.3,283a15.54,15.54,0,0,0,5.43-.83L74,280.33a14,14,0,0,1-4.74.7Z"/><path class="cls-1" d="M63.84,282.15a14.85,14.85,0,0,0,5.46.88v-2a12.73,12.73,0,0,1-4.71-.74Z"/><path class="cls-1" d="M60.28,279.4a7.65,7.65,0,0,0,3.55,2.74l.77-1.84a5.75,5.75,0,0,1-2.66-2Z"/><path class="cls-1" d="M59.08,275.15a7.52,7.52,0,0,0,1.19,4.23L62,278.29a5.59,5.59,0,0,1-.87-3.14Z"/><path class="cls-1" d="M60.31,271a6.8,6.8,0,0,0-1.23,4.16h2a4.84,4.84,0,0,1,.83-3Z"/><path class="cls-1" d="M64.71,268.54A7.19,7.19,0,0,0,60.3,271l1.62,1.16a5.24,5.24,0,0,1,3.24-1.67Z"/><rect class="cls-1" x="62.56" y="262.46" width="2" height="7.33" transform="translate(-95.05 43.18) rotate(-22)"/><path class="cls-1" d="M58.26,266a9.12,9.12,0,0,1,4.19-2.31l-.52-1.93a11.16,11.16,0,0,0-5.08,2.82Z"/><path class="cls-1" d="M55.85,270a10,10,0,0,1,2.41-4l-1.41-1.42a11.89,11.89,0,0,0-2.9,4.81Z"/><path class="cls-1" d="M55,275.42a16.38,16.38,0,0,1,.85-5.39l-1.9-.66a18.49,18.49,0,0,0-1,6.05Z"/><path class="cls-1" d="M56.72,282.67A14.59,14.59,0,0,1,55,275.42H53a16.58,16.58,0,0,0,2,8.22Z"/><path class="cls-1" d="M61.52,287.31a11.15,11.15,0,0,1-4.8-4.64l-1.75,1a13.06,13.06,0,0,0,5.64,5.44Z"/><path class="cls-1" d="M69.3,289a16.9,16.9,0,0,1-7.78-1.64l-.91,1.77A18.81,18.81,0,0,0,69.3,291Z"/><path class="cls-1" d="M77.08,287.31A16.9,16.9,0,0,1,69.3,289v2A18.81,18.81,0,0,0,78,289.08Z"/><path class="cls-1" d="M81.93,282.67a11.44,11.44,0,0,1-4.85,4.64l.91,1.77a13.32,13.32,0,0,0,5.68-5.44Z"/><path class="cls-1" d="M83.6,275.37a14.86,14.86,0,0,1-1.68,7.3l1.76,1a17.06,17.06,0,0,0,1.92-8.27Z"/><path class="cls-1" d="M82.75,269.94a16.54,16.54,0,0,1,.85,5.43h2a18.61,18.61,0,0,0-.95-6.09Z"/><path class="cls-1" d="M80.08,265.83A10.63,10.63,0,0,1,82.76,270l1.88-.68a12.62,12.62,0,0,0-3.17-4.88Z"/><path class="cls-1" d="M75.38,263.33a11,11,0,0,1,4.71,2.51l1.37-1.46a13.11,13.11,0,0,0-5.55-3Z"/><polygon class="cls-1" points="73.67 269.38 72.7 269.11 72.41 270.14 73.45 270.36 73.67 269.38"/><polygon class="cls-1" points="77.36 271.45 78.14 270.84 78.14 270.83 77.36 271.45"/><polygon class="cls-1" points="77.49 278.97 78.32 279.53 78.33 279.52 77.49 278.97"/><path class="cls-1" d="M74.39,281.27l.34.93Z"/><polygon class="cls-1" points="64.22 281.22 63.83 282.14 63.84 282.15 64.22 281.22"/><polygon class="cls-1" points="61.11 278.83 60.27 279.38 60.28 279.4 61.11 278.83"/><polygon class="cls-1" points="61.11 271.59 61.91 272.19 61.92 272.18 61.92 272.17 61.11 271.59"/><polygon class="cls-1" points="64.94 269.52 65.16 270.5 66.3 270.24 65.86 269.15 64.94 269.52"/><polygon class="cls-1" points="62.19 262.73 63.12 262.35 62.78 261.53 61.93 261.76 62.19 262.73"/><path class="cls-1" d="M57.55,265.29l-.7-.71Z"/><polygon class="cls-1" points="54.9 269.7 55.84 270.03 55.85 270.02 55.85 270.01 54.9 269.7"/><polygon class="cls-1" points="55.84 283.15 56.72 282.68 56.72 282.67 55.84 283.15"/><path class="cls-1" d="M61.07,288.2l.45-.89Z"/><path class="cls-1" d="M77.54,288.2l-.46-.89Z"/><polygon class="cls-1" points="82.8 283.15 83.67 283.64 83.68 283.64 82.8 283.15"/><polygon class="cls-1" points="83.7 269.61 84.64 269.28 84.64 269.28 84.64 269.27 83.7 269.61"/><polygon class="cls-1" points="80.78 265.11 81.47 264.39 81.46 264.38 80.78 265.11"/><rect class="cls-1" x="74.8" y="261.25" width="1" height="1" transform="translate(-197.05 264.85) rotate(-74.6)"/><rect class="cls-1" x="54.45" y="320.64" width="23.72" height="2"/><rect class="cls-1" x="53.45" y="321.64" width="2" height="7.74"/><rect class="cls-1" x="54.45" y="328.38" width="29.7" height="2"/><rect class="cls-1" x="83.15" y="306.75" width="2" height="22.64"/><rect class="cls-1" x="78.17" y="305.75" width="5.98" height="2"/><rect class="cls-1" x="77.17" y="306.75" width="2" height="14.9"/><rect class="cls-1" x="53.45" y="320.64" width="1" height="1"/><rect class="cls-1" x="53.45" y="329.38" width="1" height="1"/><rect class="cls-1" x="84.15" y="329.38" width="1" height="1"/><rect class="cls-1" x="84.15" y="305.75" width="1" height="1"/><rect class="cls-1" x="77.17" y="305.75" width="1" height="1"/><rect class="cls-1" x="78.17" y="321.64" width="1" height="1"/><rect class="cls-1" x="54.45" y="348.61" width="23.72" height="2"/><rect class="cls-1" x="53.45" y="349.61" width="2" height="7.74"/><rect class="cls-1" x="54.45" y="356.35" width="29.7" height="2"/><rect class="cls-1" x="83.15" y="334.72" width="2" height="22.64"/><rect class="cls-1" x="78.17" y="333.72" width="5.98" height="2"/><rect class="cls-1" x="77.17" y="334.72" width="2" height="14.9"/><rect class="cls-1" x="53.45" y="348.61" width="1" height="1"/><rect class="cls-1" x="53.45" y="357.35" width="1" height="1"/><rect class="cls-1" x="84.15" y="357.35" width="1" height="1"/><rect class="cls-1" x="84.15" y="333.72" width="1" height="1"/><rect class="cls-1" x="77.17" y="333.72" width="1" height="1"/><rect class="cls-1" x="78.17" y="349.61" width="1" height="1"/><rect class="cls-1" x="83.15" y="384.03" width="2" height="7.79"/><rect class="cls-1" x="59.39" y="376.78" width="2" height="0.09"/><rect class="cls-1" x="83.15" y="361.71" width="2" height="7.96"/><rect class="cls-1" x="53.57" y="365.9" width="31.47" height="2" transform="translate(-117.32 43.49) rotate(-19.29)"/><rect class="cls-1" x="53.45" y="372.1" width="2" height="9.27"/><rect class="cls-1" x="68.3" y="370.85" width="2" height="31.48" transform="translate(-318.4 323.77) rotate(-70.63)"/><polygon class="cls-1" points="84.15 384.03 85.15 384.03 85.15 383.29 84.45 383.07 84.15 384.03"/><polygon class="cls-1" points="65.03 378.09 65.32 377.13 65.3 377.13 65.28 377.12 65.03 378.09"/><polygon class="cls-1" points="60.39 376.87 59.39 376.87 59.39 377.64 60.14 377.84 60.39 376.87"/><polygon class="cls-1" points="60.39 376.78 60.12 375.82 59.39 376.02 59.39 376.78 60.39 376.78"/><polygon class="cls-1" points="65.07 375.48 65.34 376.44 65.35 376.44 65.36 376.43 65.07 375.48"/><polygon class="cls-1" points="84.15 369.67 84.44 370.63 85.15 370.41 85.15 369.67 84.15 369.67"/><polygon class="cls-1" points="84.15 361.71 85.15 361.71 85.15 360.3 83.82 360.76 84.15 361.71"/><polygon class="cls-1" points="54.45 372.1 54.12 371.16 53.45 371.39 53.45 372.1 54.45 372.1"/><polygon class="cls-1" points="54.45 381.37 53.45 381.37 53.45 382.08 54.12 382.31 54.45 381.37"/><polygon class="cls-1" points="84.15 391.81 83.82 392.75 85.15 393.22 85.15 391.81 84.15 391.81"/><rect class="cls-1" x="60.12" y="411.72" width="6.48" height="2"/><rect class="cls-1" x="59.12" y="407.1" width="2" height="5.63"/><path class="cls-1" d="M63.36,402a3.9,3.9,0,0,0-3.22,1.42,6,6,0,0,0-1,3.72h2a4,4,0,0,1,.6-2.49,1.9,1.9,0,0,1,1.64-.65Z"/><path class="cls-1" d="M67.6,407.1a6,6,0,0,0-1-3.72A3.9,3.9,0,0,0,63.36,402v2a1.9,1.9,0,0,1,1.64.65,4,4,0,0,1,.6,2.49Z"/><rect class="cls-1" x="65.6" y="407.1" width="2" height="5.63"/><rect class="cls-1" x="72.14" y="411.72" width="6.57" height="2"/><rect class="cls-1" x="71.14" y="406.38" width="2" height="6.34"/><path class="cls-1" d="M72.22,402.59a5.86,5.86,0,0,0-1.08,3.79h2a4,4,0,0,1,.62-2.52Z"/><path class="cls-1" d="M75.38,401.19a3.86,3.86,0,0,0-3.18,1.42l1.58,1.23a1.84,1.84,0,0,1,1.6-.65Z"/><path class="cls-1" d="M78.62,402.59a4,4,0,0,0-3.24-1.4v2a2,2,0,0,1,1.7.67Z"/><path class="cls-1" d="M79.71,406.38a5.86,5.86,0,0,0-1.09-3.79l-1.54,1.27a3.94,3.94,0,0,1,.63,2.52Z"/><rect class="cls-1" x="77.71" y="406.38" width="2" height="6.34"/><rect class="cls-1" x="83.15" y="405.07" width="2" height="15.12"/><path class="cls-1" d="M81.29,397.58c1.18,1.55,1.86,4,1.86,7.49h2c0-3.7-.7-6.66-2.28-8.71Z"/><path class="cls-1" d="M76.14,395.27a6.1,6.1,0,0,1,5.15,2.32l1.58-1.23a8.1,8.1,0,0,0-6.73-3.09Z"/><path class="cls-1" d="M72.22,396.72a5.62,5.62,0,0,1,3.92-1.45v-2a7.57,7.57,0,0,0-5.26,2Z"/><path class="cls-1" d="M70.16,401.2a6.8,6.8,0,0,1,2-4.46l-1.3-1.52a8.73,8.73,0,0,0-2.73,5.72Z"/><rect class="cls-1" x="69.12" y="400.07" width="0.05" height="2"/><path class="cls-1" d="M66.19,397.29a6.11,6.11,0,0,1,1.94,3.94l2-.32a8.13,8.13,0,0,0-2.65-5.16Z"/><path class="cls-1" d="M62.46,396a5.73,5.73,0,0,1,3.74,1.26l1.25-1.56a7.76,7.76,0,0,0-5-1.7Z"/><path class="cls-1" d="M57.36,398.26a6,6,0,0,1,5.1-2.22v-2a8,8,0,0,0-6.69,3Z"/><path class="cls-1" d="M55.45,405.76c0-3.57.72-6,1.9-7.49L55.78,397c-1.58,2-2.3,5-2.33,8.71Z"/><rect class="cls-1" x="53.45" y="405.75" width="2" height="14.45"/><rect class="cls-1" x="54.45" y="419.19" width="29.7" height="2"/><rect class="cls-1" x="59.12" y="412.72" width="1" height="1"/><rect class="cls-1" x="66.6" y="412.72" width="1" height="1"/><rect class="cls-1" x="71.14" y="412.72" width="1" height="1"/><polygon class="cls-1" points="72.99 403.23 73.76 403.86 73.77 403.85 73.78 403.84 72.99 403.23"/><path class="cls-1" d="M77.85,403.23l.77-.64Z"/><rect class="cls-1" x="78.71" y="412.72" width="1" height="1"/><polygon class="cls-1" points="82.08 396.97 82.87 396.36 82.87 396.36 82.08 396.97"/><polygon class="cls-1" points="71.55 395.98 72.2 396.74 72.21 396.73 72.22 396.72 71.55 395.98"/><polygon class="cls-1" points="69.17 401.07 69.17 402.07 70.04 402.07 70.16 401.2 69.17 401.07"/><polygon class="cls-1" points="69.12 401.07 68.13 401.23 68.27 402.07 69.12 402.07 69.12 401.07"/><polygon class="cls-1" points="66.83 396.52 67.46 395.75 67.45 395.74 66.83 396.52"/><polygon class="cls-1" points="56.56 397.65 57.35 398.27 57.35 398.26 56.56 397.65"/><polygon class="cls-1" points="54.45 405.75 53.45 405.74 53.45 405.75 54.45 405.75"/><rect class="cls-1" x="53.45" y="420.19" width="1" height="1"/><rect class="cls-1" x="84.15" y="420.19" width="1" height="1"/><rect class="cls-1" x="53.45" y="425.52" width="2" height="27.14"/><rect class="cls-1" x="54.45" y="451.65" width="5.98" height="2"/><rect class="cls-1" x="59.43" y="442.93" width="2" height="9.72"/><rect class="cls-1" x="60.43" y="441.93" width="23.72" height="2"/><rect class="cls-1" x="83.15" y="435.19" width="2" height="7.74"/><rect class="cls-1" x="60.43" y="434.19" width="23.72" height="2"/><rect class="cls-1" x="59.43" y="425.52" width="2" height="9.68"/><rect class="cls-1" x="54.45" y="424.52" width="5.98" height="2"/><rect class="cls-1" x="53.45" y="452.65" width="1" height="1"/><rect class="cls-1" x="60.43" y="452.65" width="1" height="1"/><rect class="cls-1" x="59.43" y="441.93" width="1" height="1"/><rect class="cls-1" x="84.15" y="442.93" width="1" height="1"/><rect class="cls-1" x="84.15" y="434.19" width="1" height="1"/><rect class="cls-1" x="59.43" y="435.19" width="1" height="1"/><rect class="cls-1" x="60.43" y="424.52" width="1" height="1"/><rect class="cls-1" x="53.45" y="424.52" width="1" height="1"/><path class="cls-1" d="M60.3,465.84A7,7,0,0,0,59.08,470h2a5.06,5.06,0,0,1,.84-3Z"/><path class="cls-1" d="M63.87,463.23a7.34,7.34,0,0,0-3.58,2.62L61.93,467a5.28,5.28,0,0,1,2.63-1.88Z"/><path class="cls-1" d="M69.3,462.4a15.68,15.68,0,0,0-5.44.83l.71,1.88a13.35,13.35,0,0,1,4.73-.71Z"/><path class="cls-1" d="M74.73,463.23a15.78,15.78,0,0,0-5.43-.83v2a13.72,13.72,0,0,1,4.74.71Z"/><path class="cls-1" d="M78.31,465.85a7.34,7.34,0,0,0-3.58-2.62L74,465.11A5.28,5.28,0,0,1,76.67,467Z"/><path class="cls-1" d="M79.53,470a7,7,0,0,0-1.23-4.18L76.68,467a5.06,5.06,0,0,1,.85,3Z"/><path class="cls-1" d="M78.31,474.24A7.22,7.22,0,0,0,79.53,470h-2a5.22,5.22,0,0,1-.86,3.07Z"/><path class="cls-1" d="M74.73,476.85a7.27,7.27,0,0,0,3.58-2.61l-1.64-1.15A5.35,5.35,0,0,1,74,475Z"/><path class="cls-1" d="M69.3,477.68a15.54,15.54,0,0,0,5.43-.83L74,475a14,14,0,0,1-4.74.7Z"/><path class="cls-1" d="M63.86,476.85a15.45,15.45,0,0,0,5.44.83v-2a13.61,13.61,0,0,1-4.73-.7Z"/><path class="cls-1" d="M60.29,474.24a7.27,7.27,0,0,0,3.58,2.61l.69-1.87a5.35,5.35,0,0,1-2.63-1.89Z"/><path class="cls-1" d="M59.08,470a7.22,7.22,0,0,0,1.21,4.22l1.64-1.15a5.21,5.21,0,0,1-.85-3.07Z"/><path class="cls-1" d="M56.72,477.32A14.7,14.7,0,0,1,55,470H53a16.59,16.59,0,0,0,2,8.27Z"/><path class="cls-1" d="M61.52,482a11.15,11.15,0,0,1-4.8-4.64l-1.75,1a13.06,13.06,0,0,0,5.64,5.44Z"/><path class="cls-1" d="M69.3,483.6A16.9,16.9,0,0,1,61.52,482l-.91,1.77a18.81,18.81,0,0,0,8.69,1.87Z"/><path class="cls-1" d="M77.08,482a16.9,16.9,0,0,1-7.78,1.64v2A18.81,18.81,0,0,0,78,483.73Z"/><path class="cls-1" d="M81.93,477.32A11.44,11.44,0,0,1,77.08,482l.91,1.77a13.32,13.32,0,0,0,5.68-5.44Z"/><path class="cls-1" d="M83.6,470a14.86,14.86,0,0,1-1.68,7.3l1.76,1A17.06,17.06,0,0,0,85.6,470Z"/><path class="cls-1" d="M81.93,462.77A14.69,14.69,0,0,1,83.6,470h2a16.72,16.72,0,0,0-1.93-8.23Z"/><path class="cls-1" d="M77.08,458.13a11.32,11.32,0,0,1,4.85,4.64l1.74-1A13.43,13.43,0,0,0,78,456.35Z"/><path class="cls-1" d="M69.3,456.48a16.89,16.89,0,0,1,7.78,1.65l.91-1.78a18.81,18.81,0,0,0-8.69-1.87Z"/><path class="cls-1" d="M61.52,458.13a16.89,16.89,0,0,1,7.78-1.65v-2a18.81,18.81,0,0,0-8.69,1.87Z"/><path class="cls-1" d="M56.72,462.76a11.07,11.07,0,0,1,4.8-4.63l-.91-1.78A13.14,13.14,0,0,0,55,461.8Z"/><path class="cls-1" d="M55,470a14.53,14.53,0,0,1,1.71-7.25l-1.73-1A16.26,16.26,0,0,0,53,470Z"/><polygon class="cls-1" points="61.11 466.42 61.92 467 61.93 467 61.93 466.99 61.11 466.42"/><polygon class="cls-1" points="64.22 464.17 64.56 465.11 64.57 465.11 64.22 464.17"/><path class="cls-1" d="M74.39,464.17l-.35.94Z"/><polygon class="cls-1" points="77.49 466.42 76.67 466.99 76.67 467 76.68 467 77.49 466.42"/><path class="cls-1" d="M74.39,475.91l.34.94Z"/><polygon class="cls-1" points="64.22 475.92 64.57 474.98 64.56 474.98 64.22 475.92"/><polygon class="cls-1" points="55.84 477.81 56.72 477.32 56.72 477.31 55.84 477.81"/><path class="cls-1" d="M61.07,482.84l.45-.88Z"/><path class="cls-1" d="M77.54,482.84l-.46-.88Z"/><polygon class="cls-1" points="82.8 477.81 83.67 478.3 83.68 478.29 82.8 477.81"/><polygon class="cls-1" points="82.8 462.28 83.67 461.79 83.67 461.79 82.8 462.28"/><path class="cls-1" d="M77.54,457.24l.45-.89Z"/><path class="cls-1" d="M61.07,457.24l-.46-.89Z"/><polygon class="cls-1" points="55.84 462.28 56.71 462.77 56.72 462.77 56.72 462.76 55.84 462.28"/><path class="cls-1" d="M60.3,499.91a7,7,0,0,0-1.22,4.19h2a5.06,5.06,0,0,1,.84-3Z"/><path class="cls-1" d="M63.87,497.31a7.34,7.34,0,0,0-3.58,2.62l1.64,1.14a5.28,5.28,0,0,1,2.63-1.88Z"/><path class="cls-1" d="M69.3,496.48a15.68,15.68,0,0,0-5.44.83l.71,1.87a13.61,13.61,0,0,1,4.73-.7Z"/><path class="cls-1" d="M74.73,497.31a15.78,15.78,0,0,0-5.43-.83v2a13.72,13.72,0,0,1,4.74.71Z"/><path class="cls-1" d="M78.31,499.93a7.34,7.34,0,0,0-3.58-2.62L74,499.19a5.28,5.28,0,0,1,2.63,1.88Z"/><path class="cls-1" d="M79.53,504.1a7,7,0,0,0-1.23-4.19l-1.62,1.17a5.06,5.06,0,0,1,.85,3Z"/><path class="cls-1" d="M78.31,508.32a7.22,7.22,0,0,0,1.22-4.22h-2a5.24,5.24,0,0,1-.86,3.07Z"/><path class="cls-1" d="M74.73,510.93a7.27,7.27,0,0,0,3.58-2.61l-1.64-1.15A5.35,5.35,0,0,1,74,509.06Z"/><path class="cls-1" d="M69.3,511.76a15.78,15.78,0,0,0,5.43-.83L74,509.06a14,14,0,0,1-4.74.7Z"/><path class="cls-1" d="M63.86,510.93a15.45,15.45,0,0,0,5.44.83v-2a13.61,13.61,0,0,1-4.73-.7Z"/><path class="cls-1" d="M60.29,508.32a7.27,7.27,0,0,0,3.58,2.61l.69-1.87a5.35,5.35,0,0,1-2.63-1.89Z"/><path class="cls-1" d="M59.08,504.1a7.22,7.22,0,0,0,1.21,4.22l1.64-1.15a5.24,5.24,0,0,1-.85-3.07Z"/><path class="cls-1" d="M56.72,511.39A14.64,14.64,0,0,1,55,504.1H53a16.59,16.59,0,0,0,2,8.27Z"/><path class="cls-1" d="M61.52,516a11.07,11.07,0,0,1-4.8-4.63l-1.75,1a13.14,13.14,0,0,0,5.64,5.45Z"/><path class="cls-1" d="M69.3,517.68A16.77,16.77,0,0,1,61.52,516l-.91,1.78a18.81,18.81,0,0,0,8.69,1.87Z"/><path class="cls-1" d="M77.08,516a16.77,16.77,0,0,1-7.78,1.65v2A18.81,18.81,0,0,0,78,517.81Z"/><path class="cls-1" d="M81.93,511.39A11.32,11.32,0,0,1,77.08,516l.91,1.78a13.32,13.32,0,0,0,5.68-5.44Z"/><path class="cls-1" d="M83.6,504.1a14.89,14.89,0,0,1-1.68,7.3l1.76,1a17,17,0,0,0,1.92-8.26Z"/><path class="cls-1" d="M81.93,496.84a14.76,14.76,0,0,1,1.67,7.26h2a16.69,16.69,0,0,0-1.93-8.23Z"/><path class="cls-1" d="M77.08,492.21a11.32,11.32,0,0,1,4.85,4.64l1.74-1A13.38,13.38,0,0,0,78,490.43Z"/><path class="cls-1" d="M69.3,490.56a16.89,16.89,0,0,1,7.78,1.65l.91-1.78a18.81,18.81,0,0,0-8.69-1.87Z"/><path class="cls-1" d="M61.52,492.21a16.89,16.89,0,0,1,7.78-1.65v-2a18.81,18.81,0,0,0-8.69,1.87Z"/><path class="cls-1" d="M56.72,496.84a11.07,11.07,0,0,1,4.8-4.63l-.91-1.78A13.14,13.14,0,0,0,55,495.88Z"/><path class="cls-1" d="M55,504.1a14.51,14.51,0,0,1,1.71-7.25l-1.73-1a16.32,16.32,0,0,0-2,8.24Z"/><polygon class="cls-1" points="61.11 500.5 61.92 501.08 61.93 501.08 61.93 501.07 61.11 500.5"/><polygon class="cls-1" points="64.22 498.25 64.56 499.19 64.57 499.18 64.22 498.25"/><path class="cls-1" d="M74.39,498.25l-.35.94Z"/><polygon class="cls-1" points="77.49 500.5 76.67 501.07 76.67 501.08 76.68 501.08 77.49 500.5"/><path class="cls-1" d="M74.39,510l.34.94Z"/><polygon class="cls-1" points="64.22 509.99 64.57 509.06 64.56 509.06 64.22 509.99"/><polygon class="cls-1" points="55.84 511.88 56.72 511.4 56.72 511.39 55.84 511.88"/><path class="cls-1" d="M61.07,516.92l.45-.89Z"/><path class="cls-1" d="M77.54,516.92l-.46-.89Z"/><polygon class="cls-1" points="82.8 511.88 83.67 512.37 83.68 512.36 82.8 511.88"/><polygon class="cls-1" points="82.8 496.36 83.67 495.87 83.67 495.87 82.8 496.36"/><path class="cls-1" d="M77.54,491.32l.45-.89Z"/><path class="cls-1" d="M61.07,491.32l-.46-.89Z"/><polygon class="cls-1" points="55.84 496.36 56.71 496.85 56.72 496.85 56.72 496.84 55.84 496.36"/><rect class="cls-1" x="54.45" y="521.57" width="5.98" height="2"/><rect class="cls-1" x="53.45" y="522.57" width="2" height="23.09"/><rect class="cls-1" x="54.45" y="544.65" width="29.7" height="2"/><rect class="cls-1" x="83.15" y="537.91" width="2" height="7.74"/><rect class="cls-1" x="72.72" y="536.91" width="11.43" height="2"/><rect class="cls-1" x="71.72" y="525.67" width="2" height="12.24"/><rect class="cls-1" x="66.73" y="524.67" width="5.99" height="2"/><rect class="cls-1" x="65.73" y="525.67" width="2" height="12.24"/><rect class="cls-1" x="60.43" y="536.91" width="6.3" height="2"/><rect class="cls-1" x="59.43" y="522.57" width="2" height="15.35"/><rect class="cls-1" x="53.45" y="521.57" width="1" height="1"/><rect class="cls-1" x="53.45" y="545.65" width="1" height="1"/><rect class="cls-1" x="84.15" y="545.65" width="1" height="1"/><rect class="cls-1" x="84.15" y="536.91" width="1" height="1"/><rect class="cls-1" x="71.72" y="537.91" width="1" height="1"/><rect class="cls-1" x="72.72" y="524.67" width="1" height="1"/><rect class="cls-1" x="65.73" y="524.67" width="1" height="1"/><rect class="cls-1" x="66.73" y="537.91" width="1" height="1"/><rect class="cls-1" x="59.43" y="537.91" width="1" height="1"/><rect class="cls-1" x="60.43" y="521.57" width="1" height="1"/><rect class="cls-1" x="16.29" y="110.74" width="2" height="6.88" transform="translate(-27.85 7.89) rotate(-14.4)"/><rect class="cls-1" x="17.11" y="112.71" width="15.07" height="2" transform="translate(-54.03 27.99) rotate(-30.32)"/><rect class="cls-1" x="30.15" y="101.36" width="2" height="8.55"/><rect class="cls-1" x="15.04" y="105.1" width="17.51" height="2" transform="translate(-53.73 29.85) rotate(-32.83)"/><rect class="cls-1" x="13.82" y="115.4" width="2" height="5.49"/><rect class="cls-1" x="7.3" y="119.89" width="7.51" height="2"/><rect class="cls-1" x="6.3" y="115.4" width="2" height="5.49"/><path class="cls-1" d="M7.42,111.4a6.3,6.3,0,0,0-1.12,4h2A4.34,4.34,0,0,1,9,112.65Z"/><path class="cls-1" d="M11,109.9a4.38,4.38,0,0,0-3.62,1.5L9,112.65A2.44,2.44,0,0,1,11,111.9Z"/><path class="cls-1" d="M14.7,111.4A4.46,4.46,0,0,0,11,109.9v2a2.45,2.45,0,0,1,2.09.75Z"/><path class="cls-1" d="M15.82,115.4a6.3,6.3,0,0,0-1.12-4l-1.57,1.25a4.33,4.33,0,0,1,.69,2.75Z"/><rect class="cls-1" x="0.45" y="114.32" width="2" height="14.17"/><rect class="cls-1" x="1.45" y="127.49" width="29.7" height="2"/><rect class="cls-1" x="30.15" y="120.89" width="2" height="7.6"/><rect class="cls-1" x="20.31" y="119.89" width="10.84" height="2"/><rect class="cls-1" x="19.31" y="114.99" width="2" height="5.9"/><rect class="cls-1" x="19.1" y="114.22" width="2" height="0.83" transform="translate(-53.62 24.58) rotate(-29.36)"/><path class="cls-1" d="M16.74,106.67c1.4,1.71,2.16,4.2,2.16,7.6h2c0-3.68-.83-6.68-2.61-8.86Z"/><path class="cls-1" d="M10.59,104.11a7.43,7.43,0,0,1,6.15,2.56l1.55-1.26a9.39,9.39,0,0,0-7.7-3.3Z"/><path class="cls-1" d="M4.74,106.72a7.18,7.18,0,0,1,5.85-2.61v-2a9.2,9.2,0,0,0-7.39,3.33Z"/><path class="cls-1" d="M2.45,114.32c0-3.39.8-5.87,2.28-7.59l-1.52-1.3c-1.88,2.19-2.76,5.2-2.76,8.89Z"/><polygon class="cls-1" points="18.14 117.51 17.18 117.76 17.51 119.04 18.65 118.38 18.14 117.51"/><polygon class="cls-1" points="31.15 109.91 31.66 110.77 32.15 110.48 32.15 109.91 31.15 109.91"/><polygon class="cls-1" points="31.15 101.36 32.15 101.36 32.15 99.52 30.61 100.52 31.15 101.36"/><polygon class="cls-1" points="16.43 110.85 15.89 110.01 15.29 110.4 15.47 111.1 16.43 110.85"/><rect class="cls-1" x="14.82" y="120.89" width="1" height="1"/><rect class="cls-1" x="6.3" y="120.89" width="1" height="1"/><path class="cls-1" d="M8.2,112l-.78-.62Z"/><path class="cls-1" d="M13.92,112l-.79.63Z"/><rect class="cls-1" x="0.45" y="128.49" width="1" height="1"/><rect class="cls-1" x="31.15" y="128.49" width="1" height="1"/><rect class="cls-1" x="31.15" y="119.89" width="1" height="1"/><rect class="cls-1" x="19.31" y="120.89" width="1" height="1"/><polygon class="cls-1" points="20.3 114.99 21.3 114.99 21.3 114.73 21.18 114.5 20.3 114.99"/><polygon class="cls-1" points="19.9 114.27 18.9 114.27 18.9 114.53 19.03 114.76 19.9 114.27"/><polygon class="cls-1" points="3.97 106.08 4.73 106.73 4.73 106.73 4.74 106.72 3.97 106.08"/><rect class="cls-1" x="30.15" y="134.07" width="2" height="23.71"/><rect class="cls-1" x="25.17" y="133.07" width="5.98" height="2"/><rect class="cls-1" x="24.17" y="134.07" width="2" height="15.97"/><rect class="cls-1" x="19.09" y="149.04" width="6.08" height="2"/><rect class="cls-1" x="18.09" y="137.8" width="2" height="12.24"/><rect class="cls-1" x="13.47" y="136.8" width="5.63" height="2"/><rect class="cls-1" x="12.47" y="137.8" width="2" height="12.24"/><rect class="cls-1" x="7.43" y="149.04" width="6.03" height="2"/><rect class="cls-1" x="6.43" y="134.65" width="2" height="15.39"/><rect class="cls-1" x="1.45" y="133.65" width="5.98" height="2"/><rect class="cls-1" x="0.45" y="134.65" width="2" height="23.13"/><rect class="cls-1" x="1.45" y="156.78" width="29.7" height="2"/><rect class="cls-1" x="31.15" y="133.07" width="1" height="1"/><rect class="cls-1" x="24.17" y="133.07" width="1" height="1"/><rect class="cls-1" x="25.17" y="150.04" width="1" height="1"/><rect class="cls-1" x="18.09" y="150.04" width="1" height="1"/><rect class="cls-1" x="19.09" y="136.8" width="1" height="1"/><rect class="cls-1" x="12.47" y="136.8" width="1" height="1"/><rect class="cls-1" x="13.47" y="150.04" width="1" height="1"/><rect class="cls-1" x="6.43" y="150.04" width="1" height="1"/><rect class="cls-1" x="7.43" y="133.65" width="1" height="1"/><rect class="cls-1" x="0.45" y="133.65" width="1" height="1"/><rect class="cls-1" x="0.45" y="157.78" width="1" height="1"/><rect class="cls-1" x="31.15" y="157.78" width="1" height="1"/><rect class="cls-1" x="30.15" y="189.15" width="2" height="8.69"/><rect class="cls-1" x="22.95" y="180.01" width="2" height="14.81" transform="translate(-163.87 166.86) rotate(-76.47)"/><rect class="cls-1" x="12.13" y="181.35" width="2" height="7.36" transform="translate(-171.3 165.15) rotate(-79.79)"/><rect class="cls-1" x="8.51" y="184.29" width="2" height="0.09"/><rect class="cls-1" x="9.44" y="182.61" width="7.37" height="2" transform="translate(-33.41 5.51) rotate(-10.56)"/><rect class="cls-1" x="16.54" y="180.18" width="14.82" height="2" transform="translate(-42.23 10.83) rotate(-13.7)"/><rect class="cls-1" x="30.15" y="171.01" width="2" height="8.42"/><rect class="cls-1" x="15.3" y="151.26" width="2" height="30.92" transform="translate(-148.38 136.03) rotate(-73.86)"/><rect class="cls-1" x="0.45" y="162.42" width="2" height="7.96"/><rect class="cls-1" x="12.15" y="160.9" width="2" height="23.92" transform="translate(-158.69 149.95) rotate(-78.06)"/><rect class="cls-1" x="1.14" y="177.06" width="24.03" height="2" transform="translate(-40.01 7.61) rotate(-13.1)"/><rect class="cls-1" x="0.45" y="180.78" width="2" height="7.02"/><rect class="cls-1" x="12.17" y="178.43" width="2" height="24.04" transform="translate(-175.49 161.23) rotate(-77.24)"/><rect class="cls-1" x="1.18" y="194.63" width="23.98" height="2" transform="translate(-40.82 7.14) rotate(-12.13)"/><rect class="cls-1" x="0.45" y="198.15" width="2" height="8.23"/><rect class="cls-1" x="0.85" y="201.11" width="30.91" height="2" transform="matrix(0.96, -0.28, 0.28, 0.96, -55.28, 12.4)"/><polygon class="cls-1" points="31.15 189.15 32.15 189.15 32.15 188.36 31.38 188.18 31.15 189.15"/><polygon class="cls-1" points="16.75 185.68 16.98 184.71 16.96 184.71 16.93 184.7 16.75 185.68"/><polygon class="cls-1" points="9.51 184.38 8.51 184.38 8.51 185.22 9.33 185.36 9.51 184.38"/><polygon class="cls-1" points="9.51 184.29 9.32 183.31 8.51 183.46 8.51 184.29 9.51 184.29"/><polygon class="cls-1" points="16.75 182.94 16.93 183.92 16.96 183.92 16.99 183.91 16.75 182.94"/><polygon class="cls-1" points="31.15 179.43 31.39 180.4 32.15 180.21 32.15 179.43 31.15 179.43"/><polygon class="cls-1" points="31.15 171.01 32.15 171.01 32.15 170.26 31.43 170.05 31.15 171.01"/><polygon class="cls-1" points="1.45 162.42 1.73 161.46 0.45 161.09 0.45 162.42 1.45 162.42"/><polygon class="cls-1" points="1.45 170.38 0.45 170.38 0.45 171.19 1.24 171.36 1.45 170.38"/><polygon class="cls-1" points="24.85 175.33 25.08 176.31 25.06 174.35 24.85 175.33"/><polygon class="cls-1" points="1.45 180.78 1.22 179.81 0.45 179.99 0.45 180.78 1.45 180.78"/><polygon class="cls-1" points="1.45 187.8 0.45 187.8 0.45 188.6 1.23 188.77 1.45 187.8"/><polygon class="cls-1" points="24.89 193.11 25.11 194.09 25.12 192.13 24.89 193.11"/><polygon class="cls-1" points="1.45 198.15 1.24 197.17 0.45 197.34 0.45 198.15 1.45 198.15"/><polygon class="cls-1" points="1.45 206.38 0.45 206.38 0.45 207.71 1.73 207.34 1.45 206.38"/><polygon class="cls-1" points="31.15 197.83 31.43 198.79 32.15 198.59 32.15 197.83 31.15 197.83"/><path class="cls-1" d="M7.3,219.46a7,7,0,0,0-1.22,4.19h2a5.06,5.06,0,0,1,.84-3Z"/><path class="cls-1" d="M10.87,216.86a7.34,7.34,0,0,0-3.58,2.62l1.64,1.14a5.28,5.28,0,0,1,2.63-1.88Z"/><path class="cls-1" d="M16.3,216a15.68,15.68,0,0,0-5.44.83l.71,1.87a13.61,13.61,0,0,1,4.73-.7Z"/><path class="cls-1" d="M21.73,216.86A15.78,15.78,0,0,0,16.3,216v2a13.72,13.72,0,0,1,4.74.71Z"/><path class="cls-1" d="M25.31,219.48a7.34,7.34,0,0,0-3.58-2.62L21,218.74a5.28,5.28,0,0,1,2.63,1.88Z"/><path class="cls-1" d="M26.53,223.65a7,7,0,0,0-1.23-4.19l-1.62,1.17a5.06,5.06,0,0,1,.85,3Z"/><path class="cls-1" d="M25.31,227.87a7.22,7.22,0,0,0,1.22-4.22h-2a5.24,5.24,0,0,1-.86,3.07Z"/><path class="cls-1" d="M21.73,230.48a7.27,7.27,0,0,0,3.58-2.61l-1.64-1.15A5.35,5.35,0,0,1,21,228.61Z"/><path class="cls-1" d="M16.3,231.31a15.78,15.78,0,0,0,5.43-.83L21,228.61a14,14,0,0,1-4.74.7Z"/><path class="cls-1" d="M10.86,230.48a15.45,15.45,0,0,0,5.44.83v-2a13.61,13.61,0,0,1-4.73-.7Z"/><path class="cls-1" d="M7.29,227.87a7.27,7.27,0,0,0,3.58,2.61l.69-1.87a5.35,5.35,0,0,1-2.63-1.89Z"/><path class="cls-1" d="M6.08,223.65a7.22,7.22,0,0,0,1.21,4.22l1.64-1.15a5.24,5.24,0,0,1-.85-3.07Z"/><path class="cls-1" d="M3.72,230.94A14.64,14.64,0,0,1,2,223.65H0a16.59,16.59,0,0,0,2,8.27Z"/><path class="cls-1" d="M8.52,235.58A11.07,11.07,0,0,1,3.72,231l-1.75,1a13.14,13.14,0,0,0,5.64,5.45Z"/><path class="cls-1" d="M16.3,237.23a16.77,16.77,0,0,1-7.78-1.65l-.91,1.78a18.81,18.81,0,0,0,8.69,1.87Z"/><path class="cls-1" d="M24.08,235.58a16.77,16.77,0,0,1-7.78,1.65v2A18.81,18.81,0,0,0,25,237.36Z"/><path class="cls-1" d="M28.93,230.94a11.32,11.32,0,0,1-4.85,4.64l.91,1.78a13.32,13.32,0,0,0,5.68-5.44Z"/><path class="cls-1" d="M30.6,223.65a14.89,14.89,0,0,1-1.68,7.3l1.76,1a17,17,0,0,0,1.92-8.26Z"/><path class="cls-1" d="M28.93,216.39a14.76,14.76,0,0,1,1.67,7.26h2a16.69,16.69,0,0,0-1.93-8.23Z"/><path class="cls-1" d="M24.08,211.76a11.32,11.32,0,0,1,4.85,4.64l1.74-1A13.38,13.38,0,0,0,25,210Z"/><path class="cls-1" d="M16.3,210.11a16.89,16.89,0,0,1,7.78,1.65L25,210a18.81,18.81,0,0,0-8.69-1.87Z"/><path class="cls-1" d="M8.52,211.76a16.89,16.89,0,0,1,7.78-1.65v-2A18.81,18.81,0,0,0,7.61,210Z"/><path class="cls-1" d="M3.72,216.39a11.07,11.07,0,0,1,4.8-4.63L7.61,210A13.14,13.14,0,0,0,2,215.43Z"/><path class="cls-1" d="M2,223.65a14.51,14.51,0,0,1,1.71-7.25l-1.73-1a16.32,16.32,0,0,0-2,8.24Z"/><polygon class="cls-1" points="8.11 220.05 8.92 220.63 8.93 220.63 8.93 220.62 8.11 220.05"/><polygon class="cls-1" points="11.21 217.8 11.56 218.74 11.57 218.73 11.21 217.8"/><path class="cls-1" d="M21.39,217.8l-.35.94Z"/><polygon class="cls-1" points="24.49 220.05 23.67 220.62 23.67 220.63 23.68 220.63 24.49 220.05"/><path class="cls-1" d="M21.39,229.54l.34.94Z"/><polygon class="cls-1" points="11.21 229.54 11.57 228.61 11.56 228.6 11.21 229.54"/><polygon class="cls-1" points="2.85 231.43 3.72 230.95 3.72 230.94 2.85 231.43"/><path class="cls-1" d="M8.07,236.47l.45-.89Z"/><path class="cls-1" d="M24.54,236.47l-.46-.89Z"/><polygon class="cls-1" points="29.8 231.43 30.67 231.92 30.68 231.91 29.8 231.43"/><polygon class="cls-1" points="29.8 215.91 30.67 215.42 30.67 215.42 29.8 215.91"/><path class="cls-1" d="M24.54,210.87,25,210Z"/><path class="cls-1" d="M8.07,210.87,7.61,210Z"/><polygon class="cls-1" points="2.85 215.91 3.71 216.4 3.72 216.4 3.72 216.39 2.85 215.91"/><rect class="cls-1" x="14.45" y="255.51" width="2" height="4.68"/><rect class="cls-1" x="7.26" y="259.19" width="8.19" height="2"/><rect class="cls-1" x="6.26" y="255.51" width="2" height="4.68"/><path class="cls-1" d="M7.53,251.21a6.48,6.48,0,0,0-1.27,4.3h2a4.59,4.59,0,0,1,.79-3Z"/><path class="cls-1" d="M11.35,249.6a4.68,4.68,0,0,0-3.85,1.64l1.58,1.24a2.66,2.66,0,0,1,2.27-.88Z"/><path class="cls-1" d="M15.23,251.23a4.79,4.79,0,0,0-3.88-1.63v2a2.79,2.79,0,0,1,2.33.9Z"/><path class="cls-1" d="M16.45,255.51a6.63,6.63,0,0,0-1.22-4.28l-1.55,1.26a4.78,4.78,0,0,1,.77,3Z"/><rect class="cls-1" x="0.45" y="254.29" width="2" height="13.64"/><rect class="cls-1" x="1.45" y="266.93" width="29.7" height="2"/><rect class="cls-1" x="30.15" y="260.19" width="2" height="7.74"/><rect class="cls-1" x="21.25" y="259.19" width="9.9" height="2"/><rect class="cls-1" x="20.25" y="254.29" width="2" height="5.9"/><path class="cls-1" d="M19.17,248.5a13.79,13.79,0,0,1,1.08,5.79h2A15.93,15.93,0,0,0,21,247.67Z"/><path class="cls-1" d="M16.18,245a7.61,7.61,0,0,1,3,3.48l1.82-.83a9.74,9.74,0,0,0-3.76-4.36Z"/><path class="cls-1" d="M11.35,243.82a9.09,9.09,0,0,1,4.83,1.2l1.05-1.71a11.13,11.13,0,0,0-5.88-1.49Z"/><path class="cls-1" d="M6.52,245a9.09,9.09,0,0,1,4.83-1.2v-2a11.13,11.13,0,0,0-5.88,1.49Z"/><path class="cls-1" d="M3.53,248.5a7.61,7.61,0,0,1,3-3.48l-1-1.71a9.74,9.74,0,0,0-3.76,4.36Z"/><path class="cls-1" d="M2.45,254.29a13.79,13.79,0,0,1,1.08-5.79l-1.82-.83a15.93,15.93,0,0,0-1.26,6.62Z"/><rect class="cls-1" x="15.45" y="260.19" width="1" height="1"/><rect class="cls-1" x="6.26" y="260.19" width="1" height="1"/><polygon class="cls-1" points="8.29 251.86 9.05 252.51 9.06 252.5 9.08 252.48 8.29 251.86"/><polygon class="cls-1" points="14.46 251.86 15.23 251.23 15.23 251.23 14.46 251.86"/><rect class="cls-1" x="0.45" y="267.93" width="1" height="1"/><rect class="cls-1" x="31.15" y="267.93" width="1" height="1"/><rect class="cls-1" x="31.15" y="259.19" width="1" height="1"/><rect class="cls-1" x="20.25" y="260.19" width="1" height="1"/><path class="cls-1" d="M20.08,248.08l-.91.42Z"/><path class="cls-1" d="M16.71,244.17l-.53.85Z"/><path class="cls-1" d="M6,244.17l.53.85Z"/><path class="cls-1" d="M2.62,248.08l.91.42Z"/><rect class="cls-1" x="0.45" y="275.4" width="2" height="10.58"/><rect class="cls-1" x="8.03" y="280.37" width="2" height="15.86" transform="translate(-269.31 212.67) rotate(-73)"/><rect class="cls-1" x="18.74" y="288.23" width="2" height="6.48" transform="translate(-266.62 233.65) rotate(-74.71)"/><rect class="cls-1" x="21.87" y="292.32" width="2" height="0.09"/><rect class="cls-1" x="16.46" y="292.25" width="6.52" height="2" transform="translate(-74.28 14.77) rotate(-14.8)"/><rect class="cls-1" x="1.1" y="295.42" width="15.83" height="2" transform="translate(-87.24 15.92) rotate(-17.2)"/><rect class="cls-1" x="0.45" y="298.76" width="2" height="11.02"/><rect class="cls-1" x="1.45" y="308.78" width="29.7" height="2"/><rect class="cls-1" x="30.15" y="302.9" width="2" height="6.88"/><rect class="cls-1" x="17.52" y="301.9" width="13.64" height="2"/><rect class="cls-1" x="8.38" y="302.01" width="9.14" height="2" transform="translate(-7.46 0.41) rotate(-1.41)"/><rect class="cls-1" x="7.38" y="303.03" width="2" height="0.09"/><rect class="cls-1" x="7.8" y="298.37" width="23.92" height="2" transform="translate(-90.84 20.48) rotate(-17.86)"/><rect class="cls-1" x="30.15" y="289.44" width="2" height="6.26"/><rect class="cls-1" x="18.77" y="273.82" width="2" height="23.92" transform="matrix(0.31, -0.95, 0.95, 0.31, -258.31, 216.96)"/><rect class="cls-1" x="7.38" y="282.02" width="2" height="0.09"/><rect class="cls-1" x="11.95" y="277.56" width="2" height="9.14" transform="translate(-269.42 288.13) rotate(-88.59)"/><rect class="cls-1" x="17.52" y="281.24" width="13.64" height="2"/><rect class="cls-1" x="30.15" y="275.4" width="2" height="6.84"/><rect class="cls-1" x="1.45" y="274.4" width="29.7" height="2"/><polygon class="cls-1" points="1.45 285.98 0.45 285.98 0.45 286.72 1.16 286.94 1.45 285.98"/><polygon class="cls-1" points="16.61 290.61 16.32 291.57 16.34 291.57 16.35 291.58 16.61 290.61"/><polygon class="cls-1" points="22.87 292.32 23.87 292.32 23.87 291.56 23.13 291.36 22.87 292.32"/><polygon class="cls-1" points="22.87 292.41 23.13 293.38 23.87 293.18 23.87 292.41 22.87 292.41"/><polygon class="cls-1" points="16.57 294.08 16.32 293.11 16.29 293.12 16.27 293.12 16.57 294.08"/><polygon class="cls-1" points="1.45 298.76 1.15 297.8 0.45 298.02 0.45 298.76 1.45 298.76"/><rect class="cls-1" x="0.45" y="309.78" width="1" height="1"/><rect class="cls-1" x="31.15" y="309.78" width="1" height="1"/><rect class="cls-1" x="31.15" y="301.9" width="1" height="1"/><polygon class="cls-1" points="17.52 302.9 17.52 301.9 17.5 301.9 17.49 301.9 17.52 302.9"/><polygon class="cls-1" points="8.38 303.12 7.38 303.12 7.38 304.15 8.4 304.12 8.38 303.12"/><polygon class="cls-1" points="8.38 303.03 8.07 302.08 7.38 302.31 7.38 303.03 8.38 303.03"/><polygon class="cls-1" points="31.15 295.7 31.46 296.65 32.15 296.43 32.15 295.7 31.15 295.7"/><polygon class="cls-1" points="31.15 289.44 32.15 289.44 32.15 288.71 31.46 288.49 31.15 289.44"/><polygon class="cls-1" points="8.38 282.11 7.38 282.11 7.38 282.84 8.07 283.06 8.38 282.11"/><polygon class="cls-1" points="8.38 282.02 8.4 281.02 7.38 280.99 7.38 282.02 8.38 282.02"/><polygon class="cls-1" points="17.52 282.24 17.49 283.24 17.5 283.24 17.52 283.24 17.52 282.24"/><rect class="cls-1" x="31.15" y="282.24" width="1" height="1"/><rect class="cls-1" x="31.15" y="274.4" width="1" height="1"/><rect class="cls-1" x="0.45" y="274.4" width="1" height="1"/><rect class="cls-1" x="30.15" y="315.36" width="2" height="23.71"/><rect class="cls-1" x="25.17" y="314.36" width="5.98" height="2"/><rect class="cls-1" x="24.17" y="315.36" width="2" height="15.97"/><rect class="cls-1" x="19.09" y="330.33" width="6.08" height="2"/><rect class="cls-1" x="18.09" y="319.09" width="2" height="12.24"/><rect class="cls-1" x="13.47" y="318.09" width="5.63" height="2"/><rect class="cls-1" x="12.47" y="319.09" width="2" height="12.24"/><rect class="cls-1" x="7.43" y="330.33" width="6.03" height="2"/><rect class="cls-1" x="6.43" y="315.94" width="2" height="15.39"/><rect class="cls-1" x="1.45" y="314.94" width="5.98" height="2"/><rect class="cls-1" x="0.45" y="315.94" width="2" height="23.13"/><rect class="cls-1" x="1.45" y="338.07" width="29.7" height="2"/><rect class="cls-1" x="31.15" y="314.36" width="1" height="1"/><rect class="cls-1" x="24.17" y="314.36" width="1" height="1"/><rect class="cls-1" x="25.17" y="331.33" width="1" height="1"/><rect class="cls-1" x="18.09" y="331.33" width="1" height="1"/><rect class="cls-1" x="19.09" y="318.09" width="1" height="1"/><rect class="cls-1" x="12.47" y="318.09" width="1" height="1"/><rect class="cls-1" x="13.47" y="331.33" width="1" height="1"/><rect class="cls-1" x="6.43" y="331.33" width="1" height="1"/><rect class="cls-1" x="7.43" y="314.94" width="1" height="1"/><rect class="cls-1" x="0.45" y="314.94" width="1" height="1"/><rect class="cls-1" x="0.45" y="339.07" width="1" height="1"/><rect class="cls-1" x="31.15" y="339.07" width="1" height="1"/><path class="cls-1" d="M7.3,369.42a7,7,0,0,0-1.22,4.19h2a5.06,5.06,0,0,1,.84-3Z"/><path class="cls-1" d="M10.87,366.82a7.22,7.22,0,0,0-3.58,2.62l1.64,1.14a5.28,5.28,0,0,1,2.63-1.88Z"/><path class="cls-1" d="M16.3,366a15.68,15.68,0,0,0-5.44.83l.71,1.87a13.61,13.61,0,0,1,4.73-.7Z"/><path class="cls-1" d="M21.73,366.82A15.78,15.78,0,0,0,16.3,366v2a13.72,13.72,0,0,1,4.74.71Z"/><path class="cls-1" d="M25.31,369.44a7.22,7.22,0,0,0-3.58-2.62L21,368.7a5.28,5.28,0,0,1,2.63,1.88Z"/><path class="cls-1" d="M26.53,373.61a7,7,0,0,0-1.23-4.19l-1.62,1.17a5.06,5.06,0,0,1,.85,3Z"/><path class="cls-1" d="M25.31,377.82a7.17,7.17,0,0,0,1.22-4.21h-2a5.24,5.24,0,0,1-.86,3.07Z"/><path class="cls-1" d="M21.73,380.44a7.22,7.22,0,0,0,3.58-2.62l-1.64-1.14A5.28,5.28,0,0,1,21,378.56Z"/><path class="cls-1" d="M16.3,381.27a15.78,15.78,0,0,0,5.43-.83L21,378.56a13.72,13.72,0,0,1-4.74.71Z"/><path class="cls-1" d="M10.86,380.44a15.68,15.68,0,0,0,5.44.83v-2a13.61,13.61,0,0,1-4.73-.7Z"/><path class="cls-1" d="M7.29,377.82a7.22,7.22,0,0,0,3.58,2.62l.69-1.88a5.28,5.28,0,0,1-2.63-1.88Z"/><path class="cls-1" d="M6.08,373.61a7.17,7.17,0,0,0,1.21,4.21l1.64-1.14a5.24,5.24,0,0,1-.85-3.07Z"/><path class="cls-1" d="M3.72,380.9A14.64,14.64,0,0,1,2,373.61H0a16.59,16.59,0,0,0,2,8.27Z"/><path class="cls-1" d="M8.52,385.54a11.07,11.07,0,0,1-4.8-4.63l-1.75,1a13.14,13.14,0,0,0,5.64,5.45Z"/><path class="cls-1" d="M16.3,387.19a16.89,16.89,0,0,1-7.78-1.65l-.91,1.78a18.81,18.81,0,0,0,8.69,1.87Z"/><path class="cls-1" d="M24.08,385.54a16.89,16.89,0,0,1-7.78,1.65v2A18.81,18.81,0,0,0,25,387.32Z"/><path class="cls-1" d="M28.93,380.9a11.32,11.32,0,0,1-4.85,4.64l.91,1.78a13.38,13.38,0,0,0,5.68-5.44Z"/><path class="cls-1" d="M30.6,373.61a14.89,14.89,0,0,1-1.68,7.3l1.76,1a17,17,0,0,0,1.92-8.26Z"/><path class="cls-1" d="M28.93,366.35a14.76,14.76,0,0,1,1.67,7.26h2a16.69,16.69,0,0,0-1.93-8.23Z"/><path class="cls-1" d="M24.08,361.72a11.32,11.32,0,0,1,4.85,4.64l1.74-1A13.38,13.38,0,0,0,25,359.94Z"/><path class="cls-1" d="M16.3,360.07a16.89,16.89,0,0,1,7.78,1.65l.91-1.78a18.81,18.81,0,0,0-8.69-1.87Z"/><path class="cls-1" d="M8.52,361.72a16.89,16.89,0,0,1,7.78-1.65v-2a18.81,18.81,0,0,0-8.69,1.87Z"/><path class="cls-1" d="M3.72,366.35a11.07,11.07,0,0,1,4.8-4.63l-.91-1.78A13.14,13.14,0,0,0,2,365.39Z"/><path class="cls-1" d="M2,373.61a14.48,14.48,0,0,1,1.71-7.25l-1.73-1a16.32,16.32,0,0,0-2,8.24Z"/><polygon class="cls-1" points="8.11 370.01 8.92 370.59 8.93 370.58 8.93 370.58 8.11 370.01"/><polygon class="cls-1" points="11.21 367.76 11.56 368.69 11.57 368.69 11.21 367.76"/><path class="cls-1" d="M21.39,367.76l-.35.94Z"/><polygon class="cls-1" points="24.49 370.01 23.67 370.58 23.67 370.58 23.68 370.59 24.49 370.01"/><path class="cls-1" d="M21.39,379.5l.34.94Z"/><polygon class="cls-1" points="11.21 379.5 11.57 378.57 11.56 378.56 11.21 379.5"/><polygon class="cls-1" points="2.85 381.39 3.72 380.91 3.72 380.9 2.85 381.39"/><path class="cls-1" d="M8.07,386.43l.45-.89Z"/><path class="cls-1" d="M24.54,386.43l-.46-.89Z"/><polygon class="cls-1" points="29.8 381.39 30.67 381.88 30.68 381.87 29.8 381.39"/><polygon class="cls-1" points="29.8 365.87 30.67 365.38 30.67 365.38 29.8 365.87"/><path class="cls-1" d="M24.54,360.83l.45-.89Z"/><path class="cls-1" d="M8.07,360.83l-.46-.89Z"/><polygon class="cls-1" points="2.85 365.87 3.71 366.36 3.72 366.36 3.72 366.35 2.85 365.87"/><rect class="cls-1" x="0.45" y="391.02" width="2" height="27.13"/><rect class="cls-1" x="1.45" y="417.16" width="5.98" height="2"/><rect class="cls-1" x="6.43" y="408.44" width="2" height="9.72"/><rect class="cls-1" x="7.43" y="407.44" width="23.72" height="2"/><rect class="cls-1" x="30.15" y="400.7" width="2" height="7.74"/><rect class="cls-1" x="7.43" y="399.7" width="23.72" height="2"/><rect class="cls-1" x="6.43" y="391.02" width="2" height="9.67"/><rect class="cls-1" x="1.45" y="390.02" width="5.98" height="2"/><rect class="cls-1" x="0.45" y="418.16" width="1" height="1"/><rect class="cls-1" x="7.43" y="418.16" width="1" height="1"/><rect class="cls-1" x="6.43" y="407.44" width="1" height="1"/><rect class="cls-1" x="31.15" y="408.44" width="1" height="1"/><rect class="cls-1" x="31.15" y="399.7" width="1" height="1"/><rect class="cls-1" x="6.43" y="400.7" width="1" height="1"/><rect class="cls-1" x="7.43" y="390.02" width="1" height="1"/><rect class="cls-1" x="0.45" y="390.02" width="1" height="1"/><rect class="cls-1" x="23.45" y="439.16" width="2" height="16.52"/><rect class="cls-1" x="19.18" y="438.16" width="5.26" height="2"/><rect class="cls-1" x="18.18" y="439.16" width="2" height="16.52"/><rect class="cls-1" x="19.18" y="454.68" width="5.26" height="2"/><rect class="cls-1" x="30.15" y="454.69" width="2" height="7.79"/><rect class="cls-1" x="20.59" y="441.71" width="2" height="20.03" transform="translate(-416.21 338.35) rotate(-72.75)"/><rect class="cls-1" x="8.71" y="445.75" width="2" height="4.79" transform="translate(-426.25 343.89) rotate(-75.31)"/><rect class="cls-1" x="6.39" y="447.44" width="2" height="0.09"/><rect class="cls-1" x="7.3" y="445.79" width="4.86" height="2" transform="translate(-119.65 19.03) rotate(-15.58)"/><rect class="cls-1" x="11.64" y="442.24" width="19.94" height="2" transform="translate(-128.08 25.48) rotate(-16.92)"/><rect class="cls-1" x="30.15" y="432.37" width="2" height="7.97"/><rect class="cls-1" x="0.57" y="436.57" width="31.47" height="2" transform="translate(-143.64 29.95) rotate(-19.29)"/><rect class="cls-1" x="0.45" y="442.76" width="2" height="9.27"/><rect class="cls-1" x="15.3" y="441.51" width="2" height="31.48" transform="translate(-420.48 321) rotate(-70.63)"/><rect class="cls-1" x="24.45" y="438.16" width="1" height="1"/><rect class="cls-1" x="18.18" y="438.16" width="1" height="1"/><rect class="cls-1" x="18.18" y="455.68" width="1" height="1"/><rect class="cls-1" x="24.45" y="455.68" width="1" height="1"/><polygon class="cls-1" points="31.15 454.69 32.15 454.69 32.15 453.95 31.45 453.73 31.15 454.69"/><polygon class="cls-1" points="12.03 448.75 12.32 447.79 12.3 447.79 12.28 447.78 12.03 448.75"/><polygon class="cls-1" points="7.39 447.53 6.39 447.53 6.39 448.31 7.14 448.5 7.39 447.53"/><polygon class="cls-1" points="7.39 447.44 7.12 446.48 6.39 446.68 6.39 447.44 7.39 447.44"/><polygon class="cls-1" points="12.07 446.14 12.34 447.1 12.35 447.1 12.36 447.1 12.07 446.14"/><polygon class="cls-1" points="31.15 440.33 31.44 441.29 32.15 441.07 32.15 440.33 31.15 440.33"/><polygon class="cls-1" points="31.15 432.37 32.15 432.37 32.15 430.96 30.82 431.43 31.15 432.37"/><polygon class="cls-1" points="1.45 442.76 1.12 441.82 0.45 442.05 0.45 442.76 1.45 442.76"/><polygon class="cls-1" points="1.45 452.03 0.45 452.03 0.45 452.74 1.12 452.98 1.45 452.03"/><polygon class="cls-1" points="31.15 462.47 30.82 463.42 32.15 463.88 32.15 462.47 31.15 462.47"/><rect class="cls-1" x="0.45" y="460.96" width="2" height="27.13"/><rect class="cls-1" x="1.45" y="487.09" width="5.98" height="2"/><rect class="cls-1" x="6.43" y="478.37" width="2" height="9.72"/><rect class="cls-1" x="7.43" y="477.37" width="23.72" height="2"/><rect class="cls-1" x="30.15" y="470.63" width="2" height="7.74"/><rect class="cls-1" x="7.43" y="469.63" width="23.72" height="2"/><rect class="cls-1" x="6.43" y="460.96" width="2" height="9.68"/><rect class="cls-1" x="1.45" y="459.96" width="5.98" height="2"/><rect class="cls-1" x="0.45" y="488.09" width="1" height="1"/><rect class="cls-1" x="7.43" y="488.09" width="1" height="1"/><rect class="cls-1" x="6.43" y="477.37" width="1" height="1"/><rect class="cls-1" x="31.15" y="478.37" width="1" height="1"/><rect class="cls-1" x="31.15" y="469.63" width="1" height="1"/><rect class="cls-1" x="6.43" y="470.63" width="1" height="1"/><rect class="cls-1" x="7.43" y="459.96" width="1" height="1"/><rect class="cls-1" x="0.45" y="459.96" width="1" height="1"/><rect class="cls-1" x="23.45" y="493.35" width="2" height="16.51"/><rect class="cls-1" x="19.18" y="492.35" width="5.26" height="2"/><rect class="cls-1" x="18.18" y="493.35" width="2" height="16.51"/><rect class="cls-1" x="19.18" y="508.86" width="5.26" height="2"/><rect class="cls-1" x="30.15" y="508.87" width="2" height="7.79"/><rect class="cls-1" x="20.59" y="495.89" width="2" height="20.03" transform="translate(-467.95 376.46) rotate(-72.75)"/><rect class="cls-1" x="8.71" y="499.93" width="2" height="4.79" transform="translate(-478.66 384.34) rotate(-75.31)"/><rect class="cls-1" x="6.39" y="501.63" width="2" height="0.09"/><rect class="cls-1" x="7.3" y="499.97" width="4.86" height="2" transform="matrix(0.96, -0.27, 0.27, 0.96, -134.2, 21.02)"/><rect class="cls-1" x="11.64" y="496.42" width="19.94" height="2" transform="translate(-143.85 27.83) rotate(-16.92)"/><rect class="cls-1" x="30.15" y="486.55" width="2" height="7.97"/><rect class="cls-1" x="0.57" y="490.75" width="31.47" height="2" transform="translate(-161.53 32.99) rotate(-19.29)"/><rect class="cls-1" x="0.45" y="496.95" width="2" height="9.27"/><rect class="cls-1" x="15.3" y="495.7" width="2" height="31.48" transform="translate(-471.6 357.21) rotate(-70.63)"/><rect class="cls-1" x="24.45" y="492.35" width="1" height="1"/><rect class="cls-1" x="18.18" y="492.35" width="1" height="1"/><rect class="cls-1" x="18.18" y="509.86" width="1" height="1"/><rect class="cls-1" x="24.45" y="509.86" width="1" height="1"/><polygon class="cls-1" points="31.15 508.87 32.15 508.87 32.15 508.13 31.45 507.92 31.15 508.87"/><polygon class="cls-1" points="12.03 502.93 12.32 501.98 12.3 501.97 12.28 501.96 12.03 502.93"/><polygon class="cls-1" points="7.39 501.72 6.39 501.72 6.39 502.49 7.14 502.68 7.39 501.72"/><polygon class="cls-1" points="7.39 501.63 7.12 500.66 6.39 500.87 6.39 501.63 7.39 501.63"/><polygon class="cls-1" points="12.07 500.32 12.34 501.29 12.35 501.28 12.36 501.28 12.07 500.32"/><polygon class="cls-1" points="31.15 494.52 31.44 495.47 32.15 495.26 32.15 494.52 31.15 494.52"/><polygon class="cls-1" points="31.15 486.55 32.15 486.55 32.15 485.14 30.82 485.61 31.15 486.55"/><polygon class="cls-1" points="1.45 496.95 1.12 496 0.45 496.24 0.45 496.95 1.45 496.95"/><polygon class="cls-1" points="1.45 506.22 0.45 506.22 0.45 506.93 1.12 507.16 1.45 506.22"/><polygon class="cls-1" points="31.15 516.66 30.82 517.6 32.15 518.07 32.15 516.66 31.15 516.66"/><rect class="cls-1" x="24.3" y="533.82" width="2" height="4.1"/><rect class="cls-1" x="7.3" y="536.91" width="18" height="2"/><rect class="cls-1" x="6.3" y="533.82" width="2" height="4.1"/><path class="cls-1" d="M9,527.53c-1.86,1.38-2.7,3.56-2.7,6.29h2c0-2.32.69-3.8,1.89-4.69Z"/><path class="cls-1" d="M16.3,525.57c-3.08,0-5.57.6-7.32,2l1.23,1.58c1.25-1,3.23-1.55,6.09-1.55Z"/><path class="cls-1" d="M23.66,527.53c-1.78-1.36-4.28-2-7.36-2v2c2.86,0,4.86.57,6.14,1.55Z"/><path class="cls-1" d="M26.3,533.82c0-2.72-.82-4.9-2.64-6.29l-1.22,1.59c1.18.89,1.86,2.38,1.86,4.7Z"/><rect class="cls-1" x="0.45" y="533.05" width="2" height="12.6"/><rect class="cls-1" x="1.45" y="544.65" width="29.7" height="2"/><rect class="cls-1" x="30.15" y="533.05" width="2" height="12.6"/><path class="cls-1" d="M26.59,523.11c2.33,2.22,3.56,5.48,3.56,9.94h2c0-4.83-1.35-8.68-4.18-11.39Z"/><path class="cls-1" d="M16.3,519.65c4.57,0,8,1.2,10.29,3.46L28,521.67c-2.82-2.72-6.76-4-11.67-4Z"/><path class="cls-1" d="M6,523.11c2.34-2.26,5.72-3.46,10.29-3.46v-2c-4.91,0-8.85,1.3-11.67,4Z"/><path class="cls-1" d="M2.45,533.05c0-4.46,1.23-7.72,3.56-9.94l-1.38-1.45C1.8,524.37.45,528.22.45,533.05Z"/><rect class="cls-1" x="25.3" y="537.91" width="1" height="1"/><rect class="cls-1" x="6.3" y="537.91" width="1" height="1"/><polygon class="cls-1" points="9.6 528.33 10.19 529.13 10.2 529.12 10.21 529.12 9.6 528.33"/><polygon class="cls-1" points="23.05 528.33 22.44 529.12 22.45 529.12 23.05 528.33"/><rect class="cls-1" x="0.45" y="545.65" width="1" height="1"/><rect class="cls-1" x="31.15" y="545.65" width="1" height="1"/><polygon class="cls-1" points="27.28 522.39 26.59 523.11 26.59 523.11 27.28 522.39"/><polygon class="cls-1" points="5.32 522.39 6.01 523.11 6.01 523.11 5.32 522.39"/><path class="cls-1" d="M16.43,110.85l14.72-9.49v8.55l-13,7.6Zm-1.61,4.55a5.35,5.35,0,0,0-.9-3.38A3.47,3.47,0,0,0,11,110.9,3.41,3.41,0,0,0,8.2,112a5.35,5.35,0,0,0-.9,3.38v5.49h7.52ZM1.45,114.32q0-5.31,2.52-8.24a8.18,8.18,0,0,1,6.62-3A8.43,8.43,0,0,1,17.52,106q2.39,2.92,2.38,8.23l.41.72v5.9H31.15v7.6H1.45Zm29.7,43.46H1.45V134.65h6V150h6V137.8h5.62V150h6.08v-16h6Zm0,40.05-29.7,8.55v-8.23l23.45-5L1.45,187.8v-7l23.4-5.45-23.4-5v-8L31.15,171v8.42l-14.4,3.51-7.24,1.35v.09l7.24,1.3,14.4,3.47ZM7.08,223.65a6.2,6.2,0,0,0,1,3.64,6.32,6.32,0,0,0,3.11,2.25,14.48,14.48,0,0,0,5.08.77,14.78,14.78,0,0,0,5.09-.77,6.29,6.29,0,0,0,3.1-2.25,6.2,6.2,0,0,0,1-3.64,6,6,0,0,0-1-3.6,6.29,6.29,0,0,0-3.1-2.25A14.78,14.78,0,0,0,16.3,217a14.48,14.48,0,0,0-5.08.77,6.32,6.32,0,0,0-3.11,2.25A6,6,0,0,0,7.08,223.65Zm-6.08,0a15.39,15.39,0,0,1,1.85-7.74,12.1,12.1,0,0,1,5.22-5,17.83,17.83,0,0,1,8.23-1.76,17.87,17.87,0,0,1,8.24,1.76,12.37,12.37,0,0,1,5.26,5,15.7,15.7,0,0,1,1.8,7.74,15.94,15.94,0,0,1-1.8,7.78,12.37,12.37,0,0,1-5.26,5,17.87,17.87,0,0,1-8.24,1.76,17.83,17.83,0,0,1-8.23-1.76,12.1,12.1,0,0,1-5.22-5A15.63,15.63,0,0,1,1,223.65Zm14.45,31.86a5.7,5.7,0,0,0-1-3.65,3.79,3.79,0,0,0-3.11-1.26,3.65,3.65,0,0,0-3.06,1.26,5.52,5.52,0,0,0-1,3.65v4.68h8.19Zm-14-1.22a14.9,14.9,0,0,1,1.17-6.21A8.7,8.7,0,0,1,6,244.17a10.11,10.11,0,0,1,5.36-1.35,10.09,10.09,0,0,1,5.36,1.35,8.64,8.64,0,0,1,3.37,3.91,14.9,14.9,0,0,1,1.17,6.21v5.9h9.9v7.74H1.45Zm0,21.11h29.7v6.84H17.52L8.38,282v.09l22.77,7.33v6.26L8.38,303v.09l9.14-.22H31.15v6.88H1.45v-11l15.12-4.68,6.3-1.67v-.09l-6.25-1.71L1.45,286Zm29.7,63.67H1.45V315.94h6v15.39h6V319.09h5.62v12.24h6.08v-16h6ZM7.08,373.61a6.2,6.2,0,0,0,1,3.64,6.32,6.32,0,0,0,3.11,2.25,14.48,14.48,0,0,0,5.08.77,14.78,14.78,0,0,0,5.09-.77,6.29,6.29,0,0,0,3.1-2.25,6.2,6.2,0,0,0,1-3.64,6,6,0,0,0-1-3.6,6.29,6.29,0,0,0-3.1-2.25A14.78,14.78,0,0,0,16.3,367a14.48,14.48,0,0,0-5.08.77A6.32,6.32,0,0,0,8.11,370,6,6,0,0,0,7.08,373.61Zm-6.08,0a15.39,15.39,0,0,1,1.85-7.74,12.1,12.1,0,0,1,5.22-5,17.83,17.83,0,0,1,8.23-1.76,17.87,17.87,0,0,1,8.24,1.76,12.37,12.37,0,0,1,5.26,5,15.7,15.7,0,0,1,1.8,7.74,15.94,15.94,0,0,1-1.8,7.78,12.37,12.37,0,0,1-5.26,5,17.87,17.87,0,0,1-8.24,1.76,17.83,17.83,0,0,1-8.23-1.76,12.1,12.1,0,0,1-5.22-5A15.63,15.63,0,0,1,1,373.61ZM1.45,391h6v9.68H31.15v7.74H7.43v9.72h-6Zm23,64.66H19.18V439.16h5.27Zm6.7,6.79L1.45,452v-9.27l29.7-10.39v8l-19.08,5.81-4.68,1.3v.09L12,448.75l19.12,5.94ZM1.45,461h6v9.67H31.15v7.74H7.43v9.72h-6Zm23,48.9H19.18V493.35h5.27Zm6.7,6.8L1.45,506.22V497l29.7-10.4v8l-19.08,5.8-4.68,1.31v.09L12,502.93l19.12,5.94ZM25.3,533.82q0-3.78-2.25-5.49t-6.75-1.76q-4.46,0-6.7,1.76t-2.3,5.49v4.09h18Zm-23.85-.77q0-7,3.87-10.66t11-3.74q7.11,0,11,3.74t3.87,10.66v12.6H1.45Z"/><path class="cls-1" d="M73.26,371.88,59.39,376v1.62l13.87,4.18Zm-8.53,4.73,6.45-2v4.06Z"/><polygon class="cls-1" points="78.44 381.21 78.44 372.48 84.44 370.63 83.86 368.71 76.14 371.02 76.14 382.69 85.15 385.4 85.15 383.29 78.44 381.21"/></g></g></svg>