<svg xmlns="http://www.w3.org/2000/svg" viewBox="0 0 110.88 193.04"><defs><style>.cls-1{fill:#fff;}</style></defs><g id="Layer_2" data-name="Layer 2"><g id="Layer_1-2" data-name="Layer 1"><rect class="cls-1" x="66.64" y="25.56" width="2" height="9.73"/><rect class="cls-1" x="67.64" y="34.28" width="21.31" height="2"/><rect class="cls-1" x="88.95" y="34.16" width="7.81" height="2" transform="translate(-1.1 3.06) rotate(-1.88)"/><rect class="cls-1" x="95.76" y="35.03" width="2" height="0.06"/><rect class="cls-1" x="90.1" y="35.69" width="7.04" height="2" transform="translate(-6.45 46.56) rotate(-27.03)"/><rect class="cls-1" x="65.89" y="43.85" width="26.35" height="2" transform="translate(-11.83 45.33) rotate(-29.87)"/><rect class="cls-1" x="66.64" y="51.41" width="2" height="12.22"/><rect class="cls-1" x="67.64" y="62.64" width="42.24" height="2"/><rect class="cls-1" x="108.88" y="53.91" width="2" height="9.73"/><rect class="cls-1" x="88.57" y="52.91" width="21.31" height="2"/><rect class="cls-1" x="80.76" y="53.04" width="7.81" height="2" transform="translate(-1.73 2.8) rotate(-1.88)"/><rect class="cls-1" x="79.76" y="54.1" width="2" height="0.06"/><rect class="cls-1" x="80.38" y="51.5" width="7.04" height="2" transform="translate(-14.69 43.86) rotate(-27.03)"/><rect class="cls-1" x="85.28" y="43.34" width="26.35" height="2" transform="translate(-9 54.92) rotate(-29.87)"/><rect class="cls-1" x="108.88" y="25.56" width="2" height="12.22"/><rect class="cls-1" x="67.64" y="24.56" width="42.24" height="2"/><rect class="cls-1" x="66.64" y="35.28" width="1" height="1"/><polygon class="cls-1" points="88.95 35.28 88.95 36.28 88.97 36.28 88.98 36.28 88.95 35.28"/><polygon class="cls-1" points="96.76 35.03 97.76 35.03 97.76 33.99 96.73 34.03 96.76 35.03"/><polygon class="cls-1" points="96.76 35.09 97.21 35.98 97.76 35.7 97.76 35.09 96.76 35.09"/><polygon class="cls-1" points="90.49 38.29 90.03 37.4 90.01 37.41 89.99 37.42 90.49 38.29"/><polygon class="cls-1" points="67.64 51.41 67.14 50.54 66.64 50.83 66.64 51.41 67.64 51.41"/><rect class="cls-1" x="66.64" y="63.64" width="1" height="1"/><rect class="cls-1" x="109.88" y="63.64" width="1" height="1"/><rect class="cls-1" x="109.88" y="52.91" width="1" height="1"/><polygon class="cls-1" points="88.57 53.91 88.57 52.91 88.55 52.91 88.53 52.91 88.57 53.91"/><polygon class="cls-1" points="80.76 54.16 79.76 54.16 79.76 55.2 80.79 55.16 80.76 54.16"/><polygon class="cls-1" points="80.76 54.1 80.31 53.21 79.76 53.49 79.76 54.1 80.76 54.1"/><polygon class="cls-1" points="87.03 50.9 87.49 51.79 87.51 51.78 87.53 51.77 87.03 50.9"/><polygon class="cls-1" points="109.88 37.78 110.38 38.65 110.88 38.36 110.88 37.78 109.88 37.78"/><rect class="cls-1" x="109.88" y="24.56" width="1" height="1"/><rect class="cls-1" x="66.64" y="24.56" width="1" height="1"/><rect class="cls-1" x="99.34" y="83.67" width="2" height="15.56"/><polygon class="cls-1" points="108.88 102.31 108.88 112.64 110.88 112.64 110.88 100.83 99.34 97.25 99.34 99.35 108.88 102.31"/><polygon class="cls-1" points="108.88 69.83 108.88 80.42 99.34 83.32 99.34 85.41 110.88 81.9 110.88 69.83 108.88 69.83"/><rect class="cls-1" x="66.38" y="76.22" width="44.75" height="2" transform="translate(-20.53 33.66) rotate(-19.29)"/><rect class="cls-1" x="66.64" y="84.61" width="2" height="13.18"/><rect class="cls-1" x="87.76" y="82.83" width="2" height="44.77" transform="translate(-39.94 154.06) rotate(-70.63)"/><polygon class="cls-1" points="91.86 97.02 93.86 97.64 93.86 84.96 75.82 90.31 75.09 90.51 75.09 91.27 75.09 91.4 75.09 92.17 91.86 97.02 91.86 94.93 79.68 91.3 91.86 87.69 91.86 97.02"/><polygon class="cls-1" points="109.88 69.83 110.88 69.83 110.88 68.42 109.55 68.88 109.88 69.83"/><polygon class="cls-1" points="67.64 84.61 67.31 83.67 66.64 83.9 66.64 84.61 67.64 84.61"/><polygon class="cls-1" points="67.64 97.8 66.64 97.8 66.64 98.5 67.31 98.74 67.64 97.8"/><polygon class="cls-1" points="109.88 112.64 109.55 113.59 110.88 114.06 110.88 112.64 109.88 112.64"/><rect class="cls-1" x="67.64" y="136" width="33.73" height="2"/><rect class="cls-1" x="66.64" y="137" width="2" height="11.01"/><rect class="cls-1" x="67.64" y="147.01" width="42.24" height="2"/><rect class="cls-1" x="108.88" y="115.82" width="2" height="32.19"/><rect class="cls-1" x="101.37" y="114.82" width="8.51" height="2"/><rect class="cls-1" x="100.37" y="115.82" width="2" height="21.18"/><rect class="cls-1" x="66.64" y="136" width="1" height="1"/><rect class="cls-1" x="66.64" y="148.01" width="1" height="1"/><rect class="cls-1" x="109.88" y="148.01" width="1" height="1"/><rect class="cls-1" x="109.88" y="114.82" width="1" height="1"/><rect class="cls-1" x="100.37" y="114.82" width="1" height="1"/><rect class="cls-1" x="101.37" y="137" width="1" height="1"/><rect class="cls-1" x="86.54" y="174.37" width="2" height="6.66"/><rect class="cls-1" x="75.9" y="180.03" width="11.65" height="2"/><rect class="cls-1" x="74.9" y="174.37" width="2" height="6.66"/><path class="cls-1" d="M76.61,168.54a8.79,8.79,0,0,0-1.71,5.83h2a6.84,6.84,0,0,1,1.23-4.53Z"/><path class="cls-1" d="M81.72,166.4a6.19,6.19,0,0,0-5.14,2.17l1.57,1.24a4.22,4.22,0,0,1,3.57-1.41Z"/><path class="cls-1" d="M86.91,168.56a6.37,6.37,0,0,0-5.19-2.16v2a4.39,4.39,0,0,1,3.64,1.42Z"/><path class="cls-1" d="M88.54,174.37a9,9,0,0,0-1.63-5.81l-1.55,1.26a7.15,7.15,0,0,1,1.18,4.55Z"/><rect class="cls-1" x="66.64" y="172.65" width="2" height="19.39"/><rect class="cls-1" x="67.64" y="191.04" width="42.24" height="2"/><rect class="cls-1" x="108.88" y="181.03" width="2" height="11.01"/><rect class="cls-1" x="95.8" y="180.03" width="14.08" height="2"/><rect class="cls-1" x="94.8" y="172.65" width="2" height="8.38"/><path class="cls-1" d="M93.23,164.23a20.28,20.28,0,0,1,1.57,8.42h2a22.23,22.23,0,0,0-1.75-9.25Z"/><path class="cls-1" d="M88.81,159.1a11.35,11.35,0,0,1,4.42,5.13l1.82-.83a13.42,13.42,0,0,0-5.19-6Z"/><path class="cls-1" d="M81.72,157.33a13.26,13.26,0,0,1,7.09,1.77l1-1.71a15.37,15.37,0,0,0-8.14-2.06Z"/><path class="cls-1" d="M74.63,159.1a13.26,13.26,0,0,1,7.09-1.77v-2a15.37,15.37,0,0,0-8.14,2.06Z"/><path class="cls-1" d="M70.21,164.23a11.35,11.35,0,0,1,4.42-5.13l-1-1.71a13.42,13.42,0,0,0-5.19,6Z"/><path class="cls-1" d="M68.64,172.65a20.28,20.28,0,0,1,1.57-8.42l-1.82-.83a22.23,22.23,0,0,0-1.75,9.25Z"/><rect class="cls-1" x="87.54" y="181.03" width="1" height="1"/><rect class="cls-1" x="74.9" y="181.03" width="1" height="1"/><polygon class="cls-1" points="77.37 169.19 78.13 169.84 78.14 169.82 78.15 169.81 77.37 169.19"/><polygon class="cls-1" points="86.14 169.19 86.91 168.56 86.91 168.56 86.14 169.19"/><rect class="cls-1" x="66.64" y="192.04" width="1" height="1"/><rect class="cls-1" x="109.88" y="192.04" width="1" height="1"/><rect class="cls-1" x="109.88" y="180.03" width="1" height="1"/><rect class="cls-1" x="94.8" y="181.03" width="1" height="1"/><path class="cls-1" d="M94.14,163.81l-.91.42Z"/><path class="cls-1" d="M89.34,158.25l-.53.85Z"/><path class="cls-1" d="M74.1,158.25l.53.85Z"/><path class="cls-1" d="M69.3,163.81l.91.42Z"/><rect class="cls-1" x="25.19" y="5.22" width="10.37" height="2" transform="translate(16.14 33.77) rotate(-74.25)"/><path class="cls-1" d="M35,13.53a9.8,9.8,0,0,0-5.82-3.3l-.43,2a7.86,7.86,0,0,1,4.68,2.59Z"/><path class="cls-1" d="M36.88,19.34A9.09,9.09,0,0,0,35,13.54l-1.57,1.23a7.14,7.14,0,0,1,1.45,4.57Z"/><path class="cls-1" d="M35.24,25.39a10.79,10.79,0,0,0,1.64-6.05h-2a8.73,8.73,0,0,1-1.31,4.95Z"/><path class="cls-1" d="M30.34,29.05a9.84,9.84,0,0,0,4.9-3.65l-1.66-1.12a7.82,7.82,0,0,1-3.93,2.89Z"/><path class="cls-1" d="M22.76,30.2a22.18,22.18,0,0,0,7.58-1.15l-.69-1.88a20.09,20.09,0,0,1-6.89,1Z"/><path class="cls-1" d="M15.16,29a20.55,20.55,0,0,0,7.6,1.23v-2a18.74,18.74,0,0,1-6.86-1.08Z"/><path class="cls-1" d="M10.28,25.21A10.54,10.54,0,0,0,15.15,29l.76-1.85a8.51,8.51,0,0,1-4-3Z"/><path class="cls-1" d="M8.64,19.4a10.25,10.25,0,0,0,1.64,5.8L12,24.1a8.34,8.34,0,0,1-1.31-4.7Z"/><path class="cls-1" d="M10.31,13.75A9.24,9.24,0,0,0,8.64,19.4h2a7.27,7.27,0,0,1,1.28-4.46Z"/><path class="cls-1" d="M16.33,10.43c-2.74.62-4.84,1.68-6,3.33l1.62,1.17c.78-1.07,2.31-2,4.85-2.55Z"/><rect class="cls-1" x="13.6" y="1.36" width="2" height="10.42" transform="translate(-1.4 5.95) rotate(-22)"/><path class="cls-1" d="M6.76,6.09a13.41,13.41,0,0,1,6.15-3.38L12.39.77a15.48,15.48,0,0,0-7,3.91Z"/><path class="cls-1" d="M3.23,12A14.7,14.7,0,0,1,6.76,6.09L5.35,4.68a16.62,16.62,0,0,0-4,6.67Z"/><path class="cls-1" d="M2,19.79A23.55,23.55,0,0,1,3.23,12l-1.9-.66A26,26,0,0,0,0,19.79Z"/><path class="cls-1" d="M4.5,30.31A21,21,0,0,1,2,19.79H0a23.11,23.11,0,0,0,2.75,11.5Z"/><path class="cls-1" d="M11.5,37.07a16.19,16.19,0,0,1-7-6.75l-1.75,1a18.2,18.2,0,0,0,7.84,7.57Z"/><path class="cls-1" d="M22.76,39.46A24.35,24.35,0,0,1,11.5,37.07l-.91,1.78a26.32,26.32,0,0,0,12.17,2.61Z"/><path class="cls-1" d="M34,37.07a24.35,24.35,0,0,1-11.26,2.39v2a26.32,26.32,0,0,0,12.17-2.61Z"/><path class="cls-1" d="M41.09,30.31A16.55,16.55,0,0,1,34,37.07l.91,1.78a18.66,18.66,0,0,0,7.9-7.56Z"/><path class="cls-1" d="M43.52,19.72a21.74,21.74,0,0,1-2.44,10.6l1.76,1a23.75,23.75,0,0,0,2.68-11.56Z"/><path class="cls-1" d="M42.29,11.86a23.74,23.74,0,0,1,1.23,7.86h2a26.05,26.05,0,0,0-1.33-8.51Z"/><path class="cls-1" d="M38.39,5.86a15.43,15.43,0,0,1,3.91,6l1.88-.68a17.48,17.48,0,0,0-4.41-6.78Z"/><path class="cls-1" d="M31.52,2.19A16.33,16.33,0,0,1,38.4,5.86L39.76,4.4A18.16,18.16,0,0,0,32.05.26Z"/><polygon class="cls-1" points="28.97 11.21 28.01 10.94 27.72 11.96 28.75 12.19 28.97 11.21"/><polygon class="cls-1" points="34.22 14.16 35 13.54 35 13.53 34.22 14.16"/><polygon class="cls-1" points="34.41 24.84 35.24 25.4 35.24 25.39 34.41 24.84"/><path class="cls-1" d="M30,28.11l.35.94Z"/><polygon class="cls-1" points="15.53 28.04 15.15 28.97 15.16 28.97 15.53 28.04"/><polygon class="cls-1" points="11.11 24.65 10.28 25.2 10.28 25.21 11.11 24.65"/><polygon class="cls-1" points="11.11 14.35 11.91 14.94 11.92 14.94 11.92 14.93 11.11 14.35"/><polygon class="cls-1" points="16.55 11.4 16.77 12.38 17.92 12.12 17.48 11.03 16.55 11.4"/><polygon class="cls-1" points="12.65 1.74 13.57 1.36 13.24 0.54 12.39 0.77 12.65 1.74"/><path class="cls-1" d="M6.06,5.39l-.71-.71Z"/><polygon class="cls-1" points="2.28 11.66 3.23 11.99 3.23 11.98 3.23 11.97 2.28 11.66"/><polygon class="cls-1" points="3.62 30.8 4.5 30.32 4.5 30.31 3.62 30.8"/><path class="cls-1" d="M11.05,38l.45-.89Z"/><path class="cls-1" d="M34.47,38,34,37.07Z"/><polygon class="cls-1" points="41.96 30.8 42.83 31.29 42.84 31.28 41.96 30.8"/><polygon class="cls-1" points="43.24 11.53 44.19 11.21 44.18 11.2 44.18 11.19 43.24 11.53"/><polygon class="cls-1" points="39.08 5.13 39.77 4.41 39.76 4.4 39.08 5.13"/><rect class="cls-1" x="30.94" y="0.11" width="1" height="1" transform="matrix(0.27, -0.96, 0.96, 0.27, 22.5, 30.76)"/><rect class="cls-1" x="0.64" y="49.31" width="2" height="11.01"/><rect class="cls-1" x="1.64" y="59.32" width="42.24" height="2"/><rect class="cls-1" x="42.88" y="49.31" width="2" height="11.01"/><rect class="cls-1" x="1.64" y="48.31" width="42.24" height="2"/><rect class="cls-1" x="0.64" y="60.32" width="1" height="1"/><rect class="cls-1" x="43.88" y="60.32" width="1" height="1"/><rect class="cls-1" x="43.88" y="48.31" width="1" height="1"/><rect class="cls-1" x="0.64" y="48.31" width="1" height="1"/><path class="cls-1" d="M3.71,95.73A23.24,23.24,0,0,1,2,86.34H0A25.15,25.15,0,0,0,1.88,96.53Z"/><path class="cls-1" d="M8.29,101.58a13.4,13.4,0,0,1-4.58-5.85l-1.83.8a15.43,15.43,0,0,0,5.27,6.7Z"/><path class="cls-1" d="M14.76,103.58a10.9,10.9,0,0,1-6.46-2l-1.16,1.63a12.87,12.87,0,0,0,7.62,2.36Z"/><path class="cls-1" d="M20.09,102.15a9.32,9.32,0,0,1-5.33,1.43v2a11.3,11.3,0,0,0,6.45-1.77Z"/><path class="cls-1" d="M23.47,98.17a10.52,10.52,0,0,1-3.39,4l1.14,1.64a12.67,12.67,0,0,0,4-4.72Z"/><path class="cls-1" d="M25.56,92a30.22,30.22,0,0,1-2.1,6.2l1.8.86a32.54,32.54,0,0,0,2.25-6.6Z"/><rect class="cls-1" x="23.4" y="87.32" width="8" height="2" transform="translate(-64.76 95.99) rotate(-77.52)"/><path class="cls-1" d="M29.16,80.07a8.69,8.69,0,0,0-1.87,4.12l1.95.46a7.1,7.1,0,0,1,1.33-3.17Z"/><path class="cls-1" d="M32.1,78.81a3.93,3.93,0,0,0-3,1.28l1.47,1.37a1.91,1.91,0,0,1,1.5-.65Z"/><path class="cls-1" d="M34.83,79.73a4.29,4.29,0,0,0-2.73-.92v2a2.33,2.33,0,0,1,1.5.49Z"/><path class="cls-1" d="M36.52,82.48a5.19,5.19,0,0,0-1.69-2.75L33.6,81.3a3.27,3.27,0,0,1,1,1.74Z"/><path class="cls-1" d="M37,86.47a14.15,14.15,0,0,0-.49-4l-1.92.58A11.93,11.93,0,0,1,35,86.47Z"/><path class="cls-1" d="M36.14,92.45a21.05,21.05,0,0,0,.87-6H35a18.94,18.94,0,0,1-.79,5.41Z"/><path class="cls-1" d="M33.8,97.8a24,24,0,0,0,2.33-5.35l-1.91-.57a22,22,0,0,1-2.14,4.89Z"/><path class="cls-1" d="M30.26,102a18.76,18.76,0,0,0,3.52-4.13l-1.69-1.07A16.55,16.55,0,0,1,29,100.43Z"/><rect class="cls-1" x="32.29" y="99.31" width="2" height="9.08" transform="translate(-70.4 70.06) rotate(-54.18)"/><path class="cls-1" d="M40.06,100.83a20.65,20.65,0,0,1-3.78,4.94l1.37,1.46a22.82,22.82,0,0,0,4.16-5.42Z"/><path class="cls-1" d="M42.65,94.16a26.4,26.4,0,0,1-2.59,6.67l1.75,1a28.61,28.61,0,0,0,2.78-7.16Z"/><path class="cls-1" d="M43.52,86.34a34.31,34.31,0,0,1-.87,7.84l2,.45a36.7,36.7,0,0,0,.92-8.29Z"/><path class="cls-1" d="M42.05,77.48a24.81,24.81,0,0,1,1.47,8.86h2a26.87,26.87,0,0,0-1.6-9.57Z"/><path class="cls-1" d="M37.71,71.59a13.21,13.21,0,0,1,4.34,5.9l1.86-.73a15.18,15.18,0,0,0-5-6.77Z"/><path class="cls-1" d="M30.7,69.48a11.52,11.52,0,0,1,7,2.11L38.9,70a13.48,13.48,0,0,0-8.2-2.5Z"/><path class="cls-1" d="M23.93,72.12a8.88,8.88,0,0,1,6.77-2.64v-2a10.86,10.86,0,0,0-8.21,3.26Z"/><path class="cls-1" d="M19.89,80.94c1-4.15,2.34-7,4-8.82l-1.44-1.38C20.43,72.89,19,76.18,18,80.48Z"/><rect class="cls-1" x="14.48" y="83.26" width="7.28" height="2" transform="translate(-68.06 83.42) rotate(-77.31)"/><path class="cls-1" d="M16.6,92.48A13,13,0,0,0,18.3,88l-2-.44A11,11,0,0,1,15,91.34Z"/><path class="cls-1" d="M13.48,94.12a3.85,3.85,0,0,0,3.09-1.59L15,91.29a1.86,1.86,0,0,1-1.52.83Z"/><path class="cls-1" d="M10.85,93.3a4.46,4.46,0,0,0,2.63.82v-2A2.44,2.44,0,0,1,12,91.67Z"/><path class="cls-1" d="M9.08,90.7a5.18,5.18,0,0,0,1.77,2.6L12,91.67A3.19,3.19,0,0,1,11,90Z"/><path class="cls-1" d="M8.51,86.53a13,13,0,0,0,.57,4.17L11,90a10.94,10.94,0,0,1-.46-3.51Z"/><path class="cls-1" d="M10.08,78.94a17.7,17.7,0,0,0-1.57,7.59h2a15.69,15.69,0,0,1,1.38-6.74Z"/><path class="cls-1" d="M14.58,72.69A19.63,19.63,0,0,0,10.07,79l1.83.81A17.51,17.51,0,0,1,16,74.14Z"/><rect class="cls-1" x="10.72" y="66.32" width="2" height="8.87" transform="translate(-51.97 37.77) rotate(-53.21)"/><path class="cls-1" d="M3.79,76.34a20.55,20.55,0,0,1,5.07-7.51L7.48,67.37a22.53,22.53,0,0,0-5.55,8.24Z"/><path class="cls-1" d="M2,86.34a25.86,25.86,0,0,1,1.78-10l-1.85-.77A28,28,0,0,0,0,86.34Z"/><path class="cls-1" d="M2.79,96.13l-.91.4Z"/><polygon class="cls-1" points="7.72 102.41 8.3 101.59 8.29 101.58 7.72 102.41"/><polygon class="cls-1" points="20.65 102.98 21.21 103.81 21.22 103.8 20.65 102.98"/><polygon class="cls-1" points="24.36 98.63 25.25 99.08 25.26 99.07 25.26 99.06 24.36 98.63"/><polygon class="cls-1" points="26.54 92.23 27.51 92.45 27.51 92.44 26.54 92.23"/><polygon class="cls-1" points="28.26 84.42 27.29 84.19 27.29 84.2 27.29 84.2 28.26 84.42"/><polygon class="cls-1" points="29.86 80.77 30.57 81.48 30.58 81.47 30.59 81.45 29.86 80.77"/><polygon class="cls-1" points="35.56 82.76 34.6 83.04 34.6 83.05 35.56 82.76"/><polygon class="cls-1" points="35.18 92.17 36.13 92.45 36.13 92.45 35.18 92.17"/><polygon class="cls-1" points="32.94 97.28 33.78 97.82 33.79 97.81 33.8 97.8 32.94 97.28"/><polygon class="cls-1" points="29.61 101.19 28.95 100.43 28 101.26 29.02 102 29.61 101.19"/><polygon class="cls-1" points="36.97 106.5 36.38 107.31 37.05 107.8 37.65 107.23 36.97 106.5"/><path class="cls-1" d="M40.94,101.32l.87.49Z"/><polygon class="cls-1" points="43.62 94.41 44.59 94.65 44.6 94.64 44.6 94.63 43.62 94.41"/><polygon class="cls-1" points="42.98 77.13 43.92 76.77 43.91 76.76 42.98 77.13"/><polygon class="cls-1" points="38.31 70.79 38.91 69.99 38.9 69.98 38.31 70.79"/><polygon class="cls-1" points="18.92 80.71 17.95 80.48 17.94 80.49 18.92 80.71"/><polygon class="cls-1" points="17.32 87.81 18.3 88.03 18.3 88.03 17.32 87.81"/><polygon class="cls-1" points="15.78 91.91 16.57 92.53 16.59 92.51 16.6 92.48 15.78 91.91"/><path class="cls-1" d="M11.43,92.48l.58-.81Z"/><path class="cls-1" d="M10,90.37l-.94.33Z"/><polygon class="cls-1" points="10.98 79.36 11.89 79.79 11.89 79.78 11.9 79.77 10.98 79.36"/><polygon class="cls-1" points="15.27 73.41 15.96 74.14 16.82 73.32 15.87 72.61 15.27 73.41"/><polygon class="cls-1" points="8.17 68.1 8.77 67.3 8.09 66.8 7.48 67.37 8.17 68.1"/><polygon class="cls-1" points="2.86 75.97 3.78 76.36 3.78 76.35 3.79 76.34 2.86 75.97"/><rect class="cls-1" x="33.34" y="118.52" width="2" height="23.49"/><rect class="cls-1" x="26.86" y="117.52" width="7.49" height="2"/><rect class="cls-1" x="25.86" y="118.52" width="2" height="23.49"/><rect class="cls-1" x="26.86" y="141.01" width="7.49" height="2"/><rect class="cls-1" x="42.88" y="140.6" width="2" height="11.07"/><rect class="cls-1" x="29.28" y="122.14" width="2" height="28.48" transform="translate(-108.94 124.84) rotate(-72.75)"/><rect class="cls-1" x="12.38" y="127.88" width="2" height="6.81" transform="translate(-117.01 110.94) rotate(-75.31)"/><rect class="cls-1" x="9.09" y="130.3" width="2" height="0.13"/><rect class="cls-1" x="9.96" y="128.37" width="6.91" height="2" transform="translate(-34.25 8.36) rotate(-15.58)"/><rect class="cls-1" x="16.13" y="123.31" width="28.36" height="2" transform="translate(-34.87 14.21) rotate(-16.92)"/><rect class="cls-1" x="42.88" y="108.86" width="2" height="11.33"/><rect class="cls-1" x="0.38" y="115.25" width="44.75" height="2" transform="translate(-37.13 14.05) rotate(-19.29)"/><rect class="cls-1" x="0.64" y="123.64" width="2" height="13.18"/><rect class="cls-1" x="21.76" y="121.86" width="2" height="44.77" transform="translate(-120.87 117.88) rotate(-70.63)"/><rect class="cls-1" x="34.34" y="117.52" width="1" height="1"/><rect class="cls-1" x="25.86" y="117.52" width="1" height="1"/><rect class="cls-1" x="25.86" y="142.01" width="1" height="1"/><rect class="cls-1" x="34.34" y="142.01" width="1" height="1"/><polygon class="cls-1" points="43.88 140.6 44.88 140.6 44.88 139.87 44.18 139.65 43.88 140.6"/><polygon class="cls-1" points="16.68 132.15 16.98 131.2 16.95 131.19 16.93 131.19 16.68 132.15"/><polygon class="cls-1" points="10.09 130.43 9.09 130.43 9.09 131.2 9.83 131.39 10.09 130.43"/><polygon class="cls-1" points="10.09 130.3 9.82 129.33 9.09 129.54 9.09 130.3 10.09 130.3"/><polygon class="cls-1" points="16.74 128.44 17.01 129.41 17.02 129.4 17.04 129.4 16.74 128.44"/><polygon class="cls-1" points="43.88 120.19 44.17 121.14 44.88 120.93 44.88 120.19 43.88 120.19"/><polygon class="cls-1" points="43.88 108.86 44.88 108.86 44.88 107.45 43.55 107.91 43.88 108.86"/><polygon class="cls-1" points="1.64 123.64 1.31 122.7 0.64 122.93 0.64 123.64 1.64 123.64"/><polygon class="cls-1" points="1.64 136.83 0.64 136.83 0.64 137.53 1.31 137.77 1.64 136.83"/><polygon class="cls-1" points="43.88 151.67 43.55 152.62 44.88 153.09 44.88 151.67 43.88 151.67"/><rect class="cls-1" x="9.7" y="180.41" width="9.22" height="2"/><rect class="cls-1" x="8.7" y="173.41" width="2" height="8"/><path class="cls-1" d="M14.31,166.53a5.1,5.1,0,0,0-4.24,1.85,8,8,0,0,0-1.37,5h2a6.15,6.15,0,0,1,.94-3.8,3.14,3.14,0,0,1,2.67-1.08Z"/><path class="cls-1" d="M19.92,173.41a8.08,8.08,0,0,0-1.36-5,5.12,5.12,0,0,0-4.25-1.85v2A3.13,3.13,0,0,1,17,169.61a6.15,6.15,0,0,1,.94,3.8Z"/><rect class="cls-1" x="17.92" y="173.41" width="2" height="8"/><rect class="cls-1" x="26.79" y="180.41" width="9.34" height="2"/><rect class="cls-1" x="25.79" y="172.39" width="2" height="9.02"/><path class="cls-1" d="M27.24,167.27a7.87,7.87,0,0,0-1.45,5.12h2a6,6,0,0,1,1-3.84Z"/><path class="cls-1" d="M31.4,165.44a5.05,5.05,0,0,0-4.18,1.85l1.58,1.24a3.05,3.05,0,0,1,2.6-1.09Z"/><path class="cls-1" d="M35.69,167.27a5.28,5.28,0,0,0-4.29-1.83v2a3.29,3.29,0,0,1,2.75,1.11Z"/><path class="cls-1" d="M37.14,172.39a7.93,7.93,0,0,0-1.45-5.12l-1.54,1.28a6,6,0,0,1,1,3.84Z"/><rect class="cls-1" x="35.14" y="172.39" width="2" height="9.02"/><rect class="cls-1" x="42.88" y="170.53" width="2" height="21.5"/><path class="cls-1" d="M40.14,159.62c1.77,2.31,2.74,5.89,2.74,10.91h2c0-5.22-1-9.31-3.15-12.12Z"/><path class="cls-1" d="M32.49,156.17a9.11,9.11,0,0,1,7.66,3.46l1.57-1.23a11.12,11.12,0,0,0-9.23-4.23Z"/><path class="cls-1" d="M26.63,158.35a8.37,8.37,0,0,1,5.86-2.18v-2a10.43,10.43,0,0,0-7.2,2.69Z"/><path class="cls-1" d="M23.56,165c.41-3.09,1.46-5.24,3.05-6.61l-1.3-1.51c-2.08,1.79-3.29,4.46-3.73,7.86Z"/><rect class="cls-1" x="22.5" y="163.84" width="0.06" height="2"/><path class="cls-1" d="M18.6,159.15A9.11,9.11,0,0,1,21.52,165l2-.32a11.12,11.12,0,0,0-3.61-7.08Z"/><path class="cls-1" d="M13,157.26a8.62,8.62,0,0,1,5.58,1.89l1.26-1.56A10.62,10.62,0,0,0,13,155.26Z"/><path class="cls-1" d="M5.44,160.59c1.69-2.19,4.17-3.33,7.59-3.33v-2c-3.92,0-7,1.34-9.17,4.1Z"/><path class="cls-1" d="M2.64,171.5c0-5.11,1-8.69,2.79-10.9l-1.57-1.25C1.7,162.08.68,166.19.64,171.49Z"/><rect class="cls-1" x="0.64" y="171.49" width="2" height="20.54"/><rect class="cls-1" x="1.64" y="191.04" width="42.24" height="2"/><rect class="cls-1" x="8.7" y="181.41" width="1" height="1"/><rect class="cls-1" x="18.92" y="181.41" width="1" height="1"/><rect class="cls-1" x="25.79" y="181.41" width="1" height="1"/><polygon class="cls-1" points="28.01 167.91 28.78 168.55 28.79 168.54 28.8 168.53 28.01 167.91"/><path class="cls-1" d="M34.92,167.91l.77-.64Z"/><rect class="cls-1" x="36.14" y="181.41" width="1" height="1"/><polygon class="cls-1" points="40.94 159.01 41.73 158.41 41.72 158.4 40.94 159.01"/><polygon class="cls-1" points="25.96 157.61 26.61 158.36 26.62 158.36 26.63 158.35 25.96 157.61"/><polygon class="cls-1" points="22.57 164.84 22.57 165.84 23.45 165.84 23.56 164.97 22.57 164.84"/><polygon class="cls-1" points="22.5 164.84 21.52 165 21.65 165.84 22.5 165.84 22.5 164.84"/><polygon class="cls-1" points="19.24 158.37 19.88 157.6 19.87 157.59 19.24 158.37"/><polygon class="cls-1" points="4.65 159.97 5.43 160.59 5.44 160.59 4.65 159.97"/><polygon class="cls-1" points="1.64 171.49 0.64 171.49 0.64 171.49 1.64 171.49"/><rect class="cls-1" x="0.64" y="192.04" width="1" height="1"/><rect class="cls-1" x="43.88" y="192.04" width="1" height="1"/><path class="cls-1" d="M31.78,1.23a17.14,17.14,0,0,1,7.3,3.9,16.51,16.51,0,0,1,4.16,6.4,25.12,25.12,0,0,1,1.28,8.19A22.7,22.7,0,0,1,42,30.8,17.61,17.61,0,0,1,34.47,38a25.28,25.28,0,0,1-11.71,2.5A25.28,25.28,0,0,1,11.05,38,17.25,17.25,0,0,1,3.62,30.8,22.14,22.14,0,0,1,1,19.79a24.84,24.84,0,0,1,1.28-8.13A15.51,15.51,0,0,1,6.06,5.39a14.38,14.38,0,0,1,6.59-3.65l3.9,9.66c-2.64.6-4.46,1.58-5.44,2.95a8.26,8.26,0,0,0-1.47,5,9.33,9.33,0,0,0,1.47,5.25A9.55,9.55,0,0,0,15.53,28a19.55,19.55,0,0,0,7.23,1.16A21.09,21.09,0,0,0,30,28.11a8.87,8.87,0,0,0,4.42-3.27,9.79,9.79,0,0,0,1.47-5.5,8.08,8.08,0,0,0-1.66-5.18A8.87,8.87,0,0,0,29,11.21ZM1.64,49.31H43.88v11H1.64ZM1,86.34A26.91,26.91,0,0,1,2.86,76,21.5,21.5,0,0,1,8.17,68.1l7.1,5.31a18.75,18.75,0,0,0-4.29,6,16.73,16.73,0,0,0-1.47,7.17A12,12,0,0,0,10,90.37a4.2,4.2,0,0,0,1.41,2.11,3.42,3.42,0,0,0,2.05.64,2.84,2.84,0,0,0,2.3-1.21,12.07,12.07,0,0,0,1.54-4.1l1.6-7.1q1.47-6.34,4.29-9.28a9.9,9.9,0,0,1,7.49-3,12.48,12.48,0,0,1,7.61,2.31A14.21,14.21,0,0,1,43,77.12a25.65,25.65,0,0,1,1.54,9.22,35.18,35.18,0,0,1-.9,8.06,27.92,27.92,0,0,1-2.68,6.92,22.1,22.1,0,0,1-4,5.18l-7.36-5.31a17.84,17.84,0,0,0,3.33-3.91,23.36,23.36,0,0,0,2.24-5.12A20.09,20.09,0,0,0,36,86.47a12.91,12.91,0,0,0-.45-3.71,4.3,4.3,0,0,0-1.34-2.24,3.35,3.35,0,0,0-2.12-.71,3,3,0,0,0-2.24,1,8,8,0,0,0-1.6,3.65l-1.72,7.81a31.37,31.37,0,0,1-2.18,6.4A11.73,11.73,0,0,1,20.65,103a10.26,10.26,0,0,1-5.89,1.6,11.81,11.81,0,0,1-7-2.18,14.48,14.48,0,0,1-4.93-6.27A24.38,24.38,0,0,1,1,86.34ZM34.34,142H26.86V118.52h7.48Zm9.54,9.66L1.64,136.83V123.64l42.24-14.78v11.33l-27.14,8.25-6.65,1.86v.13l6.59,1.72,27.2,8.45Zm-25,29.74v-8q0-5.88-4.61-5.88T9.7,173.41v8Zm17.22,0v-9a6.92,6.92,0,0,0-1.22-4.48,4.3,4.3,0,0,0-3.52-1.47A4.05,4.05,0,0,0,28,167.91a6.92,6.92,0,0,0-1.22,4.48v9ZM43.88,192H1.64V171.49q.06-7.8,3-11.52T13,156.26a9.65,9.65,0,0,1,6.21,2.11,10.12,10.12,0,0,1,3.26,6.47h.07c.42-3.24,1.56-5.66,3.39-7.23a9.35,9.35,0,0,1,6.53-2.44A10.14,10.14,0,0,1,40.94,159q2.94,3.84,2.94,11.52Z"/></g></g></svg>