<svg xmlns="http://www.w3.org/2000/svg" xmlns:xlink="http://www.w3.org/1999/xlink" width="230px" height="113px" viewBox="0 0 230 113"><title>title-teams-plan-sm</title><g id="Page-1" stroke="none" stroke-width="1" fill="none" fill-rule="evenodd"><g id="title-teams-plan-sm" transform="translate(115.000000, 56.500000) rotate(-270.000000) translate(-115.000000, -56.500000) translate(59.000000, -58.000000)" fill="#FFFFFF" fill-rule="nonzero"><rect id="Rectangle" x="67.64" y="58.44" width="2" height="9.73"></rect><rect id="Rectangle" x="68.64" y="67.17" width="21.31" height="2"></rect><rect id="Rectangle" transform="translate(93.857160, 68.037147) rotate(-1.880000) translate(-93.857160, -68.037147) " x="89.9521596" y="67.0371468" width="7.81" height="2"></rect><rect id="Rectangle" x="96.76" y="67.92" width="2" height="1"></rect><rect id="Rectangle" transform="translate(94.624881, 69.583424) rotate(-27.030000) translate(-94.624881, -69.583424) " x="91.1048808" y="68.5834244" width="7.04" height="2"></rect><rect id="Rectangle" transform="translate(80.068964, 77.735795) rotate(-29.870000) translate(-80.068964, -77.735795) " x="66.8939635" y="76.7357951" width="26.35" height="2"></rect><rect id="Rectangle" x="67.64" y="84.3" width="2" height="12.22"></rect><rect id="Rectangle" x="68.64" y="95.52" width="42.24" height="2"></rect><rect id="Rectangle" x="109.88" y="86.8" width="2" height="9.73"></rect><rect id="Rectangle" x="89.57" y="85.8" width="21.31" height="2"></rect><rect id="Rectangle" transform="translate(85.670951, 86.915668) rotate(-1.880000) translate(-85.670951, -86.915668) " x="81.765951" y="85.9156678" width="7.81" height="2"></rect><rect id="Rectangle" x="80.76" y="86.99" width="2" height="1"></rect><rect id="Rectangle" transform="translate(84.901574, 85.393799) rotate(-27.030000) translate(-84.901574, -85.393799) " x="81.3815738" y="84.3937991" width="7.04" height="2"></rect><rect id="Rectangle" transform="translate(99.459153, 77.216670) rotate(-29.870000) translate(-99.459153, -77.216670) " x="86.2841529" y="76.21667" width="26.35" height="2"></rect><rect id="Rectangle" x="109.88" y="58.44" width="2" height="12.22"></rect><rect id="Rectangle" x="68.64" y="57.44" width="42.24" height="2"></rect><rect id="Rectangle" x="67.64" y="68.17" width="1" height="1"></rect><polygon id="Path" points="89.95 68.17 89.95 69.17 89.97 69.17 89.98 69.17"></polygon><polygon id="Path" points="97.76 67.92 98.76 67.92 98.76 66.88 97.73 66.92"></polygon><polygon id="Path" points="97.76 67.98 98.21 68.87 98.76 68.59 98.76 67.98"></polygon><polygon id="Path" points="91.49 71.18 91.03 70.29 91.01 70.3 90.99 70.31"></polygon><polygon id="Path" points="68.64 84.3 68.14 83.43 67.64 83.72 67.64 84.3"></polygon><rect id="Rectangle" x="67.64" y="96.52" width="1" height="1"></rect><rect id="Rectangle" x="110.88" y="96.52" width="1" height="1"></rect><rect id="Rectangle" x="110.88" y="85.8" width="1" height="1"></rect><polygon id="Path" points="89.57 86.8 89.57 85.8 89.55 85.8 89.53 85.8"></polygon><polygon id="Path" points="81.76 87.05 80.76 87.05 80.76 88.09 81.79 88.05"></polygon><polygon id="Path" points="81.76 86.99 81.31 86.1 80.76 86.38 80.76 86.99"></polygon><polygon id="Path" points="88.03 83.79 88.49 84.68 88.51 84.67 88.53 84.66"></polygon><polygon id="Path" points="110.88 70.67 111.38 71.53 111.88 71.25 111.88 70.67"></polygon><rect id="Rectangle" x="110.88" y="57.44" width="1" height="1"></rect><rect id="Rectangle" x="67.64" y="57.44" width="1" height="1"></rect><rect id="Rectangle" x="68.64" y="168.89" width="33.73" height="2"></rect><rect id="Rectangle" x="67.64" y="169.89" width="2" height="11.01"></rect><rect id="Rectangle" x="68.64" y="179.9" width="42.24" height="2"></rect><rect id="Rectangle" x="109.88" y="148.7" width="2" height="32.19"></rect><rect id="Rectangle" x="102.37" y="147.7" width="8.51" height="2"></rect><rect id="Rectangle" x="101.37" y="148.7" width="2" height="21.18"></rect><rect id="Rectangle" x="67.64" y="168.89" width="1" height="1"></rect><rect id="Rectangle" x="67.64" y="180.9" width="1" height="1"></rect><rect id="Rectangle" x="110.88" y="180.9" width="1" height="1"></rect><rect id="Rectangle" x="110.88" y="147.7" width="1" height="1"></rect><rect id="Rectangle" x="101.37" y="147.7" width="1" height="1"></rect><rect id="Rectangle" x="102.37" y="169.89" width="1" height="1"></rect><rect id="Rectangle" x="87.54" y="207.26" width="2" height="6.66"></rect><rect id="Rectangle" x="76.9" y="212.92" width="11.65" height="2"></rect><rect id="Rectangle" x="75.9" y="207.26" width="2" height="6.66"></rect><path d="M77.61,201.43 C76.3651585,203.108306 75.7589203,205.175189 75.9,207.26 L77.9,207.26 C77.7610685,205.652028 78.1969003,204.046891 79.13,202.73 L77.61,201.43 Z" id="Path"></path><path d="M82.72,199.29 C80.7593402,199.156397 78.8517263,199.961751 77.58,201.46 L79.15,202.7 C80.0450266,201.68469 81.372742,201.160298 82.72,201.29 L82.72,199.29 Z" id="Path"></path><path d="M87.91,201.44 C86.6046899,199.960529 84.6891469,199.167 82.72,199.29 L82.72,201.29 C84.0887061,201.167542 85.4357873,201.693052 86.36,202.71 L87.91,201.44 Z" id="Path"></path><path d="M89.54,207.26 C89.6814484,205.193463 89.1057371,203.141388 87.91,201.45 L86.36,202.71 C87.2548801,204.050336 87.6706949,205.65369 87.54,207.26 L89.54,207.26 Z" id="Path"></path><rect id="Rectangle" x="67.64" y="205.53" width="2" height="19.39"></rect><rect id="Rectangle" x="68.64" y="223.93" width="42.24" height="2"></rect><rect id="Rectangle" x="109.88" y="213.92" width="2" height="11.01"></rect><rect id="Rectangle" x="96.8" y="212.92" width="14.08" height="2"></rect><rect id="Rectangle" x="95.8" y="205.53" width="2" height="8.38"></rect><path d="M94.23,197.12 C95.3460036,199.779619 95.8812693,202.646871 95.8,205.53 L97.8,205.53 C97.8829031,202.360394 97.2861952,199.209777 96.05,196.29 L94.23,197.12 Z" id="Path"></path><path d="M89.81,192 C91.7730968,193.21797 93.3157105,195.008379 94.23,197.13 L96.05,196.3 C94.9641895,193.822672 93.1551261,191.73127 90.86,190.3 L89.81,192 Z" id="Path"></path><path d="M82.72,190.21 C85.2043343,190.13088 87.6609493,190.751097 89.81,192 L90.81,190.29 C88.3414754,188.857641 85.5228942,188.140876 82.67,188.22 L82.72,190.21 Z" id="Path"></path><path d="M75.63,192 C77.7800776,190.754587 80.2366277,190.137851 82.72,190.22 L82.72,188.22 C79.8671058,188.140876 77.0485246,188.857641 74.58,190.29 L75.63,192 Z" id="Path"></path><path d="M71.21,197.12 C72.1260064,195.00207 73.6684578,193.215339 75.63,192 L74.63,190.29 C72.3348739,191.72127 70.5258105,193.812672 69.44,196.29 L71.21,197.12 Z" id="Path"></path><path d="M69.64,205.53 C69.5587307,202.646871 70.0939964,199.779619 71.21,197.12 L69.39,196.29 C68.1538048,199.209777 67.5570969,202.360394 67.64,205.53 L69.64,205.53 Z" id="Path"></path><rect id="Rectangle" x="88.54" y="213.92" width="1" height="1"></rect><rect id="Rectangle" x="75.9" y="213.92" width="1" height="1"></rect><polygon id="Path" points="78.37 202.08 79.13 202.73 79.14 202.71 79.15 202.7"></polygon><polygon id="Path" points="87.14 202.08 87.91 201.45 87.91 201.44"></polygon><rect id="Rectangle" x="67.64" y="224.93" width="1" height="1"></rect><rect id="Rectangle" x="110.88" y="224.93" width="1" height="1"></rect><rect id="Rectangle" x="110.88" y="212.92" width="1" height="1"></rect><rect id="Rectangle" x="95.8" y="213.92" width="1" height="1"></rect><path d="M95.14,196.7 L94.23,197.12 L95.14,196.7 Z" id="Path"></path><path d="M90.34,191.13 L89.81,191.99 L90.34,191.13 Z" id="Path"></path><path d="M75.1,191.13 L75.63,191.99 L75.1,191.13 Z" id="Path"></path><path d="M70.3,196.7 L71.21,197.12 L70.3,196.7 Z" id="Path"></path><path d="M4.71,28.94 C3.49736193,25.9582636 2.91514444,22.7577698 3,19.54 L1,19.54 C0.913508969,23.0335076 1.55370085,26.506889 2.88,29.74 L4.71,28.94 Z" id="Path"></path><path d="M9.29,34.79 C7.24473288,33.3083038 5.65759788,31.281068 4.71,28.94 L2.88,29.74 C3.97002807,32.4227058 5.79711504,34.7421008 8.15,36.43 L9.29,34.79 Z" id="Path"></path><path d="M15.76,36.78 C13.4483893,36.8199537 11.1846567,36.1191077 9.3,34.78 L8.14,36.42 C10.3659453,37.9938517 13.0341564,38.8202268 15.76,38.78 L15.76,36.78 Z" id="Path"></path><path d="M21.09,35.36 C19.4973065,36.3602818 17.6392462,36.8552997 15.76,36.78 L15.76,38.78 C18.0409969,38.8564786 20.2910758,38.2355265 22.21,37 L21.09,35.36 Z" id="Path"></path><path d="M24.47,31.38 C23.6942496,32.9771272 22.52831,34.3528671 21.08,35.38 L22.22,37 C23.9209126,35.7792404 25.2947557,34.1581056 26.22,32.28 L24.47,31.38 Z" id="Path"></path><path d="M26.56,25.21 C26.0866237,27.3434044 25.3824784,29.4189566 24.46,31.4 L26.26,32.26 C27.2457502,30.1475509 28.0001368,27.9346833 28.51,25.66 L26.56,25.21 Z" id="Path"></path><rect id="Rectangle" transform="translate(28.402386, 21.530028) rotate(-77.520000) translate(-28.402386, -21.530028) " x="24.4023858" y="20.5300283" width="8" height="2"></rect><path d="M30.16,13.27 C29.1858366,14.4553857 28.5408919,15.8763333 28.29,17.39 L30.24,17.86 C30.4153908,16.7068433 30.8721851,15.6146585 31.57,14.68 L30.16,13.27 Z" id="Path"></path><path d="M33.1,12 C31.9650997,11.9784934 30.8745048,12.4401786 30.1,13.27 L31.57,14.64 C31.9576706,14.2072481 32.5196657,13.9721652 33.1,14 L33.1,12 Z" id="Path"></path><path d="M35.83,12.93 C35.0526198,12.3178623 34.0894075,11.989735 33.1,12 L33.1,14 C33.6417733,13.9838941 34.1722122,14.1571708 34.6,14.49 L35.83,12.93 Z" id="Path"></path><path d="M37.52,15.68 C37.258164,14.6091341 36.6670984,13.647341 35.83,12.93 L34.6,14.51 C35.1078141,14.9664711 35.457906,15.57213 35.6,16.24 L37.52,15.68 Z" id="Path"></path><path d="M38,19.67 C38.0276565,18.3201523 37.8626621,16.9732587 37.51,15.67 L35.59,16.25 C35.8904201,17.3643518 36.028509,18.5162152 36,19.67 L38,19.67 Z" id="Path"></path><path d="M37.14,25.65 C37.7180061,23.7024593 38.0110447,21.6815031 38.0100028,19.65 L36,19.65 C35.9998262,21.4853398 35.7337286,23.3109717 35.21,25.07 L37.14,25.65 Z" id="Path"></path><path d="M34.8,31 C35.7936058,29.3227418 36.5761994,27.5291583 37.13,25.66 L35.22,25.08 C34.707825,26.8003497 33.9892642,28.452368 33.08,30 L34.8,31 Z" id="Path"></path><path d="M31.26,35.15 C32.6294111,33.9457024 33.8152978,32.5475688 34.78,31 L33.09,30 C32.2381108,31.3539355 31.1976552,32.5795856 30,33.64 L31.26,35.15 Z" id="Path"></path><rect id="Rectangle" transform="translate(34.295012, 37.049654) rotate(-54.180000) translate(-34.295012, -37.049654) " x="33.2950122" y="32.5096545" width="2" height="9.08"></rect><path d="M41.06,34 C40.0609731,35.8487928 38.7863782,37.5347649 37.28,39 L38.65,40.45 C40.3055317,38.8552602 41.7083085,37.0174876 42.81,35 L41.06,34 Z" id="Path"></path><path d="M43.65,27.37 C43.0889833,29.6864911 42.2177812,31.9166341 41.06,34 L42.81,35 C44.0576291,32.7507056 44.9929015,30.3418747 45.59,27.84 L43.65,27.37 Z" id="Path"></path><path d="M44.52,19.54 C44.5323759,22.1780899 44.240447,24.808805 43.65,27.38 L45.65,27.84 C46.270774,25.1172322 46.5794297,22.3326217 46.57,19.54 L44.52,19.54 Z" id="Path"></path><path d="M43.05,10.69 C44.0739349,13.5261057 44.5720838,16.5251657 44.52,19.54 L46.52,19.54 C46.5681738,16.2893933 46.0260575,13.057025 44.92,10 L43.05,10.69 Z" id="Path"></path><path d="M38.71,4.79 C40.6841942,6.31214321 42.1885563,8.36071007 43.05,10.7 L44.91,10 C43.9147304,7.31718003 42.1814383,4.97030253 39.91,3.23 L38.71,4.79 Z" id="Path"></path><path d="M31.7,2.69 C34.2005414,2.61461812 36.6576651,3.35526541 38.7,4.8 L39.9,3.19 C37.5115276,1.48657867 34.6325514,0.608842038 31.7,0.69 L31.7,2.69 Z" id="Path"></path><path d="M24.93,5.32 C26.7107325,3.52162734 29.1722294,2.56538853 31.7,2.69 L31.7,0.69 C28.6265551,0.561690512 25.6428743,1.74280656 23.49,3.94 L24.93,5.32 Z" id="Path"></path><path d="M20.89,14.14 C21.89,10 23.23,7.14 24.89,5.32 L23.49,3.94 C21.43,6.09 20,9.38 19,13.69 L20.89,14.14 Z" id="Path"></path><rect id="Rectangle" transform="translate(19.123787, 17.460358) rotate(-77.310000) translate(-19.123787, -17.460358) " x="15.4837866" y="16.4603577" width="7.28" height="2"></rect><path d="M17.6,25.69 C18.4316472,24.3219397 19.0076779,22.8140947 19.3,21.24 L17.3,20.8 C17.0997336,22.1158513 16.659064,23.3836238 16,24.54 L17.6,25.69 Z" id="Path"></path><path d="M14.48,27.33 C15.7056091,27.3175013 16.8524418,26.7236721 17.57,25.73 L16,24.49 C15.6619599,25.0025575 15.093844,25.3165163 14.48,25.33 L14.48,27.33 Z" id="Path"></path><path d="M11.85,26.5 C12.6150685,27.0513584 13.5370398,27.3423228 14.48,27.33 L14.48,25.33 C13.9515944,25.339551 13.4336561,25.1820698 13,24.88 L11.85,26.5 Z" id="Path"></path><path d="M10.08,23.91 C10.3863032,24.936393 11.0050156,25.8417405 11.85,26.5 L13,24.88 C12.5121633,24.4480544 12.1640313,23.8805992 12,23.25 L10.08,23.91 Z" id="Path"></path><path d="M9.51,19.74 C9.47223742,21.1517335 9.66475994,22.5601877 10.08,23.91 L12,23.25 C11.6581732,22.1125077 11.5028287,20.9271616 11.54,19.74 L9.51,19.74 Z" id="Path"></path><path d="M11.08,12.14 C10.003442,14.5268258 9.46734039,17.1219674 9.51,19.74 L11.51,19.74 C11.4660379,17.4189372 11.9373526,15.1170092 12.89,13 L11.08,12.14 Z" id="Path"></path><path d="M15.58,5.89 C13.6781964,7.66627832 12.1455896,9.80037376 11.07,12.17 L12.9,12.97 C13.878463,10.8392331 15.272355,8.92518139 17,7.34 L15.58,5.89 Z" id="Path"></path><rect id="Rectangle" transform="translate(12.724233, 3.968778) rotate(-53.210000) translate(-12.724233, -3.968778) " x="11.7242329" y="-0.466222435" width="2" height="8.87"></rect><path d="M4.79,9.54 C5.89894685,6.6812678 7.6309078,4.10553101 9.86,2 L8.48,0.58 C6.04243264,2.87769386 4.14662763,5.68895067 2.93,8.81 L4.79,9.54 Z" id="Path"></path><path d="M3,19.54 C2.92643615,16.1217728 3.5314375,12.7228887 4.78,9.54 L2.93,8.79 C1.59002354,12.2126877 0.934315563,15.8649472 1,19.54 L3,19.54 Z" id="Path"></path><path d="M3.79,29.34 L2.88,29.74 L3.79,29.34 Z" id="Path"></path><polygon id="Path" points="8.72 35.61 9.3 34.79 9.29 34.79"></polygon><polygon id="Path" points="21.65 36.19 22.21 37.01 22.22 37.01"></polygon><polygon id="Path" points="25.36 31.83 26.25 32.29 26.26 32.28 26.26 32.26"></polygon><polygon id="Path" points="27.54 25.43 28.51 25.66 28.51 25.65"></polygon><polygon id="Path" points="29.26 17.63 28.29 17.39 28.29 17.4 28.29 17.41"></polygon><polygon id="Path" points="30.86 13.98 31.57 14.68 31.58 14.67 31.59 14.66"></polygon><polygon id="Path" points="36.56 15.96 35.6 16.24 35.6 16.25"></polygon><polygon id="Path" points="36.18 25.37 37.13 25.66 37.13 25.65"></polygon><polygon id="Path" points="33.94 30.49 34.78 31.03 34.79 31.01 34.8 31"></polygon><polygon id="Path" points="30.61 34.39 29.95 33.63 29 34.46 30.02 35.2"></polygon><polygon id="Path" points="37.97 39.7 37.38 40.52 38.05 41 38.65 40.43"></polygon><path d="M41.94,34.52 L42.81,35.01 L41.94,34.52 Z" id="Path"></path><polygon id="Path" points="44.62 27.61 45.59 27.85 45.6 27.84 45.6 27.84"></polygon><polygon id="Path" points="43.98 10.33 44.92 9.97 44.91 9.96"></polygon><polygon id="Path" points="39.31 3.99 39.91 3.19 39.9 3.19"></polygon><polygon id="Path" points="19.92 13.91 18.95 13.69 18.94 13.69"></polygon><polygon id="Path" points="18.32 21.02 19.3 21.24 19.3 21.24"></polygon><polygon id="Path" points="16.78 25.11 17.57 25.73 17.59 25.71 17.6 25.69"></polygon><path d="M12.43,25.69 L13.01,24.88 L12.43,25.69 Z" id="Path"></path><path d="M11,23.58 L10.06,23.91 L11,23.58 Z" id="Path"></path><polygon id="Path" points="11.98 12.57 12.89 12.99 12.89 12.98 12.9 12.97"></polygon><polygon id="Path" points="16.27 6.62 16.96 7.34 17.82 6.52 16.87 5.82"></polygon><polygon id="Path" points="9.17 1.3 9.77 0.5 9.09 0 8.48 0.58"></polygon><polygon id="Path" points="3.86 9.18 4.78 9.56 4.78 9.55 4.79 9.54"></polygon><rect id="Rectangle" x="1.64" y="46.69" width="2" height="15.04"></rect><rect id="Rectangle" transform="translate(13.424973, 65.034165) rotate(-73.000000) translate(-13.424973, -65.034165) " x="12.4249733" y="53.759165" width="2" height="22.55"></rect><rect id="Rectangle" transform="translate(28.662596, 69.537093) rotate(-74.710000) translate(-28.662596, -69.537093) " x="27.6625965" y="64.9270931" width="2" height="9.22"></rect><rect id="Rectangle" x="32.1" y="70.75" width="2" height="1"></rect><rect id="Rectangle" transform="translate(29.034450, 72.175400) rotate(-15.004920) translate(-29.034450, -72.175400) " x="24.3797929" y="71.171159" width="9.30931413" height="2.00848201"></rect><rect id="Rectangle" transform="translate(13.395998, 76.579916) rotate(-17.200000) translate(-13.395998, -76.579916) " x="2.14099777" y="75.5799157" width="22.51" height="2"></rect><rect id="Rectangle" x="1.64" y="79.91" width="2" height="15.68"></rect><rect id="Rectangle" x="2.64" y="94.59" width="42.24" height="2"></rect><rect id="Rectangle" x="43.88" y="85.79" width="2" height="9.79"></rect><rect id="Rectangle" x="25.49" y="84.79" width="19.39" height="2"></rect><rect id="Rectangle" transform="translate(18.989495, 85.951301) rotate(-1.410000) translate(-18.989495, -85.951301) " x="12.4894951" y="84.9513014" width="13" height="2"></rect><rect id="Rectangle" x="11.5" y="85.99" width="2" height="1"></rect><rect id="Rectangle" transform="translate(28.697114, 80.765285) rotate(-17.860000) translate(-28.697114, -80.765285) " x="11.6871136" y="79.7652854" width="34.02" height="2"></rect><rect id="Rectangle" x="43.88" y="66.66" width="2" height="8.9"></rect><rect id="Rectangle" transform="translate(28.691437, 61.447585) rotate(-72.140000) translate(-28.691437, -61.447585) " x="27.6914366" y="44.4375848" width="2" height="34.02"></rect><rect id="Rectangle" x="11.5" y="56.1" width="2" height="1"></rect><rect id="Rectangle" transform="translate(18.995639, 56.259818) rotate(-88.590000) translate(-18.995639, -56.259818) " x="17.9956388" y="49.7598178" width="2" height="13"></rect><rect id="Rectangle" x="25.49" y="55.42" width="19.39" height="2"></rect><rect id="Rectangle" x="43.88" y="46.69" width="2" height="9.73"></rect><rect id="Rectangle" x="2.64" y="45.69" width="42.24" height="2"></rect><polygon id="Path" points="2.64 61.73 1.64 61.73 1.64 62.47 2.35 62.69"></polygon><polygon id="Path" points="24.21 68.32 23.92 69.28 23.93 69.28 23.94 69.29"></polygon><polygon id="Path" points="33.1 70.75 34.1 70.75 34.1 69.99 33.37 69.79"></polygon><polygon id="Path" points="33.1 70.88 33.36 71.85 34.1 71.65 34.1 70.88"></polygon><polygon id="Path" points="24.14 73.25 23.89 72.28 23.87 72.29 23.85 72.3"></polygon><polygon id="Path" points="2.64 79.91 2.34 78.95 1.64 79.17 1.64 79.91"></polygon><rect id="Rectangle" x="1.64" y="95.59" width="1" height="1"></rect><rect id="Rectangle" x="44.88" y="95.59" width="1" height="1"></rect><rect id="Rectangle" x="44.88" y="84.79" width="1" height="1"></rect><polygon id="Path" points="25.49 85.8 25.49 84.8 25.48 84.8 25.46 84.8"></polygon><polygon id="Path" points="12.5 86.11 11.5 86.11 11.5 87.14 12.52 87.11"></polygon><polygon id="Path" points="12.5 85.99 12.19 85.03 11.5 85.26 11.5 85.99"></polygon><polygon id="Path" points="44.88 75.56 45.19 76.51 45.88 76.28 45.88 75.56"></polygon><polygon id="Path" points="44.88 66.66 45.88 66.66 45.88 65.93 45.19 65.71"></polygon><polygon id="Path" points="12.5 56.23 11.5 56.23 11.5 56.95 12.19 57.18"></polygon><polygon id="Path" points="12.5 56.1 12.52 55.1 11.5 55.07 11.5 56.1"></polygon><polygon id="Path" points="25.49 56.42 25.46 57.42 25.48 57.42 25.49 57.42"></polygon><rect id="Rectangle" x="44.88" y="56.42" width="1" height="1"></rect><rect id="Rectangle" x="44.88" y="45.69" width="1" height="1"></rect><rect id="Rectangle" x="1.64" y="45.69" width="1" height="1"></rect><rect id="Rectangle" x="34.34" y="111.44" width="2" height="23.49"></rect><rect id="Rectangle" x="27.86" y="110.44" width="7.49" height="2"></rect><rect id="Rectangle" x="26.86" y="111.44" width="2" height="23.49"></rect><rect id="Rectangle" x="27.86" y="133.93" width="7.49" height="2"></rect><rect id="Rectangle" x="43.88" y="133.52" width="2" height="11.07"></rect><rect id="Rectangle" transform="translate(31.283358, 129.294822) rotate(-72.750000) translate(-31.283358, -129.294822) " x="30.2833577" y="115.054822" width="2" height="28.48"></rect><rect id="Rectangle" transform="translate(14.378013, 124.214402) rotate(-75.310000) translate(-14.378013, -124.214402) " x="13.3780128" y="120.809402" width="2" height="6.81"></rect><rect id="Rectangle" x="10.09" y="123.22" width="2" height="1"></rect><rect id="Rectangle" transform="translate(14.407172, 122.293574) rotate(-15.580000) translate(-14.407172, -122.293574) " x="10.9521724" y="121.293574" width="6.91" height="2"></rect><rect id="Rectangle" transform="translate(31.309022, 117.243615) rotate(-16.920000) translate(-31.309022, -117.243615) " x="17.1290225" y="116.243615" width="28.36" height="2"></rect><rect id="Rectangle" x="43.88" y="101.78" width="2" height="11.33"></rect><rect id="Rectangle" transform="translate(23.751776, 109.173939) rotate(-19.290000) translate(-23.751776, -109.173939) " x="1.37677571" y="108.173939" width="44.75" height="2"></rect><rect id="Rectangle" x="1.64" y="116.56" width="2" height="13.18"></rect><rect id="Rectangle" transform="translate(23.749720, 137.171431) rotate(-70.630000) translate(-23.749720, -137.171431) " x="22.7497196" y="114.786431" width="2" height="44.77"></rect><rect id="Rectangle" x="35.34" y="110.44" width="1" height="1"></rect><rect id="Rectangle" x="26.86" y="110.44" width="1" height="1"></rect><rect id="Rectangle" x="26.86" y="134.93" width="1" height="1"></rect><rect id="Rectangle" x="35.34" y="134.93" width="1" height="1"></rect><polygon id="Path" points="44.88 133.52 45.88 133.52 45.88 132.79 45.18 132.57"></polygon><polygon id="Path" points="17.68 125.08 17.98 124.12 17.95 124.11 17.93 124.11"></polygon><polygon id="Path" points="11.09 123.35 10.09 123.35 10.09 124.12 10.83 124.31"></polygon><polygon id="Path" points="11.09 123.22 10.82 122.26 10.09 122.46 10.09 123.22"></polygon><polygon id="Path" points="17.74 121.36 18.01 122.33 18.02 122.32 18.04 122.32"></polygon><polygon id="Path" points="44.88 113.11 45.17 114.06 45.88 113.85 45.88 113.11"></polygon><polygon id="Path" points="44.88 101.78 45.88 101.78 45.88 100.37 44.55 100.83"></polygon><polygon id="Path" points="2.64 116.56 2.31 115.62 1.64 115.85 1.64 116.56"></polygon><polygon id="Path" points="2.64 129.75 1.64 129.75 1.64 130.46 2.31 130.69"></polygon><polygon id="Path" points="44.88 144.59 44.55 145.54 45.88 146.01 45.88 144.59"></polygon><rect id="Rectangle" x="43.88" y="148.11" width="2" height="33.73"></rect><rect id="Rectangle" x="36.37" y="147.11" width="8.51" height="2"></rect><rect id="Rectangle" x="35.37" y="148.11" width="2" height="22.72"></rect><rect id="Rectangle" x="27.73" y="169.83" width="8.64" height="2"></rect><rect id="Rectangle" x="26.73" y="153.42" width="2" height="17.41"></rect><rect id="Rectangle" x="19.73" y="152.42" width="8" height="2"></rect><rect id="Rectangle" x="18.73" y="153.42" width="2" height="17.41"></rect><rect id="Rectangle" x="11.15" y="169.83" width="8.58" height="2"></rect><rect id="Rectangle" x="10.15" y="148.94" width="2" height="21.89"></rect><rect id="Rectangle" x="2.64" y="147.94" width="8.51" height="2"></rect><rect id="Rectangle" x="1.64" y="148.94" width="2" height="32.9"></rect><rect id="Rectangle" x="2.64" y="180.83" width="42.24" height="2"></rect><rect id="Rectangle" x="44.88" y="147.11" width="1" height="1"></rect><rect id="Rectangle" x="35.37" y="147.11" width="1" height="1"></rect><rect id="Rectangle" x="36.37" y="170.83" width="1" height="1"></rect><rect id="Rectangle" x="26.73" y="170.83" width="1" height="1"></rect><rect id="Rectangle" x="27.73" y="152.42" width="1" height="1"></rect><rect id="Rectangle" x="18.73" y="152.42" width="1" height="1"></rect><rect id="Rectangle" x="19.73" y="170.83" width="1" height="1"></rect><rect id="Rectangle" x="10.15" y="170.83" width="1" height="1"></rect><rect id="Rectangle" x="11.15" y="147.94" width="1" height="1"></rect><rect id="Rectangle" x="1.64" y="147.94" width="1" height="1"></rect><rect id="Rectangle" x="1.64" y="181.83" width="1" height="1"></rect><rect id="Rectangle" x="44.88" y="181.83" width="1" height="1"></rect><rect id="Rectangle" x="1.64" y="189.41" width="2" height="38.59"></rect><rect id="Rectangle" x="2.64" y="227" width="8.51" height="2"></rect><rect id="Rectangle" x="10.15" y="214.17" width="2" height="13.82"></rect><rect id="Rectangle" x="11.15" y="213.17" width="33.73" height="2"></rect><rect id="Rectangle" x="43.88" y="203.17" width="2" height="11.01"></rect><rect id="Rectangle" x="11.15" y="202.17" width="33.73" height="2"></rect><rect id="Rectangle" x="10.15" y="189.41" width="2" height="13.76"></rect><rect id="Rectangle" x="2.64" y="188.41" width="8.51" height="2"></rect><rect id="Rectangle" x="1.64" y="228" width="1" height="1"></rect><rect id="Rectangle" x="11.15" y="228" width="1" height="1"></rect><rect id="Rectangle" x="10.15" y="213.17" width="1" height="1"></rect><rect id="Rectangle" x="44.88" y="214.17" width="1" height="1"></rect><rect id="Rectangle" x="44.88" y="202.17" width="1" height="1"></rect><rect id="Rectangle" x="10.15" y="203.17" width="1" height="1"></rect><rect id="Rectangle" x="11.15" y="188.41" width="1" height="1"></rect><rect id="Rectangle" x="1.64" y="188.41" width="1" height="1"></rect><path d="M2,19.54 C1.92988773,15.997731 2.5620506,12.4766518 3.86,9.18 C5.021346,6.19080687 6.83548236,3.49864219 9.17,1.3 L16.27,6.62 C14.4546215,8.31428222 12.996071,10.354213 11.98,12.62 C10.9658502,14.8718998 10.4637939,17.320705 10.51,19.79 C10.4698313,21.0713971 10.635262,22.3509523 11,23.58 C11.2435592,24.4107912 11.7356042,25.1471139 12.41,25.69 C13.0068891,26.1179135 13.7256738,26.3423146 14.46,26.33 C15.3784725,26.31774 16.2347332,25.8635495 16.76,25.11 C17.5267994,23.8468462 18.0555385,22.4538222 18.32,21 L19.92,13.89 C20.9,9.67 22.33,6.57666667 24.21,4.61 C26.1806281,2.62009613 28.9025152,1.5589599 31.7,1.69 C34.4201113,1.61392115 37.0911578,2.42471185 39.31,4 C41.4375074,5.62695995 43.0630568,7.82093169 44,10.33 C45.0729724,13.279798 45.5949675,16.4015997 45.54,19.54 C45.5517748,22.2556829 45.2497728,24.9636347 44.64,27.61 C44.0585094,30.0224457 43.1571969,32.3463521 41.96,34.52 C40.8963392,36.439043 39.5476566,38.1855869 37.96,39.7 L30.6,34.39 C31.8926309,33.2577489 33.0142952,31.944088 33.93,30.49 C34.875311,28.877308 35.6271684,27.1587768 36.17,25.37 C36.7173987,23.5193746 36.9969036,21.5998835 37,19.67 C37.0301263,18.4318945 36.8819412,17.1958958 36.56,16 C36.3537692,15.1335211 35.8859383,14.3514753 35.22,13.76 C34.6226285,13.2688744 33.8733415,13.0002621 33.1,13 C32.2449428,12.99888 31.4300379,13.3626768 30.86,14 C30.0254381,15.0573095 29.4747055,16.3102262 29.26,17.64 L27.54,25.45 C27.0476146,27.6560881 26.3166461,29.8020506 25.36,31.85 C24.5063397,33.5872885 23.2307989,35.0828687 21.65,36.2 C19.8944319,37.3184779 17.8401823,37.8765083 15.76,37.8 C13.2561897,37.8331139 10.8060392,37.0735672 8.76,35.63 C6.5620992,34.0427392 4.85395645,31.8703143 3.83,29.36 C2.5501597,26.2476453 1.92713811,22.9044366 2,19.54 Z M2.64,46.69 L44.88,46.69 L44.88,56.42 L25.49,56.42 L12.49,56.1 L12.49,56.23 L44.88,66.66 L44.88,75.55 L12.5,86 L12.5,86.12 L25.5,85.8 L44.88,85.8 L44.88,95.6 L2.64,95.6 L2.64,79.91 L24.14,73.25 L33.14,70.88 L33.14,70.75 L24.25,68.32 L2.64,61.73 L2.64,46.69 Z M35.34,134.93 L27.86,134.93 L27.86,111.44 L35.34,111.44 L35.34,134.93 Z M44.88,144.6 L2.64,129.75 L2.64,116.56 L44.88,101.78 L44.88,113.11 L17.74,121.36 L11.09,123.22 L11.09,123.35 L17.68,125.08 L44.88,133.52 L44.88,144.6 Z M44.88,181.83 L2.64,181.83 L2.64,148.94 L11.15,148.94 L11.15,170.83 L19.73,170.83 L19.73,153.42 L27.73,153.42 L27.73,170.83 L36.37,170.83 L36.37,148.11 L44.88,148.11 L44.88,181.83 Z M2.64,189.41 L11.15,189.41 L11.15,203.17 L44.88,203.17 L44.88,214.17 L11.15,214.17 L11.15,228 L2.64,228 L2.64,189.41 Z" id="Shape"></path><rect id="Rectangle" x="100.4" y="115.78" width="2" height="15.56"></rect><polygon id="Path" points="109.93 134.42 109.93 144.75 111.93 144.75 111.93 132.94 100.4 129.36 100.4 131.46"></polygon><polygon id="Path" points="109.93 101.94 109.93 112.53 100.4 115.43 100.4 117.52 111.93 114.01 111.93 101.94"></polygon><rect id="Rectangle" transform="translate(89.815932, 109.332058) rotate(-19.290000) translate(-89.815932, -109.332058) " x="67.4409323" y="108.332058" width="44.75" height="2"></rect><rect id="Rectangle" x="67.69" y="116.72" width="2" height="13.18"></rect><rect id="Rectangle" transform="translate(89.807283, 137.343162) rotate(-70.630000) translate(-89.807283, -137.343162) " x="88.8072827" y="114.958162" width="2" height="44.77"></rect><polygon id="Path" points="92.91 129.13 94.91 129.75 94.91 117.07 76.87 122.42 76.14 122.62 76.14 123.38 76.14 123.51 76.14 124.28 92.91 129.13 92.91 127.04 80.73 123.41 92.91 119.8"></polygon><polygon id="Path" points="110.93 101.94 111.93 101.94 111.93 100.53 110.6 100.99"></polygon><polygon id="Path" points="68.69 116.72 68.36 115.78 67.69 116.01 67.69 116.72"></polygon><polygon id="Path" points="68.69 129.91 67.69 129.91 67.69 130.62 68.36 130.85"></polygon><polygon id="Path" points="110.93 144.75 110.6 145.7 111.93 146.17 111.93 144.75"></polygon></g></g></svg>