<?xml version="1.0" encoding="UTF-8"?>
<svg width="194px" height="112px" viewBox="0 0 194 112" version="1.1" xmlns="http://www.w3.org/2000/svg" xmlns:xlink="http://www.w3.org/1999/xlink">
    <title>title-basic-plan-sm</title>
    <g id="Page-1" stroke="none" stroke-width="1" fill="none" fill-rule="evenodd">
        <g id="title-basic-plan-sm" transform="translate(97.000000, 56.000000) rotate(-270.000000) translate(-97.000000, -56.000000) translate(41.000000, -41.000000)" fill="#FFFFFF" fill-rule="nonzero">
            <rect id="Rectangle" x="67.64" y="25.56" width="2" height="9.73"></rect>
            <rect id="Rectangle" x="68.64" y="34.28" width="21.31" height="2"></rect>
            <rect id="Rectangle" transform="translate(93.858488, 35.154845) rotate(-1.880000) translate(-93.858488, -35.154845) " x="89.9534884" y="34.1548452" width="7.81" height="2"></rect>
            <rect id="Rectangle" x="96.76" y="35.03" width="2" height="1"></rect>
            <rect id="Rectangle" transform="translate(94.617791, 36.696042) rotate(-27.030000) translate(-94.617791, -36.696042) " x="91.0977912" y="35.6960421" width="7.04" height="2"></rect>
            <rect id="Rectangle" transform="translate(80.068633, 44.844980) rotate(-29.870000) translate(-80.068633, -44.844980) " x="66.893633" y="43.8449804" width="26.35" height="2"></rect>
            <rect id="Rectangle" x="67.64" y="51.41" width="2" height="12.22"></rect>
            <rect id="Rectangle" x="68.64" y="62.64" width="42.24" height="2"></rect>
            <rect id="Rectangle" x="109.88" y="53.91" width="2" height="9.73"></rect>
            <rect id="Rectangle" x="89.57" y="52.91" width="21.31" height="2"></rect>
            <rect id="Rectangle" transform="translate(85.662280, 54.033366) rotate(-1.880000) translate(-85.662280, -54.033366) " x="81.7572798" y="53.0333662" width="7.81" height="2"></rect>
            <rect id="Rectangle" x="80.76" y="54.1" width="2" height="1"></rect>
            <rect id="Rectangle" transform="translate(84.904484, 52.496417) rotate(-27.030000) translate(-84.904484, -52.496417) " x="81.3844841" y="51.4964168" width="7.04" height="2"></rect>
            <rect id="Rectangle" transform="translate(99.458822, 44.335855) rotate(-29.870000) translate(-99.458822, -44.335855) " x="86.2838224" y="43.3358553" width="26.35" height="2"></rect>
            <rect id="Rectangle" x="109.88" y="25.56" width="2" height="12.22"></rect>
            <rect id="Rectangle" x="68.64" y="24.56" width="42.24" height="2"></rect>
            <rect id="Rectangle" x="67.64" y="35.28" width="1" height="1"></rect>
            <polygon id="Path" points="89.95 35.28 89.95 36.28 89.97 36.28 89.98 36.28"></polygon>
            <polygon id="Path" points="97.76 35.03 98.76 35.03 98.76 33.99 97.73 34.03"></polygon>
            <polygon id="Path" points="97.76 35.09 98.21 35.98 98.76 35.7 98.76 35.09"></polygon>
            <polygon id="Path" points="91.49 38.29 91.03 37.4 91.01 37.41 90.99 37.42"></polygon>
            <polygon id="Path" points="68.64 51.41 68.14 50.54 67.64 50.83 67.64 51.41"></polygon>
            <rect id="Rectangle" x="67.64" y="63.64" width="1" height="1"></rect>
            <rect id="Rectangle" x="110.88" y="63.64" width="1" height="1"></rect>
            <rect id="Rectangle" x="110.88" y="52.91" width="1" height="1"></rect>
            <polygon id="Path" points="89.57 53.91 89.57 52.91 89.55 52.91 89.53 52.91"></polygon>
            <polygon id="Path" points="81.76 54.16 80.76 54.16 80.76 55.2 81.79 55.16"></polygon>
            <polygon id="Path" points="81.76 54.1 81.31 53.21 80.76 53.49 80.76 54.1"></polygon>
            <polygon id="Path" points="88.03 50.9 88.49 51.79 88.51 51.78 88.53 51.77"></polygon>
            <polygon id="Path" points="110.88 37.78 111.38 38.65 111.88 38.36 111.88 37.78"></polygon>
            <rect id="Rectangle" x="110.88" y="24.56" width="1" height="1"></rect>
            <rect id="Rectangle" x="67.64" y="24.56" width="1" height="1"></rect>
            <rect id="Rectangle" x="100.34" y="83.67" width="2" height="15.56"></rect>
            <polygon id="Path" points="109.88 102.31 109.88 112.64 111.88 112.64 111.88 100.83 100.34 97.25 100.34 99.35"></polygon>
            <polygon id="Path" points="109.88 69.83 109.88 80.42 100.34 83.32 100.34 85.41 111.88 81.9 111.88 69.83"></polygon>
            <rect id="Rectangle" transform="translate(89.751773, 77.224578) rotate(-19.290000) translate(-89.751773, -77.224578) " x="67.3767731" y="76.2245785" width="44.75" height="2"></rect>
            <rect id="Rectangle" x="67.64" y="84.61" width="2" height="13.18"></rect>
            <rect id="Rectangle" transform="translate(89.758239, 105.220497) rotate(-70.630000) translate(-89.758239, -105.220497) " x="88.7582394" y="82.8354974" width="2" height="44.77"></rect>
            <polygon id="Path" points="92.86 97.02 94.86 97.64 94.86 84.96 76.82 90.31 76.09 90.51 76.09 91.27 76.09 91.4 76.09 92.17 92.86 97.02 92.86 94.93 80.68 91.3 92.86 87.69"></polygon>
            <polygon id="Path" points="110.88 69.83 111.88 69.83 111.88 68.42 110.55 68.88"></polygon>
            <polygon id="Path" points="68.64 84.61 68.31 83.67 67.64 83.9 67.64 84.61"></polygon>
            <polygon id="Path" points="68.64 97.8 67.64 97.8 67.64 98.5 68.31 98.74"></polygon>
            <polygon id="Path" points="110.88 112.64 110.55 113.59 111.88 114.06 111.88 112.64"></polygon>
            <rect id="Rectangle" x="68.64" y="136" width="33.73" height="2"></rect>
            <rect id="Rectangle" x="67.64" y="137" width="2" height="11.01"></rect>
            <rect id="Rectangle" x="68.64" y="147.01" width="42.24" height="2"></rect>
            <rect id="Rectangle" x="109.88" y="115.82" width="2" height="32.19"></rect>
            <rect id="Rectangle" x="102.37" y="114.82" width="8.51" height="2"></rect>
            <rect id="Rectangle" x="101.37" y="115.82" width="2" height="21.18"></rect>
            <rect id="Rectangle" x="67.64" y="136" width="1" height="1"></rect>
            <rect id="Rectangle" x="67.64" y="148.01" width="1" height="1"></rect>
            <rect id="Rectangle" x="110.88" y="148.01" width="1" height="1"></rect>
            <rect id="Rectangle" x="110.88" y="114.82" width="1" height="1"></rect>
            <rect id="Rectangle" x="101.37" y="114.82" width="1" height="1"></rect>
            <rect id="Rectangle" x="102.37" y="137" width="1" height="1"></rect>
            <rect id="Rectangle" x="87.54" y="174.37" width="2" height="6.66"></rect>
            <rect id="Rectangle" x="76.9" y="180.03" width="11.65" height="2"></rect>
            <rect id="Rectangle" x="75.9" y="174.37" width="2" height="6.66"></rect>
            <path d="M77.61,168.54 C76.3651585,170.218306 75.7589203,172.285189 75.9,174.37 L77.9,174.37 C77.7628175,172.762185 78.1984888,171.15764 79.13,169.84 L77.61,168.54 Z" id="Path"></path>
            <path d="M82.72,166.4 C80.7593402,166.266397 78.8517263,167.071751 77.58,168.57 L79.15,169.81 C80.0450266,168.79469 81.372742,168.270298 82.72,168.4 L82.72,166.4 Z" id="Path"></path>
            <path d="M87.91,168.56 C86.6084467,167.07429 84.6913193,166.276411 82.72,166.4 L82.72,168.4 C84.0887061,168.277542 85.4357873,168.803052 86.36,169.82 L87.91,168.56 Z" id="Path"></path>
            <path d="M89.54,174.37 C89.6814484,172.303463 89.1057371,170.251388 87.91,168.56 L86.36,169.82 C87.2548801,171.160336 87.6706949,172.76369 87.54,174.37 L89.54,174.37 Z" id="Path"></path>
            <rect id="Rectangle" x="67.64" y="172.65" width="2" height="19.39"></rect>
            <rect id="Rectangle" x="68.64" y="191.04" width="42.24" height="2"></rect>
            <rect id="Rectangle" x="109.88" y="181.03" width="2" height="11.01"></rect>
            <rect id="Rectangle" x="96.8" y="180.03" width="14.08" height="2"></rect>
            <rect id="Rectangle" x="95.8" y="172.65" width="2" height="8.38"></rect>
            <path d="M94.23,164.23 C95.3468126,166.892886 95.8820822,169.763567 95.8,172.65 L97.8,172.65 C97.8837163,169.477091 97.2870044,166.323043 96.05,163.4 L94.23,164.23 Z" id="Path"></path>
            <path d="M89.81,159.1 C91.7709952,160.320426 93.3129708,162.110095 94.23,164.23 L96.05,163.4 C94.9641895,160.922672 93.1551261,158.83127 90.86,157.4 L89.81,159.1 Z" id="Path"></path>
            <path d="M82.72,157.33 C85.2024678,157.244282 87.6590998,157.857574 89.81,159.1 L90.81,157.39 C88.3404568,155.961131 85.5219396,155.247846 82.67,155.33 L82.72,157.33 Z" id="Path"></path>
            <path d="M75.63,159.1 C77.7809002,157.857574 80.2375322,157.244282 82.72,157.33 L82.72,155.33 C79.8680604,155.247846 77.0495432,155.961131 74.58,157.39 L75.63,159.1 Z" id="Path"></path>
            <path d="M71.21,164.23 C72.1270292,162.110095 73.6690048,160.320426 75.63,159.1 L74.63,157.39 C72.3348739,158.82127 70.5258105,160.912672 69.44,163.39 L71.21,164.23 Z" id="Path"></path>
            <path d="M69.64,172.65 C69.5579178,169.763567 70.0931874,166.892886 71.21,164.23 L69.39,163.4 C68.1529956,166.323043 67.5562837,169.477091 67.64,172.65 L69.64,172.65 Z" id="Path"></path>
            <rect id="Rectangle" x="88.54" y="181.03" width="1" height="1"></rect>
            <rect id="Rectangle" x="75.9" y="181.03" width="1" height="1"></rect>
            <polygon id="Path" points="78.37 169.19 79.13 169.84 79.14 169.82 79.15 169.81"></polygon>
            <polygon id="Path" points="87.14 169.19 87.91 168.56 87.91 168.56"></polygon>
            <rect id="Rectangle" x="67.64" y="192.04" width="1" height="1"></rect>
            <rect id="Rectangle" x="110.88" y="192.04" width="1" height="1"></rect>
            <rect id="Rectangle" x="110.88" y="180.03" width="1" height="1"></rect>
            <rect id="Rectangle" x="95.8" y="181.03" width="1" height="1"></rect>
            <path d="M95.14,163.81 L94.23,164.23 L95.14,163.81 Z" id="Path"></path>
            <path d="M90.34,158.25 L89.81,159.1 L90.34,158.25 Z" id="Path"></path>
            <path d="M75.1,158.25 L75.63,159.1 L75.1,158.25 Z" id="Path"></path>
            <path d="M70.3,163.81 L71.21,164.23 L70.3,163.81 Z" id="Path"></path>
            <rect id="Rectangle" transform="translate(31.371475, 6.223782) rotate(-74.250000) translate(-31.371475, -6.223782) " x="26.1864752" y="5.22378179" width="10.37" height="2"></rect>
            <path d="M36,13.53 C34.5071772,11.7813344 32.4470454,10.6132184 30.18,10.23 L29.75,12.23 C31.5648183,12.5196566 33.2207634,13.4360877 34.43,14.82 L36,13.53 Z" id="Path"></path>
            <path d="M37.88,19.34 C37.9397443,17.2478858 37.2757022,15.1992453 36,13.54 L34.43,14.77 C35.4256341,16.0806673 35.9378632,17.695072 35.88,19.34 L37.88,19.34 Z" id="Path"></path>
            <path d="M36.24,25.39 C37.3733095,23.5800552 37.9440655,21.4745224 37.88,19.34 L35.88,19.34 C35.9479137,21.083848 35.4916157,22.8080274 34.57,24.29 L36.24,25.39 Z" id="Path"></path>
            <path d="M31.34,29.05 C33.3192612,28.3841032 35.0353531,27.1057899 36.24,25.4 L34.58,24.28 C33.6116684,25.6377397 32.2346444,26.6503604 30.65,27.17 L31.34,29.05 Z" id="Path"></path>
            <path d="M23.76,30.2 C26.3342653,30.2595672 28.8992423,29.8704217 31.34,29.05 L30.65,27.17 C28.4290345,27.9017808 26.0973625,28.2401947 23.76,28.17 L23.76,30.2 Z" id="Path"></path>
            <path d="M16.16,29 C18.5932242,29.8851227 21.1718011,30.302445 23.76,30.23 L23.76,28.23 C21.4260181,28.3005299 19.0994114,27.934242 16.9,27.15 L16.16,29 Z" id="Path"></path>
            <path d="M11.28,25.21 C12.4888677,26.9309 14.184909,28.2508171 16.15,29 L16.91,27.15 C15.3063471,26.5730927 13.9128539,25.5279727 12.91,24.15 L11.28,25.21 Z" id="Path"></path>
            <path d="M9.64,19.4 C9.59302743,21.4540037 10.1644032,23.4747228 11.28,25.2 L13,24.1 C12.1045768,22.6989491 11.6483837,21.0622258 11.69,19.4 L9.64,19.4 Z" id="Path"></path>
            <path d="M11.31,13.75 C10.1517325,15.4006527 9.56523969,17.3848948 9.64,19.4 L11.64,19.4 C11.5680477,17.8134289 12.0176222,16.2469428 12.92,14.94 L11.31,13.75 Z" id="Path"></path>
            <path d="M17.33,10.43 C14.59,11.05 12.49,12.11 11.33,13.76 L12.95,14.93 C13.73,13.86 15.26,12.93 17.8,12.38 L17.33,10.43 Z" id="Path"></path>
            <rect id="Rectangle" transform="translate(15.598050, 6.572342) rotate(-22.000000) translate(-15.598050, -6.572342) " x="14.5980496" y="1.36234166" width="2" height="10.42"></rect>
            <path d="M7.76,6.09 C9.47363182,4.43740303 11.5963175,3.27078879 13.91,2.71 L13.39,0.77 C10.753767,1.43594345 8.3394458,2.78451431 6.39,4.68 L7.76,6.09 Z" id="Path"></path>
            <path d="M4.23,12 C4.92230648,9.77836985 6.13214456,7.75283356 7.76,6.09 L6.35,4.68 C4.50789769,6.55567818 3.13703232,8.84159619 2.35,11.35 L4.23,12 Z" id="Path"></path>
            <path d="M3,19.79 C2.96920375,17.1426544 3.38503329,14.5090673 4.23,12 L2.33,11.34 C1.42318624,14.0639206 0.973771948,16.9192219 1,19.79 L3,19.79 Z" id="Path"></path>
            <path d="M5.5,30.31 C3.76267833,27.0816705 2.90077272,23.4547717 3,19.79 L1,19.79 C0.903901231,23.7969476 1.85158785,27.7600007 3.75,31.29 L5.5,30.31 Z" id="Path"></path>
            <path d="M12.5,37.07 C9.53011181,35.5904579 7.08652443,33.2341415 5.5,30.32 L3.75,31.32 C5.52876333,34.5849002 8.26479109,37.2267026 11.59,38.89 L12.5,37.07 Z" id="Path"></path>
            <path d="M23.76,39.46 C19.8695981,39.5746787 16.0083855,38.755114 12.5,37.07 L11.59,38.85 C15.3796533,40.6804816 19.5530066,41.5755064 23.76,41.46 L23.76,39.46 Z" id="Path"></path>
            <path d="M35,37.07 C31.4916145,38.755114 27.6304019,39.5746787 23.74,39.46 L23.74,41.46 C27.9469934,41.5755064 32.1203467,40.6804816 35.91,38.85 L35,37.07 Z" id="Path"></path>
            <path d="M42.09,30.31 C40.4629894,33.2271768 37.9913551,35.5837703 35,37.07 L35.91,38.85 C39.2391625,37.1753954 41.9906538,34.5423227 43.81,31.29 L42.09,30.31 Z" id="Path"></path>
            <path d="M44.52,19.72 C44.6180052,23.4030064 43.7783925,27.050504 42.08,30.32 L43.84,31.32 C45.6971013,27.755513 46.6192172,23.778028 46.52,19.76 L44.52,19.72 Z" id="Path"></path>
            <path d="M43.29,11.86 C44.1392087,14.3921597 44.5550464,17.0494645 44.52,19.72 L46.52,19.72 C46.5519519,16.8291847 46.1024758,13.9532138 45.19,11.21 L43.29,11.86 Z" id="Path"></path>
            <path d="M39.39,5.86 C41.1458526,7.52567645 42.4852594,9.58103219 43.3,11.86 L45.18,11.18 C44.2602588,8.60631489 42.7498297,6.28415849 40.77,4.4 L39.39,5.86 Z" id="Path"></path>
            <path d="M32.52,2.19 C35.0760446,2.8398129 37.436673,4.09904346 39.4,5.86 L40.76,4.4 C38.5659033,2.41213938 35.9190544,0.99087417 33.05,0.26 L32.52,2.19 Z" id="Path"></path>
            <polygon id="Path" points="29.97 11.21 29.01 10.94 28.72 11.96 29.75 12.19"></polygon>
            <polygon id="Path" points="35.22 14.16 36 13.54 36 13.53"></polygon>
            <polygon id="Path" points="35.41 24.84 36.24 25.4 36.24 25.39"></polygon>
            <path d="M31,28.11 L31.35,29.05 L31,28.11 Z" id="Path"></path>
            <polygon id="Path" points="16.53 28.04 16.15 28.97 16.16 28.97"></polygon>
            <polygon id="Path" points="12.11 24.65 11.28 25.2 11.28 25.21"></polygon>
            <polygon id="Path" points="12.11 14.35 12.91 14.94 12.92 14.94 12.92 14.93"></polygon>
            <polygon id="Path" points="17.55 11.4 17.77 12.38 18.92 12.12 18.48 11.03"></polygon>
            <polygon id="Path" points="13.65 1.74 14.57 1.36 14.24 0.54 13.39 0.77"></polygon>
            <path d="M7.06,5.39 L6.35,4.68 L7.06,5.39 Z" id="Path"></path>
            <polygon id="Path" points="3.28 11.66 4.23 11.99 4.23 11.98 4.23 11.97"></polygon>
            <polygon id="Path" points="4.62 30.8 5.5 30.32 5.5 30.31"></polygon>
            <path d="M12.05,38 L12.5,37.11 L12.05,38 Z" id="Path"></path>
            <path d="M35.47,38 L35,37.07 L35.47,38 Z" id="Path"></path>
            <polygon id="Path" points="42.96 30.8 43.83 31.29 43.84 31.28"></polygon>
            <polygon id="Path" points="44.24 11.53 45.19 11.21 45.18 11.2 45.18 11.19"></polygon>
            <polygon id="Path" points="40.08 5.13 40.77 4.41 40.76 4.4"></polygon>
            <rect id="Rectangle" transform="translate(32.574400, 0.742300) rotate(-74.291362) translate(-32.574400, -0.742300) " x="32.0757769" y="0.243676896" width="1" height="1"></rect>
            <rect id="Rectangle" x="1.64" y="49.31" width="2" height="11.01"></rect>
            <rect id="Rectangle" x="2.64" y="59.32" width="42.24" height="2"></rect>
            <rect id="Rectangle" x="43.88" y="49.31" width="2" height="11.01"></rect>
            <rect id="Rectangle" x="2.64" y="48.31" width="42.24" height="2"></rect>
            <rect id="Rectangle" x="1.64" y="60.32" width="1" height="1"></rect>
            <rect id="Rectangle" x="44.88" y="60.32" width="1" height="1"></rect>
            <rect id="Rectangle" x="44.88" y="48.31" width="1" height="1"></rect>
            <rect id="Rectangle" x="1.64" y="48.31" width="1" height="1"></rect>
            <path d="M4.71,95.73 C3.49648704,92.7520171 2.91420932,89.5545973 3,86.34 L1,86.34 C0.912562683,89.8303396 1.55281627,93.3006503 2.88,96.53 L4.71,95.73 Z" id="Path"></path>
            <path d="M9.29,101.58 C7.24245784,100.100667 5.65475798,98.0727095 4.71,95.73 L2.88,96.53 C3.97267812,99.2138848 5.79904653,101.535833 8.15,103.23 L9.29,101.58 Z" id="Path"></path>
            <path d="M15.76,103.58 C13.4490882,103.615065 11.1868425,102.914679 9.3,101.58 L8.14,103.21 C10.3659453,104.783852 13.0341564,105.610227 15.76,105.57 L15.76,103.58 Z" id="Path"></path>
            <path d="M21.09,102.15 C19.4984261,103.153792 17.640286,103.652317 15.76,103.58 L15.76,105.58 C18.0393512,105.654387 20.28787,105.037351 22.21,103.81 L21.09,102.15 Z" id="Path"></path>
            <path d="M24.47,98.17 C23.6957112,99.7680793 22.5294889,101.144153 21.08,102.17 L22.22,103.81 C23.9228906,102.591386 25.2971965,100.969705 26.22,99.09 L24.47,98.17 Z" id="Path"></path>
            <path d="M26.56,92 C26.0865568,94.1366079 25.382427,96.2154673 24.46,98.2 L26.26,99.06 C27.244234,96.9469411 27.9985639,94.7342401 28.51,92.46 L26.56,92 Z" id="Path"></path>
            <rect id="Rectangle" transform="translate(28.394238, 88.323268) rotate(-77.520000) translate(-28.394238, -88.323268) " x="24.3942382" y="87.3232677" width="8" height="2"></rect>
            <path d="M30.16,80.07 C29.1838109,81.2541231 28.5386079,82.6756398 28.29,84.19 L30.24,84.65 C30.4169675,83.500339 30.8736876,82.4117655 31.57,81.48 L30.16,80.07 Z" id="Path"></path>
            <path d="M33.1,78.81 C31.9617984,78.7819636 30.8673772,79.2489166 30.1,80.09 L31.57,81.46 C31.9473268,81.0294931 32.4978566,80.7909301 33.07,80.81 L33.1,78.81 Z" id="Path"></path>
            <path d="M35.83,79.73 C35.0532497,79.1178221 34.0888416,78.7928201 33.1,78.81 L33.1,80.81 C33.6417733,80.7938941 34.1722122,80.9671708 34.6,81.3 L35.83,79.73 Z" id="Path"></path>
            <path d="M37.52,82.48 C37.2632801,81.407006 36.6713081,80.4437379 35.83,79.73 L34.6,81.3 C35.107474,81.7608463 35.457287,82.369521 35.6,83.04 L37.52,82.48 Z" id="Path"></path>
            <path d="M38,86.47 C38.0283413,85.1201176 37.863335,83.7731271 37.51,82.47 L35.59,83.05 C35.8913868,84.1641643 36.0294926,85.3161688 36,86.47 L38,86.47 Z" id="Path"></path>
            <path d="M37.14,92.45 C37.7180061,90.5024593 38.0110447,88.4815031 38.0100028,86.45 L36,86.45 C35.999705,88.2820503 35.7335998,90.1043657 35.21,91.86 L37.14,92.45 Z" id="Path"></path>
            <path d="M34.8,97.8 C35.7913824,96.1180757 36.5738311,94.3214659 37.13,92.45 L35.22,91.88 C34.7077834,93.5908156 33.9891621,95.2328988 33.08,96.77 L34.8,97.8 Z" id="Path"></path>
            <path d="M31.26,102 C32.6272926,100.801206 33.8130279,99.4099877 34.78,97.87 L33.09,96.8 C32.2405749,98.1527779 31.1997806,99.3754586 30,100.43 L31.26,102 Z" id="Path"></path>
            <rect id="Rectangle" transform="translate(34.290432, 103.843737) rotate(-54.180000) translate(-34.290432, -103.843737) " x="33.2904322" y="99.3037369" width="2" height="9.08"></rect>
            <path d="M41.06,100.83 C40.0566586,102.658081 38.7822033,104.323639 37.28,105.77 L38.65,107.23 C40.3008044,105.642334 41.7031858,103.815193 42.81,101.81 L41.06,100.83 Z" id="Path"></path>
            <path d="M43.65,94.16 C43.0933589,96.490568 42.2220247,98.734506 41.06,100.83 L42.81,101.83 C44.0542777,99.5791359 44.9893689,97.1707716 45.59,94.67 L43.65,94.16 Z" id="Path"></path>
            <path d="M44.52,86.34 C44.5323759,88.9780899 44.240447,91.608805 43.65,94.18 L45.65,94.63 C46.2707051,91.9106072 46.5793647,89.1293161 46.57,86.34 L44.52,86.34 Z" id="Path"></path>
            <path d="M43.05,77.48 C44.0749183,80.3193133 44.5730788,83.3218316 44.52,86.34 L46.52,86.34 C46.5718163,83.0793382 46.0296453,79.836478 44.92,76.77 L43.05,77.48 Z" id="Path"></path>
            <path d="M38.71,71.59 C40.6838586,73.1082835 42.1883613,75.1535751 43.05,77.49 L44.91,76.76 C43.9147304,74.07718 42.1814383,71.7303025 39.91,69.99 L38.71,71.59 Z" id="Path"></path>
            <path d="M31.7,69.48 C34.2005414,69.4046181 36.6576651,70.1452654 38.7,71.59 L39.9,70 C37.5115276,68.2965787 34.6325514,67.418842 31.7,67.5 L31.7,69.48 Z" id="Path"></path>
            <path d="M24.93,72.12 C26.706846,70.3146985 29.1700879,69.3541433 31.7,69.48 L31.7,67.48 C28.6250408,67.3542973 25.6411342,68.5391372 23.49,70.74 L24.93,72.12 Z" id="Path"></path>
            <path d="M20.89,80.94 C21.89,76.79 23.23,73.94 24.89,72.12 L23.45,70.74 C21.43,72.89 20,76.18 19,80.48 L20.89,80.94 Z" id="Path"></path>
            <rect id="Rectangle" transform="translate(19.122301, 84.252514) rotate(-77.310000) translate(-19.122301, -84.252514) " x="15.4823005" y="83.2525136" width="7.28" height="2"></rect>
            <path d="M17.6,92.48 C18.4393646,91.1049037 19.0158217,89.5857697 19.3,88 L17.3,87.56 C17.1011609,88.888821 16.6605542,90.1699699 16,91.34 L17.6,92.48 Z" id="Path"></path>
            <path d="M14.48,94.12 C15.7042152,94.1114329 16.8513822,93.5211431 17.57,92.53 L16,91.29 C15.6608968,91.8000578 15.0924208,92.1104756 14.48,92.12 L14.48,94.12 Z" id="Path"></path>
            <path d="M11.85,93.3 C12.6181693,93.8440199 13.538767,94.1310504 14.48,94.12 L14.48,92.12 C13.9509174,92.1344898 13.4314693,91.9765495 13,91.67 L11.85,93.3 Z" id="Path"></path>
            <path d="M10.08,90.7 C10.3862593,91.7291724 11.0047807,92.6377349 11.85,93.3 L13,91.67 C12.5008229,91.23111 12.1512087,90.6472543 12,90 L10.08,90.7 Z" id="Path"></path>
            <path d="M9.51,86.53 C9.47223742,87.9417335 9.66475994,89.3501877 10.08,90.7 L12,90 C11.6571313,88.8627312 11.5017643,87.6772141 11.54,86.49 L9.51,86.53 Z" id="Path"></path>
            <path d="M11.08,78.94 C10.0023583,81.3229418 9.46617142,83.9150809 9.51,86.53 L11.51,86.53 C11.465705,84.2089067 11.9370345,81.9069065 12.89,79.79 L11.08,78.94 Z" id="Path"></path>
            <path d="M15.58,72.69 C13.671967,74.4724524 12.1387105,76.6176515 11.07,79 L12.9,79.81 C13.8712762,77.6634051 15.2657806,75.7349076 17,74.14 L15.58,72.69 Z" id="Path"></path>
            <rect id="Rectangle" transform="translate(12.712063, 70.758229) rotate(-53.210000) translate(-12.712063, -70.758229) " x="11.7120632" y="66.3232289" width="2" height="8.87"></rect>
            <path d="M4.79,76.34 C5.90017328,73.4906185 7.63227453,70.9249222 9.86,68.83 L8.48,67.37 C6.0399194,69.6694825 4.14382688,72.484582 2.93,75.61 L4.79,76.34 Z" id="Path"></path>
            <path d="M3,86.34 C2.92643615,82.9217728 3.5314375,79.5228887 4.78,76.34 L2.93,75.57 C1.584669,78.9981468 0.928815798,82.6580116 1,86.34 L3,86.34 Z" id="Path"></path>
            <path d="M3.79,96.13 L2.88,96.53 L3.79,96.13 Z" id="Path"></path>
            <polygon id="Path" points="8.72 102.41 9.3 101.59 9.29 101.58"></polygon>
            <polygon id="Path" points="21.65 102.98 22.21 103.81 22.22 103.8"></polygon>
            <polygon id="Path" points="25.36 98.63 26.25 99.08 26.26 99.07 26.26 99.06"></polygon>
            <polygon id="Path" points="27.54 92.23 28.51 92.45 28.51 92.44"></polygon>
            <polygon id="Path" points="29.26 84.42 28.29 84.19 28.29 84.2 28.29 84.2"></polygon>
            <polygon id="Path" points="30.86 80.77 31.57 81.48 31.58 81.47 31.59 81.45"></polygon>
            <polygon id="Path" points="36.56 82.76 35.6 83.04 35.6 83.05"></polygon>
            <polygon id="Path" points="36.18 92.17 37.13 92.45 37.13 92.45"></polygon>
            <polygon id="Path" points="33.94 97.28 34.78 97.82 34.79 97.81 34.8 97.8"></polygon>
            <polygon id="Path" points="30.61 101.19 29.95 100.43 29 101.26 30.02 102"></polygon>
            <polygon id="Path" points="37.97 106.5 37.38 107.31 38.05 107.8 38.65 107.23"></polygon>
            <path d="M41.94,101.32 L42.81,101.81 L41.94,101.32 Z" id="Path"></path>
            <polygon id="Path" points="44.62 94.41 45.59 94.65 45.6 94.64 45.6 94.63"></polygon>
            <polygon id="Path" points="43.98 77.13 44.92 76.77 44.91 76.76"></polygon>
            <polygon id="Path" points="39.31 70.79 39.91 69.99 39.9 69.98"></polygon>
            <polygon id="Path" points="19.92 80.71 18.95 80.48 18.94 80.49"></polygon>
            <polygon id="Path" points="18.32 87.81 19.3 88.03 19.3 88.03"></polygon>
            <polygon id="Path" points="16.78 91.91 17.57 92.53 17.59 92.51 17.6 92.48"></polygon>
            <path d="M12.43,92.48 L13.01,91.67 L12.43,92.48 Z" id="Path"></path>
            <path d="M11,90.37 L10.06,90.7 L11,90.37 Z" id="Path"></path>
            <polygon id="Path" points="11.98 79.36 12.89 79.79 12.89 79.78 12.9 79.77"></polygon>
            <polygon id="Path" points="16.27 73.41 16.96 74.14 17.82 73.32 16.87 72.61"></polygon>
            <polygon id="Path" points="9.17 68.1 9.77 67.3 9.09 66.8 8.48 67.37"></polygon>
            <polygon id="Path" points="3.86 75.97 4.78 76.36 4.78 76.35 4.79 76.34"></polygon>
            <rect id="Rectangle" x="34.34" y="118.52" width="2" height="23.49"></rect>
            <rect id="Rectangle" x="27.86" y="117.52" width="7.49" height="2"></rect>
            <rect id="Rectangle" x="26.86" y="118.52" width="2" height="23.49"></rect>
            <rect id="Rectangle" x="27.86" y="141.01" width="7.49" height="2"></rect>
            <rect id="Rectangle" x="43.88" y="140.6" width="2" height="11.07"></rect>
            <rect id="Rectangle" transform="translate(31.284899, 136.364336) rotate(-72.750000) translate(-31.284899, -136.364336) " x="30.2848989" y="122.124336" width="2" height="28.48"></rect>
            <rect id="Rectangle" transform="translate(14.376582, 131.289813) rotate(-75.310000) translate(-14.376582, -131.289813) " x="13.3765819" y="127.884813" width="2" height="6.81"></rect>
            <rect id="Rectangle" x="10.09" y="130.3" width="2" height="1"></rect>
            <rect id="Rectangle" transform="translate(14.418744, 129.373429) rotate(-15.580000) translate(-14.418744, -129.373429) " x="10.9637443" y="128.373429" width="6.91" height="2"></rect>
            <rect id="Rectangle" transform="translate(31.306648, 124.317569) rotate(-16.920000) translate(-31.306648, -124.317569) " x="17.1266482" y="123.317569" width="28.36" height="2"></rect>
            <rect id="Rectangle" x="43.88" y="108.86" width="2" height="11.33"></rect>
            <rect id="Rectangle" transform="translate(23.750651, 116.256458) rotate(-19.290000) translate(-23.750651, -116.256458) " x="1.37565133" y="115.256458" width="44.75" height="2"></rect>
            <rect id="Rectangle" x="1.64" y="123.64" width="2" height="13.18"></rect>
            <rect id="Rectangle" transform="translate(23.758966, 144.249634) rotate(-70.630000) translate(-23.758966, -144.249634) " x="22.7589665" y="121.864634" width="2" height="44.77"></rect>
            <rect id="Rectangle" x="35.34" y="117.52" width="1" height="1"></rect>
            <rect id="Rectangle" x="26.86" y="117.52" width="1" height="1"></rect>
            <rect id="Rectangle" x="26.86" y="142.01" width="1" height="1"></rect>
            <rect id="Rectangle" x="35.34" y="142.01" width="1" height="1"></rect>
            <polygon id="Path" points="44.88 140.6 45.88 140.6 45.88 139.87 45.18 139.65"></polygon>
            <polygon id="Path" points="17.68 132.15 17.98 131.2 17.95 131.19 17.93 131.19"></polygon>
            <polygon id="Path" points="11.09 130.43 10.09 130.43 10.09 131.2 10.83 131.39"></polygon>
            <polygon id="Path" points="11.09 130.3 10.82 129.33 10.09 129.54 10.09 130.3"></polygon>
            <polygon id="Path" points="17.74 128.44 18.01 129.41 18.02 129.4 18.04 129.4"></polygon>
            <polygon id="Path" points="44.88 120.19 45.17 121.14 45.88 120.93 45.88 120.19"></polygon>
            <polygon id="Path" points="44.88 108.86 45.88 108.86 45.88 107.45 44.55 107.91"></polygon>
            <polygon id="Path" points="2.64 123.64 2.31 122.7 1.64 122.93 1.64 123.64"></polygon>
            <polygon id="Path" points="2.64 136.83 1.64 136.83 1.64 137.53 2.31 137.77"></polygon>
            <polygon id="Path" points="44.88 151.67 44.55 152.62 45.88 153.09 45.88 151.67"></polygon>
            <rect id="Rectangle" x="10.7" y="180.41" width="9.22" height="2"></rect>
            <rect id="Rectangle" x="9.7" y="173.41" width="2" height="8"></rect>
            <path d="M15.31,166.53 C13.6821821,166.433351 12.1062951,167.120943 11.07,168.38 C10.0709917,169.848392 9.58900524,171.607467 9.7,173.38 L11.7,173.38 C11.5910871,172.044761 11.921147,170.710476 12.64,169.58 C13.3026778,168.808984 14.2976414,168.406527 15.31,168.5 L15.31,166.53 Z" id="Path"></path>
            <path d="M20.92,173.41 C21.027863,171.639226 20.549944,169.882171 19.56,168.41 C18.5195695,167.150663 16.9406713,166.463378 15.31,166.56 L15.31,168.56 C16.3241937,168.450757 17.327999,168.842577 18,169.61 C18.718853,170.740476 19.0489129,172.074761 18.94,173.41 L20.92,173.41 Z" id="Path"></path>
            <rect id="Rectangle" x="18.92" y="173.41" width="2" height="8"></rect>
            <rect id="Rectangle" x="27.79" y="180.41" width="9.34" height="2"></rect>
            <rect id="Rectangle" x="26.79" y="172.39" width="2" height="9.02"></rect>
            <path d="M28.24,167.27 C27.1768377,168.756535 26.6641813,170.566742 26.79,172.39 L28.79,172.39 C28.6781754,171.033631 29.030803,169.679541 29.79,168.55 L28.24,167.27 Z" id="Path"></path>
            <path d="M32.4,165.44 C30.7913501,165.354676 29.2385141,166.041936 28.22,167.29 L29.8,168.53 C30.4366689,167.763886 31.4073367,167.356953 32.4,167.44 L32.4,165.44 Z" id="Path"></path>
            <path d="M36.69,167.27 C35.6215205,166.027245 34.0365173,165.351125 32.4,165.44 L32.4,167.44 C33.440901,167.352457 34.4615243,167.764417 35.15,168.55 L36.69,167.27 Z" id="Path"></path>
            <path d="M38.14,172.39 C38.2608081,170.567266 37.748621,168.758716 36.69,167.27 L35.15,168.55 C35.909197,169.679541 36.2618246,171.033631 36.15,172.39 L38.14,172.39 Z" id="Path"></path>
            <rect id="Rectangle" x="36.14" y="172.39" width="2" height="9.02"></rect>
            <rect id="Rectangle" x="43.88" y="170.53" width="2" height="21.5"></rect>
            <path d="M41.14,159.62 C42.91,161.93 43.88,165.51 43.88,170.53 L45.88,170.53 C45.88,165.31 44.88,161.22 42.73,158.41 L41.14,159.62 Z" id="Path"></path>
            <path d="M33.49,156.17 C36.4546114,156.006145 39.3130737,157.297304 41.15,159.63 L42.72,158.4 C40.504166,155.585741 37.0683715,154.011157 33.49,154.17 L33.49,156.17 Z" id="Path"></path>
            <path d="M27.63,158.35 C29.2284011,156.893658 31.3284025,156.112429 33.49,156.17 L33.49,154.17 C30.8350735,154.117424 28.2600605,155.079477 26.29,156.86 L27.63,158.35 Z" id="Path"></path>
            <path d="M24.56,165 C24.97,161.91 26.02,159.76 27.61,158.39 L26.31,156.88 C24.23,158.67 23.02,161.34 22.58,164.74 L24.56,165 Z" id="Path"></path>
            <rect id="Rectangle" x="23.5" y="163.84" width="1" height="2"></rect>
            <path d="M19.6,159.15 C21.2636681,160.671509 22.3040638,162.755863 22.52,165 L24.52,164.68 C24.2298604,161.955891 22.944364,159.434751 20.91,157.6 L19.6,159.15 Z" id="Path"></path>
            <path d="M14,157.26 C16.0242455,157.215108 17.9996947,157.884212 19.58,159.15 L20.84,157.59 C18.9024388,156.037696 16.4822587,155.213278 14,155.26 L14,157.26 Z" id="Path"></path>
            <path d="M6.44,160.59 C8.13,158.4 10.61,157.26 14.03,157.26 L14.03,155.26 C10.11,155.26 7.03,156.6 4.86,159.36 L6.44,160.59 Z" id="Path"></path>
            <path d="M3.64,171.5 C3.64,166.39 4.64,162.81 6.43,160.6 L4.86,159.35 C2.7,162.08 1.68,166.19 1.64,171.49 L3.64,171.5 Z" id="Path"></path>
            <rect id="Rectangle" x="1.64" y="171.49" width="2" height="20.54"></rect>
            <rect id="Rectangle" x="2.64" y="191.04" width="42.24" height="2"></rect>
            <rect id="Rectangle" x="9.7" y="181.41" width="1" height="1"></rect>
            <rect id="Rectangle" x="19.92" y="181.41" width="1" height="1"></rect>
            <rect id="Rectangle" x="26.79" y="181.41" width="1" height="1"></rect>
            <polygon id="Path" points="29.01 167.91 29.78 168.55 29.79 168.54 29.8 168.53"></polygon>
            <path d="M35.92,167.91 L36.69,167.27 L35.92,167.91 Z" id="Path"></path>
            <rect id="Rectangle" x="37.14" y="181.41" width="1" height="1"></rect>
            <polygon id="Path" points="41.94 159.01 42.73 158.41 42.72 158.4"></polygon>
            <polygon id="Path" points="26.96 157.61 27.61 158.36 27.62 158.36 27.63 158.35"></polygon>
            <polygon id="Path" points="23.57 164.84 23.57 165.84 24.45 165.84 24.56 164.97"></polygon>
            <polygon id="Path" points="23.5 164.84 22.52 165 22.65 165.84 23.5 165.84"></polygon>
            <polygon id="Path" points="20.24 158.37 20.88 157.6 20.87 157.59"></polygon>
            <polygon id="Path" points="5.65 159.97 6.43 160.59 6.44 160.59"></polygon>
            <polygon id="Path" points="2.64 171.49 1.64 171.49 1.64 171.49"></polygon>
            <rect id="Rectangle" x="1.64" y="192.04" width="1" height="1"></rect>
            <rect id="Rectangle" x="44.88" y="192.04" width="1" height="1"></rect>
            <path d="M32.78,1.23 C35.4953805,1.91416377 38.0017814,3.25319985 40.08,5.13 C41.9475595,6.90908974 43.3723016,9.10100055 44.24,11.53 C45.117271,14.1702782 45.5498258,16.9379533 45.52,19.72 C45.6329199,23.5672469 44.7657521,27.3800323 43,30.8 C41.2736334,33.904536 38.6487348,36.4143992 35.47,38 C31.8231905,39.759056 27.8072138,40.6164378 23.76,40.5 C19.7127862,40.6164378 15.6968095,39.759056 12.05,38 C8.8949793,36.4167591 6.30163488,33.9036932 4.62,30.8 C2.80756603,27.4189606 1.90473574,23.6250058 2,19.79 C1.97162797,17.0276784 2.40423117,14.2799722 3.28,11.66 C4.02160038,9.29830161 5.3177072,7.14841014 7.06,5.39 C8.89328505,3.60933974 11.1680109,2.34943846 13.65,1.74 L17.55,11.4 C14.91,12 13.09,12.98 12.11,14.35 C11.0932742,15.8143651 10.5775965,17.5683708 10.64,19.35 C10.5963676,21.2073257 11.1082251,23.0353883 12.11,24.6 C13.2122672,26.1478265 14.7512219,27.3316378 16.53,28 C18.8454308,28.8385774 21.2984504,29.2321462 23.76,29.16 C26.2160736,29.2344397 28.6662621,28.8790946 31,28.11 C32.7824927,27.5156658 34.3302039,26.3706396 35.42,24.84 C36.4440084,23.1927618 36.9556456,21.278473 36.89,19.34 C36.9519622,17.4733749 36.3653699,15.6429241 35.23,14.16 C33.8826416,12.5985442 32.033277,11.5554035 30,11.21 L32.78,1.23 Z M2.64,49.31 L44.88,49.31 L44.88,60.31 L2.64,60.31 L2.64,49.31 Z M2,86.34 C1.93463563,82.8046053 2.56667881,79.290989 3.86,76 C5.01751675,73.0030037 6.83198045,70.3035191 9.17,68.1 L16.27,73.41 C14.4568427,75.1062304 12.9986329,77.1456847 11.98,79.41 C10.9668024,81.6622076 10.4647903,84.1107968 10.51,86.58 C10.4698313,87.8613971 10.635262,89.1409523 11,90.37 C11.2411863,91.2018978 11.7336739,91.9388828 12.41,92.48 C13.0068891,92.9079135 13.7256738,93.1323146 14.46,93.12 C15.3770648,93.111687 16.2336725,92.6610368 16.76,91.91 C17.5190649,90.6486812 18.0409887,89.2591438 18.3,87.81 L19.9,80.71 C20.88,76.4833333 22.31,73.39 24.19,71.43 C26.147419,69.4118242 28.8706118,68.3210927 31.68,68.43 C34.4006992,68.3495264 37.073112,69.1607319 39.29,70.74 C41.4336306,72.3766112 43.067254,74.5894598 44,77.12 C45.0737407,80.0730622 45.5957406,83.1982825 45.54,86.34 C45.5517191,89.0523783 45.2497128,91.7570123 44.64,94.4 C44.0585553,96.8156393 43.157263,99.1428568 41.96,101.32 C40.8911386,103.235617 39.5430266,104.981422 37.96,106.5 L30.6,101.19 C31.8927765,100.054101 33.0143965,98.7371235 33.93,97.28 C34.8788603,95.669119 35.6309074,93.9501543 36.17,92.16 C36.7180743,90.3129444 36.9976035,88.3966536 37,86.47 C37.0307367,85.2180531 36.8791488,83.968295 36.55,82.76 C36.3462203,81.892526 35.8779742,81.1097862 35.21,80.52 C34.6054868,80.04755 33.8571206,79.796918 33.09,79.81 C32.2349428,79.80888 31.4200379,80.1726768 30.85,80.81 C30.017306,81.872217 29.4668944,83.1278435 29.25,84.46 L27.53,92.27 C27.0360226,94.4756405 26.3051119,96.6214335 25.35,98.67 C24.4911233,100.395385 23.2203314,101.882555 21.65,103 C19.8944319,104.118478 17.8401823,104.676508 15.76,104.6 C13.2544839,104.634336 10.8029811,103.870868 8.76,102.42 C6.5620992,100.832739 4.85395645,98.6603143 3.83,96.15 C2.55012769,93.0411562 1.92707776,89.7012 2,86.34 Z M35.34,142 L27.86,142 L27.86,118.52 L35.34,118.52 L35.34,142 Z M44.88,151.66 L2.64,136.83 L2.64,123.64 L44.88,108.86 L44.88,120.19 L17.74,128.44 L11.09,130.3 L11.09,130.43 L17.68,132.15 L44.88,140.6 L44.88,151.66 Z M19.88,181.4 L19.88,173.4 C19.88,169.48 18.3433333,167.52 15.27,167.52 C12.1966667,167.52 10.6733333,169.483333 10.7,173.41 L10.7,181.41 L19.88,181.4 Z M37.1,181.4 L37.1,172.4 C37.2214146,170.810728 36.7904761,169.228266 35.88,167.92 C35.0001037,166.90789 33.6983697,166.364269 32.36,166.45 C31.0713198,166.373344 29.8232978,166.915639 29,167.91 C28.0895239,169.218266 27.6585854,170.800728 27.78,172.39 L27.78,181.39 L37.1,181.4 Z M44.88,192 L2.64,192 L2.64,171.49 C2.68,166.29 3.68,162.45 5.64,159.97 C7.6,157.49 10.3866667,156.253333 14,156.26 C16.2528581,156.216746 18.4498266,156.96322 20.21,158.37 C22.0578614,160.05047 23.2189966,162.354931 23.47,164.84 L23.54,164.84 C23.96,161.6 25.1,159.18 26.93,157.61 C28.710757,155.985322 31.0501838,155.111171 33.46,155.17 C36.7401546,154.997841 39.9005046,156.425216 41.94,159 C43.9,161.56 44.88,165.4 44.88,170.52 L44.88,192 Z" id="Shape"></path>
        </g>
    </g>
</svg>