<?xml version="1.0" encoding="UTF-8"?>
<svg width="379px" height="112px" viewBox="0 0 379 112" version="1.1" xmlns="http://www.w3.org/2000/svg" xmlns:xlink="http://www.w3.org/1999/xlink">
    <title>title-individual-plan-sm</title>
    <g id="Page-1" stroke="none" stroke-width="1" fill="none" fill-rule="evenodd">
        <g id="title-individual-plan-sm" transform="translate(189.500000, 56.000000) rotate(-270.000000) translate(-189.500000, -56.000000) translate(134.000000, -133.000000)" fill="#FFFFFF" fill-rule="nonzero">
            <rect id="Rectangle" x="66" y="209.54" width="2" height="9.73"></rect>
            <rect id="Rectangle" x="67" y="218.27" width="21.31" height="2"></rect>
            <rect id="Rectangle" transform="translate(92.224536, 219.136810) rotate(-1.880000) translate(-92.224536, -219.136810) " x="88.3195364" y="218.13681" width="7.81" height="2"></rect>
            <rect id="Rectangle" x="95.12" y="219.01" width="2" height="1"></rect>
            <rect id="Rectangle" transform="translate(92.973237, 220.689426) rotate(-27.030000) translate(-92.973237, -220.689426) " x="89.4532367" y="219.689426" width="7.04" height="2"></rect>
            <rect id="Rectangle" transform="translate(78.436885, 228.822056) rotate(-29.870000) translate(-78.436885, -228.822056) " x="65.2618846" y="227.822056" width="26.35" height="2"></rect>
            <rect id="Rectangle" x="66" y="235.4" width="2" height="12.22"></rect>
            <rect id="Rectangle" x="67" y="246.62" width="42.24" height="2"></rect>
            <rect id="Rectangle" x="108.24" y="237.89" width="2" height="9.73"></rect>
            <rect id="Rectangle" x="87.93" y="236.89" width="21.31" height="2"></rect>
            <rect id="Rectangle" transform="translate(84.038328, 238.015331) rotate(-1.880000) translate(-84.038328, -238.015331) " x="80.1333278" y="237.015331" width="7.81" height="2"></rect>
            <rect id="Rectangle" x="79.12" y="238.09" width="2" height="1"></rect>
            <rect id="Rectangle" transform="translate(83.249930, 236.499801) rotate(-27.030000) translate(-83.249930, -236.499801) " x="79.7299296" y="235.499801" width="7.04" height="2"></rect>
            <rect id="Rectangle" transform="translate(97.827074, 228.312931) rotate(-29.870000) translate(-97.827074, -228.312931) " x="84.652074" y="227.312931" width="26.35" height="2"></rect>
            <rect id="Rectangle" x="108.24" y="209.54" width="2" height="12.22"></rect>
            <rect id="Rectangle" x="67" y="208.54" width="42.24" height="2"></rect>
            <rect id="Rectangle" x="66" y="219.27" width="1" height="1"></rect>
            <polygon id="Path" points="88.31 219.27 88.31 220.27 88.33 220.27 88.34 220.27"></polygon>
            <polygon id="Path" points="96.12 219.01 97.12 219.01 97.12 217.98 96.09 218.01"></polygon>
            <polygon id="Path" points="96.12 219.08 96.57 219.97 97.12 219.69 97.12 219.08"></polygon>
            <polygon id="Path" points="89.85 222.28 89.39 221.39 89.37 221.4 89.35 221.41"></polygon>
            <polygon id="Path" points="67 235.4 66.5 234.53 66 234.82 66 235.4"></polygon>
            <rect id="Rectangle" x="66" y="247.62" width="1" height="1"></rect>
            <rect id="Rectangle" x="109.24" y="247.62" width="1" height="1"></rect>
            <rect id="Rectangle" x="109.24" y="236.89" width="1" height="1"></rect>
            <polygon id="Path" points="87.93 237.89 87.93 236.89 87.91 236.89 87.89 236.9"></polygon>
            <polygon id="Path" points="80.12 238.15 79.12 238.15 79.12 239.18 80.15 239.15"></polygon>
            <polygon id="Path" points="80.12 238.09 79.67 237.19 79.12 237.47 79.12 238.09"></polygon>
            <polygon id="Path" points="86.39 234.89 86.85 235.78 86.87 235.77 86.89 235.75"></polygon>
            <polygon id="Path" points="109.24 221.77 109.74 222.63 110.24 222.34 110.24 221.77"></polygon>
            <rect id="Rectangle" x="109.24" y="208.54" width="1" height="1"></rect>
            <rect id="Rectangle" x="66" y="208.54" width="1" height="1"></rect>
            <rect id="Rectangle" x="67" y="319.99" width="33.73" height="2"></rect>
            <rect id="Rectangle" x="66" y="320.99" width="2" height="11.01"></rect>
            <rect id="Rectangle" x="67" y="330.99" width="42.24" height="2"></rect>
            <rect id="Rectangle" x="108.24" y="299.8" width="2" height="32.19"></rect>
            <rect id="Rectangle" x="100.73" y="298.8" width="8.51" height="2"></rect>
            <rect id="Rectangle" x="99.73" y="299.8" width="2" height="21.18"></rect>
            <rect id="Rectangle" x="66" y="319.99" width="1" height="1"></rect>
            <rect id="Rectangle" x="66" y="331.99" width="1" height="1"></rect>
            <rect id="Rectangle" x="109.24" y="331.99" width="1" height="1"></rect>
            <rect id="Rectangle" x="109.24" y="298.8" width="1" height="1"></rect>
            <rect id="Rectangle" x="99.73" y="298.8" width="1" height="1"></rect>
            <rect id="Rectangle" x="100.73" y="320.99" width="1" height="1"></rect>
            <rect id="Rectangle" x="85.9" y="358.36" width="2" height="6.66"></rect>
            <rect id="Rectangle" x="75.26" y="364.02" width="11.65" height="2"></rect>
            <rect id="Rectangle" x="74.26" y="358.36" width="2" height="6.66"></rect>
            <path d="M76,352.53 C74.7535623,354.207511 74.1471476,356.274995 74.29,358.36 L76.29,358.36 C76.29,356.17 76.75,354.72 77.52,353.83 L76,352.53 Z" id="Path"></path>
            <path d="M81.08,350.38 C79.1179086,350.250462 77.2106929,351.059359 75.94,352.56 L77.51,353.79 C78.4069499,352.777433 79.7332117,352.253615 81.08,352.38 L81.08,350.38 Z" id="Path"></path>
            <path d="M86.27,352.54 C84.9657248,351.058085 83.0505456,350.261016 81.08,350.38 L81.08,352.38 C82.4501362,352.261624 83.7968169,352.790677 84.72,353.81 L86.27,352.54 Z" id="Path"></path>
            <path d="M87.9,358.36 C88.0437886,356.290108 87.4679675,354.234108 86.27,352.54 L84.72,353.81 C85.6148801,355.150336 86.0306949,356.75369 85.9,358.36 L87.9,358.36 Z" id="Path"></path>
            <rect id="Rectangle" x="66" y="356.63" width="2" height="19.39"></rect>
            <rect id="Rectangle" x="67" y="375.02" width="42.24" height="2"></rect>
            <rect id="Rectangle" x="108.24" y="365.02" width="2" height="11.01"></rect>
            <rect id="Rectangle" x="95.16" y="364.02" width="14.08" height="2"></rect>
            <rect id="Rectangle" x="94.16" y="356.63" width="2" height="8.38"></rect>
            <path d="M92.59,348.22 C93.7068938,350.879353 94.2421957,353.746798 94.16,356.63 L96.16,356.63 C96.2438344,353.460319 95.6470895,350.309506 94.41,347.39 L92.59,348.22 Z" id="Path"></path>
            <path d="M88.17,343.09 C90.1330968,344.30797 91.6757105,346.098379 92.59,348.22 L94.41,347.39 C93.3268673,344.910983 91.5171835,342.818863 89.22,341.39 L88.17,343.09 Z" id="Path"></path>
            <path d="M81.08,341.31 C83.5633723,341.227851 86.0199224,341.844587 88.17,343.09 L89.17,341.38 C86.7032992,339.943176 83.8834248,339.226083 81.03,339.31 L81.08,341.31 Z" id="Path"></path>
            <path d="M74,343.09 C76.1500776,341.844587 78.6066277,341.227851 81.09,341.31 L81.09,339.31 C78.2365752,339.226083 75.4167008,339.943176 72.95,341.38 L74,343.09 Z" id="Path"></path>
            <path d="M69.57,348.22 C70.486944,346.09698 72.0331883,344.306409 74,343.09 L73,341.38 C70.7028165,342.808863 68.8931327,344.900983 67.81,347.38 L69.57,348.22 Z" id="Path"></path>
            <path d="M68,356.63 C67.9178043,353.746798 68.4531062,350.879353 69.57,348.22 L67.75,347.39 C66.5129105,350.309506 65.9161656,353.460319 66,356.63 L68,356.63 Z" id="Path"></path>
            <rect id="Rectangle" x="86.9" y="365.02" width="1" height="1"></rect>
            <rect id="Rectangle" x="74.26" y="365.02" width="1" height="1"></rect>
            <polygon id="Path" points="76.73 353.18 77.49 353.82 77.5 353.81 77.51 353.79"></polygon>
            <polygon id="Path" points="85.5 353.18 86.27 352.55 86.27 352.54"></polygon>
            <rect id="Rectangle" x="66" y="376.02" width="1" height="1"></rect>
            <rect id="Rectangle" x="109.24" y="376.02" width="1" height="1"></rect>
            <rect id="Rectangle" x="109.24" y="364.02" width="1" height="1"></rect>
            <rect id="Rectangle" x="94.16" y="365.02" width="1" height="1"></rect>
            <path d="M93.5,347.8 L92.59,348.22 L93.5,347.8 Z" id="Path"></path>
            <path d="M88.7,342.23 L88.17,343.09 L88.7,342.23 Z" id="Path"></path>
            <path d="M73.46,342.23 L73.99,343.09 L73.46,342.23 Z" id="Path"></path>
            <path d="M68.66,347.8 L69.57,348.22 L68.66,347.8 Z" id="Path"></path>
            <rect id="Rectangle" x="1" y="21.18" width="33.73" height="2"></rect>
            <rect id="Rectangle" x="0" y="22.18" width="2" height="11.01"></rect>
            <rect id="Rectangle" x="1" y="32.19" width="42.24" height="2"></rect>
            <rect id="Rectangle" x="42.24" y="1" width="2" height="32.19"></rect>
            <rect id="Rectangle" x="34.73" y="0" width="8.51" height="2"></rect>
            <rect id="Rectangle" x="33.73" y="1" width="2" height="21.18"></rect>
            <rect id="Rectangle" x="0" y="21.18" width="1" height="1"></rect>
            <rect id="Rectangle" x="0" y="33.19" width="1" height="1"></rect>
            <rect id="Rectangle" x="43.24" y="33.19" width="1" height="1"></rect>
            <rect id="Rectangle" x="43.24" y="0" width="1" height="1"></rect>
            <rect id="Rectangle" x="33.73" y="0" width="1" height="1"></rect>
            <rect id="Rectangle" x="34.73" y="22.18" width="1" height="1"></rect>
            <rect id="Rectangle" x="0" y="86.01" width="2" height="11.01"></rect>
            <rect id="Rectangle" x="1" y="96.02" width="25.22" height="2"></rect>
            <path d="M33.66,98.25 C31.91,96.7 29.37,96 26.22,96 L26.22,98 C29.12,98 31.1,98.64 32.34,99.73 L33.66,98.25 Z" id="Path"></path>
            <path d="M36.24,104.89 C36.24,102.06 35.44,99.77 33.65,98.24 L32.35,99.76 C33.55,100.76 34.24,102.43 34.24,104.89 L36.24,104.89 Z" id="Path"></path>
            <path d="M33.66,111.53 C35.4565208,109.805042 36.4005706,107.375394 36.24,104.89 L34.24,104.89 C34.24,107.3 33.56,108.95 32.34,110.03 L33.66,111.53 Z" id="Path"></path>
            <path d="M26.22,113.7 C29.36,113.7 31.9,113.04 33.65,111.54 L32.35,110 C31.11,111.06 29.13,111.68 26.22,111.68 L26.22,113.7 Z" id="Path"></path>
            <rect id="Rectangle" x="1" y="111.7" width="25.22" height="2"></rect>
            <rect id="Rectangle" x="0" y="112.7" width="2" height="11.07"></rect>
            <rect id="Rectangle" x="1" y="122.77" width="25.02" height="2"></rect>
            <path d="M38.73,118.29 C36,121.22 31.82,122.77 26.02,122.77 L26.02,124.77 C32.17,124.77 36.96,123.12 40.2,119.65 L38.73,118.29 Z" id="Path"></path>
            <path d="M42.88,104.89 C42.88,110.89 41.44,115.34 38.73,118.29 L40.2,119.65 C43.37,116.2 44.88,111.22 44.88,104.89 L42.88,104.89 Z" id="Path"></path>
            <path d="M38.73,91.49 C41.44,94.4 42.88,98.8 42.88,104.89 L44.88,104.89 C44.88,98.52 43.38,93.54 40.2,90.13 L38.73,91.49 Z" id="Path"></path>
            <path d="M26,87 C31.8,87 36,88.55 38.71,91.48 L40.18,90.12 C37,86.66 32.17,85 26,85 L26,87 Z" id="Path"></path>
            <rect id="Rectangle" x="1" y="85.01" width="25.02" height="2"></rect>
            <rect id="Rectangle" x="0" y="97.02" width="1" height="1"></rect>
            <polygon id="Path" points="33 99 32.34 99.75 32.34 99.76 32.35 99.76"></polygon>
            <polygon id="Path" points="33 110.78 33.65 111.54 33.66 111.53 33.66 111.53"></polygon>
            <rect id="Rectangle" x="0" y="111.7" width="1" height="1"></rect>
            <rect id="Rectangle" x="0" y="123.77" width="1" height="1"></rect>
            <polygon id="Path" points="39.46 118.97 40.2 119.65 40.2 119.65"></polygon>
            <polygon id="Path" points="39.46 90.81 40.2 90.13 40.2 90.13"></polygon>
            <rect id="Rectangle" x="0" y="85.01" width="1" height="1"></rect>
            <rect id="Rectangle" x="33.92" y="153.33" width="2" height="5.82"></rect>
            <rect id="Rectangle" x="9.32" y="158.15" width="25.6" height="2"></rect>
            <rect id="Rectangle" x="8.32" y="153.33" width="2" height="5.82"></rect>
            <path d="M12,144.72 C9.49,146.58 8.33,149.54 8.33,153.33 L10.33,153.33 C10.33,149.95 11.33,147.69 13.19,146.33 L12,144.72 Z" id="Path"></path>
            <path d="M22.12,142 C17.79,142 14.35,142.85 11.97,144.71 L13.2,146.29 C15.08,144.82 18,144 22.12,144 L22.12,142 Z" id="Path"></path>
            <path d="M32.33,144.72 C29.91,142.87 26.45,142.02 22.12,142.02 L22.12,144.02 C26.24,144.02 29.18,144.84 31.12,146.31 L32.33,144.72 Z" id="Path"></path>
            <path d="M35.92,153.33 C35.92,149.54 34.79,146.59 32.33,144.72 L31.11,146.31 C32.92,147.69 33.92,149.94 33.92,153.31 L35.92,153.33 Z" id="Path"></path>
            <rect id="Rectangle" x="0" y="152.24" width="2" height="17.92"></rect>
            <rect id="Rectangle" x="1" y="169.16" width="42.24" height="2"></rect>
            <rect id="Rectangle" x="42.24" y="152.24" width="2" height="17.92"></rect>
            <path d="M37.05,137.79 C40.46,141.05 42.24,145.79 42.24,152.24 L44.24,152.24 C44.24,145.44 42.35,140.09 38.43,136.35 L37.05,137.79 Z" id="Path"></path>
            <path d="M22.12,132.76 C28.69,132.76 33.61,134.48 37.04,137.76 L38.43,136.32 C34.52,132.55 29.03,130.73 22.12,130.73 L22.12,132.76 Z" id="Path"></path>
            <path d="M7.2,137.79 C10.63,134.48 15.55,132.79 22.12,132.79 L22.12,130.79 C15.21,130.79 9.72,132.61 5.81,136.38 L7.2,137.79 Z" id="Path"></path>
            <path d="M2,152.24 C2,145.81 3.78,141.05 7.19,137.79 L5.81,136.35 C1.89,140.09 0,145.44 0,152.24 L2,152.24 Z" id="Path"></path>
            <rect id="Rectangle" x="34.92" y="159.15" width="1" height="1"></rect>
            <rect id="Rectangle" x="8.32" y="159.15" width="1" height="1"></rect>
            <polygon id="Path" points="12.58 145.52 13.18 146.32 13.19 146.31 13.2 146.31"></polygon>
            <polygon id="Path" points="31.72 145.52 31.11 146.31 31.11 146.31"></polygon>
            <rect id="Rectangle" x="0" y="170.16" width="1" height="1"></rect>
            <rect id="Rectangle" x="43.24" y="170.16" width="1" height="1"></rect>
            <polygon id="Path" points="37.74 137.07 37.04 137.79 37.05 137.79"></polygon>
            <polygon id="Path" points="6.5 137.07 7.19 137.79 7.2 137.79"></polygon>
            <rect id="Rectangle" x="0" y="180.8" width="2" height="11.01"></rect>
            <rect id="Rectangle" x="1" y="190.81" width="42.24" height="2"></rect>
            <rect id="Rectangle" x="42.24" y="180.8" width="2" height="11.01"></rect>
            <rect id="Rectangle" x="1" y="179.8" width="42.24" height="2"></rect>
            <rect id="Rectangle" x="0" y="191.81" width="1" height="1"></rect>
            <rect id="Rectangle" x="43.24" y="191.81" width="1" height="1"></rect>
            <rect id="Rectangle" x="43.24" y="179.8" width="1" height="1"></rect>
            <rect id="Rectangle" x="0" y="179.8" width="1" height="1"></rect>
            <rect id="Rectangle" x="0" y="198.12" width="2" height="11.2"></rect>
            <rect id="Rectangle" transform="translate(13.832104, 213.256977) rotate(-72.950000) translate(-13.832104, -213.256977) " x="12.8321037" y="199.836977" width="2" height="26.84"></rect>
            <rect id="Rectangle" transform="translate(30.758961, 218.309489) rotate(-74.710000) translate(-30.758961, -218.309489) " x="29.7589605" y="214.064489" width="2" height="8.49"></rect>
            <rect id="Rectangle" transform="translate(30.707408, 220.585250) rotate(-15.480000) translate(-30.707408, -220.585250) " x="26.3924081" y="219.58525" width="8.63" height="2"></rect>
            <rect id="Rectangle" transform="translate(13.769703, 225.614953) rotate(-16.870000) translate(-13.769703, -225.614953) " x="0.429702562" y="224.614953" width="26.68" height="2"></rect>
            <rect id="Rectangle" x="0" y="229.48" width="2" height="11.58"></rect>
            <rect id="Rectangle" transform="translate(22.123025, 233.547329) rotate(-19.600000) translate(-22.123025, -233.547329) " x="-0.296975029" y="232.547329" width="44.84" height="2"></rect>
            <rect id="Rectangle" x="42.24" y="213.1" width="2" height="12.93"></rect>
            <rect id="Rectangle" transform="translate(22.123633, 205.603028) rotate(-70.480000) translate(-22.123633, -205.603028) " x="21.1236331" y="183.193028" width="2" height="44.82"></rect>
            <polygon id="Path" points="1 209.32 0 209.32 0 210.06 0.71 210.28"></polygon>
            <polygon id="Path" points="26.66 217.19 26.37 218.15 26.39 218.16 26.4 218.16"></polygon>
            <polygon id="Path" points="34.86 219.44 35.12 220.4 38.63 219.43 35.12 218.47"></polygon>
            <polygon id="Path" points="26.54 221.74 26.27 220.78 26.26 220.78 26.25 220.78"></polygon>
            <polygon id="Path" points="1 229.48 0.71 228.53 0 228.74 0 229.48"></polygon>
            <polygon id="Path" points="1 241.07 0 241.07 0 242.49 1.33 242.01"></polygon>
            <polygon id="Path" points="43.24 226.03 43.58 226.97 44.24 226.73 44.24 226.03"></polygon>
            <polygon id="Path" points="43.24 213.1 44.24 213.1 44.24 212.39 43.57 212.16"></polygon>
            <polygon id="Path" points="1 198.12 1.33 197.18 0 196.71 0 198.12"></polygon>
            <rect id="Rectangle" x="0" y="247.43" width="2" height="11.01"></rect>
            <rect id="Rectangle" x="1" y="257.43" width="42.24" height="2"></rect>
            <rect id="Rectangle" x="42.24" y="247.43" width="2" height="11.01"></rect>
            <rect id="Rectangle" x="1" y="246.43" width="42.24" height="2"></rect>
            <rect id="Rectangle" x="0" y="258.43" width="1" height="1"></rect>
            <rect id="Rectangle" x="43.24" y="258.43" width="1" height="1"></rect>
            <rect id="Rectangle" x="43.24" y="246.43" width="1" height="1"></rect>
            <rect id="Rectangle" x="0" y="246.43" width="1" height="1"></rect>
            <rect id="Rectangle" x="33.92" y="288.82" width="2" height="5.82"></rect>
            <rect id="Rectangle" x="9.32" y="293.64" width="25.6" height="2"></rect>
            <rect id="Rectangle" x="8.32" y="288.82" width="2" height="5.82"></rect>
            <path d="M12,280.21 C9.49,282.08 8.33,285.03 8.33,288.82 L10.33,288.82 C10.33,285.44 11.33,283.19 13.19,281.82 L12,280.21 Z" id="Path"></path>
            <path d="M22.12,277.52 C17.79,277.52 14.35,278.36 11.97,280.22 L13.2,281.8 C15.08,280.33 18,279.52 22.12,279.52 L22.12,277.52 Z" id="Path"></path>
            <path d="M32.33,280.22 C29.91,278.37 26.45,277.52 22.12,277.52 L22.12,279.52 C26.24,279.52 29.18,280.33 31.12,281.81 L32.33,280.22 Z" id="Path"></path>
            <path d="M35.92,288.82 C35.92,285.04 34.79,282.09 32.33,280.22 L31.11,281.81 C32.92,283.18 33.92,285.43 33.92,288.81 L35.92,288.82 Z" id="Path"></path>
            <rect id="Rectangle" x="0" y="287.73" width="2" height="17.92"></rect>
            <rect id="Rectangle" x="1" y="304.65" width="42.24" height="2"></rect>
            <rect id="Rectangle" x="42.24" y="287.73" width="2" height="17.92"></rect>
            <path d="M37.05,273.29 C40.46,276.54 42.24,281.29 42.24,287.73 L44.24,287.73 C44.24,280.93 42.35,275.58 38.43,271.84 L37.05,273.29 Z" id="Path"></path>
            <path d="M22.12,268.25 C28.69,268.25 33.61,269.97 37.04,273.25 L38.43,271.81 C34.52,268.04 29.03,266.22 22.12,266.22 L22.12,268.25 Z" id="Path"></path>
            <path d="M7.2,273.28 C10.63,269.97 15.55,268.28 22.12,268.28 L22.12,266.28 C15.21,266.28 9.72,268.1 5.81,271.87 L7.2,273.28 Z" id="Path"></path>
            <path d="M2,287.73 C2,281.3 3.78,276.54 7.19,273.29 L5.81,271.84 C1.89,275.58 0,280.93 0,287.73 L2,287.73 Z" id="Path"></path>
            <rect id="Rectangle" x="34.92" y="294.64" width="1" height="1"></rect>
            <rect id="Rectangle" x="8.32" y="294.64" width="1" height="1"></rect>
            <polygon id="Path" points="12.58 281.01 13.18 281.81 13.19 281.81 13.2 281.8"></polygon>
            <polygon id="Path" points="31.72 281.01 31.11 281.81 31.11 281.81"></polygon>
            <rect id="Rectangle" x="0" y="305.65" width="1" height="1"></rect>
            <rect id="Rectangle" x="43.24" y="305.65" width="1" height="1"></rect>
            <polygon id="Path" points="37.74 272.56 37.04 273.28 37.05 273.29"></polygon>
            <polygon id="Path" points="6.5 272.56 7.19 273.29 7.2 273.28"></polygon>
            <rect id="Rectangle" x="0" y="316.29" width="2" height="9.73"></rect>
            <rect id="Rectangle" x="1" y="325.02" width="21.31" height="2"></rect>
            <rect id="Rectangle" transform="translate(26.232135, 325.884565) rotate(-1.880000) translate(-26.232135, -325.884565) " x="22.3271351" y="324.884565" width="7.81" height="2"></rect>
            <rect id="Rectangle" x="29.12" y="325.76" width="2" height="1"></rect>
            <rect id="Rectangle" transform="translate(26.975784, 327.443144) rotate(-27.030000) translate(-26.975784, -327.443144) " x="23.4557842" y="326.443144" width="7.04" height="2"></rect>
            <rect id="Rectangle" transform="translate(12.449585, 335.571362) rotate(-29.870000) translate(-12.449585, -335.571362) " x="-0.725415033" y="334.571362" width="26.35" height="2"></rect>
            <rect id="Rectangle" x="0" y="342.15" width="2" height="12.22"></rect>
            <rect id="Rectangle" x="1" y="353.37" width="42.24" height="2"></rect>
            <rect id="Rectangle" x="42.24" y="344.64" width="2" height="9.73"></rect>
            <rect id="Rectangle" x="21.93" y="343.64" width="21.31" height="2"></rect>
            <rect id="Rectangle" transform="translate(18.045927, 344.773086) rotate(-1.880000) translate(-18.045927, -344.773086) " x="14.1409265" y="343.773086" width="7.81" height="2"></rect>
            <rect id="Rectangle" x="13.12" y="344.83" width="2" height="1"></rect>
            <rect id="Rectangle" transform="translate(17.247933, 343.234611) rotate(-27.030000) translate(-17.247933, -343.234611) " x="13.7279326" y="342.234611" width="7.04" height="2"></rect>
            <rect id="Rectangle" transform="translate(31.834794, 335.053565) rotate(-29.870000) translate(-31.834794, -335.053565) " x="18.659794" y="334.053565" width="26.35" height="2"></rect>
            <rect id="Rectangle" x="42.24" y="316.29" width="2" height="12.22"></rect>
            <rect id="Rectangle" x="1" y="315.29" width="42.24" height="2"></rect>
            <rect id="Rectangle" x="0" y="326.02" width="1" height="1"></rect>
            <polygon id="Path" points="22.31 326.02 22.31 327.02 22.33 327.02 22.34 327.02"></polygon>
            <polygon id="Path" points="30.12 325.76 31.12 325.76 31.12 324.73 30.09 324.76"></polygon>
            <polygon id="Path" points="30.12 325.83 30.57 326.72 31.12 326.44 31.12 325.83"></polygon>
            <polygon id="Path" points="23.85 329.02 23.39 328.13 23.37 328.15 23.35 328.16"></polygon>
            <polygon id="Path" points="1 342.15 0.5 341.28 0 341.57 0 342.15"></polygon>
            <rect id="Rectangle" x="0" y="354.37" width="1" height="1"></rect>
            <rect id="Rectangle" x="43.24" y="354.37" width="1" height="1"></rect>
            <rect id="Rectangle" x="43.24" y="343.64" width="1" height="1"></rect>
            <polygon id="Path" points="21.93 344.64 21.93 343.64 21.91 343.64 21.89 343.64"></polygon>
            <polygon id="Path" points="14.12 344.9 13.12 344.9 13.12 345.93 14.15 345.9"></polygon>
            <polygon id="Path" points="14.12 344.83 13.67 343.94 13.12 344.22 13.12 344.83"></polygon>
            <polygon id="Path" points="20.39 341.63 20.85 342.52 20.87 342.51 20.89 342.5"></polygon>
            <polygon id="Path" points="43.24 328.51 43.74 329.38 44.24 329.09 44.24 328.51"></polygon>
            <rect id="Rectangle" x="43.24" y="315.29" width="1" height="1"></rect>
            <rect id="Rectangle" x="0" y="315.29" width="1" height="1"></rect>
            <rect id="Rectangle" x="0" y="365.02" width="2" height="11.01"></rect>
            <rect id="Rectangle" x="1" y="375.02" width="42.24" height="2"></rect>
            <rect id="Rectangle" x="42.24" y="365.02" width="2" height="11.01"></rect>
            <rect id="Rectangle" x="1" y="364.02" width="42.24" height="2"></rect>
            <rect id="Rectangle" x="0" y="376.02" width="1" height="1"></rect>
            <rect id="Rectangle" x="43.24" y="376.02" width="1" height="1"></rect>
            <rect id="Rectangle" x="43.24" y="364.02" width="1" height="1"></rect>
            <rect id="Rectangle" x="0" y="364.02" width="1" height="1"></rect>
            <path d="M34.41,22.18 L34.41,1 L42.92,1 L42.92,33.19 L0.68,33.19 L0.68,22.19 L34.41,22.18 Z M33.41,72.54 L25.9,72.54 L25.9,49.05 L33.38,49.05 L33.41,72.54 Z M42.95,82.2 L0.68,67.35 L0.68,54.17 L42.92,39.38 L42.92,50.71 L15.78,59 L9.13,60.82 L9.13,61 L15.72,62.73 L42.92,71.18 L42.95,82.2 Z M0.68,86 L25.68,86 C31.68,86 36.16,87.6 39.12,90.8 C42.08,94 43.5533333,98.6933333 43.5400897,104.88 C43.5400897,111.066667 42.0666667,115.76 39.12,118.96 C36.1733333,122.16 31.6933333,123.76 25.68,123.76 L0.68,123.76 L0.68,112.7 L25.9,112.7 C28.9333333,112.7 31.1933333,112.06 32.68,110.78 C34.2587697,109.243095 35.078515,107.087604 34.92,104.89 C34.92,102.25 34.17,100.28 32.68,99 C31.19,97.72 28.93,97 25.9,97 L0.68,97 L0.68,86 Z M34.6,153.33 C34.6,149.736667 33.5333333,147.133333 31.4,145.52 C29.2666667,143.906667 26.0666667,143.066667 21.8,143 C17.58,143 14.4,143.833333 12.26,145.5 C10.12,147.166667 9.03333333,149.776667 9,153.33 L9,159.15 L34.6,159.15 L34.6,153.33 Z M0.68,152.24 C0.68,145.62 2.51333333,140.563333 6.18,137.07 C9.84666667,133.576667 15.0533333,131.806667 21.8,131.76 C28.54,131.76 33.7466667,133.53 37.42,137.07 C41.0933333,140.61 42.9266667,145.666667 42.9200181,152.24 L42.9200181,170.16 L0.68,170.16 L0.68,152.24 Z M0.68,180.8 L42.92,180.8 L42.92,191.8 L0.68,191.8 L0.68,180.8 Z M0.68,198.12 L42.92,213.12 L42.92,226 L0.68,241 L0.68,229.48 L26.22,221.74 L34.54,219.44 L26.34,217.2 L0.68,209.32 L0.68,198.12 Z M0.68,247.43 L42.92,247.43 L42.92,258.43 L0.68,258.43 L0.68,247.43 Z M34.6,288.82 C34.6,285.24 33.53,282.63 31.4,281.01 C29.27,279.39 26.02,278.52 21.8,278.52 C17.58,278.52 14.4,279.35 12.26,281.01 C10.12,282.67 9,285.24 9,288.82 L9,294.64 L34.6,294.64 L34.6,288.82 Z M0.68,287.73 C0.68,281.116667 2.51333333,276.06 6.18,272.56 C9.84666667,269.06 15.0533333,267.29 21.8,267.25 C28.54,267.25 33.7466667,269.02 37.42,272.56 C41.0933333,276.1 42.9266667,281.156667 42.9200181,287.73 L42.9200181,305.65 L0.68,305.65 L0.68,287.73 Z M0.68,316.29 L42.92,316.29 L42.92,328.51 L20.07,341.63 L13.8,344.83 L13.8,344.9 L21.61,344.64 L42.92,344.64 L42.92,354.37 L0.68,354.37 L0.68,342.15 L23.53,329 L29.8,325.8 L29.8,325.73 L22,326 L0.68,326 L0.68,316.29 Z M0.68,365 L42.92,365 L42.92,376 L0.68,376 L0.68,365 Z" id="Shape"></path>
            <rect id="Rectangle" x="98.7" y="267.65" width="2" height="15.56"></rect>
            <polygon id="Path" points="108.24 286.3 108.24 296.63 110.24 296.63 110.24 284.82 98.7 281.24 98.7 283.33"></polygon>
            <polygon id="Path" points="108.24 253.81 108.24 264.4 98.7 267.3 98.7 269.39 110.24 265.88 110.24 253.81"></polygon>
            <rect id="Rectangle" transform="translate(88.118738, 261.206550) rotate(-19.290000) translate(-88.118738, -261.206550) " x="65.7437381" y="260.20655" width="44.75" height="2"></rect>
            <rect id="Rectangle" x="66" y="268.6" width="2" height="13.18"></rect>
            <rect id="Rectangle" transform="translate(88.121485, 289.217722) rotate(-70.630000) translate(-88.121485, -289.217722) " x="87.1214848" y="266.832722" width="2" height="44.77"></rect>
            <polygon id="Path" points="91.22 281.01 93.22 281.63 93.22 268.95 75.18 274.29 74.45 274.5 74.45 275.25 74.45 275.38 74.45 276.15 91.22 281.01 91.22 278.91 79.04 275.29 91.22 271.67"></polygon>
            <polygon id="Path" points="109.24 253.81 110.24 253.81 110.24 252.41 108.91 252.87"></polygon>
            <polygon id="Path" points="67 268.6 66.67 267.65 66 267.89 66 268.6"></polygon>
            <polygon id="Path" points="67 281.78 66 281.78 66 282.49 66.67 282.73"></polygon>
            <polygon id="Path" points="109.24 296.63 108.91 297.57 110.24 298.04 110.24 296.63"></polygon>
            <rect id="Rectangle" x="32.7" y="53.22" width="2" height="15.56"></rect>
            <polygon id="Path" points="42.24 71.86 42.24 82.2 44.24 82.2 44.24 70.39 32.7 66.81 32.7 68.9"></polygon>
            <polygon id="Path" points="42.24 39.38 42.24 49.97 32.7 52.87 32.7 54.96 44.24 51.45 44.24 39.38"></polygon>
            <rect id="Rectangle" transform="translate(22.117191, 46.778024) rotate(-19.290000) translate(-22.117191, -46.778024) " x="-0.257809305" y="45.7780236" width="44.75" height="2"></rect>
            <rect id="Rectangle" x="0" y="54.17" width="2" height="13.18"></rect>
            <rect id="Rectangle" transform="translate(22.118948, 74.782487) rotate(-70.630000) translate(-22.118948, -74.782487) " x="21.1189482" y="52.3974867" width="2" height="44.77"></rect>
            <polygon id="Path" points="25.22 66.58 27.22 67.2 27.22 54.52 9.18 59.86 8.45 60.06 8.45 60.83 8.45 60.95 8.45 61.72 25.22 66.58 25.22 64.48 13.04 60.86 25.22 57.24"></polygon>
            <polygon id="Path" points="43.24 39.38 44.24 39.38 44.24 37.98 42.91 38.44"></polygon>
            <polygon id="Path" points="1 54.17 0.67 53.23 0 53.46 0 54.17"></polygon>
            <polygon id="Path" points="1 67.35 0 67.35 0 68.06 0.67 68.3"></polygon>
            <polygon id="Path" points="43.24 82.2 42.91 83.14 44.24 83.61 44.24 82.2"></polygon>
        </g>
    </g>
</svg>