<svg xmlns="http://www.w3.org/2000/svg" viewBox="0 0 110.24 377.02"><defs><style>.cls-1{fill:#fff;}</style></defs><g id="Layer_2" data-name="Layer 2"><g id="Layer_1-2" data-name="Layer 1"><rect class="cls-1" x="66" y="209.54" width="2" height="9.73"/><rect class="cls-1" x="67" y="218.27" width="21.31" height="2"/><rect class="cls-1" x="88.31" y="218.14" width="7.81" height="2" transform="translate(-7.13 3.14) rotate(-1.88)"/><rect class="cls-1" x="95.12" y="219.01" width="2" height="0.06"/><rect class="cls-1" x="89.46" y="219.68" width="7.04" height="2" transform="translate(-90.14 66.37) rotate(-27.03)"/><rect class="cls-1" x="65.25" y="227.84" width="26.35" height="2" transform="translate(-103.54 69.44) rotate(-29.87)"/><rect class="cls-1" x="66" y="235.4" width="2" height="12.22"/><rect class="cls-1" x="67" y="246.62" width="42.24" height="2"/><rect class="cls-1" x="108.24" y="237.89" width="2" height="9.73"/><rect class="cls-1" x="87.93" y="236.89" width="21.31" height="2"/><rect class="cls-1" x="80.12" y="237.02" width="7.81" height="2" transform="translate(-7.75 2.88) rotate(-1.88)"/><rect class="cls-1" x="79.12" y="238.09" width="2" height="0.06"/><rect class="cls-1" x="79.74" y="235.49" width="7.04" height="2" transform="translate(-98.39 63.68) rotate(-27.03)"/><rect class="cls-1" x="84.64" y="227.33" width="26.35" height="2" transform="translate(-100.71 79.03) rotate(-29.87)"/><rect class="cls-1" x="108.24" y="209.54" width="2" height="12.22"/><rect class="cls-1" x="67" y="208.54" width="42.24" height="2"/><rect class="cls-1" x="66" y="219.27" width="1" height="1"/><polygon class="cls-1" points="88.31 219.27 88.31 220.27 88.33 220.27 88.34 220.27 88.31 219.27"/><polygon class="cls-1" points="96.12 219.01 97.12 219.01 97.12 217.98 96.09 218.01 96.12 219.01"/><polygon class="cls-1" points="96.12 219.08 96.57 219.97 97.12 219.69 97.12 219.08 96.12 219.08"/><polygon class="cls-1" points="89.85 222.28 89.39 221.39 89.37 221.4 89.35 221.41 89.85 222.28"/><polygon class="cls-1" points="67 235.4 66.5 234.53 66 234.82 66 235.4 67 235.4"/><rect class="cls-1" x="66" y="247.62" width="1" height="1"/><rect class="cls-1" x="109.24" y="247.62" width="1" height="1"/><rect class="cls-1" x="109.24" y="236.89" width="1" height="1"/><polygon class="cls-1" points="87.93 237.89 87.93 236.89 87.91 236.89 87.89 236.9 87.93 237.89"/><polygon class="cls-1" points="80.12 238.15 79.12 238.15 79.12 239.18 80.15 239.15 80.12 238.15"/><polygon class="cls-1" points="80.12 238.09 79.67 237.19 79.12 237.47 79.12 238.09 80.12 238.09"/><polygon class="cls-1" points="86.39 234.89 86.85 235.78 86.87 235.77 86.89 235.75 86.39 234.89"/><polygon class="cls-1" points="109.24 221.77 109.74 222.63 110.24 222.34 110.24 221.77 109.24 221.77"/><rect class="cls-1" x="109.24" y="208.54" width="1" height="1"/><rect class="cls-1" x="66" y="208.54" width="1" height="1"/><rect class="cls-1" x="67" y="319.99" width="33.73" height="2"/><rect class="cls-1" x="66" y="320.99" width="2" height="11.01"/><rect class="cls-1" x="67" y="330.99" width="42.24" height="2"/><rect class="cls-1" x="108.24" y="299.8" width="2" height="32.19"/><rect class="cls-1" x="100.73" y="298.8" width="8.51" height="2"/><rect class="cls-1" x="99.73" y="299.8" width="2" height="21.18"/><rect class="cls-1" x="66" y="319.99" width="1" height="1"/><rect class="cls-1" x="66" y="331.99" width="1" height="1"/><rect class="cls-1" x="109.24" y="331.99" width="1" height="1"/><rect class="cls-1" x="109.24" y="298.8" width="1" height="1"/><rect class="cls-1" x="99.73" y="298.8" width="1" height="1"/><rect class="cls-1" x="100.73" y="320.99" width="1" height="1"/><rect class="cls-1" x="85.9" y="358.36" width="2" height="6.66"/><rect class="cls-1" x="75.26" y="364.02" width="11.65" height="2"/><rect class="cls-1" x="74.26" y="358.36" width="2" height="6.66"/><path class="cls-1" d="M76,352.53a8.77,8.77,0,0,0-1.71,5.83h2c0-2.19.46-3.64,1.23-4.53Z"/><path class="cls-1" d="M81.08,350.38a6.2,6.2,0,0,0-5.14,2.18l1.57,1.23a4.24,4.24,0,0,1,3.57-1.41Z"/><path class="cls-1" d="M86.27,352.54a6.4,6.4,0,0,0-5.19-2.16v2a4.4,4.4,0,0,1,3.64,1.43Z"/><path class="cls-1" d="M87.9,358.36a9,9,0,0,0-1.63-5.82l-1.55,1.27a7.15,7.15,0,0,1,1.18,4.55Z"/><rect class="cls-1" x="66" y="356.63" width="2" height="19.39"/><rect class="cls-1" x="67" y="375.02" width="42.24" height="2"/><rect class="cls-1" x="108.24" y="365.02" width="2" height="11.01"/><rect class="cls-1" x="95.16" y="364.02" width="14.08" height="2"/><rect class="cls-1" x="94.16" y="356.63" width="2" height="8.38"/><path class="cls-1" d="M92.59,348.22a20.23,20.23,0,0,1,1.57,8.41h2a22.18,22.18,0,0,0-1.75-9.24Z"/><path class="cls-1" d="M88.17,343.09a11.3,11.3,0,0,1,4.42,5.13l1.82-.83a13.37,13.37,0,0,0-5.19-6Z"/><path class="cls-1" d="M81.08,341.31a13.27,13.27,0,0,1,7.09,1.78l1-1.71a15.28,15.28,0,0,0-8.14-2.07Z"/><path class="cls-1" d="M74,343.09a13.27,13.27,0,0,1,7.09-1.78v-2a15.28,15.28,0,0,0-8.14,2.07Z"/><path class="cls-1" d="M69.57,348.22A11.3,11.3,0,0,1,74,343.09l-1-1.71a13.37,13.37,0,0,0-5.19,6Z"/><path class="cls-1" d="M68,356.63a20.23,20.23,0,0,1,1.57-8.41l-1.82-.83A22.18,22.18,0,0,0,66,356.63Z"/><rect class="cls-1" x="86.9" y="365.02" width="1" height="1"/><rect class="cls-1" x="74.26" y="365.02" width="1" height="1"/><polygon class="cls-1" points="76.73 353.18 77.49 353.82 77.5 353.81 77.51 353.79 76.73 353.18"/><polygon class="cls-1" points="85.5 353.18 86.27 352.55 86.27 352.54 85.5 353.18"/><rect class="cls-1" x="66" y="376.02" width="1" height="1"/><rect class="cls-1" x="109.24" y="376.02" width="1" height="1"/><rect class="cls-1" x="109.24" y="364.02" width="1" height="1"/><rect class="cls-1" x="94.16" y="365.02" width="1" height="1"/><path class="cls-1" d="M93.5,347.8l-.91.42Z"/><path class="cls-1" d="M88.7,342.23l-.53.86Z"/><path class="cls-1" d="M73.46,342.23l.53.86Z"/><path class="cls-1" d="M68.66,347.8l.91.42Z"/><rect class="cls-1" x="1" y="21.18" width="33.73" height="2"/><rect class="cls-1" y="22.18" width="2" height="11.01"/><rect class="cls-1" x="1" y="32.19" width="42.24" height="2"/><rect class="cls-1" x="42.24" y="1" width="2" height="32.19"/><rect class="cls-1" x="34.73" width="8.51" height="2"/><rect class="cls-1" x="33.73" y="1" width="2" height="21.18"/><rect class="cls-1" y="21.18" width="1" height="1"/><rect class="cls-1" y="33.19" width="1" height="1"/><rect class="cls-1" x="43.24" y="33.19" width="1" height="1"/><rect class="cls-1" x="43.24" width="1" height="1"/><rect class="cls-1" x="33.73" width="1" height="1"/><rect class="cls-1" x="34.73" y="22.18" width="1" height="1"/><rect class="cls-1" y="86.01" width="2" height="11.01"/><rect class="cls-1" x="1" y="96.02" width="25.22" height="2"/><path class="cls-1" d="M33.66,98.25C31.91,96.7,29.37,96,26.22,96v2c2.9,0,4.88.64,6.12,1.73Z"/><path class="cls-1" d="M36.24,104.89c0-2.83-.8-5.12-2.59-6.65l-1.3,1.52c1.2,1,1.89,2.67,1.89,5.13Z"/><path class="cls-1" d="M33.66,111.53a8.45,8.45,0,0,0,2.58-6.64h-2c0,2.41-.68,4.06-1.9,5.14Z"/><path class="cls-1" d="M26.22,113.7c3.14,0,5.68-.66,7.43-2.16L32.35,110c-1.24,1.06-3.22,1.68-6.13,1.68Z"/><rect class="cls-1" x="1" y="111.7" width="25.22" height="2"/><rect class="cls-1" y="112.7" width="2" height="11.07"/><rect class="cls-1" x="1" y="122.77" width="25.02" height="2"/><path class="cls-1" d="M38.73,118.29c-2.73,2.93-6.91,4.48-12.71,4.48v2c6.15,0,10.94-1.65,14.18-5.12Z"/><path class="cls-1" d="M42.88,104.89c0,6-1.44,10.45-4.15,13.4l1.47,1.36c3.17-3.45,4.68-8.43,4.68-14.76Z"/><path class="cls-1" d="M38.73,91.49c2.71,2.91,4.15,7.31,4.15,13.4h2c0-6.37-1.5-11.35-4.68-14.76Z"/><path class="cls-1" d="M26,87c5.8,0,10,1.55,12.71,4.48l1.47-1.36C37,86.66,32.17,85,26,85Z"/><rect class="cls-1" x="1" y="85.01" width="25.02" height="2"/><rect class="cls-1" y="97.02" width="1" height="1"/><polygon class="cls-1" points="33 99 32.34 99.75 32.34 99.76 32.35 99.76 33 99"/><polygon class="cls-1" points="33 110.78 33.65 111.54 33.66 111.53 33.66 111.53 33 110.78"/><rect class="cls-1" y="111.7" width="1" height="1"/><rect class="cls-1" y="123.77" width="1" height="1"/><polygon class="cls-1" points="39.46 118.97 40.2 119.65 40.2 119.65 39.46 118.97"/><polygon class="cls-1" points="39.46 90.81 40.2 90.13 40.2 90.13 39.46 90.81"/><rect class="cls-1" y="85.01" width="1" height="1"/><rect class="cls-1" x="33.92" y="153.33" width="2" height="5.82"/><rect class="cls-1" x="9.32" y="158.15" width="25.6" height="2"/><rect class="cls-1" x="8.32" y="153.33" width="2" height="5.82"/><path class="cls-1" d="M12,144.72c-2.51,1.86-3.67,4.82-3.67,8.61h2c0-3.38,1-5.64,2.86-7Z"/><path class="cls-1" d="M22.12,142c-4.33,0-7.77.85-10.15,2.71l1.23,1.58c1.88-1.47,4.8-2.29,8.92-2.29Z"/><path class="cls-1" d="M32.33,144.72c-2.42-1.85-5.88-2.7-10.21-2.7v2c4.12,0,7.06.82,9,2.29Z"/><path class="cls-1" d="M35.92,153.33c0-3.79-1.13-6.74-3.59-8.61l-1.22,1.59c1.81,1.38,2.81,3.63,2.81,7Z"/><rect class="cls-1" y="152.24" width="2" height="17.92"/><rect class="cls-1" x="1" y="169.16" width="42.24" height="2"/><rect class="cls-1" x="42.24" y="152.24" width="2" height="17.92"/><path class="cls-1" d="M37.05,137.79c3.41,3.26,5.19,8,5.19,14.45h2c0-6.8-1.89-12.15-5.81-15.89Z"/><path class="cls-1" d="M22.12,132.76c6.57,0,11.49,1.72,14.92,5l1.39-1.44c-3.91-3.77-9.4-5.59-16.31-5.59Z"/><path class="cls-1" d="M7.2,137.79c3.43-3.31,8.35-5,14.92-5v-2c-6.91,0-12.4,1.82-16.31,5.59Z"/><path class="cls-1" d="M2,152.24c0-6.43,1.78-11.19,5.19-14.45l-1.38-1.44C1.89,140.09,0,145.44,0,152.24Z"/><rect class="cls-1" x="34.92" y="159.15" width="1" height="1"/><rect class="cls-1" x="8.32" y="159.15" width="1" height="1"/><polygon class="cls-1" points="12.58 145.52 13.18 146.32 13.19 146.31 13.2 146.31 12.58 145.52"/><polygon class="cls-1" points="31.72 145.52 31.11 146.31 31.11 146.31 31.72 145.52"/><rect class="cls-1" y="170.16" width="1" height="1"/><rect class="cls-1" x="43.24" y="170.16" width="1" height="1"/><polygon class="cls-1" points="37.74 137.07 37.04 137.79 37.05 137.79 37.74 137.07"/><polygon class="cls-1" points="6.5 137.07 7.19 137.79 7.2 137.79 6.5 137.07"/><rect class="cls-1" y="180.8" width="2" height="11.01"/><rect class="cls-1" x="1" y="190.81" width="42.24" height="2"/><rect class="cls-1" x="42.24" y="180.8" width="2" height="11.01"/><rect class="cls-1" x="1" y="179.8" width="42.24" height="2"/><rect class="cls-1" y="191.81" width="1" height="1"/><rect class="cls-1" x="43.24" y="191.81" width="1" height="1"/><rect class="cls-1" x="43.24" y="179.8" width="1" height="1"/><rect class="cls-1" y="179.8" width="1" height="1"/><rect class="cls-1" y="198.12" width="2" height="11.2"/><rect class="cls-1" x="12.83" y="199.84" width="2" height="26.84" transform="translate(-194.11 163.95) rotate(-72.95)"/><rect class="cls-1" x="29.76" y="214.07" width="2" height="8.49" transform="translate(-187.94 190.41) rotate(-74.71)"/><rect class="cls-1" x="26.38" y="219.59" width="8.63" height="2" transform="translate(-57.75 16.19) rotate(-15.48)"/><rect class="cls-1" x="0.43" y="224.61" width="26.68" height="2" transform="translate(-64.88 13.71) rotate(-16.87)"/><rect class="cls-1" y="229.48" width="2" height="11.58"/><rect class="cls-1" x="-0.3" y="232.55" width="44.84" height="2" transform="translate(-77.06 20.95) rotate(-19.6)"/><rect class="cls-1" x="42.24" y="213.1" width="2" height="12.93"/><rect class="cls-1" x="21.12" y="183.2" width="2" height="44.82" transform="translate(-179.06 157.75) rotate(-70.48)"/><polygon class="cls-1" points="1 209.32 0 209.32 0 210.06 0.71 210.28 1 209.32"/><polygon class="cls-1" points="26.66 217.19 26.37 218.15 26.39 218.16 26.4 218.16 26.66 217.19"/><polygon class="cls-1" points="34.86 219.44 35.12 220.4 38.63 219.43 35.12 218.47 34.86 219.44"/><polygon class="cls-1" points="26.54 221.74 26.27 220.78 26.26 220.78 26.25 220.78 26.54 221.74"/><polygon class="cls-1" points="1 229.48 0.71 228.53 0 228.74 0 229.48 1 229.48"/><polygon class="cls-1" points="1 241.07 0 241.07 0 242.49 1.33 242.01 1 241.07"/><polygon class="cls-1" points="43.24 226.03 43.58 226.97 44.24 226.73 44.24 226.03 43.24 226.03"/><polygon class="cls-1" points="43.24 213.1 44.24 213.1 44.24 212.39 43.57 212.16 43.24 213.1"/><polygon class="cls-1" points="1 198.12 1.33 197.18 0 196.71 0 198.12 1 198.12"/><rect class="cls-1" y="247.43" width="2" height="11.01"/><rect class="cls-1" x="1" y="257.43" width="42.24" height="2"/><rect class="cls-1" x="42.24" y="247.43" width="2" height="11.01"/><rect class="cls-1" x="1" y="246.43" width="42.24" height="2"/><rect class="cls-1" y="258.43" width="1" height="1"/><rect class="cls-1" x="43.24" y="258.43" width="1" height="1"/><rect class="cls-1" x="43.24" y="246.43" width="1" height="1"/><rect class="cls-1" y="246.43" width="1" height="1"/><rect class="cls-1" x="33.92" y="288.82" width="2" height="5.82"/><rect class="cls-1" x="9.32" y="293.64" width="25.6" height="2"/><rect class="cls-1" x="8.32" y="288.82" width="2" height="5.82"/><path class="cls-1" d="M12,280.21c-2.51,1.87-3.67,4.82-3.67,8.61h2c0-3.38,1-5.63,2.86-7Z"/><path class="cls-1" d="M22.12,277.52c-4.33,0-7.77.84-10.15,2.7l1.23,1.58c1.88-1.47,4.8-2.28,8.92-2.28Z"/><path class="cls-1" d="M32.33,280.22c-2.42-1.85-5.88-2.7-10.21-2.7v2c4.12,0,7.06.81,9,2.29Z"/><path class="cls-1" d="M35.92,288.82c0-3.78-1.13-6.73-3.59-8.6l-1.22,1.59c1.81,1.37,2.81,3.62,2.81,7Z"/><rect class="cls-1" y="287.73" width="2" height="17.92"/><rect class="cls-1" x="1" y="304.65" width="42.24" height="2"/><rect class="cls-1" x="42.24" y="287.73" width="2" height="17.92"/><path class="cls-1" d="M37.05,273.29c3.41,3.25,5.19,8,5.19,14.44h2c0-6.8-1.89-12.15-5.81-15.89Z"/><path class="cls-1" d="M22.12,268.25c6.57,0,11.49,1.72,14.92,5l1.39-1.44c-3.91-3.77-9.4-5.59-16.31-5.59Z"/><path class="cls-1" d="M7.2,273.28c3.43-3.31,8.35-5,14.92-5v-2c-6.91,0-12.4,1.82-16.31,5.59Z"/><path class="cls-1" d="M2,287.73c0-6.43,1.78-11.19,5.19-14.44l-1.38-1.45C1.89,275.58,0,280.93,0,287.73Z"/><rect class="cls-1" x="34.92" y="294.64" width="1" height="1"/><rect class="cls-1" x="8.32" y="294.64" width="1" height="1"/><polygon class="cls-1" points="12.58 281.01 13.18 281.81 13.19 281.81 13.2 281.8 12.58 281.01"/><polygon class="cls-1" points="31.72 281.01 31.11 281.81 31.11 281.81 31.72 281.01"/><rect class="cls-1" y="305.65" width="1" height="1"/><rect class="cls-1" x="43.24" y="305.65" width="1" height="1"/><polygon class="cls-1" points="37.74 272.56 37.04 273.28 37.05 273.29 37.74 272.56"/><polygon class="cls-1" points="6.5 272.56 7.19 273.29 7.2 273.28 6.5 272.56"/><rect class="cls-1" y="316.29" width="2" height="9.73"/><rect class="cls-1" x="1" y="325.02" width="21.31" height="2"/><rect class="cls-1" x="22.31" y="324.89" width="7.81" height="2" transform="translate(-10.66 1.03) rotate(-1.88)"/><rect class="cls-1" x="29.12" y="325.76" width="2" height="0.06"/><rect class="cls-1" x="23.46" y="326.43" width="7.04" height="2" transform="translate(-145.86 48.04) rotate(-27.03)"/><rect class="cls-1" x="-0.75" y="334.59" width="26.35" height="2" transform="translate(-165.46 50.75) rotate(-29.87)"/><rect class="cls-1" y="342.15" width="2" height="12.22"/><rect class="cls-1" x="1" y="353.37" width="42.24" height="2"/><rect class="cls-1" x="42.24" y="344.64" width="2" height="9.73"/><rect class="cls-1" x="21.93" y="343.64" width="21.31" height="2"/><rect class="cls-1" x="14.12" y="343.77" width="7.81" height="2" transform="translate(-11.28 0.78) rotate(-1.88)"/><rect class="cls-1" x="13.12" y="344.83" width="2" height="0.06"/><rect class="cls-1" x="13.74" y="342.23" width="7.04" height="2" transform="translate(-154.11 45.34) rotate(-27.03)"/><rect class="cls-1" x="18.64" y="334.07" width="26.35" height="2" transform="translate(-162.63 60.34) rotate(-29.87)"/><rect class="cls-1" x="42.24" y="316.29" width="2" height="12.22"/><rect class="cls-1" x="1" y="315.29" width="42.24" height="2"/><rect class="cls-1" y="326.02" width="1" height="1"/><polygon class="cls-1" points="22.31 326.02 22.31 327.02 22.33 327.02 22.34 327.02 22.31 326.02"/><polygon class="cls-1" points="30.12 325.76 31.12 325.76 31.12 324.73 30.09 324.76 30.12 325.76"/><polygon class="cls-1" points="30.12 325.83 30.57 326.72 31.12 326.44 31.12 325.83 30.12 325.83"/><polygon class="cls-1" points="23.85 329.02 23.39 328.13 23.37 328.15 23.35 328.16 23.85 329.02"/><polygon class="cls-1" points="1 342.15 0.5 341.28 0 341.57 0 342.15 1 342.15"/><rect class="cls-1" y="354.37" width="1" height="1"/><rect class="cls-1" x="43.24" y="354.37" width="1" height="1"/><rect class="cls-1" x="43.24" y="343.64" width="1" height="1"/><polygon class="cls-1" points="21.93 344.64 21.93 343.64 21.91 343.64 21.89 343.64 21.93 344.64"/><polygon class="cls-1" points="14.12 344.9 13.12 344.9 13.12 345.93 14.15 345.9 14.12 344.9"/><polygon class="cls-1" points="14.12 344.83 13.67 343.94 13.12 344.22 13.12 344.83 14.12 344.83"/><polygon class="cls-1" points="20.39 341.63 20.85 342.52 20.87 342.51 20.89 342.5 20.39 341.63"/><polygon class="cls-1" points="43.24 328.51 43.74 329.38 44.24 329.09 44.24 328.51 43.24 328.51"/><rect class="cls-1" x="43.24" y="315.29" width="1" height="1"/><rect class="cls-1" y="315.29" width="1" height="1"/><rect class="cls-1" y="365.02" width="2" height="11.01"/><rect class="cls-1" x="1" y="375.02" width="42.24" height="2"/><rect class="cls-1" x="42.24" y="365.02" width="2" height="11.01"/><rect class="cls-1" x="1" y="364.02" width="42.24" height="2"/><rect class="cls-1" y="376.02" width="1" height="1"/><rect class="cls-1" x="43.24" y="376.02" width="1" height="1"/><rect class="cls-1" x="43.24" y="364.02" width="1" height="1"/><rect class="cls-1" y="364.02" width="1" height="1"/><path class="cls-1" d="M34.41,22.18V1h8.51V33.19H.68v-11Zm-1,50.36H25.9V49.05h7.48Zm9.54,9.66L.68,67.35V54.17L42.92,39.38V50.71L15.78,59,9.13,60.82V61l6.59,1.73,27.2,8.45ZM.68,86h25q9,0,13.44,4.8t4.42,14.08q0,9.28-4.42,14.08t-13.44,4.8H.68V112.7H25.9q4.55,0,6.78-1.92a7.47,7.47,0,0,0,2.24-5.89c0-2.64-.75-4.61-2.24-5.89s-3.75-2-6.78-2H.68ZM34.6,153.33q0-5.39-3.2-7.81T21.8,143q-6.33,0-9.54,2.5T9,153.33v5.82H34.6ZM.68,152.24q0-9.93,5.5-15.17t15.62-5.31q10.11,0,15.62,5.31t5.5,15.17v17.92H.68Zm0,28.56H42.92v11H.68Zm0,17.32,42.24,15V226l-42.24,15V229.48l25.54-7.74,8.32-2.3-8.2-2.24L.68,209.32Zm0,49.31H42.92v11H.68ZM34.6,288.82c0-3.58-1.07-6.19-3.2-7.81s-5.38-2.49-9.6-2.49-7.4.83-9.54,2.49S9,285.24,9,288.82v5.82H34.6ZM.68,287.73q0-9.92,5.5-15.17t15.62-5.31q10.11,0,15.62,5.31t5.5,15.17v17.92H.68Zm0,28.56H42.92v12.22L20.07,341.63l-6.27,3.2v.07l7.81-.26H42.92v9.73H.68V342.15L23.53,329l6.27-3.2v-.07L22,326H.68ZM.68,365H42.92v11H.68Z"/><rect class="cls-1" x="98.7" y="267.65" width="2" height="15.56"/><polygon class="cls-1" points="108.24 286.3 108.24 296.63 110.24 296.63 110.24 284.82 98.7 281.24 98.7 283.33 108.24 286.3"/><polygon class="cls-1" points="108.24 253.81 108.24 264.4 98.7 267.3 98.7 269.39 110.24 265.88 110.24 253.81 108.24 253.81"/><rect class="cls-1" x="65.74" y="260.21" width="44.75" height="2" transform="translate(-81.34 43.77) rotate(-19.29)"/><rect class="cls-1" x="66" y="268.6" width="2" height="13.18"/><rect class="cls-1" x="87.12" y="266.82" width="2" height="44.77" transform="translate(-213.94 276.43) rotate(-70.63)"/><polygon class="cls-1" points="91.22 281.01 93.22 281.63 93.22 268.95 75.18 274.29 74.45 274.5 74.45 275.25 74.45 275.38 74.45 276.15 91.22 281.01 91.22 278.91 79.04 275.29 91.22 271.67 91.22 281.01"/><polygon class="cls-1" points="109.24 253.81 110.24 253.81 110.24 252.41 108.91 252.87 109.24 253.81"/><polygon class="cls-1" points="67 268.6 66.67 267.65 66 267.89 66 268.6 67 268.6"/><polygon class="cls-1" points="67 281.78 66 281.78 66 282.49 66.67 282.73 67 281.78"/><polygon class="cls-1" points="109.24 296.63 108.91 297.57 110.24 298.04 110.24 296.63 109.24 296.63"/><rect class="cls-1" x="32.7" y="53.22" width="2" height="15.56"/><polygon class="cls-1" points="42.24 71.86 42.24 82.2 44.24 82.2 44.24 70.39 32.7 66.81 32.7 68.9 42.24 71.86"/><polygon class="cls-1" points="42.24 39.38 42.24 49.97 32.7 52.87 32.7 54.96 44.24 51.45 44.24 39.38 42.24 39.38"/><rect class="cls-1" x="-0.26" y="45.78" width="44.75" height="2" transform="translate(-14.21 9.93) rotate(-19.29)"/><rect class="cls-1" y="54.17" width="2" height="13.18"/><rect class="cls-1" x="21.12" y="52.39" width="2" height="44.77" transform="translate(-55.76 70.85) rotate(-70.63)"/><polygon class="cls-1" points="25.22 66.58 27.22 67.2 27.22 54.52 9.18 59.86 8.45 60.06 8.45 60.83 8.45 60.95 8.45 61.72 25.22 66.58 25.22 64.48 13.04 60.86 25.22 57.24 25.22 66.58"/><polygon class="cls-1" points="43.24 39.38 44.24 39.38 44.24 37.98 42.91 38.44 43.24 39.38"/><polygon class="cls-1" points="1 54.17 0.67 53.23 0 53.46 0 54.17 1 54.17"/><polygon class="cls-1" points="1 67.35 0 67.35 0 68.06 0.67 68.3 1 67.35"/><polygon class="cls-1" points="43.24 82.2 42.91 83.14 44.24 83.61 44.24 82.2 43.24 82.2"/></g></g></svg>