<svg xmlns="http://www.w3.org/2000/svg" viewBox="0 0 65.83 179.78"><defs><style>.cls-1{fill:#e9f75f;}</style></defs><g id="Layer_2" data-name="Layer 2"><g id="Layer_1-2" data-name="Layer 1"><rect class="cls-1" x="39.33" y="70.55" width="1.2" height="9.01"/><rect class="cls-1" x="45.79" y="74.78" width="1.2" height="13.51" transform="translate(-45.15 102.07) rotate(-73)"/><rect class="cls-1" x="54.92" y="81.48" width="1.2" height="5.53" transform="translate(-40.38 115.58) rotate(-74.71)"/><rect class="cls-1" x="57.58" y="84.97" width="1.2" height="0.08"/><rect class="cls-1" x="52.72" y="85.16" width="5.55" height="1.2" transform="matrix(0.97, -0.26, 0.26, 0.97, -20.07, 17.03)"/><rect class="cls-1" x="39.63" y="87.86" width="13.49" height="1.2" transform="translate(-24.08 17.67) rotate(-17.2)"/><rect class="cls-1" x="39.33" y="90.45" width="1.2" height="9.39"/><rect class="cls-1" x="39.93" y="99.25" width="25.31" height="1.2"/><rect class="cls-1" x="64.64" y="93.98" width="1.2" height="5.87"/><rect class="cls-1" x="53.62" y="93.38" width="11.62" height="1.2"/><rect class="cls-1" x="45.83" y="93.48" width="7.79" height="1.2" transform="translate(-2.3 1.25) rotate(-1.41)"/><rect class="cls-1" x="45.23" y="94.1" width="1.2" height="0.08"/><rect class="cls-1" x="45.34" y="90.37" width="20.38" height="1.2" transform="translate(-25.22 21.41) rotate(-17.86)"/><rect class="cls-1" x="64.64" y="82.52" width="1.2" height="5.33"/><rect class="cls-1" x="54.93" y="69.2" width="1.2" height="20.38" transform="translate(-37.06 107.91) rotate(-72.14)"/><rect class="cls-1" x="45.23" y="76.19" width="1.2" height="0.08"/><rect class="cls-1" x="49.13" y="72.39" width="1.2" height="7.79" transform="translate(-27.76 124.12) rotate(-88.59)"/><rect class="cls-1" x="53.62" y="75.78" width="11.62" height="1.2"/><rect class="cls-1" x="64.64" y="70.55" width="1.2" height="5.83"/><rect class="cls-1" x="39.93" y="69.95" width="25.31" height="1.2"/><polygon class="cls-1" points="39.93 79.56 39.33 79.56 39.33 80.01 39.75 80.14 39.93 79.56"/><polygon class="cls-1" points="52.85 83.51 52.67 84.09 52.68 84.09 52.69 84.09 52.85 83.51"/><polygon class="cls-1" points="58.18 84.97 58.78 84.97 58.78 84.51 58.34 84.39 58.18 84.97"/><polygon class="cls-1" points="58.18 85.05 58.33 85.63 58.78 85.51 58.78 85.05 58.18 85.05"/><polygon class="cls-1" points="52.81 86.47 52.66 85.89 52.65 85.89 52.63 85.89 52.81 86.47"/><polygon class="cls-1" points="39.93 90.45 39.75 89.88 39.33 90.01 39.33 90.45 39.93 90.45"/><rect class="cls-1" x="39.33" y="99.85" width="0.6" height="0.6"/><rect class="cls-1" x="65.24" y="99.85" width="0.6" height="0.6"/><rect class="cls-1" x="65.24" y="93.38" width="0.6" height="0.6"/><polygon class="cls-1" points="53.62 93.98 53.62 93.38 53.61 93.38 53.6 93.38 53.62 93.98"/><polygon class="cls-1" points="45.83 94.17 45.23 94.17 45.23 94.79 45.85 94.77 45.83 94.17"/><polygon class="cls-1" points="45.83 94.1 45.65 93.53 45.23 93.66 45.23 94.1 45.83 94.1"/><polygon class="cls-1" points="65.24 87.85 65.42 88.42 65.83 88.28 65.83 87.85 65.24 87.85"/><polygon class="cls-1" points="65.24 82.52 65.83 82.52 65.83 82.08 65.42 81.95 65.24 82.52"/><polygon class="cls-1" points="45.83 76.27 45.23 76.27 45.23 76.7 45.65 76.84 45.83 76.27"/><polygon class="cls-1" points="45.83 76.19 45.85 75.59 45.23 75.58 45.23 76.19 45.83 76.19"/><polygon class="cls-1" points="53.62 76.38 53.6 76.98 53.61 76.98 53.62 76.98 53.62 76.38"/><rect class="cls-1" x="65.24" y="76.38" width="0.6" height="0.6"/><rect class="cls-1" x="65.24" y="69.95" width="0.6" height="0.6"/><rect class="cls-1" x="39.33" y="69.95" width="0.6" height="0.6"/><rect class="cls-1" x="58.92" y="111.85" width="1.2" height="9.03"/><rect class="cls-1" x="54.44" y="113.27" width="1.2" height="6.2"/><rect class="cls-1" x="64.64" y="122.58" width="1.2" height="6.63"/><path class="cls-1" d="M55.65,119l-6.53-2-.36,1.15,6.89,2.14"/><path class="cls-1" d="M58.93,120c0,.21,0,1.23,0,1.24l6.13,1.91.35-1.14Z"/><rect class="cls-1" x="46.36" y="114.96" width="1.2" height="4.08" transform="translate(-78.12 132.76) rotate(-75.31)"/><rect class="cls-1" x="44.39" y="116.4" width="1.2" height="0.08"/><rect class="cls-1" x="44.91" y="115.25" width="4.14" height="1.2" transform="matrix(0.96, -0.27, 0.27, 0.96, -29.4, 16.88)"/><path class="cls-1" d="M55.65,112.64l-6.85,2.08.35,1.15,6.5-2Z"/><path class="cls-1" d="M58.93,112.9l6.48-2-.35-1.15-6.13,1.87C58.93,112,58.92,112.5,58.93,112.9Z"/><rect class="cls-1" x="64.64" y="103.56" width="1.2" height="6.79"/><rect class="cls-1" x="39.17" y="107.39" width="26.81" height="1.2" transform="translate(-32.72 23.43) rotate(-19.29)"/><rect class="cls-1" x="39.33" y="112.42" width="1.2" height="7.9"/><rect class="cls-1" x="51.98" y="111.35" width="1.2" height="26.83" transform="translate(-82.56 133) rotate(-70.63)"/><polygon class="cls-1" points="65.24 122.58 65.83 122.58 65.83 122.14 65.41 122.01 65.24 122.58"/><polygon class="cls-1" points="48.94 117.52 49.12 116.94 49.1 116.94 49.09 116.94 48.94 117.52"/><polygon class="cls-1" points="44.99 116.48 44.39 116.48 44.39 116.94 44.84 117.06 44.99 116.48"/><polygon class="cls-1" points="44.99 116.4 44.83 115.83 44.39 115.95 44.39 116.4 44.99 116.4"/><polygon class="cls-1" points="48.98 115.29 49.14 115.87 49.15 115.87 49.15 115.87 48.98 115.29"/><polygon class="cls-1" points="65.24 110.35 65.41 110.92 65.83 110.79 65.83 110.35 65.24 110.35"/><polygon class="cls-1" points="65.24 103.56 65.83 103.56 65.83 102.71 65.04 102.99 65.24 103.56"/><polygon class="cls-1" points="39.93 112.42 39.73 111.85 39.33 111.99 39.33 112.42 39.93 112.42"/><polygon class="cls-1" points="39.93 120.32 39.33 120.32 39.33 120.74 39.73 120.88 39.93 120.32"/><polygon class="cls-1" points="65.24 129.21 65.04 129.78 65.83 130.06 65.83 129.21 65.24 129.21"/><rect class="cls-1" x="64.64" y="131.32" width="1.2" height="20.21"/><rect class="cls-1" x="60.14" y="130.72" width="5.1" height="1.2"/><rect class="cls-1" x="59.54" y="131.32" width="1.2" height="13.61"/><rect class="cls-1" x="54.96" y="144.33" width="5.18" height="1.2"/><rect class="cls-1" x="54.36" y="134.5" width="1.2" height="10.43"/><rect class="cls-1" x="50.17" y="133.9" width="4.79" height="1.2"/><rect class="cls-1" x="49.57" y="134.5" width="1.2" height="10.43"/><rect class="cls-1" x="45.03" y="144.33" width="5.14" height="1.2"/><rect class="cls-1" x="44.43" y="131.81" width="1.2" height="13.11"/><rect class="cls-1" x="39.93" y="131.21" width="5.1" height="1.2"/><rect class="cls-1" x="39.33" y="131.81" width="1.2" height="19.71"/><rect class="cls-1" x="39.93" y="150.92" width="25.31" height="1.2"/><rect class="cls-1" x="65.24" y="130.72" width="0.6" height="0.6"/><rect class="cls-1" x="59.54" y="130.72" width="0.6" height="0.6"/><rect class="cls-1" x="60.14" y="144.93" width="0.6" height="0.6"/><rect class="cls-1" x="54.36" y="144.93" width="0.6" height="0.6"/><rect class="cls-1" x="54.96" y="133.9" width="0.6" height="0.6"/><rect class="cls-1" x="49.57" y="133.9" width="0.6" height="0.6"/><rect class="cls-1" x="50.17" y="144.93" width="0.6" height="0.6"/><rect class="cls-1" x="44.43" y="144.93" width="0.6" height="0.6"/><rect class="cls-1" x="45.03" y="131.21" width="0.6" height="0.6"/><rect class="cls-1" x="39.33" y="131.21" width="0.6" height="0.6"/><rect class="cls-1" x="39.33" y="151.52" width="0.6" height="0.6"/><rect class="cls-1" x="65.24" y="151.52" width="0.6" height="0.6"/><rect class="cls-1" x="39.33" y="156.06" width="1.2" height="23.12"/><rect class="cls-1" x="39.93" y="178.58" width="5.1" height="1.2"/><rect class="cls-1" x="44.43" y="170.9" width="1.2" height="8.28"/><rect class="cls-1" x="45.03" y="170.3" width="20.21" height="1.2"/><rect class="cls-1" x="64.64" y="164.3" width="1.2" height="6.6"/><rect class="cls-1" x="45.03" y="163.71" width="20.21" height="1.2"/><rect class="cls-1" x="44.43" y="156.06" width="1.2" height="8.24"/><rect class="cls-1" x="39.93" y="155.46" width="5.1" height="1.2"/><rect class="cls-1" x="39.33" y="179.18" width="0.6" height="0.6"/><rect class="cls-1" x="45.03" y="179.18" width="0.6" height="0.6"/><rect class="cls-1" x="44.43" y="170.3" width="0.6" height="0.6"/><rect class="cls-1" x="65.24" y="170.9" width="0.6" height="0.6"/><rect class="cls-1" x="65.24" y="163.71" width="0.6" height="0.6"/><rect class="cls-1" x="44.43" y="164.3" width="0.6" height="0.6"/><rect class="cls-1" x="45.03" y="155.46" width="0.6" height="0.6"/><rect class="cls-1" x="39.33" y="155.46" width="0.6" height="0.6"/><rect class="cls-1" x="19.98" y="6.63" width="1.2" height="14.07"/><rect class="cls-1" x="16.09" y="6.04" width="4.49" height="1.2"/><rect class="cls-1" x="15.49" y="6.63" width="1.2" height="14.07"/><rect class="cls-1" x="16.09" y="20.11" width="4.49" height="1.2"/><rect class="cls-1" x="25.69" y="19.86" width="1.2" height="6.63"/><rect class="cls-1" x="17.54" y="8.8" width="1.2" height="17.06" transform="translate(-3.79 29.52) rotate(-72.75)"/><rect class="cls-1" x="7.42" y="12.24" width="1.2" height="4.08" transform="translate(-7.83 18.42) rotate(-75.31)"/><rect class="cls-1" x="5.45" y="13.69" width="1.2" height="0.08"/><rect class="cls-1" x="5.97" y="12.54" width="4.14" height="1.2" transform="translate(-3.23 2.64) rotate(-15.58)"/><rect class="cls-1" x="9.66" y="9.51" width="16.99" height="1.2" transform="translate(-2.15 5.72) rotate(-16.92)"/><rect class="cls-1" x="25.69" y="0.84" width="1.2" height="6.79"/><rect class="cls-1" x="0.23" y="4.67" width="26.81" height="1.2" transform="translate(-0.98 4.8) rotate(-19.29)"/><rect class="cls-1" x="0.38" y="9.7" width="1.2" height="7.9"/><rect class="cls-1" x="13.04" y="8.64" width="1.2" height="26.83" transform="translate(-11.69 27.6) rotate(-70.63)"/><rect class="cls-1" x="20.58" y="6.04" width="0.6" height="0.6"/><rect class="cls-1" x="15.49" y="6.04" width="0.6" height="0.6"/><rect class="cls-1" x="15.49" y="20.71" width="0.6" height="0.6"/><rect class="cls-1" x="20.58" y="20.71" width="0.6" height="0.6"/><polygon class="cls-1" points="26.29 19.86 26.89 19.86 26.89 19.42 26.47 19.29 26.29 19.86"/><polygon class="cls-1" points="9.99 14.8 10.17 14.23 10.16 14.23 10.15 14.22 9.99 14.8"/><polygon class="cls-1" points="6.04 13.77 5.45 13.77 5.45 14.23 5.89 14.35 6.04 13.77"/><polygon class="cls-1" points="6.04 13.69 5.88 13.11 5.45 13.23 5.45 13.69 6.04 13.69"/><polygon class="cls-1" points="10.03 12.58 10.19 13.15 10.2 13.15 10.21 13.15 10.03 12.58"/><polygon class="cls-1" points="26.29 7.63 26.46 8.21 26.89 8.08 26.89 7.63 26.29 7.63"/><polygon class="cls-1" points="26.29 0.84 26.89 0.84 26.89 0 26.09 0.28 26.29 0.84"/><polygon class="cls-1" points="0.98 9.7 0.79 9.14 0.38 9.28 0.38 9.7 0.98 9.7"/><polygon class="cls-1" points="0.98 17.6 0.38 17.6 0.38 18.03 0.78 18.17 0.98 17.6"/><polygon class="cls-1" points="26.29 26.5 26.09 27.06 26.89 27.34 26.89 26.5 26.29 26.5"/><rect class="cls-1" x="15.09" y="30.68" width="6.22" height="1.2" transform="matrix(0.27, -0.96, 0.96, 0.27, -16.84, 40.3)"/><path class="cls-1" d="M21,35.66a5.89,5.89,0,0,0-3.49-2l-.25,1.17A4.67,4.67,0,0,1,20,36.41Z"/><path class="cls-1" d="M22.1,39.14A5.48,5.48,0,0,0,21,35.66L20,36.4a4.3,4.3,0,0,1,.87,2.74Z"/><path class="cls-1" d="M21.12,42.77a6.55,6.55,0,0,0,1-3.63H20.9a5.23,5.23,0,0,1-.79,3Z"/><path class="cls-1" d="M18.18,45a5.87,5.87,0,0,0,2.93-2.18l-1-.67a4.71,4.71,0,0,1-2.36,1.73Z"/><path class="cls-1" d="M13.64,45.64A13.06,13.06,0,0,0,18.18,45l-.42-1.12a12.06,12.06,0,0,1-4.12.61Z"/><path class="cls-1" d="M9.08,44.91a12.28,12.28,0,0,0,4.56.73v-1.2a11.21,11.21,0,0,1-4.11-.64Z"/><path class="cls-1" d="M6.16,42.66a6.35,6.35,0,0,0,2.91,2.25l.46-1.11A5.14,5.14,0,0,1,7.15,42Z"/><path class="cls-1" d="M5.18,39.18a6.18,6.18,0,0,0,1,3.47l1-.66a4.94,4.94,0,0,1-.79-2.81Z"/><path class="cls-1" d="M6.18,35.79a5.56,5.56,0,0,0-1,3.39H6.37a4.35,4.35,0,0,1,.77-2.68Z"/><path class="cls-1" d="M9.79,33.8a5.86,5.86,0,0,0-3.62,2l1,.7A4.69,4.69,0,0,1,10.05,35Z"/><rect class="cls-1" x="8.15" y="28.37" width="1.2" height="6.24" transform="translate(-11.16 5.57) rotate(-22)"/><path class="cls-1" d="M4.05,31.2a8.13,8.13,0,0,1,3.68-2L7.42,28A9.19,9.19,0,0,0,3.2,30.36Z"/><path class="cls-1" d="M1.94,34.72A8.62,8.62,0,0,1,4.05,31.2l-.85-.84a9.91,9.91,0,0,0-2.4,4Z"/><path class="cls-1" d="M1.2,39.41a14.49,14.49,0,0,1,.73-4.68L.8,34.34A15.36,15.36,0,0,0,0,39.41Z"/><path class="cls-1" d="M2.69,45.71a12.65,12.65,0,0,1-1.49-6.3H0A13.83,13.83,0,0,0,1.65,46.3Z"/><path class="cls-1" d="M6.89,49.76a9.65,9.65,0,0,1-4.19-4l-1.05.58a10.91,10.91,0,0,0,4.7,4.54Z"/><path class="cls-1" d="M13.64,51.19a14.55,14.55,0,0,1-6.75-1.43l-.54,1.07a15.77,15.77,0,0,0,7.29,1.56Z"/><path class="cls-1" d="M20.38,49.76a14.54,14.54,0,0,1-6.74,1.43v1.2a15.83,15.83,0,0,0,7.29-1.56Z"/><path class="cls-1" d="M24.62,45.71a9.93,9.93,0,0,1-4.24,4l.55,1.07a11.12,11.12,0,0,0,4.73-4.53Z"/><path class="cls-1" d="M26.08,39.37a12.94,12.94,0,0,1-1.47,6.34l1.06.58a14.18,14.18,0,0,0,1.6-6.92Z"/><path class="cls-1" d="M25.34,34.66a14.28,14.28,0,0,1,.74,4.71h1.19a15.41,15.41,0,0,0-.8-5.1Z"/><path class="cls-1" d="M23,31.06a9.21,9.21,0,0,1,2.34,3.6l1.13-.4a10.54,10.54,0,0,0-2.64-4.07Z"/><path class="cls-1" d="M18.88,28.86A9.84,9.84,0,0,1,23,31.06l.81-.87a10.9,10.9,0,0,0-4.62-2.48Z"/><polygon class="cls-1" points="17.36 34.27 16.78 34.11 16.61 34.72 17.23 34.85 17.36 34.27"/><polygon class="cls-1" points="20.5 36.03 20.97 35.66 20.97 35.66 20.5 36.03"/><polygon class="cls-1" points="20.62 42.44 21.11 42.77 21.12 42.77 20.62 42.44"/><path class="cls-1" d="M18,44.39l.21.56Z"/><polygon class="cls-1" points="9.3 44.35 9.07 44.91 9.08 44.91 9.3 44.35"/><polygon class="cls-1" points="6.66 42.32 6.16 42.65 6.16 42.66 6.66 42.32"/><polygon class="cls-1" points="6.66 36.15 7.14 36.51 7.14 36.5 7.14 36.5 6.66 36.15"/><polygon class="cls-1" points="9.92 34.38 10.05 34.97 10.74 34.81 10.47 34.16 9.92 34.38"/><polygon class="cls-1" points="7.58 28.59 8.13 28.37 7.93 27.88 7.42 28.02 7.58 28.59"/><path class="cls-1" d="M3.63,30.78l-.43-.42Z"/><polygon class="cls-1" points="1.37 34.54 1.93 34.73 1.93 34.73 1.94 34.72 1.37 34.54"/><polygon class="cls-1" points="2.17 46 2.7 45.72 2.69 45.71 2.17 46"/><path class="cls-1" d="M6.62,50.3l.27-.54Z"/><path class="cls-1" d="M20.65,50.3l-.27-.54Z"/><polygon class="cls-1" points="25.14 46 25.66 46.3 25.67 46.29 25.14 46"/><polygon class="cls-1" points="25.91 34.46 26.47 34.27 26.47 34.26 26.47 34.26 25.91 34.46"/><polygon class="cls-1" points="23.41 30.63 23.83 30.19 23.82 30.19 23.41 30.63"/><rect class="cls-1" x="18.54" y="27.62" width="0.6" height="0.6" transform="translate(-13.08 38.67) rotate(-74.61)"/><rect class="cls-1" x="0.38" y="57.1" width="1.2" height="6.6"/><rect class="cls-1" x="0.98" y="63.09" width="25.31" height="1.2"/><rect class="cls-1" x="25.69" y="57.1" width="1.2" height="6.6"/><rect class="cls-1" x="0.98" y="56.5" width="25.31" height="1.2"/><rect class="cls-1" x="0.38" y="63.69" width="0.6" height="0.6"/><rect class="cls-1" x="26.29" y="63.69" width="0.6" height="0.6"/><rect class="cls-1" x="26.29" y="56.5" width="0.6" height="0.6"/><rect class="cls-1" x="0.38" y="56.5" width="0.6" height="0.6"/><rect class="cls-1" x="13.88" y="75.77" width="1.2" height="5.86" transform="translate(-19.12 6.07) rotate(-14.4)"/><rect class="cls-1" x="14.33" y="77.7" width="12.84" height="1.2" transform="translate(-36.69 21.18) rotate(-30.32)"/><rect class="cls-1" x="25.69" y="67.78" width="1.2" height="7.29"/><rect class="cls-1" x="12.56" y="71.22" width="14.92" height="1.2" transform="translate(-35.74 22.33) rotate(-32.83)"/><rect class="cls-1" x="11.77" y="79.74" width="1.2" height="4.68"/><rect class="cls-1" x="5.97" y="83.82" width="6.4" height="1.2"/><rect class="cls-1" x="5.37" y="79.74" width="1.2" height="4.68"/><path class="cls-1" d="M6.27,76.49a5.08,5.08,0,0,0-.9,3.25h1.2a4,4,0,0,1,.63-2.5Z"/><path class="cls-1" d="M9.15,75.31a3.48,3.48,0,0,0-2.88,1.18l.93.75a2.34,2.34,0,0,1,2-.74Z"/><path class="cls-1" d="M12.07,76.49a3.54,3.54,0,0,0-2.92-1.18V76.5a2.37,2.37,0,0,1,2,.74Z"/><path class="cls-1" d="M13,79.74a5.14,5.14,0,0,0-.9-3.25l-.93.75a4,4,0,0,1,.63,2.5Z"/><rect class="cls-1" x="0.38" y="78.82" width="1.2" height="12.08"/><rect class="cls-1" x="0.98" y="90.3" width="25.31" height="1.2"/><rect class="cls-1" x="25.69" y="84.42" width="1.2" height="6.48"/><rect class="cls-1" x="17.05" y="83.82" width="9.24" height="1.2"/><rect class="cls-1" x="16.45" y="79.39" width="1.2" height="5.02"/><rect class="cls-1" x="16.28" y="78.74" width="1.2" height="0.7" transform="translate(-36.61 18.43) rotate(-29.36)"/><path class="cls-1" d="M14.21,72.14c1.24,1.52,1.9,3.71,1.9,6.64H17.3c0-3.1-.69-5.59-2.16-7.39Z"/><path class="cls-1" d="M8.77,69.87a6.6,6.6,0,0,1,5.44,2.27l.93-.75a7.79,7.79,0,0,0-6.37-2.72Z"/><path class="cls-1" d="M3.59,72.19a6.37,6.37,0,0,1,5.18-2.32v-1.2a7.55,7.55,0,0,0-6.1,2.75Z"/><path class="cls-1" d="M1.58,78.82c0-2.93.7-5.11,2-6.63l-.9-.78a11,11,0,0,0-2.3,7.41Z"/><polygon class="cls-1" points="15.21 81.54 14.63 81.69 14.83 82.46 15.51 82.06 15.21 81.54"/><polygon class="cls-1" points="26.29 75.06 26.59 75.58 26.89 75.41 26.89 75.06 26.29 75.06"/><polygon class="cls-1" points="26.29 67.78 26.89 67.78 26.89 66.68 25.97 67.27 26.29 67.78"/><polygon class="cls-1" points="13.75 75.87 13.43 75.36 13.06 75.6 13.17 76.02 13.75 75.87"/><rect class="cls-1" x="12.37" y="84.42" width="0.6" height="0.6"/><rect class="cls-1" x="5.37" y="84.42" width="0.6" height="0.6"/><path class="cls-1" d="M6.73,76.86l-.46-.37Z"/><path class="cls-1" d="M11.6,76.86l-.46.38Z"/><rect class="cls-1" x="0.38" y="90.9" width="0.6" height="0.6"/><rect class="cls-1" x="26.29" y="90.9" width="0.6" height="0.6"/><rect class="cls-1" x="26.29" y="83.82" width="0.6" height="0.6"/><rect class="cls-1" x="16.45" y="84.42" width="0.6" height="0.6"/><polygon class="cls-1" points="17.05 79.39 17.65 79.39 17.65 79.24 17.57 79.1 17.05 79.39"/><polygon class="cls-1" points="16.7 78.78 16.11 78.78 16.11 78.94 16.18 79.08 16.7 78.78"/><polygon class="cls-1" points="3.13 71.8 3.58 72.19 3.59 72.19 3.59 72.19 3.13 71.8"/><rect class="cls-1" x="0.38" y="95.44" width="1.2" height="23.12"/><rect class="cls-1" x="0.98" y="117.96" width="5.1" height="1.2"/><rect class="cls-1" x="5.48" y="110.28" width="1.2" height="8.28"/><rect class="cls-1" x="6.08" y="109.68" width="20.21" height="1.2"/><rect class="cls-1" x="25.69" y="103.68" width="1.2" height="6.6"/><rect class="cls-1" x="6.08" y="103.08" width="20.21" height="1.2"/><rect class="cls-1" x="5.48" y="95.44" width="1.2" height="8.24"/><rect class="cls-1" x="0.98" y="94.84" width="5.1" height="1.2"/><rect class="cls-1" x="0.38" y="118.56" width="0.6" height="0.6"/><rect class="cls-1" x="6.08" y="118.56" width="0.6" height="0.6"/><rect class="cls-1" x="5.48" y="109.68" width="0.6" height="0.6"/><rect class="cls-1" x="26.29" y="110.28" width="0.6" height="0.6"/><rect class="cls-1" x="26.29" y="103.08" width="0.6" height="0.6"/><rect class="cls-1" x="5.48" y="103.68" width="0.6" height="0.6"/><rect class="cls-1" x="6.08" y="94.84" width="0.6" height="0.6"/><rect class="cls-1" x="0.38" y="94.84" width="0.6" height="0.6"/><rect class="cls-1" x="25.69" y="121.47" width="1.2" height="20.21"/><rect class="cls-1" x="21.19" y="120.87" width="5.1" height="1.2"/><rect class="cls-1" x="20.59" y="121.47" width="1.2" height="13.61"/><rect class="cls-1" x="16.01" y="134.48" width="5.18" height="1.2"/><rect class="cls-1" x="15.41" y="124.65" width="1.2" height="10.43"/><rect class="cls-1" x="11.22" y="124.05" width="4.79" height="1.2"/><rect class="cls-1" x="10.62" y="124.65" width="1.2" height="10.43"/><rect class="cls-1" x="6.08" y="134.48" width="5.14" height="1.2"/><rect class="cls-1" x="5.48" y="121.97" width="1.2" height="13.11"/><rect class="cls-1" x="0.98" y="121.37" width="5.1" height="1.2"/><rect class="cls-1" x="0.38" y="121.97" width="1.2" height="19.71"/><rect class="cls-1" x="0.98" y="141.08" width="25.31" height="1.2"/><rect class="cls-1" x="26.29" y="120.87" width="0.6" height="0.6"/><rect class="cls-1" x="20.59" y="120.87" width="0.6" height="0.6"/><rect class="cls-1" x="21.19" y="135.08" width="0.6" height="0.6"/><rect class="cls-1" x="15.41" y="135.08" width="0.6" height="0.6"/><rect class="cls-1" x="16.01" y="124.05" width="0.6" height="0.6"/><rect class="cls-1" x="10.62" y="124.05" width="0.6" height="0.6"/><rect class="cls-1" x="11.22" y="135.08" width="0.6" height="0.6"/><rect class="cls-1" x="5.48" y="135.08" width="0.6" height="0.6"/><rect class="cls-1" x="6.08" y="121.37" width="0.6" height="0.6"/><rect class="cls-1" x="0.38" y="121.37" width="0.6" height="0.6"/><rect class="cls-1" x="0.38" y="141.67" width="0.6" height="0.6"/><rect class="cls-1" x="26.29" y="141.67" width="0.6" height="0.6"/><rect class="cls-1" x="0.38" y="148.05" width="1.2" height="9.01"/><rect class="cls-1" x="6.84" y="152.28" width="1.2" height="13.51" transform="translate(-146.82 119.67) rotate(-73.01)"/><rect class="cls-1" x="15.97" y="158.97" width="1.2" height="5.53" transform="translate(-143.81 135.07) rotate(-74.71)"/><rect class="cls-1" x="18.64" y="162.46" width="1.2" height="0.08"/><rect class="cls-1" x="13.77" y="162.65" width="5.55" height="1.2" transform="translate(-41.17 9.65) rotate(-14.8)"/><rect class="cls-1" x="0.68" y="165.35" width="13.49" height="1.2" transform="translate(-48.74 9.62) rotate(-17.2)"/><rect class="cls-1" x="0.38" y="167.95" width="1.2" height="9.39"/><rect class="cls-1" x="0.98" y="176.74" width="25.31" height="1.2"/><rect class="cls-1" x="25.69" y="171.48" width="1.2" height="5.87"/><rect class="cls-1" x="14.67" y="170.88" width="11.62" height="1.2"/><rect class="cls-1" x="6.89" y="170.97" width="7.79" height="1.2" transform="translate(-4.22 0.32) rotate(-1.41)"/><rect class="cls-1" x="6.29" y="171.59" width="1.2" height="0.08"/><rect class="cls-1" x="6.4" y="167.87" width="20.38" height="1.2" transform="translate(-50.86 13.2) rotate(-17.86)"/><rect class="cls-1" x="25.69" y="160.01" width="1.2" height="5.33"/><rect class="cls-1" x="15.99" y="146.69" width="1.2" height="20.38" transform="translate(-137.83 124.57) rotate(-72.14)"/><rect class="cls-1" x="6.29" y="153.68" width="1.2" height="0.08"/><rect class="cls-1" x="10.18" y="149.89" width="1.2" height="7.79" transform="translate(-143.22 160.77) rotate(-88.59)"/><rect class="cls-1" x="14.67" y="153.28" width="11.62" height="1.2"/><rect class="cls-1" x="25.69" y="148.05" width="1.2" height="5.83"/><rect class="cls-1" x="0.98" y="147.45" width="25.31" height="1.2"/><polygon class="cls-1" points="0.98 157.06 0.38 157.06 0.38 157.5 0.81 157.63 0.98 157.06"/><polygon class="cls-1" points="13.9 161.01 13.73 161.58 13.74 161.58 13.75 161.59 13.9 161.01"/><polygon class="cls-1" points="19.23 162.46 19.83 162.46 19.83 162.01 19.39 161.89 19.23 162.46"/><polygon class="cls-1" points="19.23 162.54 19.39 163.12 19.83 163 19.83 162.54 19.23 162.54"/><polygon class="cls-1" points="13.87 163.96 13.71 163.38 13.7 163.38 13.69 163.39 13.87 163.96"/><polygon class="cls-1" points="0.98 167.95 0.81 167.38 0.38 167.51 0.38 167.95 0.98 167.95"/><rect class="cls-1" x="0.38" y="177.34" width="0.6" height="0.6"/><rect class="cls-1" x="26.29" y="177.34" width="0.6" height="0.6"/><rect class="cls-1" x="26.29" y="170.88" width="0.6" height="0.6"/><polygon class="cls-1" points="14.67 171.47 14.67 170.88 14.66 170.88 14.66 170.88 14.67 171.47"/><polygon class="cls-1" points="6.89 171.67 6.29 171.67 6.29 172.28 6.9 172.27 6.89 171.67"/><polygon class="cls-1" points="6.89 171.59 6.7 171.02 6.29 171.15 6.29 171.59 6.89 171.59"/><polygon class="cls-1" points="26.29 165.34 26.47 165.91 26.89 165.78 26.89 165.34 26.29 165.34"/><polygon class="cls-1" points="26.29 160.01 26.89 160.01 26.89 159.57 26.47 159.44 26.29 160.01"/><polygon class="cls-1" points="6.89 153.76 6.29 153.76 6.29 154.2 6.7 154.33 6.89 153.76"/><polygon class="cls-1" points="6.89 153.68 6.9 153.08 6.29 153.07 6.29 153.68 6.89 153.68"/><polygon class="cls-1" points="14.67 153.88 14.66 154.47 14.66 154.47 14.67 154.47 14.67 153.88"/><rect class="cls-1" x="26.29" y="153.87" width="0.6" height="0.6"/><rect class="cls-1" x="26.29" y="147.45" width="0.6" height="0.6"/><rect class="cls-1" x="0.38" y="147.45" width="0.6" height="0.6"/><path class="cls-1" d="M20.58,20.71H16.09V6.63h4.49Zm5.71,5.79L1,17.6V9.7L26.29.84V7.63L10,12.58,6,13.69v.08l4,1,16.3,5.06ZM19,28.29a10.11,10.11,0,0,1,4.37,2.34,9.84,9.84,0,0,1,2.5,3.83,15,15,0,0,1,.76,4.91A13.59,13.59,0,0,1,25.14,46a10.53,10.53,0,0,1-4.49,4.3,15.28,15.28,0,0,1-7,1.49,15.29,15.29,0,0,1-7-1.49A10.33,10.33,0,0,1,2.17,46,13.2,13.2,0,0,1,.6,39.41a14.59,14.59,0,0,1,.77-4.87,9.23,9.23,0,0,1,2.26-3.76,8.71,8.71,0,0,1,4-2.19l2.34,5.79a5.28,5.28,0,0,0-3.26,1.77,4.93,4.93,0,0,0-.88,3,5.56,5.56,0,0,0,.88,3.14,5.69,5.69,0,0,0,2.64,2,11.78,11.78,0,0,0,4.34.69A12.46,12.46,0,0,0,18,44.39a5.25,5.25,0,0,0,2.65-2,6,6,0,0,0,.88-3.3,4.85,4.85,0,0,0-1-3.11,5.3,5.3,0,0,0-3.14-1.76ZM1,57.1H26.29v6.59H1ZM13.75,75.87l12.54-8.09v7.28L15.21,81.54Zm-1.38,3.87a4.5,4.5,0,0,0-.77-2.88,2.93,2.93,0,0,0-2.45-1,2.92,2.92,0,0,0-2.42,1A4.56,4.56,0,0,0,6,79.74v4.68h6.4ZM1,78.82q0-4.53,2.15-7a7,7,0,0,1,5.64-2.53,7.17,7.17,0,0,1,5.9,2.49c1.36,1.67,2,4,2,7l.35.61v5h9.24V90.9H1ZM1,95.44h5.1v8.24H26.29v6.6H6.08v8.28H1Zm25.31,46.23H1V122h5.1v13.11h5.14V124.65H16v10.43h5.18V121.47h5.1ZM1,148.05H26.29v5.82H14.67l-7.78-.19v.08L26.29,160v5.33l-19.4,6.25v.08l7.78-.19H26.29v5.86H1V168l12.89-4,5.37-1.42v-.08L13.91,161,1,157.06Z"/></g></g></svg>