<svg xmlns="http://www.w3.org/2000/svg" viewBox="0 0 110.93 229"><defs><style>.cls-1{fill:#fff;}</style></defs><g id="Layer_2" data-name="Layer 2"><g id="Layer_1-2" data-name="Layer 1"><rect class="cls-1" x="66.64" y="58.44" width="2" height="9.73"/><rect class="cls-1" x="67.64" y="67.17" width="21.31" height="2"/><rect class="cls-1" x="88.95" y="67.04" width="7.81" height="2" transform="translate(-2.18 3.08) rotate(-1.88)"/><rect class="cls-1" x="95.76" y="67.92" width="2" height="0.06"/><rect class="cls-1" x="90.1" y="68.58" width="7.04" height="2" transform="translate(-21.39 50.15) rotate(-27.03)"/><rect class="cls-1" x="65.89" y="76.74" width="26.35" height="2" transform="translate(-28.21 49.7) rotate(-29.87)"/><rect class="cls-1" x="66.64" y="84.3" width="2" height="12.22"/><rect class="cls-1" x="67.64" y="95.52" width="42.24" height="2"/><rect class="cls-1" x="108.88" y="86.8" width="2" height="9.73"/><rect class="cls-1" x="88.57" y="85.8" width="21.31" height="2"/><rect class="cls-1" x="80.76" y="85.92" width="7.81" height="2" transform="translate(-2.8 2.82) rotate(-1.88)"/><rect class="cls-1" x="79.76" y="86.99" width="2" height="0.06"/><rect class="cls-1" x="80.38" y="84.39" width="7.04" height="2" transform="translate(-29.64 47.46) rotate(-27.03)"/><rect class="cls-1" x="85.28" y="76.23" width="26.35" height="2" transform="translate(-25.38 59.28) rotate(-29.87)"/><rect class="cls-1" x="108.88" y="58.44" width="2" height="12.22"/><rect class="cls-1" x="67.64" y="57.44" width="42.24" height="2"/><rect class="cls-1" x="66.64" y="68.17" width="1" height="1"/><polygon class="cls-1" points="88.95 68.17 88.95 69.17 88.97 69.17 88.98 69.17 88.95 68.17"/><polygon class="cls-1" points="96.76 67.92 97.76 67.92 97.76 66.88 96.73 66.92 96.76 67.92"/><polygon class="cls-1" points="96.76 67.98 97.21 68.87 97.76 68.59 97.76 67.98 96.76 67.98"/><polygon class="cls-1" points="90.49 71.18 90.03 70.29 90.01 70.3 89.99 70.31 90.49 71.18"/><polygon class="cls-1" points="67.64 84.3 67.14 83.43 66.64 83.72 66.64 84.3 67.64 84.3"/><rect class="cls-1" x="66.64" y="96.52" width="1" height="1"/><rect class="cls-1" x="109.88" y="96.52" width="1" height="1"/><rect class="cls-1" x="109.88" y="85.8" width="1" height="1"/><polygon class="cls-1" points="88.57 86.8 88.57 85.8 88.55 85.8 88.53 85.8 88.57 86.8"/><polygon class="cls-1" points="80.76 87.05 79.76 87.05 79.76 88.09 80.79 88.05 80.76 87.05"/><polygon class="cls-1" points="80.76 86.99 80.31 86.1 79.76 86.38 79.76 86.99 80.76 86.99"/><polygon class="cls-1" points="87.03 83.79 87.49 84.68 87.51 84.67 87.53 84.66 87.03 83.79"/><polygon class="cls-1" points="109.88 70.67 110.38 71.53 110.88 71.25 110.88 70.67 109.88 70.67"/><rect class="cls-1" x="109.88" y="57.44" width="1" height="1"/><rect class="cls-1" x="66.64" y="57.44" width="1" height="1"/><rect class="cls-1" x="67.64" y="168.89" width="33.73" height="2"/><rect class="cls-1" x="66.64" y="169.89" width="2" height="11.01"/><rect class="cls-1" x="67.64" y="179.9" width="42.24" height="2"/><rect class="cls-1" x="108.88" y="148.7" width="2" height="32.19"/><rect class="cls-1" x="101.37" y="147.7" width="8.51" height="2"/><rect class="cls-1" x="100.37" y="148.7" width="2" height="21.18"/><rect class="cls-1" x="66.64" y="168.89" width="1" height="1"/><rect class="cls-1" x="66.64" y="180.9" width="1" height="1"/><rect class="cls-1" x="109.88" y="180.9" width="1" height="1"/><rect class="cls-1" x="109.88" y="147.7" width="1" height="1"/><rect class="cls-1" x="100.37" y="147.7" width="1" height="1"/><rect class="cls-1" x="101.37" y="169.89" width="1" height="1"/><rect class="cls-1" x="86.54" y="207.26" width="2" height="6.66"/><rect class="cls-1" x="75.9" y="212.92" width="11.65" height="2"/><rect class="cls-1" x="74.9" y="207.26" width="2" height="6.66"/><path class="cls-1" d="M76.61,201.43a8.79,8.79,0,0,0-1.71,5.83h2a6.82,6.82,0,0,1,1.23-4.53Z"/><path class="cls-1" d="M81.72,199.29a6.19,6.19,0,0,0-5.14,2.17l1.57,1.24a4.22,4.22,0,0,1,3.57-1.41Z"/><path class="cls-1" d="M86.91,201.44a6.39,6.39,0,0,0-5.19-2.15v2a4.39,4.39,0,0,1,3.64,1.42Z"/><path class="cls-1" d="M88.54,207.26a9,9,0,0,0-1.63-5.81l-1.55,1.26a7.15,7.15,0,0,1,1.18,4.55Z"/><rect class="cls-1" x="66.64" y="205.53" width="2" height="19.39"/><rect class="cls-1" x="67.64" y="223.93" width="42.24" height="2"/><rect class="cls-1" x="108.88" y="213.92" width="2" height="11.01"/><rect class="cls-1" x="95.8" y="212.92" width="14.08" height="2"/><rect class="cls-1" x="94.8" y="205.53" width="2" height="8.38"/><path class="cls-1" d="M93.23,197.12a20.26,20.26,0,0,1,1.57,8.41h2a22.21,22.21,0,0,0-1.75-9.24Z"/><path class="cls-1" d="M88.81,192a11.3,11.3,0,0,1,4.42,5.13l1.82-.83a13.42,13.42,0,0,0-5.19-6Z"/><path class="cls-1" d="M81.72,190.21A13.27,13.27,0,0,1,88.81,192l1-1.71a15.37,15.37,0,0,0-8.14-2.07Z"/><path class="cls-1" d="M74.63,192a13.27,13.27,0,0,1,7.09-1.78v-2a15.37,15.37,0,0,0-8.14,2.07Z"/><path class="cls-1" d="M70.21,197.12A11.3,11.3,0,0,1,74.63,192l-1-1.71a13.42,13.42,0,0,0-5.19,6Z"/><path class="cls-1" d="M68.64,205.53a20.26,20.26,0,0,1,1.57-8.41l-1.82-.83a22.21,22.21,0,0,0-1.75,9.24Z"/><rect class="cls-1" x="87.54" y="213.92" width="1" height="1"/><rect class="cls-1" x="74.9" y="213.92" width="1" height="1"/><polygon class="cls-1" points="77.37 202.08 78.13 202.73 78.14 202.71 78.15 202.7 77.37 202.08"/><polygon class="cls-1" points="86.14 202.08 86.91 201.45 86.91 201.44 86.14 202.08"/><rect class="cls-1" x="66.64" y="224.93" width="1" height="1"/><rect class="cls-1" x="109.88" y="224.93" width="1" height="1"/><rect class="cls-1" x="109.88" y="212.92" width="1" height="1"/><rect class="cls-1" x="94.8" y="213.92" width="1" height="1"/><path class="cls-1" d="M94.14,196.7l-.91.42Z"/><path class="cls-1" d="M89.34,191.13l-.53.86Z"/><path class="cls-1" d="M74.1,191.13l.53.86Z"/><path class="cls-1" d="M69.3,196.7l.91.42Z"/><path class="cls-1" d="M3.71,28.94A23.32,23.32,0,0,1,2,19.54H0a25.23,25.23,0,0,0,1.88,10.2Z"/><path class="cls-1" d="M8.29,34.79a13.46,13.46,0,0,1-4.58-5.85l-1.83.8a15.34,15.34,0,0,0,5.27,6.69Z"/><path class="cls-1" d="M14.76,36.78a10.83,10.83,0,0,1-6.46-2L7.14,36.42a12.87,12.87,0,0,0,7.62,2.36Z"/><path class="cls-1" d="M20.09,35.36a9.32,9.32,0,0,1-5.33,1.42v2A11.22,11.22,0,0,0,21.21,37Z"/><path class="cls-1" d="M23.47,31.38a10.56,10.56,0,0,1-3.39,4L21.22,37a12.74,12.74,0,0,0,4-4.72Z"/><path class="cls-1" d="M25.56,25.21a30.12,30.12,0,0,1-2.1,6.19l1.8.86a32.33,32.33,0,0,0,2.25-6.6Z"/><rect class="cls-1" x="23.4" y="20.53" width="8" height="2" transform="translate(0.46 43.63) rotate(-77.52)"/><path class="cls-1" d="M29.16,13.27a8.74,8.74,0,0,0-1.87,4.12l1.95.47a7.1,7.1,0,0,1,1.33-3.18Z"/><path class="cls-1" d="M32.1,12a4,4,0,0,0-3,1.27l1.47,1.37A1.93,1.93,0,0,1,32.1,14Z"/><path class="cls-1" d="M34.83,12.93A4.34,4.34,0,0,0,32.1,12v2a2.33,2.33,0,0,1,1.5.49Z"/><path class="cls-1" d="M36.52,15.68a5.27,5.27,0,0,0-1.69-2.75L33.6,14.51a3.23,3.23,0,0,1,1,1.73Z"/><path class="cls-1" d="M37,19.67a14.2,14.2,0,0,0-.49-4l-1.92.58A12,12,0,0,1,35,19.67Z"/><path class="cls-1" d="M36.14,25.65a21.05,21.05,0,0,0,.87-6H35a19,19,0,0,1-.79,5.42Z"/><path class="cls-1" d="M33.8,31a23.67,23.67,0,0,0,2.33-5.34l-1.91-.58A22.24,22.24,0,0,1,32.08,30Z"/><path class="cls-1" d="M30.26,35.15A18.7,18.7,0,0,0,33.78,31L32.09,30A16.84,16.84,0,0,1,29,33.64Z"/><rect class="cls-1" x="32.29" y="32.51" width="2" height="9.08" transform="translate(-16.23 42.36) rotate(-54.18)"/><path class="cls-1" d="M40.06,34A20.71,20.71,0,0,1,36.28,39l1.37,1.45A22.62,22.62,0,0,0,41.81,35Z"/><path class="cls-1" d="M42.65,27.37A26.48,26.48,0,0,1,40.06,34l1.75,1a28.31,28.31,0,0,0,2.78-7.16Z"/><path class="cls-1" d="M43.52,19.54a34.31,34.31,0,0,1-.87,7.84l2,.46a36.78,36.78,0,0,0,.92-8.3Z"/><path class="cls-1" d="M42.05,10.69a24.8,24.8,0,0,1,1.47,8.85h2A26.87,26.87,0,0,0,43.92,10Z"/><path class="cls-1" d="M37.71,4.79a13.24,13.24,0,0,1,4.34,5.91L43.91,10a15.18,15.18,0,0,0-5-6.77Z"/><path class="cls-1" d="M30.7,2.69a11.52,11.52,0,0,1,7,2.11L38.9,3.19A13.48,13.48,0,0,0,30.7.69Z"/><path class="cls-1" d="M23.93,5.32A8.91,8.91,0,0,1,30.7,2.69v-2a10.86,10.86,0,0,0-8.21,3.25Z"/><path class="cls-1" d="M19.89,14.14c1-4.14,2.34-7,4-8.82L22.49,3.94C20.43,6.09,19,9.38,18,13.69Z"/><rect class="cls-1" x="14.48" y="16.47" width="7.28" height="2" transform="translate(-2.9 31.3) rotate(-77.31)"/><path class="cls-1" d="M16.6,25.69a13.21,13.21,0,0,0,1.7-4.45l-2-.44A10.85,10.85,0,0,1,15,24.54Z"/><path class="cls-1" d="M13.48,27.33a3.86,3.86,0,0,0,3.09-1.6L15,24.49a1.87,1.87,0,0,1-1.52.84Z"/><path class="cls-1" d="M10.85,26.5a4.4,4.4,0,0,0,2.63.83v-2A2.51,2.51,0,0,1,12,24.88Z"/><path class="cls-1" d="M9.08,23.91a5.15,5.15,0,0,0,1.77,2.59L12,24.88a3.28,3.28,0,0,1-1-1.63Z"/><path class="cls-1" d="M8.51,19.74a13,13,0,0,0,.57,4.17L11,23.25a11,11,0,0,1-.46-3.51Z"/><path class="cls-1" d="M10.08,12.14a17.78,17.78,0,0,0-1.57,7.6h2A15.7,15.7,0,0,1,11.89,13Z"/><path class="cls-1" d="M14.58,5.89a19.78,19.78,0,0,0-4.51,6.28l1.83.8A17.62,17.62,0,0,1,16,7.34Z"/><rect class="cls-1" x="10.72" y="-0.47" width="2" height="8.87" transform="translate(1.53 10.98) rotate(-53.21)"/><path class="cls-1" d="M3.79,9.54A20.64,20.64,0,0,1,8.86,2L7.48.58A22.58,22.58,0,0,0,1.93,8.81Z"/><path class="cls-1" d="M2,19.54a25.86,25.86,0,0,1,1.78-10L1.93,8.79A28.11,28.11,0,0,0,0,19.54Z"/><path class="cls-1" d="M2.79,29.34l-.91.4Z"/><polygon class="cls-1" points="7.72 35.61 8.3 34.79 8.29 34.79 7.72 35.61"/><polygon class="cls-1" points="20.65 36.19 21.21 37.01 21.22 37.01 20.65 36.19"/><polygon class="cls-1" points="24.36 31.83 25.25 32.29 25.26 32.28 25.26 32.26 24.36 31.83"/><polygon class="cls-1" points="26.54 25.43 27.51 25.66 27.51 25.65 26.54 25.43"/><polygon class="cls-1" points="28.26 17.63 27.29 17.39 27.29 17.4 27.29 17.41 28.26 17.63"/><polygon class="cls-1" points="29.86 13.98 30.57 14.68 30.58 14.67 30.59 14.66 29.86 13.98"/><polygon class="cls-1" points="35.56 15.96 34.6 16.24 34.6 16.25 35.56 15.96"/><polygon class="cls-1" points="35.18 25.37 36.13 25.66 36.13 25.65 35.18 25.37"/><polygon class="cls-1" points="32.94 30.49 33.78 31.03 33.79 31.01 33.8 31 32.94 30.49"/><polygon class="cls-1" points="29.61 34.39 28.95 33.63 28 34.46 29.02 35.2 29.61 34.39"/><polygon class="cls-1" points="36.97 39.7 36.38 40.52 37.05 41 37.65 40.43 36.97 39.7"/><path class="cls-1" d="M40.94,34.52l.87.49Z"/><polygon class="cls-1" points="43.62 27.61 44.59 27.85 44.6 27.84 44.6 27.84 43.62 27.61"/><polygon class="cls-1" points="42.98 10.33 43.92 9.97 43.91 9.96 42.98 10.33"/><polygon class="cls-1" points="38.31 3.99 38.91 3.19 38.9 3.19 38.31 3.99"/><polygon class="cls-1" points="18.92 13.91 17.95 13.69 17.94 13.69 18.92 13.91"/><polygon class="cls-1" points="17.32 21.02 18.3 21.24 18.3 21.24 17.32 21.02"/><polygon class="cls-1" points="15.78 25.11 16.57 25.73 16.59 25.71 16.6 25.69 15.78 25.11"/><path class="cls-1" d="M11.43,25.69l.58-.81Z"/><path class="cls-1" d="M10,23.58l-.94.33Z"/><polygon class="cls-1" points="10.98 12.57 11.89 12.99 11.89 12.98 11.9 12.97 10.98 12.57"/><polygon class="cls-1" points="15.27 6.62 15.96 7.34 16.82 6.52 15.87 5.82 15.27 6.62"/><polygon class="cls-1" points="8.17 1.3 8.77 0.5 8.09 0 7.48 0.58 8.17 1.3"/><polygon class="cls-1" points="2.86 9.18 3.78 9.56 3.78 9.55 3.79 9.54 2.86 9.18"/><rect class="cls-1" x="0.64" y="46.69" width="2" height="15.04"/><rect class="cls-1" x="11.42" y="53.75" width="2" height="22.55" transform="translate(-53.39 57.9) rotate(-73)"/><rect class="cls-1" x="26.66" y="64.93" width="2" height="9.22" transform="translate(-46.71 77.88) rotate(-74.71)"/><rect class="cls-1" x="31.1" y="70.75" width="2" height="0.13"/><rect class="cls-1" x="22.99" y="71.07" width="9.27" height="2" transform="matrix(0.97, -0.26, 0.26, 0.97, -17.5, 9.45)"/><rect class="cls-1" x="1.14" y="75.58" width="22.51" height="2" transform="translate(-22.09 7.09) rotate(-17.2)"/><rect class="cls-1" x="0.64" y="79.91" width="2" height="15.68"/><rect class="cls-1" x="1.64" y="94.59" width="42.24" height="2"/><rect class="cls-1" x="42.88" y="85.79" width="2" height="9.79"/><rect class="cls-1" x="24.49" y="84.79" width="19.39" height="2"/><rect class="cls-1" x="11.49" y="84.95" width="13" height="2" transform="translate(-2.11 0.47) rotate(-1.41)"/><rect class="cls-1" x="10.5" y="85.99" width="2" height="0.13"/><rect class="cls-1" x="10.68" y="79.77" width="34.02" height="2" transform="translate(-23.43 12.38) rotate(-17.86)"/><rect class="cls-1" x="42.88" y="66.66" width="2" height="8.9"/><rect class="cls-1" x="26.69" y="44.43" width="2" height="34.02" transform="translate(-39.28 68.96) rotate(-72.14)"/><rect class="cls-1" x="10.5" y="56.1" width="2" height="0.13"/><rect class="cls-1" x="16.99" y="49.76" width="2" height="13" transform="translate(-38.69 72.86) rotate(-88.59)"/><rect class="cls-1" x="24.49" y="55.42" width="19.39" height="2"/><rect class="cls-1" x="42.88" y="46.69" width="2" height="9.73"/><rect class="cls-1" x="1.64" y="45.69" width="42.24" height="2"/><polygon class="cls-1" points="1.64 61.73 0.64 61.73 0.64 62.47 1.35 62.69 1.64 61.73"/><polygon class="cls-1" points="23.21 68.32 22.92 69.28 22.93 69.28 22.94 69.29 23.21 68.32"/><polygon class="cls-1" points="32.1 70.75 33.1 70.75 33.1 69.99 32.37 69.79 32.1 70.75"/><polygon class="cls-1" points="32.1 70.88 32.36 71.85 33.1 71.65 33.1 70.88 32.1 70.88"/><polygon class="cls-1" points="23.14 73.25 22.89 72.28 22.87 72.29 22.85 72.3 23.14 73.25"/><polygon class="cls-1" points="1.64 79.91 1.34 78.95 0.64 79.17 0.64 79.91 1.64 79.91"/><rect class="cls-1" x="0.64" y="95.59" width="1" height="1"/><rect class="cls-1" x="43.88" y="95.59" width="1" height="1"/><rect class="cls-1" x="43.88" y="84.79" width="1" height="1"/><polygon class="cls-1" points="24.49 85.8 24.49 84.8 24.48 84.8 24.46 84.8 24.49 85.8"/><polygon class="cls-1" points="11.5 86.11 10.5 86.11 10.5 87.14 11.52 87.11 11.5 86.11"/><polygon class="cls-1" points="11.5 85.99 11.19 85.03 10.5 85.26 10.5 85.99 11.5 85.99"/><polygon class="cls-1" points="43.88 75.56 44.19 76.51 44.88 76.28 44.88 75.56 43.88 75.56"/><polygon class="cls-1" points="43.88 66.66 44.88 66.66 44.88 65.93 44.19 65.71 43.88 66.66"/><polygon class="cls-1" points="11.5 56.23 10.5 56.23 10.5 56.95 11.19 57.18 11.5 56.23"/><polygon class="cls-1" points="11.5 56.1 11.52 55.1 10.5 55.07 10.5 56.1 11.5 56.1"/><polygon class="cls-1" points="24.49 56.42 24.46 57.42 24.48 57.42 24.49 57.42 24.49 56.42"/><rect class="cls-1" x="43.88" y="56.42" width="1" height="1"/><rect class="cls-1" x="43.88" y="45.69" width="1" height="1"/><rect class="cls-1" x="0.64" y="45.69" width="1" height="1"/><rect class="cls-1" x="33.34" y="111.44" width="2" height="23.49"/><rect class="cls-1" x="26.86" y="110.44" width="7.49" height="2"/><rect class="cls-1" x="25.86" y="111.44" width="2" height="23.49"/><rect class="cls-1" x="26.86" y="133.93" width="7.49" height="2"/><rect class="cls-1" x="42.88" y="133.52" width="2" height="11.07"/><rect class="cls-1" x="29.28" y="115.06" width="2" height="28.48" transform="translate(-102.18 119.87) rotate(-72.75)"/><rect class="cls-1" x="12.38" y="120.8" width="2" height="6.81" transform="translate(-110.16 105.66) rotate(-75.31)"/><rect class="cls-1" x="9.09" y="123.22" width="2" height="0.13"/><rect class="cls-1" x="9.96" y="121.29" width="6.91" height="2" transform="translate(-32.36 8.1) rotate(-15.58)"/><rect class="cls-1" x="16.13" y="116.24" width="28.36" height="2" transform="translate(-32.81 13.9) rotate(-16.92)"/><rect class="cls-1" x="42.88" y="101.78" width="2" height="11.33"/><rect class="cls-1" x="0.38" y="108.17" width="44.75" height="2" transform="translate(-34.79 13.65) rotate(-19.29)"/><rect class="cls-1" x="0.64" y="116.56" width="2" height="13.18"/><rect class="cls-1" x="21.76" y="114.78" width="2" height="44.77" transform="translate(-114.2 113.15) rotate(-70.63)"/><rect class="cls-1" x="34.34" y="110.44" width="1" height="1"/><rect class="cls-1" x="25.86" y="110.44" width="1" height="1"/><rect class="cls-1" x="25.86" y="134.93" width="1" height="1"/><rect class="cls-1" x="34.34" y="134.93" width="1" height="1"/><polygon class="cls-1" points="43.88 133.52 44.88 133.52 44.88 132.79 44.18 132.57 43.88 133.52"/><polygon class="cls-1" points="16.68 125.08 16.98 124.12 16.95 124.11 16.93 124.11 16.68 125.08"/><polygon class="cls-1" points="10.09 123.35 9.09 123.35 9.09 124.12 9.83 124.31 10.09 123.35"/><polygon class="cls-1" points="10.09 123.22 9.82 122.26 9.09 122.46 9.09 123.22 10.09 123.22"/><polygon class="cls-1" points="16.74 121.36 17.01 122.33 17.02 122.32 17.04 122.32 16.74 121.36"/><polygon class="cls-1" points="43.88 113.11 44.17 114.06 44.88 113.85 44.88 113.11 43.88 113.11"/><polygon class="cls-1" points="43.88 101.78 44.88 101.78 44.88 100.37 43.55 100.83 43.88 101.78"/><polygon class="cls-1" points="1.64 116.56 1.31 115.62 0.64 115.85 0.64 116.56 1.64 116.56"/><polygon class="cls-1" points="1.64 129.75 0.64 129.75 0.64 130.46 1.31 130.69 1.64 129.75"/><polygon class="cls-1" points="43.88 144.59 43.55 145.54 44.88 146.01 44.88 144.59 43.88 144.59"/><rect class="cls-1" x="42.88" y="148.11" width="2" height="33.73"/><rect class="cls-1" x="35.37" y="147.11" width="8.51" height="2"/><rect class="cls-1" x="34.37" y="148.11" width="2" height="22.72"/><rect class="cls-1" x="26.73" y="169.83" width="8.64" height="2"/><rect class="cls-1" x="25.73" y="153.42" width="2" height="17.41"/><rect class="cls-1" x="18.73" y="152.42" width="8" height="2"/><rect class="cls-1" x="17.73" y="153.42" width="2" height="17.41"/><rect class="cls-1" x="10.15" y="169.83" width="8.58" height="2"/><rect class="cls-1" x="9.15" y="148.94" width="2" height="21.89"/><rect class="cls-1" x="1.64" y="147.94" width="8.51" height="2"/><rect class="cls-1" x="0.64" y="148.94" width="2" height="32.9"/><rect class="cls-1" x="1.64" y="180.83" width="42.24" height="2"/><rect class="cls-1" x="43.88" y="147.11" width="1" height="1"/><rect class="cls-1" x="34.37" y="147.11" width="1" height="1"/><rect class="cls-1" x="35.37" y="170.83" width="1" height="1"/><rect class="cls-1" x="25.73" y="170.83" width="1" height="1"/><rect class="cls-1" x="26.73" y="152.42" width="1" height="1"/><rect class="cls-1" x="17.73" y="152.42" width="1" height="1"/><rect class="cls-1" x="18.73" y="170.83" width="1" height="1"/><rect class="cls-1" x="9.15" y="170.83" width="1" height="1"/><rect class="cls-1" x="10.15" y="147.94" width="1" height="1"/><rect class="cls-1" x="0.64" y="147.94" width="1" height="1"/><rect class="cls-1" x="0.64" y="181.83" width="1" height="1"/><rect class="cls-1" x="43.88" y="181.83" width="1" height="1"/><rect class="cls-1" x="0.64" y="189.41" width="2" height="38.59"/><rect class="cls-1" x="1.64" y="227" width="8.51" height="2"/><rect class="cls-1" x="9.15" y="214.17" width="2" height="13.82"/><rect class="cls-1" x="10.15" y="213.17" width="33.73" height="2"/><rect class="cls-1" x="42.88" y="203.17" width="2" height="11.01"/><rect class="cls-1" x="10.15" y="202.17" width="33.73" height="2"/><rect class="cls-1" x="9.15" y="189.41" width="2" height="13.76"/><rect class="cls-1" x="1.64" y="188.41" width="8.51" height="2"/><rect class="cls-1" x="0.64" y="228" width="1" height="1"/><rect class="cls-1" x="10.15" y="228" width="1" height="1"/><rect class="cls-1" x="9.15" y="213.17" width="1" height="1"/><rect class="cls-1" x="43.88" y="214.17" width="1" height="1"/><rect class="cls-1" x="43.88" y="202.17" width="1" height="1"/><rect class="cls-1" x="9.15" y="203.17" width="1" height="1"/><rect class="cls-1" x="10.15" y="188.41" width="1" height="1"/><rect class="cls-1" x="0.64" y="188.41" width="1" height="1"/><path class="cls-1" d="M1,19.54A26.83,26.83,0,0,1,2.86,9.18,21.54,21.54,0,0,1,8.17,1.3l7.1,5.32a18.64,18.64,0,0,0-4.29,6,16.7,16.7,0,0,0-1.47,7.17A12,12,0,0,0,10,23.58a4.24,4.24,0,0,0,1.41,2.11,3.42,3.42,0,0,0,2.05.64,2.85,2.85,0,0,0,2.3-1.22A12.09,12.09,0,0,0,17.32,21l1.6-7.11q1.47-6.33,4.29-9.28A9.89,9.89,0,0,1,30.7,1.69,12.54,12.54,0,0,1,38.31,4,14.24,14.24,0,0,1,43,10.33a25.63,25.63,0,0,1,1.54,9.21,35.26,35.26,0,0,1-.9,8.07,27.85,27.85,0,0,1-2.68,6.91,21.69,21.69,0,0,1-4,5.18l-7.36-5.31a17.78,17.78,0,0,0,3.33-3.9,23.78,23.78,0,0,0,2.24-5.12,20.21,20.21,0,0,0,.83-5.7A12.91,12.91,0,0,0,35.56,16a4.34,4.34,0,0,0-1.34-2.24A3.34,3.34,0,0,0,32.1,13a3,3,0,0,0-2.24,1,7.91,7.91,0,0,0-1.6,3.64l-1.72,7.81a31.16,31.16,0,0,1-2.18,6.4,11.58,11.58,0,0,1-3.71,4.35,10.26,10.26,0,0,1-5.89,1.6,11.87,11.87,0,0,1-7-2.17,14.48,14.48,0,0,1-4.93-6.27A24.43,24.43,0,0,1,1,19.54Zm.64,27.15H43.88v9.73H24.49l-13-.32v.13L43.88,66.66v8.89L11.5,86v.12l13-.32H43.88v9.8H1.64V79.91l21.5-6.66,9-2.37v-.13l-8.89-2.43L1.64,61.73Zm32.7,88.24H26.86V111.44h7.48Zm9.54,9.67L1.64,129.75V116.56l42.24-14.78v11.33l-27.14,8.25-6.65,1.86v.13l6.59,1.73,27.2,8.44Zm0,37.23H1.64V148.94h8.51v21.89h8.58V153.42h8v17.41h8.64V148.11h8.51ZM1.64,189.41h8.51v13.76H43.88v11H10.15V228H1.64Z"/><rect class="cls-1" x="99.4" y="115.78" width="2" height="15.56"/><polygon class="cls-1" points="108.93 134.42 108.93 144.75 110.93 144.75 110.93 132.94 99.4 129.36 99.4 131.46 108.93 134.42"/><polygon class="cls-1" points="108.93 101.94 108.93 112.53 99.4 115.43 99.4 117.52 110.93 114.01 110.93 101.94 108.93 101.94"/><rect class="cls-1" x="66.44" y="108.33" width="44.75" height="2" transform="translate(-31.13 35.48) rotate(-19.29)"/><rect class="cls-1" x="66.69" y="116.72" width="2" height="13.18"/><rect class="cls-1" x="87.81" y="114.94" width="2" height="44.77" transform="translate(-70.2 175.58) rotate(-70.63)"/><polygon class="cls-1" points="91.91 129.13 93.91 129.75 93.91 117.07 75.87 122.42 75.14 122.62 75.14 123.38 75.14 123.51 75.14 124.28 91.91 129.13 91.91 127.04 79.73 123.41 91.91 119.8 91.91 129.13"/><polygon class="cls-1" points="109.93 101.94 110.93 101.94 110.93 100.53 109.6 100.99 109.93 101.94"/><polygon class="cls-1" points="67.69 116.72 67.36 115.78 66.69 116.01 66.69 116.72 67.69 116.72"/><polygon class="cls-1" points="67.69 129.91 66.69 129.91 66.69 130.62 67.36 130.85 67.69 129.91"/><polygon class="cls-1" points="109.93 144.75 109.6 145.7 110.93 146.17 110.93 144.75 109.93 144.75"/></g></g></svg>