<svg xmlns="http://www.w3.org/2000/svg" viewBox="0 0 110.88 214.84"><defs><style>.cls-1{fill:#fff;}</style></defs><g id="Layer_2" data-name="Layer 2"><g id="Layer_1-2" data-name="Layer 1"><path class="cls-1" d="M69.07,28.94a23.32,23.32,0,0,1-1.71-9.4h-2a25.23,25.23,0,0,0,1.88,10.2Zm4.58,5.85a13.46,13.46,0,0,1-4.58-5.85l-1.83.8a15.34,15.34,0,0,0,5.27,6.69Zm6.47,2a10.83,10.83,0,0,1-6.46-2L72.5,36.42a12.87,12.87,0,0,0,7.62,2.36Zm5.33-1.42a9.32,9.32,0,0,1-5.33,1.42v2A11.22,11.22,0,0,0,86.57,37Zm3.38-4a10.56,10.56,0,0,1-3.39,4L86.58,37a12.74,12.74,0,0,0,4-4.72Zm2.09-6.17a30.12,30.12,0,0,1-2.1,6.19l1.8.86a32.33,32.33,0,0,0,2.25-6.6Zm1.73-7.8-1.73,7.81,2,.43,1.73-7.81Zm1.87-4.14a8.74,8.74,0,0,0-1.87,4.12l1.95.47a7.1,7.1,0,0,1,1.33-3.18ZM97.46,12a4,4,0,0,0-3,1.27L96,14.66a1.93,1.93,0,0,1,1.5-.64Zm2.73.91A4.34,4.34,0,0,0,97.46,12v2a2.33,2.33,0,0,1,1.5.49Zm1.69,2.75a5.27,5.27,0,0,0-1.69-2.75L99,14.51a3.23,3.23,0,0,1,1,1.73Zm.49,4a14.2,14.2,0,0,0-.49-4l-1.92.58a12,12,0,0,1,.41,3.42Zm-.87,6a21.05,21.05,0,0,0,.87-6h-2a19,19,0,0,1-.79,5.42ZM99.16,31a23.67,23.67,0,0,0,2.33-5.34l-1.91-.58A22.24,22.24,0,0,1,97.44,30Zm-3.54,4.15A18.7,18.7,0,0,0,99.14,31L97.45,30a16.84,16.84,0,0,1-3.13,3.69Zm7.29,3.74-7.36-5.31L94.38,35.2l7.36,5.32ZM105.42,34A20.71,20.71,0,0,1,101.64,39L103,40.43A22.62,22.62,0,0,0,107.17,35ZM108,27.37A26.48,26.48,0,0,1,105.42,34l1.75,1A28.31,28.31,0,0,0,110,27.85Zm.87-7.83a34.31,34.31,0,0,1-.87,7.84l1.95.46a36.78,36.78,0,0,0,.92-8.3Zm-1.47-8.85a24.8,24.8,0,0,1,1.47,8.85h2a26.87,26.87,0,0,0-1.6-9.57Zm-4.34-5.9a13.24,13.24,0,0,1,4.34,5.91l1.86-.74a15.18,15.18,0,0,0-5-6.77Zm-7-2.1a11.52,11.52,0,0,1,7,2.11l1.18-1.61a13.48,13.48,0,0,0-8.2-2.5ZM89.29,5.32a8.91,8.91,0,0,1,6.77-2.63v-2a10.86,10.86,0,0,0-8.21,3.25Zm-4,8.82c1-4.14,2.34-7,4-8.82L87.85,3.94c-2.06,2.15-3.54,5.44-4.54,9.75Zm-1.59,7.1,1.6-7.11-2-.44L81.7,20.8ZM82,25.69a13.21,13.21,0,0,0,1.7-4.45l-2-.44a10.85,10.85,0,0,1-1.38,3.74Zm-3.12,1.64a3.86,3.86,0,0,0,3.09-1.6l-1.57-1.24a1.87,1.87,0,0,1-1.52.84Zm-2.63-.83a4.4,4.4,0,0,0,2.63.83v-2a2.51,2.51,0,0,1-1.47-.45Zm-1.77-2.59a5.15,5.15,0,0,0,1.77,2.59l1.16-1.62a3.28,3.28,0,0,1-1-1.63Zm-.57-4.17a13,13,0,0,0,.57,4.17l1.89-.66a11,11,0,0,1-.46-3.51Zm1.57-7.6a17.78,17.78,0,0,0-1.57,7.6h2A15.7,15.7,0,0,1,77.25,13Zm4.5-6.25a19.78,19.78,0,0,0-4.51,6.28l1.83.8a17.62,17.62,0,0,1,4.06-5.63Zm-7-3.78L80,7.42l1.2-1.6L74.13.5ZM69.15,9.54A20.64,20.64,0,0,1,74.22,2L72.84.58a22.58,22.58,0,0,0-5.55,8.23Zm-1.79,10a25.86,25.86,0,0,1,1.78-10l-1.85-.77a28.11,28.11,0,0,0-1.93,10.75Zm.79,9.8-.91.4Zm4.93,6.27.58-.82h0ZM86,36.19l.56.82h0Zm3.71-4.36.89.46h0v0Zm2.18-6.4,1,.23h0Zm1.72-7.81-1-.23h0ZM95.22,14l.71.7h0Zm5.7,2-1,.28h0Zm-.38,9.41.95.29h0ZM98.3,30.49l.84.54v0h0ZM95,34.39l-.65-.75-1,.82,1,.74Zm7.36,5.32-.59.81.67.48.6-.57Zm4-5.19.87.49ZM109,27.61l1,.24h0Zm-.64-17.28.94-.36h0ZM103.67,4l.6-.8h0ZM84.28,13.91l-1-.22h0ZM82.68,21l1,.22h0Zm-1.54,4.09.79.62,0,0v0Zm-4.35.58.58-.81Zm-1.41-2.11-.94.33Zm1-11,.91.42h0Zm4.29-5.95.69.72.86-.82-1-.7ZM73.53,1.3l.6-.8L73.45,0l-.61.58ZM68.22,9.18l.92.38h0Zm6.84,62.28h9.22v-2H75.06Zm-1-9v8h2v-8Zm5.61-6.89a5.11,5.11,0,0,0-4.24,1.86,8,8,0,0,0-1.37,5h2a6.15,6.15,0,0,1,.94-3.8,3.15,3.15,0,0,1,2.67-1.09Zm5.61,6.89a8.08,8.08,0,0,0-1.36-5,5.13,5.13,0,0,0-4.25-1.86v2a3.13,3.13,0,0,1,2.67,1.09,6.15,6.15,0,0,1,.94,3.8Zm0,8v-8h-2v8Zm6.87,1h9.35v-2H92.15Zm-1-10v9h2v-9Zm1.45-5.12a7.87,7.87,0,0,0-1.45,5.12h2a6,6,0,0,1,1-3.84Zm4.16-1.83a5.05,5.05,0,0,0-4.18,1.85l1.58,1.24a3.05,3.05,0,0,1,2.6-1.09Zm4.29,1.83a5.28,5.28,0,0,0-4.29-1.83v2a3.29,3.29,0,0,1,2.75,1.11Zm1.45,5.12a7.93,7.93,0,0,0-1.45-5.12L99.51,57.6a6,6,0,0,1,1,3.84Zm0,9v-9h-2v9Zm5.74-10.88V81.09h2V59.58ZM105.5,48.67c1.77,2.31,2.74,5.89,2.74,10.91h2c0-5.22-1-9.31-3.15-12.13Zm-7.65-3.45a9.11,9.11,0,0,1,7.66,3.46l1.57-1.23a11.09,11.09,0,0,0-9.23-4.23ZM92,47.4a8.37,8.37,0,0,1,5.86-2.18v-2a10.43,10.43,0,0,0-7.2,2.69ZM88.92,54c.41-3.09,1.46-5.24,3-6.61l-1.3-1.51c-2.08,1.79-3.29,4.46-3.73,7.86Zm-1.06.87h.07v-2h-.07ZM84,48.19a9.16,9.16,0,0,1,2.92,5.86l2-.32a11.12,11.12,0,0,0-3.61-7.08Zm-5.57-1.88A8.62,8.62,0,0,1,84,48.2l1.26-1.56a10.62,10.62,0,0,0-6.84-2.33ZM70.8,49.64c1.69-2.19,4.17-3.33,7.59-3.33v-2c-3.92,0-7,1.34-9.17,4.1ZM68,60.55c0-5.11,1-8.69,2.79-10.91L69.22,48.4C67.06,51.13,66,55.24,66,60.53Zm0,20.54V60.54H66V81.09Zm41.24-1H67v2h42.24ZM75.06,70.46h-1v1h1Zm9.22,0v1h1v-1Zm7.87,0h-1v1h1ZM93.37,57l.77.64h0Zm6.91,0,.77-.64Zm1.22,13.5v1h1v-1Zm4.8-22.4.79-.61h0Zm-15-1.41.65.76h0Zm-3.39,7.24v1h.88l.11-.87Zm-.07,0-1,.16.13.84h.85ZM84.6,47.42l.64-.77h0ZM70,49l.78.62h0ZM67,60.54h0Zm0,20.55H66v1h1Zm42.24,0v1h1v-1ZM68,101.88v-11H66v11Zm24.22-1H67v2H92.22Zm7.44,2.24c-1.75-1.55-4.29-2.24-7.44-2.24v2c2.9,0,4.88.64,6.12,1.74Zm2.58,6.64c0-2.83-.8-5.12-2.59-6.65l-1.3,1.52c1.2,1,1.89,2.67,1.89,5.13Zm-2.58,6.63a8.42,8.42,0,0,0,2.58-6.63h-2c0,2.41-.68,4.06-1.9,5.14Zm-7.44,2.17c3.14,0,5.68-.66,7.43-2.16l-1.3-1.51c-1.24,1-3.22,1.67-6.13,1.67Zm-25.22,0H92.22v-2H67Zm1,10.08V117.56H66v11.08Zm24-1H67v2H92Zm12.71-4.49c-2.73,2.94-6.91,4.49-12.71,4.49v2c6.15,0,10.94-1.65,14.18-5.12Zm4.15-13.39c0,6-1.44,10.45-4.15,13.4l1.47,1.35c3.17-3.45,4.68-8.42,4.68-14.75Zm-4.15-13.4c2.71,2.9,4.15,7.31,4.15,13.4h2c0-6.37-1.5-11.36-4.68-14.77ZM92,91.88c5.8,0,10,1.55,12.71,4.48L106.2,95c-3.24-3.46-8-5.11-14.18-5.11Zm-25,0H92v-2H67Zm0,10H66v1h1Zm32,2-.66.75h0Zm0,11.77.65.76h0Zm-32,1.92v-1H66v1Zm0,11.08H66v1h1Zm38.46-4.8.74.68h0Zm0-28.16.74-.69h0ZM67,90.88v-1H66v1Zm0,66.32h33.73v-2H67Zm1,10v-11H66v11Zm41.24-1H67v2h42.24Zm-1-31.19v32.19h2V135Zm-7.51,1h8.51v-2h-8.51Zm1,20.18V135h-2V156.2ZM67,156.2v-1H66v1Zm0,11H66v1h1Zm42.24,0v1h1v-1Zm0-32.19h1v-1h-1Zm-8.51,0v-1h-1v1Zm0,21.18v1h1v-1Zm-5.44,28.67,2.82-10-1.93-.54-2.81,10Zm5.07,2a9.8,9.8,0,0,0-5.82-3.3l-.43,1.95a7.86,7.86,0,0,1,4.68,2.59Zm1.88,5.8a9.09,9.09,0,0,0-1.88-5.8l-1.57,1.24a7.13,7.13,0,0,1,1.45,4.56Zm-1.64,6.06a10.82,10.82,0,0,0,1.64-6.06h-2a8.77,8.77,0,0,1-1.31,5Zm-4.9,3.65a9.82,9.82,0,0,0,4.9-3.64l-1.66-1.12A7.81,7.81,0,0,1,95,200.55Zm-7.58,1.15a21.94,21.94,0,0,0,7.58-1.15L95,200.55a19.85,19.85,0,0,1-6.89,1Zm-7.6-1.22a20.56,20.56,0,0,0,7.6,1.22v-2a18.53,18.53,0,0,1-6.86-1.08Zm-4.88-3.76a10.59,10.59,0,0,0,4.87,3.75l.76-1.85a8.56,8.56,0,0,1-4-3ZM74,192.79a10.32,10.32,0,0,0,1.64,5.79l1.67-1.09a8.37,8.37,0,0,1-1.31-4.7Zm1.67-5.65A9.22,9.22,0,0,0,74,192.79h2a7.23,7.23,0,0,1,1.28-4.46Zm6-3.33c-2.74.62-4.84,1.68-6,3.34l1.62,1.17c.78-1.08,2.31-2,4.85-2.56Zm-4.61-8.31,3.9,9.66,1.86-.75-3.9-9.66Zm-5,4a13.42,13.42,0,0,1,6.15-3.39l-.52-1.93a15.46,15.46,0,0,0-7,3.9Zm-3.53,5.87a14.73,14.73,0,0,1,3.53-5.87l-1.41-1.42a16.62,16.62,0,0,0-4,6.67Zm-1.23,7.82a23.63,23.63,0,0,1,1.23-7.8l-1.9-.65a25.86,25.86,0,0,0-1.33,8.45Zm2.5,10.52a21,21,0,0,1-2.5-10.52h-2a23.08,23.08,0,0,0,2.75,11.5Zm7,6.77a16.27,16.27,0,0,1-7-6.76l-1.75,1A18.22,18.22,0,0,0,76,212.24Zm11.26,2.38a24.48,24.48,0,0,1-11.26-2.38L76,212.24a26.44,26.44,0,0,0,12.17,2.6Zm11.26-2.38a24.48,24.48,0,0,1-11.26,2.38v2a26.44,26.44,0,0,0,12.17-2.6Zm7.07-6.77a16.63,16.63,0,0,1-7.07,6.77l.91,1.78a18.62,18.62,0,0,0,7.9-7.57Zm2.43-10.58a21.72,21.72,0,0,1-2.44,10.59l1.76,1a23.72,23.72,0,0,0,2.68-11.55Zm-1.23-7.87a23.85,23.85,0,0,1,1.23,7.87h2a26.11,26.11,0,0,0-1.33-8.52Zm-3.9-6a15.4,15.4,0,0,1,3.91,6l1.88-.68a17.52,17.52,0,0,0-4.41-6.79Zm-6.87-3.66a16.11,16.11,0,0,1,6.88,3.67l1.36-1.47a18.14,18.14,0,0,0-7.71-4.13Zm-2.55,9-1-.28-.29,1,1,.22Zm5.25,2.94.78-.62h0Zm.19,10.69.83.56h0Zm-4.42,3.26.35.94Zm-14.46-.06-.38.92h0ZM76.47,198l-.83.54v0Zm0-10.31.81.6h0Zm5.44-2.94.22,1,1.15-.26-.44-1.09ZM78,175.12l.93-.37-.34-.82-.85.23Zm-6.59,3.65-.71-.71ZM67.64,185l1,.33h0ZM69,204.18l.88-.48h0Zm7.43,7.17.45-.89Zm23.42,0-.45-.89Zm7.49-7.17.87.49h0Zm1.28-19.26,1-.33h0Zm-4.16-6.4.69-.73h0Zm-7.3-3.91.27-1-1-.27-.27,1ZM42.24,32.14V65.87h2V32.14Zm-7.51,1h8.51v-2H34.73Zm1,21.72V32.14h-2V54.86Zm-9.64,1h8.64v-2H26.09Zm-1-18.41V54.86h2V37.45Zm-7,1h8v-2h-8Zm1,16.41V37.45h-2V54.86Zm-9.58,1h8.58v-2H9.51ZM8.51,33V54.86h2V33ZM1,34H9.51V32H1Zm1,31.9V33H0v32.9Zm41.24-1H1v2H43.24Zm0-32.73h1v-1h-1Zm-8.51,0v-1h-1v1Zm0,22.72v1h1v-1Zm-8.64,0h-1v1h1Zm0-17.41h1v-1h-1Zm-8,0v-1h-1v1Zm0,17.41v1h1v-1Zm-8.58,0h-1v1h1ZM9.51,33h1V32h-1ZM1,33V32H0v1Zm0,32.9H0v1H1Zm42.24,0v1h1v-1ZM2,112V73.44H0V112Zm7.51-1H1v2H9.51Zm-1-12.82V112h2V98.21Zm34.73-1H9.51v2H43.24Zm-1-10v11h2v-11Zm-32.73,1H43.24v-2H9.51Zm-1-14.76V87.2h2V73.44ZM1,74.44H9.51v-2H1ZM1,112H0v1H1Zm8.51,0v1h1v-1Zm0-13.82v-1h-1v1Zm33.73,0v1h1v-1Zm0-11h1v-1h-1Zm-33.73,0h-1v1h1Zm0-13.76h1v-1h-1ZM1,73.44v-1H0v1Zm1,57.18v-11H0v11Zm41.24-1H1v2H43.24Zm-1-10v11h2v-11ZM1,120.61H43.24v-2H1Zm0,10H0v1H1Zm42.24,0v1h1v-1Zm0-11h1v-1h-1ZM1,119.61v-1H0v1Zm0,40.78H34.73v-2H1Zm1,10v-11H0v11Zm41.24-1H1v2H43.24Zm-1-31.19V170.4h2V138.21Zm-7.51,1h8.51v-2H34.73Zm1,20.18V138.21h-2v21.18ZM1,159.39v-1H0v1Zm0,11H0v1H1Zm42.24,0v1h1v-1Zm0-32.19h1v-1h-1Zm-8.51,0v-1h-1v1Zm0,21.18v1h1v-1Zm7.51,18.93v33.73h2V178.32Zm-7.51,1h8.51v-2H34.73Zm1,21.72V178.32h-2V201Zm-9.64,1h8.64v-2H26.09Zm-1-18.4V201h2v-17.4Zm-7,1h8v-2h-8Zm1,16.4v-17.4h-2V201Zm-9.58,1h8.58v-2H9.51Zm-1-22.88V201h2V179.16Zm-7.51,1H9.51v-2H1Zm1,31.89V179.16H0v32.89Zm41.24-1H1v2H43.24Zm0-32.73h1v-1h-1Zm-8.51,0v-1h-1v1Zm0,22.72v1h1v-1Zm-8.64,0h-1v1h1Zm0-17.4h1v-1h-1Zm-8,0v-1h-1v1Zm0,17.4v1h1v-1Zm-8.58,0h-1v1h1Zm0-21.88h1v-1h-1Zm-8.51,0v-1H0v1Zm0,32.89H0v1H1Zm42.24,0v1h1v-1Z"/><path class="cls-1" d="M43.24,65.87H1V33H9.51V54.86h8.58V37.45h8V54.86h8.64V32.14h8.51ZM1,73.44H9.51V87.2H43.24v11H9.51V112H1Zm0,46.17H43.24v11H1Zm33.73,39.78V138.21h8.51V170.4H1v-11Zm8.51,52.66H1V179.16H9.51V201h8.58v-17.4h8V201h8.64V178.32h8.51Z"/></g></g></svg>