<svg xmlns="http://www.w3.org/2000/svg" viewBox="0 0 148.81 108.2"><defs><style>.cls-1{fill:#595a5c;}.cls-2{fill:#82bc00;}.cls-3{fill:#818385;}</style></defs><title>Asset 1</title><g id="Layer_2" data-name="Layer 2"><g id="Layer_1-2" data-name="Layer 1"><path class="cls-1" d="M5,106.5H5c1.32,0,2.63-.47,2.63-2.47s-1.34-2.51-2.73-2.51H3.18v5Zm-.53-6.34h0c1.18,0,2.68-.26,2.68-2.63,0-1.8-1.05-2.07-2.25-2.07H3.18v4.7ZM4.92,94c1.52,0,4,.16,4,3.3a3.46,3.46,0,0,1-2,3.3,3.16,3.16,0,0,1,2.49,3.44,3.93,3.93,0,0,1-1.34,3.06c-.79.67-1.92.77-3.54.77H.24a.22.22,0,0,1-.24-.24v-.83a.21.21,0,0,1,.24-.24H1.52V95.36H.24A.22.22,0,0,1,0,95.12v-.83A.22.22,0,0,1,.24,94Zm10.63,9h0c-.89,0-3.77,0-3.77,2.14a1.55,1.55,0,0,0,1.46,1.72,3.9,3.9,0,0,0,2.31-1.25Zm-4.68-4a.65.65,0,0,1-.06-.26c0-.34,1.86-.93,3.16-.93,2.33,0,3.12,1.13,3.12,2.84v3.89a5,5,0,0,0,.24,2h1a.22.22,0,0,1,.24.24v.77a.22.22,0,0,1-.24.24H16.57c-.51,0-.67-.75-.77-1.07a4.1,4.1,0,0,1-2.92,1.36,2.54,2.54,0,0,1-2.63-2.85c0-3.42,4-3.48,5.31-3.53v-.73c0-1.17-.36-1.82-1.8-1.82a6.52,6.52,0,0,0-2.47.65.15.15,0,0,1-.14-.1Zm17.4,8.56a.21.21,0,0,1-.24.24h-1.7c-.61,0-.69-.65-.85-.91a4.82,4.82,0,0,1-2.81,1.19c-2.73,0-3-1.58-3-3V99.45H18.57a.21.21,0,0,1-.24-.24v-.77a.21.21,0,0,1,.24-.24H21a.21.21,0,0,1,.24.24v6.76a1.46,1.46,0,0,0,1.66,1.64,4.25,4.25,0,0,0,2.31-1V99.45H24.06a.21.21,0,0,1-.24-.24v-.77a.21.21,0,0,1,.24-.24h2.45a.21.21,0,0,1,.24.24v6.95a6.44,6.44,0,0,0,.12,1.27H28a.21.21,0,0,1,.24.24Zm8.67-11.8h0a1.24,1.24,0,0,1,0-2.47,1.24,1.24,0,0,1,0,2.47Zm-2.3,10.86a.24.24,0,0,1,.19-.07h1.46V99.45h-1.6a.22.22,0,0,1-.24-.24v-.73l-.26.79a.28.28,0,0,1-.26.18H31.25v5.75c0,.81,0,1.64,1.21,1.64a6.09,6.09,0,0,0,1.94-.55.13.13,0,0,1,.14.12Zm4.87.94a.21.21,0,0,1-.24.24H34.83a.21.21,0,0,1-.24-.24v-.08a5.68,5.68,0,0,1-2.39.61,2.49,2.49,0,0,1-1.9-.71,3.2,3.2,0,0,1-.59-2.29V99.45H28.19c-.14,0-.14-.14-.14-.24v-.77c0-.14,0-.24.14-.24h1.52V95.43c0-.12.08-.2.22-.24l1.07-.3.14,0c.1,0,.1.1.1.22V98.2h3c.12,0,.21,0,.22.12a.22.22,0,0,1,.22-.12h2.88c.22,0,.26.12.26.3v8.16h1.44a.21.21,0,0,1,.24.24Zm4.74-8.18a3.72,3.72,0,0,0-1.32-.26,1.32,1.32,0,0,0-1.5,1.34c0,2.23,4.5,1.6,4.5,4.76,0,1.9-1.5,2.87-3.24,2.87-1.21,0-3.08-.59-3.08-1v-1.88c0-.14.06-.22.22-.22h.87c.16,0,.22.08.22.22v1.2a5.88,5.88,0,0,0,1.84.38,1.46,1.46,0,0,0,1.62-1.46c0-2.11-4.5-1.64-4.5-4.7A2.84,2.84,0,0,1,43,97.91a6.49,6.49,0,0,1,2.39.61c.22.12.22.22.22.32v1.76a.22.22,0,0,1-.24.24h-.83a.22.22,0,0,1-.24-.24Zm8.49,7.67a1.12,1.12,0,0,1,0,.2c0,.26-1.52.83-2.61.83a2.5,2.5,0,0,1-1.9-.71,3.21,3.21,0,0,1-.59-2.29V99.45H46.15c-.14,0-.14-.14-.14-.24v-.77c0-.14,0-.24.14-.24h1.52V95.43c0-.12.08-.2.22-.24l1.07-.3.14,0c.1,0,.1.1.1.22V98.2h3c.12,0,.23,0,.23.14s0,.08,0,.14l-.27.79a.28.28,0,0,1-.26.18H49.21v5.75c0,.81,0,1.64,1.21,1.64a6.06,6.06,0,0,0,1.94-.55.14.14,0,0,1,.14.12Zm5.49-4.09h0c-.89,0-3.77,0-3.77,2.14a1.55,1.55,0,0,0,1.46,1.72,3.89,3.89,0,0,0,2.31-1.25Zm-4.68-4a.65.65,0,0,1-.06-.26c0-.34,1.86-.93,3.16-.93,2.33,0,3.12,1.13,3.12,2.84v3.89a5,5,0,0,0,.24,2h1a.21.21,0,0,1,.24.24v.77a.22.22,0,0,1-.24.24H59.23c-.51,0-.67-.75-.77-1.07a4.11,4.11,0,0,1-2.92,1.36,2.54,2.54,0,0,1-2.64-2.85c0-3.42,4.05-3.48,5.31-3.53v-.73c0-1.17-.36-1.82-1.8-1.82a6.56,6.56,0,0,0-2.47.65.15.15,0,0,1-.14-.1Zm18.89.83h0A3.77,3.77,0,0,0,70,99.27c-1.7,0-1.91,2-1.91,4,0,1.7.18,3.62,1.78,3.62a3.84,3.84,0,0,0,2.51-1.19Zm3.06,7.74a.22.22,0,0,1-.24.24H73.43c-.51,0-.59-.65-.71-.91a4.52,4.52,0,0,1-3.08,1.19c-2.21,0-3.16-2.43-3.16-4.94,0-2.92,1-5.35,3.38-5.35a4.27,4.27,0,0,1,2.57.69V94.65H71.14a.21.21,0,0,1-.24-.24v-.77a.21.21,0,0,1,.24-.24h2.59a.22.22,0,0,1,.24.24v11.75a4.82,4.82,0,0,0,.12,1.27h1.15a.21.21,0,0,1,.24.24Zm6-5.55h0c0-1.05-.35-3-2.11-3s-2.27,1.95-2.27,3ZM82.84,107c0,.06.06.1.06.16a5.22,5.22,0,0,1-3.2,1.05c-2.69,0-4.27-2.06-4.27-5.14s1.5-5.14,4-5.14c3.38,0,3.69,3.28,3.69,5,0,.28,0,.45-.22.45H77.09c0,1.23.49,3.46,2.79,3.46a5.55,5.55,0,0,0,2.49-.83c.06,0,.08.06.12.12Zm14-.34c0,.24,0,.38-.18.52a5.47,5.47,0,0,1-3,1c-3.44,0-4.66-3.16-4.66-7.35,0-3.85,1-7.09,4.49-7.09a5,5,0,0,1,3.08,1,.41.41,0,0,1,.2.38v2.25c0,.16-.08.24-.22.24H95.6c-.14,0-.22-.08-.22-.24V95.69a3.52,3.52,0,0,0-1.86-.57c-2.17,0-2.71,2.11-2.71,5.53,0,3.75.81,6.19,2.88,6.19a3.44,3.44,0,0,0,1.8-.57v-1.74c0-.16.08-.24.22-.24h.93c.14,0,.23.08.23.24Zm5.91-3.56h0c-.89,0-3.76,0-3.76,2.14a1.55,1.55,0,0,0,1.46,1.72,3.89,3.89,0,0,0,2.31-1.25Zm-4.67-4a.61.61,0,0,1-.06-.26c0-.34,1.86-.93,3.16-.93,2.33,0,3.12,1.13,3.12,2.84v3.89a4.92,4.92,0,0,0,.24,2h1a.21.21,0,0,1,.24.24v.77a.21.21,0,0,1-.24.24h-1.72c-.5,0-.67-.75-.77-1.07a4.1,4.1,0,0,1-2.92,1.36,2.54,2.54,0,0,1-2.63-2.85c0-3.42,4-3.48,5.3-3.53v-.73c0-1.17-.36-1.82-1.8-1.82a6.52,6.52,0,0,0-2.47.65.14.14,0,0,1-.14-.1Zm18.33,8.56a.22.22,0,0,1-.24.24h-4a.22.22,0,0,1-.24-.24v-.77a.21.21,0,0,1,.24-.24h1.15v-5.93a4.31,4.31,0,0,0-.22-1.28H112a.21.21,0,0,1-.24-.24V98.7l-.33.75s0,.14-.12.14a2,2,0,0,0-.67-.18c-.71,0-1.42,1.05-1.9,1.58v5.67h1.28a.21.21,0,0,1,.24.24v.77a.21.21,0,0,1-.24.24h-4a.21.21,0,0,1-.24-.24v-.77a.21.21,0,0,1,.24-.24h1.16v-5.93a4.25,4.25,0,0,0-.22-1.28h-1.09a.21.21,0,0,1-.24-.24v-.77a.21.21,0,0,1,.24-.24h1.82c.57,0,.73,1,.81,1.42.53-.57,1.26-1.7,2.43-1.7a1.39,1.39,0,0,1,1,.29h1.9c.57,0,.73,1,.81,1.42.53-.57,1.25-1.7,2.43-1.7.47,0,1,.16,1,.35a.72.72,0,0,1-.06.16l-.44,1s0,.14-.12.14a2,2,0,0,0-.67-.18c-.71,0-1.42,1.05-1.9,1.58v5.67h1.28a.22.22,0,0,1,.24.24Zm6.58-4.6h0c-.89,0-3.77,0-3.77,2.14a1.55,1.55,0,0,0,1.46,1.72,3.9,3.9,0,0,0,2.31-1.25Zm-4.68-4a.61.61,0,0,1-.06-.26c0-.34,1.86-.93,3.16-.93,2.33,0,3.12,1.13,3.12,2.84v3.89a5,5,0,0,0,.24,2h1a.21.21,0,0,1,.24.24v.77a.21.21,0,0,1-.24.24H124c-.51,0-.67-.75-.77-1.07a4.1,4.1,0,0,1-2.92,1.36,2.54,2.54,0,0,1-2.63-2.85c0-3.42,4-3.48,5.3-3.53v-.73c0-1.17-.36-1.82-1.8-1.82a6.58,6.58,0,0,0-2.47.65.15.15,0,0,1-.14-.1Zm12.41.38a3.71,3.71,0,0,0-1.31-.26,1.32,1.32,0,0,0-1.5,1.34c0,2.23,4.5,1.6,4.5,4.76,0,1.9-1.5,2.87-3.24,2.87-1.22,0-3.08-.59-3.08-1v-1.88a.19.19,0,0,1,.22-.22h.87c.16,0,.22.08.22.22v1.2a5.89,5.89,0,0,0,1.84.38,1.46,1.46,0,0,0,1.62-1.46c0-2.11-4.5-1.64-4.5-4.7a2.84,2.84,0,0,1,3.06-2.82,6.48,6.48,0,0,1,2.39.61c.22.12.22.22.22.32v1.76a.21.21,0,0,1-.24.24H131a.22.22,0,0,1-.25-.24ZM140,107c0,.06.06.1.06.16a5.2,5.2,0,0,1-3.2,1.05c-2.41,0-3.81-1.88-3.81-4.84,0-3.38,1.62-5.45,4.11-5.45a5.28,5.28,0,0,1,2.75.87c.06.06.06.14.06.3v1.74c0,.16-.06.24-.22.24h-.87c-.14,0-.22-.06-.22-.24V99.66a2.92,2.92,0,0,0-1.38-.39c-2,0-2.57,1.48-2.57,3.79,0,1.84.36,3.79,2.33,3.79a5.54,5.54,0,0,0,2.49-.83c.06,0,.08.06.12.12Zm7.15-4h0c0-2-.55-3.81-2.37-3.81s-2.37,1.74-2.37,3.75c0,2.31.53,4,2.39,4S147.15,105.31,147.15,103Zm-2.49,5.22c-2.73,0-3.91-2.21-3.91-5.1s1.17-5.18,4.11-5.18c2.77,0,3.95,2.23,3.95,5.09S147.62,108.2,144.66,108.2Z"/><path class="cls-1" d="M21.21,80.35h0a4.31,4.31,0,0,0-1.86-.55c-1.54,0-2.27,1.36-2.27,3.52s.39,3.5,1.76,3.5a4.23,4.23,0,0,0,2.37-1Zm1.54,4.19c0,1.13.14,3.5.14,4.6,0,1.84-.83,3.56-3.56,3.56-1.52,0-3.4-.69-3.4-1.07a.48.48,0,0,1,.08-.26l.32-.69a.15.15,0,0,1,.14-.12,7.49,7.49,0,0,0,2.77.79c1.89,0,2.11-1.09,2.11-2.19s-.06-1.84-.06-2.09a4.25,4.25,0,0,1-2.75,1.11c-1.84,0-3.12-1.62-3.12-4.47,0-3.18,1.23-5.26,3.81-5.26a3.7,3.7,0,0,1,2.39.87c.18-.51.41-.87.59-.87a.4.4,0,0,1,.18,0l.91.57c.08.06.08.08.08.12s-.18.27-.36.75a3.52,3.52,0,0,0-.27,1.5ZM29,88.08a.41.41,0,0,1,0,.14c0,.22-1,.51-1.72.51a1.92,1.92,0,0,1-1.9-1,10.22,10.22,0,0,1-.28-2.93V75.18H23.95a.21.21,0,0,1-.24-.24v-.77a.21.21,0,0,1,.24-.24h2.47c.24,0,.28.12.28.3V84.86c0,.63,0,1.66.06,1.9a.81.81,0,0,0,.81.71,3.93,3.93,0,0,0,1.05-.26c.12,0,.12.06.14.12Zm5.61-5.42h0c0-1.06-.34-3-2.11-3s-2.27,1.94-2.27,3ZM36,87.51c0,.06.06.1.06.16a5.2,5.2,0,0,1-3.2,1.05c-2.7,0-4.27-2.06-4.27-5.14s1.5-5.14,4-5.14c3.38,0,3.69,3.28,3.69,5,0,.28,0,.45-.22.45H30.26c0,1.24.48,3.46,2.79,3.46a5.5,5.5,0,0,0,2.49-.83c.06,0,.08.06.12.12ZM41.6,80a3.63,3.63,0,0,0-1.32-.26,1.32,1.32,0,0,0-1.5,1.34c0,2.23,4.5,1.6,4.5,4.76,0,1.9-1.5,2.88-3.24,2.88-1.21,0-3.08-.59-3.08-1V85.83a.2.2,0,0,1,.22-.22h.87a.2.2,0,0,1,.23.22V87a5.81,5.81,0,0,0,1.84.38A1.46,1.46,0,0,0,41.74,86c0-2.11-4.5-1.64-4.5-4.7a2.83,2.83,0,0,1,3.06-2.81A6.5,6.5,0,0,1,42.7,79c.22.12.22.22.22.32v1.76a.21.21,0,0,1-.24.24h-.83a.21.21,0,0,1-.24-.24Zm4.17-3.63h0A1.23,1.23,0,1,1,47,75.16,1.23,1.23,0,0,1,45.78,76.4ZM48.35,88.2a.21.21,0,0,1-.24.24H43.67a.21.21,0,0,1-.24-.24v-.77a.21.21,0,0,1,.24-.24h1.46V80h-1.6a.21.21,0,0,1-.24-.24V79a.22.22,0,0,1,.24-.24H46.4c.22,0,.27.12.27.31v8.16H48.1a.22.22,0,0,1,.24.24Zm5.36-4.6h0c-.89,0-3.77,0-3.77,2.15a1.55,1.55,0,0,0,1.46,1.72,3.89,3.89,0,0,0,2.31-1.26Zm-4.68-4a.64.64,0,0,1-.06-.26c0-.34,1.86-.93,3.16-.93,2.33,0,3.12,1.13,3.12,2.83v3.89a5,5,0,0,0,.24,2h1a.22.22,0,0,1,.24.24v.77a.21.21,0,0,1-.24.24H54.72c-.5,0-.67-.75-.77-1.07A4.1,4.1,0,0,1,51,88.73a2.54,2.54,0,0,1-2.63-2.85c0-3.42,4-3.48,5.31-3.53v-.73c0-1.17-.36-1.82-1.8-1.82a6.54,6.54,0,0,0-2.47.65.15.15,0,0,1-.14-.1Zm21,8.53c0,.24-.06.28-.28.28H62a.21.21,0,0,1-.24-.24v-.83a.21.21,0,0,1,.24-.24h1.27V75.89H62a.21.21,0,0,1-.24-.24v-.83a.22.22,0,0,1,.24-.24h7.63c.22,0,.26.06.26.28v2.75c0,.16-.08.24-.22.24h-.93c-.14,0-.22-.08-.22-.24V76H64.93v4.49h4c.22,0,.26,0,.26.26v.89c0,.22,0,.26-.26.26h-4V87h3.73V85.2a.19.19,0,0,1,.22-.22h.91c.16,0,.24.08.24.22Zm5.13.39c-.06.14-.08.18-.27.18H74.1c-.18,0-.2-.08-.24-.18L70.76,80h-.67a.21.21,0,0,1-.24-.24V79a.21.21,0,0,1,.24-.24h3.44c.14,0,.22.08.22.24v.71c0,.16-.08.22-.22.22H72.4l1.78,5.42c.14.43.27.89.37,1.28h0A7.56,7.56,0,0,1,75,85.35l2-5.45H75.7c-.16,0-.22-.06-.22-.22V79c0-.16.06-.24.22-.24h3.38a.22.22,0,0,1,.24.24v.77a.21.21,0,0,1-.24.24H78.5Zm9-4.94h0c-.89,0-3.77,0-3.77,2.15a1.55,1.55,0,0,0,1.46,1.72,3.88,3.88,0,0,0,2.31-1.26Zm-4.68-4a.65.65,0,0,1-.06-.26c0-.34,1.86-.93,3.16-.93,2.33,0,3.12,1.13,3.12,2.83v3.89a5,5,0,0,0,.24,2h1a.22.22,0,0,1,.24.24v.77a.21.21,0,0,1-.24.24H85.15c-.5,0-.67-.75-.77-1.07a4.11,4.11,0,0,1-2.92,1.36,2.54,2.54,0,0,1-2.63-2.85c0-3.42,4-3.48,5.3-3.53v-.73c0-1.17-.36-1.82-1.8-1.82a6.52,6.52,0,0,0-2.47.65.16.16,0,0,1-.14-.1ZM97,88.2a.21.21,0,0,1-.24.24H94.37a.21.21,0,0,1-.24-.24V81.44c0-.87-.22-1.64-1.32-1.64A3.89,3.89,0,0,0,90.16,81v6.15h1.15a.22.22,0,0,1,.25.24v.77a.22.22,0,0,1-.25.24H87.47a.21.21,0,0,1-.24-.24v-.77a.22.22,0,0,1,.24-.24h1.16V81.26A4.76,4.76,0,0,0,88.5,80H87.34a.21.21,0,0,1-.24-.24V79a.21.21,0,0,1,.24-.24h2c.44,0,.54.79.63,1.1a5.13,5.13,0,0,1,3.26-1.38c2.25,0,2.41,1.58,2.41,3v5.71H96.8a.21.21,0,0,1,.24.24Zm6.06-7.86h0a4.33,4.33,0,0,0-1.86-.55C99.7,79.8,99,81.16,99,83.32s.39,3.5,1.77,3.5a4.23,4.23,0,0,0,2.37-1Zm1.54,4.19c0,1.13.14,3.5.14,4.6,0,1.84-.83,3.56-3.56,3.56-1.52,0-3.4-.69-3.4-1.07a.48.48,0,0,1,.08-.26l.32-.69a.15.15,0,0,1,.14-.12,7.49,7.49,0,0,0,2.78.79c1.88,0,2.1-1.09,2.1-2.19s-.06-1.84-.06-2.09a4.27,4.27,0,0,1-2.75,1.11c-1.84,0-3.12-1.62-3.12-4.47,0-3.18,1.24-5.26,3.81-5.26a3.72,3.72,0,0,1,2.39.87c.18-.51.4-.87.59-.87a.41.41,0,0,1,.18,0l.91.57c.08.06.08.08.08.12s-.18.27-.36.75a3.54,3.54,0,0,0-.26,1.5Zm3.66-7.29h0a.35.35,0,0,1-.2.06c-.06,0-.12-.06-.18-.16l-.18-.28a.46.46,0,0,1-.1-.2c0-.06.08-.1.16-.18l2.94-2.27a.39.39,0,0,1,.21-.1c.08,0,.16.1.2.16l.59.87a.37.37,0,0,1,.08.2c0,.08-.08.14-.18.18Zm3.61,5.41h0c0-1.06-.34-3-2.11-3s-2.27,1.94-2.27,3Zm1.38,4.86c0,.06.06.1.06.16a5.2,5.2,0,0,1-3.2,1.05c-2.69,0-4.27-2.06-4.27-5.14s1.5-5.14,4-5.14c3.38,0,3.69,3.28,3.69,5,0,.28,0,.45-.22.45h-5.81c0,1.24.49,3.46,2.79,3.46a5.53,5.53,0,0,0,2.49-.83c.06,0,.08.06.12.12ZM120.8,76.4h0a1.23,1.23,0,1,1,0-2.47,1.23,1.23,0,1,1,0,2.47Zm2.57,11.81a.21.21,0,0,1-.24.24h-4.44a4.06,4.06,0,0,1-1.46.28,1.93,1.93,0,0,1-1.9-1,10.2,10.2,0,0,1-.28-2.93V75.18h-1.21a.21.21,0,0,1-.24-.24v-.77a.21.21,0,0,1,.24-.24h2.47c.24,0,.28.12.28.3V84.86c0,.63,0,1.66.06,1.9a.81.81,0,0,0,.81.71,3.94,3.94,0,0,0,1.05-.26h0a.31.31,0,0,1,.13,0h1.46V80h-1.6a.21.21,0,0,1-.24-.24V79a.22.22,0,0,1,.24-.24h2.87c.22,0,.26.12.26.31v8.16h1.44a.22.22,0,0,1,.24.24Zm7.15-.69c0,.06.06.1.06.16a5.21,5.21,0,0,1-3.2,1.05c-2.41,0-3.81-1.88-3.81-4.84,0-3.38,1.62-5.45,4.11-5.45a5.29,5.29,0,0,1,2.75.87c.06.06.06.14.06.3v1.74c0,.16-.06.24-.22.24h-.87c-.14,0-.22-.06-.22-.24V80.18a2.94,2.94,0,0,0-1.38-.38c-2,0-2.57,1.48-2.57,3.79,0,1.84.36,3.79,2.33,3.79a5.52,5.52,0,0,0,2.49-.83c.06,0,.08.06.12.12Zm5.83-3.91h0c-.89,0-3.77,0-3.77,2.15A1.55,1.55,0,0,0,134,87.47a3.89,3.89,0,0,0,2.31-1.26Zm-4.68-4a.63.63,0,0,1-.06-.26c0-.34,1.86-.93,3.16-.93,2.33,0,3.12,1.13,3.12,2.83v3.89a4.92,4.92,0,0,0,.24,2h1a.21.21,0,0,1,.24.24v.77a.21.21,0,0,1-.24.24h-1.72c-.51,0-.67-.75-.77-1.07a4.1,4.1,0,0,1-2.91,1.36A2.54,2.54,0,0,1,131,85.87c0-3.42,4-3.48,5.3-3.53v-.73c0-1.17-.36-1.82-1.8-1.82a6.57,6.57,0,0,0-2.47.65.16.16,0,0,1-.14-.1ZM15.32,88.2a.22.22,0,0,1-.24.24H9.73a.21.21,0,0,1-.24-.24v-.83a.21.21,0,0,1,.24-.24h1.84V75.89H9.73a.21.21,0,0,1-.24-.24v-.83a.22.22,0,0,1,.24-.24h5.35a.22.22,0,0,1,.24.24v.83a.22.22,0,0,1-.24.24H13.23V87.13h1.84a.22.22,0,0,1,.24.24Z"/><path class="cls-2" d="M76.68,20.6A57.45,57.45,0,0,0,71,0H56.33V21.86c2,.19,4.12.3,6.26.3A62.46,62.46,0,0,0,76.68,20.6m.16,2.9a41.57,41.57,0,0,1-10,1.19,41.4,41.4,0,0,1-10.53-1.34V53.27H73.5A81.44,81.44,0,0,0,77,29C77,27.16,76.95,25.32,76.84,23.5Z"/><path class="cls-3" d="M71.89,0a52.29,52.29,0,0,1,6.69,20.21,35.86,35.86,0,0,0,13.89-6.69V0ZM79,29c0,8.93-2.23,17.25-4.68,24.24H92.48V14.43a30,30,0,0,1-13.7,8.64C78.92,25,79,27,79,29Z"/></g></g></svg>