
<svg width="163px" height="43px" viewBox="0 0 163 43" version="1.1" xmlns="http://www.w3.org/2000/svg" xmlns:xlink="http://www.w3.org/1999/xlink">
    <g id="Symbols" stroke="none" stroke-width="1" fill="none" fill-rule="evenodd">
        <g id="header" transform="translate(-21.000000, -53.000000)" fill="#FFFFFF">
            <path d="M165.444124,81.5916433 C165.465121,81.590587 165.488131,81.5900935 165.513148,81.5900625 C165.551596,81.5893368 165.588523,81.5889254 165.62319,81.5889254 C165.649683,81.5889254 165.67402,81.5897766 165.695935,81.5917549 C166.061709,81.5978255 166.542397,81.6181336 166.782234,81.6181336 C167.025923,81.6181336 167.600651,81.5900609 167.970299,81.5900609 C168.09784,81.5900609 168.175378,81.6077246 168.175378,81.6670241 C168.175378,81.7439873 168.117462,81.7648053 168.019353,81.7648053 C167.922827,81.7648053 167.84434,81.7736371 167.726926,81.7928779 C167.464248,81.8417685 167.38671,82.0073655 167.367405,82.3464451 C167.346517,82.6571367 167.346517,82.9296622 167.346517,84.4052106 L167.346517,86.1144875 C167.346517,87.056025 167.346517,87.8240798 167.38671,88.2413844 C167.414877,88.5050779 167.483237,88.6779297 167.77598,88.7164113 C167.9127,88.7372292 168.126324,88.7552083 168.27317,88.7552083 C168.38014,88.7552083 168.429195,88.7845427 168.429195,88.8334332 C168.429195,88.9015646 168.350391,88.9312143 168.243421,88.9312143 C167.600651,88.9312143 166.987313,88.9015646 166.724635,88.9015646 C166.50025,88.9015646 165.88533,88.9312143 165.496377,88.9312143 C165.368519,88.9312143 165.302058,88.9015646 165.302058,88.8334332 C165.302058,88.7845427 165.340669,88.7552083 165.457766,88.7552083 C165.603347,88.7552083 165.720761,88.7372292 165.808109,88.7164113 C166.002744,88.6779297 166.06066,88.5123327 166.090409,88.2309754 C166.139464,87.8240798 166.139464,87.056025 166.139464,86.1144875 L166.139464,84.4052106 C166.139464,82.9296622 166.139464,82.6571367 166.119842,82.3464451 C166.100853,82.0161973 166.002744,81.8506003 165.78912,81.8029714 C165.717318,81.7835681 165.637761,81.7731351 165.558144,81.7682948 C165.453599,81.7754736 165.316801,81.79956 165.193727,81.8803762 C165.067768,81.9677484 164.920605,82.1333454 164.65761,82.7553594 C164.277518,83.6685088 164.014523,84.1908492 163.48885,85.3866176 C162.865385,86.8047591 162.406173,87.863003 162.192549,88.3484389 C161.938732,88.9124151 161.8805,89.0660261 161.744097,89.0660261 C161.617822,89.0660261 161.55864,88.9300788 161.374449,88.4742927 L158.917933,82.5405564 C158.693865,82.0078071 158.528979,81.899617 158.177054,81.803413 C158.031473,81.7652468 157.875449,81.7652468 157.798227,81.7652468 C157.710879,81.7652468 157.68113,81.7352817 157.68113,81.6762976 C157.68113,81.5977573 157.7881,81.5889254 157.933681,81.5889254 C158.451758,81.5889254 159.005598,81.6185752 159.347079,81.6185752 C159.590769,81.6185752 160.058526,81.5889254 160.545905,81.5889254 C160.663002,81.5889254 160.769973,81.6081662 160.769973,81.6762976 C160.769973,81.7444289 160.712057,81.7652468 160.622809,81.7652468 C160.467101,81.7652468 160.321521,81.7725016 160.243983,81.8314857 C160.17594,81.8803762 160.146191,81.9485076 160.146191,82.0358797 C160.146191,82.1617335 160.233539,82.4339435 160.370575,82.7834321 L162.045386,87.1924139 L162.085579,87.1924139 C162.504282,86.123761 163.77115,82.9979197 164.004079,82.3569803 C164.05345,82.2298648 164.092061,82.0831932 164.092061,81.9973981 C164.092061,81.9188578 164.05345,81.8406329 163.965469,81.8122449 C163.848371,81.7725016 163.702791,81.7652468 163.576515,81.7652468 C163.48885,81.7652468 163.410047,81.7545225 163.410047,81.6863911 C163.410047,81.6081662 163.498028,81.5889254 163.68222,81.5889254 C164.170548,81.5889254 164.580389,81.6185752 164.705082,81.6185752 C164.840451,81.6185752 165.168143,81.598969 165.444124,81.5916433 Z M132.758725,88.7516579 C132.849585,88.7447418 132.926153,88.7308427 132.987763,88.716159 C133.182715,88.6776774 133.231453,88.4644515 133.270063,88.1834096 C133.319118,87.7761986 133.319118,87.0081438 133.319118,86.1158123 L133.319118,84.4046429 C133.319118,82.9290944 133.319118,82.6581461 133.299812,82.3474545 C133.280507,82.015945 133.203286,81.8620186 132.88111,81.7938873 C132.803572,81.7730693 132.63742,81.7642375 132.500701,81.7642375 C132.394047,81.7642375 132.336131,81.7434196 132.336131,81.6768653 C132.336131,81.6090494 132.402909,81.5894932 132.550072,81.5894932 C133.065301,81.5894932 133.679905,81.6191429 133.951761,81.6191429 C134.254632,81.6191429 134.86797,81.5894932 135.453141,81.5894932 C136.670955,81.5894932 138.298611,81.5894932 139.360084,82.6966277 C139.847146,83.2013044 140.304776,84.0078408 140.304776,85.1626042 C140.304776,86.3864452 139.789547,87.3191508 139.242986,87.8724026 C138.7958,88.3297659 137.781799,89.0195958 135.978814,89.0195958 C135.628154,89.0195958 135.229073,88.988369 134.859425,88.9587192 C134.487877,88.9306466 134.147978,88.9013122 133.904289,88.9013122 C133.795736,88.9013122 133.581796,88.9013122 133.348867,88.9114058 C133.124483,88.9114058 132.870666,88.9306466 132.676031,88.9306466 C132.669183,88.9306466 132.662506,88.9305599 132.656001,88.9303852 C132.631507,88.9306283 132.605498,88.9307412 132.57789,88.9307412 C132.227231,88.9307412 131.515784,88.9307412 130.736294,88.9115004 C130.561281,88.9010914 130.443551,88.9010914 130.443551,88.8342218 C130.443551,88.7752377 130.482478,88.7559969 130.58027,88.747165 C130.64863,88.7263471 130.716989,88.6405521 130.667935,88.5235302 L129.888445,86.5224871 C129.868823,86.4735965 129.839074,86.4543557 129.791919,86.4543557 L127.617703,86.4543557 C127.568965,86.4543557 127.549343,86.4735965 127.530038,86.532896 L127.004365,87.8620883 C126.906573,88.1046485 126.857202,88.3386923 126.857202,88.4553988 C126.857202,88.6301431 126.945183,88.7559969 127.248054,88.7559969 L127.393635,88.7559969 C127.510733,88.7559969 127.540482,88.7752377 127.540482,88.8342218 C127.540482,88.9115004 127.480983,88.9307412 127.374013,88.9307412 C127.062281,88.9307412 126.643578,88.9010914 126.342289,88.9010914 C126.233737,88.9010914 125.698886,88.9307412 125.191252,88.9307412 C125.064977,88.9307412 125.007061,88.9115004 125.007061,88.8342218 C125.007061,88.7752377 125.045672,88.7559969 125.122893,88.7559969 C125.211823,88.7559969 125.34696,88.747165 125.425764,88.7367561 C125.874216,88.6774566 126.058407,88.3475242 126.254308,87.8620883 L128.70038,81.8412953 C128.816212,81.5599381 128.875393,81.4533251 128.97192,81.4533251 C129.059585,81.4533251 129.119083,81.5406973 129.215609,81.7640167 C129.450121,82.2983431 131.008151,86.1837229 131.631616,87.6592713 C132.002847,88.532362 132.285147,88.6686247 132.489909,88.7159382 C132.582477,88.7355804 132.674419,88.7463618 132.758725,88.7516579 Z M109.351267,88.930219 C109.322475,88.9305773 109.291503,88.9307412 109.258204,88.9307412 C108.907545,88.9307412 108.196415,88.9307412 107.416608,88.9115004 C107.241595,88.9010914 107.124181,88.9010914 107.124181,88.8342218 C107.124181,88.7752377 107.164057,88.7559969 107.2609,88.747165 C107.32926,88.7263471 107.39762,88.6405521 107.348249,88.5235302 L106.568759,86.5224871 C106.549454,86.4735965 106.521287,86.4543557 106.472233,86.4543557 L104.299915,86.4543557 C104.250545,86.4543557 104.231556,86.4735965 104.211934,86.532896 L103.686261,87.8620883 C103.588469,88.1046485 103.539098,88.3386923 103.539098,88.4553988 C103.539098,88.6301431 103.627079,88.7559969 103.929951,88.7559969 L104.075531,88.7559969 C104.191363,88.7559969 104.221112,88.7752377 104.221112,88.8342218 C104.221112,88.9115004 104.163196,88.9307412 104.056226,88.9307412 C103.744493,88.9307412 103.325791,88.9010914 103.022603,88.9010914 C102.915633,88.9010914 102.379516,88.9307412 101.873148,88.9307412 C101.775427,88.9307412 101.717886,88.9192181 101.696861,88.8781907 C101.288941,89.0089366 100.614746,89.0667831 100.039971,89.0667831 C98.7063252,89.0667831 97.5850373,88.776594 96.6985775,88.0085392 C95.743758,87.1739301 95.4912071,86.0860364 95.4912071,85.1432372 C95.4912071,84.483057 95.6947036,83.3374409 96.6302178,82.4832756 C97.3324865,81.8410745 98.2578734,81.4534197 99.7101991,81.4534197 C100.314675,81.4534197 100.67388,81.493163 101.122332,81.5508854 C101.493879,81.5981989 101.804029,81.6871481 102.096457,81.7152208 C102.205009,81.7256297 102.242037,81.7729432 102.242037,81.8322427 C102.242037,81.9104676 102.213871,82.0262278 102.194882,82.364992 C102.17526,82.6860926 102.184122,83.2219961 102.165133,83.4144041 C102.154689,83.5607604 102.135067,83.638039 102.047719,83.638039 C101.970498,83.638039 101.951192,83.5607604 101.951192,83.4248131 C101.940749,83.1229533 101.81479,82.7838737 101.5711,82.5321662 C101.248607,82.1902477 100.488423,81.9300238 99.5931016,81.9300238 C98.7449357,81.9300238 98.1895137,82.1429343 97.7603671,82.5321662 C97.0489206,83.1819374 96.8647294,84.1042341 96.8647294,85.0470332 C96.8647294,87.3587679 98.6275217,88.504384 99.9342668,88.504384 C100.800155,88.504384 101.327094,88.4066029 101.716364,87.9596486 C101.882833,87.7760725 102.009108,87.4934535 102.047719,87.3187092 C102.077468,87.1635211 102.096457,87.1234624 102.17526,87.1234624 C102.242037,87.1234624 102.263241,87.1915938 102.263241,87.2698186 C102.263241,87.3868406 102.145511,88.2305969 102.047719,88.5621064 C102.020894,88.6519709 101.997192,88.7076913 101.954257,88.7506208 C102.011071,88.7470858 102.06713,88.7421312 102.10766,88.7367561 C102.554846,88.6774566 102.740303,88.3475242 102.934938,87.8620883 L105.38101,81.8412953 C105.498108,81.5599381 105.556024,81.4533251 105.654132,81.4533251 C105.741481,81.4533251 105.799713,81.5406973 105.897822,81.7640167 C106.132333,82.2983431 107.690047,86.1837229 108.313512,87.6592713 C108.683477,88.532362 108.967043,88.6686247 109.170539,88.7159382 C109.261067,88.7351889 109.351115,88.7459285 109.434378,88.7513346 C109.527324,88.7446421 109.605446,88.7308264 109.668394,88.7170106 C109.863029,88.6772673 109.912083,88.4653031 109.950694,88.1826842 C109.999432,87.7757886 109.999432,87.0089954 109.999432,86.1150868 L109.999432,84.4054945 C109.999432,82.929946 109.999432,82.657736 109.980443,82.346729 C109.960821,82.0152195 109.883916,81.8612931 109.56174,81.7931618 C109.484202,81.7726593 109.365522,81.7650891 109.239247,81.7650891 C109.132277,81.7650891 109.074361,81.7445866 109.074361,81.6764553 C109.074361,81.6083239 109.142721,81.5890831 109.288301,81.5890831 C109.745931,81.5890831 110.360535,81.6187329 110.623213,81.6187329 C110.856459,81.6187329 111.567589,81.5890831 111.947998,81.5890831 C112.084717,81.5890831 112.15276,81.6083239 112.15276,81.6764553 C112.15276,81.7445866 112.094844,81.7650891 111.977747,81.7650891 C111.870776,81.7650891 111.714752,81.7726593 111.597338,81.7931618 C111.33466,81.8407906 111.255856,82.0079648 111.236867,82.346729 C111.217246,82.657736 111.217246,82.929946 111.217246,84.4054945 L111.217246,86.1150868 C111.217246,87.3581686 111.217246,88.0271807 111.422008,88.201925 C111.588793,88.3485966 111.841344,88.4164126 112.601528,88.4164126 C113.11834,88.4164126 113.498432,88.406319 113.742121,88.1442026 C113.857953,88.0183488 113.975051,87.7461388 113.994356,87.5625627 C114.0048,87.4739288 114.024105,87.4162064 114.101326,87.4162064 C114.169686,87.4162064 114.179813,87.4647816 114.179813,87.5805418 C114.179813,87.6868393 114.11177,88.4164126 114.032966,88.6977698 C113.975051,88.9125728 113.926313,88.9598863 113.419629,88.9598863 C112.718626,88.9598863 112.210992,88.9406455 111.772668,88.9302365 C111.33466,88.9125728 110.984317,88.9018485 110.584603,88.9018485 C110.476367,88.9018485 110.262426,88.9018485 110.029181,88.9125728 C109.805113,88.9125728 109.55098,88.9302365 109.356661,88.9302365 C109.354851,88.9302365 109.353053,88.9302307 109.351267,88.930219 Z M81.2224255,88.9111727 C81.1555671,88.9258672 81.0431673,88.9307412 80.8615811,88.9307412 C80.5109215,88.9307412 79.7997914,88.9307412 79.0199852,88.9115004 C78.8446554,88.9010914 78.7272414,88.9010914 78.7272414,88.8342218 C78.7272414,88.7752377 78.7661684,88.7559969 78.8639607,88.747165 C78.9323203,88.7263471 79.0006799,88.6405521 78.9516256,88.5235302 L78.1721359,86.5224871 C78.1528306,86.4735965 78.1230815,86.4543557 78.0756095,86.4543557 L75.9013934,86.4543557 C75.8523391,86.4543557 75.8330338,86.4735965 75.8137285,86.532896 L75.2880556,87.8620883 C75.1899469,88.1046485 75.1408925,88.3386923 75.1408925,88.4553988 C75.1408925,88.6301431 75.2285574,88.7559969 75.5317451,88.7559969 L75.6773258,88.7559969 C75.7944233,88.7559969 75.8241724,88.7752377 75.8241724,88.8342218 C75.8241724,88.9115004 75.7646742,88.9307412 75.6580205,88.9307412 C75.3459714,88.9307412 74.9272687,88.9010914 74.6259799,88.9010914 C74.5583911,88.9010914 74.3256591,88.912586 74.0370252,88.9212612 C74.0097235,88.9280016 73.9775638,88.9312143 73.9423519,88.9312143 C73.8483548,88.9312143 73.7549933,88.9305809 73.6632694,88.9294992 C73.6006557,88.9302901 73.5375971,88.9307412 73.474943,88.9307412 C73.4380147,88.9307412 73.4069326,88.9290957 73.3814357,88.9248343 C72.9634836,88.91612 72.6072948,88.9015646 72.423249,88.9015646 C72.1988648,88.9015646 71.5842611,88.9312143 71.194991,88.9312143 C71.0674496,88.9312143 71.0006724,88.9015646 71.0006724,88.8334332 C71.0006724,88.7845427 71.0392829,88.7552083 71.1563804,88.7552083 C71.3019611,88.7552083 71.4193751,88.7372292 71.50704,88.7164113 C71.7013586,88.6779297 71.7592744,88.5123327 71.7890235,88.2309754 C71.8380779,87.8240798 71.8380779,87.056025 71.8380779,86.1144875 L71.8380779,84.4052106 C71.8380779,82.9296622 71.8380779,82.6571367 71.8187726,82.3464451 C71.7994673,82.0161973 71.7013586,81.8506003 71.4877348,81.8029714 C71.3791822,81.7736371 71.2529068,81.7648053 71.1358092,81.7648053 C71.0392829,81.7648053 70.9797847,81.7439873 70.9797847,81.6670241 C70.9797847,81.6077246 71.0585882,81.5900609 71.2142962,81.5900609 C71.5842611,81.5900609 72.1988648,81.6181336 72.4811648,81.6181336 C72.7245377,81.6181336 73.299265,81.5900609 73.6692299,81.5900609 C73.7967712,81.5900609 73.8739923,81.6077246 73.8739923,81.6670241 C73.8739923,81.7439873 73.8160765,81.7648053 73.7179678,81.7648053 C73.6217579,81.7648053 73.5429545,81.7736371 73.4255405,81.7928779 C73.1628622,81.8417685 73.0853247,82.0073655 73.0660194,82.3464451 C73.0454482,82.6571367 73.0454482,82.9296622 73.0454482,84.4052106 L73.0454482,86.1144875 C73.0454482,87.056025 73.0454482,87.8240798 73.0853247,88.2413844 C73.1138079,88.5050779 73.1821675,88.6779297 73.4745948,88.7164113 C73.5328152,88.7252764 73.6049814,88.7336267 73.6800225,88.740293 C73.6904777,88.7391426 73.7003407,88.7379599 73.7094545,88.7367561 C74.1579063,88.6774566 74.3420976,88.3475242 74.538315,87.8620883 L76.9840708,81.8412953 C77.0999024,81.5599381 77.1590841,81.4533251 77.2559269,81.4533251 C77.3432753,81.4533251 77.4027735,81.5406973 77.4992999,81.7640167 C77.7338114,82.2983431 79.2918413,86.1837229 79.9153065,87.6592713 C80.2868538,88.532362 80.5688373,88.6686247 80.7739162,88.7159382 C80.7940689,88.7202236 80.8141977,88.7240873 80.8342291,88.7275643 C80.7941773,88.6783821 80.7840119,88.6095237 80.7840119,88.4834715 C80.7840119,87.9507221 80.8226224,87.365928 80.8327498,87.2120016 C80.8431936,87.0656454 80.8713603,86.9590324 80.9501638,86.9590324 C81.0378287,86.9590324 81.0466901,87.0476663 81.0466901,87.1233678 C81.0466901,87.2507986 81.086883,87.4548773 81.134355,87.6188972 C81.3495612,88.3383769 81.9242885,88.6004934 82.5287649,88.6004934 C83.4047809,88.6004934 83.834244,88.0084445 83.834244,87.4933589 C83.834244,87.0183319 83.6886633,86.5698005 82.8794245,85.9408472 L82.4306562,85.5897815 C81.3584227,84.7551724 80.9887743,84.0757514 80.9887743,83.2900329 C80.9887743,82.2198028 81.885678,81.4533251 83.2402115,81.4533251 C83.8725381,81.4533251 84.2811135,81.5507908 84.5349302,81.6189221 C84.6225951,81.6365858 84.6716495,81.6678127 84.6716495,81.7359441 C84.6716495,81.8617978 84.633039,82.1428396 84.633039,82.900801 C84.633039,83.1137114 84.6032899,83.1906746 84.5260688,83.1906746 C84.4577092,83.1906746 84.4282766,83.1329522 84.4282766,83.0162457 C84.4282766,82.9288736 84.3789057,82.6282755 84.1757257,82.3753063 C84.0288791,82.1901531 83.7465791,81.9002794 83.1123536,81.9002794 C82.3920456,81.9002794 81.9540376,82.3175839 81.9540376,82.900801 C81.9540376,83.3477553 82.1768394,83.6865195 82.9860782,84.2978091 L83.2595167,84.5022032 C84.437138,85.3872799 84.8574231,86.0559766 84.8574231,86.9798503 C84.8574231,87.5422494 84.6434828,88.2125232 83.9412142,88.6686247 C83.4541518,88.9793163 82.9088571,89.0666885 82.3920456,89.0666885 C81.9389583,89.0666885 81.5675281,89.0229594 81.2224255,88.9111727 Z M28.2656527,88.7196702 C28.2704277,88.7185932 28.2751206,88.7175062 28.2797312,88.7164113 C28.4740498,88.6779297 28.5231042,88.4650192 28.5617147,88.183662 C28.6107691,87.7751893 28.6107691,87.0083961 28.6107691,86.1144875 L28.6107691,84.4052106 C28.6107691,82.9296622 28.6107691,82.6571367 28.5914638,82.3464451 C28.5721586,82.0161973 28.4933551,81.8610093 28.1727611,81.7928779 C28.0939576,81.7736371 27.9290716,81.7648053 27.7926689,81.7648053 C27.6841163,81.7648053 27.6262005,81.7439873 27.6262005,81.675856 C27.6262005,81.6077246 27.6945601,81.5900609 27.8401408,81.5900609 C28.1044014,81.5900609 28.3867014,81.5988928 28.6300744,81.5988928 C28.8838911,81.6077246 29.1066929,81.6181336 29.2434122,81.6181336 C29.5551448,81.6181336 31.4948493,81.6181336 31.6803065,81.6077246 C31.8644977,81.5900609 32.0205223,81.569243 32.0990092,81.5500022 C32.1480636,81.5399087 32.2059794,81.5115206 32.2550338,81.5115206 C32.3040881,81.5115206 32.3129496,81.5500022 32.3129496,81.5988928 C32.3129496,81.6670241 32.2638952,81.7837306 32.2357285,82.2294232 C32.2252847,82.3272043 32.2059794,82.7549178 32.1866741,82.8719398 C32.1765468,82.9192532 32.1572415,82.9785527 32.0888819,82.9785527 C32.0205223,82.9785527 32.001217,82.9296622 32.001217,82.8407129 C32.001217,82.7725815 31.9923556,82.6082462 31.9433012,82.4931168 C31.8749416,82.3183725 31.7768328,82.2013506 31.2897704,82.1436282 C31.1248845,82.1228103 30.1017053,82.1035695 29.9073868,82.1035695 C29.8583324,82.1035695 29.8390271,82.1332192 29.8390271,82.2013506 L29.8390271,84.6581798 C29.8390271,84.7263112 29.8478886,84.7647928 29.9073868,84.7647928 C30.1210106,84.7647928 31.2407161,84.7647928 31.4651002,84.7439749 C31.6996118,84.7263112 31.8451925,84.6966614 31.9328574,84.6004574 C32.001217,84.5222325 32.0410934,84.473342 32.0888819,84.473342 C32.1287583,84.473342 32.1572415,84.4938445 32.1572415,84.5515669 C32.1572415,84.6092893 32.1183145,84.7647928 32.0784381,85.2593759 C32.0695766,85.4546227 32.0410934,85.8438546 32.0410934,85.9116706 C32.0410934,85.9873721 32.0410934,86.0952467 31.9521626,86.0952467 C31.8853854,86.0952467 31.8644977,86.0555034 31.8644977,86.00819 C31.8556363,85.9116706 31.8556363,85.7845551 31.8258872,85.6587014 C31.7768328,85.4647163 31.641696,85.31836 31.280909,85.2798784 C31.0954519,85.2593759 30.129872,85.2502287 29.8966264,85.2502287 C29.8478886,85.2502287 29.8390271,85.2902874 29.8390271,85.3480098 L29.8390271,86.1144875 C29.8390271,86.4447353 29.8285833,87.3370668 29.8390271,87.6196858 C29.8583324,88.2902749 30.0143569,88.4353695 31.007787,88.4353695 C31.2616037,88.4353695 31.6701791,88.4353695 31.9239959,88.3199247 C32.1765468,88.2016411 32.2936443,87.9988241 32.3620039,87.600445 C32.3813092,87.493832 32.4006145,87.4553504 32.4689741,87.4553504 C32.5474611,87.4553504 32.5474611,87.532629 32.5474611,87.6304101 C32.5474611,87.8521525 32.4689741,88.5123327 32.4199197,88.7078949 C32.3531425,88.959287 32.2638952,88.959287 31.8942468,88.959287 C31.163495,88.959287 30.6273783,88.9400462 30.2086755,88.9312143 C29.7899728,88.9119735 29.4871016,88.9015646 29.1959402,88.9015646 C29.0873876,88.9015646 28.8737638,88.9015646 28.6405182,88.9119735 C28.6394825,88.9119735 28.6384461,88.9119739 28.6374091,88.9119748 C28.6057355,88.9258161 28.5599808,88.9304573 28.5024697,88.9304573 L28.0397606,88.9304573 C28.0149917,88.9309402 27.9909153,88.9312143 27.9676822,88.9312143 C27.9559694,88.9312143 27.944769,88.9309643 27.9340858,88.9304573 L27.5773993,88.9304573 C27.0321046,88.9304573 26.7871493,88.8831439 26.5349149,88.7468812 C26.1158957,88.5235617 25.7462473,88.0661985 25.1996867,87.3186461 C24.8107331,86.7843197 24.3619647,86.1241395 24.2360058,85.9793603 C24.1869514,85.9200608 24.1274532,85.911229 24.060676,85.911229 L23.2128266,85.8904111 C23.1637723,85.8904111 23.1340232,85.911229 23.1340232,85.9689514 L23.1340232,86.1048987 C23.1340232,87.0079545 23.1340232,87.7760094 23.1830775,88.182905 C23.2128266,88.4655239 23.2707424,88.6771727 23.5631698,88.7172314 C23.7087505,88.7364722 23.9242732,88.755713 24.0397883,88.755713 C24.1185918,88.755713 24.1572023,88.7837856 24.1572023,88.8342533 C24.1572023,88.9023847 24.0888427,88.9304573 23.9625672,88.9304573 C23.3970179,88.9304573 22.6767099,88.9023847 22.5295468,88.9023847 C22.3453556,88.9023847 21.7307518,88.9304573 21.3414817,88.9304573 C21.2155227,88.9304573 21.1471631,88.9023847 21.1471631,88.8342533 C21.1471631,88.7837856 21.1857736,88.755713 21.3028712,88.755713 C21.4484519,88.755713 21.5658658,88.7364722 21.6535307,88.7172314 C21.8481658,88.6771727 21.8969037,88.4655239 21.9355142,88.182905 C21.9845686,87.7760094 21.9845686,87.0079545 21.9845686,86.1153076 L21.9845686,84.4044536 C21.9845686,82.9289051 21.9845686,82.6579568 21.9652633,82.3469498 C21.9459581,82.0154403 21.8674711,81.8615139 21.5465606,81.793698 C21.4677571,81.7728801 21.3028712,81.7640482 21.1664684,81.7640482 C21.0594982,81.7640482 21,81.7448074 21,81.6766761 C21,81.6085447 21.0683596,81.5893039 21.2155227,81.5893039 C21.7307518,81.5893039 22.3453556,81.6189537 22.5488521,81.6189537 C22.8814723,81.6189537 23.6210856,81.5893039 23.9242732,81.5893039 C24.5372945,81.5893039 25.1908253,81.6470263 25.7164982,82.0066085 C25.9896202,82.1901846 26.3788904,82.6860295 26.3788904,83.3373778 C26.3788904,84.0552804 26.0757027,84.7151452 25.0927165,85.5115881 C25.9601876,86.6007435 26.6311248,87.4653178 27.2074344,88.0661985 C27.715521,88.5917029 28.0970696,88.6864957 28.2656527,88.7196702 Z M28.731158,65.0963434 L34.6132512,65.0963434 L31.7263227,56.7903112 L31.6446709,56.7903112 L28.731158,65.0963434 Z M29.9176407,53.4600759 L33.5068379,53.4600759 L40.9260734,72.782254 L37.3115578,72.782254 L35.5041418,67.6673557 L27.8133666,67.6673557 L26.0059506,72.782254 L22.525306,72.782254 L29.9176407,53.4600759 Z M55.7676143,59.60401 C55.623616,59.0444497 55.4261326,58.529364 55.1735818,58.0603301 C54.9210309,57.5925579 54.5972721,57.1856623 54.2023053,56.8421668 C53.8057562,56.5002483 53.3440122,56.235293 52.8123261,56.0460393 C52.2822225,55.854893 51.6660364,55.7602661 50.9650336,55.7602661 C49.9390062,55.7602661 49.0538122,55.967499 48.30692,56.3819647 C47.5597112,56.7976921 46.9523865,57.3528365 46.4862118,58.046767 C46.0184547,58.7425899 45.6709599,59.5314627 45.4465757,60.4165395 C45.2209256,61.3000391 45.1095247,62.2015178 45.1095247,63.1222374 C45.1095247,64.0426415 45.2209256,64.9441203 45.4465757,65.8276199 C45.6709599,66.7126967 46.0184547,67.5015694 46.4862118,68.1973924 C46.9523865,68.8897457 47.5597112,69.4448901 48.30692,69.8621947 C49.0538122,70.2766604 49.9390062,70.4838933 50.9650336,70.4838933 C51.719205,70.4838933 52.3847619,70.3523619 52.9607551,70.0902454 C53.5370648,69.8297061 54.0317227,69.4685468 54.4459948,69.0083448 C54.8586844,68.5478273 55.1824432,68.0122391 55.4172712,67.3981107 C55.6502003,66.7852439 55.8033765,66.1250637 55.8758504,65.4235631 L59.1669237,65.4235631 C59.0957157,66.5780111 58.8475956,67.6334162 58.425728,68.587886 C58.0025946,69.54551 57.4307156,70.3700256 56.71199,71.0655331 C55.991682,71.759779 55.1469975,72.2956826 54.175721,72.6757672 C53.2028622,73.0549056 52.1337935,73.2441594 50.9650336,73.2441594 C49.5244177,73.2441594 48.2341296,72.9779424 47.0935365,72.4464548 C45.950095,71.9121283 44.9832493,71.186971 44.1917334,70.2662514 C43.4002174,69.3458473 42.7928927,68.2727785 42.3710252,67.0457833 C41.9478917,65.8187881 41.7371162,64.5104137 41.7371162,63.1222374 C41.7371162,61.7517247 41.9478917,60.4518668 42.3710252,59.2236099 C42.7928927,57.9981918 43.4002174,56.9235459 44.1917334,56.0028263 C44.9832493,55.0824222 45.950095,54.352849 47.0935365,53.8125295 C48.2341296,53.2706329 49.5244177,53 50.9650336,53 C52.0445462,53 53.0604463,53.1495105 54.0136834,53.4469543 C54.967237,53.7443981 55.8074908,54.1765275 56.5369767,54.7464968 C57.2645637,55.3148889 57.8541655,56.0028263 58.3041998,56.8156712 C58.7539176,57.6282007 59.0330527,58.556175 59.1400229,59.60401 L55.7676143,59.60401 Z M86.6963922,53.4595712 L91.4454878,53.4595712 L96.7604493,68.5888323 L96.8139344,68.5888323 L101.995025,53.4595712 L106.689053,53.4595712 L106.689053,72.7833265 L103.478682,72.7833265 L103.478682,57.8701301 L103.425197,57.8701301 L98.0820688,72.7833265 L95.3036928,72.7833265 L89.9602482,57.8701301 L89.9083455,57.8701301 L89.9083455,72.7833265 L86.6963922,72.7833265 L86.6963922,53.4595712 Z M114.110694,62.6074672 L119.048411,62.6074672 C119.425655,62.6074672 119.811761,62.5544761 120.20831,62.446286 C120.603276,62.3368343 120.966912,62.1605129 121.299848,61.9176372 C121.633735,61.6738153 121.904008,61.3479834 122.110353,60.9439266 C122.317014,60.537031 122.42082,60.027623 122.42082,59.4150716 C122.42082,58.7829641 122.330307,58.2590466 122.150546,57.8433192 C121.970786,57.4301151 121.727096,57.1001827 121.421693,56.8560454 C121.115657,56.6131697 120.764998,56.4459956 120.370031,56.3557846 C119.973482,56.2655736 119.550032,56.221099 119.101896,56.221099 L114.110694,56.221099 L114.110694,62.6074672 Z M110.738285,53.4592558 L119.237033,53.4592558 C120.603276,53.4592558 121.719817,53.6589185 122.582858,54.0557206 C123.445581,54.4525226 124.110822,54.948052 124.578579,55.5445168 C125.046336,56.1397199 125.365664,56.7894911 125.536563,57.4925689 C125.707462,58.1969083 125.793228,58.8451024 125.793228,59.4399901 C125.793228,60.0367702 125.707462,60.6805485 125.536563,61.376056 C125.365664,62.071879 125.046336,62.7156572 124.578579,63.312122 C124.110822,63.9070097 123.445581,64.3984386 122.582858,64.7860934 C121.719817,65.1740636 120.603276,65.3677333 119.237033,65.3677333 L114.110694,65.3677333 L114.110694,72.783011 L110.738285,72.783011 L110.738285,53.4592558 Z M130.70395,65.0963434 L136.58636,65.0963434 L133.699431,56.7903112 L133.61778,56.7903112 L130.70395,65.0963434 Z M131.890433,53.4600759 L135.479947,53.4600759 L142.898866,72.782254 L139.28435,72.782254 L137.477251,67.6673557 L129.786475,67.6673557 L127.979059,72.782254 L124.498098,72.782254 L131.890433,53.4600759 Z M144.600008,53.4595712 L148.161038,53.4595712 L156.958543,67.6949237 L157.012028,67.6949237 L157.012028,53.4595712 L160.222399,53.4595712 L160.222399,72.7833265 L156.661369,72.7833265 L147.892347,58.5747849 L147.810695,58.5747849 L147.810695,72.7833265 L144.600008,72.7833265 L144.600008,53.4595712 Z M168.182056,65.0963434 L174.064149,65.0963434 L171.17722,56.7903112 L171.095569,56.7903112 L168.182056,65.0963434 Z M169.368538,53.4600759 L172.958052,53.4600759 L180.376971,72.782254 L176.762456,72.782254 L174.955039,67.6673557 L167.264264,67.6673557 L165.457165,72.782254 L161.976204,72.782254 L169.368538,53.4600759 Z M151.809797,56.0048135 L150.210308,53.4401096 L155.290758,53.4401096 L155.290758,56.0048135 L151.809797,56.0048135 Z M77.8581563,53.4638925 C79.7187409,53.4638925 81.3894377,54.1209185 82.5642106,55.3141634 C83.6199872,56.3900711 84.1054672,57.918926 83.9288715,59.6181094 C83.7595548,61.2491614 82.9724696,62.8076661 81.9524552,63.5492254 C76.6893965,58.3113122 75.2471981,56.8177846 75.23264,56.8029597 L75.107947,56.6742671 L74.9414786,56.9139886 C74.4395417,57.6170663 72.626429,59.9095602 70.2993532,59.9095602 C69.7319049,59.9095602 69.1647732,59.7748746 68.6093511,59.5055034 C69.2866179,58.8737113 72.0589808,56.287874 73.808481,54.7826758 C74.7661488,53.9565831 76.2811375,53.4638925 77.8581563,53.4638925 Z M67.7195049,62.8487972 C67.9676251,63.0677008 68.1056103,63.359467 68.1056103,63.6673198 C68.1040279,63.9751725 67.9676251,64.2650462 67.7166566,64.4842652 L66.1409038,65.8680256 C65.8867705,66.0916604 65.5468712,66.21436 65.1845019,66.21436 C64.8205501,66.21436 64.4822333,66.0900833 64.2252517,65.8664485 C63.9771315,65.6459678 63.8407287,65.354517 63.8423111,65.0466643 C63.8423111,64.7372344 63.9787139,64.4486224 64.2296824,64.2297189 L65.8038528,62.8459584 C66.059252,62.6223236 66.3978854,62.4996241 66.7602547,62.4996241 C67.1242065,62.4996241 67.4641058,62.6239007 67.7195049,62.8487972 Z M70.1747234,65.0646118 C70.4228436,65.2835153 70.5608288,65.5768587 70.5592464,65.8847115 C70.5592464,66.1925642 70.4212612,66.4824379 70.1718751,66.7013414 L68.5961223,68.0838401 C68.3407231,68.307475 68.0020897,68.4301745 67.6397204,68.4301745 C67.2760851,68.4301745 66.9358694,68.307475 66.6820526,68.082263 C66.43235,67.8617824 66.2959472,67.5703316 66.2959472,67.2624788 C66.2959472,66.954626 66.4339324,66.6644369 66.6849009,66.4455334 L68.2590713,65.061773 C68.5144705,64.8397153 68.8546863,64.7167003 69.2154732,64.7167003 C69.579425,64.7167003 69.9193243,64.8397153 70.1747234,65.0646118 Z M72.5894009,67.3062911 C72.8387869,67.52551 72.9755062,67.8169608 72.9739238,68.1248136 C72.9739238,68.4342435 72.837521,68.7244326 72.5862361,68.9420744 L71.0107997,70.3270965 C70.7554005,70.5507314 70.4167672,70.6721692 70.0543978,70.6721692 C69.6920285,70.6721692 69.3521292,70.5491543 69.0964135,70.3242577 C68.8470275,70.1053542 68.7106247,69.8120109 68.7106247,69.5041581 C68.7118906,69.1963053 68.8486099,68.9064316 69.0979959,68.6887898 L70.6737488,67.3050294 C70.9291479,67.0813945 71.2693637,66.9583796 71.6314166,66.9583796 C71.9937859,66.9583796 72.3340017,67.0829716 72.5894009,67.3062911 Z M74.8692263,69.6520914 C75.1173464,69.8725721 75.2553316,70.1643383 75.2537492,70.4721911 C75.2537492,70.7800439 75.1173464,71.070233 74.866378,71.2891365 L73.2906251,72.6728969 C73.0352259,72.8949546 72.6965926,73.0192313 72.3342232,73.0192313 C71.9718539,73.0192313 71.6319546,72.8949546 71.374973,72.6700581 C71.1268529,72.4511546 70.9904501,72.1578112 70.9904501,71.8499584 C70.9904501,71.5421057 71.1284353,71.252232 71.3778213,71.0345902 L72.9535742,69.6508297 C73.2089733,69.4271949 73.5476067,69.3041799 73.9099761,69.3041799 C74.2736113,69.3041799 74.6138271,69.4271949 74.8692263,69.6520914 Z M81.5248594,64.0267127 C81.6824663,64.180639 81.7831069,64.4367625 81.7802586,64.678061 C81.7789927,64.8348262 81.7359514,65.0597228 81.5280242,65.2537079 C81.279904,65.4890134 81.0064655,65.6031965 80.6947329,65.6031965 C80.5194031,65.6031965 80.3235021,65.5707079 80.0813951,65.4981606 L75.4762978,60.8933012 C75.3367302,60.7541997 75.0648741,60.7381131 74.909166,60.8592355 C74.8243494,60.9261052 74.7724468,61.025148 74.7635853,61.127345 C74.7575722,61.2295421 74.7961827,61.3317391 74.8721379,61.4055481 L79.6731362,66.2097548 C79.8215652,66.7308335 79.54243,67.1096564 79.4133063,67.2519122 C79.2259503,67.4515749 78.7968037,67.6055013 78.4138631,67.6055013 C78.2638517,67.6055013 78.1331456,67.5802674 78.0378852,67.5345311 L73.1286508,62.8706876 C72.9862349,62.7363174 72.7156447,62.7271702 72.5612025,62.8514468 C72.4782848,62.9211553 72.4292305,63.0145205 72.4232173,63.120818 C72.4187866,63.2245921 72.4602455,63.3223732 72.5390489,63.3993364 L77.5881674,68.1947113 C77.634057,68.3234039 77.6520963,68.4744915 77.6372218,68.6240019 C77.6163341,68.8340736 77.5137946,69.2245672 77.0653428,69.5002468 C76.7564585,69.6910777 76.239647,69.74123 75.6680845,69.6390329 C75.5759889,69.4822677 75.4557266,69.3403274 75.3129942,69.2144737 C74.839224,68.7971691 74.1562606,68.6148547 73.4967168,68.7391313 C73.5771026,68.5438845 73.6201439,68.3338128 73.6201439,68.1278416 C73.6217263,67.6499759 73.4137991,67.2045987 73.0333904,66.8683579 C72.6577289,66.5368484 72.1602226,66.3532722 71.630119,66.3532722 C71.4535233,66.3532722 71.2826242,66.3740901 71.1148899,66.4141488 C71.1740716,66.2438205 71.2054031,66.0646602 71.2054031,65.8842383 C71.2069855,65.4092114 70.9974759,64.9622571 70.6189661,64.6260162 C70.2433046,64.2960838 69.744216,64.1125077 69.2141124,64.1125077 C69.0254904,64.1125077 68.8428816,64.1349027 68.6659694,64.180639 C68.7210369,64.0147266 68.750786,63.8418748 68.750786,63.6687076 C68.7523684,63.1921036 68.5428587,62.7451493 68.1627665,62.4092238 C67.7883709,62.078976 67.2908647,61.896977 66.7607611,61.896977 C66.2335058,61.896977 65.7359996,62.078976 65.3619205,62.4060696 L63.8811116,63.7071892 C63.1639684,62.8233742 61.7116427,60.9112803 61.5632136,59.7347528 C61.3255373,57.8475774 62.0085007,56.4341672 63.8500965,55.008771 C64.9356222,54.1681688 66.3183224,53.7032354 67.7424814,53.7032354 C68.5814693,53.7032354 69.3596931,53.8659937 69.9356863,54.1561828 C70.4274958,54.4063132 71.1905286,54.8665152 72.0994585,55.4573024 C70.3559714,57.0170688 68.3852518,58.8597696 67.9978806,59.2225059 C67.8909104,59.3231259 67.8402736,59.4622274 67.8611613,59.6041677 C67.882049,59.7404304 67.9709798,59.8634453 68.1016859,59.9328384 C68.8131325,60.3176544 69.5524292,60.5129012 70.299638,60.5129012 C72.6175359,60.5129012 74.4100774,58.6200481 75.1645652,57.6684171 C75.707961,58.2043207 77.4663227,59.9656424 79.151894,61.6544168 L79.4785011,61.9811949 C80.583332,63.0870677 81.3824435,63.886034 81.5248594,64.0267127 Z M23.1340232,85.1725085 C23.1340232,85.2791214 23.1533284,85.3191801 23.2216881,85.3472528 C23.4264505,85.4153841 23.7191943,85.4450339 23.9625672,85.4450339 C24.3518374,85.4450339 24.4793787,85.4049752 24.6547085,85.2791214 C24.9471358,85.0658955 25.2294358,84.6189412 25.2294358,83.8228137 C25.2294358,82.4434692 24.3132268,82.0466672 23.7384996,82.0466672 C23.4948101,82.0466672 23.3194803,82.055499 23.2216881,82.0838871 C23.1533284,82.1043896 23.1340232,82.1428712 23.1340232,82.2198344 L23.1340232,85.1725085 Z M33.5030718,88.814981 C33.3470473,88.7468496 33.3176146,88.6979591 33.3176146,88.4834715 C33.3176146,87.9507221 33.3559087,87.365928 33.3663525,87.2120016 C33.3767964,87.0656454 33.4049631,86.9590324 33.4837665,86.9590324 C33.5714314,86.9590324 33.5802929,87.0476663 33.5802929,87.1233678 C33.5802929,87.2507986 33.6204858,87.4548773 33.6679578,87.6188972 C33.883164,88.3383769 34.4578913,88.6004934 35.0623677,88.6004934 C35.9383837,88.6004934 36.3675303,88.0084445 36.3675303,87.4933589 C36.3675303,87.0183319 36.2222661,86.5698005 35.4127108,85.9408472 L34.9642589,85.5897815 C33.8920254,84.7551724 33.5223771,84.0757514 33.5223771,83.2900329 C33.5223771,82.2198028 34.4192808,81.4533251 35.7734978,81.4533251 C36.4061408,81.4533251 36.8147162,81.5507908 37.068533,81.6189221 C37.1561979,81.6365858 37.2052523,81.6678127 37.2052523,81.7359441 C37.2052523,81.8617978 37.1666417,82.1428396 37.1666417,82.900801 C37.1666417,83.1137114 37.1368927,83.1906746 37.0596716,83.1906746 C36.991312,83.1906746 36.9615629,83.1329522 36.9615629,83.0162457 C36.9615629,82.9288736 36.9125085,82.6282755 36.7093285,82.3753063 C36.5621654,82.1901531 36.2798654,81.9002794 35.6459564,81.9002794 C34.9256484,81.9002794 34.4876404,82.3175839 34.4876404,82.900801 C34.4876404,83.3477553 34.7104422,83.6865195 35.519681,84.2978091 L35.792803,84.5022032 C36.9707408,85.3872799 37.3910259,86.0559766 37.3910259,86.9798503 C37.3910259,87.5422494 37.1770856,88.2125232 36.4745005,88.6686247 C35.9874381,88.9793163 35.4424599,89.0666885 34.9256484,89.0666885 C34.360099,89.0666885 33.9217745,88.9985571 33.5030718,88.814981 Z M38.9790582,84.4052106 C38.9790582,82.9296622 38.9790582,82.6571367 38.9597529,82.3464451 C38.9404476,82.0161973 38.8423389,81.8506003 38.628715,81.8029714 C38.5201625,81.7736371 38.393887,81.7648053 38.2767895,81.7648053 C38.1802632,81.7648053 38.120765,81.7439873 38.120765,81.6670241 C38.120765,81.6077246 38.1995685,81.5900609 38.3552765,81.5900609 C38.7252414,81.5900609 39.3401616,81.6181336 39.6221451,81.6181336 C39.865518,81.6181336 40.4402453,81.5900609 40.8102102,81.5900609 C40.9377515,81.5900609 41.0149726,81.6077246 41.0149726,81.6670241 C41.0149726,81.7439873 40.9570568,81.7648053 40.8589481,81.7648053 C40.7627382,81.7648053 40.6839347,81.7736371 40.5665207,81.7928779 C40.3038425,81.8417685 40.2266215,82.0073655 40.2073162,82.3464451 C40.1864285,82.6571367 40.1864285,82.9296622 40.1864285,84.4052106 L40.1864285,86.1144875 C40.1864285,87.056025 40.1864285,87.8240798 40.2266215,88.2413844 C40.2547882,88.5050779 40.3231478,88.6779297 40.6155751,88.7164113 C40.7522944,88.7372292 40.9659182,88.7552083 41.1130813,88.7552083 C41.2200515,88.7552083 41.2691059,88.7845427 41.2691059,88.8334332 C41.2691059,88.9015646 41.1903024,88.9312143 41.0833322,88.9312143 C40.4402453,88.9312143 39.827224,88.9015646 39.5642293,88.9015646 C39.3401616,88.9015646 38.7252414,88.9312143 38.3359712,88.9312143 C38.2084299,88.9312143 38.1416527,88.9015646 38.1416527,88.8334332 C38.1416527,88.7845427 38.1802632,88.7552083 38.2973607,88.7552083 C38.4429414,88.7552083 38.5603554,88.7372292 38.6480203,88.7164113 C38.8423389,88.6779297 38.9002547,88.5123327 38.9300038,88.2309754 C38.9790582,87.8240798 38.9790582,87.056025 38.9790582,86.1144875 L38.9790582,84.4052106 Z M43.8705697,85.4732958 C43.8705697,86.50189 43.8810135,87.2510194 43.8898749,87.4342802 C43.9003188,87.6771558 43.919624,88.0663877 43.9968451,88.1730007 C44.1247029,88.3581539 44.5047952,88.5622326 45.2741575,88.5622326 C46.2675875,88.5622326 46.9312456,88.3669858 47.5148344,87.8623091 C48.138616,87.3292443 48.3332511,86.4441676 48.3332511,85.443646 C48.3332511,84.2109732 47.8177055,83.4145303 47.3977368,83.0164665 C46.5020991,82.1623012 45.391255,82.0468564 44.6310706,82.0468564 C44.4364355,82.0468564 44.0753321,82.0752445 43.9968451,82.1137261 C43.9091802,82.1522077 43.8810135,82.2007828 43.8810135,82.3073958 C43.8705697,82.6376436 43.8705697,83.4826616 43.8705697,84.2507165 L43.8705697,85.4732958 Z M42.6527555,84.4046429 C42.6527555,82.9290944 42.6527555,82.6581461 42.6334502,82.3474545 C42.6141449,82.015945 42.5372404,81.8620186 42.2147475,81.7938873 C42.1375264,81.7730693 41.9713745,81.7642375 41.8346552,81.7642375 C41.7276851,81.7642375 41.6697693,81.7434196 41.6697693,81.6768653 C41.6697693,81.6090494 41.7365465,81.5894932 41.8837096,81.5894932 C42.3989387,81.5894932 43.0135424,81.6191429 43.2853986,81.6191429 C43.5882697,81.6191429 44.2016075,81.5894932 44.7870951,81.5894932 C46.0045928,81.5894932 47.6322484,81.5894932 48.694038,82.6966277 C49.1811004,83.2013044 49.6384137,84.0078408 49.6384137,85.1626042 C49.6384137,86.3864452 49.1231846,87.3191508 48.576624,87.8724026 C48.1297546,88.3297659 47.1154369,89.0195958 45.3124516,89.0195958 C44.9621084,89.0195958 44.562711,88.988369 44.1930626,88.9587192 C43.8215153,88.9306466 43.481616,88.9013122 43.2379266,88.9013122 C43.1296905,88.9013122 42.9157502,88.9013122 42.6825046,88.9114058 C42.4584369,88.9114058 42.2043036,88.9306466 42.009985,88.9306466 C41.8837096,88.9306466 41.81535,88.9013122 41.81535,88.8344426 C41.81535,88.7842903 41.8539605,88.7562177 41.9713745,88.7562177 C42.1166387,88.7562177 42.2340527,88.7369769 42.3217176,88.716159 C42.5163527,88.6776774 42.5650906,88.4644515 42.6040176,88.1834096 C42.6527555,87.7761986 42.6527555,87.0081438 42.6527555,86.1158123 L42.6527555,84.4046429 Z M50.9456334,84.4052106 C50.9456334,82.9296622 50.9456334,82.6571367 50.9263282,82.3464451 C50.9070229,82.0161973 50.8282194,81.8610093 50.5076254,81.7928779 C50.4288219,81.7736371 50.263936,81.7648053 50.1275332,81.7648053 C50.0189806,81.7648053 49.9610648,81.7439873 49.9610648,81.675856 C49.9610648,81.6077246 50.029108,81.5900609 50.1746887,81.5900609 C50.4392658,81.5900609 50.7215657,81.5988928 50.9649387,81.5988928 C51.2187555,81.6077246 51.4415573,81.6181336 51.5782765,81.6181336 C51.8900091,81.6181336 53.8293972,81.6181336 54.0151708,81.6077246 C54.1993621,81.5900609 54.3550701,81.569243 54.4338736,81.5500022 C54.482928,81.5399087 54.5408438,81.5115206 54.5898981,81.5115206 C54.6389525,81.5115206 54.6478139,81.5500022 54.6478139,81.5988928 C54.6478139,81.6670241 54.5987596,81.7837306 54.5705929,82.2294232 C54.560149,82.3272043 54.5408438,82.7549178 54.5215385,82.8719398 C54.5110947,82.9192532 54.4917894,82.9785527 54.4234298,82.9785527 C54.3550701,82.9785527 54.3357649,82.9296622 54.3357649,82.8407129 C54.3357649,82.7725815 54.3269034,82.6082462 54.2778491,82.4931168 C54.2094894,82.3183725 54.1116972,82.2013506 53.6246348,82.1436282 C53.4597488,82.1228103 52.4365697,82.1035695 52.2419346,82.1035695 C52.1928803,82.1035695 52.173575,82.1332192 52.173575,82.2013506 L52.173575,84.6581798 C52.173575,84.7263112 52.1827529,84.7647928 52.2419346,84.7647928 C52.455875,84.7647928 53.5755804,84.7647928 53.7999646,84.7439749 C54.0344761,84.7263112 54.1800568,84.6966614 54.2677217,84.6004574 C54.3357649,84.5222325 54.3759578,84.473342 54.4234298,84.473342 C54.4636227,84.473342 54.4917894,84.4938445 54.4917894,84.5515669 C54.4917894,84.6092893 54.4531789,84.7647928 54.4133024,85.2593759 C54.4041245,85.4546227 54.3759578,85.8438546 54.3759578,85.9116706 C54.3759578,85.9873721 54.3759578,86.0952467 54.287027,86.0952467 C54.2199333,86.0952467 54.1993621,86.0555034 54.1993621,86.00819 C54.1901842,85.9116706 54.1901842,85.7845551 54.1607515,85.6587014 C54.1116972,85.4647163 53.9765603,85.31836 53.6157734,85.2798784 C53.4299997,85.2593759 52.4647364,85.2502287 52.2314908,85.2502287 C52.1827529,85.2502287 52.173575,85.2902874 52.173575,85.3480098 L52.173575,86.1144875 C52.173575,86.4447353 52.1634476,87.3370668 52.173575,87.6196858 C52.1928803,88.2902749 52.3489048,88.4353695 53.3423348,88.4353695 C53.5961516,88.4353695 54.004727,88.4353695 54.2585438,88.3199247 C54.5110947,88.2016411 54.6285087,87.9988241 54.6968683,87.600445 C54.7161736,87.493832 54.7354788,87.4553504 54.803522,87.4553504 C54.8823254,87.4553504 54.8823254,87.532629 54.8823254,87.6304101 C54.8823254,87.8521525 54.803522,88.5123327 54.7547841,88.7078949 C54.6880069,88.959287 54.5987596,88.959287 54.2291112,88.959287 C53.4983594,88.959287 52.9622426,88.9400462 52.5435399,88.9312143 C52.1248371,88.9119735 51.8219659,88.9015646 51.5308045,88.9015646 C51.422252,88.9015646 51.2086281,88.9015646 50.9753825,88.9119735 C50.7509984,88.9119735 50.4971816,88.9312143 50.3025465,88.9312143 C50.1746887,88.9312143 50.1082279,88.9015646 50.1082279,88.8334332 C50.1082279,88.7845427 50.1468385,88.7552083 50.263936,88.7552083 C50.4095167,88.7552083 50.5269307,88.7372292 50.6145956,88.7164113 C50.8089142,88.6779297 50.8579685,88.4650192 50.8965791,88.183662 C50.9456334,87.7751893 50.9456334,87.0083961 50.9456334,86.1144875 L50.9456334,84.4052106 Z M56.9191893,87.6094976 C56.9384946,88.3671435 57.0660359,88.6204281 57.260671,88.6885595 C57.425557,88.7475436 57.6113306,88.7551137 57.7670387,88.7551137 C57.8740088,88.7551137 57.933507,88.7759316 57.933507,88.833654 C57.933507,88.9118789 57.8458421,88.9311197 57.7091229,88.9311197 C57.0752138,88.9311197 56.6859437,88.9017854 56.5001701,88.9017854 C56.4128217,88.9017854 55.9555084,88.9311197 55.4475583,88.9311197 C55.3212829,88.9311197 55.233618,88.9207107 55.233618,88.833654 C55.233618,88.7759316 55.2915338,88.7551137 55.3896425,88.7551137 C55.5156015,88.7551137 55.6909313,88.7475436 55.8276505,88.7078003 C56.0814673,88.62926 56.1200779,88.3482181 56.1305217,87.5044618 L56.2181866,81.7823743 C56.2181866,81.5902817 56.2463533,81.454019 56.344462,81.454019 C56.4511157,81.454019 56.5387806,81.5798728 56.705249,81.7543017 C56.822663,81.8801554 58.3031554,83.4342442 59.725732,84.8432385 C60.3881242,85.5018416 61.7037307,86.9004268 61.8686166,87.0559304 L61.917671,87.0559304 L61.8195623,82.6971008 C61.8107008,82.1037903 61.7230359,81.918637 61.4885244,81.822433 C61.3429437,81.7647106 61.1084322,81.7647106 60.9717129,81.7647106 C60.8558813,81.7647106 60.8172708,81.7350609 60.8172708,81.6757614 C60.8172708,81.5975365 60.924241,81.5902817 61.0698217,81.5902817 C61.5761893,81.5902817 62.0439464,81.618039 62.2487088,81.618039 C62.355679,81.618039 62.7272263,81.5902817 63.2035283,81.5902817 C63.3298038,81.5902817 63.4279125,81.5975365 63.4279125,81.6757614 C63.4279125,81.7350609 63.3699967,81.7647106 63.2528992,81.7647106 C63.1547905,81.7647106 63.0775694,81.7647106 62.9601554,81.7927833 C62.6870333,81.8713236 62.6094958,82.0757176 62.5993684,82.6188759 L62.4923983,88.7475436 C62.4923983,88.9591923 62.4537877,89.0481416 62.3661228,89.0481416 C62.2594692,89.0481416 62.1417387,88.9399515 62.035085,88.833654 C61.4201648,88.2520141 60.172918,86.9789672 59.1601826,85.9784456 C58.098393,84.9290335 57.017298,83.7452512 56.8419682,83.5616751 L56.8122191,83.5616751 L56.9191893,87.6094976 Z M64.9192602,88.0085392 C63.9644407,87.1739301 63.7118898,86.0860364 63.7118898,85.1432372 C63.7118898,84.483057 63.9153863,83.3374409 64.8509006,82.4832756 C65.5531692,81.8410745 66.4785561,81.4534197 67.9292994,81.4534197 C68.5353582,81.4534197 68.8945627,81.493163 69.3430146,81.5508854 C69.7142454,81.5981989 70.024712,81.6871481 70.3174558,81.7152208 C70.4241095,81.7256297 70.46272,81.7729432 70.46272,81.8322427 C70.46272,81.9104676 70.4345533,82.0262278 70.4152481,82.364992 C70.3959428,82.6860926 70.4048042,83.2219961 70.385499,83.4144041 C70.3750551,83.5607604 70.3557499,83.638039 70.2696674,83.638039 C70.1911804,83.638039 70.1718751,83.5607604 70.1718751,83.4248131 C70.1614313,83.1229533 70.0351559,82.7838737 69.7917829,82.5321662 C69.46929,82.1902477 68.7103715,81.9300238 67.8134678,81.9300238 C66.9656185,81.9300238 66.4101964,82.1429343 65.9810499,82.5321662 C65.2696033,83.1819374 65.0854121,84.1042341 65.0854121,85.0470332 C65.0854121,87.3587679 66.8482045,88.504384 68.155266,88.504384 C69.0224206,88.504384 69.5480935,88.4066029 69.9370471,87.9596486 C70.1035155,87.7760725 70.2297909,87.4934535 70.2696674,87.3187092 C70.2981506,87.1635211 70.3174558,87.1234624 70.3959428,87.1234624 C70.46272,87.1234624 70.4836077,87.1915938 70.4836077,87.2698186 C70.4836077,87.3868406 70.3661937,88.2305969 70.2696674,88.5621064 C70.2193471,88.7264418 70.1807366,88.776594 70.0158506,88.8431482 C69.6253145,88.9986518 68.8841189,89.0667831 68.2606537,89.0667831 C66.9270079,89.0667831 65.8057201,88.776594 64.9192602,88.0085392 Z M77.8898359,85.9689198 C77.9388903,85.9689198 77.9477517,85.9392701 77.9388903,85.9111974 L77.0612918,83.5224996 C77.0524304,83.4824408 77.0419866,83.4335503 77.0122375,83.4335503 C76.9840708,83.4335503 76.9631831,83.4824408 76.9543217,83.5224996 L76.057418,85.9007885 C76.0485565,85.9392701 76.057418,85.9689198 76.0960285,85.9689198 L77.8898359,85.9689198 Z M91.0818525,87.0226848 C90.6422621,86.6451235 89.915941,85.9363682 89.72004,85.7247194 C89.5225567,85.5130706 89.0383426,84.9699123 88.9092188,84.7819203 C88.6522373,84.9699123 88.3879766,85.3266557 88.3879766,85.928798 C88.3879766,86.8703355 89.0532171,87.4756321 89.8403024,87.4756321 C90.4238911,87.4756321 90.9229797,87.1737724 91.0818525,87.0226848 Z M88.7133179,84.4961471 C88.3939898,84.0728495 88.3344916,83.7634196 88.326896,83.4230782 C88.319617,82.8281906 88.8497206,82.0361636 90.1653271,82.0361636 C90.5368744,82.0361636 90.8770901,82.1118651 91.0818525,82.1945059 C91.2093939,82.2405577 91.2093939,82.3011189 91.2093939,82.3900681 C91.2093939,82.6401985 91.1502122,83.2426563 91.1264762,83.3549469 C91.1116016,83.4703917 91.0818525,83.4836395 91.0356465,83.4836395 C90.9897569,83.4836395 90.9837438,83.4543051 90.9837438,83.3416991 C90.9837438,83.1448752 90.9302587,82.9035767 90.7641068,82.7083299 C90.612513,82.5263308 90.34667,82.3679885 89.9235365,82.3679885 C89.6054744,82.3679885 89.1139813,82.586892 89.1139813,83.2294086 C89.1139813,83.9365868 89.7646637,84.5406217 90.370406,85.2108954 C90.6273876,85.5070776 91.5584711,86.3432638 91.7012035,86.4719563 C91.8540632,86.2603075 92.0664211,85.7688786 92.0664211,85.3102537 C92.0664211,85.1976477 92.0350896,85.0617004 91.9208404,84.9623422 C91.8243141,84.8721312 91.6638589,84.8497362 91.5508756,84.8497362 C91.504986,84.8497362 91.4590964,84.8336496 91.4590964,84.789175 C91.4590964,84.7286138 91.5198606,84.7137889 91.5809412,84.7137889 C91.7619676,84.7137889 92.0664211,84.7210436 92.4895546,84.7670954 C92.6319705,84.7819203 92.7465362,84.8276566 92.7465362,84.9178675 C92.7465362,85.4995074 92.4360695,86.1997463 92.0053405,86.7060002 C92.5120247,87.1204659 92.851924,87.3245445 93.0570029,87.4444052 C93.2987934,87.5879227 93.7146478,87.7093605 93.8662417,87.7093605 C93.9346013,87.7093605 93.9732118,87.7169307 93.9732118,87.7774919 C93.9732118,87.8219665 93.9121312,87.8456232 93.7459793,87.8456232 L93.1623906,87.8456232 C92.2996667,87.8456232 92.0278106,87.7610899 91.3774447,87.2639833 C91.1264762,87.4888799 90.6201085,87.9506591 89.5833208,87.9506591 C87.9632608,87.9506591 87.4790467,86.9381514 87.4790467,86.2827026 C87.4790467,85.4004646 88.2588529,84.7137889 88.7133179,84.4961471 Z M106.286776,85.9689198 C106.335513,85.9689198 106.345957,85.9392701 106.335513,85.9111974 L105.457915,83.5224996 C105.44937,83.4824408 105.43861,83.4335503 105.410443,83.4335503 C105.38101,83.4335503 105.361389,83.4824408 105.350945,83.5224996 L104.455624,85.9007885 C104.44518,85.9392701 104.455624,85.9689198 104.494234,85.9689198 L106.286776,85.9689198 Z M115.16492,84.4052106 C115.16492,82.9296622 115.16492,82.6571367 115.145298,82.3464451 C115.126309,82.0161973 115.0282,81.8506003 114.814576,81.8029714 C114.706024,81.7736371 114.579748,81.7648053 114.462334,81.7648053 C114.366125,81.7648053 114.306626,81.7439873 114.306626,81.6670241 C114.306626,81.6077246 114.385113,81.5900609 114.541138,81.5900609 C114.910786,81.5900609 115.526023,81.6181336 115.80769,81.6181336 C116.051379,81.6181336 116.626107,81.5900609 116.995755,81.5900609 C117.123613,81.5900609 117.200834,81.6077246 117.200834,81.6670241 C117.200834,81.7439873 117.142918,81.7648053 117.044809,81.7648053 C116.9486,81.7648053 116.869796,81.7736371 116.752382,81.7928779 C116.489704,81.8417685 116.412166,82.0073655 116.393178,82.3464451 C116.371973,82.6571367 116.371973,82.9296622 116.371973,84.4052106 L116.371973,86.1144875 C116.371973,87.056025 116.371973,87.8240798 116.412166,88.2413844 C116.440333,88.5050779 116.508693,88.6779297 116.801437,88.7164113 C116.938156,88.7372292 117.15178,88.7552083 117.298943,88.7552083 C117.405913,88.7552083 117.454651,88.7845427 117.454651,88.8334332 C117.454651,88.9015646 117.375847,88.9312143 117.268877,88.9312143 C116.626107,88.9312143 116.013085,88.9015646 115.750091,88.9015646 C115.526023,88.9015646 114.910786,88.9312143 114.521833,88.9312143 C114.393975,88.9312143 114.327514,88.9015646 114.327514,88.8334332 C114.327514,88.7845427 114.366125,88.7552083 114.483222,88.7552083 C114.628803,88.7552083 114.746217,88.7372292 114.833565,88.7164113 C115.0282,88.6779297 115.086116,88.5123327 115.115865,88.2309754 C115.16492,87.8240798 115.16492,87.056025 115.16492,86.1144875 L115.16492,84.4052106 Z M120.05583,85.4732958 C120.05583,86.50189 120.066274,87.2510194 120.075135,87.4342802 C120.085579,87.6771558 120.104884,88.0663877 120.181789,88.1730007 C120.309963,88.3581539 120.690055,88.5622326 121.459418,88.5622326 C122.452531,88.5622326 123.116506,88.3669858 123.700094,87.8623091 C124.32356,87.3292443 124.518511,86.4441676 124.518511,85.443646 C124.518511,84.2109732 124.002966,83.4145303 123.582997,83.0164665 C122.687043,82.1623012 121.576515,82.0468564 120.816014,82.0468564 C120.621696,82.0468564 120.260592,82.0752445 120.181789,82.1137261 C120.09444,82.1522077 120.066274,82.2007828 120.066274,82.3073958 C120.05583,82.6376436 120.05583,83.4826616 120.05583,84.2507165 L120.05583,85.4732958 Z M118.838016,84.4046429 C118.838016,82.9290944 118.838016,82.6581461 118.81871,82.3474545 C118.799405,82.015945 118.720602,81.8620186 118.400008,81.7938873 C118.322786,81.7730693 118.156318,81.7642375 118.019599,81.7642375 C117.912945,81.7642375 117.855029,81.7434196 117.855029,81.6768653 C117.855029,81.6090494 117.921807,81.5894932 118.06897,81.5894932 C118.584199,81.5894932 119.199119,81.6191429 119.470659,81.6191429 C119.77353,81.6191429 120.386868,81.5894932 120.972355,81.5894932 C122.189853,81.5894932 123.817508,81.5894932 124.878982,82.6966277 C125.366044,83.2013044 125.823674,84.0078408 125.823674,85.1626042 C125.823674,86.3864452 125.308445,87.3191508 124.761884,87.8724026 C124.315015,88.3297659 123.300697,89.0195958 121.498028,89.0195958 C121.147369,89.0195958 120.747971,88.988369 120.378323,88.9587192 C120.006775,88.9306466 119.666876,88.9013122 119.423187,88.9013122 C119.314634,88.9013122 119.100694,88.9013122 118.867765,88.9114058 C118.64338,88.9114058 118.389564,88.9306466 118.194929,88.9306466 C118.06897,88.9306466 118.00061,88.9013122 118.00061,88.8344426 C118.00061,88.7842903 118.039221,88.7562177 118.156318,88.7562177 C118.301899,88.7562177 118.419313,88.7369769 118.506661,88.716159 C118.701613,88.6776774 118.750351,88.4644515 118.788961,88.1834096 C118.838016,87.7761986 118.838016,87.0081438 118.838016,86.1158123 L118.838016,84.4046429 Z M129.606145,85.9689198 C129.6552,85.9689198 129.664061,85.9392701 129.6552,85.9111974 L128.777601,83.5224996 C128.76874,83.4824408 128.757979,83.4335503 128.728547,83.4335503 C128.70038,83.4335503 128.679492,83.4824408 128.670631,83.5224996 L127.773727,85.9007885 C127.764866,85.9392701 127.773727,85.9689198 127.812338,85.9689198 L129.606145,85.9689198 Z M134.536932,85.4732958 C134.536932,86.50189 134.547059,87.2510194 134.556237,87.4342802 C134.566681,87.6771558 134.58567,88.0663877 134.662891,88.1730007 C134.790749,88.3581539 135.171157,88.5622326 135.94052,88.5622326 C136.933633,88.5622326 137.597608,88.3669858 138.181197,87.8623091 C138.804662,87.3292443 138.999613,86.4441676 138.999613,85.443646 C138.999613,84.2109732 138.484068,83.4145303 138.064099,83.0164665 C137.168145,82.1623012 136.057617,82.0468564 135.297116,82.0468564 C135.102798,82.0468564 134.741694,82.0752445 134.662891,82.1137261 C134.575542,82.1522077 134.547059,82.2007828 134.547059,82.3073958 C134.536932,82.6376436 134.536932,83.4826616 134.536932,84.2507165 L134.536932,85.4732958 Z M145.119225,85.4732958 C145.119225,86.50189 145.129352,87.2510194 145.13853,87.4342802 C145.148974,87.6771558 145.167962,88.0663877 145.245183,88.1730007 C145.373041,88.3581539 145.753134,88.5622326 146.522496,88.5622326 C147.515926,88.5622326 148.179901,88.3669858 148.763489,87.8623091 C149.386954,87.3292443 149.581906,86.4441676 149.581906,85.443646 C149.581906,84.2109732 149.06636,83.4145303 148.646392,83.0164665 C147.750437,82.1623012 146.63991,82.0468564 145.879409,82.0468564 C145.684774,82.0468564 145.323987,82.0752445 145.245183,82.1137261 C145.157835,82.1522077 145.129352,82.2007828 145.129352,82.3073958 C145.119225,82.6376436 145.119225,83.4826616 145.119225,84.2507165 L145.119225,85.4732958 Z M143.90141,84.4046429 C143.90141,82.9290944 143.90141,82.6581461 143.882105,82.3474545 C143.8628,82.015945 143.785579,81.8620186 143.463402,81.7938873 C143.385865,81.7730693 143.219713,81.7642375 143.082994,81.7642375 C142.97634,81.7642375 142.918424,81.7434196 142.918424,81.6768653 C142.918424,81.6090494 142.985201,81.5894932 143.132364,81.5894932 C143.647594,81.5894932 144.262197,81.6191429 144.534053,81.6191429 C144.836925,81.6191429 145.450262,81.5894932 146.035434,81.5894932 C147.252931,81.5894932 148.880903,81.5894932 149.942376,82.6966277 C150.429439,83.2013044 150.887069,84.0078408 150.887069,85.1626042 C150.887069,86.3864452 150.371839,87.3191508 149.825279,87.8724026 C149.378093,88.3297659 148.364092,89.0195958 146.561106,89.0195958 C146.210447,89.0195958 145.811366,88.988369 145.441401,88.9587192 C145.07017,88.9306466 144.730271,88.9013122 144.486581,88.9013122 C144.378029,88.9013122 144.164089,88.9013122 143.931159,88.9114058 C143.706775,88.9114058 143.452958,88.9306466 143.258323,88.9306466 C143.132364,88.9306466 143.064005,88.9013122 143.064005,88.8344426 C143.064005,88.7842903 143.102615,88.7562177 143.219713,88.7562177 C143.365294,88.7562177 143.482708,88.7369769 143.570056,88.716159 C143.765008,88.6776774 143.813745,88.4644515 143.852356,88.1834096 C143.90141,87.7761986 143.90141,87.0081438 143.90141,86.1158123 L143.90141,84.4046429 Z M152.19489,84.4052106 C152.19489,82.9296622 152.19489,82.6571367 152.175268,82.3464451 C152.156279,82.0161973 152.077476,81.8610093 151.756565,81.7928779 C151.678078,81.7736371 151.513192,81.7648053 151.376473,81.7648053 C151.268237,81.7648053 151.210321,81.7439873 151.210321,81.675856 C151.210321,81.6077246 151.278364,81.5900609 151.423945,81.5900609 C151.688205,81.5900609 151.970505,81.5988928 152.214195,81.5988928 C152.468012,81.6077246 152.690813,81.6181336 152.827533,81.6181336 C153.139265,81.6181336 155.078653,81.6181336 155.264427,81.6077246 C155.448618,81.5900609 155.604326,81.569243 155.68313,81.5500022 C155.732184,81.5399087 155.7901,81.5115206 155.839154,81.5115206 C155.888209,81.5115206 155.89707,81.5500022 155.89707,81.5988928 C155.89707,81.6670241 155.848016,81.7837306 155.818267,82.2294232 C155.809405,82.3272043 155.7901,82.7549178 155.770795,82.8719398 C155.760667,82.9192532 155.741046,82.9785527 155.672686,82.9785527 C155.604326,82.9785527 155.585338,82.9296622 155.585338,82.8407129 C155.585338,82.7725815 155.576476,82.6082462 155.527105,82.4931168 C155.458746,82.3183725 155.360953,82.2013506 154.873891,82.1436282 C154.709005,82.1228103 153.685826,82.1035695 153.491507,82.1035695 C153.442136,82.1035695 153.423148,82.1332192 153.423148,82.2013506 L153.423148,84.6581798 C153.423148,84.7263112 153.431693,84.7647928 153.491507,84.7647928 C153.705131,84.7647928 154.824837,84.7647928 155.049221,84.7439749 C155.283732,84.7263112 155.429313,84.6966614 155.516978,84.6004574 C155.585338,84.5222325 155.625214,84.473342 155.672686,84.473342 C155.712879,84.473342 155.741046,84.4938445 155.741046,84.5515669 C155.741046,84.6092893 155.702435,84.7647928 155.663824,85.2593759 C155.653697,85.4546227 155.625214,85.8438546 155.625214,85.9116706 C155.625214,85.9873721 155.625214,86.0952467 155.536283,86.0952467 C155.469506,86.0952467 155.448618,86.0555034 155.448618,86.00819 C155.439757,85.9116706 155.439757,85.7845551 155.410008,85.6587014 C155.360953,85.4647163 155.225816,85.31836 154.86503,85.2798784 C154.679572,85.2593759 153.713993,85.2502287 153.480747,85.2502287 C153.431693,85.2502287 153.423148,85.2902874 153.423148,85.3480098 L153.423148,86.1144875 C153.423148,86.4447353 153.412704,87.3370668 153.423148,87.6196858 C153.442136,88.2902749 153.598477,88.4353695 154.591591,88.4353695 C154.845724,88.4353695 155.253983,88.4353695 155.506534,88.3199247 C155.760667,88.2016411 155.877765,87.9988241 155.946124,87.600445 C155.96543,87.493832 155.984735,87.4553504 156.052778,87.4553504 C156.130316,87.4553504 156.130316,87.532629 156.130316,87.6304101 C156.130316,87.8521525 156.052778,88.5123327 156.00404,88.7078949 C155.936947,88.959287 155.848016,88.959287 155.478367,88.959287 C154.747616,88.959287 154.211499,88.9400462 153.792796,88.9312143 C153.374093,88.9119735 153.071222,88.9015646 152.780061,88.9015646 C152.671508,88.9015646 152.457568,88.9015646 152.224639,88.9119735 C152.000255,88.9119735 151.746438,88.9312143 151.551803,88.9312143 C151.423945,88.9312143 151.357484,88.9015646 151.357484,88.8334332 C151.357484,88.7845427 151.396095,88.7552083 151.513192,88.7552083 C151.658773,88.7552083 151.776187,88.7372292 151.863535,88.7164113 C152.05817,88.6779297 152.107225,88.4650192 152.145835,88.183662 C152.19489,87.7751893 152.19489,87.0083961 152.19489,86.1144875 L152.19489,84.4052106 Z M171.030374,85.4732958 C171.030374,86.50189 171.040501,87.2510194 171.049679,87.4342802 C171.060123,87.6771558 171.079112,88.0663877 171.156333,88.1730007 C171.28419,88.3581539 171.664283,88.5622326 172.433645,88.5622326 C173.427075,88.5622326 174.09105,88.3669858 174.674638,87.8623091 C175.298104,87.3292443 175.493055,86.4441676 175.493055,85.443646 C175.493055,84.2109732 174.97751,83.4145303 174.557541,83.0164665 C173.661587,82.1623012 172.551059,82.0468564 171.790558,82.0468564 C171.595923,82.0468564 171.235136,82.0752445 171.156333,82.1137261 C171.068984,82.1522077 171.040501,82.2007828 171.040501,82.3073958 C171.030374,82.6376436 171.030374,83.4826616 171.030374,84.2507165 L171.030374,85.4732958 Z M169.81256,84.4046429 C169.81256,82.9290944 169.81256,82.6581461 169.793254,82.3474545 C169.773949,82.015945 169.696728,81.8620186 169.374551,81.7938873 C169.297014,81.7730693 169.130862,81.7642375 168.994143,81.7642375 C168.887489,81.7642375 168.829573,81.7434196 168.829573,81.6768653 C168.829573,81.6090494 168.896351,81.5894932 169.043514,81.5894932 C169.558743,81.5894932 170.173346,81.6191429 170.445203,81.6191429 C170.748074,81.6191429 171.361412,81.5894932 171.946583,81.5894932 C173.16408,81.5894932 174.792052,81.5894932 175.853526,82.6966277 C176.340588,83.2013044 176.798218,84.0078408 176.798218,85.1626042 C176.798218,86.3864452 176.282989,87.3191508 175.736428,87.8724026 C175.289242,88.3297659 174.275241,89.0195958 172.472256,89.0195958 C172.121596,89.0195958 171.722515,88.988369 171.35255,88.9587192 C170.981319,88.9306466 170.64142,88.9013122 170.397731,88.9013122 C170.289178,88.9013122 170.075238,88.9013122 169.842309,88.9114058 C169.617924,88.9114058 169.364108,88.9306466 169.169473,88.9306466 C169.043514,88.9306466 168.975154,88.9013122 168.975154,88.8344426 C168.975154,88.7842903 169.013765,88.7562177 169.130862,88.7562177 C169.276443,88.7562177 169.393857,88.7369769 169.481205,88.716159 C169.676157,88.6776774 169.724895,88.4644515 169.763505,88.1834096 C169.81256,87.7761986 169.81256,87.0081438 169.81256,86.1158123 L169.81256,84.4046429 Z M180.579803,85.9689198 C180.628857,85.9689198 180.639301,85.9392701 180.628857,85.9111974 L179.751259,83.5224996 C179.742397,83.4824408 179.731954,83.4335503 179.70347,83.4335503 C179.674038,83.4335503 179.654733,83.4824408 179.644289,83.5224996 L178.748967,85.9007885 C178.738524,85.9392701 178.748967,85.9689198 178.787578,85.9689198 L180.579803,85.9689198 Z M178.592943,86.4543557 C178.543889,86.4543557 178.524583,86.4735965 178.505278,86.532896 L177.979605,87.8620883 C177.881813,88.1046485 177.832442,88.3386923 177.832442,88.4553988 C177.832442,88.6301431 177.920423,88.7559969 178.223295,88.7559969 L178.368875,88.7559969 C178.484707,88.7559969 178.514456,88.7752377 178.514456,88.8342218 C178.514456,88.9115004 178.456224,88.9307412 178.349253,88.9307412 C178.037521,88.9307412 177.618818,88.9010914 177.315947,88.9010914 C177.208977,88.9010914 176.67286,88.9307412 176.166492,88.9307412 C176.040217,88.9307412 175.981035,88.9115004 175.981035,88.8342218 C175.981035,88.7752377 176.020912,88.7559969 176.098133,88.7559969 C176.185798,88.7559969 176.322517,88.747165 176.401004,88.7367561 C176.84819,88.6774566 177.033647,88.3475242 177.228282,87.8620883 L179.674038,81.8412953 C179.791452,81.5599381 179.849051,81.4533251 179.94716,81.4533251 C180.034825,81.4533251 180.092741,81.5406973 180.190849,81.7640167 C180.425677,82.2983431 181.983391,86.1837229 182.606856,87.6592713 C182.976821,88.532362 183.260387,88.6686247 183.463883,88.7159382 C183.61073,88.747165 183.756311,88.7559969 183.873725,88.7559969 C183.952212,88.7559969 184,88.7664058 184,88.8342218 C184,88.9115004 183.912335,88.9307412 183.551548,88.9307412 C183.200889,88.9307412 182.489758,88.9307412 181.709952,88.9115004 C181.534939,88.9010914 181.417209,88.9010914 181.417209,88.8342218 C181.417209,88.7752377 181.457401,88.7559969 181.553928,88.747165 C181.622287,88.7263471 181.690647,88.6405521 181.641593,88.5235302 L180.862103,86.5224871 C180.842798,86.4735965 180.814631,86.4543557 180.765577,86.4543557 L178.592943,86.4543557 Z M21.6653038,78.2480919 L21.6653038,77.7080878 L182.719333,77.7080878 L182.719333,78.2480919 L21.6653038,78.2480919 Z M87.9907629,94.7613341 L86.4330494,96 L87.1337356,94.1412126 L85.4706344,93.0473259 L87.4606592,93.1362752 L87.9907629,91.2210271 L88.5192841,93.1362752 L90.5108914,93.0473259 L88.8477901,94.1412126 L89.5484764,96 L87.9907629,94.7613341 Z M95.0916197,94.7613341 L93.5339062,96 L94.2333266,94.1412126 L92.5714912,93.0473259 L94.5615161,93.1362752 L95.0916197,91.2210271 L95.620141,93.1362752 L97.6117482,93.0473259 L95.948647,94.1412126 L96.6493332,96 L95.0916197,94.7613341 Z M102.192635,94.7613341 L100.634921,96 L101.334342,94.1412126 L99.6728228,93.0473259 L101.662531,93.1362752 L102.192635,91.2210271 L102.721473,93.1362752 L104.712763,93.0473259 L103.049662,94.1412126 L103.749082,96 L102.192635,94.7613341 Z M109.293017,94.7613341 L107.734987,96 L108.43599,94.1412126 L106.772888,93.0473259 L108.764179,93.1362752 L109.293017,91.2210271 L109.823121,93.1362752 L111.813145,93.0473259 L110.15131,94.1412126 L110.85073,96 L109.293017,94.7613341 Z M116.394032,94.7613341 L114.836319,96 L115.537005,94.1412126 L113.873904,93.0473259 L115.865194,93.1362752 L116.394032,91.2210271 L116.924136,93.1362752 L118.914161,93.0473259 L117.250743,94.1412126 L117.951746,96 L116.394032,94.7613341 Z M121.552653,93.5148773 L121.552653,92.976135 L182.719333,92.976135 L182.719333,93.5148773 L121.552653,93.5148773 Z M21.6656203,93.5148773 L21.6656203,92.976135 L83.100992,92.976135 L83.100992,93.5148773 L21.6656203,93.5148773 Z" id="Combined-Shape"></path>
        </g>
    </g>
</svg>