<?xml version="1.0" encoding="UTF-8"?>
<svg width="71px" height="71px" viewBox="0 0 71 71" version="1.1" xmlns="http://www.w3.org/2000/svg" xmlns:xlink="http://www.w3.org/1999/xlink">
    <!-- Generator: Sketch 55 (78076) - https://sketchapp.com/ -->
    <title>Group</title>
    <desc>Created with Sketch.</desc>
    <g id="Page-1" stroke="none" stroke-width="1" fill="none" fill-rule="evenodd">
        <g id="Front-page" transform="translate(-1044.000000, -2192.000000)">
            <g id="Group" transform="translate(1044.000000, 2192.000000)">
                <path d="M22.8417143,21.0830099 C19.3471099,21.0830099 16.5032088,23.9261307 16.5032088,27.4207351 C16.5032088,30.9153395 19.3471099,33.7592406 22.8417143,33.7592406 C26.3363187,33.7592406 29.1794396,30.9153395 29.1794396,27.4207351 C29.1802198,23.9261307 26.3370989,21.0830099 22.8417143,21.0830099 Z" id="Path"></path>
                <path d="M34.5715385,40.8732846 C31.9515604,40.8732846 29.8207802,43.004845 29.8207802,45.6240428 C29.8207802,48.2432406 31.9523407,50.3748011 34.5715385,50.3748011 C37.1907363,50.3748011 39.3222967,48.2432406 39.3222967,45.6240428 C39.3222967,43.004845 37.1907363,40.8732846 34.5715385,40.8732846 Z" id="Path"></path>
                <path d="M46.3005824,11.590856 C42.0499451,11.590856 38.5912308,15.0495703 38.5912308,19.3002077 C38.5912308,23.550845 42.0499451,27.0095593 46.3005824,27.0095593 C50.5512198,27.0095593 54.0099341,23.550845 54.0099341,19.3002077 C54.0099341,15.0495703 50.552,11.590856 46.3005824,11.590856 Z" id="Path"></path>
                <path d="M37.6768132,2.68620765 C28.4912857,2.03550436 19.7247363,5.11503183 13.0148462,11.3645923 C6.39702198,17.529889 2.60125275,26.2511857 2.60125275,35.2923725 C2.60125275,44.6799769 6.55306593,53.4590099 13.5063846,59.6640978 L13.5063846,41.5684604 C13.5063846,38.5770978 15.2907473,36.000812 17.8475275,34.8304824 C15.4694176,33.2224494 13.9027363,30.5010428 13.9027363,27.4199549 C13.9027363,22.4905263 17.9130659,18.4809769 22.8417143,18.4809769 C27.7711429,18.4809769 31.7806923,22.4905263 31.7806923,27.4199549 C31.7806923,30.4994824 30.2155714,33.2201088 27.8382418,34.8289219 C29.5757912,35.6216252 30.9622418,37.0650318 31.6691209,38.8712406 C32.5601319,38.4865923 33.5408681,38.2720318 34.5715385,38.2720318 C34.8922088,38.2720318 35.2058571,38.3001197 35.5156044,38.3399109 L35.5156044,35.8471088 C35.5156044,32.3080318 37.6846154,29.2682956 40.7625824,27.9817131 C37.8983956,26.1481967 35.9907582,22.9453945 35.9907582,19.2994274 C35.9907582,13.6147461 40.6159011,8.98960326 46.3005824,8.98960326 C51.9852637,8.98960326 56.6104066,13.6147461 56.6104066,19.2994274 C56.6104066,22.9446142 54.7035495,26.1466362 51.8401429,27.9809329 C54.9157692,29.2651747 57.0832198,32.3025703 57.0832198,35.8385263 L57.0832198,58.9400538 C57.0832198,59.1117022 57.1901099,59.1944055 57.2798352,59.2334164 C57.4054505,59.2872516 57.5162418,59.270867 57.6137692,59.1811417 C64.8471868,52.4275593 68.600044,42.8636252 67.9048681,32.9470318 C66.7868132,16.8401747 53.7914725,3.83079007 37.6768132,2.68620765 Z" id="Path"></path>
                <path d="M37.8617253,0.092757103 C27.942011,-0.611781359 18.4857473,2.71507578 11.2421868,9.46241644 C4.09771429,16.1176912 0,25.531823 0,35.2923725 C0,43.6063945 2.96795604,51.769834 8.35615385,58.1067791 C9.3166044,59.2365373 10.3028022,60.3514714 11.3982308,61.3532736 C12.2244835,62.1093066 13.5945495,63.5347681 14.8062308,63.5347681 C15.5248132,63.5347681 16.1068571,62.9527241 16.1068571,62.2341417 L16.1068571,41.5684604 C16.1068571,38.9157131 18.2649451,36.756845 20.9176923,36.756845 L24.7665165,36.756845 C26.994044,36.756845 28.8845165,38.2852956 29.418967,40.3879879 C28.0637253,41.7221637 27.2203077,43.5751857 27.2203077,45.6232626 C27.2203077,47.7517022 28.1355055,49.6663615 29.5867143,51.0099 L29.5867143,51.0848011 C27.9162637,52.2223615 26.9066593,54.0964494 26.9066593,56.1492077 L26.9066593,68.397878 C26.9066593,69.1164604 27.4887033,69.6985044 28.2072857,69.6985044 C28.9258681,69.6985044 29.5079121,69.1164604 29.5079121,68.397878 L29.5079121,68.3026912 L29.5079121,56.1507681 C29.5079121,54.8072296 30.260044,53.5947681 31.4756264,52.9846362 C31.793956,52.8231307 32.1294505,52.7240428 32.4727473,52.6663066 C33.1390549,52.8652626 33.8428132,52.9760538 34.5730989,52.9760538 C35.3049451,52.9760538 36.0102637,52.8652626 36.6773516,52.6655263 C38.3704286,52.9464055 39.6414066,54.4319439 39.6414066,56.1515483 L39.6414066,67.5669439 L39.6414066,68.919845 C39.6414066,69.6384274 40.2234505,70.2204714 40.942033,70.2204714 C41.6606154,70.2204714 42.2426593,69.6384274 42.2426593,68.919845 L42.2426593,56.1507681 C42.2426593,54.0629 41.1620549,52.1716472 39.507989,51.0567131 C40.9880659,49.710834 41.9243297,47.7774494 41.9243297,45.6240428 C41.9243297,42.855823 40.384956,40.441823 38.1184176,39.1880099 L38.1184176,35.8471088 C38.1184176,32.5826692 40.7742857,29.9260208 44.0387253,29.9260208 L48.5725824,29.9260208 C51.8323407,29.9260208 54.4843077,32.5779879 54.4843077,35.8385263 L54.4843077,58.9400538 C54.4843077,60.1174055 55.1568571,61.1426142 56.239022,61.6162077 C57.3157253,62.0874604 58.5188242,61.8861637 59.3848681,61.0864384 C67.1987692,53.7906033 71.2504505,43.4675153 70.5006593,32.7660208 C69.2920989,15.3749219 55.2606264,1.32862523 37.8617253,0.092757103 Z M22.8417143,33.7592406 C19.3471099,33.7592406 16.5032088,30.9153395 16.5032088,27.4207351 C16.5032088,23.9261307 19.3471099,21.0830099 22.8417143,21.0830099 C26.3363187,21.0830099 29.1794396,23.9261307 29.1794396,27.4207351 C29.1802198,30.9161197 26.3370989,33.7592406 22.8417143,33.7592406 Z M39.3222967,45.6240428 C39.3222967,48.2432406 37.1907363,50.3748011 34.5715385,50.3748011 C31.9515604,50.3748011 29.8207802,48.2432406 29.8207802,45.6240428 C29.8207802,43.0040648 31.9523407,40.8732846 34.5715385,40.8732846 C37.1907363,40.8732846 39.3222967,43.004845 39.3222967,45.6240428 Z M46.3005824,27.0095593 C42.0499451,27.0095593 38.5912308,23.550845 38.5912308,19.3002077 C38.5912308,15.0495703 42.0499451,11.590856 46.3005824,11.590856 C50.5512198,11.590856 54.0099341,15.0495703 54.0099341,19.3002077 C54.0099341,23.550845 50.552,27.0095593 46.3005824,27.0095593 Z M57.6137692,59.1819219 C57.5162418,59.2716472 57.4054505,59.2880318 57.2798352,59.2341967 C57.1901099,59.1951857 57.0832198,59.1124824 57.0832198,58.940834 L57.0832198,35.8393066 C57.0832198,32.3033505 54.9157692,29.2659549 51.8401429,27.9817131 C54.7035495,26.1481967 56.6104066,22.9461747 56.6104066,19.3002077 C56.6104066,13.6155263 51.9852637,8.99038348 46.3005824,8.99038348 C40.6159011,8.99038348 35.9907582,13.6147461 35.9907582,19.3002077 C35.9907582,22.9461747 37.8983956,26.1489769 40.7625824,27.9824934 C37.6846154,29.2682956 35.5156044,32.308812 35.5156044,35.847889 L35.5156044,38.3406912 C35.2058571,38.3009 34.8922088,38.272812 34.5715385,38.272812 C33.5408681,38.272812 32.5601319,38.4881527 31.6691209,38.8720208 C30.9622418,37.065812 29.5757912,35.6224055 27.8382418,34.8297022 C30.2147912,33.2216692 31.7806923,30.5002626 31.7806923,27.4207351 C31.7806923,22.4913066 27.7711429,18.4817571 22.8417143,18.4817571 C17.9130659,18.4817571 13.9027363,22.4913066 13.9027363,27.4207351 C13.9027363,30.5010428 15.4694176,33.2232296 17.8475275,34.8312626 C15.2907473,36.0015923 13.5063846,38.577878 13.5063846,41.5692406 L13.5063846,59.664878 C6.55306593,53.4590099 2.60125275,44.6799769 2.60125275,35.2923725 C2.60125275,26.2511857 6.39702198,17.529889 13.0156264,11.3653725 C19.7255165,5.11503183 28.4920659,2.03550436 37.6775934,2.68698787 C53.7922527,3.83157029 66.7875934,16.8409549 67.9056484,32.947812 C68.600044,42.8644055 64.8471868,52.4283395 57.6137692,59.1819219 Z" id="Shape" fill="#3394DD" fill-rule="nonzero"></path>
            </g>
        </g>
    </g>
</svg>