<svg width="88px" height="58px" viewBox="0 0 88 58" version="1.1" xmlns="http://www.w3.org/2000/svg" xmlns:xlink="http://www.w3.org/1999/xlink">
    <g id="Page-1" stroke="none" stroke-width="1" fill="none" fill-rule="evenodd" stroke-linecap="round" stroke-linejoin="round">
        <g id="Front-page" transform="translate(-796.000000, -2196.000000)" stroke="#3394DD" stroke-width="3.08999991">
            <path d="M809.30172,2245.09939 L802.748213,2230.04428 L809.30172,2245.09939 Z M860.612856,2235.82403 C860.612856,2235.82403 877.194854,2220.27495 880.034258,2224.98509 C880.034258,2224.98509 880.842707,2225.59134 882,2230.05755 C882,2230.05755 870.410509,2237.71932 865.749248,2242.63154 C853.476561,2255.56479 836.191699,2251.34046 836.191699,2251.34046 C828.567851,2251.46396 814.340809,2238.53377 804.190171,2248.09898 L798,2232.98978 C798,2232.98978 814.087199,2222.66421 818.979297,2221.92324 C823.869325,2221.17921 832.463104,2224.38293 840.022773,2228.60317 C847.584512,2232.8224 854.043821,2229.94733 859.160546,2234.23493 C864.278306,2238.52254 847.191157,2242.31617 843.692365,2241.60174 C840.192537,2240.88527 837.197861,2238.04694 833.95682,2238.34087 L860.612856,2235.82403 Z M824.217134,2238.16227 C826.901267,2238.00509 828.864938,2238.18676 828.864938,2238.18676 L824.217134,2238.16227 Z M850.108197,2204.8167 L850.109233,2202.38559 L850.108197,2204.8167 Z M850.108197,2220.27699 L850.108197,2217.84588 L850.108197,2220.27699 Z M846.544191,2216.91508 C846.544191,2216.91508 852.302706,2219.86772 853.529354,2215.25658 C854.85227,2210.28107 846.689111,2211.8222 846.544191,2207.75505 C846.368216,2202.79996 853.529354,2205.61278 853.529354,2205.61278 L846.544191,2216.91508 Z M850.26968,2198 C842.872529,2198 836.874895,2203.91345 836.874895,2211.20779 C836.874895,2218.50214 842.872529,2224.41559 850.26968,2224.41559 C857.666831,2224.41559 863.664465,2218.50214 863.664465,2211.20779 C863.664465,2203.91345 857.667866,2198 850.26968,2198 Z" id="Shape"></path>
        </g>
    </g>
</svg>