<svg width="86px" height="74px" viewBox="0 0 86 74" version="1.1" xmlns="http://www.w3.org/2000/svg" xmlns:xlink="http://www.w3.org/1999/xlink">
    <g id="Page-1" stroke="none" stroke-width="1" fill="none" fill-rule="evenodd">
        <g id="Front-page" transform="translate(-317.000000, -2188.000000)" fill="#3394DD" fill-rule="nonzero">
            <path d="M360.014526,2188 C354.837289,2188 350.611456,2192.23271 350.611456,2197.41834 C350.611456,2202.60398 354.837238,2206.83669 360.014526,2206.83669 C365.191817,2206.83669 369.417599,2202.60398 369.417599,2197.41834 C369.417599,2192.23271 365.191763,2188 360.014526,2188 Z M360.014526,2190.69107 C363.739871,2190.69107 366.731007,2193.68686 366.731007,2197.41834 C366.731007,2201.14956 363.739817,2204.14589 360.014526,2204.14589 C356.289237,2204.14589 353.298047,2201.14956 353.298047,2197.41834 C353.298047,2193.68686 356.289184,2190.69107 360.014526,2190.69107 Z M340.956516,2203.22069 C340.697495,2203.29068 340.460159,2203.43873 340.284869,2203.64116 L330.462017,2213.81646 L330.462017,2212.21883 C330.461947,2211.51409 329.822051,2210.87316 329.118722,2210.87316 L323.745539,2210.87316 C323.606756,2210.84624 323.464534,2210.84624 323.325757,2210.87316 C322.770914,2211.05621 322.373282,2211.63469 322.402243,2212.21883 L322.402243,2222.22562 L317.448839,2227.35553 C316.876316,2227.84114 316.846366,2228.83498 317.388586,2229.35452 C317.930816,2229.87405 318.920721,2229.80002 319.379816,2229.20646 L322.402232,2226.09519 L322.402232,2253.92975 L317.029047,2253.92975 L317.029047,2256.62082 L362.701109,2256.62082 L362.701109,2253.92975 L360.014515,2253.92975 L360.014515,2226.09519 L363.036931,2229.20646 C363.496029,2229.8011 364.485932,2229.87513 365.028162,2229.35452 C365.570392,2228.83498 365.540442,2227.84114 364.967908,2227.35553 L342.215835,2203.64116 C341.90641,2203.2966 341.410534,2203.13105 340.956494,2203.22069 L340.956516,2203.22069 Z M341.208388,2206.50047 L357.32794,2223.2348 L357.32794,2253.92867 L346.581574,2253.92867 L346.581574,2236.43739 C346.581504,2235.73292 345.941605,2235.09199 345.238278,2235.09199 L337.178501,2235.09199 C337.039719,2235.06507 336.897499,2235.06507 336.758722,2235.09199 C336.203877,2235.27503 335.806245,2235.85325 335.835206,2236.43739 L335.835206,2253.92867 L325.08884,2253.92867 L325.08884,2223.2348 L329.790373,2218.2734 C329.9993,2218.15496 330.175307,2217.9781 330.29411,2217.76894 L341.208388,2206.50047 Z M393.59693,2208.18236 C389.155049,2208.18236 385.537156,2211.80589 385.537156,2216.25503 L385.537156,2236.43739 C385.537156,2240.41733 388.463579,2243.68608 392.253634,2244.34209 L392.253634,2253.92867 L389.567043,2253.92867 L389.567043,2256.61974 L403,2256.61974 L403,2253.92867 L394.940226,2253.92867 L394.940226,2244.34209 C398.73028,2243.68608 401.656704,2240.41733 401.656704,2236.43739 L401.656704,2216.25503 C401.656704,2211.80589 398.038808,2208.18236 393.59693,2208.18236 L393.59693,2208.18236 Z M385.537156,2236.43739 C385.537156,2230.50503 380.71366,2225.58939 374.790787,2225.58939 C368.867911,2225.58939 364.044421,2230.50503 364.044421,2236.43739 C364.044421,2241.91401 368.155987,2246.45198 373.447491,2247.11714 L373.447491,2253.92867 L370.7609,2253.92867 L370.7609,2256.61974 L373.447491,2256.61974 L376.134083,2256.61974 L381.507266,2256.61974 L381.507266,2253.92867 L376.134083,2253.92867 L376.134083,2247.11714 C381.42559,2246.45198 385.537156,2241.91401 385.537156,2236.43739 Z M393.59693,2210.87316 C396.596911,2210.87316 398.970113,2213.25036 398.970113,2216.25503 L398.970113,2219.19833 C398.81921,2218.61204 398.231107,2218.1703 397.626817,2218.18941 C397.280342,2218.21633 396.941429,2218.35631 396.703301,2218.60962 L394.940226,2220.37576 L394.940226,2216.33929 L392.253634,2216.33929 L392.253634,2220.37576 L390.490559,2218.60962 C390.25242,2218.35658 389.913518,2218.20287 389.567043,2218.18941 C388.962753,2218.16249 388.374639,2218.61204 388.223747,2219.19833 L388.223747,2216.25503 C388.223747,2213.25036 390.596946,2210.87316 393.59693,2210.87316 Z M325.08884,2213.56423 L327.775431,2213.56423 L327.775431,2216.59151 L325.08884,2219.45056 L325.08884,2213.56423 Z M341.208388,2213.56423 C337.514917,2213.56423 334.49191,2216.59205 334.49191,2220.2915 C334.49191,2223.99122 337.514917,2227.01904 341.208388,2227.01904 C344.901865,2227.01904 347.92487,2223.99122 347.92487,2220.2915 C347.92487,2216.59205 344.901865,2213.56423 341.208388,2213.56423 Z M341.208388,2216.25503 C343.449973,2216.25503 345.238278,2218.04621 345.238278,2220.2915 C345.238278,2222.53707 343.449973,2224.32797 341.208388,2224.32797 C338.966807,2224.32797 337.178501,2222.53707 337.178501,2220.2915 C337.178501,2218.04621 338.966807,2216.25503 341.208388,2216.25503 Z M398.970113,2219.87103 L398.970113,2227.27127 C398.81921,2226.68498 398.231107,2226.24297 397.626817,2226.26209 C397.280342,2226.28901 396.941429,2226.42898 396.703301,2226.68256 L394.940226,2228.4487 L394.940226,2224.32797 C394.943719,2224.27144 394.943719,2224.21491 394.940226,2224.16108 L398.550333,2220.54508 C398.753078,2220.3701 398.90138,2220.1316 398.970113,2219.87211 L398.970113,2219.87103 Z M388.223747,2219.95448 C388.306898,2220.18329 388.45377,2220.38975 388.643526,2220.54319 L392.169677,2224.07494 C392.193595,2224.13147 392.22176,2224.18799 392.253634,2224.24183 L392.253634,2228.44655 L390.490559,2226.6804 C390.25242,2226.42737 389.913518,2226.27366 389.567043,2226.25993 C388.962753,2226.23301 388.374639,2226.68283 388.223747,2227.26912 L388.223747,2219.95448 Z M398.970113,2227.94316 L398.970113,2235.34341 C398.81921,2234.75712 398.231107,2234.31511 397.626817,2234.33422 C397.280342,2234.36114 396.941429,2234.50112 396.703301,2234.75469 L394.940226,2236.52057 L394.940226,2232.40011 C394.943719,2232.34358 394.943719,2232.28705 394.940226,2232.23321 L398.550333,2228.61721 C398.753078,2228.44224 398.90138,2228.20401 398.970113,2227.94451 L398.970113,2227.94316 Z M388.223747,2228.02661 C388.306898,2228.25542 388.45377,2228.46189 388.643526,2228.61506 L392.169677,2232.14707 C392.193595,2232.2036 392.22176,2232.26013 392.253634,2232.31397 L392.253634,2236.51841 L390.490559,2234.75254 C390.25242,2234.4995 389.913518,2234.3458 389.567043,2234.33207 C388.962753,2234.30515 388.374639,2234.75496 388.223747,2235.34125 L388.223747,2228.02661 Z M374.790787,2228.27965 C379.261752,2228.27965 382.850561,2231.95837 382.850561,2236.43658 C382.850561,2240.44263 379.940047,2243.69011 376.134083,2244.34128 L376.134083,2243.66858 L379.744191,2240.05258 C380.636295,2239.29778 379.804202,2237.50256 378.652762,2237.69799 C378.364138,2237.74914 378.094125,2237.89988 377.897158,2238.11846 L376.134083,2239.88434 L376.134083,2235.09118 L373.447491,2235.09118 L373.447491,2237.19354 L370.34112,2234.08199 C370.102981,2233.82896 369.764079,2233.67525 369.417604,2233.66152 C368.322951,2233.63191 367.672632,2235.29092 368.494088,2236.01611 L373.447491,2240.97751 L373.447491,2242.74365 L373.447491,2243.75257 L373.447491,2244.34128 C369.641527,2243.69011 366.731013,2240.44263 366.731013,2236.43658 C366.731013,2231.95837 370.319819,2228.27965 374.790787,2228.27965 L374.790787,2228.27965 Z M398.970113,2236.01611 L398.970113,2236.43658 C398.970113,2238.97179 397.270221,2241.05961 394.940226,2241.65048 L394.940226,2240.47305 C394.943719,2240.41652 394.943719,2240.35999 394.940226,2240.30615 L398.550333,2236.69015 C398.753078,2236.51518 398.90138,2236.27695 398.970113,2236.01745 L398.970113,2236.01611 Z M388.223747,2236.09956 C388.306898,2236.32837 388.45377,2236.53483 388.643526,2236.688 L392.169677,2240.22001 C392.193595,2240.27924 392.22176,2240.33307 392.253634,2240.38691 L392.253634,2241.64832 C389.923639,2241.05746 388.223747,2238.96964 388.223747,2236.43443 L388.223747,2236.09956 Z M338.521797,2237.78117 L343.894983,2237.78117 L343.894983,2253.92706 L338.521797,2253.92706 L338.521797,2237.78117 Z M365.387717,2253.92706 L365.387717,2256.61813 L368.074308,2256.61813 L368.074308,2253.92706 L365.387717,2253.92706 Z M384.19386,2253.92706 L384.19386,2256.61813 L386.880451,2256.61813 L386.880451,2253.92706 L384.19386,2253.92706 Z M346.581574,2259.30893 L346.581574,2262 L349.268166,2262 L349.268166,2259.30893 L346.581574,2259.30893 Z M351.954757,2259.30893 L351.954757,2262 L354.641348,2262 L354.641348,2259.30893 L351.954757,2259.30893 Z M357.32794,2259.30893 L357.32794,2262 L378.820674,2262 L378.820674,2259.30893 L357.32794,2259.30893 Z" id="Shape"></path>
        </g>
    </g>
</svg>