
<svg width="163px" height="43px" viewBox="0 0 163 43" version="1.1" xmlns="http://www.w3.org/2000/svg" xmlns:xlink="http://www.w3.org/1999/xlink">
    <g id="Symbols" stroke="none" stroke-width="1" fill="none" fill-rule="evenodd">
        <g id="Footer" transform="translate(-639.000000, -44.000000)" fill="#6D7278">
            <path d="M783.444124,72.5916433 C783.465121,72.590587 783.488131,72.5900935 783.513148,72.5900625 C783.551596,72.5893368 783.588523,72.5889254 783.62319,72.5889254 C783.649683,72.5889254 783.67402,72.5897766 783.695935,72.5917549 C784.061709,72.5978255 784.542397,72.6181336 784.782234,72.6181336 C785.025923,72.6181336 785.600651,72.5900609 785.970299,72.5900609 C786.09784,72.5900609 786.175378,72.6077246 786.175378,72.6670241 C786.175378,72.7439873 786.117462,72.7648053 786.019353,72.7648053 C785.922827,72.7648053 785.84434,72.7736371 785.726926,72.7928779 C785.464248,72.8417685 785.38671,73.0073655 785.367405,73.3464451 C785.346517,73.6571367 785.346517,73.9296622 785.346517,75.4052106 L785.346517,77.1144875 C785.346517,78.056025 785.346517,78.8240798 785.38671,79.2413844 C785.414877,79.5050779 785.483237,79.6779297 785.77598,79.7164113 C785.9127,79.7372292 786.126324,79.7552083 786.27317,79.7552083 C786.38014,79.7552083 786.429195,79.7845427 786.429195,79.8334332 C786.429195,79.9015646 786.350391,79.9312143 786.243421,79.9312143 C785.600651,79.9312143 784.987313,79.9015646 784.724635,79.9015646 C784.50025,79.9015646 783.88533,79.9312143 783.496377,79.9312143 C783.368519,79.9312143 783.302058,79.9015646 783.302058,79.8334332 C783.302058,79.7845427 783.340669,79.7552083 783.457766,79.7552083 C783.603347,79.7552083 783.720761,79.7372292 783.808109,79.7164113 C784.002744,79.6779297 784.06066,79.5123327 784.090409,79.2309754 C784.139464,78.8240798 784.139464,78.056025 784.139464,77.1144875 L784.139464,75.4052106 C784.139464,73.9296622 784.139464,73.6571367 784.119842,73.3464451 C784.100853,73.0161973 784.002744,72.8506003 783.78912,72.8029714 C783.717318,72.7835681 783.637761,72.7731351 783.558144,72.7682948 C783.453599,72.7754736 783.316801,72.79956 783.193727,72.8803762 C783.067768,72.9677484 782.920605,73.1333454 782.65761,73.7553594 C782.277518,74.6685088 782.014523,75.1908492 781.48885,76.3866176 C780.865385,77.8047591 780.406173,78.863003 780.192549,79.3484389 C779.938732,79.9124151 779.8805,80.0660261 779.744097,80.0660261 C779.617822,80.0660261 779.55864,79.9300788 779.374449,79.4742927 L776.917933,73.5405564 C776.693865,73.0078071 776.528979,72.899617 776.177054,72.803413 C776.031473,72.7652468 775.875449,72.7652468 775.798227,72.7652468 C775.710879,72.7652468 775.68113,72.7352817 775.68113,72.6762976 C775.68113,72.5977573 775.7881,72.5889254 775.933681,72.5889254 C776.451758,72.5889254 777.005598,72.6185752 777.347079,72.6185752 C777.590769,72.6185752 778.058526,72.5889254 778.545905,72.5889254 C778.663002,72.5889254 778.769973,72.6081662 778.769973,72.6762976 C778.769973,72.7444289 778.712057,72.7652468 778.622809,72.7652468 C778.467101,72.7652468 778.321521,72.7725016 778.243983,72.8314857 C778.17594,72.8803762 778.146191,72.9485076 778.146191,73.0358797 C778.146191,73.1617335 778.233539,73.4339435 778.370575,73.7834321 L780.045386,78.1924139 L780.085579,78.1924139 C780.504282,77.123761 781.77115,73.9979197 782.004079,73.3569803 C782.05345,73.2298648 782.092061,73.0831932 782.092061,72.9973981 C782.092061,72.9188578 782.05345,72.8406329 781.965469,72.8122449 C781.848371,72.7725016 781.702791,72.7652468 781.576515,72.7652468 C781.48885,72.7652468 781.410047,72.7545225 781.410047,72.6863911 C781.410047,72.6081662 781.498028,72.5889254 781.68222,72.5889254 C782.170548,72.5889254 782.580389,72.6185752 782.705082,72.6185752 C782.840451,72.6185752 783.168143,72.598969 783.444124,72.5916433 Z M750.758725,79.7516579 C750.849585,79.7447418 750.926153,79.7308427 750.987763,79.716159 C751.182715,79.6776774 751.231453,79.4644515 751.270063,79.1834096 C751.319118,78.7761986 751.319118,78.0081438 751.319118,77.1158123 L751.319118,75.4046429 C751.319118,73.9290944 751.319118,73.6581461 751.299812,73.3474545 C751.280507,73.015945 751.203286,72.8620186 750.88111,72.7938873 C750.803572,72.7730693 750.63742,72.7642375 750.500701,72.7642375 C750.394047,72.7642375 750.336131,72.7434196 750.336131,72.6768653 C750.336131,72.6090494 750.402909,72.5894932 750.550072,72.5894932 C751.065301,72.5894932 751.679905,72.6191429 751.951761,72.6191429 C752.254632,72.6191429 752.86797,72.5894932 753.453141,72.5894932 C754.670955,72.5894932 756.298611,72.5894932 757.360084,73.6966277 C757.847146,74.2013044 758.304776,75.0078408 758.304776,76.1626042 C758.304776,77.3864452 757.789547,78.3191508 757.242986,78.8724026 C756.7958,79.3297659 755.781799,80.0195958 753.978814,80.0195958 C753.628154,80.0195958 753.229073,79.988369 752.859425,79.9587192 C752.487877,79.9306466 752.147978,79.9013122 751.904289,79.9013122 C751.795736,79.9013122 751.581796,79.9013122 751.348867,79.9114058 C751.124483,79.9114058 750.870666,79.9306466 750.676031,79.9306466 C750.669183,79.9306466 750.662506,79.9305599 750.656001,79.9303852 C750.631507,79.9306283 750.605498,79.9307412 750.57789,79.9307412 C750.227231,79.9307412 749.515784,79.9307412 748.736294,79.9115004 C748.561281,79.9010914 748.443551,79.9010914 748.443551,79.8342218 C748.443551,79.7752377 748.482478,79.7559969 748.58027,79.747165 C748.64863,79.7263471 748.716989,79.6405521 748.667935,79.5235302 L747.888445,77.5224871 C747.868823,77.4735965 747.839074,77.4543557 747.791919,77.4543557 L745.617703,77.4543557 C745.568965,77.4543557 745.549343,77.4735965 745.530038,77.532896 L745.004365,78.8620883 C744.906573,79.1046485 744.857202,79.3386923 744.857202,79.4553988 C744.857202,79.6301431 744.945183,79.7559969 745.248054,79.7559969 L745.393635,79.7559969 C745.510733,79.7559969 745.540482,79.7752377 745.540482,79.8342218 C745.540482,79.9115004 745.480983,79.9307412 745.374013,79.9307412 C745.062281,79.9307412 744.643578,79.9010914 744.342289,79.9010914 C744.233737,79.9010914 743.698886,79.9307412 743.191252,79.9307412 C743.064977,79.9307412 743.007061,79.9115004 743.007061,79.8342218 C743.007061,79.7752377 743.045672,79.7559969 743.122893,79.7559969 C743.211823,79.7559969 743.34696,79.747165 743.425764,79.7367561 C743.874216,79.6774566 744.058407,79.3475242 744.254308,78.8620883 L746.70038,72.8412953 C746.816212,72.5599381 746.875393,72.4533251 746.97192,72.4533251 C747.059585,72.4533251 747.119083,72.5406973 747.215609,72.7640167 C747.450121,73.2983431 749.008151,77.1837229 749.631616,78.6592713 C750.002847,79.532362 750.285147,79.6686247 750.489909,79.7159382 C750.582477,79.7355804 750.674419,79.7463618 750.758725,79.7516579 Z M727.351267,79.930219 C727.322475,79.9305773 727.291503,79.9307412 727.258204,79.9307412 C726.907545,79.9307412 726.196415,79.9307412 725.416608,79.9115004 C725.241595,79.9010914 725.124181,79.9010914 725.124181,79.8342218 C725.124181,79.7752377 725.164057,79.7559969 725.2609,79.747165 C725.32926,79.7263471 725.39762,79.6405521 725.348249,79.5235302 L724.568759,77.5224871 C724.549454,77.4735965 724.521287,77.4543557 724.472233,77.4543557 L722.299915,77.4543557 C722.250545,77.4543557 722.231556,77.4735965 722.211934,77.532896 L721.686261,78.8620883 C721.588469,79.1046485 721.539098,79.3386923 721.539098,79.4553988 C721.539098,79.6301431 721.627079,79.7559969 721.929951,79.7559969 L722.075531,79.7559969 C722.191363,79.7559969 722.221112,79.7752377 722.221112,79.8342218 C722.221112,79.9115004 722.163196,79.9307412 722.056226,79.9307412 C721.744493,79.9307412 721.325791,79.9010914 721.022603,79.9010914 C720.915633,79.9010914 720.379516,79.9307412 719.873148,79.9307412 C719.775427,79.9307412 719.717886,79.9192181 719.696861,79.8781907 C719.288941,80.0089366 718.614746,80.0667831 718.039971,80.0667831 C716.706325,80.0667831 715.585037,79.776594 714.698577,79.0085392 C713.743758,78.1739301 713.491207,77.0860364 713.491207,76.1432372 C713.491207,75.483057 713.694704,74.3374409 714.630218,73.4832756 C715.332486,72.8410745 716.257873,72.4534197 717.710199,72.4534197 C718.314675,72.4534197 718.67388,72.493163 719.122332,72.5508854 C719.493879,72.5981989 719.804029,72.6871481 720.096457,72.7152208 C720.205009,72.7256297 720.242037,72.7729432 720.242037,72.8322427 C720.242037,72.9104676 720.213871,73.0262278 720.194882,73.364992 C720.17526,73.6860926 720.184122,74.2219961 720.165133,74.4144041 C720.154689,74.5607604 720.135067,74.638039 720.047719,74.638039 C719.970498,74.638039 719.951192,74.5607604 719.951192,74.4248131 C719.940749,74.1229533 719.81479,73.7838737 719.5711,73.5321662 C719.248607,73.1902477 718.488423,72.9300238 717.593102,72.9300238 C716.744936,72.9300238 716.189514,73.1429343 715.760367,73.5321662 C715.048921,74.1819374 714.864729,75.1042341 714.864729,76.0470332 C714.864729,78.3587679 716.627522,79.504384 717.934267,79.504384 C718.800155,79.504384 719.327094,79.4066029 719.716364,78.9596486 C719.882833,78.7760725 720.009108,78.4934535 720.047719,78.3187092 C720.077468,78.1635211 720.096457,78.1234624 720.17526,78.1234624 C720.242037,78.1234624 720.263241,78.1915938 720.263241,78.2698186 C720.263241,78.3868406 720.145511,79.2305969 720.047719,79.5621064 C720.020894,79.6519709 719.997192,79.7076913 719.954257,79.7506208 C720.011071,79.7470858 720.06713,79.7421312 720.10766,79.7367561 C720.554846,79.6774566 720.740303,79.3475242 720.934938,78.8620883 L723.38101,72.8412953 C723.498108,72.5599381 723.556024,72.4533251 723.654132,72.4533251 C723.741481,72.4533251 723.799713,72.5406973 723.897822,72.7640167 C724.132333,73.2983431 725.690047,77.1837229 726.313512,78.6592713 C726.683477,79.532362 726.967043,79.6686247 727.170539,79.7159382 C727.261067,79.7351889 727.351115,79.7459285 727.434378,79.7513346 C727.527324,79.7446421 727.605446,79.7308264 727.668394,79.7170106 C727.863029,79.6772673 727.912083,79.4653031 727.950694,79.1826842 C727.999432,78.7757886 727.999432,78.0089954 727.999432,77.1150868 L727.999432,75.4054945 C727.999432,73.929946 727.999432,73.657736 727.980443,73.346729 C727.960821,73.0152195 727.883916,72.8612931 727.56174,72.7931618 C727.484202,72.7726593 727.365522,72.7650891 727.239247,72.7650891 C727.132277,72.7650891 727.074361,72.7445866 727.074361,72.6764553 C727.074361,72.6083239 727.142721,72.5890831 727.288301,72.5890831 C727.745931,72.5890831 728.360535,72.6187329 728.623213,72.6187329 C728.856459,72.6187329 729.567589,72.5890831 729.947998,72.5890831 C730.084717,72.5890831 730.15276,72.6083239 730.15276,72.6764553 C730.15276,72.7445866 730.094844,72.7650891 729.977747,72.7650891 C729.870776,72.7650891 729.714752,72.7726593 729.597338,72.7931618 C729.33466,72.8407906 729.255856,73.0079648 729.236867,73.346729 C729.217246,73.657736 729.217246,73.929946 729.217246,75.4054945 L729.217246,77.1150868 C729.217246,78.3581686 729.217246,79.0271807 729.422008,79.201925 C729.588793,79.3485966 729.841344,79.4164126 730.601528,79.4164126 C731.11834,79.4164126 731.498432,79.406319 731.742121,79.1442026 C731.857953,79.0183488 731.975051,78.7461388 731.994356,78.5625627 C732.0048,78.4739288 732.024105,78.4162064 732.101326,78.4162064 C732.169686,78.4162064 732.179813,78.4647816 732.179813,78.5805418 C732.179813,78.6868393 732.11177,79.4164126 732.032966,79.6977698 C731.975051,79.9125728 731.926313,79.9598863 731.419629,79.9598863 C730.718626,79.9598863 730.210992,79.9406455 729.772668,79.9302365 C729.33466,79.9125728 728.984317,79.9018485 728.584603,79.9018485 C728.476367,79.9018485 728.262426,79.9018485 728.029181,79.9125728 C727.805113,79.9125728 727.55098,79.9302365 727.356661,79.9302365 C727.354851,79.9302365 727.353053,79.9302307 727.351267,79.930219 Z M699.222426,79.9111727 C699.155567,79.9258672 699.043167,79.9307412 698.861581,79.9307412 C698.510921,79.9307412 697.799791,79.9307412 697.019985,79.9115004 C696.844655,79.9010914 696.727241,79.9010914 696.727241,79.8342218 C696.727241,79.7752377 696.766168,79.7559969 696.863961,79.747165 C696.93232,79.7263471 697.00068,79.6405521 696.951626,79.5235302 L696.172136,77.5224871 C696.152831,77.4735965 696.123082,77.4543557 696.07561,77.4543557 L693.901393,77.4543557 C693.852339,77.4543557 693.833034,77.4735965 693.813729,77.532896 L693.288056,78.8620883 C693.189947,79.1046485 693.140893,79.3386923 693.140893,79.4553988 C693.140893,79.6301431 693.228557,79.7559969 693.531745,79.7559969 L693.677326,79.7559969 C693.794423,79.7559969 693.824172,79.7752377 693.824172,79.8342218 C693.824172,79.9115004 693.764674,79.9307412 693.65802,79.9307412 C693.345971,79.9307412 692.927269,79.9010914 692.62598,79.9010914 C692.558391,79.9010914 692.325659,79.912586 692.037025,79.9212612 C692.009724,79.9280016 691.977564,79.9312143 691.942352,79.9312143 C691.848355,79.9312143 691.754993,79.9305809 691.663269,79.9294992 C691.600656,79.9302901 691.537597,79.9307412 691.474943,79.9307412 C691.438015,79.9307412 691.406933,79.9290957 691.381436,79.9248343 C690.963484,79.91612 690.607295,79.9015646 690.423249,79.9015646 C690.198865,79.9015646 689.584261,79.9312143 689.194991,79.9312143 C689.06745,79.9312143 689.000672,79.9015646 689.000672,79.8334332 C689.000672,79.7845427 689.039283,79.7552083 689.15638,79.7552083 C689.301961,79.7552083 689.419375,79.7372292 689.50704,79.7164113 C689.701359,79.6779297 689.759274,79.5123327 689.789024,79.2309754 C689.838078,78.8240798 689.838078,78.056025 689.838078,77.1144875 L689.838078,75.4052106 C689.838078,73.9296622 689.838078,73.6571367 689.818773,73.3464451 C689.799467,73.0161973 689.701359,72.8506003 689.487735,72.8029714 C689.379182,72.7736371 689.252907,72.7648053 689.135809,72.7648053 C689.039283,72.7648053 688.979785,72.7439873 688.979785,72.6670241 C688.979785,72.6077246 689.058588,72.5900609 689.214296,72.5900609 C689.584261,72.5900609 690.198865,72.6181336 690.481165,72.6181336 C690.724538,72.6181336 691.299265,72.5900609 691.66923,72.5900609 C691.796771,72.5900609 691.873992,72.6077246 691.873992,72.6670241 C691.873992,72.7439873 691.816077,72.7648053 691.717968,72.7648053 C691.621758,72.7648053 691.542954,72.7736371 691.42554,72.7928779 C691.162862,72.8417685 691.085325,73.0073655 691.066019,73.3464451 C691.045448,73.6571367 691.045448,73.9296622 691.045448,75.4052106 L691.045448,77.1144875 C691.045448,78.056025 691.045448,78.8240798 691.085325,79.2413844 C691.113808,79.5050779 691.182168,79.6779297 691.474595,79.7164113 C691.532815,79.7252764 691.604981,79.7336267 691.680023,79.740293 C691.690478,79.7391426 691.700341,79.7379599 691.709454,79.7367561 C692.157906,79.6774566 692.342098,79.3475242 692.538315,78.8620883 L694.984071,72.8412953 C695.099902,72.5599381 695.159084,72.4533251 695.255927,72.4533251 C695.343275,72.4533251 695.402774,72.5406973 695.4993,72.7640167 C695.733811,73.2983431 697.291841,77.1837229 697.915307,78.6592713 C698.286854,79.532362 698.568837,79.6686247 698.773916,79.7159382 C698.794069,79.7202236 698.814198,79.7240873 698.834229,79.7275643 C698.794177,79.6783821 698.784012,79.6095237 698.784012,79.4834715 C698.784012,78.9507221 698.822622,78.365928 698.83275,78.2120016 C698.843194,78.0656454 698.87136,77.9590324 698.950164,77.9590324 C699.037829,77.9590324 699.04669,78.0476663 699.04669,78.1233678 C699.04669,78.2507986 699.086883,78.4548773 699.134355,78.6188972 C699.349561,79.3383769 699.924289,79.6004934 700.528765,79.6004934 C701.404781,79.6004934 701.834244,79.0084445 701.834244,78.4933589 C701.834244,78.0183319 701.688663,77.5698005 700.879425,76.9408472 L700.430656,76.5897815 C699.358423,75.7551724 698.988774,75.0757514 698.988774,74.2900329 C698.988774,73.2198028 699.885678,72.4533251 701.240211,72.4533251 C701.872538,72.4533251 702.281113,72.5507908 702.53493,72.6189221 C702.622595,72.6365858 702.67165,72.6678127 702.67165,72.7359441 C702.67165,72.8617978 702.633039,73.1428396 702.633039,73.900801 C702.633039,74.1137114 702.60329,74.1906746 702.526069,74.1906746 C702.457709,74.1906746 702.428277,74.1329522 702.428277,74.0162457 C702.428277,73.9288736 702.378906,73.6282755 702.175726,73.3753063 C702.028879,73.1901531 701.746579,72.9002794 701.112354,72.9002794 C700.392046,72.9002794 699.954038,73.3175839 699.954038,73.900801 C699.954038,74.3477553 700.176839,74.6865195 700.986078,75.2978091 L701.259517,75.5022032 C702.437138,76.3872799 702.857423,77.0559766 702.857423,77.9798503 C702.857423,78.5422494 702.643483,79.2125232 701.941214,79.6686247 C701.454152,79.9793163 700.908857,80.0666885 700.392046,80.0666885 C699.938958,80.0666885 699.567528,80.0229594 699.222426,79.9111727 Z M646.265653,79.7196702 C646.270428,79.7185932 646.275121,79.7175062 646.279731,79.7164113 C646.47405,79.6779297 646.523104,79.4650192 646.561715,79.183662 C646.610769,78.7751893 646.610769,78.0083961 646.610769,77.1144875 L646.610769,75.4052106 C646.610769,73.9296622 646.610769,73.6571367 646.591464,73.3464451 C646.572159,73.0161973 646.493355,72.8610093 646.172761,72.7928779 C646.093958,72.7736371 645.929072,72.7648053 645.792669,72.7648053 C645.684116,72.7648053 645.6262,72.7439873 645.6262,72.675856 C645.6262,72.6077246 645.69456,72.5900609 645.840141,72.5900609 C646.104401,72.5900609 646.386701,72.5988928 646.630074,72.5988928 C646.883891,72.6077246 647.106693,72.6181336 647.243412,72.6181336 C647.555145,72.6181336 649.494849,72.6181336 649.680306,72.6077246 C649.864498,72.5900609 650.020522,72.569243 650.099009,72.5500022 C650.148064,72.5399087 650.205979,72.5115206 650.255034,72.5115206 C650.304088,72.5115206 650.31295,72.5500022 650.31295,72.5988928 C650.31295,72.6670241 650.263895,72.7837306 650.235729,73.2294232 C650.225285,73.3272043 650.205979,73.7549178 650.186674,73.8719398 C650.176547,73.9192532 650.157242,73.9785527 650.088882,73.9785527 C650.020522,73.9785527 650.001217,73.9296622 650.001217,73.8407129 C650.001217,73.7725815 649.992356,73.6082462 649.943301,73.4931168 C649.874942,73.3183725 649.776833,73.2013506 649.28977,73.1436282 C649.124884,73.1228103 648.101705,73.1035695 647.907387,73.1035695 C647.858332,73.1035695 647.839027,73.1332192 647.839027,73.2013506 L647.839027,75.6581798 C647.839027,75.7263112 647.847889,75.7647928 647.907387,75.7647928 C648.121011,75.7647928 649.240716,75.7647928 649.4651,75.7439749 C649.699612,75.7263112 649.845192,75.6966614 649.932857,75.6004574 C650.001217,75.5222325 650.041093,75.473342 650.088882,75.473342 C650.128758,75.473342 650.157242,75.4938445 650.157242,75.5515669 C650.157242,75.6092893 650.118315,75.7647928 650.078438,76.2593759 C650.069577,76.4546227 650.041093,76.8438546 650.041093,76.9116706 C650.041093,76.9873721 650.041093,77.0952467 649.952163,77.0952467 C649.885385,77.0952467 649.864498,77.0555034 649.864498,77.00819 C649.855636,76.9116706 649.855636,76.7845551 649.825887,76.6587014 C649.776833,76.4647163 649.641696,76.31836 649.280909,76.2798784 C649.095452,76.2593759 648.129872,76.2502287 647.896626,76.2502287 C647.847889,76.2502287 647.839027,76.2902874 647.839027,76.3480098 L647.839027,77.1144875 C647.839027,77.4447353 647.828583,78.3370668 647.839027,78.6196858 C647.858332,79.2902749 648.014357,79.4353695 649.007787,79.4353695 C649.261604,79.4353695 649.670179,79.4353695 649.923996,79.3199247 C650.176547,79.2016411 650.293644,78.9988241 650.362004,78.600445 C650.381309,78.493832 650.400614,78.4553504 650.468974,78.4553504 C650.547461,78.4553504 650.547461,78.532629 650.547461,78.6304101 C650.547461,78.8521525 650.468974,79.5123327 650.41992,79.7078949 C650.353143,79.959287 650.263895,79.959287 649.894247,79.959287 C649.163495,79.959287 648.627378,79.9400462 648.208676,79.9312143 C647.789973,79.9119735 647.487102,79.9015646 647.19594,79.9015646 C647.087388,79.9015646 646.873764,79.9015646 646.640518,79.9119735 C646.639482,79.9119735 646.638446,79.9119739 646.637409,79.9119748 C646.605735,79.9258161 646.559981,79.9304573 646.50247,79.9304573 L646.039761,79.9304573 C646.014992,79.9309402 645.990915,79.9312143 645.967682,79.9312143 C645.955969,79.9312143 645.944769,79.9309643 645.934086,79.9304573 L645.577399,79.9304573 C645.032105,79.9304573 644.787149,79.8831439 644.534915,79.7468812 C644.115896,79.5235617 643.746247,79.0661985 643.199687,78.3186461 C642.810733,77.7843197 642.361965,77.1241395 642.236006,76.9793603 C642.186951,76.9200608 642.127453,76.911229 642.060676,76.911229 L641.212827,76.8904111 C641.163772,76.8904111 641.134023,76.911229 641.134023,76.9689514 L641.134023,77.1048987 C641.134023,78.0079545 641.134023,78.7760094 641.183078,79.182905 C641.212827,79.4655239 641.270742,79.6771727 641.56317,79.7172314 C641.70875,79.7364722 641.924273,79.755713 642.039788,79.755713 C642.118592,79.755713 642.157202,79.7837856 642.157202,79.8342533 C642.157202,79.9023847 642.088843,79.9304573 641.962567,79.9304573 C641.397018,79.9304573 640.67671,79.9023847 640.529547,79.9023847 C640.345356,79.9023847 639.730752,79.9304573 639.341482,79.9304573 C639.215523,79.9304573 639.147163,79.9023847 639.147163,79.8342533 C639.147163,79.7837856 639.185774,79.755713 639.302871,79.755713 C639.448452,79.755713 639.565866,79.7364722 639.653531,79.7172314 C639.848166,79.6771727 639.896904,79.4655239 639.935514,79.182905 C639.984569,78.7760094 639.984569,78.0079545 639.984569,77.1153076 L639.984569,75.4044536 C639.984569,73.9289051 639.984569,73.6579568 639.965263,73.3469498 C639.945958,73.0154403 639.867471,72.8615139 639.546561,72.793698 C639.467757,72.7728801 639.302871,72.7640482 639.166468,72.7640482 C639.059498,72.7640482 639,72.7448074 639,72.6766761 C639,72.6085447 639.06836,72.5893039 639.215523,72.5893039 C639.730752,72.5893039 640.345356,72.6189537 640.548852,72.6189537 C640.881472,72.6189537 641.621086,72.5893039 641.924273,72.5893039 C642.537295,72.5893039 643.190825,72.6470263 643.716498,73.0066085 C643.98962,73.1901846 644.37889,73.6860295 644.37889,74.3373778 C644.37889,75.0552804 644.075703,75.7151452 643.092717,76.5115881 C643.960188,77.6007435 644.631125,78.4653178 645.207434,79.0661985 C645.715521,79.5917029 646.09707,79.6864957 646.265653,79.7196702 Z M646.731158,56.0963434 L652.613251,56.0963434 L649.726323,47.7903112 L649.644671,47.7903112 L646.731158,56.0963434 Z M647.917641,44.4600759 L651.506838,44.4600759 L658.926073,63.782254 L655.311558,63.782254 L653.504142,58.6673557 L645.813367,58.6673557 L644.005951,63.782254 L640.525306,63.782254 L647.917641,44.4600759 Z M673.767614,50.60401 C673.623616,50.0444497 673.426133,49.529364 673.173582,49.0603301 C672.921031,48.5925579 672.597272,48.1856623 672.202305,47.8421668 C671.805756,47.5002483 671.344012,47.235293 670.812326,47.0460393 C670.282222,46.854893 669.666036,46.7602661 668.965034,46.7602661 C667.939006,46.7602661 667.053812,46.967499 666.30692,47.3819647 C665.559711,47.7976921 664.952386,48.3528365 664.486212,49.046767 C664.018455,49.7425899 663.67096,50.5314627 663.446576,51.4165395 C663.220926,52.3000391 663.109525,53.2015178 663.109525,54.1222374 C663.109525,55.0426415 663.220926,55.9441203 663.446576,56.8276199 C663.67096,57.7126967 664.018455,58.5015694 664.486212,59.1973924 C664.952386,59.8897457 665.559711,60.4448901 666.30692,60.8621947 C667.053812,61.2766604 667.939006,61.4838933 668.965034,61.4838933 C669.719205,61.4838933 670.384762,61.3523619 670.960755,61.0902454 C671.537065,60.8297061 672.031723,60.4685468 672.445995,60.0083448 C672.858684,59.5478273 673.182443,59.0122391 673.417271,58.3981107 C673.6502,57.7852439 673.803377,57.1250637 673.87585,56.4235631 L677.166924,56.4235631 C677.095716,57.5780111 676.847596,58.6334162 676.425728,59.587886 C676.002595,60.54551 675.430716,61.3700256 674.71199,62.0655331 C673.991682,62.759779 673.146997,63.2956826 672.175721,63.6757672 C671.202862,64.0549056 670.133793,64.2441594 668.965034,64.2441594 C667.524418,64.2441594 666.23413,63.9779424 665.093536,63.4464548 C663.950095,62.9121283 662.983249,62.186971 662.191733,61.2662514 C661.400217,60.3458473 660.792893,59.2727785 660.371025,58.0457833 C659.947892,56.8187881 659.737116,55.5104137 659.737116,54.1222374 C659.737116,52.7517247 659.947892,51.4518668 660.371025,50.2236099 C660.792893,48.9981918 661.400217,47.9235459 662.191733,47.0028263 C662.983249,46.0824222 663.950095,45.352849 665.093536,44.8125295 C666.23413,44.2706329 667.524418,44 668.965034,44 C670.044546,44 671.060446,44.1495105 672.013683,44.4469543 C672.967237,44.7443981 673.807491,45.1765275 674.536977,45.7464968 C675.264564,46.3148889 675.854166,47.0028263 676.3042,47.8156712 C676.753918,48.6282007 677.033053,49.556175 677.140023,50.60401 L673.767614,50.60401 Z M704.696392,44.4595712 L709.445488,44.4595712 L714.760449,59.5888323 L714.813934,59.5888323 L719.995025,44.4595712 L724.689053,44.4595712 L724.689053,63.7833265 L721.478682,63.7833265 L721.478682,48.8701301 L721.425197,48.8701301 L716.082069,63.7833265 L713.303693,63.7833265 L707.960248,48.8701301 L707.908346,48.8701301 L707.908346,63.7833265 L704.696392,63.7833265 L704.696392,44.4595712 Z M732.110694,53.6074672 L737.048411,53.6074672 C737.425655,53.6074672 737.811761,53.5544761 738.20831,53.446286 C738.603276,53.3368343 738.966912,53.1605129 739.299848,52.9176372 C739.633735,52.6738153 739.904008,52.3479834 740.110353,51.9439266 C740.317014,51.537031 740.42082,51.027623 740.42082,50.4150716 C740.42082,49.7829641 740.330307,49.2590466 740.150546,48.8433192 C739.970786,48.4301151 739.727096,48.1001827 739.421693,47.8560454 C739.115657,47.6131697 738.764998,47.4459956 738.370031,47.3557846 C737.973482,47.2655736 737.550032,47.221099 737.101896,47.221099 L732.110694,47.221099 L732.110694,53.6074672 Z M728.738285,44.4592558 L737.237033,44.4592558 C738.603276,44.4592558 739.719817,44.6589185 740.582858,45.0557206 C741.445581,45.4525226 742.110822,45.948052 742.578579,46.5445168 C743.046336,47.1397199 743.365664,47.7894911 743.536563,48.4925689 C743.707462,49.1969083 743.793228,49.8451024 743.793228,50.4399901 C743.793228,51.0367702 743.707462,51.6805485 743.536563,52.376056 C743.365664,53.071879 743.046336,53.7156572 742.578579,54.312122 C742.110822,54.9070097 741.445581,55.3984386 740.582858,55.7860934 C739.719817,56.1740636 738.603276,56.3677333 737.237033,56.3677333 L732.110694,56.3677333 L732.110694,63.783011 L728.738285,63.783011 L728.738285,44.4592558 Z M748.70395,56.0963434 L754.58636,56.0963434 L751.699431,47.7903112 L751.61778,47.7903112 L748.70395,56.0963434 Z M749.890433,44.4600759 L753.479947,44.4600759 L760.898866,63.782254 L757.28435,63.782254 L755.477251,58.6673557 L747.786475,58.6673557 L745.979059,63.782254 L742.498098,63.782254 L749.890433,44.4600759 Z M762.600008,44.4595712 L766.161038,44.4595712 L774.958543,58.6949237 L775.012028,58.6949237 L775.012028,44.4595712 L778.222399,44.4595712 L778.222399,63.7833265 L774.661369,63.7833265 L765.892347,49.5747849 L765.810695,49.5747849 L765.810695,63.7833265 L762.600008,63.7833265 L762.600008,44.4595712 Z M786.182056,56.0963434 L792.064149,56.0963434 L789.17722,47.7903112 L789.095569,47.7903112 L786.182056,56.0963434 Z M787.368538,44.4600759 L790.958052,44.4600759 L798.376971,63.782254 L794.762456,63.782254 L792.955039,58.6673557 L785.264264,58.6673557 L783.457165,63.782254 L779.976204,63.782254 L787.368538,44.4600759 Z M769.809797,47.0048135 L768.210308,44.4401096 L773.290758,44.4401096 L773.290758,47.0048135 L769.809797,47.0048135 Z M695.858156,44.4638925 C697.718741,44.4638925 699.389438,45.1209185 700.564211,46.3141634 C701.619987,47.3900711 702.105467,48.918926 701.928871,50.6181094 C701.759555,52.2491614 700.97247,53.8076661 699.952455,54.5492254 C694.689396,49.3113122 693.247198,47.8177846 693.23264,47.8029597 L693.107947,47.6742671 L692.941479,47.9139886 C692.439542,48.6170663 690.626429,50.9095602 688.299353,50.9095602 C687.731905,50.9095602 687.164773,50.7748746 686.609351,50.5055034 C687.286618,49.8737113 690.058981,47.287874 691.808481,45.7826758 C692.766149,44.9565831 694.281138,44.4638925 695.858156,44.4638925 Z M685.719505,53.8487972 C685.967625,54.0677008 686.10561,54.359467 686.10561,54.6673198 C686.104028,54.9751725 685.967625,55.2650462 685.716657,55.4842652 L684.140904,56.8680256 C683.886771,57.0916604 683.546871,57.21436 683.184502,57.21436 C682.82055,57.21436 682.482233,57.0900833 682.225252,56.8664485 C681.977132,56.6459678 681.840729,56.354517 681.842311,56.0466643 C681.842311,55.7372344 681.978714,55.4486224 682.229682,55.2297189 L683.803853,53.8459584 C684.059252,53.6223236 684.397885,53.4996241 684.760255,53.4996241 C685.124206,53.4996241 685.464106,53.6239007 685.719505,53.8487972 Z M688.174723,56.0646118 C688.422844,56.2835153 688.560829,56.5768587 688.559246,56.8847115 C688.559246,57.1925642 688.421261,57.4824379 688.171875,57.7013414 L686.596122,59.0838401 C686.340723,59.307475 686.00209,59.4301745 685.63972,59.4301745 C685.276085,59.4301745 684.935869,59.307475 684.682053,59.082263 C684.43235,58.8617824 684.295947,58.5703316 684.295947,58.2624788 C684.295947,57.954626 684.433932,57.6644369 684.684901,57.4455334 L686.259071,56.061773 C686.514471,55.8397153 686.854686,55.7167003 687.215473,55.7167003 C687.579425,55.7167003 687.919324,55.8397153 688.174723,56.0646118 Z M690.589401,58.3062911 C690.838787,58.52551 690.975506,58.8169608 690.973924,59.1248136 C690.973924,59.4342435 690.837521,59.7244326 690.586236,59.9420744 L689.0108,61.3270965 C688.755401,61.5507314 688.416767,61.6721692 688.054398,61.6721692 C687.692028,61.6721692 687.352129,61.5491543 687.096414,61.3242577 C686.847027,61.1053542 686.710625,60.8120109 686.710625,60.5041581 C686.711891,60.1963053 686.84861,59.9064316 687.097996,59.6887898 L688.673749,58.3050294 C688.929148,58.0813945 689.269364,57.9583796 689.631417,57.9583796 C689.993786,57.9583796 690.334002,58.0829716 690.589401,58.3062911 Z M692.869226,60.6520914 C693.117346,60.8725721 693.255332,61.1643383 693.253749,61.4721911 C693.253749,61.7800439 693.117346,62.070233 692.866378,62.2891365 L691.290625,63.6728969 C691.035226,63.8949546 690.696593,64.0192313 690.334223,64.0192313 C689.971854,64.0192313 689.631955,63.8949546 689.374973,63.6700581 C689.126853,63.4511546 688.99045,63.1578112 688.99045,62.8499584 C688.99045,62.5421057 689.128435,62.252232 689.377821,62.0345902 L690.953574,60.6508297 C691.208973,60.4271949 691.547607,60.3041799 691.909976,60.3041799 C692.273611,60.3041799 692.613827,60.4271949 692.869226,60.6520914 Z M699.524859,55.0267127 C699.682466,55.180639 699.783107,55.4367625 699.780259,55.678061 C699.778993,55.8348262 699.735951,56.0597228 699.528024,56.2537079 C699.279904,56.4890134 699.006466,56.6031965 698.694733,56.6031965 C698.519403,56.6031965 698.323502,56.5707079 698.081395,56.4981606 L693.476298,51.8933012 C693.33673,51.7541997 693.064874,51.7381131 692.909166,51.8592355 C692.824349,51.9261052 692.772447,52.025148 692.763585,52.127345 C692.757572,52.2295421 692.796183,52.3317391 692.872138,52.4055481 L697.673136,57.2097548 C697.821565,57.7308335 697.54243,58.1096564 697.413306,58.2519122 C697.22595,58.4515749 696.796804,58.6055013 696.413863,58.6055013 C696.263852,58.6055013 696.133146,58.5802674 696.037885,58.5345311 L691.128651,53.8706876 C690.986235,53.7363174 690.715645,53.7271702 690.561203,53.8514468 C690.478285,53.9211553 690.42923,54.0145205 690.423217,54.120818 C690.418787,54.2245921 690.460245,54.3223732 690.539049,54.3993364 L695.588167,59.1947113 C695.634057,59.3234039 695.652096,59.4744915 695.637222,59.6240019 C695.616334,59.8340736 695.513795,60.2245672 695.065343,60.5002468 C694.756459,60.6910777 694.239647,60.74123 693.668085,60.6390329 C693.575989,60.4822677 693.455727,60.3403274 693.312994,60.2144737 C692.839224,59.7971691 692.156261,59.6148547 691.496717,59.7391313 C691.577103,59.5438845 691.620144,59.3338128 691.620144,59.1278416 C691.621726,58.6499759 691.413799,58.2045987 691.03339,57.8683579 C690.657729,57.5368484 690.160223,57.3532722 689.630119,57.3532722 C689.453523,57.3532722 689.282624,57.3740901 689.11489,57.4141488 C689.174072,57.2438205 689.205403,57.0646602 689.205403,56.8842383 C689.206986,56.4092114 688.997476,55.9622571 688.618966,55.6260162 C688.243305,55.2960838 687.744216,55.1125077 687.214112,55.1125077 C687.02549,55.1125077 686.842882,55.1349027 686.665969,55.180639 C686.721037,55.0147266 686.750786,54.8418748 686.750786,54.6687076 C686.752368,54.1921036 686.542859,53.7451493 686.162767,53.4092238 C685.788371,53.078976 685.290865,52.896977 684.760761,52.896977 C684.233506,52.896977 683.736,53.078976 683.36192,53.4060696 L681.881112,54.7071892 C681.163968,53.8233742 679.711643,51.9112803 679.563214,50.7347528 C679.325537,48.8475774 680.008501,47.4341672 681.850097,46.008771 C682.935622,45.1681688 684.318322,44.7032354 685.742481,44.7032354 C686.581469,44.7032354 687.359693,44.8659937 687.935686,45.1561828 C688.427496,45.4063132 689.190529,45.8665152 690.099459,46.4573024 C688.355971,48.0170688 686.385252,49.8597696 685.997881,50.2225059 C685.89091,50.3231259 685.840274,50.4622274 685.861161,50.6041677 C685.882049,50.7404304 685.97098,50.8634453 686.101686,50.9328384 C686.813132,51.3176544 687.552429,51.5129012 688.299638,51.5129012 C690.617536,51.5129012 692.410077,49.6200481 693.164565,48.6684171 C693.707961,49.2043207 695.466323,50.9656424 697.151894,52.6544168 L697.478501,52.9811949 C698.583332,54.0870677 699.382443,54.886034 699.524859,55.0267127 Z M641.134023,76.1725085 C641.134023,76.2791214 641.153328,76.3191801 641.221688,76.3472528 C641.42645,76.4153841 641.719194,76.4450339 641.962567,76.4450339 C642.351837,76.4450339 642.479379,76.4049752 642.654709,76.2791214 C642.947136,76.0658955 643.229436,75.6189412 643.229436,74.8228137 C643.229436,73.4434692 642.313227,73.0466672 641.7385,73.0466672 C641.49481,73.0466672 641.31948,73.055499 641.221688,73.0838871 C641.153328,73.1043896 641.134023,73.1428712 641.134023,73.2198344 L641.134023,76.1725085 Z M651.503072,79.814981 C651.347047,79.7468496 651.317615,79.6979591 651.317615,79.4834715 C651.317615,78.9507221 651.355909,78.365928 651.366353,78.2120016 C651.376796,78.0656454 651.404963,77.9590324 651.483767,77.9590324 C651.571431,77.9590324 651.580293,78.0476663 651.580293,78.1233678 C651.580293,78.2507986 651.620486,78.4548773 651.667958,78.6188972 C651.883164,79.3383769 652.457891,79.6004934 653.062368,79.6004934 C653.938384,79.6004934 654.36753,79.0084445 654.36753,78.4933589 C654.36753,78.0183319 654.222266,77.5698005 653.412711,76.9408472 L652.964259,76.5897815 C651.892025,75.7551724 651.522377,75.0757514 651.522377,74.2900329 C651.522377,73.2198028 652.419281,72.4533251 653.773498,72.4533251 C654.406141,72.4533251 654.814716,72.5507908 655.068533,72.6189221 C655.156198,72.6365858 655.205252,72.6678127 655.205252,72.7359441 C655.205252,72.8617978 655.166642,73.1428396 655.166642,73.900801 C655.166642,74.1137114 655.136893,74.1906746 655.059672,74.1906746 C654.991312,74.1906746 654.961563,74.1329522 654.961563,74.0162457 C654.961563,73.9288736 654.912508,73.6282755 654.709328,73.3753063 C654.562165,73.1901531 654.279865,72.9002794 653.645956,72.9002794 C652.925648,72.9002794 652.48764,73.3175839 652.48764,73.900801 C652.48764,74.3477553 652.710442,74.6865195 653.519681,75.2978091 L653.792803,75.5022032 C654.970741,76.3872799 655.391026,77.0559766 655.391026,77.9798503 C655.391026,78.5422494 655.177086,79.2125232 654.4745,79.6686247 C653.987438,79.9793163 653.44246,80.0666885 652.925648,80.0666885 C652.360099,80.0666885 651.921775,79.9985571 651.503072,79.814981 Z M656.979058,75.4052106 C656.979058,73.9296622 656.979058,73.6571367 656.959753,73.3464451 C656.940448,73.0161973 656.842339,72.8506003 656.628715,72.8029714 C656.520162,72.7736371 656.393887,72.7648053 656.27679,72.7648053 C656.180263,72.7648053 656.120765,72.7439873 656.120765,72.6670241 C656.120765,72.6077246 656.199568,72.5900609 656.355277,72.5900609 C656.725241,72.5900609 657.340162,72.6181336 657.622145,72.6181336 C657.865518,72.6181336 658.440245,72.5900609 658.81021,72.5900609 C658.937752,72.5900609 659.014973,72.6077246 659.014973,72.6670241 C659.014973,72.7439873 658.957057,72.7648053 658.858948,72.7648053 C658.762738,72.7648053 658.683935,72.7736371 658.566521,72.7928779 C658.303843,72.8417685 658.226621,73.0073655 658.207316,73.3464451 C658.186429,73.6571367 658.186429,73.9296622 658.186429,75.4052106 L658.186429,77.1144875 C658.186429,78.056025 658.186429,78.8240798 658.226621,79.2413844 C658.254788,79.5050779 658.323148,79.6779297 658.615575,79.7164113 C658.752294,79.7372292 658.965918,79.7552083 659.113081,79.7552083 C659.220051,79.7552083 659.269106,79.7845427 659.269106,79.8334332 C659.269106,79.9015646 659.190302,79.9312143 659.083332,79.9312143 C658.440245,79.9312143 657.827224,79.9015646 657.564229,79.9015646 C657.340162,79.9015646 656.725241,79.9312143 656.335971,79.9312143 C656.20843,79.9312143 656.141653,79.9015646 656.141653,79.8334332 C656.141653,79.7845427 656.180263,79.7552083 656.297361,79.7552083 C656.442941,79.7552083 656.560355,79.7372292 656.64802,79.7164113 C656.842339,79.6779297 656.900255,79.5123327 656.930004,79.2309754 C656.979058,78.8240798 656.979058,78.056025 656.979058,77.1144875 L656.979058,75.4052106 Z M661.87057,76.4732958 C661.87057,77.50189 661.881014,78.2510194 661.889875,78.4342802 C661.900319,78.6771558 661.919624,79.0663877 661.996845,79.1730007 C662.124703,79.3581539 662.504795,79.5622326 663.274158,79.5622326 C664.267588,79.5622326 664.931246,79.3669858 665.514834,78.8623091 C666.138616,78.3292443 666.333251,77.4441676 666.333251,76.443646 C666.333251,75.2109732 665.817706,74.4145303 665.397737,74.0164665 C664.502099,73.1623012 663.391255,73.0468564 662.631071,73.0468564 C662.436436,73.0468564 662.075332,73.0752445 661.996845,73.1137261 C661.90918,73.1522077 661.881014,73.2007828 661.881014,73.3073958 C661.87057,73.6376436 661.87057,74.4826616 661.87057,75.2507165 L661.87057,76.4732958 Z M660.652755,75.4046429 C660.652755,73.9290944 660.652755,73.6581461 660.63345,73.3474545 C660.614145,73.015945 660.53724,72.8620186 660.214747,72.7938873 C660.137526,72.7730693 659.971375,72.7642375 659.834655,72.7642375 C659.727685,72.7642375 659.669769,72.7434196 659.669769,72.6768653 C659.669769,72.6090494 659.736547,72.5894932 659.88371,72.5894932 C660.398939,72.5894932 661.013542,72.6191429 661.285399,72.6191429 C661.58827,72.6191429 662.201608,72.5894932 662.787095,72.5894932 C664.004593,72.5894932 665.632248,72.5894932 666.694038,73.6966277 C667.1811,74.2013044 667.638414,75.0078408 667.638414,76.1626042 C667.638414,77.3864452 667.123185,78.3191508 666.576624,78.8724026 C666.129755,79.3297659 665.115437,80.0195958 663.312452,80.0195958 C662.962108,80.0195958 662.562711,79.988369 662.193063,79.9587192 C661.821515,79.9306466 661.481616,79.9013122 661.237927,79.9013122 C661.129691,79.9013122 660.91575,79.9013122 660.682505,79.9114058 C660.458437,79.9114058 660.204304,79.9306466 660.009985,79.9306466 C659.88371,79.9306466 659.81535,79.9013122 659.81535,79.8344426 C659.81535,79.7842903 659.853961,79.7562177 659.971375,79.7562177 C660.116639,79.7562177 660.234053,79.7369769 660.321718,79.716159 C660.516353,79.6776774 660.565091,79.4644515 660.604018,79.1834096 C660.652755,78.7761986 660.652755,78.0081438 660.652755,77.1158123 L660.652755,75.4046429 Z M668.945633,75.4052106 C668.945633,73.9296622 668.945633,73.6571367 668.926328,73.3464451 C668.907023,73.0161973 668.828219,72.8610093 668.507625,72.7928779 C668.428822,72.7736371 668.263936,72.7648053 668.127533,72.7648053 C668.018981,72.7648053 667.961065,72.7439873 667.961065,72.675856 C667.961065,72.6077246 668.029108,72.5900609 668.174689,72.5900609 C668.439266,72.5900609 668.721566,72.5988928 668.964939,72.5988928 C669.218755,72.6077246 669.441557,72.6181336 669.578277,72.6181336 C669.890009,72.6181336 671.829397,72.6181336 672.015171,72.6077246 C672.199362,72.5900609 672.35507,72.569243 672.433874,72.5500022 C672.482928,72.5399087 672.540844,72.5115206 672.589898,72.5115206 C672.638952,72.5115206 672.647814,72.5500022 672.647814,72.5988928 C672.647814,72.6670241 672.59876,72.7837306 672.570593,73.2294232 C672.560149,73.3272043 672.540844,73.7549178 672.521538,73.8719398 C672.511095,73.9192532 672.491789,73.9785527 672.42343,73.9785527 C672.35507,73.9785527 672.335765,73.9296622 672.335765,73.8407129 C672.335765,73.7725815 672.326903,73.6082462 672.277849,73.4931168 C672.209489,73.3183725 672.111697,73.2013506 671.624635,73.1436282 C671.459749,73.1228103 670.43657,73.1035695 670.241935,73.1035695 C670.19288,73.1035695 670.173575,73.1332192 670.173575,73.2013506 L670.173575,75.6581798 C670.173575,75.7263112 670.182753,75.7647928 670.241935,75.7647928 C670.455875,75.7647928 671.57558,75.7647928 671.799965,75.7439749 C672.034476,75.7263112 672.180057,75.6966614 672.267722,75.6004574 C672.335765,75.5222325 672.375958,75.473342 672.42343,75.473342 C672.463623,75.473342 672.491789,75.4938445 672.491789,75.5515669 C672.491789,75.6092893 672.453179,75.7647928 672.413302,76.2593759 C672.404124,76.4546227 672.375958,76.8438546 672.375958,76.9116706 C672.375958,76.9873721 672.375958,77.0952467 672.287027,77.0952467 C672.219933,77.0952467 672.199362,77.0555034 672.199362,77.00819 C672.190184,76.9116706 672.190184,76.7845551 672.160752,76.6587014 C672.111697,76.4647163 671.97656,76.31836 671.615773,76.2798784 C671.43,76.2593759 670.464736,76.2502287 670.231491,76.2502287 C670.182753,76.2502287 670.173575,76.2902874 670.173575,76.3480098 L670.173575,77.1144875 C670.173575,77.4447353 670.163448,78.3370668 670.173575,78.6196858 C670.19288,79.2902749 670.348905,79.4353695 671.342335,79.4353695 C671.596152,79.4353695 672.004727,79.4353695 672.258544,79.3199247 C672.511095,79.2016411 672.628509,78.9988241 672.696868,78.600445 C672.716174,78.493832 672.735479,78.4553504 672.803522,78.4553504 C672.882325,78.4553504 672.882325,78.532629 672.882325,78.6304101 C672.882325,78.8521525 672.803522,79.5123327 672.754784,79.7078949 C672.688007,79.959287 672.59876,79.959287 672.229111,79.959287 C671.498359,79.959287 670.962243,79.9400462 670.54354,79.9312143 C670.124837,79.9119735 669.821966,79.9015646 669.530805,79.9015646 C669.422252,79.9015646 669.208628,79.9015646 668.975383,79.9119735 C668.750998,79.9119735 668.497182,79.9312143 668.302547,79.9312143 C668.174689,79.9312143 668.108228,79.9015646 668.108228,79.8334332 C668.108228,79.7845427 668.146838,79.7552083 668.263936,79.7552083 C668.409517,79.7552083 668.526931,79.7372292 668.614596,79.7164113 C668.808914,79.6779297 668.857969,79.4650192 668.896579,79.183662 C668.945633,78.7751893 668.945633,78.0083961 668.945633,77.1144875 L668.945633,75.4052106 Z M674.919189,78.6094976 C674.938495,79.3671435 675.066036,79.6204281 675.260671,79.6885595 C675.425557,79.7475436 675.611331,79.7551137 675.767039,79.7551137 C675.874009,79.7551137 675.933507,79.7759316 675.933507,79.833654 C675.933507,79.9118789 675.845842,79.9311197 675.709123,79.9311197 C675.075214,79.9311197 674.685944,79.9017854 674.50017,79.9017854 C674.412822,79.9017854 673.955508,79.9311197 673.447558,79.9311197 C673.321283,79.9311197 673.233618,79.9207107 673.233618,79.833654 C673.233618,79.7759316 673.291534,79.7551137 673.389643,79.7551137 C673.515601,79.7551137 673.690931,79.7475436 673.827651,79.7078003 C674.081467,79.62926 674.120078,79.3482181 674.130522,78.5044618 L674.218187,72.7823743 C674.218187,72.5902817 674.246353,72.454019 674.344462,72.454019 C674.451116,72.454019 674.538781,72.5798728 674.705249,72.7543017 C674.822663,72.8801554 676.303155,74.4342442 677.725732,75.8432385 C678.388124,76.5018416 679.703731,77.9004268 679.868617,78.0559304 L679.917671,78.0559304 L679.819562,73.6971008 C679.810701,73.1037903 679.723036,72.918637 679.488524,72.822433 C679.342944,72.7647106 679.108432,72.7647106 678.971713,72.7647106 C678.855881,72.7647106 678.817271,72.7350609 678.817271,72.6757614 C678.817271,72.5975365 678.924241,72.5902817 679.069822,72.5902817 C679.576189,72.5902817 680.043946,72.618039 680.248709,72.618039 C680.355679,72.618039 680.727226,72.5902817 681.203528,72.5902817 C681.329804,72.5902817 681.427913,72.5975365 681.427913,72.6757614 C681.427913,72.7350609 681.369997,72.7647106 681.252899,72.7647106 C681.15479,72.7647106 681.077569,72.7647106 680.960155,72.7927833 C680.687033,72.8713236 680.609496,73.0757176 680.599368,73.6188759 L680.492398,79.7475436 C680.492398,79.9591923 680.453788,80.0481416 680.366123,80.0481416 C680.259469,80.0481416 680.141739,79.9399515 680.035085,79.833654 C679.420165,79.2520141 678.172918,77.9789672 677.160183,76.9784456 C676.098393,75.9290335 675.017298,74.7452512 674.841968,74.5616751 L674.812219,74.5616751 L674.919189,78.6094976 Z M682.91926,79.0085392 C681.964441,78.1739301 681.71189,77.0860364 681.71189,76.1432372 C681.71189,75.483057 681.915386,74.3374409 682.850901,73.4832756 C683.553169,72.8410745 684.478556,72.4534197 685.929299,72.4534197 C686.535358,72.4534197 686.894563,72.493163 687.343015,72.5508854 C687.714245,72.5981989 688.024712,72.6871481 688.317456,72.7152208 C688.42411,72.7256297 688.46272,72.7729432 688.46272,72.8322427 C688.46272,72.9104676 688.434553,73.0262278 688.415248,73.364992 C688.395943,73.6860926 688.404804,74.2219961 688.385499,74.4144041 C688.375055,74.5607604 688.35575,74.638039 688.269667,74.638039 C688.19118,74.638039 688.171875,74.5607604 688.171875,74.4248131 C688.161431,74.1229533 688.035156,73.7838737 687.791783,73.5321662 C687.46929,73.1902477 686.710371,72.9300238 685.813468,72.9300238 C684.965618,72.9300238 684.410196,73.1429343 683.98105,73.5321662 C683.269603,74.1819374 683.085412,75.1042341 683.085412,76.0470332 C683.085412,78.3587679 684.848204,79.504384 686.155266,79.504384 C687.022421,79.504384 687.548093,79.4066029 687.937047,78.9596486 C688.103515,78.7760725 688.229791,78.4934535 688.269667,78.3187092 C688.298151,78.1635211 688.317456,78.1234624 688.395943,78.1234624 C688.46272,78.1234624 688.483608,78.1915938 688.483608,78.2698186 C688.483608,78.3868406 688.366194,79.2305969 688.269667,79.5621064 C688.219347,79.7264418 688.180737,79.776594 688.015851,79.8431482 C687.625315,79.9986518 686.884119,80.0667831 686.260654,80.0667831 C684.927008,80.0667831 683.80572,79.776594 682.91926,79.0085392 Z M695.889836,76.9689198 C695.93889,76.9689198 695.947752,76.9392701 695.93889,76.9111974 L695.061292,74.5224996 C695.05243,74.4824408 695.041987,74.4335503 695.012237,74.4335503 C694.984071,74.4335503 694.963183,74.4824408 694.954322,74.5224996 L694.057418,76.9007885 C694.048557,76.9392701 694.057418,76.9689198 694.096029,76.9689198 L695.889836,76.9689198 Z M709.081853,78.0226848 C708.642262,77.6451235 707.915941,76.9363682 707.72004,76.7247194 C707.522557,76.5130706 707.038343,75.9699123 706.909219,75.7819203 C706.652237,75.9699123 706.387977,76.3266557 706.387977,76.928798 C706.387977,77.8703355 707.053217,78.4756321 707.840302,78.4756321 C708.423891,78.4756321 708.92298,78.1737724 709.081853,78.0226848 Z M706.713318,75.4961471 C706.39399,75.0728495 706.334492,74.7634196 706.326896,74.4230782 C706.319617,73.8281906 706.849721,73.0361636 708.165327,73.0361636 C708.536874,73.0361636 708.87709,73.1118651 709.081853,73.1945059 C709.209394,73.2405577 709.209394,73.3011189 709.209394,73.3900681 C709.209394,73.6401985 709.150212,74.2426563 709.126476,74.3549469 C709.111602,74.4703917 709.081853,74.4836395 709.035646,74.4836395 C708.989757,74.4836395 708.983744,74.4543051 708.983744,74.3416991 C708.983744,74.1448752 708.930259,73.9035767 708.764107,73.7083299 C708.612513,73.5263308 708.34667,73.3679885 707.923537,73.3679885 C707.605474,73.3679885 707.113981,73.586892 707.113981,74.2294086 C707.113981,74.9365868 707.764664,75.5406217 708.370406,76.2108954 C708.627388,76.5070776 709.558471,77.3432638 709.701203,77.4719563 C709.854063,77.2603075 710.066421,76.7688786 710.066421,76.3102537 C710.066421,76.1976477 710.03509,76.0617004 709.92084,75.9623422 C709.824314,75.8721312 709.663859,75.8497362 709.550876,75.8497362 C709.504986,75.8497362 709.459096,75.8336496 709.459096,75.789175 C709.459096,75.7286138 709.519861,75.7137889 709.580941,75.7137889 C709.761968,75.7137889 710.066421,75.7210436 710.489555,75.7670954 C710.631971,75.7819203 710.746536,75.8276566 710.746536,75.9178675 C710.746536,76.4995074 710.43607,77.1997463 710.005341,77.7060002 C710.512025,78.1204659 710.851924,78.3245445 711.057003,78.4444052 C711.298793,78.5879227 711.714648,78.7093605 711.866242,78.7093605 C711.934601,78.7093605 711.973212,78.7169307 711.973212,78.7774919 C711.973212,78.8219665 711.912131,78.8456232 711.745979,78.8456232 L711.162391,78.8456232 C710.299667,78.8456232 710.027811,78.7610899 709.377445,78.2639833 C709.126476,78.4888799 708.620109,78.9506591 707.583321,78.9506591 C705.963261,78.9506591 705.479047,77.9381514 705.479047,77.2827026 C705.479047,76.4004646 706.258853,75.7137889 706.713318,75.4961471 Z M724.286776,76.9689198 C724.335513,76.9689198 724.345957,76.9392701 724.335513,76.9111974 L723.457915,74.5224996 C723.44937,74.4824408 723.43861,74.4335503 723.410443,74.4335503 C723.38101,74.4335503 723.361389,74.4824408 723.350945,74.5224996 L722.455624,76.9007885 C722.44518,76.9392701 722.455624,76.9689198 722.494234,76.9689198 L724.286776,76.9689198 Z M733.16492,75.4052106 C733.16492,73.9296622 733.16492,73.6571367 733.145298,73.3464451 C733.126309,73.0161973 733.0282,72.8506003 732.814576,72.8029714 C732.706024,72.7736371 732.579748,72.7648053 732.462334,72.7648053 C732.366125,72.7648053 732.306626,72.7439873 732.306626,72.6670241 C732.306626,72.6077246 732.385113,72.5900609 732.541138,72.5900609 C732.910786,72.5900609 733.526023,72.6181336 733.80769,72.6181336 C734.051379,72.6181336 734.626107,72.5900609 734.995755,72.5900609 C735.123613,72.5900609 735.200834,72.6077246 735.200834,72.6670241 C735.200834,72.7439873 735.142918,72.7648053 735.044809,72.7648053 C734.9486,72.7648053 734.869796,72.7736371 734.752382,72.7928779 C734.489704,72.8417685 734.412166,73.0073655 734.393178,73.3464451 C734.371973,73.6571367 734.371973,73.9296622 734.371973,75.4052106 L734.371973,77.1144875 C734.371973,78.056025 734.371973,78.8240798 734.412166,79.2413844 C734.440333,79.5050779 734.508693,79.6779297 734.801437,79.7164113 C734.938156,79.7372292 735.15178,79.7552083 735.298943,79.7552083 C735.405913,79.7552083 735.454651,79.7845427 735.454651,79.8334332 C735.454651,79.9015646 735.375847,79.9312143 735.268877,79.9312143 C734.626107,79.9312143 734.013085,79.9015646 733.750091,79.9015646 C733.526023,79.9015646 732.910786,79.9312143 732.521833,79.9312143 C732.393975,79.9312143 732.327514,79.9015646 732.327514,79.8334332 C732.327514,79.7845427 732.366125,79.7552083 732.483222,79.7552083 C732.628803,79.7552083 732.746217,79.7372292 732.833565,79.7164113 C733.0282,79.6779297 733.086116,79.5123327 733.115865,79.2309754 C733.16492,78.8240798 733.16492,78.056025 733.16492,77.1144875 L733.16492,75.4052106 Z M738.05583,76.4732958 C738.05583,77.50189 738.066274,78.2510194 738.075135,78.4342802 C738.085579,78.6771558 738.104884,79.0663877 738.181789,79.1730007 C738.309963,79.3581539 738.690055,79.5622326 739.459418,79.5622326 C740.452531,79.5622326 741.116506,79.3669858 741.700094,78.8623091 C742.32356,78.3292443 742.518511,77.4441676 742.518511,76.443646 C742.518511,75.2109732 742.002966,74.4145303 741.582997,74.0164665 C740.687043,73.1623012 739.576515,73.0468564 738.816014,73.0468564 C738.621696,73.0468564 738.260592,73.0752445 738.181789,73.1137261 C738.09444,73.1522077 738.066274,73.2007828 738.066274,73.3073958 C738.05583,73.6376436 738.05583,74.4826616 738.05583,75.2507165 L738.05583,76.4732958 Z M736.838016,75.4046429 C736.838016,73.9290944 736.838016,73.6581461 736.81871,73.3474545 C736.799405,73.015945 736.720602,72.8620186 736.400008,72.7938873 C736.322786,72.7730693 736.156318,72.7642375 736.019599,72.7642375 C735.912945,72.7642375 735.855029,72.7434196 735.855029,72.6768653 C735.855029,72.6090494 735.921807,72.5894932 736.06897,72.5894932 C736.584199,72.5894932 737.199119,72.6191429 737.470659,72.6191429 C737.77353,72.6191429 738.386868,72.5894932 738.972355,72.5894932 C740.189853,72.5894932 741.817508,72.5894932 742.878982,73.6966277 C743.366044,74.2013044 743.823674,75.0078408 743.823674,76.1626042 C743.823674,77.3864452 743.308445,78.3191508 742.761884,78.8724026 C742.315015,79.3297659 741.300697,80.0195958 739.498028,80.0195958 C739.147369,80.0195958 738.747971,79.988369 738.378323,79.9587192 C738.006775,79.9306466 737.666876,79.9013122 737.423187,79.9013122 C737.314634,79.9013122 737.100694,79.9013122 736.867765,79.9114058 C736.64338,79.9114058 736.389564,79.9306466 736.194929,79.9306466 C736.06897,79.9306466 736.00061,79.9013122 736.00061,79.8344426 C736.00061,79.7842903 736.039221,79.7562177 736.156318,79.7562177 C736.301899,79.7562177 736.419313,79.7369769 736.506661,79.716159 C736.701613,79.6776774 736.750351,79.4644515 736.788961,79.1834096 C736.838016,78.7761986 736.838016,78.0081438 736.838016,77.1158123 L736.838016,75.4046429 Z M747.606145,76.9689198 C747.6552,76.9689198 747.664061,76.9392701 747.6552,76.9111974 L746.777601,74.5224996 C746.76874,74.4824408 746.757979,74.4335503 746.728547,74.4335503 C746.70038,74.4335503 746.679492,74.4824408 746.670631,74.5224996 L745.773727,76.9007885 C745.764866,76.9392701 745.773727,76.9689198 745.812338,76.9689198 L747.606145,76.9689198 Z M752.536932,76.4732958 C752.536932,77.50189 752.547059,78.2510194 752.556237,78.4342802 C752.566681,78.6771558 752.58567,79.0663877 752.662891,79.1730007 C752.790749,79.3581539 753.171157,79.5622326 753.94052,79.5622326 C754.933633,79.5622326 755.597608,79.3669858 756.181197,78.8623091 C756.804662,78.3292443 756.999613,77.4441676 756.999613,76.443646 C756.999613,75.2109732 756.484068,74.4145303 756.064099,74.0164665 C755.168145,73.1623012 754.057617,73.0468564 753.297116,73.0468564 C753.102798,73.0468564 752.741694,73.0752445 752.662891,73.1137261 C752.575542,73.1522077 752.547059,73.2007828 752.547059,73.3073958 C752.536932,73.6376436 752.536932,74.4826616 752.536932,75.2507165 L752.536932,76.4732958 Z M763.119225,76.4732958 C763.119225,77.50189 763.129352,78.2510194 763.13853,78.4342802 C763.148974,78.6771558 763.167962,79.0663877 763.245183,79.1730007 C763.373041,79.3581539 763.753134,79.5622326 764.522496,79.5622326 C765.515926,79.5622326 766.179901,79.3669858 766.763489,78.8623091 C767.386954,78.3292443 767.581906,77.4441676 767.581906,76.443646 C767.581906,75.2109732 767.06636,74.4145303 766.646392,74.0164665 C765.750437,73.1623012 764.63991,73.0468564 763.879409,73.0468564 C763.684774,73.0468564 763.323987,73.0752445 763.245183,73.1137261 C763.157835,73.1522077 763.129352,73.2007828 763.129352,73.3073958 C763.119225,73.6376436 763.119225,74.4826616 763.119225,75.2507165 L763.119225,76.4732958 Z M761.90141,75.4046429 C761.90141,73.9290944 761.90141,73.6581461 761.882105,73.3474545 C761.8628,73.015945 761.785579,72.8620186 761.463402,72.7938873 C761.385865,72.7730693 761.219713,72.7642375 761.082994,72.7642375 C760.97634,72.7642375 760.918424,72.7434196 760.918424,72.6768653 C760.918424,72.6090494 760.985201,72.5894932 761.132364,72.5894932 C761.647594,72.5894932 762.262197,72.6191429 762.534053,72.6191429 C762.836925,72.6191429 763.450262,72.5894932 764.035434,72.5894932 C765.252931,72.5894932 766.880903,72.5894932 767.942376,73.6966277 C768.429439,74.2013044 768.887069,75.0078408 768.887069,76.1626042 C768.887069,77.3864452 768.371839,78.3191508 767.825279,78.8724026 C767.378093,79.3297659 766.364092,80.0195958 764.561106,80.0195958 C764.210447,80.0195958 763.811366,79.988369 763.441401,79.9587192 C763.07017,79.9306466 762.730271,79.9013122 762.486581,79.9013122 C762.378029,79.9013122 762.164089,79.9013122 761.931159,79.9114058 C761.706775,79.9114058 761.452958,79.9306466 761.258323,79.9306466 C761.132364,79.9306466 761.064005,79.9013122 761.064005,79.8344426 C761.064005,79.7842903 761.102615,79.7562177 761.219713,79.7562177 C761.365294,79.7562177 761.482708,79.7369769 761.570056,79.716159 C761.765008,79.6776774 761.813745,79.4644515 761.852356,79.1834096 C761.90141,78.7761986 761.90141,78.0081438 761.90141,77.1158123 L761.90141,75.4046429 Z M770.19489,75.4052106 C770.19489,73.9296622 770.19489,73.6571367 770.175268,73.3464451 C770.156279,73.0161973 770.077476,72.8610093 769.756565,72.7928779 C769.678078,72.7736371 769.513192,72.7648053 769.376473,72.7648053 C769.268237,72.7648053 769.210321,72.7439873 769.210321,72.675856 C769.210321,72.6077246 769.278364,72.5900609 769.423945,72.5900609 C769.688205,72.5900609 769.970505,72.5988928 770.214195,72.5988928 C770.468012,72.6077246 770.690813,72.6181336 770.827533,72.6181336 C771.139265,72.6181336 773.078653,72.6181336 773.264427,72.6077246 C773.448618,72.5900609 773.604326,72.569243 773.68313,72.5500022 C773.732184,72.5399087 773.7901,72.5115206 773.839154,72.5115206 C773.888209,72.5115206 773.89707,72.5500022 773.89707,72.5988928 C773.89707,72.6670241 773.848016,72.7837306 773.818267,73.2294232 C773.809405,73.3272043 773.7901,73.7549178 773.770795,73.8719398 C773.760667,73.9192532 773.741046,73.9785527 773.672686,73.9785527 C773.604326,73.9785527 773.585338,73.9296622 773.585338,73.8407129 C773.585338,73.7725815 773.576476,73.6082462 773.527105,73.4931168 C773.458746,73.3183725 773.360953,73.2013506 772.873891,73.1436282 C772.709005,73.1228103 771.685826,73.1035695 771.491507,73.1035695 C771.442136,73.1035695 771.423148,73.1332192 771.423148,73.2013506 L771.423148,75.6581798 C771.423148,75.7263112 771.431693,75.7647928 771.491507,75.7647928 C771.705131,75.7647928 772.824837,75.7647928 773.049221,75.7439749 C773.283732,75.7263112 773.429313,75.6966614 773.516978,75.6004574 C773.585338,75.5222325 773.625214,75.473342 773.672686,75.473342 C773.712879,75.473342 773.741046,75.4938445 773.741046,75.5515669 C773.741046,75.6092893 773.702435,75.7647928 773.663824,76.2593759 C773.653697,76.4546227 773.625214,76.8438546 773.625214,76.9116706 C773.625214,76.9873721 773.625214,77.0952467 773.536283,77.0952467 C773.469506,77.0952467 773.448618,77.0555034 773.448618,77.00819 C773.439757,76.9116706 773.439757,76.7845551 773.410008,76.6587014 C773.360953,76.4647163 773.225816,76.31836 772.86503,76.2798784 C772.679572,76.2593759 771.713993,76.2502287 771.480747,76.2502287 C771.431693,76.2502287 771.423148,76.2902874 771.423148,76.3480098 L771.423148,77.1144875 C771.423148,77.4447353 771.412704,78.3370668 771.423148,78.6196858 C771.442136,79.2902749 771.598477,79.4353695 772.591591,79.4353695 C772.845724,79.4353695 773.253983,79.4353695 773.506534,79.3199247 C773.760667,79.2016411 773.877765,78.9988241 773.946124,78.600445 C773.96543,78.493832 773.984735,78.4553504 774.052778,78.4553504 C774.130316,78.4553504 774.130316,78.532629 774.130316,78.6304101 C774.130316,78.8521525 774.052778,79.5123327 774.00404,79.7078949 C773.936947,79.959287 773.848016,79.959287 773.478367,79.959287 C772.747616,79.959287 772.211499,79.9400462 771.792796,79.9312143 C771.374093,79.9119735 771.071222,79.9015646 770.780061,79.9015646 C770.671508,79.9015646 770.457568,79.9015646 770.224639,79.9119735 C770.000255,79.9119735 769.746438,79.9312143 769.551803,79.9312143 C769.423945,79.9312143 769.357484,79.9015646 769.357484,79.8334332 C769.357484,79.7845427 769.396095,79.7552083 769.513192,79.7552083 C769.658773,79.7552083 769.776187,79.7372292 769.863535,79.7164113 C770.05817,79.6779297 770.107225,79.4650192 770.145835,79.183662 C770.19489,78.7751893 770.19489,78.0083961 770.19489,77.1144875 L770.19489,75.4052106 Z M789.030374,76.4732958 C789.030374,77.50189 789.040501,78.2510194 789.049679,78.4342802 C789.060123,78.6771558 789.079112,79.0663877 789.156333,79.1730007 C789.28419,79.3581539 789.664283,79.5622326 790.433645,79.5622326 C791.427075,79.5622326 792.09105,79.3669858 792.674638,78.8623091 C793.298104,78.3292443 793.493055,77.4441676 793.493055,76.443646 C793.493055,75.2109732 792.97751,74.4145303 792.557541,74.0164665 C791.661587,73.1623012 790.551059,73.0468564 789.790558,73.0468564 C789.595923,73.0468564 789.235136,73.0752445 789.156333,73.1137261 C789.068984,73.1522077 789.040501,73.2007828 789.040501,73.3073958 C789.030374,73.6376436 789.030374,74.4826616 789.030374,75.2507165 L789.030374,76.4732958 Z M787.81256,75.4046429 C787.81256,73.9290944 787.81256,73.6581461 787.793254,73.3474545 C787.773949,73.015945 787.696728,72.8620186 787.374551,72.7938873 C787.297014,72.7730693 787.130862,72.7642375 786.994143,72.7642375 C786.887489,72.7642375 786.829573,72.7434196 786.829573,72.6768653 C786.829573,72.6090494 786.896351,72.5894932 787.043514,72.5894932 C787.558743,72.5894932 788.173346,72.6191429 788.445203,72.6191429 C788.748074,72.6191429 789.361412,72.5894932 789.946583,72.5894932 C791.16408,72.5894932 792.792052,72.5894932 793.853526,73.6966277 C794.340588,74.2013044 794.798218,75.0078408 794.798218,76.1626042 C794.798218,77.3864452 794.282989,78.3191508 793.736428,78.8724026 C793.289242,79.3297659 792.275241,80.0195958 790.472256,80.0195958 C790.121596,80.0195958 789.722515,79.988369 789.35255,79.9587192 C788.981319,79.9306466 788.64142,79.9013122 788.397731,79.9013122 C788.289178,79.9013122 788.075238,79.9013122 787.842309,79.9114058 C787.617924,79.9114058 787.364108,79.9306466 787.169473,79.9306466 C787.043514,79.9306466 786.975154,79.9013122 786.975154,79.8344426 C786.975154,79.7842903 787.013765,79.7562177 787.130862,79.7562177 C787.276443,79.7562177 787.393857,79.7369769 787.481205,79.716159 C787.676157,79.6776774 787.724895,79.4644515 787.763505,79.1834096 C787.81256,78.7761986 787.81256,78.0081438 787.81256,77.1158123 L787.81256,75.4046429 Z M798.579803,76.9689198 C798.628857,76.9689198 798.639301,76.9392701 798.628857,76.9111974 L797.751259,74.5224996 C797.742397,74.4824408 797.731954,74.4335503 797.70347,74.4335503 C797.674038,74.4335503 797.654733,74.4824408 797.644289,74.5224996 L796.748967,76.9007885 C796.738524,76.9392701 796.748967,76.9689198 796.787578,76.9689198 L798.579803,76.9689198 Z M796.592943,77.4543557 C796.543889,77.4543557 796.524583,77.4735965 796.505278,77.532896 L795.979605,78.8620883 C795.881813,79.1046485 795.832442,79.3386923 795.832442,79.4553988 C795.832442,79.6301431 795.920423,79.7559969 796.223295,79.7559969 L796.368875,79.7559969 C796.484707,79.7559969 796.514456,79.7752377 796.514456,79.8342218 C796.514456,79.9115004 796.456224,79.9307412 796.349253,79.9307412 C796.037521,79.9307412 795.618818,79.9010914 795.315947,79.9010914 C795.208977,79.9010914 794.67286,79.9307412 794.166492,79.9307412 C794.040217,79.9307412 793.981035,79.9115004 793.981035,79.8342218 C793.981035,79.7752377 794.020912,79.7559969 794.098133,79.7559969 C794.185798,79.7559969 794.322517,79.747165 794.401004,79.7367561 C794.84819,79.6774566 795.033647,79.3475242 795.228282,78.8620883 L797.674038,72.8412953 C797.791452,72.5599381 797.849051,72.4533251 797.94716,72.4533251 C798.034825,72.4533251 798.092741,72.5406973 798.190849,72.7640167 C798.425677,73.2983431 799.983391,77.1837229 800.606856,78.6592713 C800.976821,79.532362 801.260387,79.6686247 801.463883,79.7159382 C801.61073,79.747165 801.756311,79.7559969 801.873725,79.7559969 C801.952212,79.7559969 802,79.7664058 802,79.8342218 C802,79.9115004 801.912335,79.9307412 801.551548,79.9307412 C801.200889,79.9307412 800.489758,79.9307412 799.709952,79.9115004 C799.534939,79.9010914 799.417209,79.9010914 799.417209,79.8342218 C799.417209,79.7752377 799.457401,79.7559969 799.553928,79.747165 C799.622287,79.7263471 799.690647,79.6405521 799.641593,79.5235302 L798.862103,77.5224871 C798.842798,77.4735965 798.814631,77.4543557 798.765577,77.4543557 L796.592943,77.4543557 Z M639.665304,69.2480919 L639.665304,68.7080878 L800.719333,68.7080878 L800.719333,69.2480919 L639.665304,69.2480919 Z M705.990763,85.7613341 L704.433049,87 L705.133736,85.1412126 L703.470634,84.0473259 L705.460659,84.1362752 L705.990763,82.2210271 L706.519284,84.1362752 L708.510891,84.0473259 L706.84779,85.1412126 L707.548476,87 L705.990763,85.7613341 Z M713.09162,85.7613341 L711.533906,87 L712.233327,85.1412126 L710.571491,84.0473259 L712.561516,84.1362752 L713.09162,82.2210271 L713.620141,84.1362752 L715.611748,84.0473259 L713.948647,85.1412126 L714.649333,87 L713.09162,85.7613341 Z M720.192635,85.7613341 L718.634921,87 L719.334342,85.1412126 L717.672823,84.0473259 L719.662531,84.1362752 L720.192635,82.2210271 L720.721473,84.1362752 L722.712763,84.0473259 L721.049662,85.1412126 L721.749082,87 L720.192635,85.7613341 Z M727.293017,85.7613341 L725.734987,87 L726.43599,85.1412126 L724.772888,84.0473259 L726.764179,84.1362752 L727.293017,82.2210271 L727.823121,84.1362752 L729.813145,84.0473259 L728.15131,85.1412126 L728.85073,87 L727.293017,85.7613341 Z M734.394032,85.7613341 L732.836319,87 L733.537005,85.1412126 L731.873904,84.0473259 L733.865194,84.1362752 L734.394032,82.2210271 L734.924136,84.1362752 L736.914161,84.0473259 L735.250743,85.1412126 L735.951746,87 L734.394032,85.7613341 Z M739.552653,84.5148773 L739.552653,83.976135 L800.719333,83.976135 L800.719333,84.5148773 L739.552653,84.5148773 Z M639.66562,84.5148773 L639.66562,83.976135 L701.100992,83.976135 L701.100992,84.5148773 L639.66562,84.5148773 Z" id="Combined-Shape"></path>
        </g>
    </g>
</svg>