<svg width="79px" height="54px" viewBox="0 0 79 54" version="1.1" xmlns="http://www.w3.org/2000/svg" xmlns:xlink="http://www.w3.org/1999/xlink">
    <g id="Page-1" stroke="none" stroke-width="1" fill="none" fill-rule="evenodd">
        <g id="Front-page" transform="translate(-561.000000, -2198.000000)" fill="#3394DD" fill-rule="nonzero">
            <path d="M639.579115,2229.67681 C637.963992,2221.50453 635.15256,2212.85652 630.974805,2203.26225 C629.576346,2200.05022 627.037556,2198.18595 623.825972,2198.01238 C619.926043,2197.80745 615.717188,2200.23947 613.60965,2203.94293 L616.307049,2205.50398 C617.828872,2202.82938 620.923313,2200.98811 623.660106,2201.14495 C625.66916,2201.25369 627.214826,2202.4216 628.1302,2204.52323 C631.816576,2212.99035 634.418602,2220.68689 636.045128,2227.94742 C630.424337,2225.60845 617.586292,2221.83494 605.024001,2229.12788 L595.980146,2229.12788 C583.415781,2221.83389 570.5767,2225.60845 564.955909,2227.94742 C566.583471,2220.68584 569.185497,2212.98931 572.87291,2204.52323 C573.787248,2202.4216 575.33084,2201.25369 577.339894,2201.14495 C580.108823,2200.99961 583.172165,2202.83043 584.695024,2205.50503 L587.392423,2203.94293 C585.283849,2200.23947 581.097801,2197.79595 577.172992,2198.01343 C573.961407,2198.18804 571.423654,2200.05231 570.026232,2203.2633 C565.84744,2212.85652 563.037044,2221.50349 561.420885,2229.67785 L561,2229.9152 L561.289229,2231.07894 C561.747435,2232.9223 561.957877,2234.78971 562.15899,2236.59648 C562.756108,2241.94568 563.374997,2247.47681 570.784033,2250.32289 C573.553998,2251.38624 576.802903,2252 580.04455,2252 C584.749967,2252 589.437761,2250.70557 592.608915,2247.61169 C594.517413,2245.75264 598.449479,2236.64875 597.985054,2232.26463 L603.015983,2232.26463 C602.550521,2236.64771 606.482587,2245.75369 608.390048,2247.61064 C611.563276,2250.70452 616.248996,2251.99895 620.95545,2251.99895 C624.196061,2251.99895 627.447038,2251.3852 630.217004,2250.32184 C637.62604,2247.47472 638.243892,2241.94254 638.842047,2236.59334 C639.043159,2234.78762 639.252565,2232.92021 639.710771,2231.07789 L640,2229.91416 L639.579115,2229.67681 Z M593.711926,2238.5789 C592.462746,2242.19243 590.947143,2244.87122 590.448508,2245.35637 C586.070677,2249.62548 577.619794,2249.58993 571.892226,2247.39107 C566.254849,2245.22567 565.832927,2241.45844 565.251358,2236.24411 C565.081345,2234.72279 564.906149,2233.15965 564.583747,2231.55258 C568.374826,2229.773 582.018358,2224.39453 594.745479,2232.01369 C595.027452,2232.36396 595.146668,2234.43003 593.711926,2238.5789 Z M635.750715,2236.24202 C635.16811,2241.45634 634.747225,2245.22462 629.109847,2247.39107 C623.380206,2249.59098 614.929323,2249.62444 610.551492,2245.35532 C610.053893,2244.87017 608.537254,2242.19139 607.289111,2238.5789 C605.854368,2234.43003 605.974621,2232.365 606.221347,2232.04505 C611.212883,2229.0526 616.341259,2228.05511 620.96167,2228.05511 C628.150933,2228.05511 634.110713,2230.47145 636.418327,2231.55258 C636.094888,2233.1586 635.920728,2234.72175 635.750715,2236.24202 Z" id="Shape"></path>
        </g>
    </g>
</svg>