<svg xmlns="http://www.w3.org/2000/svg" viewBox="0 0 133.04 37.6"><defs><style>.cls-1{fill:#0c151e;}</style></defs><title>Asset 24</title><g id="Layer_2" data-name="Layer 2"><g id="ARTE"><path class="cls-1" d="M46.8,26.16v7.55H45.5V14.89H50a6.5,6.5,0,0,1,4.43,1.35A4.91,4.91,0,0,1,56,20.17a5.8,5.8,0,0,1-1.71,4.31,6.56,6.56,0,0,1-4.8,1.68Zm0-10.07V25h2.68a5.56,5.56,0,0,0,3.87-1.22,4.41,4.41,0,0,0,1.32-3.43q0-4.23-4.87-4.23Z"/><path class="cls-1" d="M64.39,34a5.92,5.92,0,0,1-4.66-1.93,7.32,7.32,0,0,1-1.71-5,7.33,7.33,0,0,1,1.79-5.24,6.21,6.21,0,0,1,4.72-1.89,5.76,5.76,0,0,1,4.54,1.88A7.55,7.55,0,0,1,70.74,27,7.43,7.43,0,0,1,69,32.09,5.86,5.86,0,0,1,64.39,34Zm.09-13a4.79,4.79,0,0,0-3.79,1.61,6.48,6.48,0,0,0-1.41,4.44,6.27,6.27,0,0,0,1.38,4.24,4.69,4.69,0,0,0,3.76,1.6,4.58,4.58,0,0,0,3.74-1.57A6.61,6.61,0,0,0,69.48,27a6.61,6.61,0,0,0-1.31-4.41A4.59,4.59,0,0,0,64.48,21Z"/><path class="cls-1" d="M84.6,33.71H83.47L80.54,23.58a8,8,0,0,1-.21-1.13h-.06a7.07,7.07,0,0,1-.27,1.1L76.72,33.71H75.6L71.54,20.27h1.34L76,31a7.07,7.07,0,0,1,.19,1.13h.1A5.79,5.79,0,0,1,76.54,31L80,20.27h.83l3,10.72A8.32,8.32,0,0,1,84,32.12h.1A4.7,4.7,0,0,1,84.33,31l3.19-10.72h1.25Z"/><path class="cls-1" d="M90.82,27a6.65,6.65,0,0,0,1.28,4.33,4.29,4.29,0,0,0,3.51,1.56A7.16,7.16,0,0,0,100,31.27v1.28A7.83,7.83,0,0,1,95.36,34a5.28,5.28,0,0,1-4.2-1.86,7.85,7.85,0,0,1-1.6-5.26A7.5,7.5,0,0,1,91.23,22a5.39,5.39,0,0,1,4.35-2,4.56,4.56,0,0,1,3.85,1.76,7.75,7.75,0,0,1,1.34,4.8V27Zm8.69-1.1a6,6,0,0,0-1.12-3.61A3.46,3.46,0,0,0,95.53,21a4.22,4.22,0,0,0-3.13,1.27,6.17,6.17,0,0,0-1.53,3.63Z"/><path class="cls-1" d="M109.58,21.53a2.39,2.39,0,0,0-1.42-.43,3.1,3.1,0,0,0-2.66,1.64,8.43,8.43,0,0,0-1.08,4.66v6.31h-1.18V20.27h1.18v3h0a4.91,4.91,0,0,1,1.46-2.39,3.42,3.42,0,0,1,2.31-.85,3.76,3.76,0,0,1,1.34.23Z"/><path class="cls-1" d="M118,33.71V14.89H123a5,5,0,0,1,3.53,1.2,4.07,4.07,0,0,1,1.31,3.16,4.55,4.55,0,0,1-3.31,4.54v.05a4.63,4.63,0,0,1,3.09,1.4,4.37,4.37,0,0,1,1.12,3.09,5.18,5.18,0,0,1-1.53,3.87,5.58,5.58,0,0,1-4.11,1.51Zm1.3-17.62v7.28h2.62a4.87,4.87,0,0,0,3.28-1.05,3.53,3.53,0,0,0,1.24-2.85c0-2.26-1.34-3.38-4-3.38Zm0,8.46v8h3.49a4.87,4.87,0,0,0,3.39-1.06,3.87,3.87,0,0,0,1.18-3c0-2.59-1.77-3.89-5.29-3.89Z"/><path class="cls-1" d="M133,14.89v1.18h0V32.52h0v1.19h-1.3V32.52h0V16.07h0V14.89Z"/><path class="cls-1" d="M1.94,29.78A1.94,1.94,0,0,1,0,27.84v-6a1.94,1.94,0,1,1,3.87,0v6A1.94,1.94,0,0,1,1.94,29.78Z"/><path class="cls-1" d="M8.56,32.16a1.92,1.92,0,0,1-1.93-1.93V19.36a1.94,1.94,0,0,1,3.87,0V30.23A1.93,1.93,0,0,1,8.56,32.16Z"/><path class="cls-1" d="M15.05,34.68a1.94,1.94,0,0,1-1.93-1.93V17.11a1.94,1.94,0,1,1,3.87,0V32.75A1.94,1.94,0,0,1,15.05,34.68Z"/><path class="cls-1" d="M21.81,37.6a1.93,1.93,0,0,1-1.93-1.94V14.86a1.94,1.94,0,1,1,3.87,0v20.8A1.94,1.94,0,0,1,21.81,37.6Z"/><path class="cls-1" d="M30.49,33.94a9,9,0,0,1-1.13-.08.79.79,0,0,1-.22,0L26.76,33a1.13,1.13,0,0,1,.71-2.14l2.28.76a3.29,3.29,0,0,0,2.69-.57A2.93,2.93,0,0,0,33.15,29a.34.34,0,0,1,0-.1V14c-.1-3.24-2.22-3.76-2.5-3.81l-.15,0L5.59,2.42a2.42,2.42,0,0,0-2,.12,3,3,0,0,0-1,1.92V16.85a1.13,1.13,0,0,1-2.25,0V4.28a5.27,5.27,0,0,1,2-3.61,4.53,4.53,0,0,1,4-.41h0L31.1,7.93a5.09,5.09,0,0,1,2.1,1,6.23,6.23,0,0,1,2.19,4.93v15A5.2,5.2,0,0,1,34,32.69,4.9,4.9,0,0,1,30.49,33.94Z"/></g></g></svg>