<?xml version="1.0" encoding="utf-8"?>
<!-- Generator: Adobe Illustrator 22.0.1, SVG Export Plug-In . SVG Version: 6.00 Build 0)  -->
<svg version="1.1" id="Layer_1" xmlns="http://www.w3.org/2000/svg" xmlns:xlink="http://www.w3.org/1999/xlink" x="0px" y="0px"
	 viewBox="0 0 154.5 98.4" style="enable-background:new 0 0 154.5 98.4;" xml:space="preserve">
<style type="text/css">
	.st0{fill:#0C151E;}
	.st1{fill:url(#SVGID_1_);}
	.st2{fill:url(#SVGID_2_);}
	.st3{fill:url(#SVGID_3_);}
	.st4{fill:url(#SVGID_4_);}
	.st5{fill:url(#SVGID_5_);}
</style>
<title>Asset 1</title>
<g id="Layer_2_1_">
	<g id="ARTE">
		<path class="st0" d="M7.1,45.5c1-0.6,2.1-1.1,3.3-1.5c1.6-0.5,3.3-0.8,5-0.8c2.2,0,4.3,0.4,6.3,1.3c1.8,0.8,3.4,2,4.7,3.5
			c1.3,1.6,2.3,3.5,2.9,5.5c0.7,2.3,1,4.6,1,7c0,2.5-0.4,4.9-1.2,7.2c-0.7,2-1.9,3.9-3.3,5.4c-1.5,1.5-3.2,2.7-5.2,3.4
			c-2.2,0.8-4.5,1.2-6.9,1.2c-2.4,0-4.9-0.2-7.3-0.6c-2.1-0.4-3.8-0.8-5.2-1.2V28.8l5.9-1V45.5z M7.1,71.9c0.8,0.2,1.7,0.4,2.5,0.5
			c1.3,0.2,2.7,0.2,4,0.2c2.9,0.1,5.7-1,7.6-3.1c1.9-2.1,2.8-5.1,2.9-8.9c0-1.6-0.2-3.2-0.5-4.8c-0.3-1.4-0.9-2.7-1.6-3.8
			c-0.8-1.1-1.8-2-3-2.5c-1.4-0.6-2.8-1-4.3-0.9c-1.5,0-3,0.3-4.4,0.8C9,49.7,8,50.3,7.1,51V71.9z"/>
		<path class="st0" d="M41.4,38.1c-1,0-2-0.3-2.7-1c-0.8-0.7-1.2-1.8-1.1-2.8c-0.1-1.1,0.4-2.1,1.1-2.8c0.7-0.7,1.7-1,2.7-1
			c1,0,2,0.3,2.7,1c0.8,0.7,1.2,1.8,1.1,2.8c0,1-0.4,2-1.1,2.8C43.4,37.7,42.4,38.1,41.4,38.1z M44.4,77h-5.9V44h5.9V77z"/>
		<path class="st0" d="M57.5,38.1c-1,0-2-0.3-2.7-1c-0.8-0.7-1.2-1.8-1.1-2.8c-0.1-1.1,0.4-2.1,1.1-2.8c1.5-1.4,3.9-1.4,5.4,0
			c0.8,0.7,1.2,1.8,1.1,2.8c0,1-0.4,2-1.1,2.8C59.4,37.7,58.5,38.1,57.5,38.1z M60.5,77h-5.9V44h5.9V77z"/>
		<path class="st0" d="M70.6,45c1.4-0.3,3.2-0.7,5.4-1.1c2.6-0.4,5.1-0.6,7.7-0.6c2.2-0.1,4.4,0.3,6.5,1.1c1.6,0.7,3.1,1.7,4.2,3.1
			c1.1,1.4,1.8,3.1,2.2,4.8c0.4,2,0.7,4.1,0.6,6.2V77h-5.9V59.7c0-1.7-0.1-3.5-0.4-5.2c-0.2-1.2-0.7-2.4-1.4-3.5
			c-0.6-0.9-1.5-1.6-2.5-1.9c-1.3-0.4-2.6-0.6-3.9-0.6c-0.6,0-1.3,0-2,0.1s-1.3,0.1-1.9,0.2S78,48.9,77.5,49l-1,0.2V77h-5.9L70.6,45
			z"/>
		<path class="st0" d="M0,97.2l0.5-0.6c0.6,0.7,1.5,1.1,2.4,1.1c1.3,0,2-0.7,2-1.5c0-2.1-4.8-0.9-4.8-3.6c0-1.2,1-2.1,2.7-2.1
			c1,0,2,0.4,2.7,1.1l-0.5,0.6c-0.6-0.7-1.4-1-2.2-1c-1.2,0-1.8,0.6-1.8,1.4c0,1.9,4.8,0.7,4.8,3.6c0,1.2-0.9,2.2-2.8,2.2
			C1.8,98.5,0.7,98.1,0,97.2z"/>
		<path class="st0" d="M12.1,94.5c0.2-2,2-3.5,4-3.3c2,0.2,3.5,2,3.3,4c-0.2,1.9-1.8,3.3-3.6,3.3c-2,0-3.6-1.7-3.6-3.7
			C12.1,94.7,12.1,94.6,12.1,94.5z M18.5,94.8c0-1.5-1-2.9-2.8-2.9S13,93.3,13,94.8c0,1.5,1,2.9,2.8,2.9S18.5,96.3,18.5,94.8z"/>
		<path class="st0" d="M26.1,96.8v-9H27v8.9c0,0.6,0.2,1,0.8,1c0.3,0,0.6-0.1,0.8-0.4l0.3,0.6c-0.3,0.3-0.8,0.5-1.3,0.5
			C26.6,98.4,26.1,97.8,26.1,96.8z"/>
		<path class="st0" d="M39.9,98.3v-1.1c-0.7,0.8-1.7,1.3-2.7,1.3c-1.2,0.2-2.2-0.6-2.4-1.8c0-0.2,0-0.4,0-0.7v-5.3h0.8v5.1
			c0,1.5,0.7,1.9,1.8,1.9c1,0,1.9-0.5,2.5-1.2v-5.8h0.8v7.6L39.9,98.3z"/>
		<path class="st0" d="M48.1,96.8v-5.4h-1.2v-0.7h1.2v-2.1H49v2.1h1.5v0.7H49v5.3c0,0.6,0.2,1,0.8,1c0.3,0,0.6-0.1,0.8-0.4l0.3,0.6
			c-0.3,0.3-0.8,0.5-1.3,0.5C48.6,98.4,48.1,97.8,48.1,96.8z"/>
		<path class="st0" d="M56.7,88.9c0-0.3,0.4-0.6,0.7-0.5c0.3,0,0.5,0.3,0.5,0.5c0,0.3-0.4,0.6-0.7,0.5C57,89.4,56.8,89.2,56.7,88.9z
			 M57,98.3v-7.6h0.8v7.6L57,98.3z"/>
		<path class="st0" d="M64.6,94.5c0.2-2,2-3.5,4-3.3c2,0.2,3.5,2,3.3,4c-0.2,1.9-1.8,3.3-3.6,3.3c-2,0-3.6-1.7-3.6-3.7
			C64.6,94.7,64.6,94.6,64.6,94.5z M70.9,94.8c0-1.5-1-2.9-2.8-2.9s-2.8,1.4-2.8,2.9s1,2.9,2.8,2.9S71,96.3,70.9,94.8L70.9,94.8z"/>
		<path class="st0" d="M83.7,98.3v-5.1c0-1.4-0.7-1.9-1.8-1.9c-1,0-1.9,0.5-2.5,1.3v5.7h-0.8v-7.6h0.8v1.1c0.7-0.8,1.7-1.3,2.7-1.3
			c1.5,0,2.4,0.8,2.4,2.5v5.3L83.7,98.3z"/>
		<path class="st0" d="M91.1,97.2l0.5-0.6c0.6,0.7,1.5,1.1,2.4,1.1c1.3,0,2-0.7,2-1.5c0-2.1-4.8-0.9-4.8-3.6c0-1.2,1-2.1,2.7-2.1
			c1,0,2,0.4,2.7,1.1l-0.5,0.6c-0.6-0.7-1.4-1-2.2-1c-1.2,0-1.9,0.6-1.9,1.4c0,1.9,4.8,0.7,4.8,3.6c0,1.2-0.9,2.2-2.8,2.2
			C92.9,98.5,91.8,98.1,91.1,97.2z"/>
		
			<linearGradient id="SVGID_1_" gradientUnits="userSpaceOnUse" x1="109.5599" y1="44.7501" x2="124.1999" y2="68.8901" gradientTransform="matrix(1 0 0 -1 0 97.89)">
			<stop  offset="0" style="stop-color:#9800D1"/>
			<stop  offset="0.25" style="stop-color:#9800D1"/>
			<stop  offset="0.48" style="stop-color:#7F00B3"/>
			<stop  offset="0.75" style="stop-color:#660094"/>
			<stop  offset="0.9" style="stop-color:#5D0089"/>
		</linearGradient>
		<path class="st1" d="M99.5,24.1c-0.3,0-0.4,0.2-0.2,0.4l13.4,23.2c0.2,0.2,0.4,0.4,0.7,0.4h26.8c0.3,0,0.4-0.2,0.2-0.4l-13.3-23.2
			c-0.2-0.2-0.4-0.4-0.7-0.4H99.5z"/>
		
			<linearGradient id="SVGID_2_" gradientUnits="userSpaceOnUse" x1="113.1452" y1="85.84" x2="154.4968" y2="85.84" gradientTransform="matrix(1 0 0 -1 0 97.89)">
			<stop  offset="0" style="stop-color:#17B1CF"/>
			<stop  offset="1.000000e-02" style="stop-color:#1FB2CF"/>
			<stop  offset="9.000000e-02" style="stop-color:#47B8D0"/>
			<stop  offset="0.15" style="stop-color:#64BCD1"/>
			<stop  offset="0.21" style="stop-color:#76BFD1"/>
			<stop  offset="0.25" style="stop-color:#7CC0D1"/>
			<stop  offset="0.39" style="stop-color:#6AADB2"/>
			<stop  offset="0.62" style="stop-color:#4F8F81"/>
			<stop  offset="0.8" style="stop-color:#3D7D62"/>
			<stop  offset="0.9" style="stop-color:#377657"/>
		</linearGradient>
		<path class="st2" d="M113.4,0c-0.3,0-0.4,0.2-0.2,0.4l13.5,23.3c0.2,0.2,0.4,0.4,0.7,0.4h26.8c0.3,0,0.4-0.2,0.2-0.4L141,0.4
			c-0.2-0.2-0.4-0.4-0.7-0.4H113.4z"/>
		
			<linearGradient id="SVGID_3_" gradientUnits="userSpaceOnUse" x1="100.413" y1="61.1071" x2="120.173" y2="81.1371" gradientTransform="matrix(1 0 0 -1 0 97.89)">
			<stop  offset="0" style="stop-color:#F60094"/>
			<stop  offset="0.25" style="stop-color:#F60094"/>
			<stop  offset="0.26" style="stop-color:#F40093"/>
			<stop  offset="0.56" style="stop-color:#C30089"/>
			<stop  offset="0.78" style="stop-color:#A40082"/>
			<stop  offset="0.9" style="stop-color:#990080"/>
		</linearGradient>
		<path class="st3" d="M112.8,47.7c0,0.1,0.2,0.2,0.3,0.1c0.1,0,0.1-0.1,0.1-0.1l13.5-23.2c0.1-0.3,0.1-0.6,0-0.8L113.2,0.4
			c-0.1-0.2-0.3-0.2-0.5,0L99.3,23.7c-0.1,0.3-0.1,0.6,0,0.8L112.8,47.7z"/>
		
			<linearGradient id="SVGID_4_" gradientUnits="userSpaceOnUse" x1="127.0525" y1="73.8489" x2="154.5275" y2="73.8489" gradientTransform="matrix(1 0 0 -1 0 97.89)">
			<stop  offset="0" style="stop-color:#1157BF"/>
			<stop  offset="0.25" style="stop-color:#1157BF"/>
			<stop  offset="0.43" style="stop-color:#1143AB"/>
			<stop  offset="0.73" style="stop-color:#10268C"/>
			<stop  offset="0.9" style="stop-color:#101B81"/>
		</linearGradient>
		<path class="st4" d="M140.5,47.7c0,0.1,0.2,0.2,0.3,0.1c0.1,0,0.1-0.1,0.1-0.1l13.5-23.2c0.1-0.3,0.1-0.6,0-0.8L141,0.4
			c-0.1-0.2-0.3-0.2-0.5,0l-13.4,23.3c-0.1,0.3-0.1,0.6,0,0.8L140.5,47.7z"/>
		
			<linearGradient id="SVGID_5_" gradientUnits="userSpaceOnUse" x1="101.7801" y1="76.1497" x2="143.6201" y2="98.4697" gradientTransform="matrix(1 0 0 -1 0 97.89)">
			<stop  offset="0" style="stop-color:#3DE4EE"/>
			<stop  offset="0.25" style="stop-color:#3DE4EE"/>
			<stop  offset="0.4" style="stop-color:#32B7D0"/>
			<stop  offset="0.58" style="stop-color:#2586B0"/>
			<stop  offset="0.71" style="stop-color:#1E679C"/>
			<stop  offset="0.79" style="stop-color:#1B5C95"/>
		</linearGradient>
		<polygon class="st5" points="99.1,24.1 126.9,24.1 140.7,0 113,0 		"/>
	</g>
</g>
</svg>
