<svg xmlns="http://www.w3.org/2000/svg" viewBox="0 0 215.39 43.89"><defs><style>.cls-1{fill:#0c151e;fill-rule:evenodd;}</style></defs><title>Asset 23</title><g id="Layer_2" data-name="Layer 2"><g id="ARTE"><path class="cls-1" d="M42,3.75H26.13V0L0,4V39.39l26.13,4.5V38.34H42a1.82,1.82,0,0,0,1.91-1.72V5.47A1.82,1.82,0,0,0,42,3.75ZM18.18,30.22,14.62,30l-2.41-6.32-2.4,6.08-3.28-.29,3.8-7.32L6.82,14.29l3.37-.19,2.12,5.82,2.5-6.06,3.37-.19-4.09,8.26Zm24.1,6.68H26.08l0-3H30V30.49H26l0-2h4V25H26V23h4V19.5h-4v-2h4V14h-4V12h4V8.51h-4V5.37H42.28Z"/><path d="M70.09,40.16V26.9c0-.32,0-1.24.14-2.75h0c-.27.7-.49,1.24-.67,1.63L62.86,40.16h-.41L55.78,25.85a10.28,10.28,0,0,1-.61-1.75H55.1c.06.83.09,1.66.09,2.48V40.16H53.9V21.48h1.2l7,15c0,.09.09.21.14.35s.11.3.17.45.18.47.27.75h.08l.15-.42s.15-.44.44-1.23l6.86-14.94h1.15V40.16Z"/><path d="M76.45,23.46a1,1,0,0,1-.69-.29,1,1,0,0,1-.3-.73.91.91,0,0,1,.3-.7,1.08,1.08,0,0,1,.69-.26,1,1,0,0,1,.71.26.88.88,0,0,1,.3.7,1,1,0,0,1-.3.72A1,1,0,0,1,76.45,23.46Zm-.59,16.7V26.82h1.2V40.16Z"/><path d="M90,39.57a6.61,6.61,0,0,1-3.54.91A5.58,5.58,0,0,1,82,38.61a7,7,0,0,1-1.67-4.89,7.34,7.34,0,0,1,1.87-5.2,6.28,6.28,0,0,1,4.82-2,7.29,7.29,0,0,1,3,.63v1.35a5.86,5.86,0,0,0-3.14-.88,4.79,4.79,0,0,0-3.8,1.68,6.46,6.46,0,0,0-1.46,4.37A6.23,6.23,0,0,0,83,37.81a4.41,4.41,0,0,0,3.53,1.58A5.85,5.85,0,0,0,90,38.32Z"/><path d="M99.46,28.07a2.3,2.3,0,0,0-1.4-.43,3.11,3.11,0,0,0-2.65,1.63,8.4,8.4,0,0,0-1.06,4.62v6.27H93.17V26.82h1.18v2.95h.05a4.87,4.87,0,0,1,1.44-2.37,3.45,3.45,0,0,1,2.3-.84,3.65,3.65,0,0,1,1.32.23Z"/><path d="M106.8,40.48a5.85,5.85,0,0,1-4.62-1.92,7.28,7.28,0,0,1-1.7-5,7.22,7.22,0,0,1,1.78-5.19,6.14,6.14,0,0,1,4.68-1.88,5.74,5.74,0,0,1,4.51,1.86,7.54,7.54,0,0,1,1.65,5.16,7.33,7.33,0,0,1-1.69,5A5.79,5.79,0,0,1,106.8,40.48Zm.09-12.89a4.78,4.78,0,0,0-3.76,1.58,6.49,6.49,0,0,0-1.4,4.42,6.24,6.24,0,0,0,1.37,4.21,4.67,4.67,0,0,0,3.74,1.59,4.55,4.55,0,0,0,3.71-1.57,6.54,6.54,0,0,0,1.3-4.33,6.56,6.56,0,0,0-1.3-4.38A4.52,4.52,0,0,0,106.89,27.59Z"/><path d="M115.72,39.57V38.12a5.13,5.13,0,0,0,1.64.93,5.32,5.32,0,0,0,1.67.34c2.09,0,3.14-.86,3.14-2.57a2,2,0,0,0-.69-1.51A8.21,8.21,0,0,0,119.24,34a7.5,7.5,0,0,1-2.69-1.73,3.15,3.15,0,0,1-.78-2.16A3.2,3.2,0,0,1,117,27.5a4.7,4.7,0,0,1,3.06-1,5.83,5.83,0,0,1,3,.71v1.35a5.6,5.6,0,0,0-3.08-1,3.14,3.14,0,0,0-2.12.68,2.23,2.23,0,0,0-.81,1.78,2.27,2.27,0,0,0,.51,1.54A6.65,6.65,0,0,0,119.77,33a10.17,10.17,0,0,1,2.87,1.74,2.94,2.94,0,0,1,.78,2.13,3.36,3.36,0,0,1-1.19,2.63,4.88,4.88,0,0,1-3.29,1A5.42,5.42,0,0,1,115.72,39.57Z"/><path d="M132.12,40.48a5.85,5.85,0,0,1-4.62-1.92,7.28,7.28,0,0,1-1.7-5,7.22,7.22,0,0,1,1.78-5.19,6.14,6.14,0,0,1,4.68-1.88,5.74,5.74,0,0,1,4.51,1.86,7.54,7.54,0,0,1,1.65,5.16,7.33,7.33,0,0,1-1.69,5A5.79,5.79,0,0,1,132.12,40.48Zm.09-12.89a4.78,4.78,0,0,0-3.76,1.58,6.49,6.49,0,0,0-1.4,4.42,6.24,6.24,0,0,0,1.37,4.21,4.67,4.67,0,0,0,3.74,1.59,4.55,4.55,0,0,0,3.71-1.57,6.54,6.54,0,0,0,1.3-4.33,6.56,6.56,0,0,0-1.3-4.38A4.52,4.52,0,0,0,132.21,27.59Z"/><path d="M146.85,21.67a2.36,2.36,0,0,0-1.46-.38c-1.64,0-2.46,1.11-2.46,3.31v2.22h3.53v1.09h-3.53V40.16h-1.2V27.91h-2.4V26.82h2.4V24.5a4.42,4.42,0,0,1,1.06-3.21,3.57,3.57,0,0,1,2.65-1.09,3.39,3.39,0,0,1,1.41.25Z"/><path d="M154.36,40a4.06,4.06,0,0,1-1.75.45c-2,0-3-1.18-3-3.55v-9h-2.4V26.82h2.4V23.35l.6-.21.6-.19v3.87h3.51v1.09h-3.51v8.81a3.58,3.58,0,0,0,.43,2,1.7,1.7,0,0,0,1.48.62,3.31,3.31,0,0,0,1.6-.49Z"/><path d="M164.57,40.16V21.48h8.73v1.18h-7.44v7.49h6.91v1.17h-6.91V39h7.87v1.18Z"/><path d="M181.78,33.62l4.35,6.54h-1.52l-3.52-5.63H181l-.47.74a3.85,3.85,0,0,1-.22.35l-2.95,4.54H176l4.45-6.52L176,26.82h1.41l3,4.78c.38.61.61,1,.69,1.14h0l.67-1.09,3.1-4.83h1.4Z"/><path d="M197.52,39.57a6.67,6.67,0,0,1-3.55.91,5.59,5.59,0,0,1-4.39-1.87,7.05,7.05,0,0,1-1.66-4.89,7.34,7.34,0,0,1,1.87-5.2,6.28,6.28,0,0,1,4.82-2,7.29,7.29,0,0,1,3,.63v1.35a5.86,5.86,0,0,0-3.14-.88,4.79,4.79,0,0,0-3.8,1.68,6.41,6.41,0,0,0-1.46,4.37,6.23,6.23,0,0,0,1.33,4.17A4.4,4.4,0,0,0,194,39.39a5.88,5.88,0,0,0,3.5-1.07Z"/><path d="M201,33.54a6.6,6.6,0,0,0,1.27,4.3,4.25,4.25,0,0,0,3.48,1.55,7.08,7.08,0,0,0,4.38-1.66V39a7.82,7.82,0,0,1-4.63,1.47,5.21,5.21,0,0,1-4.16-1.85,7.76,7.76,0,0,1-1.59-5.22,7.42,7.42,0,0,1,1.66-4.92,5.33,5.33,0,0,1,4.31-2,4.51,4.51,0,0,1,3.82,1.75A7.65,7.65,0,0,1,210.88,33v.54Zm8.62-1.1a5.87,5.87,0,0,0-1.11-3.58,3.43,3.43,0,0,0-2.84-1.27,4.14,4.14,0,0,0-3.1,1.25,6,6,0,0,0-1.52,3.6Z"/><path d="M214.19,40.16V20.41h1.2V40.16Z"/></g></g></svg>