<svg xmlns="http://www.w3.org/2000/svg" viewBox="0 0 211.82 32.24"><defs><style>.cls-1,.cls-3{fill:#0c151e;}.cls-1{fill-rule:evenodd;}.cls-2{fill:none;stroke:#0c151e;stroke-linecap:round;stroke-linejoin:round;}</style></defs><title>Asset 27</title><g id="Layer_2" data-name="Layer 2"><g id="ARTE"><path class="cls-1" d="M103.94,28.56l-1.7-1.46c-1-.85-2-1.7-2.95-2.54-.15-.12-.14-.21,0-.36a15.13,15.13,0,0,0,2.55-10.38A15.11,15.11,0,0,0,96.1,3.45,15.41,15.41,0,0,0,86.3,0l-.67,0a14.79,14.79,0,0,0-4.26.8,15.2,15.2,0,0,0-7.31,5.23,15.14,15.14,0,0,0-2.73,13.41A15,15,0,0,0,77,27.9a15.54,15.54,0,0,0,14.73,2.22A15.13,15.13,0,0,0,95.57,28c.11-.08.19-.15.33,0,.89.76,1.8,1.51,2.7,2.27l2.22,1.87c.1.08.18.16.31,0q1.41-1.69,2.83-3.37C104,28.7,104,28.65,103.94,28.56ZM86.36,25.08a9.55,9.55,0,1,1,9.56-9.54A9.56,9.56,0,0,1,86.36,25.08Z"/><path class="cls-1" d="M86.35,21.66a6.12,6.12,0,1,1,6.14-6.13A6.12,6.12,0,0,1,86.35,21.66Z"/><path class="cls-1" d="M11.74,2.78a11.76,11.76,0,0,1,7.66,2.6,11.73,11.73,0,0,1,3.71,6,13.66,13.66,0,0,1-.77,10,.3.3,0,0,0,.1.44c1,.87,2.06,1.76,3.1,2.62.2.16.2.27,0,.45-1,1.16-2,2.32-2.95,3.49-.18.22-.28.16-.45,0l-3-2.56c-.16-.14-.27-.21-.49-.05a11.08,11.08,0,0,1-6.26,2.07,12,12,0,0,1-6.27-1.3A11,11,0,0,1,.69,19.68,14.08,14.08,0,0,1,1.87,8.23a10.53,10.53,0,0,1,8.46-5.39A13.3,13.3,0,0,1,11.74,2.78Zm6,12.81c0-.59,0-1-.07-1.4a8.91,8.91,0,0,0-1-3.57A5.32,5.32,0,0,0,12,7.73a5.18,5.18,0,0,0-5.13,3.06,9.53,9.53,0,0,0-.95,5.29,9.42,9.42,0,0,0,1,3.75,5.43,5.43,0,0,0,3.23,2.75,5.66,5.66,0,0,0,6.69-2.85A9,9,0,0,0,17.76,15.59Z"/><path class="cls-1" d="M53.71,19.64l-2.08,1.95c-.13.12-.1.27-.1.41,0,1.6,0,3.19,0,4.79,0,.28-.06.37-.36.37-1.45,0-2.9,0-4.35,0-.26,0-.36-.05-.35-.33q0-11.5,0-23c0-.3.11-.33.36-.33,1.45,0,2.9,0,4.35,0,.3,0,.38.08.38.38q0,5.62,0,11.24v.35c.38-.35.8-.68,1.16-1.07,1.45-1.51,2.88-3,4.31-4.56a.43.43,0,0,1,.33-.18h5.92l.09.05L62,11.1q-2.2,2.28-4.42,4.55a.38.38,0,0,0-.06.55c2.14,3.52,4.26,7.05,6.39,10.57.06.11.22.22.13.34s-.22,0-.33,0H58.55a.53.53,0,0,1-.54-.3q-2-3.45-4.1-6.88Z"/><path class="cls-1" d="M33,15.34c0,3.81,0,7.61,0,11.42,0,.32-.08.4-.4.4-1.48,0-2.95,0-4.43,0-.29,0-.35-.09-.35-.36q0-11.49,0-23c0-.28.07-.34.34-.34,1.48,0,3,0,4.46,0,.3,0,.38.07.37.38C33,7.7,33,11.52,33,15.34Z"/><path class="cls-1" d="M42.29,18.42c0,2.79,0,5.58,0,8.37,0,.28-.06.37-.35.37-1.48,0-2.95,0-4.43,0-.25,0-.32-.07-.32-.32q0-8.46,0-16.9c0-.23.05-.31.3-.31H42c.28,0,.31.11.31.34C42.28,12.78,42.29,15.6,42.29,18.42Z"/><path class="cls-1" d="M39.77,3.47H42c.2,0,.27.06.27.27q0,1.76,0,3.51c0,.19-.06.25-.25.25h-4.6c-.19,0-.25,0-.25-.24,0-1.18,0-2.35,0-3.52,0-.25.1-.27.3-.27Z"/><line class="cls-2" x1="123.9" y1="2.13" x2="123.9" y2="27.63"/><path class="cls-3" d="M143.43,19.71a5.34,5.34,0,0,0,.54,2,4,4,0,0,0,1.12,1.36,4.46,4.46,0,0,0,1.58.76,7.43,7.43,0,0,0,1.92.24,6.41,6.41,0,0,0,2.07-.3,4,4,0,0,0,1.42-.81,3.37,3.37,0,0,0,.81-1.18,4,4,0,0,0,.26-1.42,2.79,2.79,0,0,0-.48-1.7,3.64,3.64,0,0,0-1.23-1.06A8.08,8.08,0,0,0,149.7,17c-.66-.16-1.33-.33-2-.48s-1.36-.35-2-.56a6.32,6.32,0,0,1-1.74-.88,4.19,4.19,0,0,1-1.24-1.4,4.57,4.57,0,0,1-.47-2.18,4.36,4.36,0,0,1,.39-1.8,4.45,4.45,0,0,1,1.14-1.54,5.59,5.59,0,0,1,1.91-1.07,7.88,7.88,0,0,1,2.64-.4,7.6,7.6,0,0,1,2.65.42,5.13,5.13,0,0,1,1.88,1.16A4.62,4.62,0,0,1,153.94,10a5.63,5.63,0,0,1,.38,2.06H152.7a4,4,0,0,0-.36-1.76,3.22,3.22,0,0,0-1-1.22,4,4,0,0,0-1.42-.7,6,6,0,0,0-1.64-.23,5.81,5.81,0,0,0-2.18.36,4,4,0,0,0-1.41.94,3.14,3.14,0,0,0-.8,2.66,2.46,2.46,0,0,0,.7,1.4,4.59,4.59,0,0,0,1.35.86,10.27,10.27,0,0,0,1.75.55l2,.45a17.19,17.19,0,0,1,1.93.56,5.7,5.7,0,0,1,1.66.87,3.93,3.93,0,0,1,1.16,1.41,4.73,4.73,0,0,1,.43,2.15,4.64,4.64,0,0,1-1.72,3.86,7.51,7.51,0,0,1-4.83,1.37,9,9,0,0,1-2.59-.36,5.56,5.56,0,0,1-2.07-1.1,5,5,0,0,1-1.36-1.81,6.32,6.32,0,0,1-.48-2.56Z"/><path class="cls-3" d="M158.65,19a6.82,6.82,0,0,0,.28,2,4.74,4.74,0,0,0,.81,1.62,3.86,3.86,0,0,0,1.36,1.09,4.51,4.51,0,0,0,4.4-.36,3.7,3.7,0,0,0,1.4-2.19h1.67a8.35,8.35,0,0,1-.72,1.7,5.17,5.17,0,0,1-1.13,1.37,4.44,4.44,0,0,1-1.59.91,6.33,6.33,0,0,1-2.14.33,6.26,6.26,0,0,1-2.67-.53,4.93,4.93,0,0,1-1.84-1.43,6,6,0,0,1-1.07-2.14,9.81,9.81,0,0,1-.35-2.65,8.58,8.58,0,0,1,.41-2.67,6.62,6.62,0,0,1,1.17-2.18,5.4,5.4,0,0,1,4.35-2,5.14,5.14,0,0,1,4.18,1.83,8,8,0,0,1,1.5,5.32Zm8.42-1.25a5.76,5.76,0,0,0-.26-1.78,4.11,4.11,0,0,0-.77-1.45,3.78,3.78,0,0,0-1.28-1,4.18,4.18,0,0,0-1.77-.36,4.07,4.07,0,0,0-1.76.37,4,4,0,0,0-1.29,1,4.89,4.89,0,0,0-.86,1.45,6.62,6.62,0,0,0-.43,1.74Z"/><path class="cls-3" d="M173.08,25.07h-1.5V12.16h1.5V14a9.64,9.64,0,0,1,1.85-1.55,4.27,4.27,0,0,1,2.31-.59,5.81,5.81,0,0,1,2.22.41,3.79,3.79,0,0,1,1.72,1.43,3.27,3.27,0,0,1,.56,1.43,15,15,0,0,1,.08,1.53v8.45h-1.49V16.65a3.83,3.83,0,0,0-.78-2.62,3.27,3.27,0,0,0-2.56-.87,3.64,3.64,0,0,0-1.27.21,4.16,4.16,0,0,0-1,.56,4.21,4.21,0,0,0-.78.8,3.61,3.61,0,0,0-.5.95,4.51,4.51,0,0,0-.27,1.19,12.19,12.19,0,0,0,0,1.25Z"/><path class="cls-3" d="M186.31,21a3.77,3.77,0,0,0,1.26,2.36,5.25,5.25,0,0,0,4,.48,2.77,2.77,0,0,0,1-.53,2.34,2.34,0,0,0,.59-.76,2.12,2.12,0,0,0,.2-.9,1.68,1.68,0,0,0-.61-1.41,4.94,4.94,0,0,0-1.53-.72c-.62-.17-1.28-.32-2-.45a9.38,9.38,0,0,1-2-.56,3.85,3.85,0,0,1-1.53-1.07,2.87,2.87,0,0,1-.61-2,3.35,3.35,0,0,1,1.18-2.65,4.94,4.94,0,0,1,3.35-1,5.72,5.72,0,0,1,3.4.93,4.25,4.25,0,0,1,1.58,3.13h-1.52A2.8,2.8,0,0,0,192,13.77a4.19,4.19,0,0,0-2.35-.61,3.34,3.34,0,0,0-2.17.61,2,2,0,0,0-.75,1.61,1.56,1.56,0,0,0,.61,1.33,5,5,0,0,0,1.53.75c.62.19,1.28.36,2,.51a10.07,10.07,0,0,1,2,.63,4.57,4.57,0,0,1,1.53,1.11,2.87,2.87,0,0,1,.61,1.95,3.26,3.26,0,0,1-.4,1.63,3.41,3.41,0,0,1-1.09,1.18,5.11,5.11,0,0,1-1.66.71,8.65,8.65,0,0,1-2.1.24,5.54,5.54,0,0,1-2-.34,4.24,4.24,0,0,1-2.48-2.33,4.66,4.66,0,0,1-.4-1.72Z"/><path class="cls-3" d="M198.81,19a6.82,6.82,0,0,0,.28,2,4.74,4.74,0,0,0,.81,1.62,3.86,3.86,0,0,0,1.36,1.09,4.51,4.51,0,0,0,4.4-.36,3.7,3.7,0,0,0,1.4-2.19h1.67a8.35,8.35,0,0,1-.72,1.7,5.33,5.33,0,0,1-1.12,1.37,4.58,4.58,0,0,1-1.6.91,6.33,6.33,0,0,1-2.14.33,6.26,6.26,0,0,1-2.67-.53,4.93,4.93,0,0,1-1.84-1.43,6,6,0,0,1-1.07-2.14,9.81,9.81,0,0,1-.35-2.65,8.58,8.58,0,0,1,.41-2.67,6.62,6.62,0,0,1,1.17-2.18,5.4,5.4,0,0,1,4.35-2,5.13,5.13,0,0,1,4.18,1.83,8,8,0,0,1,1.5,5.32Zm8.42-1.25a5.76,5.76,0,0,0-.26-1.78,4.11,4.11,0,0,0-.77-1.45,3.78,3.78,0,0,0-1.28-1,4.18,4.18,0,0,0-1.77-.36,3.83,3.83,0,0,0-3.05,1.37,4.89,4.89,0,0,0-.86,1.45,6.62,6.62,0,0,0-.43,1.74Z"/><path class="cls-3" d="M105.15,6.19a1.71,1.71,0,0,1-.65-.13A1.66,1.66,0,0,1,104,5.7a1.61,1.61,0,0,1-.36-.53,1.57,1.57,0,0,1-.13-.65,1.61,1.61,0,0,1,.13-.65,1.57,1.57,0,0,1,.36-.52A1.66,1.66,0,0,1,104.5,3a1.54,1.54,0,0,1,.65-.13,1.56,1.56,0,0,1,.64.13,1.77,1.77,0,0,1,.53.36,1.73,1.73,0,0,1,.36.52,1.79,1.79,0,0,1,.13.65,1.75,1.75,0,0,1-.13.65,1.71,1.71,0,0,1-.89.89A1.74,1.74,0,0,1,105.15,6.19Zm0-.22a1.33,1.33,0,0,0,1-.42,1.44,1.44,0,0,0,.29-.46,1.67,1.67,0,0,0,0-1.14,1.39,1.39,0,0,0-.29-.45,1.35,1.35,0,0,0-.44-.31,1.51,1.51,0,0,0-1.13,0,1.4,1.4,0,0,0-.73.76,1.38,1.38,0,0,0-.11.57,1.38,1.38,0,0,0,.11.57,1.29,1.29,0,0,0,.29.46,1.4,1.4,0,0,0,.44.31A1.52,1.52,0,0,0,105.15,6Zm.83-.52h-.28l-.53-.86h-.42v.86h-.22V3.59h.81a.8.8,0,0,1,.51.13.46.46,0,0,1,.15.36.6.6,0,0,1,0,.24.44.44,0,0,1-.12.15.48.48,0,0,1-.19.09.8.8,0,0,1-.23,0Zm-.88-1h.21l.22,0a.34.34,0,0,0,.16-.1.33.33,0,0,0,.06-.21.29.29,0,0,0,0-.17.21.21,0,0,0-.11-.1.33.33,0,0,0-.15,0l-.16,0h-.54v.66Z"/><path class="cls-3" d="M210.46,9.25a1.24,1.24,0,0,1-.54-.11,1.42,1.42,0,0,1-.43-.29,1.37,1.37,0,0,1-.3-.44,1.32,1.32,0,0,1-.1-.53,1.35,1.35,0,0,1,.1-.53,1.33,1.33,0,0,1,.3-.43,1.45,1.45,0,0,1,.43-.3,1.36,1.36,0,0,1,1.07,0,1.45,1.45,0,0,1,.43.3,1.33,1.33,0,0,1,.3.43,1.35,1.35,0,0,1,.1.53,1.32,1.32,0,0,1-.1.53,1.37,1.37,0,0,1-.3.44,1.42,1.42,0,0,1-.43.29A1.23,1.23,0,0,1,210.46,9.25Zm0-.18a1.18,1.18,0,0,0,.46-.09,1.16,1.16,0,0,0,.36-.25,1.36,1.36,0,0,0,.24-.38,1.19,1.19,0,0,0,.09-.47,1.23,1.23,0,0,0-.09-.47,1.18,1.18,0,0,0-.24-.37,1,1,0,0,0-.36-.25,1.18,1.18,0,0,0-.46-.09,1.23,1.23,0,0,0-.47.09,1,1,0,0,0-.36.25,1.18,1.18,0,0,0-.24.37,1.23,1.23,0,0,0-.09.47,1.19,1.19,0,0,0,.09.47,1.36,1.36,0,0,0,.24.38A1.16,1.16,0,0,0,210,9,1.23,1.23,0,0,0,210.46,9.07Zm.68-.42h-.22l-.44-.71h-.34v.71H210V7.12h.67a.59.59,0,0,1,.42.11.37.37,0,0,1,.12.29.36.36,0,0,1,0,.19.27.27,0,0,1-.1.13.35.35,0,0,1-.15.07.63.63,0,0,1-.19,0Zm-.72-.86h.17a.5.5,0,0,0,.18,0,.22.22,0,0,0,.13-.08.22.22,0,0,0,.06-.17.26.26,0,0,0,0-.14.14.14,0,0,0-.09-.08l-.12,0h-.57v.54Z"/></g></g></svg>