<svg xmlns="http://www.w3.org/2000/svg" viewBox="0 0 233.89 48.72"><title>Asset 28</title><g id="Layer_2" data-name="Layer 2"><g id="ARTE"><path d="M74.51,20V6.69c0-.32,0-1.23.14-2.74H74.6c-.27.7-.5,1.24-.68,1.62L67.28,20h-.42L60.19,5.65a10.12,10.12,0,0,1-.61-1.76h-.07q.09,1.26.09,2.49V20H58.31V1.28h1.2l7,15a3.6,3.6,0,0,1,.14.35c.06.15.11.3.17.44s.18.48.28.76h.08l.14-.42.44-1.23L74.6,1.28h1.14V20Z"/><path d="M80.86,3.26A1,1,0,0,1,80.17,3a1,1,0,0,1-.3-.73.87.87,0,0,1,.31-.7,1.06,1.06,0,0,1,1.39,0,.89.89,0,0,1,.31.7,1,1,0,0,1-.3.72A1,1,0,0,1,80.86,3.26ZM80.27,20V6.62h1.2V20Z"/><path d="M94.38,19.37a6.61,6.61,0,0,1-3.54.91,5.58,5.58,0,0,1-4.39-1.87,7.08,7.08,0,0,1-1.67-4.89,7.35,7.35,0,0,1,1.88-5.2,6.27,6.27,0,0,1,4.82-2,7.24,7.24,0,0,1,3,.63V8.27a5.85,5.85,0,0,0-3.14-.89,4.8,4.8,0,0,0-3.8,1.69A6.46,6.46,0,0,0,86,13.44a6.23,6.23,0,0,0,1.34,4.17,4.39,4.39,0,0,0,3.52,1.58,5.83,5.83,0,0,0,3.49-1.07Z"/><path d="M103.88,7.87a2.33,2.33,0,0,0-1.41-.43,3.12,3.12,0,0,0-2.65,1.63,8.4,8.4,0,0,0-1.06,4.62V20H97.58V6.62h1.18v3h0a4.88,4.88,0,0,1,1.45-2.37,3.41,3.41,0,0,1,2.29-.84,3.54,3.54,0,0,1,1.33.23Z"/><path d="M111.21,20.28a5.85,5.85,0,0,1-4.62-1.92,7.28,7.28,0,0,1-1.7-5,7.22,7.22,0,0,1,1.78-5.19,6.17,6.17,0,0,1,4.68-1.88,5.73,5.73,0,0,1,4.51,1.86,7.52,7.52,0,0,1,1.65,5.16,7.38,7.38,0,0,1-1.68,5A5.82,5.82,0,0,1,111.21,20.28Zm.09-12.9A4.81,4.81,0,0,0,107.54,9a6.49,6.49,0,0,0-1.4,4.42,6.25,6.25,0,0,0,1.37,4.21,4.67,4.67,0,0,0,3.74,1.59A4.55,4.55,0,0,0,115,17.62a6.56,6.56,0,0,0,1.3-4.33A6.58,6.58,0,0,0,115,8.91,4.56,4.56,0,0,0,111.3,7.38Z"/><path d="M120.13,19.37V17.92a5.13,5.13,0,0,0,1.64.93,5.32,5.32,0,0,0,1.67.34c2.09,0,3.14-.86,3.14-2.57a2,2,0,0,0-.69-1.51,8.21,8.21,0,0,0-2.24-1.29A7.5,7.5,0,0,1,121,12.09a3.16,3.16,0,0,1-.78-2.17,3.23,3.23,0,0,1,1.25-2.63,4.71,4.71,0,0,1,3.06-1,5.93,5.93,0,0,1,3,.7V8.35a5.62,5.62,0,0,0-3.08-1,3.16,3.16,0,0,0-2.12.69,2.21,2.21,0,0,0-.81,1.78,2.27,2.27,0,0,0,.51,1.54,6.76,6.76,0,0,0,2.24,1.36,10,10,0,0,1,2.87,1.74,2.91,2.91,0,0,1,.78,2.13,3.33,3.33,0,0,1-1.19,2.62,4.86,4.86,0,0,1-3.29,1A5.42,5.42,0,0,1,120.13,19.37Z"/><path d="M136.53,20.28a5.86,5.86,0,0,1-4.62-1.92,7.28,7.28,0,0,1-1.7-5A7.22,7.22,0,0,1,132,8.17a6.17,6.17,0,0,1,4.68-1.88,5.73,5.73,0,0,1,4.51,1.86,7.52,7.52,0,0,1,1.65,5.16,7.38,7.38,0,0,1-1.68,5A5.82,5.82,0,0,1,136.53,20.28Zm.09-12.9A4.81,4.81,0,0,0,132.86,9a6.49,6.49,0,0,0-1.4,4.42,6.25,6.25,0,0,0,1.37,4.21,4.67,4.67,0,0,0,3.74,1.59,4.53,4.53,0,0,0,3.71-1.57,6.56,6.56,0,0,0,1.3-4.33,6.58,6.58,0,0,0-1.29-4.38A4.56,4.56,0,0,0,136.62,7.38Z"/><path d="M151.26,1.47a2.36,2.36,0,0,0-1.46-.38c-1.64,0-2.46,1.11-2.46,3.31V6.62h3.53V7.71h-3.53V20h-1.2V7.71h-2.39V6.62h2.39V4.3a4.47,4.47,0,0,1,1.06-3.21A3.54,3.54,0,0,1,149.85,0a3.39,3.39,0,0,1,1.41.25Z"/><path d="M158.78,19.77a4.11,4.11,0,0,1-1.76.44q-3,0-3-3.54v-9h-2.4V6.62h2.4V3.15l.6-.21.6-.19V6.62h3.52V7.71h-3.52v8.81a3.43,3.43,0,0,0,.44,2,1.65,1.65,0,0,0,1.47.62,3.35,3.35,0,0,0,1.61-.48Z"/><path d="M181.15,20,179,14.14h-8.1L168.78,20h-1.42l7-18.67h1.22l7,18.67ZM175.42,4.32c-.09-.26-.17-.51-.23-.76s-.13-.44-.2-.66h-.05a12.85,12.85,0,0,1-.43,1.4L171.37,13h7.2Z"/><path d="M186.06,18.86h8.61V20H184.11V19.5L193,7.71h-8.22V6.62H195v.32Z"/><path d="M206.68,20V17.53h-.05a4.55,4.55,0,0,1-4.3,2.75q-4.72,0-4.73-6V6.62h1.21V14a6.72,6.72,0,0,0,.9,3.93,3.22,3.22,0,0,0,2.8,1.23,3.76,3.76,0,0,0,3-1.37,5.47,5.47,0,0,0,1.15-3.65V6.62h1.2V20Z"/><path d="M218.44,7.87a2.33,2.33,0,0,0-1.4-.43,3.11,3.11,0,0,0-2.65,1.63,8.4,8.4,0,0,0-1.07,4.62V20h-1.17V6.62h1.17v3h.06a4.87,4.87,0,0,1,1.44-2.37,3.68,3.68,0,0,1,3.62-.61Z"/><path d="M220.71,13.34a6.6,6.6,0,0,0,1.27,4.3,4.28,4.28,0,0,0,3.48,1.55,7.1,7.1,0,0,0,4.38-1.66v1.28a7.79,7.79,0,0,1-4.62,1.47,5.24,5.24,0,0,1-4.17-1.85,7.76,7.76,0,0,1-1.59-5.22,7.42,7.42,0,0,1,1.66-4.92,5.37,5.37,0,0,1,4.32-2A4.47,4.47,0,0,1,229.25,8a7.65,7.65,0,0,1,1.33,4.76v.54Zm8.62-1.1a5.87,5.87,0,0,0-1.11-3.58,3.44,3.44,0,0,0-2.83-1.28,4.17,4.17,0,0,0-3.11,1.26,6,6,0,0,0-1.52,3.6Z"/><path d="M68.86,44.7V36.18c0-.2,0-.79.09-1.76h0c-.18.45-.32.8-.44,1L64.21,44.7H64l-4.29-9.18a7,7,0,0,1-.39-1.13h0q.06.8.06,1.59V44.7h-.83v-12h.77l4.47,9.67c0,.05.06.13.1.22s.07.19.1.29.12.3.18.48h0l.09-.27.29-.79,4.41-9.6h.73v12Z"/><path d="M77.68,44.7V43h0a3.38,3.38,0,0,1-1.19,1.4,3.07,3.07,0,0,1-1.74.52,2.65,2.65,0,0,1-1.93-.69,2.26,2.26,0,0,1-.71-1.73c0-1.49,1-2.4,3-2.71l2.63-.39q0-2.76-2.07-2.76a4.22,4.22,0,0,0-2.75,1.14v-.93a4.07,4.07,0,0,1,1.29-.65,4.84,4.84,0,0,1,1.53-.27,2.59,2.59,0,0,1,2,.83,3.49,3.49,0,0,1,.72,2.38V44.7Zm-2.36-4.27a4.13,4.13,0,0,0-1.89.63,1.95,1.95,0,0,0,0,2.65,1.94,1.94,0,0,0,1.41.5,2.64,2.64,0,0,0,2.06-.92,3.39,3.39,0,0,0,.82-2.36v-.84Z"/><path d="M86.57,44.32a4.24,4.24,0,0,1-2.27.59,3.59,3.59,0,0,1-2.82-1.2,4.56,4.56,0,0,1-1.07-3.14,4.72,4.72,0,0,1,1.2-3.34,4,4,0,0,1,3.1-1.31,4.71,4.71,0,0,1,1.9.41v.87a3.79,3.79,0,0,0-2-.57,3.07,3.07,0,0,0-2.44,1.08,4.12,4.12,0,0,0-.94,2.81,4,4,0,0,0,.86,2.67,2.81,2.81,0,0,0,2.26,1,3.7,3.7,0,0,0,2.24-.69Z"/><path d="M94.45,44.7V39.56a3.64,3.64,0,0,0-.55-2.23,2,2,0,0,0-1.72-.7,2.64,2.64,0,0,0-1.94.86A3.39,3.39,0,0,0,89.4,40V44.7h-.77V32h.77v5.65h0a3.24,3.24,0,0,1,2.95-1.75,2.58,2.58,0,0,1,2.12.9,4,4,0,0,1,.72,2.57V44.7Z"/><path d="M98.18,34a.65.65,0,0,1-.64-.66.56.56,0,0,1,.2-.44.62.62,0,0,1,.44-.18.68.68,0,0,1,.45.17.56.56,0,0,1,.2.45.67.67,0,0,1-.65.66ZM97.8,44.7V36.13h.77V44.7Z"/><path d="M107.14,44.7v-5c0-2.05-.75-3.08-2.23-3.08a2.57,2.57,0,0,0-2,.91,3.27,3.27,0,0,0-.8,2.24V44.7h-.77V36.13h.77v1.56h0A3.09,3.09,0,0,1,105,35.92a2.55,2.55,0,0,1,2.13.93,4.17,4.17,0,0,1,.74,2.64V44.7Z"/><path d="M110.67,40.45a4.24,4.24,0,0,0,.81,2.76,2.72,2.72,0,0,0,2.24,1,4.56,4.56,0,0,0,2.81-1.07V44a5,5,0,0,1-3,.95,3.38,3.38,0,0,1-2.68-1.19,5,5,0,0,1-1-3.35,4.8,4.8,0,0,1,1.07-3.16,3.42,3.42,0,0,1,2.77-1.29,2.89,2.89,0,0,1,2.45,1.13,4.9,4.9,0,0,1,.86,3.06v.34Zm5.53-.7a3.75,3.75,0,0,0-.71-2.3,2.2,2.2,0,0,0-1.82-.82,2.72,2.72,0,0,0-2,.8,3.91,3.91,0,0,0-1,2.32Z"/><path d="M124,44.7v-12h.83V44h4.81v.75Z"/><path d="M131.85,40.45a4.24,4.24,0,0,0,.82,2.76,2.72,2.72,0,0,0,2.24,1,4.56,4.56,0,0,0,2.81-1.07V44a5,5,0,0,1-3,.95,3.36,3.36,0,0,1-2.68-1.19,5,5,0,0,1-1-3.35,4.8,4.8,0,0,1,1.07-3.16,3.42,3.42,0,0,1,2.77-1.29,2.89,2.89,0,0,1,2.45,1.13,4.9,4.9,0,0,1,.86,3.06v.34Zm5.54-.7a3.75,3.75,0,0,0-.71-2.3,2.2,2.2,0,0,0-1.82-.82,2.71,2.71,0,0,0-2,.8,3.91,3.91,0,0,0-1,2.32Z"/><path d="M145.44,44.7V43h0a3.4,3.4,0,0,1-1.2,1.4,3,3,0,0,1-1.73.52,2.64,2.64,0,0,1-1.93-.69,2.26,2.26,0,0,1-.71-1.73c0-1.49,1-2.4,3-2.71l2.64-.39q0-2.76-2.07-2.76a4.24,4.24,0,0,0-2.76,1.14v-.93a4.25,4.25,0,0,1,1.3-.65,4.84,4.84,0,0,1,1.53-.27,2.6,2.6,0,0,1,2.05.83,3.49,3.49,0,0,1,.72,2.38V44.7Zm-2.36-4.27a4,4,0,0,0-1.89.63,1.95,1.95,0,0,0,0,2.65,1.94,1.94,0,0,0,1.41.5,2.65,2.65,0,0,0,2.06-.92,3.39,3.39,0,0,0,.82-2.36v-.84Z"/><path d="M152.83,36.94a1.49,1.49,0,0,0-.91-.28,2,2,0,0,0-1.7,1.05,5.44,5.44,0,0,0-.68,3v4h-.75V36.13h.75V38h0a3.18,3.18,0,0,1,.93-1.52A2.23,2.23,0,0,1,152,36a2.31,2.31,0,0,1,.86.15Z"/><path d="M160.21,44.7v-5c0-2.05-.74-3.08-2.22-3.08a2.56,2.56,0,0,0-2,.91,3.27,3.27,0,0,0-.8,2.24V44.7h-.77V36.13h.77v1.56h0a3.11,3.11,0,0,1,2.93-1.77,2.55,2.55,0,0,1,2.13.93,4.17,4.17,0,0,1,.73,2.64V44.7Z"/><path d="M163.94,34a.65.65,0,0,1-.64-.66.56.56,0,0,1,.2-.44.62.62,0,0,1,.44-.18.68.68,0,0,1,.45.17.56.56,0,0,1,.2.45.67.67,0,0,1-.65.66Zm-.38,10.72V36.13h.77V44.7Z"/><path d="M172.9,44.7v-5c0-2.05-.75-3.08-2.23-3.08a2.57,2.57,0,0,0-2,.91,3.27,3.27,0,0,0-.8,2.24V44.7h-.77V36.13h.77v1.56h0a3.09,3.09,0,0,1,2.92-1.77,2.55,2.55,0,0,1,2.13.93,4.17,4.17,0,0,1,.74,2.64V44.7Z"/><path d="M183.09,44.06A5,5,0,0,1,182,47.6a4.3,4.3,0,0,1-3.28,1.12,5.61,5.61,0,0,1-2.55-.65v-.8a5.32,5.32,0,0,0,2.57.75q3.54,0,3.54-3.75V43.16h0a3.33,3.33,0,0,1-3.09,1.75,3.26,3.26,0,0,1-2.58-1.15,4.72,4.72,0,0,1-1-3.19,5.07,5.07,0,0,1,1.08-3.35,3.54,3.54,0,0,1,2.85-1.3,2.9,2.9,0,0,1,2.74,1.57h0V36.13h.77Zm-.77-4.64a2.77,2.77,0,0,0-.76-2,2.58,2.58,0,0,0-2-.83,2.77,2.77,0,0,0-2.27,1.06,4.29,4.29,0,0,0-.86,2.81,4.21,4.21,0,0,0,.79,2.73,2.54,2.54,0,0,0,2.08,1,2.82,2.82,0,0,0,2.2-.9,3.12,3.12,0,0,0,.82-2.19Z"/><path d="M190.32,44.27v-.94a4.79,4.79,0,0,0,2.61.82,3.38,3.38,0,0,0,2.13-.58,2,2,0,0,0,.73-1.63,2.12,2.12,0,0,0-.49-1.47A9.61,9.61,0,0,0,193.18,39a7.69,7.69,0,0,1-2.31-1.78,2.91,2.91,0,0,1-.48-1.65,2.81,2.81,0,0,1,1-2.16A3.82,3.82,0,0,1,194,32.5a6.68,6.68,0,0,1,2.14.36v.87a5.5,5.5,0,0,0-2.25-.47,2.84,2.84,0,0,0-1.94.62,2,2,0,0,0-.71,1.57,2.08,2.08,0,0,0,.49,1.46,9.45,9.45,0,0,0,2.11,1.48,7.52,7.52,0,0,1,2.24,1.7,2.75,2.75,0,0,1,.55,1.7,2.89,2.89,0,0,1-.95,2.25,3.89,3.89,0,0,1-2.71.87,6.79,6.79,0,0,1-1.43-.19A4.58,4.58,0,0,1,190.32,44.27Z"/><path d="M202.43,44.58a2.67,2.67,0,0,1-1.13.29c-1.26,0-1.9-.76-1.9-2.28V36.84h-1.53v-.71h1.53V33.91l.39-.13.38-.13v2.48h2.26v.71h-2.26v5.65a2.37,2.37,0,0,0,.28,1.29,1.1,1.1,0,0,0,1,.39,2.09,2.09,0,0,0,1-.31Z"/><path d="M209.79,44.7V43.14h0A2.91,2.91,0,0,1,207,44.91c-2,0-3-1.28-3-3.82v-5h.77v4.76a4.29,4.29,0,0,0,.58,2.53,2.09,2.09,0,0,0,1.8.79,2.44,2.44,0,0,0,1.94-.88,3.55,3.55,0,0,0,.74-2.34V36.13h.76V44.7Z"/><path d="M219.38,44.7V43.14h0a3.08,3.08,0,0,1-1.24,1.29,3.59,3.59,0,0,1-1.85.48,3.27,3.27,0,0,1-2.58-1.16,4.66,4.66,0,0,1-1-3.18,5,5,0,0,1,1.09-3.36,3.54,3.54,0,0,1,2.83-1.29,2.85,2.85,0,0,1,2.75,1.59h0V32h.77V44.7Zm0-5.21a2.88,2.88,0,0,0-.76-2,2.62,2.62,0,0,0-2-.83,2.8,2.8,0,0,0-2.23,1,4.29,4.29,0,0,0-.88,2.84,4.26,4.26,0,0,0,.79,2.74,2.54,2.54,0,0,0,2,1,2.89,2.89,0,0,0,2.27-.91,3.25,3.25,0,0,0,.8-2.21Z"/><path d="M223.27,34a.59.59,0,0,1-.44-.19.62.62,0,0,1-.2-.47.56.56,0,0,1,.2-.44.64.64,0,0,1,.44-.18.71.71,0,0,1,.46.17.55.55,0,0,1,.19.45.6.6,0,0,1-.19.46A.63.63,0,0,1,223.27,34Zm-.38,10.72V36.13h.77V44.7Z"/><path d="M229.85,44.91a3.78,3.78,0,0,1-3-1.23,4.68,4.68,0,0,1-1.09-3.21,4.65,4.65,0,0,1,1.14-3.34,4,4,0,0,1,3-1.21,3.66,3.66,0,0,1,2.89,1.2,4.8,4.8,0,0,1,1.06,3.31,4.73,4.73,0,0,1-1.08,3.24A3.72,3.72,0,0,1,229.85,44.91Zm.05-8.28a3,3,0,0,0-2.41,1,4.13,4.13,0,0,0-.9,2.83,4,4,0,0,0,.88,2.71,3,3,0,0,0,2.4,1,2.91,2.91,0,0,0,2.38-1,4.2,4.2,0,0,0,.84-2.78,4.24,4.24,0,0,0-.83-2.81A2.91,2.91,0,0,0,229.9,36.63Z"/><path d="M38.5,35,26.43,15.64V9a4,4,0,0,0-1.32-7.7H14.54A4,4,0,0,0,13.22,9v6.63C12.91,16.14,1.51,34.37,1.15,35A7.48,7.48,0,0,0,7.49,46.4H32.16A7.48,7.48,0,0,0,38.5,35ZM29.8,26l6.46,10.34a4.84,4.84,0,0,1-4.1,7.4H7.49a4.84,4.84,0,0,1-4.1-7.4L10,25.75"/></g></g></svg>