<svg xmlns="http://www.w3.org/2000/svg" viewBox="0 0 149.67 31.24"><defs><style>.cls-1{fill:#0c151e;fill-rule:evenodd;}</style></defs><title>Asset 26</title><g id="Layer_2" data-name="Layer 2"><g id="ARTE"><path class="cls-1" d="M53.06,5.62a9.56,9.56,0,0,1,6.22,2.12,9.49,9.49,0,0,1,3,4.88,11.06,11.06,0,0,1-.63,8.09.25.25,0,0,0,.08.36c.85.71,1.68,1.43,2.53,2.13.16.13.16.22,0,.37-.81.94-1.61,1.88-2.4,2.83-.15.18-.23.14-.37,0L59.1,24.33c-.13-.11-.22-.17-.4,0A9,9,0,0,1,53.61,26a9.73,9.73,0,0,1-5.1-1.06,8.87,8.87,0,0,1-4.43-5.55,11.43,11.43,0,0,1,1-9.3,8.55,8.55,0,0,1,6.87-4.38C52.29,5.64,52.67,5.63,53.06,5.62ZM58,16c0-.48,0-.81-.06-1.14a7.18,7.18,0,0,0-.83-2.9,4.35,4.35,0,0,0-3.81-2.35,4.19,4.19,0,0,0-4.16,2.49,7.66,7.66,0,0,0-.78,4.29,7.9,7.9,0,0,0,.81,3.06,4.43,4.43,0,0,0,2.63,2.23,4.61,4.61,0,0,0,5.44-2.31A7.44,7.44,0,0,0,58,16Z"/><path class="cls-1" d="M87.17,19.33l-1.69,1.59a.4.4,0,0,0-.08.33v3.89c0,.23,0,.31-.29.3-1.18,0-2.36,0-3.53,0-.21,0-.29,0-.29-.27q0-9.35,0-18.69c0-.24.08-.27.29-.26,1.18,0,2.36,0,3.53,0,.25,0,.31.06.31.31,0,3.05,0,6.09,0,9.14v.28c.3-.28.64-.55.94-.87,1.18-1.23,2.34-2.47,3.5-3.7a.37.37,0,0,1,.27-.15h4.81l.07,0-1.08,1.12-3.59,3.7a.3.3,0,0,0,0,.45q2.61,4.29,5.2,8.59c.05.09.17.18.11.28s-.18,0-.28,0c-1.41,0-2.81,0-4.22,0a.43.43,0,0,1-.44-.24c-1.1-1.87-2.21-3.73-3.32-5.6C87.29,19.52,87.23,19.44,87.17,19.33Z"/><path class="cls-1" d="M140,16c-.55,1.66-1.09,3.3-1.62,4.94-.47,1.43-.94,2.85-1.4,4.28a.26.26,0,0,1-.29.22h-1.54a.3.3,0,0,1-.33-.24q-1.22-3.54-2.45-7.06-.91-2.61-1.82-5.22c-.11-.32-.11-.32.21-.32.58,0,1.16,0,1.74,0a.35.35,0,0,1,.4.28c.75,2.28,1.52,4.55,2.29,6.83.26.77.52,1.54.79,2.32.12-.09.12-.22.16-.34,1-2.92,1.94-5.84,2.89-8.77a.4.4,0,0,1,.46-.32,11.28,11.28,0,0,0,1.3,0,.29.29,0,0,1,.33.24c.93,2.93,1.87,5.87,2.81,8.8,0,.13.08.26.15.45.2-.56.37-1.06.55-1.56.9-2.56,1.8-5.11,2.69-7.67a.33.33,0,0,1,.38-.26q.85,0,1.71,0c.26,0,.3,0,.21.3-1,2.67-2,5.35-3,8-.52,1.41-1,2.82-1.55,4.23-.07.21-.16.3-.39.29-.45,0-.9,0-1.36,0-.22,0-.3-.08-.37-.28q-1.41-4.44-2.85-8.88A.39.39,0,0,0,140,16Z"/><path class="cls-1" d="M103.61,22.2c.67-2.05,1.33-4,2-6l3-9.28c.24-.71.24-.71,1-.71h1.57c.43,0,.43,0,.29.4l-2,5.68c-1.5,4.27-3,8.53-4.5,12.8a.42.42,0,0,1-.48.34c-.65,0-1.31,0-2,0-.2,0-.27-.07-.33-.25l-4.6-13.66c-.56-1.67-1.12-3.35-1.7-5-.09-.26,0-.3.23-.3.68,0,1.37,0,2.06,0a.4.4,0,0,1,.47.34l4.83,15.28Z"/><path class="cls-1" d="M70.34,15.83c0,3.1,0,6.2,0,9.29,0,.26-.06.33-.32.32q-1.8,0-3.6,0c-.24,0-.29-.07-.29-.29q0-9.33,0-18.66c0-.23.06-.28.28-.28,1.21,0,2.42,0,3.63,0,.24,0,.3.06.3.31C70.33,9.62,70.34,12.73,70.34,15.83Z"/><path class="cls-1" d="M124.73,19.36c-1.53,0-3,0-4.57,0-.23,0-.31.05-.29.29a5,5,0,0,0,1.41,3.48,3.81,3.81,0,0,0,4.89.26,3.6,3.6,0,0,0,1.13-1.93c.06-.22.13-.32.39-.27.56.1,1.12.18,1.69.23.23,0,.21.11.15.28a5.75,5.75,0,0,1-6,4.1,5.83,5.83,0,0,1-5.8-5A8.45,8.45,0,0,1,118,16a5.77,5.77,0,0,1,5-3.77,5.59,5.59,0,0,1,4.55,1.32,6,6,0,0,1,1.94,3.77,12.91,12.91,0,0,1,.13,1.76c0,.23-.07.28-.28.28Zm-1.18-1.57H127c.22,0,.26-.05.24-.26A6.41,6.41,0,0,0,127,16.3a3.51,3.51,0,0,0-5.72-1.51A4.52,4.52,0,0,0,120,17.51c0,.23,0,.29.23.28Z"/><path class="cls-1" d="M77.89,18.34c0,2.27,0,4.54,0,6.81,0,.22,0,.3-.29.29-1.2,0-2.4,0-3.59,0-.21,0-.27-.05-.27-.26q0-6.87,0-13.73c0-.19,0-.26.24-.26h3.66c.22,0,.25.09.25.28C77.88,13.76,77.89,16.05,77.89,18.34Z"/><path class="cls-1" d="M115.12,19c0,2,0,4.07,0,6.1,0,.26-.06.34-.32.33-.5,0-1,0-1.51,0-.22,0-.28-.06-.28-.28,0-1.31,0-2.62,0-3.92,0-2.77,0-5.55,0-8.32,0-.26.07-.33.33-.32a14.42,14.42,0,0,0,1.47,0c.28,0,.31.1.31.34C115.11,14.94,115.12,17,115.12,19Z"/><path class="cls-1" d="M75.84,6.19h1.83c.16,0,.22.05.22.22q0,1.42,0,2.85c0,.16,0,.21-.2.21-1.25,0-2.5,0-3.74,0-.16,0-.21-.05-.21-.2,0-.95,0-1.91,0-2.86,0-.2.09-.22.25-.22Z"/><path class="cls-1" d="M115.12,7.46c0,.35,0,.7,0,1.06,0,.13,0,.19-.19.19-.57,0-1.15,0-1.73,0-.15,0-.18-.06-.18-.19V6.4c0-.17.06-.19.21-.19h1.67c.17,0,.22,0,.22.22C115.11,6.77,115.12,7.11,115.12,7.46Z"/><path class="cls-1" d="M32.12,27.68l-1.66-1.42c-.95-.82-1.9-1.65-2.85-2.46a.22.22,0,0,1,0-.35A14.67,14.67,0,0,0,30,13.39a14.66,14.66,0,0,0-5.53-10A14.88,14.88,0,0,0,15,0l-.64,0A14.1,14.1,0,0,0,10.25.8,14.72,14.72,0,0,0,3.16,5.87a14.67,14.67,0,0,0-2.65,13A14.51,14.51,0,0,0,6,27a15,15,0,0,0,14.27,2.16,14.82,14.82,0,0,0,3.76-2c.11-.08.18-.15.32,0l2.62,2.2,2.15,1.81c.09.08.17.16.3,0,.91-1.09,1.82-2.18,2.74-3.26C32.21,27.81,32.21,27.76,32.12,27.68Zm-17-3.38a9.25,9.25,0,1,1,9.26-9.24A9.26,9.26,0,0,1,15.08,24.3Z"/><path class="cls-1" d="M15.07,21A5.93,5.93,0,1,1,21,15.05,5.93,5.93,0,0,1,15.07,21Z"/></g></g></svg>