<svg xmlns="http://www.w3.org/2000/svg" viewBox="0 0 285.37 43.58"><defs><style>.cls-1{fill:#0c151e;}</style></defs><title>Asset 25</title><g id="Layer_2" data-name="Layer 2"><g id="ARTE"><path d="M69.25,38.47V25.21c0-.32,0-1.24.15-2.75h-.06c-.27.7-.49,1.24-.67,1.63L62,38.47h-.41L54.94,24.16a10.28,10.28,0,0,1-.61-1.75h-.07c.06.83.09,1.66.09,2.48V38.47H53.06V19.79h1.2l7,15c0,.09.09.21.14.35s.11.3.17.45.18.47.28.75h.07L62,36s.15-.44.44-1.23l6.86-14.94h1.15V38.47Z"/><path d="M75.61,21.77a1,1,0,0,1-.69-.29,1,1,0,0,1-.3-.73.91.91,0,0,1,.3-.7,1.08,1.08,0,0,1,.69-.26,1,1,0,0,1,.71.26.88.88,0,0,1,.3.7.94.94,0,0,1-.3.72A1,1,0,0,1,75.61,21.77ZM75,38.47V25.13h1.2V38.47Z"/><path d="M89.13,37.88a6.61,6.61,0,0,1-3.54.91,5.58,5.58,0,0,1-4.39-1.87A7,7,0,0,1,79.53,32a7.34,7.34,0,0,1,1.87-5.2,6.28,6.28,0,0,1,4.82-2,7.26,7.26,0,0,1,3,.63v1.35A5.84,5.84,0,0,0,86,25.9a4.79,4.79,0,0,0-3.8,1.68A6.46,6.46,0,0,0,80.78,32a6.23,6.23,0,0,0,1.33,4.17,4.41,4.41,0,0,0,3.53,1.58,5.83,5.83,0,0,0,3.49-1.07Z"/><path d="M98.62,26.38a2.3,2.3,0,0,0-1.4-.43,3.11,3.11,0,0,0-2.65,1.63,8.4,8.4,0,0,0-1.06,4.62v6.27H92.33V25.13h1.18v2.95h0A4.87,4.87,0,0,1,95,25.71a3.45,3.45,0,0,1,2.3-.84,3.65,3.65,0,0,1,1.32.23Z"/><path d="M106,38.79a5.85,5.85,0,0,1-4.62-1.92,7.28,7.28,0,0,1-1.7-5,7.22,7.22,0,0,1,1.78-5.19,6.14,6.14,0,0,1,4.68-1.88,5.74,5.74,0,0,1,4.51,1.86,7.54,7.54,0,0,1,1.65,5.16,7.33,7.33,0,0,1-1.69,5A5.79,5.79,0,0,1,106,38.79Zm.09-12.89a4.76,4.76,0,0,0-3.76,1.59,6.45,6.45,0,0,0-1.4,4.41,6.24,6.24,0,0,0,1.37,4.21A4.67,4.67,0,0,0,106,37.7a4.55,4.55,0,0,0,3.71-1.57A6.54,6.54,0,0,0,111,31.8a6.56,6.56,0,0,0-1.3-4.38A4.52,4.52,0,0,0,106.05,25.9Z"/><path d="M114.88,37.88V36.43a5.13,5.13,0,0,0,1.64.93,5.32,5.32,0,0,0,1.67.34c2.09,0,3.14-.86,3.14-2.57a2,2,0,0,0-.69-1.51,8.21,8.21,0,0,0-2.24-1.29,7.5,7.5,0,0,1-2.69-1.72,3.4,3.4,0,0,1,.47-4.8,4.7,4.7,0,0,1,3.06-1,5.83,5.83,0,0,1,3,.71v1.35a5.6,5.6,0,0,0-3.08-1,3.16,3.16,0,0,0-2.12.68,2.23,2.23,0,0,0-.81,1.78,2.27,2.27,0,0,0,.51,1.54,6.76,6.76,0,0,0,2.24,1.36A10.17,10.17,0,0,1,121.8,33a2.94,2.94,0,0,1,.78,2.13,3.35,3.35,0,0,1-1.19,2.63,4.88,4.88,0,0,1-3.29,1A5.42,5.42,0,0,1,114.88,37.88Z"/><path d="M131.28,38.79a5.85,5.85,0,0,1-4.62-1.92,7.28,7.28,0,0,1-1.7-5,7.22,7.22,0,0,1,1.78-5.19,6.14,6.14,0,0,1,4.68-1.88,5.74,5.74,0,0,1,4.51,1.86,7.54,7.54,0,0,1,1.65,5.16,7.33,7.33,0,0,1-1.69,5A5.79,5.79,0,0,1,131.28,38.79Zm.09-12.89a4.76,4.76,0,0,0-3.76,1.59,6.45,6.45,0,0,0-1.4,4.41,6.24,6.24,0,0,0,1.37,4.21,4.67,4.67,0,0,0,3.74,1.59A4.55,4.55,0,0,0,135,36.13a6.54,6.54,0,0,0,1.3-4.33,6.56,6.56,0,0,0-1.3-4.38A4.52,4.52,0,0,0,131.37,25.9Z"/><path d="M146,20a2.36,2.36,0,0,0-1.46-.37q-2.46,0-2.46,3.3v2.22h3.53v1.09h-3.53V38.47h-1.2V26.22h-2.4V25.13h2.4V22.81a4.38,4.38,0,0,1,1.06-3.2,3.55,3.55,0,0,1,2.65-1.1,3.39,3.39,0,0,1,1.41.25Z"/><path d="M153.52,38.28a4.06,4.06,0,0,1-1.75.45c-2,0-3-1.18-3-3.55v-9h-2.4V25.13h2.4V21.66l.6-.21.6-.19v3.87h3.51v1.09H150V35a3.58,3.58,0,0,0,.43,2,1.71,1.71,0,0,0,1.48.62,3.31,3.31,0,0,0,1.6-.49Z"/><path d="M163.15,37.8V36.33a7.51,7.51,0,0,0,4.06,1.28,5.23,5.23,0,0,0,3.32-.91,3,3,0,0,0,1.14-2.53,3.3,3.3,0,0,0-.77-2.29,14.58,14.58,0,0,0-3.3-2.32A11.84,11.84,0,0,1,164,26.79a4.42,4.42,0,0,1-.76-2.57,4.37,4.37,0,0,1,1.54-3.36,5.91,5.91,0,0,1,4.1-1.38,10.53,10.53,0,0,1,3.34.55v1.36a8.5,8.5,0,0,0-3.51-.74,4.46,4.46,0,0,0-3,1,3.11,3.11,0,0,0-1.12,2.45,3.26,3.26,0,0,0,.77,2.28,15.1,15.1,0,0,0,3.29,2.31,11.64,11.64,0,0,1,3.48,2.63,4.28,4.28,0,0,1,.87,2.65,4.52,4.52,0,0,1-1.5,3.51,6,6,0,0,1-4.21,1.35,9.74,9.74,0,0,1-2.22-.3A7.15,7.15,0,0,1,163.15,37.8Z"/><path d="M184.68,38.79a8.06,8.06,0,0,1-6.31-2.63A9.85,9.85,0,0,1,176,29.32a10.32,10.32,0,0,1,2.41-7.16,8.42,8.42,0,0,1,6.6-2.68,7.87,7.87,0,0,1,6.12,2.58,9.74,9.74,0,0,1,2.33,6.78,10.47,10.47,0,0,1-2.39,7.29,7.58,7.58,0,0,1-1.66,1.4L194,41h-2.18l-3.53-2.84A9.44,9.44,0,0,1,184.68,38.79Zm.13-18.14A6.86,6.86,0,0,0,179.45,23a9,9,0,0,0-2.1,6.18,9,9,0,0,0,2,6.14,6.71,6.71,0,0,0,5.31,2.29,7,7,0,0,0,5.49-2.26,9.17,9.17,0,0,0,2-6.3,9,9,0,0,0-2-6.18A6.8,6.8,0,0,0,184.81,20.65Z"/><path d="M197.11,38.47V19.79h1.29v17.5h7.48v1.18Z"/><path d="M216,37.8V36.33a7.54,7.54,0,0,0,4.07,1.28,5.25,5.25,0,0,0,3.32-.91,3.07,3.07,0,0,0,1.13-2.53,3.3,3.3,0,0,0-.76-2.29,15.09,15.09,0,0,0-3.3-2.32,12.06,12.06,0,0,1-3.6-2.77,4.49,4.49,0,0,1-.75-2.57,4.36,4.36,0,0,1,1.53-3.36,5.94,5.94,0,0,1,4.11-1.38,10.47,10.47,0,0,1,3.33.55v1.36a8.45,8.45,0,0,0-3.5-.74,4.48,4.48,0,0,0-3,1,3.1,3.1,0,0,0-1.11,2.45,3.26,3.26,0,0,0,.76,2.28,15.64,15.64,0,0,0,3.29,2.31A11.38,11.38,0,0,1,225,31.28a4.28,4.28,0,0,1,.87,2.65,4.54,4.54,0,0,1-1.49,3.51,6.07,6.07,0,0,1-4.21,1.35,9.74,9.74,0,0,1-2.23-.3A7.42,7.42,0,0,1,216,37.8Z"/><path d="M229.92,31.85a6.6,6.6,0,0,0,1.27,4.3,4.25,4.25,0,0,0,3.48,1.55A7.08,7.08,0,0,0,239.05,36v1.28a7.82,7.82,0,0,1-4.63,1.47,5.24,5.24,0,0,1-4.17-1.85,7.76,7.76,0,0,1-1.59-5.22,7.42,7.42,0,0,1,1.67-4.92,5.33,5.33,0,0,1,4.31-2,4.51,4.51,0,0,1,3.82,1.75,7.66,7.66,0,0,1,1.33,4.77v.53Zm8.62-1.1a5.87,5.87,0,0,0-1.11-3.58,3.45,3.45,0,0,0-2.84-1.27,4.18,4.18,0,0,0-3.1,1.25,6,6,0,0,0-1.52,3.6Z"/><path d="M249.39,26.38A2.33,2.33,0,0,0,248,26a3.1,3.1,0,0,0-2.64,1.63,8.31,8.31,0,0,0-1.07,4.62v6.27H243.1V25.13h1.17v2.95h0a4.88,4.88,0,0,1,1.45-2.37,3.43,3.43,0,0,1,2.29-.84,3.71,3.71,0,0,1,1.33.23Z"/><path d="M257.91,38.47h-1.1l-5.16-13.34H253l4,10.61a9,9,0,0,1,.4,1.4h.05a8.37,8.37,0,0,1,.38-1.34l4.1-10.67h1.31Z"/><path d="M265.9,31.85a6.66,6.66,0,0,0,1.27,4.3,4.28,4.28,0,0,0,3.49,1.55A7,7,0,0,0,275,36v1.28a7.79,7.79,0,0,1-4.62,1.47,5.24,5.24,0,0,1-4.17-1.85,7.76,7.76,0,0,1-1.59-5.22,7.47,7.47,0,0,1,1.66-4.92,5.37,5.37,0,0,1,4.32-2,4.51,4.51,0,0,1,3.82,1.75,7.72,7.72,0,0,1,1.33,4.77v.53Zm8.63-1.1a6,6,0,0,0-1.11-3.58,3.45,3.45,0,0,0-2.84-1.27,4.2,4.2,0,0,0-3.11,1.25,6.1,6.1,0,0,0-1.52,3.6Z"/><path d="M285.37,26.38A2.28,2.28,0,0,0,284,26a3.12,3.12,0,0,0-2.65,1.63,8.4,8.4,0,0,0-1.06,4.62v6.27h-1.18V25.13h1.18v2.95h.05a4.87,4.87,0,0,1,1.44-2.37,3.45,3.45,0,0,1,2.3-.84,3.65,3.65,0,0,1,1.32.23Z"/><path class="cls-1" d="M39.8,15.21H33.9V9.42L23.85,0H0V43.58H33.9V37.33h5.9ZM36.17,33.7H10.75V18.84H36.17Z"/><path class="cls-1" d="M16.23,28.46a3.74,3.74,0,0,1-.89-.11,4.06,4.06,0,0,1-.79-.27,7,7,0,0,1-.62-.32,1.63,1.63,0,0,1-.36-.27l-.68,1.33a5.39,5.39,0,0,0,1.56.76,6.2,6.2,0,0,0,1.76.26,4.94,4.94,0,0,0,1.1-.12,3,3,0,0,0,.94-.41,2.08,2.08,0,0,0,.65-.73,2.28,2.28,0,0,0,.24-1.09,2.13,2.13,0,0,0-.18-.92,2,2,0,0,0-.51-.64,3.2,3.2,0,0,0-.8-.44c-.32-.12-.67-.23-1-.34l-.79-.21a2.51,2.51,0,0,1-.56-.22,1.08,1.08,0,0,1-.34-.28.69.69,0,0,1-.12-.41.81.81,0,0,1,.31-.66,1.64,1.64,0,0,1,1-.23,2.74,2.74,0,0,1,.7.09,4.8,4.8,0,0,1,.64.21,3.22,3.22,0,0,1,.5.27,1.45,1.45,0,0,1,.29.21l.68-1.25a5.89,5.89,0,0,0-1.23-.62,4.47,4.47,0,0,0-1.53-.26A3.72,3.72,0,0,0,15,22a2.78,2.78,0,0,0-.92.48,2.09,2.09,0,0,0-.62.78,2.39,2.39,0,0,0-.22,1.06,2.07,2.07,0,0,0,.14.79,1.57,1.57,0,0,0,.42.58,2.46,2.46,0,0,0,.69.43,6,6,0,0,0,1,.34l.85.25a3.59,3.59,0,0,1,.64.24,1.26,1.26,0,0,1,.41.31.67.67,0,0,1,.15.44c0,.54-.42.81-1.27.81Z"/><path class="cls-1" d="M20.88,28.56a4,4,0,0,0,1.21.9,3.56,3.56,0,0,0,1.58.35,3.74,3.74,0,0,0,1.07-.15,3.9,3.9,0,0,0,.93-.42l.46.51h1.45L26.5,28.54a4.08,4.08,0,0,0,1-2.72,4.16,4.16,0,0,0-.27-1.47,4.45,4.45,0,0,0-.78-1.29,4.09,4.09,0,0,0-1.21-.92,3.55,3.55,0,0,0-1.57-.35,3.69,3.69,0,0,0-1.55.33,4,4,0,0,0-1.23.88,4.4,4.4,0,0,0-.81,1.29,3.87,3.87,0,0,0-.29,1.51,4.21,4.21,0,0,0,.27,1.48,4.1,4.1,0,0,0,.79,1.28Zm.64-3.72A2.91,2.91,0,0,1,22,24a2.24,2.24,0,0,1,.73-.6,2.13,2.13,0,0,1,1-.23,2,2,0,0,1,1,.22,2.34,2.34,0,0,1,.73.59,2.77,2.77,0,0,1,.45.85,3,3,0,0,1,.17,1,3.14,3.14,0,0,1-.13.86,3,3,0,0,1-.34.78L25,26.82H23.52l1.21,1.36a1.94,1.94,0,0,1-.49.2,2,2,0,0,1-.56.07,2,2,0,0,1-1-.22,2.34,2.34,0,0,1-.73-.59,2.57,2.57,0,0,1-.45-.85,3.31,3.31,0,0,1-.16-1,3.11,3.11,0,0,1,.15-1Z"/><path class="cls-1" d="M34.27,28.41h-4V21.85H28.7v7.9h5.57Z"/></g></g></svg>