<?xml version="1.0" encoding="utf-8"?>
<!-- Generator: Adobe Illustrator 17.0.2, SVG Export Plug-In . SVG Version: 6.00 Build 0)  -->
<!DOCTYPE svg PUBLIC "-//W3C//DTD SVG 1.1//EN" "http://www.w3.org/Graphics/SVG/1.1/DTD/svg11.dtd">
<svg version="1.1" id="Layer_1" xmlns="http://www.w3.org/2000/svg" xmlns:xlink="http://www.w3.org/1999/xlink" x="0px" y="0px"
	 width="179.903px" height="111.33px" viewBox="0 0 179.903 111.33" enable-background="new 0 0 179.903 111.33"
	 xml:space="preserve">
<g>
	<ellipse fill="#1A171B" cx="89.005" cy="55.666" rx="55.804" ry="55.666"/>
	<path fill="none" stroke="#FFFFFF" stroke-width="1.5523" stroke-miterlimit="10" d="M38.912,55.666
		c0-27.598,22.426-49.972,50.092-49.972c27.67,0,50.098,22.374,50.098,49.972c0,27.596-22.428,49.967-50.098,49.967
		C61.338,105.633,38.912,83.262,38.912,55.666z"/>
	<g>
		<g>
			<path fill="#FFFFFF" d="M89.422,52.541l-3.679-2.907l3.328-12.487L78.414,39.62c-1.158-0.309-2.002-0.776-3.336-0.557
				c-2.363,0.389-4.482,1.32-6.314,2.767c-1.674,1.326-3.064,2.897-4.137,4.667c-0.09,0.146-0.17,0.296-0.258,0.442
				c-0.32-0.312-0.657-0.625-1.027-0.941c-0.77-0.658-1.623-2.143-1.957-2.851c-0.203-0.96-0.793-1.811-1.641-2.335
				c-0.985-0.608-2.203-0.712-3.279-0.274l-3.223,1.309c-1.294,0.524-2.155,1.736-2.253,3.098c-0.099-0.129-0.208-0.252-0.327-0.365
				c-0.977-0.944-2.395-1.265-3.682-0.832l-13.074,3.668c0.069-0.373,0.132-1.175,0.171-1.555c0.255-2.38-0.062-4.572-0.951-6.524
				c-0.952-2.071-2.565-3.736-4.671-4.821c-2.152-1.105-4.772-1.349-7.737-0.707c-3.045,0.66-5.83,1.863-8.274,3.578
				c-2.354,1.65-4.417,3.625-6.137,5.867c-1.699,2.215-3.087,4.652-4.126,7.245c-1.036,2.587-1.708,5.194-2.005,7.746
				c-0.299,2.598-0.215,5.116,0.244,7.484c0.502,2.585,1.515,4.83,2.998,6.671c1.568,1.944,3.658,3.34,6.221,4.143
				c1.285,0.406,2.708,0.609,4.224,0.609c1.391,0,2.903-0.174,4.49-0.518c0.39-0.082,0.794-0.187,1.21-0.309
				c0.421-0.104,0.791-0.215,1.16-0.339c2.107-0.725,4.092-1.919,5.889-3.546c0.961-0.868,1.799-1.812,2.521-2.822
				c1.092,0.719,2.383,1.098,3.801,1.098c0.543,0,1.113-0.057,1.697-0.166c1.393-0.262,2.65-0.837,3.733-1.715
				c1.183,0.455,2.564,0.531,4.256,0.215c1.057-0.201,2.055-0.562,2.981-1.085c0.716-0.345,1.719-0.95,2.875-1.817
				c0.628,0.4,1.382,0.755,2.283,1.022c1.919,0.58,3.986,0.647,6.091,0.21c3.055-0.637,5.664-2.249,7.771-4.799
				c1.234,1.133,2.832,1.732,4.646,1.732c0.484,0,0.992-0.041,1.514-0.126c1.4-0.23,2.665-0.778,3.77-1.633
				c1.174,0.484,2.551,0.59,4.252,0.312c1.092-0.181,2.119-0.532,3.062-1.05c1.367-0.664,4.294-2.482,7.01-5.202L89.422,52.541z"/>
			<g>
				<path fill="#FFFFFF" d="M81.514,76.842l15.026-2.129l1.543-6.549l1.768,6.229l10.775-1.49l0.818-3.589
					c1.81,1.559,4.406,2.141,6.408,2.141c0.553,0,1.098-0.046,1.613-0.134c0.627-0.11,1.248-0.254,1.85-0.434
					c0.162,0.809,0.451,1.58,0.871,2.31c0.803,1.412,2.049,2.502,3.699,3.244c1.059,0.473,2.252,0.711,3.541,0.711
					c0.656,0,1.352-0.061,2.064-0.186c1.777-0.303,3.387-0.755,4.785-1.341c1.602-0.671,3.045-1.661,4.297-2.951
					c1.166-1.21,2.215-2.767,3.121-4.64c0.285-0.602,0.576-1.26,0.861-1.969c0.09-0.008,0.18-0.019,0.27-0.034l8.375-1.405
					l3.107-10.443c0.043,0.918,0.203,1.799,0.482,2.64c0.422,1.292,1.123,2.416,2.09,3.343c1.801,2.003,4.773,2.725,7.01,2.725
					c0.557,0,1.098-0.045,1.613-0.135c1.582-0.271,3.088-0.769,4.475-1.484c1.312-0.676,2.533-1.497,3.615-2.445
					c1.033-0.9,3.412-3.766,4.264-4.933l-2.184-2.912c-0.025-0.037-0.049-0.074-0.074-0.109c0.881-1.152,1.518-2.336,1.887-3.524
					c0.557-1.773,0.557-3.43-0.004-4.935c-0.617-1.654-1.863-2.938-3.604-3.703c-1.5-0.66-3.309-0.811-5.439-0.443
					c-2.551,0.44-4.82,1.328-6.75,2.643c-0.158-0.284-0.357-0.555-0.605-0.818c-0.717-0.748-1.721-1.181-2.756-1.181
					c-1.967,0-3.127,1.436-3.508,1.907l-16.289,3.666c-1.127-0.246-2.35-0.258-3.643-0.035c-2.314,0.398-4.365,1.239-6.105,2.5
					c-0.514,0.379-1.006,0.774-1.463,1.19c-0.439-0.337-0.934-0.624-1.478-0.866c-1.5-0.658-3.316-0.811-5.441-0.442
					c-2.088,0.358-3.988,1.024-5.668,1.977l3.826-14.821l1.275-5.335l-5.352,0.857l-6.746,1.045l-2.248,0.486l-1.525,4.399
					l-1.154-4.205l-11.887,2.309L81.514,76.842z"/>
			</g>
		</g>
		<g>
			<g>
				<path fill="#D10019" d="M80.315,55.936c-0.015-0.193,0-0.445,0.056-0.769c0.088-0.515,0.251-1.21,0.49-2.093
					c0.241-0.883,0.578-2,1.009-3.355c0.436-1.357,0.81-2.587,1.128-3.695c0.318-1.109,0.608-2.071,0.878-2.884
					c0.265-0.959,0.527-1.815,0.774-2.571l-6.057,1.885c-0.169-0.079-0.347-0.15-0.534-0.221c-0.731-0.264-1.583-0.314-2.56-0.154
					c-1.754,0.287-3.299,0.964-4.641,2.025c-1.341,1.062-2.438,2.301-3.291,3.711c-0.855,1.41-1.465,2.88-1.826,4.408
					c-0.363,1.531-0.455,2.916-0.277,4.158c0.18,1.239,0.639,2.221,1.387,2.938c0.748,0.719,1.805,0.968,3.168,0.742
					c0.894-0.148,1.678-0.513,2.353-1.094c0.678-0.583,1.266-1.293,1.774-2.132c0.135-0.229,0.267-0.463,0.393-0.704
					c-0.003,0.107-0.011,0.217-0.006,0.317c0.019,0.825,0.284,1.467,0.79,1.925c0.503,0.459,1.41,0.58,2.721,0.367
					c0.698-0.115,1.339-0.335,1.928-0.661c0.021-0.009,0.036-0.022,0.053-0.03c0.616-0.251,2.98-1.801,5.867-4.723l-1.223-1.312
					C82.799,53.924,81.459,55.345,80.315,55.936z M77.13,45.672c-0.216,0.705-0.454,1.484-0.714,2.334
					c-0.165,0.529-0.316,1.07-0.472,1.606c-0.274,0.834-0.551,1.623-0.82,2.364c-0.233,0.629-0.472,1.239-0.72,1.833
					c-0.255,0.593-0.498,1.121-0.744,1.586c-0.242,0.464-0.492,0.852-0.734,1.16c-0.246,0.311-0.481,0.486-0.705,0.523
					c-0.504,0.082-0.815-0.176-0.94-0.773c-0.124-0.594-0.116-1.365,0.024-2.315c0.139-0.946,0.399-1.991,0.775-3.133
					c0.374-1.138,0.83-2.218,1.358-3.228c0.527-1.012,1.102-1.877,1.732-2.598c0.627-0.719,1.268-1.133,1.919-1.239
					c0.204-0.035,0.401-0.021,0.603,0.03C77.517,44.412,77.328,45.028,77.13,45.672z"/>
				<path fill="#D10019" d="M21.659,48.483c-0.406,1.312-0.927,2.598-1.551,3.827l8.449-2.459c0.975-1.555,1.561-3.216,1.751-4.936
					c0.182-1.726-0.035-3.284-0.65-4.633c-0.615-1.344-1.635-2.391-3.028-3.105c-0.853-0.438-1.848-0.66-2.972-0.66
					c-0.721,0-1.505,0.092-2.334,0.271c-2.574,0.557-4.915,1.566-6.96,3.002c-2.052,1.438-3.847,3.156-5.341,5.105
					c-1.496,1.953-2.72,4.102-3.639,6.387c-0.916,2.295-1.514,4.584-1.769,6.818c-0.257,2.229-0.189,4.377,0.2,6.381
					c0.393,2.002,1.149,3.716,2.264,5.094c1.109,1.377,2.618,2.372,4.482,2.957c0.935,0.295,1.991,0.447,3.136,0.447
					c1.131,0,2.386-0.148,3.724-0.439c0.332-0.068,0.67-0.16,1.021-0.265c0.353-0.086,0.649-0.171,0.933-0.268
					c1.647-0.564,3.202-1.508,4.638-2.804c1.423-1.288,2.517-2.77,3.252-4.403l-3.57-6.655c-0.687,1.224-1.5,2.424-2.409,3.566
					c-0.943,1.187-1.95,2.293-2.991,3.297c-1.043,0.995-2.042,1.832-2.97,2.484c-0.871,0.609-1.665,1.044-2.354,1.286l-0.067,0.027
					l-0.034-0.067c-0.182-0.403-0.338-0.83-0.464-1.269c-0.417-1.445-0.614-3.182-0.585-5.155c0.027-1.962,0.21-4.027,0.536-6.134
					c0.328-2.105,0.79-4.23,1.374-6.32c0.585-2.089,1.283-4.012,2.057-5.713c0.642-1.395,1.311-2.214,2.023-3.078
					c0.159-0.197,0.327-0.399,0.494-0.613c0.896-1.133,1.826-1.811,2.756-2.012c0.08-0.018,0.154-0.027,0.229-0.027
					c0.412,0,0.748,0.264,0.997,0.783l0.095,0.194c0.225,0.456,0.361,0.731,0.406,1.618c0.047,0.991-0.019,2.153-0.209,3.455
					C22.388,45.769,22.081,47.119,21.659,48.483z"/>
				<path fill="#D10019" d="M60.814,48.188c-1.732-1.482-3.025-4.307-3.092-4.555l-0.031,0.111
					c-0.009-0.139-0.015-0.274-0.023-0.411l-3.22,1.31c0.449,6.068-2.411,9.688-6.176,13.707c-1.823,1.95-3.153,3.115-4.283,3.732
					c-0.02-0.193-0.007-0.445,0.037-0.771c0.077-0.514,0.223-1.215,0.446-2.103c0.216-0.886,0.529-2.013,0.931-3.378
					c0.402-1.364,0.749-2.607,1.042-3.722c0.291-1.114,0.562-2.081,0.809-2.901c0.248-0.967,0.49-1.828,0.717-2.586l-6.01,2.017
					c-0.174-0.072-0.35-0.141-0.541-0.203c-0.736-0.25-1.59-0.282-2.561-0.1c-1.747,0.328-3.28,1.04-4.596,2.131
					c-1.316,1.093-2.383,2.355-3.205,3.783c-0.819,1.432-1.395,2.912-1.723,4.453c-0.326,1.537-0.389,2.924-0.184,4.16
					c0.206,1.236,0.689,2.205,1.454,2.904c0.769,0.704,1.827,0.929,3.188,0.672c0.885-0.166,1.662-0.549,2.324-1.148
					c0.661-0.596,1.236-1.322,1.723-2.17c0.133-0.233,0.256-0.471,0.377-0.713c0,0.105-0.006,0.217,0.002,0.318
					c0.041,0.824,0.316,1.462,0.832,1.904c0.517,0.451,1.429,0.551,2.732,0.305c0.691-0.132,1.33-0.365,1.912-0.706
					c0.016-0.008,0.033-0.021,0.052-0.032c0.554-0.235,2.544-1.354,5.02-3.791c0.013,0.064,0.024,0.131,0.043,0.201
					c0.336,1.232,1.276,2.084,2.829,2.543c1.346,0.405,2.779,0.449,4.305,0.13c2.518-0.524,4.616-1.964,6.303-4.323
					c1.681-2.358,2.225-4.633,1.631-6.829C63.566,50.984,62.545,49.673,60.814,48.188z M40.853,51.355
					c-0.225,0.789-0.473,1.66-0.737,2.611c-0.167,0.596-0.32,1.193-0.48,1.795c-0.287,0.936-0.568,1.818-0.854,2.646
					c-0.239,0.706-0.491,1.389-0.756,2.055c-0.258,0.666-0.521,1.26-0.779,1.782c-0.261,0.521-0.521,0.958-0.787,1.308
					c-0.268,0.351-0.523,0.549-0.771,0.596c-0.556,0.104-0.908-0.173-1.063-0.832c-0.154-0.66-0.163-1.516-0.035-2.574
					c0.131-1.055,0.393-2.223,0.783-3.496c0.393-1.281,0.865-2.484,1.43-3.623c0.56-1.138,1.176-2.113,1.855-2.929
					c0.681-0.816,1.381-1.29,2.102-1.429c0.223-0.041,0.445-0.029,0.672,0.023C41.252,49.947,41.058,50.637,40.853,51.355z
					 M57.625,56.422c-0.227,3.309-1.422,5.192-3.584,5.643c-0.85,0.176-1.673,0.053-2.463-0.371c0.251-0.053,0.55-0.114,0.904-0.189
					c0.57-0.116,1-0.428,1.293-0.931c0.295-0.5,0.377-0.999,0.243-1.495c-0.329-1.211-1.079-1.8-2.243-1.768
					c1.881-2.004,3.994-4.58,5.125-7.888C57.533,51.852,57.775,54.188,57.625,56.422z"/>
			</g>
			<g>
				<path fill="#D10019" d="M145.974,49.394c0.406-1.389,0.742-2.594,1.02-3.61l-6.209,1.929c-0.145-0.055-0.291-0.106-0.445-0.157
					c-0.748-0.234-1.613-0.268-2.6-0.096c-1.77,0.301-3.293,0.924-4.582,1.857c-1.285,0.936-2.32,2.002-3.096,3.199
					c-0.775,1.197-1.305,2.449-1.578,3.75c-0.186,0.904-0.252,1.736-0.184,2.506c-1.09,1.725-2.277,3.186-3.547,4.348
					c-1.307,1.195-2.891,1.963-4.713,2.274c-0.725,0.127-1.525-0.005-1.918-0.283c-0.006-0.014-0.016-0.023-0.025-0.037
					c-0.322-0.645-0.441-1.504-0.361-2.574c1.951-0.609,3.633-1.354,5.037-2.23c1.492-0.928,2.695-1.912,3.607-2.945
					c0.916-1.033,1.529-2.049,1.84-3.045c0.314-0.998,0.328-1.862,0.057-2.594c-0.271-0.736-0.828-1.288-1.662-1.654
					c-0.838-0.367-1.959-0.432-3.361-0.191c-2.08,0.359-3.879,1.064-5.4,2.122c-1.522,1.057-2.75,2.272-3.676,3.646
					c-0.936,1.37-1.549,2.777-1.854,4.218c-0.301,1.439-0.268,2.731,0.111,3.882c0.252,0.78,0.676,1.429,1.262,1.96
					c0.836,1.021,2.738,1.611,4.389,1.611c0.35,0,0.684-0.023,0.998-0.081c1.219-0.208,2.371-0.589,3.426-1.134
					c1.053-0.539,2.023-1.198,2.893-1.955c0.869-0.758,1.643-1.594,2.297-2.494c0.344-0.469,0.643-0.936,0.908-1.408
					c0.295,0.801,0.775,1.446,1.457,1.931c0.809,0.575,1.902,0.746,3.277,0.507c1.35-0.23,2.412-0.805,3.191-1.721
					c0.156-0.181,0.297-0.369,0.443-0.558c-0.104,0.363-0.203,0.729-0.303,1.1c-0.549,1.929-1.09,3.557-1.619,4.887
					c-0.531,1.33-1.037,2.42-1.508,3.27c-0.475,0.848-0.924,1.479-1.346,1.887c-0.424,0.41-0.775,0.641-1.055,0.688
					c-0.393,0.068-0.629-0.229-0.711-0.889c-0.088-0.658-0.025-1.438,0.174-2.334c0.203-0.895,0.525-1.809,0.967-2.731
					c0.443-0.926,1.012-1.609,1.703-2.049c-1.777-0.288-3.26-0.24-4.447,0.135c-1.185,0.382-2.096,0.931-2.728,1.644
					c-0.635,0.714-0.984,1.524-1.057,2.423c-0.07,0.904,0.108,1.722,0.525,2.456c0.42,0.737,1.098,1.313,2.033,1.733
					c0.936,0.416,2.104,0.506,3.512,0.264c1.514-0.26,2.85-0.633,3.992-1.111c1.148-0.482,2.182-1.19,3.09-2.129
					c0.902-0.936,1.725-2.17,2.461-3.696c0.736-1.525,1.465-3.472,2.186-5.829c0.711-2.39,1.322-4.468,1.832-6.239
					C145.187,52.066,145.619,50.588,145.974,49.394z M118.75,58.21c0.383-1.08,0.83-2.107,1.328-3.084
					c0.508-0.972,1.018-1.791,1.543-2.462c0.52-0.668,0.957-1.03,1.311-1.086c0.279-0.045,0.432,0.135,0.463,0.533
					c0.027,0.398-0.033,0.91-0.19,1.533c-0.148,0.624-0.398,1.317-0.742,2.08c-0.344,0.76-0.744,1.494-1.205,2.197
					c-0.463,0.704-0.994,1.325-1.584,1.863c-0.496,0.454-1.021,0.774-1.572,0.963C118.214,59.967,118.427,59.123,118.75,58.21z
					 M139.447,52.215c-0.018,0.057-0.033,0.118-0.049,0.174c0-0.056,0.006-0.114,0.01-0.169c-0.42,1.425-0.877,2.693-1.367,3.812
					c-0.203,0.492-0.418,0.968-0.643,1.428c-0.227,0.456-0.463,0.877-0.709,1.252c-0.246,0.379-0.488,0.69-0.74,0.933
					c-0.24,0.245-0.482,0.386-0.709,0.419c-0.561,0.086-0.939-0.107-1.141-0.584c-0.201-0.479-0.258-1.102-0.16-1.867
					c0.092-0.766,0.305-1.621,0.635-2.569c0.326-0.945,0.75-1.837,1.266-2.669c0.516-0.828,1.102-1.551,1.758-2.16
					c0.654-0.611,1.346-0.971,2.08-1.086c0.242-0.037,0.482-0.023,0.727,0.027C140.121,50.102,139.8,51.117,139.447,52.215z"/>
				<polygon fill="#D10019" points="110.527,33.572 106.168,50.49 103.062,34.729 96.103,36.128 86.912,72.041 93.783,70.849 
					98.681,51.023 102.375,69.359 108.043,68.327 117.277,32.527 				"/>
				<path fill="#D10019" d="M170.814,51.704c1.488-0.929,2.693-1.913,3.607-2.944c0.914-1.035,1.527-2.049,1.838-3.047
					c0.312-0.998,0.332-1.86,0.055-2.596c-0.269-0.733-0.824-1.284-1.662-1.652c-0.836-0.365-1.957-0.432-3.361-0.189
					c-2.078,0.356-3.881,1.064-5.4,2.12c-1.521,1.057-2.744,2.27-3.676,3.643c-0.387,0.576-0.721,1.158-1.002,1.746
					c-1.23-2.325,0.668-8.728-1.332-6.254c-1.834,2.266-3.998,3.187-4.912,3.492l0.637-2.201l-6.473,2.002l-4.688,16.084
					l6.236-1.072l3.053-10.542c2.123-4.568,5.377-1.639,6.857,0.091c-0.088,0.293-0.162,0.582-0.23,0.875
					c-0.301,1.441-0.264,2.735,0.113,3.883c0.254,0.779,0.676,1.43,1.262,1.959c0.84,1.021,2.744,1.613,4.389,1.613
					c0.348,0,0.686-0.025,1-0.08c1.213-0.21,2.369-0.594,3.428-1.135c1.049-0.541,2.021-1.199,2.891-1.958
					c0.865-0.754,1.354-1.308,2.012-2.207l-0.623-0.987c-0.652,0.822-1.334,1.562-2.039,2.205c-1.307,1.201-2.892,1.967-4.715,2.278
					c-0.725,0.124-1.521-0.008-1.916-0.285c-0.01-0.013-0.016-0.022-0.021-0.036c-0.324-0.646-0.441-1.505-0.363-2.573
					C167.728,53.322,169.412,52.58,170.814,51.704z M166.789,49.648c0.383-1.083,0.828-2.113,1.332-3.086
					c0.502-0.969,1.012-1.791,1.539-2.461c0.52-0.672,0.959-1.031,1.311-1.086c0.277-0.044,0.434,0.135,0.465,0.532
					c0.031,0.4-0.035,0.911-0.188,1.533c-0.154,0.624-0.402,1.315-0.744,2.079c-0.342,0.762-0.746,1.494-1.209,2.198
					c-0.461,0.702-0.99,1.327-1.582,1.863c-0.496,0.451-1.018,0.773-1.568,0.964C166.255,51.401,166.464,50.559,166.789,49.648z"/>
			</g>
		</g>
	</g>
</g>
</svg>
