<svg xmlns="http://www.w3.org/2000/svg" width="180" height="49" viewBox="0 0 180 49" fill="none"><path d="M86.8264 43.9513C86.7124 43.9513 86.6164 43.909 86.5384 43.8245C86.4603 43.74 86.4213 43.636 86.4213 43.5125V37.6922C86.4213 37.5167 86.4783 37.3672 86.5924 37.2437C86.7064 37.1137 86.8445 37.0487 87.0065 37.0487H87.3036C87.4236 37.0487 87.5317 37.0877 87.6277 37.1657C87.7297 37.2437 87.8047 37.3412 87.8528 37.4582L89.8964 42.9763L91.94 37.4582C91.988 37.3412 92.06 37.2437 92.1561 37.1657C92.2581 37.0877 92.3691 37.0487 92.4892 37.0487H92.7863C92.9483 37.0487 93.0864 37.1137 93.2004 37.2437C93.3144 37.3672 93.3714 37.5167 93.3714 37.6922V43.5125C93.3714 43.636 93.3324 43.74 93.2544 43.8245C93.1764 43.909 93.0804 43.9513 92.9663 43.9513C92.8523 43.9513 92.7533 43.909 92.6692 43.8245C92.5912 43.74 92.5522 43.636 92.5522 43.5125V37.9749L90.4726 43.5418C90.4245 43.6653 90.3465 43.766 90.2385 43.844C90.1365 43.9155 90.0224 43.9513 89.8964 43.9513C89.7703 43.9513 89.6533 43.9155 89.5453 43.844C89.4432 43.766 89.3682 43.6653 89.3202 43.5418L87.2406 37.9749V43.5125C87.2406 43.636 87.1986 43.74 87.1145 43.8245C87.0365 43.909 86.9405 43.9513 86.8264 43.9513Z" fill="#2F2F2F"></path><path d="M96.4218 43.9025C96.3077 43.9025 96.2117 43.8603 96.1337 43.7758C96.0556 43.6913 96.0166 43.5873 96.0166 43.4638V37.546C96.0166 37.4225 96.0556 37.3185 96.1337 37.234C96.2117 37.143 96.3077 37.0975 96.4218 37.0975H100.032C100.14 37.0975 100.23 37.1397 100.302 37.2242C100.38 37.3022 100.419 37.3997 100.419 37.5167C100.419 37.6337 100.38 37.7312 100.302 37.8092C100.23 37.8872 100.14 37.9262 100.032 37.9262H96.8359V40.0808H99.7078C99.8158 40.0808 99.9058 40.123 99.9778 40.2075C100.056 40.2855 100.095 40.383 100.095 40.5C100.095 40.617 100.056 40.7145 99.9778 40.7925C99.9058 40.8705 99.8158 40.9095 99.7078 40.9095H96.8359V43.0738H100.032C100.14 43.0738 100.23 43.1161 100.302 43.2006C100.38 43.2786 100.419 43.376 100.419 43.493C100.419 43.61 100.38 43.7075 100.302 43.7855C100.23 43.8635 100.14 43.9025 100.032 43.9025H96.4218Z" fill="#2F2F2F"></path><path d="M104.521 43.9513C104.407 43.9513 104.311 43.909 104.233 43.8245C104.155 43.74 104.116 43.636 104.116 43.5125V37.9262H102.28C102.172 37.9262 102.082 37.8872 102.01 37.8092C101.938 37.7312 101.902 37.6337 101.902 37.5167C101.902 37.3997 101.938 37.3022 102.01 37.2242C102.082 37.1397 102.172 37.0975 102.28 37.0975H106.763C106.871 37.0975 106.961 37.1397 107.033 37.2242C107.111 37.3022 107.15 37.3997 107.15 37.5167C107.15 37.6337 107.111 37.7312 107.033 37.8092C106.961 37.8872 106.871 37.9262 106.763 37.9262H104.936V43.5125C104.936 43.636 104.894 43.74 104.81 43.8245C104.732 43.909 104.636 43.9513 104.521 43.9513Z" fill="#2F2F2F"></path><path d="M109.449 43.9513C109.335 43.9513 109.239 43.909 109.161 43.8245C109.083 43.74 109.044 43.636 109.044 43.5125V37.546C109.044 37.4225 109.083 37.3185 109.161 37.234C109.239 37.143 109.335 37.0975 109.449 37.0975H111.547C112.363 37.0975 112.975 37.2795 113.384 37.6435C113.792 38.0074 113.996 38.4851 113.996 39.0766C113.996 39.4666 113.894 39.824 113.69 40.149C113.492 40.4675 113.2 40.6982 112.816 40.8412C113.249 40.9647 113.543 41.2572 113.699 41.7187C113.861 42.1736 113.942 42.6221 113.942 43.0641V43.5125C113.942 43.636 113.903 43.74 113.825 43.8245C113.747 43.909 113.651 43.9513 113.537 43.9513C113.411 43.9513 113.309 43.9123 113.231 43.8343C113.158 43.7498 113.122 43.6425 113.122 43.5125V43.2201C113.122 42.8951 113.095 42.5961 113.041 42.3231C112.987 42.0436 112.858 41.7967 112.654 41.5822C112.45 41.3612 112.141 41.2507 111.727 41.2507H109.863V43.5125C109.863 43.636 109.821 43.74 109.737 43.8245C109.659 43.909 109.563 43.9513 109.449 43.9513ZM111.493 40.4123C112.009 40.4123 112.417 40.3018 112.717 40.0808C113.023 39.8598 113.176 39.5478 113.176 39.1448C113.176 38.7549 113.044 38.4559 112.78 38.2479C112.522 38.0399 112.078 37.9359 111.448 37.9359H109.863V40.4123H111.493Z" fill="#2F2F2F"></path><path d="M116.759 43.9513C116.645 43.9513 116.549 43.909 116.471 43.8245C116.393 43.74 116.354 43.636 116.354 43.5125V37.4972C116.354 37.3737 116.393 37.2697 116.471 37.1852C116.549 37.0942 116.645 37.0487 116.759 37.0487C116.873 37.0487 116.969 37.0942 117.047 37.1852C117.131 37.2697 117.173 37.3737 117.173 37.4972V43.5125C117.173 43.636 117.131 43.74 117.047 43.8245C116.969 43.909 116.873 43.9513 116.759 43.9513Z" fill="#2F2F2F"></path><path d="M122.594 44C121.994 44 121.454 43.8603 120.973 43.5808C120.499 43.2948 120.124 42.8886 119.848 42.3621C119.578 41.8292 119.443 41.2084 119.443 40.5C119.443 39.7916 119.578 39.1741 119.848 38.6476C120.124 38.1147 120.499 37.7084 120.973 37.429C121.454 37.143 121.994 37 122.594 37C123.002 37 123.365 37.052 123.683 37.156C124.007 37.26 124.329 37.4095 124.647 37.6045C124.779 37.6825 124.845 37.8059 124.845 37.9749C124.845 38.0724 124.812 38.1602 124.746 38.2382C124.68 38.3097 124.593 38.3454 124.485 38.3454C124.425 38.3454 124.371 38.3324 124.323 38.3064C124.058 38.1569 123.8 38.0432 123.548 37.9652C123.296 37.8872 123.005 37.8482 122.675 37.8482C122.159 37.8482 121.718 37.9652 121.352 38.1992C120.992 38.4266 120.718 38.7419 120.532 39.1448C120.352 39.5413 120.262 39.993 120.262 40.5C120.262 41.007 120.352 41.4619 120.532 41.8649C120.718 42.2614 120.992 42.5766 121.352 42.8106C121.718 43.0381 122.159 43.1518 122.675 43.1518C123.005 43.1518 123.296 43.1128 123.548 43.0348C123.8 42.9568 124.058 42.8431 124.323 42.6936C124.371 42.6676 124.425 42.6546 124.485 42.6546C124.593 42.6546 124.68 42.6903 124.746 42.7618C124.812 42.8333 124.845 42.9211 124.845 43.0251C124.845 43.1941 124.779 43.3175 124.647 43.3955C124.329 43.5905 124.007 43.74 123.683 43.844C123.365 43.948 123.002 44 122.594 44Z" fill="#2F2F2F"></path><path d="M126.963 43.9513C126.843 43.9513 126.744 43.909 126.666 43.8245C126.594 43.74 126.558 43.636 126.558 43.5125C126.558 43.4605 126.573 43.3955 126.603 43.3175L128.899 37.4485C128.947 37.3315 129.013 37.2372 129.097 37.1657C129.187 37.0877 129.295 37.0487 129.421 37.0487H129.511C129.637 37.0487 129.742 37.0877 129.826 37.1657C129.916 37.2372 129.985 37.3315 130.033 37.4485L132.329 43.3175C132.359 43.3955 132.374 43.4605 132.374 43.5125C132.374 43.636 132.335 43.74 132.257 43.8245C132.185 43.909 132.089 43.9513 131.969 43.9513C131.885 43.9513 131.807 43.9285 131.735 43.883C131.669 43.831 131.618 43.7628 131.582 43.6783L130.996 42.1574H127.935L127.35 43.6783C127.314 43.7628 127.26 43.831 127.188 43.883C127.122 43.9285 127.047 43.9513 126.963 43.9513ZM128.251 41.3482H130.681L129.466 38.1797L128.251 41.3482Z" fill="#2F2F2F"></path><path d="M139.818 44C139.056 44 138.341 43.844 137.675 43.532C137.603 43.4995 137.543 43.4475 137.495 43.376C137.447 43.298 137.423 43.2168 137.423 43.1323C137.423 43.0218 137.456 42.9276 137.522 42.8496C137.594 42.7651 137.684 42.7228 137.792 42.7228C137.852 42.7228 137.909 42.7358 137.963 42.7618C138.515 43.0283 139.107 43.1616 139.737 43.1616C140.787 43.1616 141.312 42.7878 141.312 42.0404C141.312 41.8454 141.243 41.6829 141.105 41.5529C140.973 41.4229 140.808 41.3222 140.61 41.2507C140.412 41.1727 140.13 41.0817 139.764 40.9777C139.278 40.8412 138.884 40.7112 138.584 40.5877C138.284 40.4578 138.026 40.266 137.81 40.0125C137.594 39.7591 137.486 39.4211 137.486 38.9986C137.486 38.6281 137.576 38.2934 137.756 37.9944C137.936 37.689 138.2 37.4485 138.548 37.273C138.903 37.091 139.326 37 139.818 37C140.478 37 141.075 37.1072 141.609 37.3217C141.777 37.3867 141.861 37.5167 141.861 37.7117C141.861 37.8157 141.828 37.9099 141.762 37.9944C141.696 38.0789 141.609 38.1212 141.501 38.1212C141.465 38.1212 141.417 38.1082 141.357 38.0822C140.889 37.9067 140.406 37.8189 139.908 37.8189C139.434 37.8189 139.047 37.9164 138.746 38.1114C138.452 38.3064 138.305 38.5794 138.305 38.9304C138.305 39.1643 138.374 39.3561 138.512 39.5056C138.656 39.6486 138.833 39.7623 139.044 39.8468C139.26 39.9248 139.551 40.0093 139.917 40.1003C140.391 40.2238 140.772 40.3473 141.06 40.4708C141.354 40.5942 141.603 40.786 141.807 41.046C142.017 41.3059 142.122 41.6569 142.122 42.0989C142.122 42.4629 142.026 42.7911 141.834 43.0836C141.642 43.3695 141.372 43.5938 141.024 43.7563C140.676 43.9188 140.274 44 139.818 44Z" fill="#2F2F2F"></path><path d="M144.69 43.9513C144.576 43.9513 144.48 43.909 144.402 43.8245C144.324 43.74 144.285 43.636 144.285 43.5125V37.546C144.285 37.4225 144.324 37.3185 144.402 37.234C144.48 37.143 144.576 37.0975 144.69 37.0975H146.743C147.313 37.0975 147.778 37.2015 148.138 37.4095C148.498 37.6175 148.756 37.8839 148.912 38.2089C149.069 38.5339 149.147 38.8849 149.147 39.2618C149.147 39.6388 149.069 39.9898 148.912 40.3148C148.756 40.6397 148.498 40.9062 148.138 41.1142C147.778 41.3222 147.313 41.4262 146.743 41.4262H145.104V43.5125C145.104 43.636 145.062 43.74 144.978 43.8245C144.9 43.909 144.804 43.9513 144.69 43.9513ZM146.662 40.5877C147.274 40.5877 147.703 40.461 147.949 40.2075C148.201 39.954 148.327 39.6388 148.327 39.2618C148.327 38.8849 148.201 38.5696 147.949 38.3162C147.703 38.0627 147.274 37.9359 146.662 37.9359H145.104V40.5877H146.662Z" fill="#2F2F2F"></path><path d="M154.016 44C153.386 44 152.834 43.8505 152.359 43.5515C151.885 43.2526 151.519 42.8398 151.261 42.3134C151.003 41.7869 150.868 41.1825 150.856 40.5C150.868 39.8175 151.003 39.2131 151.261 38.6866C151.519 38.1602 151.885 37.7474 152.359 37.4485C152.834 37.1495 153.386 37 154.016 37C154.646 37 155.195 37.1495 155.663 37.4485C156.138 37.7474 156.504 38.1634 156.762 38.6964C157.026 39.2228 157.164 39.824 157.176 40.5C157.164 41.176 157.026 41.7804 156.762 42.3134C156.504 42.8398 156.138 43.2526 155.663 43.5515C155.195 43.8505 154.646 44 154.016 44ZM154.016 43.1713C154.496 43.1713 154.913 43.0543 155.267 42.8203C155.621 42.5864 155.891 42.2679 156.078 41.8649C156.264 41.4619 156.357 41.007 156.357 40.5C156.357 39.993 156.264 39.5381 156.078 39.1351C155.891 38.7321 155.621 38.4136 155.267 38.1797C154.913 37.9457 154.496 37.8287 154.016 37.8287C153.53 37.8287 153.11 37.9457 152.756 38.1797C152.407 38.4136 152.14 38.7321 151.954 39.1351C151.768 39.5381 151.675 39.993 151.675 40.5C151.675 41.007 151.768 41.4619 151.954 41.8649C152.14 42.2679 152.407 42.5864 152.756 42.8203C153.11 43.0543 153.53 43.1713 154.016 43.1713Z" fill="#2F2F2F"></path><path d="M159.845 43.9513C159.731 43.9513 159.635 43.909 159.557 43.8245C159.479 43.74 159.44 43.636 159.44 43.5125V37.546C159.44 37.4225 159.479 37.3185 159.557 37.234C159.635 37.143 159.731 37.0975 159.845 37.0975H161.943C162.759 37.0975 163.371 37.2795 163.78 37.6435C164.188 38.0074 164.392 38.4851 164.392 39.0766C164.392 39.4666 164.29 39.824 164.086 40.149C163.888 40.4675 163.597 40.6982 163.212 40.8412C163.645 40.9647 163.939 41.2572 164.095 41.7187C164.257 42.1736 164.338 42.6221 164.338 43.0641V43.5125C164.338 43.636 164.299 43.74 164.221 43.8245C164.143 43.909 164.047 43.9513 163.933 43.9513C163.807 43.9513 163.705 43.9123 163.627 43.8343C163.555 43.7498 163.518 43.6425 163.518 43.5125V43.2201C163.518 42.8951 163.491 42.5961 163.437 42.3231C163.383 42.0436 163.254 41.7967 163.05 41.5822C162.846 41.3612 162.537 41.2507 162.123 41.2507H160.259V43.5125C160.259 43.636 160.217 43.74 160.133 43.8245C160.055 43.909 159.959 43.9513 159.845 43.9513ZM161.889 40.4123C162.405 40.4123 162.813 40.3018 163.113 40.0808C163.419 39.8598 163.573 39.5478 163.573 39.1448C163.573 38.7549 163.44 38.4559 163.176 38.2479C162.918 38.0399 162.474 37.9359 161.844 37.9359H160.259V40.4123H161.889Z" fill="#2F2F2F"></path><path d="M168.613 43.9513C168.499 43.9513 168.403 43.909 168.325 43.8245C168.247 43.74 168.208 43.636 168.208 43.5125V37.9262H166.372C166.264 37.9262 166.174 37.8872 166.102 37.8092C166.029 37.7312 165.993 37.6337 165.993 37.5167C165.993 37.3997 166.029 37.3022 166.102 37.2242C166.174 37.1397 166.264 37.0975 166.372 37.0975H170.855C170.963 37.0975 171.053 37.1397 171.125 37.2242C171.203 37.3022 171.242 37.3997 171.242 37.5167C171.242 37.6337 171.203 37.7312 171.125 37.8092C171.053 37.8872 170.963 37.9262 170.855 37.9262H169.027V43.5125C169.027 43.636 168.985 43.74 168.901 43.8245C168.823 43.909 168.727 43.9513 168.613 43.9513Z" fill="#2F2F2F"></path><path d="M175.117 44C174.354 44 173.64 43.844 172.974 43.532C172.902 43.4995 172.842 43.4475 172.794 43.376C172.746 43.298 172.722 43.2168 172.722 43.1323C172.722 43.0218 172.755 42.9276 172.821 42.8496C172.893 42.7651 172.983 42.7228 173.091 42.7228C173.151 42.7228 173.208 42.7358 173.262 42.7618C173.814 43.0283 174.405 43.1616 175.036 43.1616C176.086 43.1616 176.611 42.7878 176.611 42.0404C176.611 41.8454 176.542 41.6829 176.404 41.5529C176.272 41.4229 176.107 41.3222 175.909 41.2507C175.711 41.1727 175.429 41.0817 175.063 40.9777C174.576 40.8412 174.183 40.7112 173.883 40.5877C173.583 40.4578 173.325 40.266 173.109 40.0125C172.893 39.7591 172.785 39.4211 172.785 38.9986C172.785 38.6281 172.875 38.2934 173.055 37.9944C173.235 37.689 173.499 37.4485 173.847 37.273C174.201 37.091 174.624 37 175.117 37C175.777 37 176.374 37.1072 176.908 37.3217C177.076 37.3867 177.16 37.5167 177.16 37.7117C177.16 37.8157 177.127 37.9099 177.061 37.9944C176.995 38.0789 176.908 38.1212 176.8 38.1212C176.764 38.1212 176.716 38.1082 176.656 38.0822C176.188 37.9067 175.705 37.8189 175.207 37.8189C174.732 37.8189 174.345 37.9164 174.045 38.1114C173.751 38.3064 173.604 38.5794 173.604 38.9304C173.604 39.1643 173.673 39.3561 173.811 39.5056C173.955 39.6486 174.132 39.7623 174.342 39.8468C174.558 39.9248 174.85 40.0093 175.216 40.1003C175.69 40.2238 176.071 40.3473 176.359 40.4708C176.653 40.5942 176.902 40.786 177.106 41.046C177.316 41.3059 177.421 41.6569 177.421 42.0989C177.421 42.4629 177.325 42.7911 177.133 43.0836C176.941 43.3695 176.671 43.5938 176.323 43.7563C175.975 43.9188 175.573 44 175.117 44Z" fill="#2F2F2F"></path><rect width="12.5502" height="12.2069" rx="6.10347" transform="matrix(0.866532 -0.499122 -0.500879 -0.865517 6.1142 48.2501)" fill="#404040"></rect><rect width="12.6" height="33.4782" rx="6.30002" transform="matrix(0.866532 -0.499122 -0.500879 -0.865517 47.4973 48.1685)" fill="#404040"></rect><rect width="12.5502" height="48.3955" rx="6.27512" transform="matrix(0.866532 -0.499122 -0.500879 -0.865517 26.8026 48.1522)" fill="#404040"></rect><path d="M70.2503 28C69.7354 28 69.3019 27.8286 68.9497 27.4859C68.5974 27.1431 68.4213 26.7213 68.4213 26.2203V2.01695C68.4213 1.51601 68.5974 1.09416 68.9497 0.751412C69.3019 0.382297 69.7354 0.19774 70.2503 0.19774H79.5168C82.0909 0.19774 84.1907 0.619586 85.8165 1.46328C87.4422 2.30697 88.6073 3.38795 89.3117 4.70621C90.0162 6.02448 90.3684 7.44821 90.3684 8.9774C90.3684 10.5066 90.0162 11.9303 89.3117 13.2486C88.6073 14.5669 87.4422 15.6478 85.8165 16.4915C84.1907 17.3352 82.0909 17.7571 79.5168 17.7571H72.1198V26.2203C72.1198 26.7213 71.9302 27.1431 71.5508 27.4859C71.1986 27.8286 70.7651 28 70.2503 28ZM79.151 14.3559C81.9147 14.3559 83.852 13.8418 84.9629 12.8136C86.1009 11.7853 86.6699 10.5066 86.6699 8.9774C86.6699 7.44821 86.1009 6.16949 84.9629 5.14124C83.852 4.11299 81.9147 3.59887 79.151 3.59887H72.1198V14.3559H79.151Z" fill="#2F2F2F"></path><path d="M102.353 27.8023C101.649 27.8023 101.039 27.565 100.524 27.0904C100.036 26.5895 99.7925 25.9962 99.7925 25.3107V1.81921C99.7925 1.31827 99.9686 0.896421 100.321 0.553672C100.673 0.184558 101.107 0 101.621 0C102.136 0 102.57 0.184558 102.922 0.553672C103.301 0.896421 103.491 1.31827 103.491 1.81921V24.2034H116.781C117.296 24.2034 117.73 24.3879 118.082 24.7571C118.461 25.0998 118.651 25.5217 118.651 26.0226C118.651 26.5235 118.461 26.9454 118.082 27.2881C117.73 27.6309 117.296 27.8023 116.781 27.8023H102.353Z" fill="#2F2F2F"></path><path d="M126.399 28C125.857 28 125.41 27.8286 125.058 27.4859C124.733 27.1431 124.57 26.7213 124.57 26.2203C124.57 26.0094 124.638 25.7458 124.773 25.4294L135.137 1.62147C135.354 1.14689 135.652 0.764594 136.031 0.474575C136.438 0.158191 136.925 0 137.494 0H137.901C138.47 0 138.944 0.158191 139.323 0.474575C139.73 0.764594 140.041 1.14689 140.258 1.62147L150.622 25.4294C150.758 25.7458 150.825 26.0094 150.825 26.2203C150.825 26.7213 150.649 27.1431 150.297 27.4859C149.972 27.8286 149.538 28 148.996 28C148.617 28 148.265 27.9077 147.94 27.7232C147.642 27.5122 147.411 27.2354 147.249 26.8927L144.607 20.7232H130.788L128.147 26.8927C127.984 27.2354 127.74 27.5122 127.415 27.7232C127.117 27.9077 126.778 28 126.399 28ZM132.211 17.4407H143.184L137.698 4.58757L132.211 17.4407Z" fill="#2F2F2F"></path><path d="M167.51 28C166.995 28 166.548 27.8286 166.169 27.4859C165.817 27.1431 165.641 26.7213 165.641 26.2203V16.1356L155.927 2.887C155.71 2.54426 155.602 2.18832 155.602 1.81921C155.602 1.31827 155.764 0.896421 156.089 0.553672C156.442 0.184558 156.875 0 157.39 0C158.067 0 158.609 0.303201 159.016 0.909604L167.51 12.9322L176.004 0.909604C176.411 0.303201 176.953 0 177.63 0C178.145 0 178.578 0.184558 178.931 0.553672C179.283 0.896421 179.446 1.31827 179.418 1.81921C179.418 2.18832 179.31 2.54426 179.093 2.887L169.339 16.1356V26.2203C169.339 26.7213 169.163 27.1431 168.811 27.4859C168.458 27.8286 168.025 28 167.51 28Z" fill="#2F2F2F"></path><path d="M70.9144 43.9124C70.2927 43.9124 69.7503 43.6773 69.2872 43.2072V43.4485C69.2872 43.566 69.2428 43.6649 69.154 43.7454C69.0715 43.8258 68.97 43.866 68.8495 43.866C68.729 43.866 68.6275 43.8258 68.545 43.7454C68.4626 43.6649 68.4213 43.566 68.4213 43.4485V37.4268C68.4213 37.3093 68.4626 37.2103 68.545 37.1299C68.6275 37.0433 68.729 37 68.8495 37C68.9764 37 69.0811 37.0402 69.1635 37.1206C69.246 37.201 69.2872 37.3031 69.2872 37.4268V39.7C69.7503 39.2299 70.2927 38.9948 70.9144 38.9948C71.3077 38.9948 71.6788 39.0938 72.0277 39.2918C72.3829 39.4835 72.6684 39.768 72.884 40.1454C73.1061 40.5165 73.2171 40.9526 73.2171 41.4536C73.2171 41.9546 73.1061 42.3938 72.884 42.7711C72.6684 43.1423 72.3829 43.4268 72.0277 43.6247C71.6788 43.8165 71.3077 43.9124 70.9144 43.9124ZM70.7907 43.1237C71.2601 43.1237 71.6375 42.9784 71.923 42.6876C72.2084 42.3969 72.3512 41.9856 72.3512 41.4536C72.3512 40.9216 72.2084 40.5103 71.923 40.2196C71.6375 39.9289 71.2601 39.7835 70.7907 39.7835C70.4988 39.7835 70.2229 39.8485 69.9628 39.9784C69.7091 40.1021 69.4839 40.2691 69.2872 40.4794V42.4278C69.4839 42.6381 69.7091 42.8082 69.9628 42.9381C70.2229 43.0619 70.4988 43.1237 70.7907 43.1237Z" fill="white"></path><path d="M76.3954 46C76.2813 46 76.1829 45.9598 76.1005 45.8794C76.0243 45.799 75.9863 45.7031 75.9863 45.5918C75.9863 45.5423 75.9958 45.4928 76.0148 45.4433L76.6333 43.8938L74.8444 39.6443C74.8191 39.5825 74.8064 39.5237 74.8064 39.468C74.8064 39.3505 74.8476 39.2515 74.9301 39.1711C75.0125 39.0845 75.114 39.0412 75.2346 39.0412C75.3234 39.0412 75.4027 39.066 75.4724 39.1155C75.5486 39.1649 75.6025 39.2268 75.6342 39.301L77.0996 42.8454L78.5935 39.3196C78.676 39.134 78.8092 39.0412 78.9931 39.0412C79.1137 39.0412 79.2152 39.0845 79.2976 39.1711C79.3801 39.2515 79.4213 39.3505 79.4213 39.468C79.4213 39.5237 79.4118 39.5763 79.3928 39.6258L76.7951 45.7124C76.7063 45.9041 76.5731 46 76.3954 46Z" fill="white"></path></svg>