<svg xmlns="http://www.w3.org/2000/svg" xmlns:xlink="http://www.w3.org/1999/xlink" viewBox="0 0 24.79 64.88"><defs><style>.cls-1{fill:none;clip-rule:evenodd;}.cls-2{fill:#245af3;}.cls-3{clip-path:url(#clip-path);}</style><clipPath id="clip-path" transform="translate(0.99 0.99)"><path class="cls-1" d="M21.7,1.11a3.75,3.75,0,0,1,0,5.33l-5,5,5,5a3.78,3.78,0,1,1-5.34,5.34l-5-5-4.95,5a3.78,3.78,0,0,1-5.34-5.34l4.95-5L1.11,6.45A3.78,3.78,0,0,1,6.45,1.11l5,4.95,5-4.95A3.77,3.77,0,0,1,21.7,1.11Z"></path></clipPath></defs><g id="Layer_2" data-name="Layer 2"><g id="Layer_1-2" data-name="Layer 1"><path class="cls-2" d="M21.7,47.53a3.78,3.78,0,1,0-5.34-5.34L1.11,57.44a3.78,3.78,0,0,0,5.34,5.34Z" transform="translate(0.99 0.99)"></path><path class="cls-2" d="M6.81,42.15a3.78,3.78,0,0,0-5.34,5.34L16.72,62.74a3.78,3.78,0,1,0,5.34-5.34Z" transform="translate(0.99 0.99)"></path><g class="cls-3"><path class="cls-2" d="M21,1.81a2.78,2.78,0,0,0-3.94,0L15.66.4A4.77,4.77,0,0,1,22.4.4Zm-3.94,0-5,4.95-1.4-1.4,5-5ZM10.7,6.76,5.75,1.81,7.15.41l4.95,5ZM5.75,1.81a2.78,2.78,0,0,0-3.94,0L.41.41a4.75,4.75,0,0,1,6.74,0Zm-3.94,0a2.78,2.78,0,0,0,0,3.94L.41,7.15A4.75,4.75,0,0,1,.41.41Zm0,3.94L6.76,10.7l-1.4,1.4L.41,7.15ZM6.76,12.1l-4.95,5-1.4-1.4,5-5Zm-4.95,5a2.78,2.78,0,0,0,0,3.94L.41,22.4a4.75,4.75,0,0,1,0-6.74Zm0,3.94a2.77,2.77,0,0,0,3.93,0l1.41,1.4a4.77,4.77,0,0,1-6.74,0Zm3.93,0,5-5,1.4,1.4-4.95,5Zm6.36-5,5,5-1.4,1.4-5-5Zm5,5A2.78,2.78,0,0,0,21,21l1.4,1.4a4.75,4.75,0,0,1-6.74,0ZM21,21a2.78,2.78,0,0,0,0-3.94l1.4-1.4a4.75,4.75,0,0,1,0,6.74Zm0-3.94-5-5,1.4-1.4,5,5ZM16,10.7l5-5,1.4,1.41-5,4.95Zm5-5a2.77,2.77,0,0,0,0-3.93L22.4.4a4.78,4.78,0,0,1,0,6.75ZM16.36,1.11l.7.7Zm-5,4.95.7.7-.7.71-.7-.71ZM6.45,1.11l-.7.7h0ZM1.11,6.45l-.7.7h0Zm4.95,5,.7-.7.71.7-.71.7Zm-4.95,5-.7-.7Zm0,5.34.7-.7Zm5.34,0L5.74,21Zm5-5-.7-.7.7-.7.7.7Zm5,5,.7-.7Zm5.34,0L21,21Zm0-5.34.7-.7Zm-5-5-.7.7-.7-.7.7-.7Zm5-10.29-.7.7Zm0,5.33.7.71Z" transform="translate(0.99 0.99)"></path></g></g></g></svg>