<svg xmlns="http://www.w3.org/2000/svg" xmlns:xlink="http://www.w3.org/1999/xlink" width="22px" height="54px" viewBox="0 0 22 54"><title>Group</title><g id="Page-1" stroke="none" stroke-width="1" fill="none" fill-rule="evenodd"><g id="Group" fill="#FFFFFF"><path d="M19.1241833,20.0328498 C20.9743833,21.8748498 21.9999833,24.2787498 21.9999833,26.7727498 C21.9999833,28.7110498 21.3796833,30.6075498 20.2148833,32.2313497 C19.0499833,33.8550497 17.3908833,35.1360497 15.4392833,35.9183497 C13.4877833,36.7005498 11.3280833,36.9503498 9.22314326,36.6372497 C7.11821326,36.3241497 5.15885326,35.4616497 3.58359326,34.1548497 C2.00835326,32.8479497 0.885173255,31.1531498 0.350804255,29.2765498 C-0.183563745,27.4000498 -0.106066745,25.4228498 0.573863255,23.5856498 C1.25378326,21.7484498 2.50681326,20.1304497 4.18038326,18.9287498 C5.85396326,17.7270498 7.87588326,16.9934497 9.99998326,16.8172498 L9.99998326,3.06771975 L7.45500326,5.38960975 C7.26736326,5.56011975 7.01286326,5.65591975 6.74750326,5.65591975 C6.48213326,5.65591975 6.22764326,5.56011975 6.04000326,5.38960975 C5.85236326,5.21908975 5.74694326,4.98780975 5.74694326,4.74665975 C5.74694326,4.50550975 5.85236326,4.27422975 6.04000326,4.10371975 L10.2999833,0.23239475 C10.3457833,0.19017375 10.3960833,0.15213375 10.4499833,0.11880875 L10.4899833,0.11880875 C10.5315833,0.09471475 10.5749833,0.07345975 10.6199833,0.05519475 L10.6799833,0.05519475 C10.8890833,-0.01839825 11.1208833,-0.01839825 11.3299833,0.05519475 L11.3899833,0.05519475 C11.4349833,0.07345975 11.4784833,0.09471475 11.5199833,0.11880875 L11.5599833,0.11880875 C11.6139833,0.15213375 11.6641833,0.19017375 11.7099833,0.23239475 L15.9699833,4.10371975 C16.1576833,4.27422975 16.2630833,4.50550975 16.2630833,4.74665975 C16.2630833,4.98780975 16.1576833,5.21908975 15.9699833,5.38960975 C15.7823833,5.56011975 15.5278833,5.65591975 15.2624833,5.65591975 C14.9971833,5.65591975 14.7426833,5.56011975 14.5549833,5.38960975 L11.9999833,3.06771975 L11.9999833,16.8172498 C14.7329833,17.0439498 17.2739833,18.1908498 19.1241833,20.0328498 Z M3.51677326,22.2287497 C2.52784326,23.5737497 2.00000326,25.1550497 2.00000326,26.7727497 C2.00000326,28.9418497 2.94821326,31.0221497 4.63604326,32.5560497 C6.32386326,34.0898497 8.61305326,34.9515497 10.9999833,34.9515497 C12.7799833,34.9515497 14.5200833,34.4718497 16.0000833,33.5731497 C17.4801833,32.6744497 18.6336833,31.3970498 19.3148833,29.9026497 C19.9960833,28.4081497 20.1743833,26.7636497 19.8270833,25.1770497 C19.4797833,23.5905497 18.6225833,22.1332497 17.3639833,20.9893497 C16.1052833,19.8455497 14.5016833,19.0666497 12.7557833,18.7510497 C11.0099833,18.4354497 9.20038326,18.5974497 7.55585326,19.2164497 C5.91131326,19.8354497 4.50570326,20.8837497 3.51677326,22.2287497 Z" id="Shape"></path><path d="M2.875774,33.7354528 C1.025584,31.8935528 0,29.4896528 0,26.9957528 C0,25.0574128 0.620324,23.1609428 1.785154,21.5371928 C2.949974,19.9134428 4.609144,18.6324728 6.560684,17.8502128 C8.512214,17.0679568 10.671914,16.8181857 12.776814,17.1312808 C14.881814,17.4443768 16.841114,18.3068528 18.416414,19.6136928 C19.991614,20.9205228 21.114814,22.6153828 21.649214,24.4918628 C22.183514,26.3683628 22.106014,28.3455528 21.426114,30.1827528 C20.746214,32.0199528 19.493214,33.6378528 17.819614,34.8395528 C16.146014,36.0412528 14.124114,36.7748528 12.000014,36.9510528 L12.000014,50.7003528 L14.545014,48.3785528 C14.732614,48.2080528 14.987114,48.1122528 15.252514,48.1122528 C15.517814,48.1122528 15.772314,48.2080528 15.960014,48.3785528 C16.147614,48.5490528 16.253014,48.7803528 16.253014,49.0214528 C16.253014,49.2626528 16.147614,49.4938528 15.960014,49.6644528 L11.700014,53.5356528 C11.654214,53.5778528 11.603914,53.6159528 11.550014,53.6492528 L11.510014,53.6492528 C11.468414,53.6733528 11.425014,53.6946528 11.380014,53.7128528 L11.320014,53.7128528 C11.110914,53.7864528 10.879114,53.7864528 10.670014,53.7128528 L10.610014,53.7128528 C10.565014,53.6946528 10.521514,53.6733528 10.480014,53.6492528 L10.440014,53.6492528 C10.386014,53.6159528 10.335814,53.5778528 10.290014,53.5356528 L6.029994,49.6644528 C5.842354,49.4938528 5.736934,49.2626528 5.736934,49.0214528 C5.736934,48.7803528 5.842354,48.5490528 6.029994,48.3785528 C6.217634,48.2080528 6.472134,48.1122528 6.737494,48.1122528 C7.002854,48.1122528 7.257354,48.2080528 7.444994,48.3785528 L10.000014,50.7003528 L10.000014,36.9510528 C7.267004,36.7243528 4.725974,35.5773528 2.875774,33.7354528 Z M18.483214,31.5395528 C19.472114,30.1945528 20.000014,28.6133528 20.000014,26.9957528 C20.000014,24.8265828 19.051814,22.7463028 17.363914,21.2124928 C15.676114,19.6786928 13.386914,18.8169928 11.000014,18.8169928 C9.219964,18.8169928 7.479904,19.2966728 5.999864,20.1953628 C4.519824,21.0940528 3.366274,22.3713928 2.685084,23.8658528 C2.003894,25.3603328 1.825664,27.0047528 2.172934,28.5912528 C2.520194,30.1778528 3.377364,31.6351528 4.636034,32.7789528 C5.894714,33.9227528 7.498354,34.7017528 9.244184,35.0172528 C10.990014,35.3328528 12.799614,35.1708528 14.444114,34.5518528 C16.088714,33.9328528 17.494314,32.8845528 18.483214,31.5395528 Z" id="Shape"></path></g></g></svg>