<svg xmlns="http://www.w3.org/2000/svg" xmlns:xlink="http://www.w3.org/1999/xlink" width="181px" height="67px" viewBox="0 0 181 67"><title>title-metrica-team</title><g id="Page-1" stroke="none" stroke-width="1" fill="none" fill-rule="evenodd"><g id="title-metrica-team" transform="translate(90.500000, 33.500000) rotate(-270.000000) translate(-90.500000, -33.500000) translate(57.000000, -57.000000)" fill="#E9F75F" fill-rule="nonzero"><rect id="Rectangle" x="39.33" y="71.55" width="1.2" height="9.01"></rect><rect id="Rectangle" transform="translate(46.385432, 82.545549) rotate(-73.000000) translate(-46.385432, -82.545549) " x="45.7854317" y="75.7905493" width="1.2" height="13.51"></rect><rect id="Rectangle" transform="translate(55.523903, 85.241018) rotate(-74.710000) translate(-55.523903, -85.241018) " x="54.9239032" y="82.4760184" width="1.2" height="5.53"></rect><rect id="Rectangle" x="57.58" y="85.97" width="1.2" height="1"></rect><rect id="Rectangle" transform="translate(56.057750, 86.788500) rotate(-15.004920) translate(-56.057750, -86.788500) " x="53.2709812" y="86.1859554" width="5.57353759" height="1.20508921"></rect><rect id="Rectangle" transform="translate(46.379368, 89.460463) rotate(-17.200000) translate(-46.379368, -89.460463) " x="39.6343682" y="88.8604631" width="13.49" height="1.2"></rect><rect id="Rectangle" x="39.33" y="91.45" width="1.2" height="9.39"></rect><rect id="Rectangle" x="39.93" y="100.25" width="25.31" height="1.2"></rect><rect id="Rectangle" x="64.64" y="94.98" width="1.2" height="5.87"></rect><rect id="Rectangle" x="53.62" y="94.38" width="11.62" height="1.2"></rect><rect id="Rectangle" transform="translate(49.724938, 95.077947) rotate(-1.410000) translate(-49.724938, -95.077947) " x="45.8299382" y="94.4779474" width="7.79" height="1.2"></rect><rect id="Rectangle" x="45.23" y="95.1" width="1.2" height="1"></rect><rect id="Rectangle" transform="translate(55.533730, 91.965424) rotate(-17.860000) translate(-55.533730, -91.965424) " x="45.3437296" y="91.3654236" width="20.38" height="1.2"></rect><rect id="Rectangle" x="64.64" y="83.52" width="1.2" height="5.33"></rect><rect id="Rectangle" transform="translate(55.534715, 80.404354) rotate(-72.140000) translate(-55.534715, -80.404354) " x="54.9347146" y="70.2143544" width="1.2" height="20.38"></rect><rect id="Rectangle" x="45.23" y="77.19" width="1.2" height="1"></rect><rect id="Rectangle" transform="translate(49.725591, 77.282177) rotate(-88.590000) translate(-49.725591, -77.282177) " x="49.1255908" y="73.3871767" width="1.2" height="7.79"></rect><rect id="Rectangle" x="53.62" y="76.78" width="11.62" height="1.2"></rect><rect id="Rectangle" x="64.64" y="71.55" width="1.2" height="5.83"></rect><rect id="Rectangle" x="39.93" y="70.95" width="25.31" height="1.2"></rect><polygon id="Path" points="39.93 80.56 39.33 80.56 39.33 81.01 39.75 81.14"></polygon><polygon id="Path" points="52.85 84.51 52.67 85.09 52.68 85.09 52.69 85.09"></polygon><polygon id="Path" points="58.18 85.97 58.78 85.97 58.78 85.51 58.34 85.39"></polygon><polygon id="Path" points="58.18 86.05 58.33 86.63 58.78 86.51 58.78 86.05"></polygon><polygon id="Path" points="52.81 87.47 52.66 86.89 52.65 86.89 52.63 86.89"></polygon><polygon id="Path" points="39.93 91.45 39.75 90.88 39.33 91.01 39.33 91.45"></polygon><rect id="Rectangle" x="39.33" y="100.85" width="1" height="1"></rect><rect id="Rectangle" x="65.24" y="100.85" width="1" height="1"></rect><rect id="Rectangle" x="65.24" y="94.38" width="1" height="1"></rect><polygon id="Path" points="53.62 94.98 53.62 94.38 53.61 94.38 53.6 94.38"></polygon><polygon id="Path" points="45.83 95.17 45.23 95.17 45.23 95.79 45.85 95.77"></polygon><polygon id="Path" points="45.83 95.1 45.65 94.53 45.23 94.66 45.23 95.1"></polygon><polygon id="Path" points="65.24 88.85 65.42 89.42 65.83 89.28 65.83 88.85"></polygon><polygon id="Path" points="65.24 83.52 65.83 83.52 65.83 83.08 65.42 82.95"></polygon><polygon id="Path" points="45.83 77.27 45.23 77.27 45.23 77.7 45.65 77.84"></polygon><polygon id="Path" points="45.83 77.19 45.85 76.59 45.23 76.58 45.23 77.19"></polygon><polygon id="Path" points="53.62 77.38 53.6 77.98 53.61 77.98 53.62 77.98"></polygon><rect id="Rectangle" x="65.24" y="77.38" width="1" height="1"></rect><rect id="Rectangle" x="65.24" y="70.95" width="1" height="1"></rect><rect id="Rectangle" x="39.33" y="70.95" width="1" height="1"></rect><rect id="Rectangle" x="58.92" y="112.85" width="1.2" height="9.03"></rect><rect id="Rectangle" x="54.44" y="114.27" width="1.2" height="6.2"></rect><rect id="Rectangle" x="64.64" y="123.58" width="1.2" height="6.63"></rect><polyline id="Path" points="55.65 120 49.12 118 48.76 119.15 55.65 121.29"></polyline><path d="M58.93,121 C58.93,121.21 58.93,122.23 58.93,122.24 L65.06,124.15 L65.41,123.01 L58.93,121 Z" id="Path"></path><rect id="Rectangle" transform="translate(46.964052, 118.004954) rotate(-75.310000) translate(-46.964052, -118.004954) " x="46.3640523" y="115.964954" width="1.2" height="4.08"></rect><rect id="Rectangle" x="44.39" y="117.4" width="1.2" height="1"></rect><rect id="Rectangle" transform="translate(46.980300, 116.411400) rotate(-15.708638) translate(-46.980300, -116.411400) " x="44.9160003" y="115.813052" width="4.1285993" height="1.19669545"></rect><polygon id="Path" points="55.65 113.64 48.8 115.72 49.15 116.87 55.65 114.87"></polygon><path d="M58.93,113.9 L65.41,111.9 L65.06,110.75 L58.93,112.62 C58.93,113 58.92,113.5 58.93,113.9 Z" id="Path"></path><rect id="Rectangle" x="64.64" y="104.56" width="1.2" height="6.79"></rect><rect id="Rectangle" transform="translate(52.577827, 108.989159) rotate(-19.290000) translate(-52.577827, -108.989159) " x="39.1728272" y="108.389159" width="26.81" height="1.2"></rect><rect id="Rectangle" x="39.33" y="113.42" width="1.2" height="7.9"></rect><rect id="Rectangle" transform="translate(52.581920, 125.776675) rotate(-70.630000) translate(-52.581920, -125.776675) " x="51.98192" y="112.361675" width="1.2" height="26.83"></rect><polygon id="Path" points="65.24 123.58 65.83 123.58 65.83 123.14 65.41 123.01"></polygon><polygon id="Path" points="48.94 118.52 49.12 117.94 49.1 117.94 49.09 117.94"></polygon><polygon id="Path" points="44.99 117.48 44.39 117.48 44.39 117.94 44.84 118.06"></polygon><polygon id="Path" points="44.99 117.4 44.83 116.83 44.39 116.95 44.39 117.4"></polygon><polygon id="Path" points="48.98 116.29 49.14 116.87 49.15 116.87 49.15 116.87"></polygon><polygon id="Path" points="65.24 111.35 65.41 111.92 65.83 111.79 65.83 111.35"></polygon><polygon id="Path" points="65.24 104.56 65.83 104.56 65.83 103.71 65.04 103.99"></polygon><polygon id="Path" points="39.93 113.42 39.73 112.85 39.33 112.99 39.33 113.42"></polygon><polygon id="Path" points="39.93 121.32 39.33 121.32 39.33 121.74 39.73 121.88"></polygon><polygon id="Path" points="65.24 130.21 65.04 130.78 65.83 131.06 65.83 130.21"></polygon><rect id="Rectangle" x="64.64" y="132.32" width="1.2" height="20.21"></rect><rect id="Rectangle" x="60.14" y="131.72" width="5.1" height="1.2"></rect><rect id="Rectangle" x="59.54" y="132.32" width="1.2" height="13.61"></rect><rect id="Rectangle" x="54.96" y="145.33" width="5.18" height="1.2"></rect><rect id="Rectangle" x="54.36" y="135.5" width="1.2" height="10.43"></rect><rect id="Rectangle" x="50.17" y="134.9" width="4.79" height="1.2"></rect><rect id="Rectangle" x="49.57" y="135.5" width="1.2" height="10.43"></rect><rect id="Rectangle" x="45.03" y="145.33" width="5.14" height="1.2"></rect><rect id="Rectangle" x="44.43" y="132.81" width="1.2" height="13.11"></rect><rect id="Rectangle" x="39.93" y="132.21" width="5.1" height="1.2"></rect><rect id="Rectangle" x="39.33" y="132.81" width="1.2" height="19.71"></rect><rect id="Rectangle" x="39.93" y="151.92" width="25.31" height="1.2"></rect><rect id="Rectangle" x="65.24" y="131.72" width="1" height="1"></rect><rect id="Rectangle" x="59.54" y="131.72" width="1" height="1"></rect><rect id="Rectangle" x="60.14" y="145.93" width="1" height="1"></rect><rect id="Rectangle" x="54.36" y="145.93" width="1" height="1"></rect><rect id="Rectangle" x="54.96" y="134.9" width="1" height="1"></rect><rect id="Rectangle" x="49.57" y="134.9" width="1" height="1"></rect><rect id="Rectangle" x="50.17" y="145.93" width="1" height="1"></rect><rect id="Rectangle" x="44.43" y="145.93" width="1" height="1"></rect><rect id="Rectangle" x="45.03" y="132.21" width="1" height="1"></rect><rect id="Rectangle" x="39.33" y="132.21" width="1" height="1"></rect><rect id="Rectangle" x="39.33" y="152.52" width="1" height="1"></rect><rect id="Rectangle" x="65.24" y="152.52" width="1" height="1"></rect><rect id="Rectangle" x="39.33" y="157.06" width="1.2" height="23.12"></rect><rect id="Rectangle" x="39.93" y="179.58" width="5.1" height="1.2"></rect><rect id="Rectangle" x="44.43" y="171.9" width="1.2" height="8.28"></rect><rect id="Rectangle" x="45.03" y="171.3" width="20.21" height="1.2"></rect><rect id="Rectangle" x="64.64" y="165.3" width="1.2" height="6.6"></rect><rect id="Rectangle" x="45.03" y="164.71" width="20.21" height="1.2"></rect><rect id="Rectangle" x="44.43" y="157.06" width="1.2" height="8.24"></rect><rect id="Rectangle" x="39.93" y="156.46" width="5.1" height="1.2"></rect><rect id="Rectangle" x="39.33" y="180.18" width="1" height="1"></rect><rect id="Rectangle" x="45.03" y="180.18" width="1" height="1"></rect><rect id="Rectangle" x="44.43" y="171.3" width="1" height="1"></rect><rect id="Rectangle" x="65.24" y="171.9" width="1" height="1"></rect><rect id="Rectangle" x="65.24" y="164.71" width="1" height="1"></rect><rect id="Rectangle" x="44.43" y="165.3" width="1" height="1"></rect><rect id="Rectangle" x="45.03" y="156.46" width="1" height="1"></rect><rect id="Rectangle" x="39.33" y="156.46" width="1" height="1"></rect><rect id="Rectangle" x="19.98" y="7.63" width="1.2" height="14.07"></rect><rect id="Rectangle" x="16.09" y="7.04" width="4.49" height="1.2"></rect><rect id="Rectangle" x="15.49" y="7.63" width="1.2" height="14.07"></rect><rect id="Rectangle" x="16.09" y="21.11" width="4.49" height="1.2"></rect><rect id="Rectangle" x="25.69" y="20.86" width="1.2" height="6.63"></rect><rect id="Rectangle" transform="translate(18.139760, 18.335004) rotate(-72.750000) translate(-18.139760, -18.335004) " x="17.5397598" y="9.8050037" width="1.2" height="17.06"></rect><rect id="Rectangle" transform="translate(8.017000, 15.283410) rotate(-75.310000) translate(-8.017000, -15.283410) " x="7.4170005" y="13.2434102" width="1.2" height="4.08"></rect><rect id="Rectangle" x="5.45" y="14.69" width="1.2" height="1"></rect><rect id="Rectangle" transform="translate(8.043770, 14.137777) rotate(-15.580000) translate(-8.043770, -14.137777) " x="5.97376975" y="13.5377767" width="4.14" height="1.2"></rect><rect id="Rectangle" transform="translate(18.161483, 11.108597) rotate(-16.920000) translate(-18.161483, -11.108597) " x="9.66648294" y="10.5085972" width="16.99" height="1.2"></rect><rect id="Rectangle" x="25.69" y="1.84" width="1.2" height="6.79"></rect><rect id="Rectangle" transform="translate(13.630455, 6.269817) rotate(-19.290000) translate(-13.630455, -6.269817) " x="0.225455048" y="5.66981728" width="26.81" height="1.2"></rect><rect id="Rectangle" x="0.38" y="10.7" width="1.2" height="7.9"></rect><rect id="Rectangle" transform="translate(13.640549, 23.046993) rotate(-70.630000) translate(-13.640549, -23.046993) " x="13.0405495" y="9.6319929" width="1.2" height="26.83"></rect><rect id="Rectangle" x="20.58" y="7.04" width="1" height="1"></rect><rect id="Rectangle" x="15.49" y="7.04" width="1" height="1"></rect><rect id="Rectangle" x="15.49" y="21.71" width="1" height="1"></rect><rect id="Rectangle" x="20.58" y="21.71" width="1" height="1"></rect><polygon id="Path" points="26.29 20.86 26.89 20.86 26.89 20.42 26.47 20.29"></polygon><polygon id="Path" points="9.99 15.8 10.17 15.23 10.16 15.23 10.15 15.22"></polygon><polygon id="Path" points="6.04 14.77 5.45 14.77 5.45 15.23 5.89 15.35"></polygon><polygon id="Path" points="6.04 14.69 5.88 14.11 5.45 14.23 5.45 14.69"></polygon><polygon id="Path" points="10.03 13.58 10.19 14.15 10.2 14.15 10.21 14.15"></polygon><polygon id="Path" points="26.29 8.63 26.46 9.21 26.89 9.08 26.89 8.63"></polygon><polygon id="Path" points="26.29 1.84 26.89 1.84 26.89 1 26.09 1.28"></polygon><polygon id="Path" points="0.98 10.7 0.79 10.14 0.38 10.28 0.38 10.7"></polygon><polygon id="Path" points="0.98 18.6 0.38 18.6 0.38 19.03 0.78 19.17"></polygon><polygon id="Path" points="26.29 27.5 26.09 28.06 26.89 28.34 26.89 27.5"></polygon><rect id="Rectangle" transform="translate(18.102800, 32.273600) rotate(-74.291362) translate(-18.102800, -32.273600) " x="15.0013643" y="31.6752523" width="6.20287142" height="1.19669545"></rect><path d="M21,36.66 C20.1074072,35.6044445 18.871985,34.8964661 17.51,34.66 L17.26,35.83 C18.3293104,36.0219264 19.2982503,36.5806581 20,37.41 L21,36.66 Z" id="Path"></path><path d="M22.1,40.14 C22.141735,38.8883876 21.7535263,37.6602367 21,36.66 L20,37.4 C20.595762,38.1864731 20.9029386,39.1539029 20.87,40.14 L22.1,40.14 Z" id="Path"></path><path d="M21.12,43.77 C21.8014248,42.6839508 22.1491265,41.4217934 22.12,40.14 L20.9,40.14 C20.9461373,41.1968836 20.670683,42.2429124 20.11,43.14 L21.12,43.77 Z" id="Path"></path><path d="M18.18,46 C19.3636203,45.6033644 20.3899768,44.8397271 21.11,43.82 L20.11,43.15 C19.5269609,43.9626043 18.7003905,44.5685225 17.75,44.88 L18.18,46 Z" id="Path"></path><path d="M13.64,46.64 C15.179233,46.6960521 16.7162465,46.4793805 18.18,46 L17.76,44.88 C16.4324354,45.320729 15.038317,45.5271398 13.64,45.49 L13.64,46.64 Z" id="Path"></path><path d="M9.08,45.91 C10.5401557,46.439524 12.087512,46.6872367 13.64,46.64 L13.64,45.44 C12.2420706,45.4849333 10.8480778,45.2678639 9.53,44.8 L9.08,45.91 Z" id="Path"></path><path d="M6.16,43.66 C6.88677018,44.6806756 7.89925846,45.4635274 9.07,45.91 L9.53,44.8 C8.57612477,44.4485525 7.74788162,43.8221501 7.15,43 L6.16,43.66 Z" id="Path"></path><path d="M5.18,40.18 C5.16041856,41.4104312 5.50862079,42.6186929 6.18,43.65 L7.18,42.99 C6.63963294,42.1542913 6.36427648,41.1748588 6.39,40.18 L5.18,40.18 Z" id="Path"></path><path d="M6.18,36.79 C5.4868163,37.7811531 5.13573727,38.971311 5.18,40.18 L6.37,40.18 C6.32563541,39.2263762 6.59620917,38.2846389 7.14,37.5 L6.18,36.79 Z" id="Path"></path><path d="M9.79,34.8 C8.38036495,35.0045509 7.0934921,35.7155304 6.17,36.8 L7.17,37.5 C7.9207583,36.6730115 8.94201242,36.1411083 10.05,36 L9.79,34.8 Z" id="Path"></path><rect id="Rectangle" transform="translate(8.749220, 32.489212) rotate(-22.000000) translate(-8.749220, -32.489212) " x="8.14922035" y="29.3692119" width="1.2" height="6.24"></rect><path d="M4.05,32.2 C5.08094278,31.2233785 6.34971358,30.5338292 7.73,30.2 L7.42,29 C5.82789774,29.3958907 4.37079861,30.2107613 3.2,31.36 L4.05,32.2 Z" id="Path"></path><path d="M1.94,35.72 C2.34969282,34.3939081 3.07353959,33.1863533 4.05,32.2 L3.2,31.36 C2.09311767,32.4833721 1.27032486,33.8546934 0.8,35.36 L1.94,35.72 Z" id="Path"></path><path d="M1.2,40.41 C1.18498842,38.8205194 1.43161608,37.2393996 1.93,35.73 L0.8,35.34 C0.250855315,36.9731676 -0.0195863717,38.6870918 0,40.41 L1.2,40.41 Z" id="Path"></path><path d="M2.69,46.71 C1.65529357,44.7747873 1.14181206,42.6036909 1.2,40.41 L3.72965547e-17,40.41 C-0.0575751665,42.8109746 0.511084147,45.1855581 1.65,47.3 L2.69,46.71 Z" id="Path"></path><path d="M6.89,50.76 C5.1166562,49.8872209 3.65407555,48.4909626 2.7,46.76 L1.65,47.34 C2.71601187,49.2979935 4.35627323,50.8824162 6.35,51.88 L6.89,50.76 Z" id="Path"></path><path d="M13.64,52.19 C11.3078893,52.2614353 8.99279921,51.7709792 6.89,50.76 L6.35,51.83 C8.6203987,52.9251556 11.1202457,53.4601023 13.64,53.39 L13.64,52.19 Z" id="Path"></path><path d="M20.38,50.76 C18.2803507,51.7697811 15.9687882,52.2602165 13.64,52.19 L13.64,53.39 C16.1595399,53.4577717 18.6588432,52.9229414 20.93,51.83 L20.38,50.76 Z" id="Path"></path><path d="M24.62,46.71 C23.6386444,48.4374729 22.1616623,49.8308523 20.38,50.71 L20.93,51.78 C22.9256707,50.7790705 24.573838,49.2005932 25.66,47.25 L24.62,46.71 Z" id="Path"></path><path d="M26.08,40.37 C26.1381325,42.5740567 25.6321286,44.7564139 24.61,46.71 L25.67,47.29 C26.78174,45.1564161 27.3323452,42.7750487 27.27,40.37 L26.08,40.37 Z" id="Path"></path><path d="M25.34,35.66 C25.8488699,37.1774372 26.0990224,38.7696243 26.08,40.37 L27.27,40.37 C27.292007,38.6371097 27.0215461,36.9129212 26.47,35.27 L25.34,35.66 Z" id="Path"></path><path d="M23,32.06 C24.0527311,33.0588852 24.8545177,34.2924031 25.34,35.66 L26.47,35.26 C25.9184338,33.716515 25.0144923,32.3229384 23.83,31.19 L23,32.06 Z" id="Path"></path><path d="M18.88,29.86 C20.4099926,30.2520538 21.8231309,31.0066422 23,32.06 L23.81,31.19 C22.4947428,29.9997147 20.9088576,29.148417 19.19,28.71 L18.88,29.86 Z" id="Path"></path><polygon id="Path" points="17.36 35.27 16.78 35.11 16.61 35.72 17.23 35.85"></polygon><polygon id="Path" points="20.5 37.03 20.97 36.66 20.97 36.66"></polygon><polygon id="Path" points="20.62 43.44 21.11 43.77 21.12 43.77"></polygon><path d="M18,45.39 L18.21,45.95 L18,45.39 Z" id="Path"></path><polygon id="Path" points="9.3 45.35 9.07 45.91 9.08 45.91"></polygon><polygon id="Path" points="6.66 43.32 6.16 43.65 6.16 43.66"></polygon><polygon id="Path" points="6.66 37.15 7.14 37.51 7.14 37.5 7.14 37.5"></polygon><polygon id="Path" points="9.92 35.38 10.05 35.97 10.74 35.81 10.47 35.16"></polygon><polygon id="Path" points="7.58 29.59 8.13 29.37 7.93 28.88 7.42 29.02"></polygon><path d="M3.63,31.78 L3.2,31.36 L3.63,31.78 Z" id="Path"></path><polygon id="Path" points="1.37 35.54 1.93 35.73 1.93 35.73 1.94 35.72"></polygon><polygon id="Path" points="2.17 47 2.7 46.72 2.69 46.71"></polygon><path d="M6.62,51.3 L6.89,50.76 L6.62,51.3 Z" id="Path"></path><path d="M20.65,51.3 L20.38,50.76 L20.65,51.3 Z" id="Path"></path><polygon id="Path" points="25.14 47 25.66 47.3 25.67 47.29"></polygon><polygon id="Path" points="25.91 35.46 26.47 35.27 26.47 35.26 26.47 35.26"></polygon><polygon id="Path" points="23.41 31.63 23.83 31.19 23.82 31.19"></polygon><rect id="Rectangle" transform="translate(18.838744, 28.915198) rotate(-74.610000) translate(-18.838744, -28.915198) " x="18.5387444" y="28.6151983" width="1" height="1"></rect><rect id="Rectangle" x="0.38" y="58.1" width="1.2" height="6.6"></rect><rect id="Rectangle" x="0.98" y="64.09" width="25.31" height="1.2"></rect><rect id="Rectangle" x="25.69" y="58.1" width="1.2" height="6.6"></rect><rect id="Rectangle" x="0.98" y="57.5" width="25.31" height="1.2"></rect><rect id="Rectangle" x="0.38" y="64.69" width="1" height="1"></rect><rect id="Rectangle" x="26.29" y="64.69" width="1" height="1"></rect><rect id="Rectangle" x="26.29" y="57.5" width="1" height="1"></rect><rect id="Rectangle" x="0.38" y="57.5" width="1" height="1"></rect><rect id="Rectangle" transform="translate(14.476978, 79.696465) rotate(-14.400000) translate(-14.476978, -79.696465) " x="13.8769783" y="76.7664652" width="1.2" height="5.86"></rect><rect id="Rectangle" transform="translate(20.749911, 79.294877) rotate(-30.320000) translate(-20.749911, -79.294877) " x="14.329911" y="78.6948766" width="12.84" height="1.2"></rect><rect id="Rectangle" x="25.69" y="68.78" width="1.2" height="7.29"></rect><rect id="Rectangle" transform="translate(20.019550, 72.825306) rotate(-32.830000) translate(-20.019550, -72.825306) " x="12.5595504" y="72.2253062" width="14.92" height="1.2"></rect><rect id="Rectangle" x="11.77" y="80.74" width="1.2" height="4.68"></rect><rect id="Rectangle" x="5.97" y="84.82" width="6.4" height="1.2"></rect><rect id="Rectangle" x="5.37" y="80.74" width="1.2" height="4.68"></rect><path d="M6.27,77.49 C5.60868114,78.4392478 5.29117716,79.5857899 5.37,80.74 L6.57,80.74 C6.49832592,79.8599745 6.71983693,78.9809625 7.2,78.24 L6.27,77.49 Z" id="Path"></path><path d="M9.15,76.31 C8.05779906,76.2282067 6.9908199,76.6653718 6.27,77.49 L7.2,78.24 C7.70899316,77.6862379 8.45314811,77.4109006 9.2,77.5 L9.15,76.31 Z" id="Path"></path><path d="M12.07,77.49 C11.3348677,76.6615139 10.2543369,76.224861 9.15,76.31 L9.15,77.5 C9.89625622,77.4158642 10.6382283,77.6903939 11.15,78.24 L12.07,77.49 Z" id="Path"></path><path d="M13,80.74 C13.0740332,79.5862802 12.7569593,78.4412911 12.1,77.49 L11.17,78.24 C11.6501631,78.9809625 11.8716741,79.8599745 11.8,80.74 L13,80.74 Z" id="Path"></path><rect id="Rectangle" x="0.38" y="79.82" width="1.2" height="12.08"></rect><rect id="Rectangle" x="0.98" y="91.3" width="25.31" height="1.2"></rect><rect id="Rectangle" x="25.69" y="85.42" width="1.2" height="6.48"></rect><rect id="Rectangle" x="17.05" y="84.82" width="9.24" height="1.2"></rect><rect id="Rectangle" x="16.45" y="80.39" width="1.2" height="5.02"></rect><rect id="Rectangle" transform="translate(16.879335, 80.085202) rotate(-29.360000) translate(-16.879335, -80.085202) " x="16.2793347" y="79.7352023" width="1.2" height="1"></rect><path d="M14.21,73.14 C15.45,74.66 16.11,76.85 16.11,79.78 L17.3,79.78 C17.3,76.68 16.61,74.19 15.14,72.39 L14.21,73.14 Z" id="Path"></path><path d="M8.77,70.87 C10.8392763,70.7298911 12.8540589,71.5706184 14.21,73.14 L15.14,72.39 C13.5586848,70.5373087 11.2018057,69.5309176 8.77,69.67 L8.77,70.87 Z" id="Path"></path><path d="M3.59,73.19 C4.85769443,71.6476436 6.77517496,70.7888492 8.77,70.87 L8.77,69.67 C6.41930342,69.5863997 4.16394129,70.6031613 2.67,72.42 L3.59,73.19 Z" id="Path"></path><path d="M1.58,79.82 C1.58,76.89 2.28,74.71 3.58,73.19 L2.68,72.41 C1.0387718,74.5186595 0.221209971,77.1526304 0.38,79.82 L1.58,79.82 Z" id="Path"></path><polygon id="Path" points="15.21 82.54 14.63 82.69 14.83 83.46 15.51 83.06"></polygon><polygon id="Path" points="26.29 76.06 26.59 76.58 26.89 76.41 26.89 76.06"></polygon><polygon id="Path" points="26.29 68.78 26.89 68.78 26.89 67.68 25.97 68.27"></polygon><polygon id="Path" points="13.75 76.87 13.43 76.36 13.06 76.6 13.17 77.02"></polygon><rect id="Rectangle" x="12.37" y="85.42" width="1" height="1"></rect><rect id="Rectangle" x="5.37" y="85.42" width="1" height="1"></rect><path d="M6.73,77.86 L6.27,77.49 L6.73,77.86 Z" id="Path"></path><path d="M11.6,77.86 L11.14,78.24 L11.6,77.86 Z" id="Path"></path><rect id="Rectangle" x="0.38" y="91.9" width="1" height="1"></rect><rect id="Rectangle" x="26.29" y="91.9" width="1" height="1"></rect><rect id="Rectangle" x="26.29" y="84.82" width="1" height="1"></rect><rect id="Rectangle" x="16.45" y="85.42" width="1" height="1"></rect><polygon id="Path" points="17.05 80.39 17.65 80.39 17.65 80.24 17.57 80.1"></polygon><polygon id="Path" points="16.7 79.78 16.11 79.78 16.11 79.94 16.18 80.08"></polygon><polygon id="Path" points="3.13 72.8 3.58 73.19 3.59 73.19 3.59 73.19"></polygon><rect id="Rectangle" x="0.38" y="96.44" width="1.2" height="23.12"></rect><rect id="Rectangle" x="0.98" y="118.96" width="5.1" height="1.2"></rect><rect id="Rectangle" x="5.48" y="111.28" width="1.2" height="8.28"></rect><rect id="Rectangle" x="6.08" y="110.68" width="20.21" height="1.2"></rect><rect id="Rectangle" x="25.69" y="104.68" width="1.2" height="6.6"></rect><rect id="Rectangle" x="6.08" y="104.08" width="20.21" height="1.2"></rect><rect id="Rectangle" x="5.48" y="96.44" width="1.2" height="8.24"></rect><rect id="Rectangle" x="0.98" y="95.84" width="5.1" height="1.2"></rect><rect id="Rectangle" x="0.38" y="119.56" width="1" height="1"></rect><rect id="Rectangle" x="6.08" y="119.56" width="1" height="1"></rect><rect id="Rectangle" x="5.48" y="110.68" width="1" height="1"></rect><rect id="Rectangle" x="26.29" y="111.28" width="1" height="1"></rect><rect id="Rectangle" x="26.29" y="104.08" width="1" height="1"></rect><rect id="Rectangle" x="5.48" y="104.68" width="1" height="1"></rect><rect id="Rectangle" x="6.08" y="95.84" width="1" height="1"></rect><rect id="Rectangle" x="0.38" y="95.84" width="1" height="1"></rect><rect id="Rectangle" x="25.69" y="122.47" width="1.2" height="20.21"></rect><rect id="Rectangle" x="21.19" y="121.87" width="5.1" height="1.2"></rect><rect id="Rectangle" x="20.59" y="122.47" width="1.2" height="13.61"></rect><rect id="Rectangle" x="16.01" y="135.48" width="5.18" height="1.2"></rect><rect id="Rectangle" x="15.41" y="125.65" width="1.2" height="10.43"></rect><rect id="Rectangle" x="11.22" y="125.05" width="4.79" height="1.2"></rect><rect id="Rectangle" x="10.62" y="125.65" width="1.2" height="10.43"></rect><rect id="Rectangle" x="6.08" y="135.48" width="5.14" height="1.2"></rect><rect id="Rectangle" x="5.48" y="122.97" width="1.2" height="13.11"></rect><rect id="Rectangle" x="0.98" y="122.37" width="5.1" height="1.2"></rect><rect id="Rectangle" x="0.38" y="122.97" width="1.2" height="19.71"></rect><rect id="Rectangle" x="0.98" y="142.08" width="25.31" height="1.2"></rect><rect id="Rectangle" x="26.29" y="121.87" width="1" height="1"></rect><rect id="Rectangle" x="20.59" y="121.87" width="1" height="1"></rect><rect id="Rectangle" x="21.19" y="136.08" width="1" height="1"></rect><rect id="Rectangle" x="15.41" y="136.08" width="1" height="1"></rect><rect id="Rectangle" x="16.01" y="125.05" width="1" height="1"></rect><rect id="Rectangle" x="10.62" y="125.05" width="1" height="1"></rect><rect id="Rectangle" x="11.22" y="136.08" width="1" height="1"></rect><rect id="Rectangle" x="5.48" y="136.08" width="1" height="1"></rect><rect id="Rectangle" x="6.08" y="122.37" width="1" height="1"></rect><rect id="Rectangle" x="0.38" y="122.37" width="1" height="1"></rect><rect id="Rectangle" x="0.38" y="142.67" width="1" height="1"></rect><rect id="Rectangle" x="26.29" y="142.67" width="1" height="1"></rect><rect id="Rectangle" x="0.38" y="149.05" width="1.2" height="9.01"></rect><rect id="Rectangle" transform="translate(7.448044, 160.025502) rotate(-73.010000) translate(-7.448044, -160.025502) " x="6.84804353" y="153.270502" width="1.2" height="13.51"></rect><rect id="Rectangle" transform="translate(16.569727, 162.736800) rotate(-74.710000) translate(-16.569727, -162.736800) " x="15.9697272" y="159.9718" width="1.2" height="5.53"></rect><rect id="Rectangle" x="18.64" y="163.46" width="1.2" height="1"></rect><rect id="Rectangle" transform="translate(16.527613, 164.257568) rotate(-14.800000) translate(-16.527613, -164.257568) " x="13.7526129" y="163.657568" width="5.55" height="1.2"></rect><rect id="Rectangle" transform="translate(7.425693, 166.952812) rotate(-17.200000) translate(-7.425693, -166.952812) " x="0.680692744" y="166.352812" width="13.49" height="1.2"></rect><rect id="Rectangle" x="0.38" y="168.95" width="1.2" height="9.39"></rect><rect id="Rectangle" x="0.98" y="177.74" width="25.31" height="1.2"></rect><rect id="Rectangle" x="25.69" y="172.48" width="1.2" height="5.87"></rect><rect id="Rectangle" x="14.67" y="171.88" width="11.62" height="1.2"></rect><rect id="Rectangle" transform="translate(10.783499, 172.572668) rotate(-1.410000) translate(-10.783499, -172.572668) " x="6.88849883" y="171.972668" width="7.79" height="1.2"></rect><rect id="Rectangle" x="6.29" y="172.59" width="1.2" height="1"></rect><rect id="Rectangle" transform="translate(16.598943, 169.463196) rotate(-17.860000) translate(-16.598943, -169.463196) " x="6.40894285" y="168.863196" width="20.38" height="1.2"></rect><rect id="Rectangle" x="25.69" y="161.01" width="1.2" height="5.33"></rect><rect id="Rectangle" transform="translate(16.577780, 157.893366) rotate(-72.140000) translate(-16.577780, -157.893366) " x="15.97778" y="147.703366" width="1.2" height="20.38"></rect><rect id="Rectangle" x="6.29" y="154.68" width="1.2" height="1"></rect><rect id="Rectangle" transform="translate(10.783695, 154.777399) rotate(-88.590000) translate(-10.783695, -154.777399) " x="10.1836953" y="150.882399" width="1.2" height="7.79"></rect><rect id="Rectangle" x="14.67" y="154.28" width="11.62" height="1.2"></rect><rect id="Rectangle" x="25.69" y="149.05" width="1.2" height="5.83"></rect><rect id="Rectangle" x="0.98" y="148.45" width="25.31" height="1.2"></rect><polygon id="Path" points="0.98 158.06 0.38 158.06 0.38 158.5 0.81 158.63"></polygon><polygon id="Path" points="13.9 162.01 13.73 162.58 13.74 162.58 13.75 162.59"></polygon><polygon id="Path" points="19.23 163.46 19.83 163.46 19.83 163.01 19.39 162.89"></polygon><polygon id="Path" points="19.23 163.54 19.39 164.12 19.83 164 19.83 163.54"></polygon><polygon id="Path" points="13.87 164.96 13.71 164.38 13.7 164.38 13.69 164.39"></polygon><polygon id="Path" points="0.98 168.95 0.81 168.38 0.38 168.51 0.38 168.95"></polygon><rect id="Rectangle" x="0.38" y="178.34" width="1" height="1"></rect><rect id="Rectangle" x="26.29" y="178.34" width="1" height="1"></rect><rect id="Rectangle" x="26.29" y="171.88" width="1" height="1"></rect><polygon id="Path" points="14.67 172.47 14.67 171.88 14.66 171.88 14.66 171.88"></polygon><polygon id="Path" points="6.89 172.67 6.29 172.67 6.29 173.28 6.9 173.27"></polygon><polygon id="Path" points="6.89 172.59 6.7 172.02 6.29 172.15 6.29 172.59"></polygon><polygon id="Path" points="26.29 166.34 26.47 166.91 26.89 166.78 26.89 166.34"></polygon><polygon id="Path" points="26.29 161.01 26.89 161.01 26.89 160.57 26.47 160.44"></polygon><polygon id="Path" points="6.89 154.76 6.29 154.76 6.29 155.2 6.7 155.33"></polygon><polygon id="Path" points="6.89 154.68 6.9 154.08 6.29 154.07 6.29 154.68"></polygon><polygon id="Path" points="14.67 154.88 14.66 155.47 14.66 155.47 14.67 155.47"></polygon><rect id="Rectangle" x="26.29" y="154.87" width="1" height="1"></rect><rect id="Rectangle" x="26.29" y="148.45" width="1" height="1"></rect><rect id="Rectangle" x="0.38" y="148.45" width="1" height="1"></rect><path d="M20.58,21.71 L16.09,21.71 L16.09,7.63 L20.58,7.63 L20.58,21.71 Z M26.29,27.5 L1,18.6 L1,10.7 L26.29,1.84 L26.29,8.63 L10,13.58 L6,14.69 L6,14.77 L10,15.77 L26.3,20.83 L26.29,27.5 Z M19,29.29 C20.6282811,29.6952694 22.1300889,30.4994411 23.37,31.63 C24.4925876,32.6925875 25.349055,34.0046954 25.87,35.46 C26.3945142,37.0430395 26.6513703,38.7024651 26.63,40.37 C26.7027919,42.6705185 26.1900978,44.9518353 25.14,47 C24.1102061,48.8525531 22.545321,50.3512182 20.65,51.3 C18.467522,52.34381 16.0683861,52.8544832 13.65,52.79 C11.231649,52.854101 8.83260161,52.3434466 6.65,51.3 C4.75100121,50.3600575 3.18698327,48.8588796 2.17,47 C1.08229858,44.9773143 0.54114342,42.7058414 0.6,40.41 C0.578529842,38.7547392 0.838913721,37.1078957 1.37,35.54 C1.81020839,34.1232524 2.58543687,32.8334918 3.63,31.78 C4.74517826,30.7077154 6.1258347,29.951806 7.63,29.59 L9.97,35.38 C8.70502277,35.5562931 7.54682406,36.185131 6.71,37.15 C6.0989583,38.0280429 5.79008779,39.0810106 5.83,40.15 C5.80290225,41.2610955 6.10942196,42.3548136 6.71,43.29 C7.37221194,44.2036993 8.29114923,44.8998639 9.35,45.29 C10.7405797,45.7901909 12.2128596,46.024263 13.69,45.98 C15.1501486,46.037589 16.6090454,45.8378792 18,45.39 C19.0764215,45.0275414 20.0062672,44.3257711 20.65,43.39 C21.2568209,42.3984747 21.5625417,41.252022 21.53,40.09 C21.566335,38.9688852 21.2129429,37.8698358 20.53,36.98 C19.7207092,36.0449809 18.6099397,35.4223841 17.39,35.22 L19,29.29 Z M1,58.1 L26.29,58.1 L26.29,64.69 L1,64.69 L1,58.1 Z M13.75,76.87 L26.29,68.78 L26.29,76.06 L15.21,82.54 L13.75,76.87 Z M12.37,80.74 C12.4480153,79.720397 12.176438,78.7046276 11.6,77.86 C10.9889414,77.1558622 10.0792533,76.7845609 9.15,76.86 C8.23071413,76.7926932 7.33361924,77.1633936 6.73,77.86 C6.1719753,78.7115852 5.91499516,79.7254247 6,80.74 L6,85.42 L12.4,85.42 L12.37,80.74 Z M1,79.82 C1,76.8 1.71666667,74.4666667 3.15,72.82 C4.53565224,71.147302 6.6192944,70.2126186 8.79,70.29 C11.0386659,70.1468363 13.2238326,71.0690508 14.69,72.78 C16.05,74.45 16.69,76.78 16.69,79.78 L17.04,80.39 L17.04,85.39 L26.28,85.39 L26.28,91.9 L1,91.9 L1,79.82 Z M1,96.44 L6.1,96.44 L6.1,104.68 L26.29,104.68 L26.29,111.28 L6.08,111.28 L6.08,119.56 L1,119.56 L1,96.44 Z M26.31,142.67 L1,142.67 L1,123 L6.1,123 L6.1,136.11 L11.24,136.11 L11.24,125.65 L16,125.65 L16,136.08 L21.18,136.08 L21.18,122.47 L26.28,122.47 L26.31,142.67 Z M1,149.05 L26.29,149.05 L26.29,154.87 L14.67,154.87 L6.89,154.68 L6.89,154.76 L26.29,161 L26.29,166.33 L6.89,172.58 L6.89,172.66 L14.67,172.47 L26.29,172.47 L26.29,178.33 L1,178.33 L1,169 L13.89,165 L19.26,163.58 L19.26,163.5 L13.91,162 L1,158.06 L1,149.05 Z" id="Shape"></path></g></g></svg>