<?xml version="1.0" encoding="utf-8"?>
<!-- Generator: Adobe Illustrator 20.0.0, SVG Export Plug-In . SVG Version: 6.00 Build 0)  -->
<svg version="1.1" id="Layer_1" xmlns="http://www.w3.org/2000/svg" xmlns:xlink="http://www.w3.org/1999/xlink" x="0px" y="0px"
	 viewBox="0 0 521.7 170.7" style="enable-background:new 0 0 521.7 170.7;" xml:space="preserve">
<style type="text/css">
	.st0{fill:#0F0E0E;}
	.st1{clip-path:url(#SVGID_2_);fill:url(#SVGID_3_);}
	.st2{clip-path:url(#SVGID_5_);fill:url(#SVGID_6_);}
	.st3{clip-path:url(#SVGID_8_);fill:url(#SVGID_9_);}
	.st4{clip-path:url(#SVGID_11_);fill:url(#SVGID_12_);}
	.st5{fill:#F9F9F9;}
</style>
<g>
	<path class="st0" d="M521.6,147.9c0,12.7-10.3,23-23,23H24.2c-12.7,0-23-10.3-23-23V23.6c0-12.7,10.3-23,23-23h474.5
		c12.7,0,23,10.3,23,23v124.2L521.6,147.9L521.6,147.9z"/>
	<g id="PLAY_1_">
		<g>
			<g>
				<defs>
					<path id="SVGID_1_" d="M113.9,75.5L90.4,62c0,0-42.7-24.7-45.3-26.2c-2.5-1.4-5-0.5-5,2.4c0,5.1,0,52.7,0,52.7s0,51.5,0,53.8
						c0,2.2,1.8,3.3,4,2s46.3-26.8,46.3-26.8l23.5-13.5c0,0,19.9-11.5,22.6-13c2.6-1.5,2.4-3.7,0.2-4.8
						C134.4,87.4,113.9,75.5,113.9,75.5z"/>
				</defs>
				<clipPath id="SVGID_2_">
					<use xlink:href="#SVGID_1_"  style="overflow:visible;"/>
				</clipPath>
				
					<linearGradient id="SVGID_3_" gradientUnits="userSpaceOnUse" x1="69.25" y1="761.4" x2="69.25" y2="876.7" gradientTransform="matrix(1 0 0 1 0 -728)">
					<stop  offset="0" style="stop-color:#257DB0"/>
					<stop  offset="0.208" style="stop-color:#3C90B3"/>
					<stop  offset="0.7416" style="stop-color:#73BDB9"/>
					<stop  offset="1" style="stop-color:#89CEBC"/>
				</linearGradient>
				<polygon class="st1" points="40.2,33.4 40.2,91 40.2,148.7 98.3,91 				"/>
			</g>
		</g>
		<g>
			<g>
				<defs>
					<path id="SVGID_4_" d="M113.9,75.5L90.4,62c0,0-42.7-24.7-45.3-26.2c-2.5-1.4-5-0.5-5,2.4c0,5.1,0,52.7,0,52.7s0,51.5,0,53.8
						c0,2.2,1.8,3.3,4,2s46.3-26.8,46.3-26.8l23.5-13.5c0,0,19.9-11.5,22.6-13c2.6-1.5,2.4-3.7,0.2-4.8
						C134.4,87.4,113.9,75.5,113.9,75.5z"/>
				</defs>
				<clipPath id="SVGID_5_">
					<use xlink:href="#SVGID_4_"  style="overflow:visible;"/>
				</clipPath>
				
					<linearGradient id="SVGID_6_" gradientUnits="userSpaceOnUse" x1="40.2" y1="790" x2="113.9757" y2="790" gradientTransform="matrix(1 0 0 1 0 -728)">
					<stop  offset="0" style="stop-color:#51BFAC"/>
					<stop  offset="1" style="stop-color:#DEE899"/>
				</linearGradient>
				<polygon class="st2" points="113.9,75.5 90.4,62 40.2,33 40.2,33.4 98.3,91 				"/>
			</g>
		</g>
		<g>
			<g>
				<defs>
					<path id="SVGID_7_" d="M113.9,75.5L90.4,62c0,0-42.7-24.7-45.3-26.2c-2.5-1.4-5-0.5-5,2.4c0,5.1,0,52.7,0,52.7s0,51.5,0,53.8
						c0,2.2,1.8,3.3,4,2s46.3-26.8,46.3-26.8l23.5-13.5c0,0,19.9-11.5,22.6-13c2.6-1.5,2.4-3.7,0.2-4.8
						C134.4,87.4,113.9,75.5,113.9,75.5z"/>
				</defs>
				<clipPath id="SVGID_8_">
					<use xlink:href="#SVGID_7_"  style="overflow:visible;"/>
				</clipPath>
				
					<linearGradient id="SVGID_9_" gradientUnits="userSpaceOnUse" x1="77.05" y1="819" x2="77.05" y2="877.1" gradientTransform="matrix(1 0 0 1 0 -728)">
					<stop  offset="0" style="stop-color:#EB403D"/>
					<stop  offset="0.1937" style="stop-color:#D64252"/>
					<stop  offset="0.7369" style="stop-color:#9F4887"/>
					<stop  offset="1" style="stop-color:#894A9C"/>
				</linearGradient>
				<polygon class="st3" points="40.2,148.7 40.2,149.1 90.4,120.1 113.9,106.6 98.3,91 				"/>
			</g>
		</g>
		<g>
			<g>
				<defs>
					<path id="SVGID_10_" d="M113.9,75.5L90.4,62c0,0-42.7-24.7-45.3-26.2c-2.5-1.4-5-0.5-5,2.4c0,5.1,0,52.7,0,52.7s0,51.5,0,53.8
						c0,2.2,1.8,3.3,4,2s46.3-26.8,46.3-26.8l23.5-13.5c0,0,19.9-11.5,22.6-13c2.6-1.5,2.4-3.7,0.2-4.8
						C134.4,87.4,113.9,75.5,113.9,75.5z"/>
				</defs>
				<clipPath id="SVGID_11_">
					<use xlink:href="#SVGID_10_"  style="overflow:visible;"/>
				</clipPath>
				
					<linearGradient id="SVGID_12_" gradientUnits="userSpaceOnUse" x1="119.5" y1="803.5" x2="119.5" y2="834.467" gradientTransform="matrix(1 0 0 1 0 -728)">
					<stop  offset="0" style="stop-color:#F48779"/>
					<stop  offset="0.6121" style="stop-color:#FAB076"/>
					<stop  offset="1" style="stop-color:#FDC674"/>
				</linearGradient>
				<polygon class="st4" points="113.9,75.5 98.3,91 113.9,106.6 140.7,91 				"/>
			</g>
		</g>
	</g>
	<g>
		<path class="st5" d="M406.2,113.6c-2.1,0-4.2-0.4-6-1.2c-1.8-0.8-3.4-2-4.6-3.8h-0.3c0.2,1.9,0.4,3.8,0.4,5.6V128h-5.1V79.4h4.2
			l0.7,4.6h0.2c1.3-1.8,2.8-3.2,4.6-4c1.7-0.8,3.8-1.2,6-1.2c4.5,0,7.8,1.5,10.3,4.6s3.7,7.3,3.7,12.8s-1.2,9.8-3.7,12.8
			C413.9,112.1,410.6,113.6,406.2,113.6z M405.5,83.2c-3.5,0-5.9,0.9-7.4,2.8s-2.3,4.9-2.3,9.1v1.1c0,4.7,0.8,8,2.3,10.1
			c1.5,2,4.1,3.1,7.5,3.1c2.8,0,5.2-1.2,6.8-3.6c1.6-2.3,2.4-5.6,2.4-9.7c0-4.2-0.8-7.4-2.4-9.7C410.8,84.3,408.4,83.2,405.5,83.2z"
			/>
		<path class="st5" d="M431.8,113h-5.1V65.3h5.1V113z"/>
		<path class="st5" d="M461.1,113l-1-4.8h-0.2c-1.6,2.1-3.4,3.6-5,4.3c-1.6,0.7-3.8,1.1-6.2,1.1c-3.4,0-5.9-0.8-7.8-2.5
			s-2.8-4.2-2.8-7.3c0-6.8,5.4-10.3,16.3-10.7l5.7-0.2v-2c0-2.6-0.6-4.6-1.7-5.8c-1.1-1.2-3-1.8-5.4-1.8c-2.7,0-6,0.8-9.5,2.5
			l-1.5-3.9c1.6-0.9,3.5-1.6,5.4-2.1s4-0.8,5.9-0.8c4,0,6.9,0.9,8.9,2.6s2.8,4.6,2.8,8.5V113H461.1z M449.7,109.4
			c3.2,0,5.6-0.9,7.4-2.6s2.7-4.2,2.7-7.3v-3.1l-5.1,0.2c-4.1,0.1-6.9,0.8-8.8,1.9c-1.8,1.1-2.6,2.8-2.6,5.2c0,1.8,0.5,3.3,1.6,4.2
			C446.1,108.9,447.6,109.4,449.7,109.4z"/>
		<path class="st5" d="M467.8,79.4h5.4l7.3,19.1c1.6,4.4,2.6,7.5,3,9.5h0.2c0.3-1,0.8-2.8,1.6-5.3c0.8-2.5,3.7-10.3,8.3-23.2h5.5
			l-14.2,38.2c-1.4,3.8-3.1,6.4-5,8s-4.3,2.3-7,2.3c-1.5,0-3.1-0.2-4.6-0.5v-4.1c1.1,0.2,2.3,0.4,3.8,0.4c3.5,0,6-1.9,7.4-5.9
			l1.8-4.8L467.8,79.4z"/>
	</g>
	<g>
		<path class="st5" d="M312.1,82.5c1.6,1.3,5,4.2,5,9.5c0,5.2-3,7.6-5.9,10c-0.9,0.9-1.9,1.9-1.9,3.5c0,1.5,1,2.3,1.8,3.1l2.5,1.9
			c3.1,2.6,5.9,5,5.9,9.9c0,6.6-6.4,13.2-18.4,13.2c-10.2,0-15.1-4.9-15.1-10.1c0-2.5,1.2-6.1,5.4-8.5c4.4-2.6,10.3-3.1,13.4-3.3
			c-1-1.2-2.1-2.5-2.1-4.8c0-1.2,0.3-1.9,0.7-2.7c-0.8,0.1-1.5,0.1-2.2,0.1c-7.4,0-11.6-5.5-11.6-11c0-3.3,1.4-6.8,4.5-9.4
			c4-3.3,8.8-3.9,12.5-3.9H321l-4.5,2.5H312.1L312.1,82.5z M307.2,113.7c-0.6-0.1-0.9-0.1-1.6-0.1c-0.6,0-4.4,0.1-7.3,1.1
			c-1.5,0.5-6,2.2-6,7.2s4.9,8.5,12.3,8.5c6.7,0,10.3-3.3,10.3-7.5C314.8,119.4,312.5,117.4,307.2,113.7z M309.2,100.4
			c1.6-1.6,1.7-3.9,1.7-5.1c0-5.1-3.1-12.9-8.9-12.9c-1.8,0-3.8,0.9-4.9,2.3c-1.2,1.4-1.5,3.4-1.5,5.2c0,4.7,2.7,12.5,8.8,12.5
			C306.2,102.3,308,101.5,309.2,100.4z"/>
		<path class="st5" d="M268,112.6c-11.1,0-17.1-8.6-17.1-16.5c0-9.2,7.5-17,18.1-17c10.3,0,16.7,8,16.7,16.5
			C285.7,103.8,279.4,112.6,268,112.6z M276.8,106.9c1.7-2.2,2.1-5.1,2.1-7.7c0-6.2-3-17.9-11.6-17.9c-2.3,0-4.6,0.9-6.3,2.3
			c-2.7,2.4-3.3,5.5-3.3,8.5c0,6.9,3.5,18.3,11.9,18.3C272.3,110.4,275.1,109.1,276.8,106.9z"/>
		<path class="st5" d="M230.1,112.6c-11.1,0-17.1-8.6-17.1-16.5c0-9.2,7.5-17,18.1-17c10.3,0,16.7,8,16.7,16.5
			C247.8,103.8,241.5,112.6,230.1,112.6z M238.8,106.9c1.7-2.2,2.1-5.1,2.1-7.7c0-6.2-3-17.9-11.6-17.9c-2.3,0-4.6,0.9-6.3,2.3
			c-2.7,2.4-3.3,5.5-3.3,8.5c0,6.9,3.5,18.3,11.9,18.3C234.3,110.4,237.2,109.1,238.8,106.9z"/>
		<path class="st5" d="M207.6,111.4l-10.1,2.3c-4.1,0.6-7.7,1.2-11.6,1.2c-19.4,0-26.9-14.2-26.9-25.4c0-13.6,10.5-26.4,28.4-26.4
			c3.8,0,7.4,0.6,10.8,1.5c5.3,1.5,7.7,3.3,9.3,4.4l-5.8,5.6l-2.4,0.6l1.7-2.8c-2.4-2.3-6.7-6.6-15.1-6.6
			c-11.1,0-19.5,8.4-19.5,20.8c0,13.2,9.6,25.6,24.9,25.6c4.5,0,6.8-0.9,9-1.7V99l-10.6,0.6l5.6-3.1h15l-1.8,1.7
			c-0.5,0.4-0.6,0.6-0.7,1.1c-0.1,0.6-0.1,2.6-0.1,3.4L207.6,111.4L207.6,111.4z"/>
		<path class="st5" d="M334.4,109.4c-2.3-0.2-2.8-0.6-2.8-3.4v-0.8v-39c0-0.1,0-0.3,0-0.4c0.3-2.4,1-2.8,3.2-4.2h-10.1l-5.3,2.5h5.4
			l0,0l0,0v41.1v2.3c0,1.4-0.3,1.6-1.9,3.8h12.4l2.6-1.5C336.8,109.6,335.6,109.6,334.4,109.4z"/>
		<path class="st5" d="M363.1,110.1c-0.8,0.4-1.5,0.9-2.3,1.2c-2.3,1-4.7,1.3-6.8,1.3c-2.2,0-5.7-0.1-9.3-2.7
			c-5-3.5-7.1-9.5-7.1-14.8c0-10.8,8.9-16.2,16-16.2c2.5,0,5.1,0.6,7.2,1.9c3.5,2.3,4.4,5.3,4.9,6.9l-16.4,6.6l-5.4,0.4
			c1.7,8.9,7.7,14,14.4,14c3.6,0,6.1-1.2,8.5-2.4L363.1,110.1z M356.4,89.3c1.3-0.5,2-0.9,2-1.9c0-2.7-3.2-6-6.9-6
			c-2.8,0-8,2.1-8,9.7c0,1.2,0.1,2.4,0.2,3.7L356.4,89.3z"/>
		<g>
			<path class="st5" d="M369.8,79.5v4.6h-0.6v-4.6h-1.5V79h3.6v0.5H369.8z"/>
			<path class="st5" d="M376.1,84.2v-4.7l0,0l-1.4,4.7h-0.4l-1.4-4.7l0,0v4.7h-0.5v-5.1h0.9l1.3,4.1l0,0l1.3-4.1h0.9v5.1H376.1z"/>
		</g>
	</g>
	<g>
		<path class="st5" d="M173.1,49.5h-3.5c0-0.5-0.3-1.8-1-4.1h-5.1c-0.7,2.2-1,3.6-1,4.1h-3.3c0-0.3,0.8-2.6,2.5-7s2.5-6.8,2.5-7.2
			h4.2c0,0.4,0.8,2.7,2.3,7.1C172.3,46.7,173.1,49.1,173.1,49.5z M168,43.3c-1.2-3.8-1.8-5.8-1.8-6.1H166c0,0.3-0.6,2.3-1.9,6.1H168
			z"/>
		<path class="st5" d="M187.1,49.5h-2.7c0-0.3-1-1.8-3.1-4.8c-2.1-3.1-3.3-5.1-3.6-6.2h-0.2c0.2,1.6,0.3,3.1,0.3,4.4
			c0,1.8,0,4,0.2,6.6h-2.6c0.1-2.2,0.2-4.8,0.2-7.4c0-2.6-0.1-4.9-0.2-6.8h3.3c0,0.4,0.9,1.9,2.7,4.6c1.9,2.8,3.1,4.8,3.3,5.8h0.2
			c-0.2-1.6-0.3-3.1-0.3-4.4c0-1.9-0.1-4-0.2-6.1h2.7c-0.1,1.8-0.2,4.1-0.2,6.8C187,44.8,187,47.2,187.1,49.5z"/>
		<path class="st5" d="M203,41.8c0,2-0.7,3.9-2,5.4s-3.2,2.3-5.6,2.3c-1.1,0-2.5,0-4.5-0.1c0.1-2.2,0.1-4.7,0.1-7.4
			c0-2.6,0-4.9-0.1-6.8h1.9c0.3,0,0.8,0,1.4,0c0.6,0,1,0,1.2,0c2.6,0,4.6,0.6,5.7,1.9C202.4,38.5,203,40,203,41.8z M200,42.3
			c0-1.4-0.4-2.5-1.2-3.6c-0.8-0.9-2-1.4-3.8-1.4c-0.3,0-0.7,0-1.3,0.1c0.1,1.4,0.1,3,0.1,4.6c0,1.7,0,3.5,0.1,5.2
			c0.5,0.1,0.9,0.1,1.4,0.1c1.5,0,2.7-0.5,3.5-1.4C199.6,44.9,200,43.7,200,42.3z"/>
		<path class="st5" d="M217.6,49.5h-3.3c-0.8-2.5-1.5-4.2-1.9-4.8s-1.2-0.9-2.1-0.9c-0.4,0-0.8,0-1.2,0c0,1.8,0,3.8,0.1,5.7h-3.1
			c0.1-2.2,0.1-4.7,0.1-7.4c0-2.6,0-4.9-0.1-6.8h1.9c0.2,0,0.7,0,1.3,0c0.7,0,1.3,0,1.9,0c3.4,0,5,1.1,5,3.5c0,1.8-0.9,3.1-2.8,3.8
			v0.2c0.7,0.2,1.4,0.8,1.9,1.7C215.9,45.2,216.6,46.9,217.6,49.5z M213.5,39.4c0-1.4-0.9-2.1-2.8-2.1c-0.7,0-1.3,0-1.8,0.2
			c0.1,1.1,0.1,2.6,0.1,4.4c0.4,0,0.7,0,1,0C212.4,41.8,213.5,41,213.5,39.4z"/>
		<path class="st5" d="M233.3,42c0,2.2-0.7,4.1-2,5.6c-1.3,1.4-3.1,2.2-5.1,2.2c-1.9,0-3.6-0.7-4.8-2c-1.3-1.3-1.9-3.1-1.9-5.2
			c0-2.2,0.7-4.1,2-5.6c1.3-1.4,3.1-2.2,5.1-2.2c1.9,0,3.6,0.7,4.8,2C232.6,38.3,233.3,40,233.3,42z M230.3,42.3
			c0-1.5-0.4-2.7-1.1-3.7c-0.8-0.9-1.7-1.4-2.8-1.4c-1,0-1.9,0.5-2.7,1.4c-0.7,0.9-1.1,2.1-1.1,3.7s0.4,2.7,1.2,3.7
			c0.8,0.9,1.7,1.4,2.8,1.4c1,0,1.9-0.5,2.7-1.4C229.9,45.1,230.3,43.9,230.3,42.3z"/>
		<path class="st5" d="M239.4,49.5h-3.1c0.1-2.2,0.1-4.8,0.1-7.4c0-2.6,0-4.9-0.1-6.8h3.1c-0.1,1.8-0.1,4.1-0.1,6.8
			S239.4,47.2,239.4,49.5z"/>
		<path class="st5" d="M255.3,41.8c0,2-0.7,3.9-2,5.4s-3.2,2.3-5.6,2.3c-1.1,0-2.5,0-4.5-0.1c0.1-2.2,0.1-4.7,0.1-7.4
			c0-2.6,0-4.9-0.1-6.8h1.9c0.3,0,0.8,0,1.4,0c0.6,0,1,0,1.2,0c2.6,0,4.6,0.6,5.7,1.9C254.7,38.5,255.3,40,255.3,41.8z M252.3,42.3
			c0-1.4-0.4-2.5-1.2-3.6c-0.8-0.9-2-1.4-3.8-1.4c-0.3,0-0.7,0-1.3,0.1c0.1,1.4,0.1,3,0.1,4.6c0,1.7,0,3.5,0.1,5.2
			c0.5,0.1,0.9,0.1,1.4,0.1c1.5,0,2.7-0.5,3.5-1.4C251.9,44.9,252.3,43.7,252.3,42.3z"/>
		<path class="st5" d="M276.4,49.5h-3.5c0-0.5-0.3-1.8-1-4.1h-5.1c-0.7,2.2-1,3.6-1,4.1h-3.3c0-0.3,0.8-2.6,2.5-7s2.5-6.8,2.5-7.2
			h4.2c0,0.4,0.8,2.7,2.3,7.1C275.5,46.7,276.4,49.1,276.4,49.5z M271.3,43.3c-1.2-3.8-1.8-5.8-1.8-6.1h-0.2c0,0.3-0.6,2.3-1.9,6.1
			H271.3z"/>
		<path class="st5" d="M289.1,39c0,1.7-0.6,3.1-1.9,3.9c-1.3,0.8-2.8,1.2-4.8,1.2c-0.3,0-0.6,0-0.7,0c0,1.3,0,3.2,0.1,5.4h-3.1
			c0.1-2.1,0.1-4.6,0.1-7.4c0-2.6,0-4.9-0.1-6.8h1.9c0.3,0,0.8,0,1.5,0c0.8,0,1.4,0,2,0c1.4,0,2.5,0.3,3.5,0.9
			C288.6,36.8,289.1,37.7,289.1,39z M286.2,39.6c0-1.5-1-2.3-3.2-2.3c-0.5,0-1,0.1-1.6,0.2c0.1,1.4,0.1,3,0.1,4.7c0.2,0,0.4,0,0.6,0
			C284.9,42,286.2,41.2,286.2,39.6z"/>
		<path class="st5" d="M302.2,39c0,1.7-0.6,3.1-1.9,3.9c-1.3,0.8-2.8,1.2-4.8,1.2c-0.3,0-0.6,0-0.7,0c0,1.3,0,3.2,0.1,5.4h-3.1
			c0.1-2.1,0.1-4.6,0.1-7.4c0-2.6,0-4.9-0.1-6.8h1.9c0.3,0,0.8,0,1.5,0c0.8,0,1.4,0,2,0c1.4,0,2.5,0.3,3.5,0.9
			C301.7,36.8,302.2,37.7,302.2,39z M299.4,39.6c0-1.5-1-2.3-3.2-2.3c-0.5,0-1,0.1-1.6,0.2c0.1,1.4,0.1,3,0.1,4.7c0.2,0,0.4,0,0.6,0
			C298,42,299.4,41.2,299.4,39.6z"/>
		<path class="st5" d="M323.6,42c0,2.2-0.7,4.1-2,5.6c-1.3,1.4-3.1,2.2-5.1,2.2c-1.9,0-3.6-0.7-4.8-2c-1.3-1.3-1.9-3.1-1.9-5.2
			c0-2.2,0.7-4.1,2-5.6c1.3-1.4,3.1-2.2,5.1-2.2c1.9,0,3.6,0.7,4.8,2C323,38.3,323.6,40,323.6,42z M320.6,42.3
			c0-1.5-0.4-2.7-1.1-3.7c-0.8-0.9-1.7-1.4-2.8-1.4c-1,0-1.9,0.5-2.7,1.4c-0.7,0.9-1.1,2.1-1.1,3.7s0.4,2.7,1.2,3.7
			c0.8,0.9,1.7,1.4,2.8,1.4c1,0,1.9-0.5,2.7-1.4C320.2,45.1,320.6,43.9,320.6,42.3z"/>
		<path class="st5" d="M338.4,49.5h-2.7c0-0.3-1-1.8-3.1-4.8c-2.1-3.1-3.3-5.1-3.6-6.2h-0.2c0.2,1.6,0.3,3.1,0.3,4.4
			c0,1.8,0,4,0.2,6.6h-2.6c0.1-2.2,0.2-4.8,0.2-7.4c0-2.6-0.1-4.9-0.2-6.8h3.3c0,0.4,0.9,1.9,2.7,4.6c1.9,2.8,3.1,4.8,3.3,5.8h0.2
			c-0.2-1.6-0.3-3.1-0.3-4.4c0-1.9,0-4-0.2-6.1h2.7c-0.1,1.8-0.2,4.1-0.2,6.8C338.3,44.8,338.3,47.2,338.4,49.5z"/>
	</g>
</g>
</svg>
