<?xml version="1.0" encoding="utf-8"?>
<!-- Generator: Adobe Illustrator 18.1.1, SVG Export Plug-In . SVG Version: 6.00 Build 0)  -->
<!DOCTYPE svg PUBLIC "-//W3C//DTD SVG 1.1//EN" "http://www.w3.org/Graphics/SVG/1.1/DTD/svg11.dtd">
<svg version="1.1" id="Layer_1" xmlns="http://www.w3.org/2000/svg" xmlns:xlink="http://www.w3.org/1999/xlink" x="0px" y="0px"
	 viewBox="0 0 246.9 78.5" enable-background="new 0 0 246.9 78.5" xml:space="preserve">
<g>
	<g>
		<g>
			<path fill="#CE0823" d="M30.1,47.3c-1,8-1.8,12.7-2.1,14c-1.5,5.1-4.3,9.1-8.5,12.2c-0.7,0.7-2,1.6-3.8,2.5
				c-2.2,1.1-3.9,1.7-5.3,1.7c-3,0-5.2-0.4-6.8-1.1C1.2,75.4,0,73.1,0,69.7c0-2.1,0.7-3.5,2.1-4.4c1.6-0.6,3.1-1.3,4.7-1.9
				c0.4,0.4,0.6,1.2,0.6,2.2c0,0.6-0.1,1.4-0.3,2.5C7.1,69.2,7,69.9,7,70.2c0,2.9,1.2,4.4,3.5,4.4c1.8,0,3.3-0.9,4.7-2.7
				c1.2-1.5,2-3.4,2.6-5.7c0.6,3.4,0.9,5.4,1.1,5.9c0.2-0.3,0.3-0.6,0.3-1.1c0-0.5-0.1-1.4-0.4-2.8c-0.3-1.3-0.4-2.3-0.4-2.9
				c0-0.2,0.1-1.1,0.4-2.5c0.4-1.7,0.7-3.1,0.8-4.2c0.4-2.7,0.7-5.4,1.1-8.1c0.9-5.2,2.2-9.3,3.8-12.5c2.2-4.3,5-6.5,8.5-6.5
				c0.7,0,1.3,0.5,1.8,1.6C32.4,36.8,30.9,41.4,30.1,47.3z M11.5,40.9c0,0.6,0.5,1.5,1.4,2.8c0.9,1.2,1.8,2,2.5,2.3v2
				c-0.8,0.6-1.8,1.2-3.1,1.7c-1.2,0.5-1.9,0.8-2.4,0.8c-1.2,0-2.1-0.7-2.8-2.2c-0.6-1.2-0.8-2.5-0.8-3.9c0.1-0.1,0.1-0.2-0.1-0.4
				c-0.1-0.1-0.2-0.4-0.2-0.7c0-5.6,3-10.6,9-15l0.4,4.4C12.8,35.6,11.5,38.4,11.5,40.9z M7.3,42.7v0.5l1,0.4l0.2-0.5L7.3,42.7z
				 M48.5,37.4c0.1-0.8,0.1-1.7,0.2-2.5c0,0.1-0.1,0.3-0.4,0.4c-0.3,0.1-0.6,0.3-0.6,0.4c-0.2,0.2-0.2,0.7-0.2,1.2
				c0.1,0.6-0.1,1.1-0.6,1.5c-0.2-1.9-0.3-4.7-0.3-8.2c0-1.4-1.7-2.8-5.2-4.1c-2.9-1.1-6-1.8-9.5-2.3c0.2,0.7,0.3,1.1,0.3,1.4
				c-0.7-0.2-1-0.7-1-1.4c-1.7,0-3,0-3.8,0c-0.8,0-1.2,0-1.2,0c-0.3,0-0.5,0.1-0.7,0.2C25.4,24,25.2,24,25,24l-1.2,0.6
				c-3.7,0.5-6.3,1.7-7.8,3.7c0.6-0.4,0.9-0.6,1.2-0.4c-0.3,0.8-0.8,1.1-1.4,1.1c0,0.7,0.1,1.6,0.4,2.7c2.4-2,4.2-3.5,5.3-4.5
				c0.1,0,0.1,0.1,0.2,0.3s0.2,0.3,0.5,0.3c0.2,0,1.4-0.3,3.6-0.9c2.1-0.6,3.3-0.9,3.6-0.9c2.8,0,5.3,1,7.5,3.1
				c2.4,2.2,3.6,5.1,3.6,8.5c0,2-0.4,4.1-1.3,6.3c-1.1,2.7-2.6,4-4.3,4c-0.3,0-0.6,0-0.9-0.1c-0.2,1.1-0.3,2-0.3,2.7
				c2.8,0.5,4.2,3.2,4.2,8.1c0,2.2-0.3,5-1,8.4c-1.1,5.3-2.6,8-4.6,8c-0.8,0-1.3-0.7-1.5-2.1c-0.3-2.1-0.7-3.6-1.2-4.5
				c-2.3,1.3-3.5,3-3.5,5.2c0,1.5,1,2.6,3,3.3c1.5,0.6,3,0.8,4.7,0.8c3.2,0,6.2-1.8,8.9-5.3c2.6-3.5,4-7.1,4-11
				c0-3.1-0.7-5.6-2.2-7.6c-1.3-1.7-3.3-3.2-6-4.5c3.8-2,6.5-4.2,8.1-6.8c0.1,0.1,0.1,0.3,0.2,0.7c0,0.4,0.1,0.6,0.2,0.7
				c-0.1-2.2,0-3.9,0.2-5.2c0.3,1.1,0.8,1.8,1.3,2.1c0-0.8,0.2-1.2,0.7-1.2C48.6,39.4,48.5,38.7,48.5,37.4z M30.7,26.1L30,24.6h0.4
				l0.7,1.4L30.7,26.1z M36.4,26.1L36,27l0.4,0.2l0.4-1L36.4,26.1z M41.1,45h-0.5v1.6h0.5V45z M42.1,30.9l-0.3,2.5h0.5l0.3-2.5H42.1
				z M42.2,40l-0.4-1.2l0.4-0.2l0.4,1.4H42.2z M42.1,36.9v-2h0.5v2H42.1z"/>
			<path fill="#CE0823" d="M50.9,73.9c-0.3-0.5-0.7-1.7-1.1-3.4c-0.4-1.8-0.6-3.1-0.6-3.9c0-1.5,0.2-2.9,0.5-4.1
				c0.4-1.3,0.8-2.7,1.2-4V73.9z M52.2,66.9h-0.6v-1.5h0.6V66.9z M78.1,65.8c0.3,0.5,0.4,1.1,0.4,1.6c0,1.3-0.7,2.5-2.2,3.5
				c-1.3,0.9-2.5,1.4-3.6,1.4c-1.1,0-2.6-0.6-4.6-1.7c-3.8,4.9-6.9,7.4-9.2,7.4h-2c-1.4,0-2.6-0.5-3.5-1.4c-0.2-0.5-0.6-1-1.2-1.7
				c0.1,0,0.4,0,0.9-0.1c0.5,0,1-0.1,1.4-0.1c0.3-0.2,0.4-1,0.3-2.1c-0.3,0-0.5,0.6-0.5,1.7c-0.4-0.3-0.7-0.4-0.9-0.4v-1.6
				c0.1,0.1,0.1,0.1,0.2,0.1c0.1,0,0.2-0.1,0.5-0.3c0.3-0.2,0.6-0.3,0.8-0.3c0.3,0,0.4,0,0.4,0.1c0,0,0,0.1-0.1,0.2
				c-0.1,0.1-0.1,0.2-0.1,0.3c0,0.1,0.1,0.2,0.1,0.2c0.5-0.5,0.6-0.9,0.3-1.3c-0.3,0-0.3,0,0.1-0.1c0.3,0,0.5,0,0.7,0.2
				c0.1-0.1,0.3-0.3,0.5-0.3c0.2-0.1,0.3-0.2,0.5-0.3c-1-0.7-1.9-1.2-2.6-1.6c0.3-0.7,0.7-1.6,1.5-2.6c-0.4-0.6-0.9-1-1.6-1.4
				l-1.2,1.2c0-0.6-0.1-1-0.3-1.2c-0.3,0.2-0.4,0.4-0.4,0.6c0-0.2-0.1-0.9-0.4-2S52,62.2,52,61.6c0-0.4,0.1-0.8,0.2-1
				c0.3-0.1,0.5-0.4,0.5-0.8c0,0.4,0.1,0.8,0.4,1c0.7-1.3,1.1-2.1,1.1-2.5c0,0.3,0.1,0.6,0.3,0.8c0-0.1,0-0.3,0.1-0.7
				c0-0.2,0-0.4,0-0.6c-0.1-0.2-0.3-0.5-0.6-0.7c0.3,0.1,0.7,0.9,1.3,2.4c0.2,0,0.3-0.1,0.3-0.4c0-0.2,0-0.5-0.2-0.7
				c0.3-0.4,1-0.6,1.9-0.6c0.2,0.1,0.3-0.2,0.3-0.8c0-0.4-0.2-0.8-0.5-1.1c-0.3-0.2-0.5-0.4-0.8-0.6c-0.4,0.5-0.7,0.9-0.7,1.2
				c-0.1-0.1-0.3-0.2-0.6-0.3c-0.3-0.1-0.4-0.2-0.4-0.3c0-0.2-0.1-0.5-0.3-1L53.8,56h-1.3c0-0.4,0.3-0.9,0.9-1.6
				c0,0.6,0.1,1,0.3,1.2c0.7-0.5,1.7-1.4,3.1-2.7c-0.1-0.4-0.4-0.9-0.9-1.5c0.2-0.5,1.2-1.3,3.2-2.5c2-1.2,3.4-1.8,4.1-1.8h2
				c0,0.1-0.2,0.4-0.7,1c0,0,0,0-0.1,0c0,0,0,0.1,0.1,0.1c0.1,0,0.3,0.1,0.5,0.1c0.3,0,0.9-0.3,1.8-0.8c0.9-0.5,1.6-0.8,1.9-0.8
				c1.2,0,2.2,0.6,2.9,1.7c0.6,1,1,2.2,1,3.6c0,2-0.5,5.4-1.6,10.4c-0.1,0.5-0.4,1.4-1,2.7c-0.5,1.2-0.7,2-0.7,2.3
				c0,1.3,1.1,2,3.3,2c1,0,1.8-0.2,2.5-0.7C75.8,68.3,76.7,67.3,78.1,65.8z M53.7,71.8h-0.6v-1.1h0.6V71.8z M54.1,65.7v-1.5h-0.6
				v1.5H54.1z M55.5,60.4L55.1,60l-0.9,1l0.4,0.4L55.5,60.4z M55.2,64.1V63h-0.6v1.1H55.2z M56.6,74.7v-1.1H56v1.1H56.6z M67.5,49.1
				h-2.7c-1.1,0-2.5,1-4,3.1c-1.9,2.7-3,4.1-3.2,4.3c0.2,0,0.5,0.1,0.8,0.4c-0.8,4.9-1.2,7.6-1.2,8.1c0,1.8,0.3,3.5,0.9,5
				c0.7,1.9,1.8,2.9,3.2,2.9c0.7,0,1.6-0.4,2.6-1.3c1.2-1,2-2.1,2.5-3.5c-1.7-2.5-2.6-4.4-2.6-5.5c0-0.4,0.1-0.6,0.3-0.8
				c0.4,0,0.7,0.2,0.7,0.6c0-0.1-0.1-0.4-0.2-0.8c-0.1-0.4-0.2-0.7-0.2-0.8c0-0.2,0.1,0,0.2,0.5c0,0.1-0.1,0.1-0.5,0.1
				c-0.5,0-0.8-0.5-0.8-1.6c0-1,0.1-1.7,0.4-2.1c0.5,1.1,0.9,1.9,1.4,2.4c-0.4-3.1-0.5-5-0.4-5.5c-0.1-0.2-0.2-0.5-0.2-0.7
				c0-0.7,0.4-1.6,1.3-2.8C66.9,50,67.5,49.3,67.5,49.1z M66.2,62l-0.4-1.6l-0.5,0.2l0.4,1.4H66.2z"/>
			<path fill="#CE0823" d="M91.6,52.9c0.1,0.4,0.1,0.7,0.1,1.1c0,1.2-0.6,2.5-1.7,4c-1.7,2.2-2.6,3.4-2.7,3.7
				c-0.9,1.7-1.5,4.1-1.7,7.2c-0.1,0.9-0.1,3.2-0.1,6.8c-0.5,0.2-2.9,0.9-7.4,2V63.6c0-1.2,0.7-4.1,2.2-8.6c1.2-3.8,2.1-6.3,2.7-7.7
				c2.9-0.7,5.4-1.4,7.6-2.1c-0.9,2.9-1.8,6.2-2.7,9.8v1.4C89.2,55.4,90.4,54.3,91.6,52.9z M92.9,51.8l-0.4,2.6H92l0.4-2.6H92.9z
				 M93.6,68.3v-1.1H93v1.1H93.6z M109.8,64.9c0.1,0.4,0.1,0.7,0.1,1.1c0,2.5-1.6,5.1-4.8,7.9c-2.9,2.5-5,3.8-6.3,3.7h-1
				c0.1,0,0.4-0.2,0.7-0.5c-0.4-0.1-0.9-0.4-1.5-1c-0.1,0.1-0.2,0.5-0.2,1.1c-0.4,0-0.9-0.2-1.5-0.5c-0.9-0.5-1.4-0.7-1.5-0.7
				c0.4-0.8,0.4-1.6,0.1-2.2c-0.1,0.1-0.2,0.3-0.3,0.6c-0.1,0.3-0.2,0.4-0.3,0.6c-0.1-0.6-0.2-1.4-0.1-2.3c0.1-1.4,0.2-2.2,0.2-2.3
				c0,0.8,0.1,1.5,0.4,2c0.5-0.6,0.6-1,0.3-1.4l0.7,0.6c0.7-0.8,1.2-1.8,1.5-2.9L95.6,68c-0.4,0-0.5,0.2-0.1,0.7c-1,0-1.5,0-1.6,0.1
				c0-0.1,0-0.1,0-0.2c0-0.1,0-0.3,0-0.5c0-0.2,0-0.4,0-0.6c0-0.7,0.3-1.2,1-1.6c-0.6-0.7-0.9-1-1-1c0-0.1,0.1-0.4,0.2-0.7
				c0.1-0.4,0.2-0.6,0.2-0.7c-0.1,0,0.1,0,0.7,0.1c0.4,0.1,0.7,0,1-0.1c0-0.5-0.1-0.8-0.2-0.9c-0.3,0.1-0.4,0.3-0.4,0.6
				c0-0.1-0.1-0.3-0.3-0.8c-0.2-0.4-0.3-0.8-0.3-1.2c0-0.3,0.4-1.5,1.2-3.8c0.9-2.4,1.4-4,1.5-4.8c0.2-0.4,0.7-0.9,1.3-1.5
				c-0.4-0.4-0.7-0.5-1-0.2c0.1-0.2,0.2-0.6,0.5-1.1c0,0.3,0.2,0.7,0.6,1.1c0.1-0.1,0.2-0.2,0.4-0.3c0.1-0.1,0.2-0.3,0.2-0.7
				c0-0.8-0.2-1.4-0.5-1.8c-0.1,0.5-0.3,0.8-0.4,0.8c-0.3,0-0.5-0.1-0.6-0.4c-0.1-0.3-0.2-0.4-0.4-0.4l-0.8,0.6l-1,0.6
				c0-0.1,0.1-0.4,0.2-0.7c0.1-0.4,0.2-0.6,0.2-0.8c0,0.2,0.2,0.4,0.8,0.4c0.3,0,0.5-0.1,0.8-0.3c0.4-0.4,0.6-0.6,0.7-0.7
				c-0.4-0.4-0.7-0.4-1-0.1c1.9-1.1,3.3-1.7,4.2-1.7c2.6,0,3.9,1.8,3.9,5.3c0,0.3-0.8,3.4-2.4,9.3c-1.6,5.9-2.4,9-2.4,9.3
				c0,1.7,0.5,2.5,1.5,2.5c0.9,0,2.4-1,4.3-3.1C108.5,67,109.5,65.7,109.8,64.9z M94.4,73.6h-1.2v-0.7h1.2V73.6z M95.4,52.4
				c-0.7,0-1.4,0.4-2.1,1.2c-0.1-0.6,0.4-1.5,1.5-2.6c-0.3,0.3-0.2,0.6,0.2,1.1c0.2-0.2,0.3-0.6,0.4-1V52.4z M95.6,66.6l-0.5-0.2
				l-0.4,1l0.4,0.2L95.6,66.6z M96.3,50.7L95.8,51L95,49.6l0.4-0.4L96.3,50.7z M97.6,58.6l-0.4-0.4l-1.2,1.3l0.3,0.4L97.6,58.6z
				 M99.2,65.9C99.2,65.9,99.1,65.9,99.2,65.9c-0.7,0.1-1.6,0.1-2.7,0.1c0.1-0.7,0.3-1.1,0.5-1.1c0.3,0.3,0.7,0.5,1.2,0.6
				C98.8,65.7,99.1,65.8,99.2,65.9z M98.2,49.3l-0.8,1l-0.3-0.4l0.8-0.9L98.2,49.3z M99.2,55.2c-0.6-1-1.1-1.5-1.6-1.5v1.5
				C98.8,55.2,99.3,55.2,99.2,55.2z M98.3,76.1h-0.6v-1.4h0.6V76.1z M99.5,52.6c-0.1,0-0.4,0.1-0.8,0.2C98.2,52.9,98,53,97.9,53
				c0.1,0.1,0.3,0.2,0.6,0.3c0.3,0.1,0.5,0.2,0.6,0.3C99.1,53.4,99.2,53.1,99.5,52.6z"/>
			<path fill="#CE0823" d="M143.8,69.8c-1.9,2-3.9,4-5.8,5.9c-1.9,1.8-3.8,2.7-5.7,2.7c-2.1,0-3.5-1.2-4.3-3.6
				c-0.1-0.5-0.3-1.4-0.3-2.9c-0.1-1.7-0.2-2.9-0.3-3.6c-0.5,0.7-2.1,2.9-4.6,6.6c-0.5,0-0.9-0.2-1.2-0.7c0.4,0,0.7-0.2,0.7-0.6
				c-0.3-0.1-0.7-0.3-1.5-0.7l-0.2,1.3c0.2,0.3,0.7,0.7,1.4,1.1c-0.2,0.1-0.4,0.1-0.6-0.1c-0.3,0.5-0.8,1.1-1.6,1.9
				c0.4-0.9,0.4-1.6-0.2-2.2l0.7,0.7c0-0.5,0-1-0.1-1.4c-0.2-0.3-0.4-0.6-0.6-1c-0.3,0-0.5,0.2-0.5,0.7c-0.1,0-0.3-0.1-0.4-0.4
				c-0.1-0.4-0.3-0.6-0.4-0.7c0,0.2-0.2,0.6-0.4,1.1c-0.3,0.5-0.4,0.9-0.4,1.1c0,0.3,0.2,0.4,0.5,0.5c-0.3,0.3-0.5,0.7-0.5,1.2
				c0,0.5,0.2,1,0.6,1.4c-1.8-0.2-3-0.1-3.7,0.1l-0.9-0.8c-0.7-0.5-1-0.9-1-1.4c0-0.3,0.1-0.6,0.3-1c-0.3,0-0.9,0.1-1.7,0.4
				c0.1-0.3,0.3-0.7,0.6-1.3c-0.5-0.7-1.2-1-2-1c0-0.6-0.1-1.4-0.4-2.6c-0.2-1.2-0.4-1.9-0.4-2.2c0-1.7,0.5-2.9,1.4-3.6
				c0-0.3-0.1-0.5-0.4-0.5c-0.1,0-0.2-0.2-0.2-0.6c0-0.4,0.2-0.7,0.5-0.9c0-0.5-0.2-0.6-0.6-0.1c0.2-0.9,0.5-1.8,0.7-2.8
				c0.4-1,1.2-1.7,2.2-2.1c-0.4-0.5-0.7-0.9-0.7-1.2c0.1-0.4,0.5-1.1,1.2-2c0.9-1.2,1.3-1.8,1.4-2c0,0.6,0.1,1,0.4,1.2
				c-0.2-1.9,2.2-4.2,7.1-7c0,0.2,0.1,0.6,0.4,1.3c0.3,0.6,0.4,1.1,0.4,1.4c0,0.7-0.7,1.7-2,3.2c-1.3,1.5-2,2.8-2.1,3.8
				c0.6,0,0.8-0.3,0.8-0.8c-1.2,3.2-1.9,5.5-1.9,6.9c0,0-0.3,0.3-0.8,0.8c-0.3-0.4-0.5-0.9-0.5-1.5c0-0.4,0.2-1,0.7-1.8
				c0.4-0.7,0.9-1.3,1.4-1.6c-0.1-0.1-0.3-0.3-0.4-0.5c-0.2-0.2-0.3-0.3-0.4-0.5c-0.1,0.1-0.3,0.2-0.6,0.3c-0.3,0.1-0.5,0.2-0.6,0.3
				l0.7,0.8c-0.2,0.4-0.4,0.7-0.6,1.1c-0.3,0.7-0.5,1.4-0.5,2.1c0,0.2,0,0.3,0,0.5c-0.4-0.5-0.9-0.7-1.3-0.7c-0.2,0-0.6,0.1-1,0.3
				c-0.3,0.1-0.4,0.1-0.4-0.1c0-0.2-0.1-0.4-0.3-0.6c-0.4-0.1-0.8,0.4-1,1.4c-0.3,0-0.8,0.1-1.5,0.4c0.3,0.1,0.5,0.5,0.8,1
				c0.5,1,0.7,1.5,0.8,1.5c0.2-0.3,0.2-0.6-0.2-1c0.8,0,1.2,0.1,1.2,0.3l0.4-0.6c-0.1-0.1-0.2-0.3-0.4-0.7c-0.2-0.3-0.3-0.4-0.4-0.4
				c0.9,0,1.5-0.3,1.7-1c0,0.8,0.1,1.3,0.3,1.6c0.2-0.2,0.3-0.5,0.3-0.8c-0.6,1.4-0.9,2.8-0.9,4.3c-0.4-0.1-0.8-0.4-1.4-0.8
				l-0.5,0.6c0.3,0.1,0.5,0.5,0.6,1c0.2,0.7,0.4,1.3,0.6,1.6c0.5-0.6,0.6-1.1,0.2-1.5c0.4,0,1.1,0.2,1.9,0.7c0.2-0.1,0.5-0.4,0.7-1
				c0.2-0.5,0.5-0.8,0.7-1c0.1,0.8,0.1,1.6,0.2,2.4c0.1,0.9,0.4,1.7,1.1,2.3c0.3-0.3,0.2-0.7-0.1-1.1c0.7,0.7,1.5,1.1,2.3,1.1
				c1.2,0,2.4-0.9,3.7-2.7c1.9-2.6,2.8-3.9,2.8-3.9c0.2-0.2,0.1-0.4-0.2-0.6c0.3-0.9,0.7-2.1,1.2-3.9c0.1-0.3,0.4-1.1,1-2.3
				c0.4-0.9,0.6-1.5,0.6-1.9c0-5.3-1.2-8-3.7-8c-0.3,0-0.6,0.1-1,0.4c-0.5,0.4-0.8,0.7-0.9,0.7c0,0-0.4-0.9-1.2-2.6
				c2.2-0.9,3.4-1.3,3.6-1.3c1.3,0,2.5,0.6,3.4,1.7c0.7,0.9,1.3,1.7,2,2.5c0.7-0.4,1.9-1.2,3.7-2.4c1.3-1,2.1-1.4,2.4-1.4h2.1
				c-1,3.3-2.1,7.1-3.2,11.7c-1.2,5.1-1.8,8.4-1.8,10c0,2.6,0.4,3.9,1.2,3.9c0.9,0,1.8-0.4,2.8-1.1c0,0.8,0.1,1.3,0.4,1.5
				c0.6-1,1.1-2,1.6-3c1-1.5,1.9-2.5,2.8-2.8V69.8z M110.8,62.1v-1h-0.6v1H110.8z M111.1,70.9l-0.5-0.2l-0.4,1l0.5,0.3L111.1,70.9z
				 M111.4,66.8v-1.1h-0.6v1.1H111.4z M113.1,69.1l-2-0.9v0.6l1.8,0.8L113.1,69.1z M112.1,73.7l-0.4-1.1l-0.5,0.2l0.4,0.9H112.1z
				 M112.8,71.1l-0.3-0.5l-1.2,0.9l0.3,0.5L112.8,71.1z M112.7,64.1l-0.2,0.6l-0.9-0.5l0.2-0.6L112.7,64.1z M112.9,59.4l-0.8,0.8
				c-0.1,0-0.2,0.1-0.1,0.3c0.1,0.3,0.2,0.6,0.2,0.6c0-0.1,0.1-0.4,0.4-0.8C112.8,59.9,112.9,59.6,112.9,59.4z M115,73.5
				c-0.6,0-1,0.1-1.2,0.3l-0.5-0.6c0.5-0.6,0.8-0.8,0.9-0.6c0-1-0.1-1.6-0.4-1.9c-0.3,0.3-0.7,0.7-1.2,1.3v2.9
				C113.6,75,114,75,114,75c0-0.3,0.2-0.5,0.5-0.8C114.7,74,114.9,73.7,115,73.5z M115.7,57.6c-0.1,0-0.3-0.1-0.7-0.2
				c-0.3-0.1-0.5-0.2-0.7-0.2c0.2,0.1,0.6,0.4,1,0.8l-0.7,0.9C115.4,58.6,115.7,58.1,115.7,57.6z M117.4,64.2
				c-0.2,0.7-0.6,1.6-1.1,2.6l-0.7-0.8c-0.2,0.1-0.4,0.3-0.4,0.6c0-0.3,0.1-0.8,0.3-1.6c0.2-0.7,0.3-1.3,0.3-1.7
				C116.3,63.9,116.8,64.2,117.4,64.2z M116.2,71.7l-0.4-0.9h-0.5l0.4,1.1L116.2,71.7z M116.2,75.7v-1.8h-0.6v1.8H116.2z
				 M117.1,77.1l-0.2,0.6l-1.2-0.7l0.2-0.6L117.1,77.1z M116.5,56.6v-1.4H116v1.4H116.5z M116.5,58.2v-1H116v1H116.5z M117.4,71.3
				c-0.3-0.3-0.5-0.7-0.8-1.2c-0.2-0.5-0.4-0.8-0.5-0.9c0,1,0.2,1.8,0.6,2.5c-0.4,0.4-0.6,0.9-0.6,1.4
				C116.5,72.6,116.9,72,117.4,71.3z M118.1,72.6l-0.2-0.5l-0.8,0.4v0.6L118.1,72.6z M127,68.3v-1.4h-0.6v1.4H127z M127.9,47
				l-0.2-0.6l-0.8,0.5v0.6L127.9,47z M131.4,65.6v-1h-0.6v1H131.4z M132.6,55.1c-0.3-0.6-0.5-1.2-0.8-2.1v1.7
				C131.9,54.7,132.2,54.8,132.6,55.1z M134,76.2l-1,0.5v-0.6l0.8-0.4L134,76.2z"/>
			<path fill="#CE0823" d="M191.4,65.4c0,0.3,0.1,0.6,0.1,0.8c0,2.5-1.6,5.1-4.7,7.9c-3,2.6-5.5,3.9-7.6,3.9c-2,0-3.4-0.9-4.1-2.6
				c-0.4-1-0.5-2.5-0.5-4.5c0-2.6,0.6-5.6,1.7-9c1.1-3.4,1.7-5.8,1.7-7.2c0-0.6-0.2-1.2-0.5-1.7c-0.3-0.5-0.5-0.8-0.5-0.9
				c0-0.1,0.1-0.3,0.2-0.5c-0.1-0.2-0.2-0.2-0.5-0.1c-2.6,3.3-5.5,6.9-8.7,10.7c0.2,0.2,0.5,0.3,0.7,0.3c-0.7,3.2-1.8,7.8-3.3,13.7
				c-1.8,0.5-4.4,1.1-7.7,1.8c1-4.6,2.6-12.7,4.8-24.2c-0.1-0.2-0.3-0.5-0.5-0.7s-0.4-0.4-0.8-0.4c-0.7,0-2.3,1-4.7,3.1
				c-0.2,0.2-0.5,0.6-0.7,1.4c-0.3,0.9-0.6,1.5-0.9,1.8c-1.7,2.1-2.7,4.5-3.2,7c-0.2,1.2-0.3,3.4-0.3,6.6c0,0.1-0.1,0.6-0.2,1.3
				c-0.1,0.7-0.2,1.5-0.2,2.4c-0.3,0-0.6-0.1-0.8-0.4c-0.2,0.3-0.3,0.5-0.3,0.8c-0.6,0-1.5,0.1-2.7,0.4c-1,0.3-2.1,0.6-3.1,0.8
				c0-0.6-0.1-1.7-0.2-3.2c-0.1-1.5-0.2-2.4-0.2-2.7c0-0.2,0-0.8,0.1-1.8c0-1,0.1-1.9,0.1-2.7c0-0.1,0.3-0.2,0.8-0.3
				c0.4-0.1,0.6-0.3,0.6-0.7c0-0.3-0.1-0.5-0.3-0.6c-0.1,0-0.3,0-0.6,0c-0.3,0.1-0.5,0.1-0.6,0.1c0.4-2.2,0.9-4.5,1.3-6.7
				c0.6-2.9,1.2-4.5,2.1-5c0-0.7-0.2-0.8-0.6-0.3c0.6-0.7,0.9-1,1-1c0,0.8,0,1.9-0.1,3.2l-0.7,0.8l0.6,0.6c0.4-0.2,0.8-0.9,1.1-2
				c0.3-0.1,0.8-0.4,1.6-0.9v-1.1c-0.2-0.3-0.8-0.4-1.8-0.3c0-0.1,0.2-0.5,0.7-1c-0.2-0.2-0.4-0.3-0.8-0.3c-0.3,0-0.5,0.1-0.5,0.3
				c0-1.4,0.5-3.2,1.4-5.3h1c0.1,0.1,0.3,0.2,0.5,0.3c-0.1,0.3-0.1,0.5,0,0.6c0.3-0.8,0.8-1.3,1.5-1.4c0.8-0.1,1.7-0.2,2.5-0.3
				c0.4-0.2,1.1-0.3,2.1-0.3c-0.2,0.3-0.4,1-0.8,2.3c-0.2,0.7-0.6,1-1.2,0.9l-0.6,0.7c0,0,0.3,0.1,0.7,0.3c0.3,0.1,0.4,0.4,0.4,0.8
				c0,0.4-0.3,1.2-0.9,2.5c-0.6,1.3-0.9,2-0.9,2.4c0,0.6,0.2,1.1,0.5,1.5c1.7-2.1,3.4-4.2,5.1-6.4c3-3.4,5.5-5,7.4-5
				c2.6,0,4,1.6,4,4.9c0,0.7-0.1,1.4-0.3,2.1c-0.2,0.9-0.1,1.8,0.4,2.7c1.3-1.4,3.2-3.6,6-6.7c0,0.6,0.1,1.1,0.3,1.3
				c0.3-1.3,1-2.5,2.2-3.4c0.1,0,0.3,0.2,0.4,0.5c0.2,0.4,0.3,0.7,0.4,0.8c0.1-0.1,0.3-0.3,0.7-0.3c0.3-0.1,0.5-0.2,0.7-0.3
				c-0.2-0.2-0.6-0.6-1.1-1.4c0.1,0,0.3-0.1,0.6-0.3c0.3-0.2,0.7-0.3,1-0.3c1.5,0,2.7,0.6,3.6,1.7c0.9,1.1,1.3,2.6,1.3,4.5
				c0,3-0.6,6.3-1.8,10c-1.2,3.6-1.8,6.2-1.8,7.8c0,1,0,1.6,0,1.6c0.1,0.8,0.6,1.2,1.3,1.2c0.7,0,2-1,4-3
				C189.5,67.6,190.6,66.4,191.4,65.4z M146.6,58.3c-0.4,0-0.9,0.3-1.5,0.9c0.3,0.3,0.6,0.5,1.1,0.6C145.9,59.4,146,58.9,146.6,58.3
				z M147.4,69.8l-0.2,0.6l-1.3-0.8L146,69L147.4,69.8z M147.5,58.8c0,0.2-0.3,0.4-0.9,0.4c0.2,0.3,0.4,0.6,0.6,1.1
				c0-0.1,0.1-0.4,0.2-0.8S147.5,58.9,147.5,58.8z M149.7,52.9c0-0.1-0.1-0.4-0.2-0.9c-0.1-0.5-0.2-0.9-0.2-1.2
				c0,0.1-0.1,0.4-0.3,0.7s-0.3,0.6-0.3,0.7C149.4,52.2,149.7,52.4,149.7,52.9z M150.3,59.5l-0.9-1.1l-0.4,0.4l0.9,1L150.3,59.5z
				 M151.5,57.7v-1.1h-0.6v1.1H151.5z M152.8,49.6c-0.9-1-1.3-1.5-1.4-1.5l0.7,1c-0.4,0.5-0.6,0.8-0.6,1
				C151.8,49.7,152.2,49.6,152.8,49.6z M153,56.4l-0.4-2.4h-0.6l0.4,2.4H153z M163.9,63.3l-0.2-0.6l-1.2,0.5v0.6L163.9,63.3z
				 M165,60.3l-0.2-0.6l-0.9,0.5v0.6L165,60.3z M166.5,48l-0.2-0.6l-1.7,1.1l0.2,0.6L166.5,48z M167.7,48.8v-1.1h-0.6v1.1H167.7z
				 M176,51.1v-0.7h-1v0.7H176z M179.5,53.9v-1.1h-0.6v1.1H179.5z"/>
			<path fill="#CE0823" d="M207.1,65.3c0.1,0.3,0.1,0.7,0.1,1c0,2.1-1.4,4.6-4.3,7.4c-1.7,1.7-2.9,2.7-3.5,3.2
				c-1.2,0.9-2.4,1.4-3.5,1.4c-3.2,0-4.8-3.1-4.8-9.4c0-6,0.9-10.1,2.8-12.4c-0.2-0.2-0.4-0.3-0.7-0.3v-1.3c0-0.3,0.3-1.2,0.9-2.8
				c0.7-1.8,1.3-2.8,1.9-3.2c-0.1-0.3-0.3-0.4-0.5-0.4c0.4,0,0.6-0.5,0.6-1.4c0,0.1,0.1,0.4,0.4,0.8c0,0,0,0,0.1-0.1
				c0,0,0-0.2,0-0.5c0-0.1,0.1-0.2,0.4-0.2c0.3,0,1.3-0.2,3-0.6c2-0.5,3.4-0.8,4-0.9c-0.3,0.7-0.5,2-0.8,4c-0.2,1.2-0.6,2-1.3,2.4
				c0.2,0.2,0.4,0.3,0.6,0.3c-2.5,8.6-3.7,13.4-3.7,14.5c0,1.2,0.7,2.6,2.2,4.3C202.9,69.6,205,67.7,207.1,65.3z M199,49.4l-2.4-1.1
				v0.6l2.2,1.1L199,49.4z M205.5,35.4c0,0.9-0.4,1.9-1.2,2.8c-0.8,1-1.6,1.5-2.5,1.5h-1.1c-1.9-1.2-2.9-2.6-2.9-4.3
				c0-1,0.4-2,1.2-2.9c0.8-0.9,1.7-1.4,2.6-1.4c0.9,0,1.8,0.6,2.6,1.7C205.1,33.8,205.5,34.7,205.5,35.4z M201.7,51.2
				c-0.1,0-0.4-0.1-0.8-0.2c-0.4-0.1-0.7-0.2-0.8-0.2l1.2,1.4C201.3,52.1,201.4,51.7,201.7,51.2z"/>
			<path fill="#CE0823" d="M212.9,54.8c-0.6,0.7-0.9,1.5-0.9,2.4c0-1-0.1-1.7-0.4-2.1c-0.2,0.1-0.5,0.3-0.9,0.7
				c0.3,0.5,0.6,1.1,0.9,1.6c0.4,0.8,0.6,1.4,0.6,1.8c0,2.2-0.6,5.5-1.7,10.1c0-0.3-0.2-0.7-0.7-1.3c-0.4,0.8-0.7,1.8-0.9,3.1
				c-0.3,1.8-0.5,2.7-0.5,2.9c-0.3-0.5-0.5-1.2-0.7-2.1c-0.3-1.4-0.4-2.1-0.5-2.2c-0.2,0-0.4,0.2-0.4,0.4c0-0.3,0-0.6,0-0.8
				c0-0.6-0.1-1.6-0.2-2.9c-0.1-1.3-0.2-2.3-0.2-2.9c0-1.6,0.4-2.8,1.1-3.5c0.4-0.5,0.7-0.8,0.7-0.9c0,0-0.1-0.2-0.4-0.5
				c0.3,0.2,0.6,0.3,0.8,0.3c0.2-0.2,0-0.5-0.5-1.1c0.6-0.7,1.2-1.6,2-2.9c1-1.7,1.7-2.8,2-3.3c-0.1,0.5-0.2,1.1,0,1.8
				C212.2,54.1,212.5,54.6,212.9,54.8z M210.7,64.1h-0.6l-0.6,3.3h0.5L210.7,64.1z M230.7,65.4c0,0.8,0,2,0,3.7
				c-0.8,1.1-2.2,2.6-4.3,4.5c-2.7,2.5-4.6,3.8-5.7,3.8c-0.3,0-0.4-0.1-0.4-0.2s-0.1-0.2-0.4-0.2c-0.4,0-0.6,0-0.6,0.1
				c0-0.2,0.1-0.1,0.1,0.5c0-0.7-0.1-1.2-0.4-1.5c-0.2,0.2-0.3,0.9-0.3,2.1h-4c0.3-1.4,0.4-2.6,0.4-3.4c-0.1,0-0.3-0.1-0.3-0.3
				c-0.1-0.2-0.1-0.4-0.3-0.5c0,0.1-0.1,0.8-0.3,2.2c-0.1,0.8-0.3,1.2-0.7,1.2c-0.3,0-0.4,0.1-0.4,0.2c0,0.1-0.2,0.2-0.5,0.2
				c-0.4,0-0.8-0.2-1.3-0.6c-0.7-0.6-1.1-0.9-1.2-0.9c0-0.6,0.2-1.5,0.4-2.9c-0.1,0-0.2-0.1-0.3-0.2c-0.1-0.2-0.2-0.4-0.3-0.6
				c-0.3,0.5-0.4,1.5-0.4,2.8c0-0.6,0-1.6,0-2.9c0-1.3,0-2.3,0-2.9c0.4,0.3,0.7,0.4,1,0.4c0,0.1-0.2,0.5-0.7,1
				c0.4,0.5,0.7,0.7,0.8,0.7c0-0.2,0.3-1.5,0.7-3.9c0.3-1.6,0.4-2.9,0.4-3.9c0.3,0.4,0.7,0.4,1,0.2c-0.7-0.8-1.1-1.4-1.1-2
				c0-0.6,0.3-1.6,0.9-3c0,0.3,0.1,0.6,0.3,0.8c0-0.2,0.1-0.3,0.1-0.5c0-0.4-0.1-0.8-0.3-1.2s-0.3-0.7-0.3-0.8
				c0-0.8,0.3-2.5,0.9-5.1c0.6-2.9,1.2-4.3,1.6-4.3c0.4,0,0.6,0.1,0.8,0.3s0.2,0.4,0.4,0.6c0.3-0.3,0.2-0.6-0.2-1.1
				c0.7-0.8,1.6-1.4,2.6-1.9c0,0.9,0.2,1.6,0.5,2.1c0.3-0.2,0.4-1,0.4-2.5c0.2,0,0.9-0.1,1.9-0.3c1-0.2,1.7-0.3,2-0.3
				c1.4,0,2.7,0.8,4,2.3c1.2,1.4,1.8,2.9,1.8,4.4c0,0.9-0.4,1.7-1.2,2.5c-0.7,0.8-1.3,1.1-1.8,1.1c-0.3,0-0.6,0.1-0.9,0.4
				c-0.3,0.3-0.7,0.4-1,0.4c-0.3,0-0.4-0.1-0.4-0.2c0.1-0.1-0.1-0.2-0.4-0.2c-0.4,0-0.6,0.2-0.7,0.5c-0.2,0.5-0.3,0.8-0.3,0.8
				c0-0.7,0-1.6-0.1-2.7c-0.1-1.1-0.1-1.8-0.1-2.2c0-1.3,0.3-2.5,0.9-3.4c-0.5,0-1.3-0.1-2.5-0.4s-1.9-0.4-2.2-0.4
				c-0.4,0-0.5,0.2-0.5,0.5c0.1,0.9,0.2,1.1,0.2,0.8c-0.1-0.4-0.4-1-0.8-1.7c0,0.2-0.1,0.5-0.3,0.8c-0.1,0.3-0.2,0.6-0.2,0.7
				c0,0.2,0.2,0.3,0.6,0.4c-1,1.2-1.9,2.9-2.7,5.4s-1.1,4.7-1.1,6.8c0,1.2,0.4,3.1,1.3,5.7c0.9,2.9,1.7,4.4,2.5,4.4h3.5
				c1.9,0,3.5-0.5,4.8-1.5C226.6,69.7,228.3,68,230.7,65.4z M211.2,59.7v-2h-0.7v2H211.2z M212.3,75.6h-0.7v-1.2h0.7V75.6z
				 M212.6,73.9v-3.3H212v3.3H212.6z M213.4,50.3l-0.4,2h-0.6l0.4-2H213.4z M213.4,68h-0.6l-0.4,2.4h0.7L213.4,68z M214.1,71.4h-0.6
				l-0.4,3.3h0.6L214.1,71.4z M214.7,69.4v-0.7h-1v0.7H214.7z M215.6,51.9v-1.1H215v1.1H215.6z M215.6,73.9v-4.2H215v4.2H215.6z
				 M219.6,72.3c-0.7,0.1-1.5,0.5-2.4,1.2c-0.3-0.3-0.3-0.6-0.1-0.9c-0.6,1-0.6,2.3-0.2,3.9c-0.1-0.2-0.1-0.4-0.1-0.6
				c0-0.6,0.4-1.3,1.1-2.1C218.5,73.3,219,72.8,219.6,72.3z M221.1,72.8c-0.4,0-0.9,0.2-1.4,0.8c-0.6,0.7-1,1-1.2,1.1
				c0.7,0,1.1-0.1,1.3-0.3c0.4,0.8,0.5,1.5,0.4,2.1C220.3,75.5,220.6,74.3,221.1,72.8z M221.3,48.1l-0.5-1.3l-0.5,0.2l0.5,1H221.3z
				 M223.9,53h-0.6l-0.4,1.4l0.5,0.2L223.9,53z M224.7,49.1H224l-0.4,2.4h0.6L224.7,49.1z"/>
			<path fill="#CE0823" d="M246.8,65.3c0.1,0.3,0.1,0.7,0.1,1c0,2.1-1.4,4.6-4.3,7.4c-1.7,1.7-2.9,2.7-3.5,3.2
				c-1.2,0.9-2.4,1.4-3.5,1.4c-3.2,0-4.8-3.1-4.8-9.4c0-6,0.9-10.1,2.8-12.4c-0.2-0.2-0.4-0.3-0.7-0.3v-1.3c0-0.3,0.3-1.2,0.9-2.8
				c0.7-1.8,1.3-2.8,1.9-3.2c-0.1-0.3-0.3-0.4-0.5-0.4c0.4,0,0.6-0.5,0.6-1.4c0,0.1,0.1,0.4,0.4,0.8c0,0,0,0,0.1-0.1
				c0,0,0-0.2,0-0.5c0-0.1,0.1-0.2,0.4-0.2c0.3,0,1.3-0.2,3-0.6c2-0.5,3.4-0.8,4-0.9c-0.3,0.7-0.5,2-0.8,4c-0.2,1.2-0.6,2-1.3,2.4
				c0.2,0.2,0.4,0.3,0.6,0.3c-2.5,8.6-3.7,13.4-3.7,14.5c0,1.2,0.7,2.6,2.2,4.3C242.7,69.6,244.7,67.7,246.8,65.3z M238.7,49.4
				l-2.4-1.1v0.6l2.2,1.1L238.7,49.4z M245.2,35.4c0,0.9-0.4,1.9-1.2,2.8c-0.8,1-1.6,1.5-2.5,1.5h-1.1c-1.9-1.2-2.9-2.6-2.9-4.3
				c0-1,0.4-2,1.2-2.9c0.8-0.9,1.7-1.4,2.6-1.4c0.9,0,1.8,0.6,2.6,1.7C244.8,33.8,245.2,34.7,245.2,35.4z M241.4,51.2
				c-0.1,0-0.4-0.1-0.8-0.2c-0.4-0.1-0.7-0.2-0.8-0.2l1.2,1.4C241,52.1,241.1,51.7,241.4,51.2z"/>
		</g>
	</g>
	<g>
		<g>
			<path fill="#B4B410" d="M31.7,25.8c0,2-0.9,3.9-2.8,5.6c-1.8,1.7-3.8,2.5-5.8,2.5c-1.5,0-2.6-0.5-3.4-1.6c-0.8-1-1.3-2.7-1.6-5.1
				c-1.3,1.6-2.7,3.2-4,4.8c-1.2,1.2-2.6,1.8-4.2,1.8c-1.4,0-2.4-0.4-3.2-1.1c-0.7-0.7-1.6-2.2-2.7-4.6c0,0,0.1,0,0.4,0.1
				c0.2,0.1,0.5,0.1,0.8,0.1c0.1-0.1,0.1-0.3,0-0.5c0-0.2,0-0.3,0.1-0.3c0.1,0,0.4,0.1,0.9,0.4c0.1-0.1,0.1-0.4,0.2-0.9
				c0.1-0.4,0.1-0.7,0.2-0.9l0.7-0.8c-0.2-0.2-0.4-0.4-0.5-0.4c0.1-0.2,0.3-0.1,0.6,0.3c0.1,0,0.1-0.1,0.2-0.1
				c0.1,0,0.1-0.2,0.1-0.4c0-0.5-0.1-0.8-0.3-0.8c-0.3,0-0.8,0.1-1.4,0.2c0,0-0.1,0-0.1,0c0.1,0,0-0.2-0.2-0.7
				c-0.1,0-0.3-0.1-0.4-0.3C5.2,23.1,5.1,23,5,23C5,23,5.2,22.9,5.4,22.7c0.2-0.2,0.3-0.3,0.4-0.4c0,0-0.1-0.2-0.2-0.5
				c-0.1-0.3-0.2-0.5-0.2-0.7c0.3,0.3,0.5,0.5,0.7,0.5c0,0,0-0.2,0.1-0.5c0.1-0.2,0-0.4-0.1-0.8c0.1-0.2,0.2-0.4,0.3-0.5
				c0.2-0.1,0.4-0.3,0.8-0.5c0-0.1,0-0.2-0.2-0.2c-0.1,0-0.4,0-0.8,0c-0.1,0-0.1,0-0.2-0.1c-0.1-0.2-0.3-0.3-0.5-0.4
				c-0.1,0.1-0.1,0.1-0.1-0.1c0-0.2,0-0.4,0.1-0.6c-0.1-0.1-0.3-0.2-0.5-0.2v-1.1c0.2,0.1,0.4,0.4,0.6,0.9c0.2-0.5,0.5-0.8,0.9-1
				c-0.2-0.1-0.3-0.3-0.6-0.7c-0.3-0.4-0.4-0.8-0.4-1.2c0-3.1,1.7-6.3,5.2-9.7c3.3-3.2,6.3-4.8,8.9-4.8c0.9,0,1.5,0.1,1.8,0.2
				L21.9,0c0.1,0.1,0.3,0.4,0.6,0.7c1.2-0.3,1.9-0.5,1.9-0.5c1.2,0,2.2,0.1,3,0.3c-0.3,0.5-0.6,0.9-0.9,1.4
				c-0.4,0.7-0.6,1.3-0.6,1.9C26,3.7,26.3,3.4,26.5,3c0.2-0.4,0.4-0.6,0.5-0.6c0.1,0,0.1,0,0.1,0c0.5,0.5,1,0.6,1.5,0.2
				c0,0.3-0.1,0.5-0.3,0.8c0,0.1,0.2,0.3,0.5,0.6c0.2,0.2,0.3,0.5,0.3,0.7c0,0.1,0,0.2-0.1,0.4c0,0,0,0,0,0c0,0.1,0.2,0.2,0.7,0.5
				c-0.1,0.1-0.3,0.3-0.4,0.4c-0.2,0.2-0.3,0.5-0.4,0.9c0,0-0.1,0-0.1,0c-0.1,0-0.1,0.1-0.3,0.3c-0.1,0.2-0.2,0.3-0.4,0.4
				c0.2,0.2,0.4,0.3,0.5,0.1c-0.6,1.1-1.4,3.3-2.5,6.8c-1.4,4.5-2.1,8.1-2.1,10.8c0,3.1,0.9,4.6,2.6,4.6c0.7,0,1.6-0.5,2.8-1.5
				C30.6,27.3,31.3,26.5,31.7,25.8z M5.5,26.4c-0.4,0-0.7,0.1-0.9,0.3c-0.2,0.1-0.3,0.2-0.4,0.2c0-0.3,0.3-0.8,0.9-1.5
				C5,25.5,5,25.7,5.2,26c0.1-0.1,0.2-0.3,0.2-0.6V26.4z M5.1,22.1H4.6v-0.4h0.5V22.1z M6,25.2l-0.3,0.2l-0.4-0.8l0.2-0.2L6,25.2z
				 M8,13c-0.7,0.4-1.2,0.8-1.4,1.1c-0.4-0.4-0.6-0.6-0.6-0.6c0,0.1,0,0.2-0.1,0.5c-0.1,0.3-0.1,0.5-0.1,0.7c0,0.2,0.1,0.3,0.3,0.3
				c0.2,0,0.3,0,0.4,0.1C7.2,14.3,7.7,13.6,8,13z M6.7,29.7L6,30.5l-0.2-0.2l0.7-0.7L6.7,29.7z M6.9,15.1l-0.5,0.6l-0.2-0.2l0.5-0.5
				L6.9,15.1z M7.1,23.3l-0.7,0.5l-0.2-0.3L6.9,23L7.1,23.3z M6.9,19.9l-0.2,0.6l-0.3-0.2l0.2-0.6L6.9,19.9z M7.8,26.4l-1.1,0.7
				l-0.1-0.3l1.1-0.7L7.8,26.4z M7.4,22.5l-0.7,0.3v-0.3l0.6-0.3L7.4,22.5z M7.7,14.5L7,15l-0.2-0.3l0.7-0.5L7.7,14.5z M8.4,14.1
				l-0.7-0.3v0.3l0.6,0.3L8.4,14.1z M9.2,14.3L9,14l-0.8,0.8L8.4,15L9.2,14.3z M10.7,11.3l-0.1-0.3l-1.4,0.7V12L10.7,11.3z
				 M25.5,1.9c-0.7-0.2-1.2-0.3-1.6-0.3C23.8,1.8,23.5,2,23.2,2c-0.3,0-0.5-0.1-0.6-0.2c0-0.5,0-0.8-0.1-0.9c0,0.6-0.1,0.9-0.2,0.9
				c-1.2-0.1-2.8,0.6-4.8,2.1c-1.1,0.9-2.3,1.7-3.4,2.6c0,0.1,0.1,0.2,0.2,0.3c0.1,0.2,0.2,0.3,0.2,0.3c-0.4,0.5-1.1,1.3-1.9,2.3
				c0.3,0,0.5,0.1,0.6,0.2c-0.4,0.7-0.8,1.7-1.4,3.2c-0.5,1.5-0.9,2.4-1.1,2.7c-0.1,1.5-0.3,2.9-0.5,4.1c-0.2,0.9-0.3,1.8-0.3,2.7
				c0,1.4,0.1,2.6,0.4,3.7c0.5,2,1.4,3,2.7,3c1.8,0,3.2-1,4.2-3.1c0.7-1.3,1.3-3.5,2-6.4c0.6-3,1.2-4.9,1.6-5.6
				c0-0.2,0.1-0.4,0.1-0.5c0-0.1,0-0.1,0,0c0.1,0,0.1-0.1,0.2-0.3c0.1-0.2,0-0.3-0.2-0.3c1.2-3.6,2.5-6.2,3.8-7.6c0.7-0.7,1-1.4,1-2
				c0-0.1,0-0.2-0.1-0.2c-0.3-0.3-0.5-0.5-0.7-0.5c-0.2,0-0.4-0.1-0.6-0.3c0.1,0,0.3-0.1,0.5-0.3c0.1,0,0.2,0,0.4,0.1
				C25.3,1.9,25.4,1.9,25.5,1.9z M10.6,10.2l-0.1-0.3l-0.7,0.5v0.3L10.6,10.2z M10.7,13.2l-0.7,0.8l-0.2-0.2l0.7-0.8L10.7,13.2z
				 M10.7,12.1l-0.2-0.2l-0.5,0.6l0.2,0.2L10.7,12.1z M12.5,7.4l-0.2-0.2L11.6,8l0.2,0.2L12.5,7.4z M12.9,8.1l-0.2-0.2L12,8.6
				l0.2,0.2L12.9,8.1z M13.2,4l-0.1-0.3l-0.8,0.5v0.3L13.2,4z M19.8,1.7l-0.2-1h-0.3l0.2,1H19.8z M21.7,12.2l-0.3-0.1l-0.2,0.6
				l0.3,0.1L21.7,12.2z M25.7,6.9c-0.7-0.2-1.1-0.4-1.1-0.5c-0.7,1.2-1.6,3-2.8,5.6c0.5-1,1.4-2.5,2.6-4.5c0.1-0.2,0.2-0.3,0.3-0.3
				s0.2,0.1,0.3,0.3C25,7.6,25,7.7,25,7.7C25.1,7.6,25.3,7.3,25.7,6.9z M25.5,4.7h-0.3l-0.6,1.4l0.3,0.1L25.5,4.7z M26.3,7.4
				l-0.2-0.3l-0.5,0.4l0.2,0.3L26.3,7.4z M26.7,0.9V0.6l-1,0.2v0.4L26.7,0.9z M26.5,1.5l-0.2-0.2l-0.5,0.5L26,2L26.5,1.5z M26.4,5.3
				L26.3,5l-0.5,0.3v0.3L26.4,5.3z M27,4L26,4.5c0.1,0,0.3,0.1,0.4,0.2c0.2,0.1,0.2,0.2,0.2,0.3C26.8,4.8,26.9,4.4,27,4z M28.7,6.3
				c-0.1-0.1-0.2-0.3-0.4-0.6c-0.1-0.2-0.2-0.4-0.2-0.5C28.3,5.1,28.4,5,28.4,5c0,0,0,0-0.1,0c-0.1,0-0.3,0.1-0.7,0.2
				c-0.4,0.1-0.6,0.2-0.6,0.2c0,0.5-0.2,0.9-0.6,1.4c0.3,0.4,0.8,0.8,1.3,1.2c-0.1-0.1-0.3-0.2-0.5-0.5C27.1,7.1,27,6.8,27,6.6
				c0.2-0.3,0.3-0.5,0.5-0.5c0.1,0,0.2,0,0.3,0.1c0.2,0.2,0.3,0.5,0.3,1.1C28.1,6.9,28.3,6.6,28.7,6.3z M27.7,3.5l-0.1-0.3L27,3.5
				v0.3L27.7,3.5z M31.2,3.2c-0.5,0.6-0.9,1.1-1,1.4c-0.3-0.4-0.6-0.8-0.7-1.3c-0.1-0.4-0.3-0.7-0.6-0.8c0.3,0,0.5-0.1,0.6-0.2
				c-0.1-0.1-0.1-0.2-0.1-0.4s-0.1-0.3-0.1-0.4c-0.4,0.5-0.9,0.8-1.6,1.1c0-0.6-0.1-0.9-0.2-0.9c-0.1,0-0.1,0-0.2,0.1
				c0-0.1,0.1-0.2,0.2-0.2c0.2,0,0.3,0.1,0.4,0.2c0.1-0.1,0.1-0.3,0.1-0.7c0-0.3,0-0.5,0.1-0.6c0.7,0.6,1,0.9,0.9,0.9
				c0.2,0,0.3-0.1,0.3-0.2s0.1-0.2,0.3-0.2c0.1,0,0.4,0.1,0.8,0.2s0.7,0.2,0.9,0.2V3.2z M28.2,3.9L28,3.7l-0.5,0.5l0.2,0.2L28.2,3.9
				z M30.3,4.2v-1H30v1H30.3z"/>
			<path fill="#B4B410" d="M54.6,4c0,1-0.4,1.7-1.1,1.9c-1.2,0.4-2.3,1.1-3.1,2c-0.4,0.4-0.8,1.7-1.4,3.9c-0.4,1.5-0.9,4-1.5,7.5
				c-0.9,4.9-2.2,9.4-3.9,13.5c-0.2,0.4-0.5,0.7-0.9,0.8c-0.4,0.1-0.7,0.2-1.1,0.2h-0.6c0-0.9-0.1-1.5-0.2-1.9c0,0,0,0.1,0,0.1
				c-0.1,0.2-0.1,0.8,0,1.8c-0.3,0.1-0.8,0.1-1.4,0c-0.2-3.2-0.9-8.3-2-15.4c-0.2-1.9-0.6-4.8-1.2-8.6c-0.5,1.1-1.2,4-2.2,8.7
				c-1,4.8-2,8.2-3,10.4c-1.5,3.3-3.5,5-5.9,5c-0.8,0-1.5-0.1-1.8-0.3c-0.6-0.3-1.3-1.1-2.1-2.3v-1.7l0.4-0.5
				c0.1,0.1,0.2,0.2,0.3,0.2c0.1-0.1,0-0.3-0.2-0.5c0.6-0.6,1.5-1.3,2.6-2.2c0.2,0.1,0.5,1,0.9,2.6c0.4,1.4,1,2.2,1.8,2.2
				c1.5,0,3-2.7,4.5-8c0.8-3.5,1.6-6.9,2.3-10.4c0.5-1.8,0.9-3.7,1.4-5.5c0.6-2,1.2-3.7,1.9-5.2h0.8c0.4,5,0.7,10.1,1.1,15.1
				c0.4,5.7,1,10.5,1.6,14.4c0.1,0,0.2-0.1,0.2-0.1c-0.8-6.3-1.4-11.9-1.8-16.9c-0.3-4.2-0.5-8.4-0.7-12.6c0.1,0,0.4,0,0.9-0.1
				S40,2,40.1,2c0.1,0,0.2,0.1,0.3,0.2c0,0.1,0.1,0.2,0.3,0.2c0.2,0,0.3,0,0.4-0.1s0.1-0.1,0.2-0.1c0,0.2-0.1,0.8-0.2,1.6
				c-0.1,0.5,0,0.8,0.2,0.9l3,22.6c0.9-2.5,1.8-6.4,2.7-11.5C48.4,6.6,50.6,2,53.4,2c0.4,0,0.7,0.3,0.9,0.8
				C54.5,3.1,54.6,3.6,54.6,4z M22.7,31c-0.2-0.5-0.3-0.9-0.3-1.2c0,0-0.1,0.1-0.1,0.2c0,0.1-0.1,0.2-0.3,0.2
				c-0.3,0-0.4,0.2-0.4,0.6c0.2-0.1,0.4-0.2,0.7-0.2L22.7,31z M22.3,32.3v-1H22v1H22.3z M22.6,29.2l-0.2-0.6l-0.2,0.1l0.2,0.5H22.6z
				 M23.2,29.2l-0.2-1h-0.3l0.2,1H23.2z M23.2,32l-0.2-0.1l-0.2,0.5l0.2,0.1L23.2,32z M23.4,30.4l-0.2-1h-0.3l0.2,1H23.4z
				 M24.2,31.3l-0.6-0.7l-0.2,0.2l0.6,0.7L24.2,31.3z M24.3,27.4L24,27.3l-0.2,0.5l0.2,0.1L24.3,27.4z M36.3,8.1V7.7h-0.7v0.4H36.3z
				 M39.4,3.4l-0.1-0.3l-0.4,0.3v0.3L39.4,3.4z M39.5,4.3l-0.2-0.1L39,4.8l0.2,0.1L39.5,4.3z M40,3.6v-1h-0.3v1H40z M40.2,5.3h-0.3
				L39.7,6L40,6.1L40.2,5.3z M40,4.4V3.9h-0.3v0.6H40z M40.5,6.5l-0.2-0.2L39.7,7l0.2,0.2L40.5,6.5z M41.1,6.5V5.9h-0.3v0.6H41.1z"
				/>
			<path fill="#B4B410" d="M61.3,32.3c-2.7,1.1-4.2,1.7-4.6,1.7c-0.6,0-1.2-0.2-1.7-0.7c-0.5-0.5-0.7-1-0.7-1.7
				c0-0.4,0.2-0.9,0.6-1.5c0.5-0.8,1-1.3,1.7-1.5c0.9-0.4,1.8-0.6,2.6-0.6c0.2,0,0.5,0,1,0.1c0.5,0.1,0.8,0.1,1,0.1
				C61.1,29.1,61.1,30.5,61.3,32.3z M83.1,15.5c0,4.6-1.5,8.7-4.5,12.4c-3.2,4-7.2,5.9-11.9,5.8c0-0.1-0.1-0.1-0.4-0.2
				c-0.2-0.1-0.3-0.1-0.3-0.3c0.1,0,0.1-0.3,0.1-0.7c0,0.2,0.1,0.5,0.4,0.7c0.1-0.1,0.1-0.2,0.1-0.4c-0.1-0.4-0.1-0.6-0.1-0.6
				l0.7,0.2c-0.1-0.1-0.4-0.5-0.7-1.3c0.7,0,1.1,0,1.1-0.1c0-0.1-0.1-0.1-0.2-0.2c0.1,0.1,0.1,0.1,0.1,0.2c0,0.1,0.1,0.2,0.1,0.2
				c0.2-0.3,0.4-0.4,0.6-0.4c0.1,0,0.5,0.1,1.1,0.3c0.6,0.2,0.9,0.3,1.1,0.3c2.5,0,4.5-2.3,6-7c1.1-3.3,1.6-6.2,1.6-8.5
				c0-2.1-0.7-4.6-2-7.6c-1.5-3.4-3.1-5.1-4.8-5.1c-0.1,0-0.3,0-0.4,0.1c-0.2,0.1-0.3,0.1-0.5,0.1c-0.4,0-0.6-0.1-0.6-0.4h-1.6
				c-0.1,0-0.5,0.1-1,0.3s-0.9,0.3-1,0.3c-0.2,0-0.3-0.1-0.4-0.3c-0.1-0.2-0.2-0.3-0.3-0.3c-0.1,0.1,0,0.4,0.2,0.8
				c0,0-0.2,0.2-0.6,0.4c-0.2,0.2-0.4,0.3-0.6,0.3c-1,0-2,1-3.1,3.1c-1,1.8-1.5,3.1-1.5,3.8c0,0.8,0.3,1.5,0.8,2.2
				c0.2,0.3,0.7,0.7,1.5,1.4V16c-0.4,0.3-0.9,0.7-1.6,1.1c-0.7,0.4-1.1,0.6-1.3,0.6h-0.7c-0.9,0-1.7-1.4-2.2-4.3
				c0-1.7,0.6-3.6,1.9-5.5c1.3-2,3-3.6,5.1-4.8c0.1,0.2,0.1,0.3,0.2,0.5c0.1,0.2,0.2,0.3,0.3,0.3c0.1,0,0.2,0,0.3-0.1l-0.5-0.6
				c0.3-0.3,0.6-0.5,0.8-0.5c0.1,0,0.3,0,0.5-0.1c0.2-0.1,0.5-0.1,0.6-0.1c0.1,0,0.2,0,0.4-0.1s0.4-0.1,0.6-0.2
				c0.2,0,0.4,0.1,0.6,0.3c0.2,0,0.3-0.2,0.3-0.6c1-0.2,2.3-0.2,3.9-0.2c3.5,0,6.3,1.4,8.6,4.1C82,8.4,83.1,11.6,83.1,15.5z
				 M57.1,29.9l-0.2,0.8l-0.2-0.1l0.2-0.7H57.1z M58.3,17.2l-0.8-0.2v-0.4l0.8,0.3V17.2z M59.8,7.6l-0.7-0.4l-0.1,0.3l0.6,0.4
				L59.8,7.6z M59.8,17.1l-0.1,0.3l-0.6-0.2v-0.3L59.8,17.1z M65.4,33.8c-1.8-0.1-3-0.6-3.5-1.3c-0.4-0.6-0.6-1.7-0.6-3.4v-0.9
				c0.1,0.1,0.4,0.2,0.6,0.4c1-0.4,1.8-2.1,2.4-5.1c0.4-2.6,0.7-5.2,1.1-7.9c0,1.1,0,1.7-0.1,1.9c0.2,1.4,0.3,3.3,0.2,5.6
				c-0.1,3.4-0.1,5.3-0.1,5.6c-0.2,0-0.5,0.2-0.9,0.6c0.1,0.1,0.3,0.2,0.9,0.6V33.8z M63,28l-0.2,1h-0.3l0.2-1H63z M73.3,9.1
				c-0.3-0.8-0.7-1.2-1.2-1.2c-1.1,0-2.5,0.9-4.1,2.6c-1.7,1.9-2.6,3.7-2.6,5.4c0,0.6,0.1,1.2,0.4,1.7c0,0.2,0,0.6,0,1.1
				c0,0.6,0,0.9,0,1c0-0.2,0.1-0.4,0.2-0.5c0.1,0.3,0.2,0.6,0.3,0.9c0.2,0.3,0.2,0.6,0,0.8c-0.4-0.2-0.5-0.4-0.5-0.6
				c0,0.2,0.1,0.4,0.2,0.7c0.2,0.3,0.3,0.5,0.3,0.6c0.1-0.4,0.4-0.9,1.1-1.7c0.1,0.1,0.2,0.3,0.5,0.5c0.2,0.1,0.3,0.3,0.3,0.4
				c0,0.2-0.1,0.4-0.3,0.6c0.2,0.4,0.1,0.7-0.1,0.9c-0.2-0.4-0.2-0.7-0.2-0.8c0,0.2-0.1,0.5-0.2,0.8c-0.1,0.3-0.2,0.5-0.2,0.6
				c0.5,0.1,0.8,0.1,1-0.2c0.3,0.4,0.5,0.7,0.5,0.8c0.1-0.4,0.4-0.5,0.8-0.4c0.3-1.4,0.6-3.2,1-5.5c0.2-1.5,0.4-2.9,0.6-4.4
				C71.4,11.5,72.1,10.2,73.3,9.1z M69.2,23.4c-0.1,0.6-0.6,1.5-1.5,2.7c-0.5,0.6-1,1.3-1.5,1.9c0-0.2-0.2-0.6-0.6-1.1v-1.1
				c0.3-0.4,0.5-0.5,0.4-0.5l0.2,0.5c0.1-0.1,0.2-0.3,0.4-0.6c0.1-0.3,0.3-0.4,0.5-0.4c0.2,0,0.4,0.1,0.5,0.2c0-0.4,0.1-0.7,0.4-0.8
				C68.7,23.8,69,23.6,69.2,23.4z M66.9,22.7l-0.8,0.6L66,23l0.8-0.6L66.9,22.7z M67.6,23.6c0,0.1,0,0.2-0.1,0.4s-0.1,0.3-0.1,0.4
				c-0.1-0.1-0.2-0.4-0.3-0.6c-0.1-0.3-0.3-0.5-0.3-0.6C66.9,23.3,67.2,23.4,67.6,23.6z M67.6,25.5h-0.7v-0.4h0.7V25.5z M67.7,32.8
				l-0.2,0.6l-0.3-0.1l0.2-0.6L67.7,32.8z M68.6,2.9l-0.1-0.3L68,2.9v0.3L68.6,2.9z M68.9,21.7l-0.6,0.5l-0.2-0.3l0.6-0.5L68.9,21.7
				z M68.7,17.7l-0.5-0.3l-0.1,0.3l0.5,0.3L68.7,17.7z"/>
			<path fill="#B4B410" d="M104.3,8.6l-0.4-0.2c-0.1,0.1-0.1,0.2,0,0.3s0.2,0.2,0.3,0.2c-0.7,0.5-1.2,1.6-1.7,3.3
				c-0.2,0.9-0.5,2.3-0.7,4.3c-0.4,3.1-0.6,4.8-0.7,5.1c-0.4,2.3-0.9,4.3-1.6,5.8c-0.6,1.3-1.7,2.6-3.4,4s-3.2,2.2-4.6,2.6
				c0.2-0.2,0.2-0.4,0.1-0.6c-0.2,0-0.3,0.2-0.3,0.6c-0.5,0-1.3,0-2.3,0c-1.2,0-1.8,0-1.7,0c-0.6,0-1.3-0.5-2.1-1.6
				c-0.7-1-1.1-1.6-1.1-2c0.3-0.3,0.2-0.5-0.2-0.5v-0.6c-0.1-0.5,0.3-1.2,1.3-2.1c0.9-0.9,1.7-1.3,2.2-1.3h0.9
				c0,0.1-0.1,0.2-0.3,0.5c0.1,0.1,0.2,0.2,0.3,0.2c-0.3,2.4-0.5,3.7-0.5,4.1c0,0.1,0.2,0.4,0.6,0.9c0.4,0.5,0.7,0.9,0.8,1.1
				c0.1-0.1,0.1-0.3,0.1-0.4c0.3,0,0.7,0.1,1,0.1c0.4,0,0.7,0.2,0.8,0.5c0.4-0.5,0.8-0.8,1.1-1c0.4-0.4,1.1-1.8,2-4.1
				c0.9-2.2,1.3-3.3,1.2-3.3c0.2,0,0.2,0,0.2,0.1c0,0.1,0,0.1,0,0.1c0-0.1,0.1-0.2,0.1-0.4c0.1-0.2,0.1-0.3,0.1-0.3
				c0-0.1-0.1-0.1-0.2-0.1c-0.2,0-0.2,0-0.3,0c0,0,0,0,0,0c0,0.1,0,0.1,0,0.2c0.4-2.2,0.7-3.8,0.8-4.8c0-0.3,0.1-0.9,0.2-1.7
				c0.1-0.8,0.2-1.3,0.2-1.5c0-0.2,0-0.3,0.1-0.3c0.1,0,0.2,0,0.2,0c0,0,0,0,0,0c0-0.1,0-0.2,0-0.3c0-1.3,0.7-3,2.1-4.9
				c1.5-2.2,2.9-3.2,4.3-3.2c0.4,0,0.9,0.2,1.5,0.7C104.4,8.3,104.2,8.6,104.3,8.6z M105.1,2.7c-0.3,0-0.6,0.2-0.9,0.5
				c0.2,0.3,0.3,0.5,0.1,0.7l-0.3-0.4c0-0.4,0.1-0.7,0.2-0.8h-1c0-0.1,0,0.1,0.1,0.4c0,0.2,0,0.3-0.1,0.4c-0.1-0.1-0.2-0.4-0.2-0.8
				h-0.7c0,0.4-0.1,0.6-0.3,0.6c-0.3-0.4-0.7-0.6-1.3-0.6c-2.8,0-5.5,1-8.2,3c-3.1,2.3-4.7,5.1-4.7,8.5c0,1,0.2,1.8,0.5,2.6
				c0.4,1,1,1.5,1.7,1.5c2.2-0.5,3.3-1.2,3.3-1.9c0,0-0.4-0.4-1.1-1.3c-0.8-0.9-1.1-1.7-1.1-2.5c0-0.2,0-0.5,0.1-0.7
				c-0.2,0-0.3-0.1-0.5-0.4c0.1-0.1,0.1-0.1,0.2,0c0,0.1,0.1,0.1,0.3,0.1c0.2,0,0.2-0.1,0.2-0.3c0-0.2,0-0.4,0-0.4
				c0.5-1.8,1.9-3.3,4-4.7c1.9-1.2,3.6-1.8,5.2-1.9c0-0.3,0-0.5,0.1-0.6c0.1,0.1,0.2,0.2,0.3,0.3s0.2,0.2,0.3,0.3
				C101,4,101,3.9,101.3,3.9c0.4,0,1.2,0.1,2.4,0.4l0.3-0.4c0.4,0.3,0.7,0.5,1.1,0.6c0-0.1-0.1-0.3-0.2-0.5
				c-0.1-0.2-0.2-0.3-0.2-0.4c0.2-0.2,0.4-0.4,0.5-0.4C105.2,3,105.2,2.8,105.1,2.7z M98.6,24.7l-0.4,0.7l0.2,0.2l0.4-0.7L98.6,24.7
				z M99.5,11.8l-0.2,0.5l0.2,0.1l0.2-0.6L99.5,11.8z M114.6,26.6c-0.2,0.2-0.8,0.9-1.9,2.1c-0.9,0.9-1.4,1.6-1.6,2
				c-0.1-0.2-0.1-0.4,0.1-0.6c-0.3,0.2-0.7,0.4-1.2,0.6c-0.4,0.2-0.8,0.4-1.2,0.8c-0.1-0.3,0-0.6,0.2-0.9c-0.5-0.2-0.7-0.8-0.7-1.8
				c0-0.5,0.1-1,0.2-1.3c-0.1,0-0.2-0.1-0.3-0.2c0.4-0.7,0.5-1.5,0.5-2.3c0-2.2-1-4.2-2.9-6c4.7-1.3,7.1-3.5,7.2-6.7
				c0.2-0.1,0.2-0.5,0.2-1.1c0-0.9-0.2-1.8-0.5-2.7c-0.4-1.1-0.8-1.6-1.3-1.7c0-0.5-0.3-1-0.8-1.5c-0.1,0-0.5-0.3-1.1-1
				c0,0.1-0.1,0.3-0.2,0.6c0.1-0.1,0.2-0.1,0.3-0.1c0.1,0,0.2,0.1,0.2,0.2c-0.4,0.1-0.6,0.4-0.6,1.1c0,0.4,0,0.9-0.1,1.3
				c-0.4-0.3-0.7-0.6-0.8-0.8c0.2-0.1,0.4-0.2,0.5-0.2c0-0.2,0.1-0.5,0.2-1.1c0.1-0.5,0.2-0.8,0.2-1c0-0.3-0.1-0.5-0.2-0.5
				c-0.6,0-0.9,0-0.9,0.1c0.1-0.1,0.2-0.1,0.2,0c0.1,0.1,0,0.2-0.1,0.3h-0.6c-0.1-0.2-0.2-0.6-0.2-1c-0.5-0.3-0.9-0.5-1.1-0.5
				c-0.1,0-0.3,0.1-0.5,0.4c-0.3-0.3-0.5-0.5-0.6-0.6v2c0,0,0.2,0.2,0.6,0.7c0,0,0.1-0.2,0.2-0.4c0.1-0.2,0.2-0.2,0.2-0.2
				c0,0.6,0,1,0.1,1.1c0-0.1,0.1-0.3,0.2-0.4c1.1,1.8,1.7,3.5,1.7,5.1c0,1.3-0.2,2.6-0.7,4.1c-0.6,1.9-1.4,3-2.4,3c-0.5,0-1,0-1.5,0
				c-0.7,0-1.2,0.2-1.4,0.5v1.2c0.7,0.1,1.2,0.5,1.5,1.2c0.3,0.6,0.4,1.2,0.4,1.9c0,0.2-0.2,1.3-0.6,3.4c-0.4,2.1-0.6,3.2-0.6,3.4
				c0,0.7,0.2,1.6,0.7,2.7c0.6,1.4,1.4,2.1,2.2,2.1c0.1,0,0.2,0,0.2-0.1c0-0.1,0-0.1,0.2-0.1c0.1,0,0.1,0,0.2,0.1c0,0,0,0.1-0.1,0.1
				c0,0.1-0.1,0.1-0.1,0.1c0,0,0.1,0.1,0.2,0.1h1.1c1,0,2.2-0.5,3.4-1.6c0.8-0.6,2-1.9,3.6-3.8V26.6z M105.7,21.7
				c-0.1,0-0.2,0.1-0.3,0.3c-0.1,0.2-0.2,0.3-0.2,0.4c0.2,0.1,0.4,0.2,0.5,0.2C105.7,22.7,105.7,22.3,105.7,21.7z M105.5,20.6
				l-0.3,0.7l0.2,0.1l0.3-0.8L105.5,20.6z M106.6,4.5h-0.3l0.2-0.9h0.3L106.6,4.5z M108.4,5.4c-0.1,0.3-0.1,0.4-0.1,0.5
				c0,0-0.1,0-0.1-0.1c0-0.2-0.1-0.3-0.2-0.3c-0.2,0-0.3,0-0.4,0.1c-0.1,0-0.1,0.1-0.2,0.1c0.1-0.1,0.1-0.2,0.1-0.3
				c0-0.1-0.1-0.2-0.2-0.2c0.4,0,0.6,0,0.6,0.1c0,0,0.1-0.2,0.2-0.6c0-0.2,0.2-0.3,0.4-0.2C108.5,4.8,108.5,5.1,108.4,5.4z
				 M109.5,13.9l-0.2,0.1l0.2,0.5h0.2L109.5,13.9z M110,8.3h-0.3l0.2-0.9h0.3L110,8.3z M110.2,7.2L109.9,7l0.4-0.9l0.3,0.1
				L110.2,7.2z M111.9,13.9l-0.2,0.1l0.2,0.5h0.2L111.9,13.9z M113,10.2l-0.2-0.5l0.2-0.1l0.2,0.6H113z"/>
			<path fill="#B4B410" d="M122.1,33.9c-0.3-0.3-0.5-0.4-0.6-0.4c-0.2,0-0.3,0-0.4,0.1c-0.1,0.1-0.2,0.1-0.2,0.1c0,0,0-0.4,0-1.2h-1
				c-0.1,0.1-0.1,0.2-0.1,0.4c0.1,0.3,0.1,0.4,0.1,0.4h-0.8c0.1-0.5,0.1-0.8,0.1-1c-0.3,0.4-0.4,0.6-0.3,0.7
				c-0.2-0.2-0.4-0.7-0.6-1.2v-2.2c0,0.1-0.1,0.5-0.3,1.1c-0.2,0.5-0.2,1-0.2,1.3c0,0.2,0,0.4,0.1,0.5c-0.2-0.2-0.6-0.5-1-0.9
				c-1.8-0.8-2.7-2.7-2.7-5.9c0-4.4,2.1-7.4,6.4-8.8c0,0.2,0,0.6,0.1,1c0.1,0.5,0.1,0.8,0.1,1c0,0.4-0.2,1.1-0.6,2.1
				c-0.4,1-0.6,2.1-0.6,3.3c0,0.9,0.4,2.5,1.2,5.1c0.2,0,0.3-0.2,0.3-0.5c0,1.3-0.1,2.3-0.4,3c0,0.2,0-0.2,0-1.2
				c-0.2,0.1-0.3,0.2-0.4,0.6c-0.2,0.5-0.3,0.8-0.3,0.9c0.3,0,0.6,0.1,1.1,0.2l0.6-2.7c0,0.6,0.1,1.3,0.1,2c0.1,0.7,0.2,1.2,0.5,1.4
				V33.9z M120.5,15.2c-0.1-1.8-0.3-4.4-0.7-7.8c-0.3-0.3-0.3-0.5-0.2-0.6l0.3-0.9c-0.5,0.1-0.9,0.8-1.3,2c-0.3,1-0.5,1.8-0.5,2.4
				c0,0.8,0.2,1.7,0.6,2.6C119.3,13.9,119.8,14.7,120.5,15.2z M119.2,32h-0.3l-0.1-1.2h0.3L119.2,32z M119.2,12.1h-0.3v-0.9h0.3
				V12.1z M133.1,5.6c0,0.5-0.1,0.9-0.4,1.3c-0.5,0.6-0.9,1.2-1.4,1.9c-0.1,0-0.1,0-0.2,0c-0.4,0-0.7-0.4-0.9-1.3
				c-0.4-1.4-0.7-2.3-0.9-2.7c-0.1-0.2-0.4-0.4-1-0.8c-0.5-0.3-0.8-0.7-0.9-1c-0.8,0.8-1.6,1.6-2.5,2.4c-1.2,1.4-1.8,2.7-1.8,4.2
				c0,0.2,0,0.4,0,0.5l-0.3,1.3c0.1,0.8,0.6,1.5,1.4,2.2c0.9,0.8,1.9,1.2,2.9,1.3c0.1-0.1,0.2-0.2,0.2-0.2c0.2,0,0.3,0.3,0.3,0.9
				c0,0.5-0.1,1-0.3,1.5c-0.3,0.6-0.6,0.9-1,0.9c-0.1,0-0.5-0.1-0.9-0.2c-0.5-0.1-0.8-0.2-1-0.2c-0.5,0-1.1,0.2-1.9,0.6
				c-0.7,0.4-1.1,0.7-1.3,1.1c-0.2-0.4-0.3-0.8-0.3-1.4c0-0.7,0.1-1.1,0.4-1.2c0.1-0.1,0.2-0.1,0.3-0.2c0.2,0,0.3-0.1,0.3-0.2
				c-0.1-0.1-0.5-0.3-1.2-0.7l-0.6-8.4c0-0.6,0.2-1.1,0.7-1.6c0-0.2,0-0.4-0.1-0.5c0,0-0.1,0.1-0.3,0.2s-0.3,0.2-0.5,0.2
				c1.1-1.1,2.6-2.2,4.4-3c0.1,0.3,0.3,0.6,0.6,1c0-0.3,0-0.6-0.1-0.9c0-0.2,0-0.4,0-0.4c0,0,0.1,0.1,0.3,0.3
				c0.5-0.3,0.9-0.4,1.2-0.4c0.6,0,1.3,0.1,2,0.4l0.8-0.2c-0.2,0.5-0.2,1,0.1,1.4c0.2-0.4,0.3-0.9,0.3-1.4c1.1,0.6,1.9,1.5,2.5,2.7
				l0.5-0.4c0,0,0,0.2,0.1,0.5C133.1,5.2,133.1,5.4,133.1,5.6z M120.6,33.5h-0.3v-0.8h0.3V33.5z M121.5,9.7l-0.3-0.1l-0.2,0.5
				l0.2,0.1L121.5,9.7z M122,9V8h-0.3v1H122z M122.2,10.7h-0.3l-0.2,0.7l0.2,0.1L122.2,10.7z M122.6,11.8l-0.6,0.7l-0.2-0.2l0.6-0.7
				L122.6,11.8z M133.6,26.1c0.1,1.9-0.9,3.7-2.9,5.2c-1.7,1.3-3.4,2-5,2.1c-0.1-0.1-0.2-0.1-0.4,0c-0.1,0.1-0.2,0.2-0.2,0.3h-0.9
				c0.4-0.6,0.8-1,1.1-1.1c0,0-0.1,0-0.1,0c-0.2,0-0.5,0.2-0.9,0.6s-0.8,0.6-0.9,0.6c0-0.7-0.1-1.2-0.3-1.4
				c-0.1,0.3-0.2,0.8-0.4,1.4c0.1-0.2,0.1-0.6,0.1-1c0-0.2-0.1-0.6-0.3-1.2c-0.2-0.8-0.4-1.3-0.4-1.5c0.3,0.2,0.7,0.4,1.2,0.7
				c0,0,0,0.2-0.1,0.7c0,0.3,0,0.6,0,0.8c0.2-0.2,0.3-0.6,0.3-1.3c0.5,0.1,1.2,0.2,2.1,0.2C128.6,31,131.2,29.4,133.6,26.1z
				 M122.9,7.2l-0.2-0.1l-0.2,0.5l0.2,0.1L122.9,7.2z M123.7,4.4h-0.3l-0.2-0.7l0.2-0.1L123.7,4.4z M124.5,2.8c-0.1,0-0.2,0-0.4,0.1
				c-0.2,0.1-0.4,0.1-0.4,0.1c0,0.1,0.1,0.2,0.2,0.3c0.2,0.2,0.3,0.3,0.4,0.3C124.4,3.5,124.5,3.2,124.5,2.8z M124.4,32.3h-0.3
				l-0.2-0.5l0.2-0.1L124.4,32.3z M129.4,4.1l-0.8-0.9l-0.2,0.2l0.8,0.9L129.4,4.1z M131.9,5.2l-0.2-0.1l-0.2,0.5l0.2,0.1L131.9,5.2
				z"/>
			<path fill="#B4B410" d="M161.5,25.8c0,2-0.9,3.9-2.8,5.6c-1.8,1.7-3.8,2.5-5.8,2.5c-1.5,0-2.6-0.5-3.4-1.6
				c-0.8-1-1.3-2.7-1.6-5.1c-1.3,1.6-2.7,3.2-4,4.8c-1.2,1.2-2.6,1.8-4.2,1.8c-1.4,0-2.4-0.4-3.2-1.1c-0.7-0.7-1.6-2.2-2.7-4.6
				c0,0,0.1,0,0.4,0.1c0.2,0.1,0.5,0.1,0.8,0.1c0.1-0.1,0.1-0.3,0-0.5c0-0.2,0-0.3,0.1-0.3c0.1,0,0.4,0.1,0.9,0.4
				c0.1-0.1,0.1-0.4,0.2-0.9c0.1-0.4,0.1-0.7,0.2-0.9l0.7-0.8c-0.2-0.2-0.4-0.4-0.5-0.4c0.1-0.2,0.3-0.1,0.6,0.3
				c0.1,0,0.1-0.1,0.2-0.1c0.1,0,0.1-0.2,0.1-0.4c0-0.5-0.1-0.8-0.3-0.8c-0.3,0-0.8,0.1-1.4,0.2c0,0-0.1,0-0.1,0
				c0.1,0,0-0.2-0.2-0.7c-0.1,0-0.3-0.1-0.4-0.3c-0.1-0.2-0.3-0.3-0.4-0.3c0.1-0.1,0.2-0.2,0.4-0.4c0.2-0.2,0.3-0.3,0.4-0.4
				c0,0-0.1-0.2-0.2-0.5c-0.1-0.3-0.2-0.5-0.2-0.7c0.3,0.3,0.5,0.5,0.7,0.5c0,0,0-0.2,0.1-0.5c0.1-0.2,0-0.4-0.1-0.8
				c0.1-0.2,0.2-0.4,0.3-0.5c0.2-0.1,0.4-0.3,0.8-0.5c0-0.1,0-0.2-0.2-0.2c-0.1,0-0.4,0-0.8,0c-0.1,0-0.1,0-0.2-0.1
				c-0.1-0.2-0.3-0.3-0.5-0.4c-0.1,0.1-0.1,0.1-0.1-0.1c0-0.2,0-0.4,0.1-0.6c-0.1-0.1-0.3-0.2-0.5-0.2v-1.1c0.2,0.1,0.4,0.4,0.6,0.9
				c0.2-0.5,0.5-0.8,0.9-1c-0.2-0.1-0.3-0.3-0.6-0.7c-0.3-0.4-0.4-0.8-0.4-1.2c0-3.1,1.7-6.3,5.2-9.7c3.3-3.2,6.3-4.8,8.9-4.8
				c0.9,0,1.5,0.1,1.8,0.2l0.5-0.4c0.1,0.1,0.3,0.4,0.6,0.7c1.2-0.3,1.9-0.5,1.9-0.5c1.2,0,2.2,0.1,3,0.3c-0.3,0.5-0.6,0.9-0.9,1.4
				c-0.4,0.7-0.6,1.3-0.6,1.9c0.1-0.1,0.4-0.4,0.6-0.8c0.2-0.4,0.4-0.6,0.5-0.6c0.1,0,0.1,0,0.1,0c0.5,0.5,1,0.6,1.5,0.2
				c0,0.3-0.1,0.5-0.3,0.8c0,0.1,0.2,0.3,0.5,0.6c0.2,0.2,0.3,0.5,0.3,0.7c0,0.1,0,0.2-0.1,0.4c0,0,0,0,0,0c0,0.1,0.2,0.2,0.7,0.5
				c-0.1,0.1-0.3,0.3-0.4,0.4c-0.2,0.2-0.3,0.5-0.4,0.9c0,0-0.1,0-0.1,0c-0.1,0-0.1,0.1-0.3,0.3c-0.1,0.2-0.2,0.3-0.4,0.4
				c0.2,0.2,0.4,0.3,0.5,0.1c-0.6,1.1-1.4,3.3-2.5,6.8c-1.4,4.5-2.1,8.1-2.1,10.8c0,3.1,0.9,4.6,2.6,4.6c0.7,0,1.6-0.5,2.8-1.5
				C160.4,27.3,161.2,26.5,161.5,25.8z M135.3,26.4c-0.4,0-0.7,0.1-0.9,0.3c-0.2,0.1-0.3,0.2-0.4,0.2c0-0.3,0.3-0.8,0.9-1.5
				c-0.1,0.2-0.1,0.4,0.1,0.6c0.1-0.1,0.2-0.3,0.2-0.6V26.4z M135,22.1h-0.5v-0.4h0.5V22.1z M135.8,25.2l-0.3,0.2l-0.4-0.8l0.2-0.2
				L135.8,25.2z M137.8,13c-0.7,0.4-1.2,0.8-1.4,1.1c-0.4-0.4-0.6-0.6-0.6-0.6c0,0.1,0,0.2-0.1,0.5c-0.1,0.3-0.1,0.5-0.1,0.7
				c0,0.2,0.1,0.3,0.3,0.3c0.2,0,0.3,0,0.4,0.1C137,14.3,137.6,13.6,137.8,13z M136.6,29.7l-0.7,0.8l-0.2-0.2l0.7-0.7L136.6,29.7z
				 M136.8,15.1l-0.5,0.6l-0.2-0.2l0.5-0.5L136.8,15.1z M136.9,23.3l-0.7,0.5l-0.2-0.3l0.7-0.5L136.9,23.3z M136.8,19.9l-0.2,0.6
				l-0.3-0.2l0.2-0.6L136.8,19.9z M137.7,26.4l-1.1,0.7l-0.1-0.3l1.1-0.7L137.7,26.4z M137.2,22.5l-0.7,0.3v-0.3l0.6-0.3L137.2,22.5
				z M137.5,14.5l-0.7,0.5l-0.2-0.3l0.7-0.5L137.5,14.5z M138.3,14.1l-0.7-0.3v0.3l0.6,0.3L138.3,14.1z M139,14.3l-0.2-0.3l-0.8,0.8
				l0.2,0.3L139,14.3z M140.6,11.3l-0.1-0.3l-1.4,0.7V12L140.6,11.3z M155.3,1.9c-0.7-0.2-1.2-0.3-1.6-0.3C153.6,1.8,153.3,2,153,2
				c-0.3,0-0.5-0.1-0.6-0.2c0-0.5,0-0.8-0.1-0.9c0,0.6-0.1,0.9-0.2,0.9c-1.2-0.1-2.8,0.6-4.8,2.1c-1.1,0.9-2.3,1.7-3.4,2.6
				c0,0.1,0.1,0.2,0.2,0.3c0.1,0.2,0.2,0.3,0.2,0.3c-0.4,0.5-1.1,1.3-1.9,2.3c0.3,0,0.5,0.1,0.6,0.2c-0.4,0.7-0.8,1.7-1.4,3.2
				c-0.5,1.5-0.9,2.4-1.1,2.7c-0.1,1.5-0.3,2.9-0.5,4.1c-0.2,0.9-0.3,1.8-0.3,2.7c0,1.4,0.1,2.6,0.4,3.7c0.5,2,1.4,3,2.7,3
				c1.8,0,3.2-1,4.2-3.1c0.7-1.3,1.3-3.5,2-6.4c0.6-3,1.2-4.9,1.6-5.6c0-0.2,0.1-0.4,0.1-0.5c0-0.1,0-0.1,0,0c0.1,0,0.1-0.1,0.2-0.3
				c0.1-0.2,0-0.3-0.2-0.3c1.2-3.6,2.5-6.2,3.8-7.6c0.7-0.7,1-1.4,1-2c0-0.1,0-0.2-0.1-0.2c-0.3-0.3-0.5-0.5-0.7-0.5
				c-0.2,0-0.4-0.1-0.6-0.3c0.1,0,0.3-0.1,0.5-0.3c0.1,0,0.2,0,0.4,0.1C155.1,1.9,155.2,1.9,155.3,1.9z M140.5,10.2l-0.1-0.3
				l-0.7,0.5v0.3L140.5,10.2z M140.6,13.2l-0.7,0.8l-0.2-0.2l0.7-0.8L140.6,13.2z M140.6,12.1l-0.2-0.2l-0.5,0.6l0.2,0.2L140.6,12.1
				z M142.3,7.4l-0.2-0.2L141.4,8l0.2,0.2L142.3,7.4z M142.7,8.1l-0.2-0.2l-0.7,0.7l0.2,0.2L142.7,8.1z M143,4l-0.1-0.3l-0.8,0.5
				v0.3L143,4z M149.6,1.7l-0.2-1h-0.3l0.2,1H149.6z M151.5,12.2l-0.3-0.1l-0.2,0.6l0.3,0.1L151.5,12.2z M155.5,6.9
				c-0.7-0.2-1.1-0.4-1.1-0.5c-0.7,1.2-1.6,3-2.8,5.6c0.5-1,1.4-2.5,2.6-4.5c0.1-0.2,0.2-0.3,0.3-0.3s0.2,0.1,0.3,0.3
				c0.1,0.2,0.1,0.3,0.1,0.3C154.9,7.6,155.1,7.3,155.5,6.9z M155.4,4.7h-0.3l-0.6,1.4l0.3,0.1L155.4,4.7z M156.1,7.4l-0.2-0.3
				l-0.5,0.4l0.2,0.3L156.1,7.4z M156.5,0.9V0.6l-1,0.2v0.4L156.5,0.9z M156.3,1.5l-0.2-0.2l-0.5,0.5l0.2,0.2L156.3,1.5z M156.3,5.3
				L156.2,5l-0.5,0.3v0.3L156.3,5.3z M156.8,4l-0.9,0.6c0.1,0,0.3,0.1,0.4,0.2c0.2,0.1,0.2,0.2,0.2,0.3C156.6,4.8,156.7,4.4,156.8,4
				z M158.6,6.3c-0.1-0.1-0.2-0.3-0.4-0.6C158,5.5,158,5.3,158,5.2c0.1-0.1,0.2-0.2,0.2-0.2c0,0,0,0-0.1,0c-0.1,0-0.3,0.1-0.7,0.2
				c-0.4,0.1-0.6,0.2-0.6,0.2c0,0.5-0.2,0.9-0.6,1.4c0.3,0.4,0.8,0.8,1.3,1.2c-0.1-0.1-0.3-0.2-0.5-0.5c-0.2-0.3-0.3-0.6-0.3-0.8
				c0.2-0.3,0.3-0.5,0.5-0.5c0.1,0,0.2,0,0.3,0.1c0.2,0.2,0.3,0.5,0.3,1.1C157.9,6.9,158.1,6.6,158.6,6.3z M157.5,3.5l-0.1-0.3
				l-0.6,0.3v0.3L157.5,3.5z M161,3.2c-0.5,0.6-0.9,1.1-1,1.4c-0.3-0.4-0.6-0.8-0.7-1.3c-0.1-0.4-0.3-0.7-0.6-0.8
				c0.3,0,0.5-0.1,0.6-0.2c-0.1-0.1-0.1-0.2-0.1-0.4s-0.1-0.3-0.1-0.4c-0.4,0.5-0.9,0.8-1.6,1.1c0-0.6-0.1-0.9-0.2-0.9
				c-0.1,0-0.1,0-0.2,0.1c0-0.1,0.1-0.2,0.2-0.2c0.2,0,0.3,0.1,0.4,0.2c0.1-0.1,0.1-0.3,0.1-0.7c0-0.3,0-0.5,0.1-0.6
				c0.7,0.6,1,0.9,0.9,0.9c0.2,0,0.3-0.1,0.3-0.2s0.1-0.2,0.3-0.2c0.1,0,0.4,0.1,0.8,0.2s0.7,0.2,0.9,0.2V3.2z M158,3.9l-0.2-0.2
				l-0.5,0.5l0.2,0.2L158,3.9z M160.2,4.2v-1h-0.3v1H160.2z"/>
		</g>
	</g>
</g>
</svg>
