<?xml version="1.0" encoding="utf-8"?>
<!-- Generator: Adobe Illustrator 18.1.1, SVG Export Plug-In . SVG Version: 6.00 Build 0)  -->
<!DOCTYPE svg PUBLIC "-//W3C//DTD SVG 1.1//EN" "http://www.w3.org/Graphics/SVG/1.1/DTD/svg11.dtd">
<svg version="1.1" id="Layer_1" xmlns="http://www.w3.org/2000/svg" xmlns:xlink="http://www.w3.org/1999/xlink" x="0px" y="0px"
	 viewBox="0 275.9 595.3 273" enable-background="new 0 275.9 595.3 273" xml:space="preserve">
<g>
	<g opacity="0.25">
		<g>
			<g>
				<g>
					<path fill="#FFFFFF" d="M260.6,405.4c2.7-1.1,8.9-2.1,8.9-0.9c0-1.2,0-1.2,4.1-2.6c0,0.8,3.8,0.1,6.2-0.2
						c-2.1-0.4-4.8-0.1-10.3,0.4c-2.4,1.2-6.3,1.5-10.1,1.7c-1.9,0.1-3.8,0.3-5.5,0.6c-1.7,0.3-3.2,0.7-4.3,1.4
						C253,405.6,256.5,406.4,260.6,405.4z"/>
					<path fill="#FFFFFF" d="M283.7,407.8l0.7-0.6c0,0-2.1,0.4-4.3,0.8c-2.1,0.5-4.3,0.9-4.3,0.9
						C277.5,408.4,283.3,407.3,283.7,407.8z"/>
					<path fill="#FFFFFF" d="M311.5,403.7c-0.7,0.9,3.8,1.1,3.7,1.9c-0.3-1.8,6.9-1,10.7-1.5l1.4-1.5c-3.8-0.7-13.1,0.6-21,1.2
						L311.5,403.7z"/>
					<path fill="#FFFFFF" d="M318.7,404l2.4-1.1C319,403.4,314.2,403.9,318.7,404z"/>
					<path fill="#FFFFFF" d="M312.9,399.7c-6.2,0.4,3.8,0.3-2.4,1.1C312.5,400.4,315,400.1,312.9,399.7z"/>
					<path fill="#FFFFFF" d="M339,400.3c0,0-3.3,0.4-6.6,0.8c-3.3,0.4-6.5,0.9-6.5,0.9l5.5,0.1c0,0,1.9-0.4,3.8-0.9
						C337.1,400.8,339,400.3,339,400.3z"/>
					<path fill="#FFFFFF" d="M340,403.2c-1.7,0.1-4.5-0.2-2-0.8c4.8,0.8,7.6-1,12-0.3l-4.1,0.7c0.6,1.1,8.7-1.8,8.6,0.3
						c5.6-1.8-4.4-1.4,2.9-2.9c-6.9,0.8-12.1,0.8-17.9,0.8c1.7,0.3,2.4,0.2,4.8,0.3c-4.1,0.4-9.7,1.3-14.5,1.8
						C332.4,404.1,335.9,402.7,340,403.2z"/>
					<path fill="#FFFFFF" d="M360.9,402c4.5-0.1,11.4-0.4,12.5-2c-4.8-0.8-5.5,0.5-7.6,1.2c-1.4-0.2-5.8-0.1-4.1-1
						C362.4,400.6,358.9,401.6,360.9,402z"/>
					<path fill="#FFFFFF" d="M378.5,401.5l3.2-1.5l-2.1,0.3l-0.3-1c-0.4,0.3-1.8,2.1-6.3,2.2C375.3,402.2,376.1,401.2,378.5,401.5z"
						/>
					<path fill="#FFFFFF" d="M379.3,394.7c3.1,0.5,4.8,0,8.3-0.5c-4.9,0.4-11.8,0.7-13.2,1.3l0.4-0.3c0,0-4.5,0.9-7.7,2
						C371.9,396.1,380.8,397.1,379.3,394.7z"/>
					<path fill="#FFFFFF" d="M373,394.9l3.5-1L373,394.9z"/>
					<path fill="#FFFFFF" d="M392.3,400.5c0,0-1.7-0.1-3.4-0.1c-1.7,0-3.4-0.1-3.4-0.1l1.7,0.3c0,0,1.3-0.1,2.6-0.1
						C391,400.6,392.3,400.5,392.3,400.5z"/>
					<path fill="#FFFFFF" d="M383.9,396.8c5.5-0.1-3-0.9,2.1-1.1c1.4-0.2-7.6,0.4-8,1.1C379.5,396.9,383.3,395.7,383.9,396.8z"/>
					<path fill="#FFFFFF" d="M396.8,400.5l5.6-1.2L396.8,400.5z"/>
					<path fill="#FFFFFF" d="M410.8,400.8l1.1-0.8c2.7,0.2,5.9,0,8.9,0c3,0,5.8,0.1,7.8,0.9c-0.9-0.9,2.2-1.9-2.6-2.1
						c-0.7,0.5-2.5,0.5-2.2,1.1c-2.1-0.2-1.6-0.8-3-1c-3.5,0.9-9,0.4-11.8,1.2c1.4-0.2,1.7,0,2.7,0c-6,1.4-7.1-1.6-9.7,0.5
						C404.4,399.9,408.1,401.2,410.8,400.8z"/>
					<path fill="#FFFFFF" d="M410.2,395.8l-4.8-0.1c1.5-1,5.9-0.2,6.7-1.1c-0.3-0.6-5.1-0.7-3.4-1.1c-0.5,2.3-6.6,0.3-4,2.8
						c-6.2,0.5-2-1.3-8.5-1l-1.8,1.3C401.6,395.6,402.9,396.7,410.2,395.8z"/>
					<path fill="#FFFFFF" d="M428.8,395.8l2.3,0.7l-1.3-1c10.8-0.3,17.1,4,23.5,3.4c8.1-1.3,15.6,0.9,23.9,0.8
						c4-0.9-3.9-0.6-4.3-1.2c1.2-1.8,3.9,1,5.8-0.5c0.6-1.3-8.4-1.5-12-2.3c-3.1,0.1-3,0.6-4,1.3c-0.8-0.7-3.9-1-4.7-1.7
						c-6.4,0.9-9.8-0.9-16.1,0.2c-2-1,4.7-0.2,2.6-0.4l-3.5,0.1l0.4,0.2c-4.7,1-13.4,0.2-16.4-0.5c2.4,0.3,4,1.1,1.2,1.5l-2.3-1.1
						c0,0-1.5,0.4-3,0.9c-1.5,0.4-3,0.9-3,0.9C422.6,395.7,428,398,428.8,395.8z"/>
					<path fill="#FFFFFF" d="M422.1,393.8c-7.2-0.5,0.9,1.7-7,1.3c0,0,2.1-0.1,4.2-0.2c1-0.1,2.1-0.1,2.9-0.1c0.8,0,1.3,0,1.3,0
						L422.1,393.8z"/>
					<path fill="#FFFFFF" d="M456.6,396.5l3.6,0.8C458.2,395.7,452.6,397.8,456.6,396.5z"/>
					<polygon fill="#FFFFFF" points="469.7,396.6 467.8,398.1 471.2,397.3 					"/>
					<path fill="#FFFFFF" d="M481.7,398.5c2.7-0.7-0.5-1.4-3.6-1.2C480.8,397.4,482.3,398.1,481.7,398.5z"/>
					<path fill="#FFFFFF" d="M501.3,401.9c-6-0.2,5.3,0.5,1,1.7C503,403,506.1,402.3,501.3,401.9z"/>
					<path fill="#FFFFFF" d="M520.6,406c-2.2,0.2-3.1-0.1-3.3-0.5C518.8,405.6,520.1,405.8,520.6,406z"/>
					<path fill="#FFFFFF" d="M445.7,400c-0.7,0-1.4,0-2.1,0C444.3,400,445,400,445.7,400z"/>
					<path fill="#FFFFFF" d="M447.1,400c-0.5,0-0.9,0-1.4,0C446.2,400,446.7,400,447.1,400z"/>
					<path fill="#FFFFFF" d="M491.7,403.7C491.7,403.7,491.7,403.7,491.7,403.7c-0.2-0.1-0.3-0.1-0.5-0.2L491.7,403.7z"/>
					<path fill="#FFFFFF" d="M301.1,406.6c-1.2,0.2-2.1,0.3-2.8,0.4C299.3,406.9,300.2,406.7,301.1,406.6
						C301.1,406.6,301.1,406.6,301.1,406.6z"/>
					<path fill="#FFFFFF" d="M297.7,404.9c4.8-1.4,5.5,1.6,13.4,0.2c-3.2,0.5-6.6,1-10,1.5C296.4,405.7,304.6,405.5,297.7,404.9z"/>
					<path fill="#FFFFFF" d="M364.3,397.9c0.1,0,0.2,0,0.3-0.1C365.1,397.8,364.8,397.8,364.3,397.9z"/>
					<polygon fill="#FFFFFF" points="85.1,449.3 85.2,449.7 80.8,450.6 					"/>
					<path fill="#FFFFFF" d="M85.9,449.8l7.4-1.5c0,0-2.6,0.8-6.6,2.1c-4,1.3-9.2,3.1-14.5,4.9C61.7,459,51.4,463,51.4,463l1.1-1
						c-0.4-0.2,8.2-3.5,16.8-6.4c4.3-1.5,8.6-2.8,11.8-3.9C84.3,450.6,86.2,449.8,85.9,449.8z"/>
					<path fill="#FFFFFF" d="M87.7,448.6c3.6-2.9,7-1.6,11.7-4.3c-3.2,1.8-5.3,3.4-8.7,4L87.7,448.6z"/>
					<path fill="none" stroke="#FFFFFF" stroke-width="0" stroke-linecap="round" stroke-linejoin="round" d="M101,441.1
						c2.4-0.3,4.9-1.8,6.3-2C106.8,440.6,103,440.7,101,441.1z"/>
					<path fill="#FFFFFF" d="M105.8,434.6c0.4-0.1,0.7-0.2,1.1-0.3c-0.4,0.2-0.8,0.4-1,0.6L105.8,434.6z"/>
					<path fill="#FFFFFF" d="M105.8,434.8l0.1,0.6C105.1,435.4,105.3,435.2,105.8,434.8z"/>
					<path fill="#FFFFFF" d="M106.8,434.3c0.9-0.5,2-1,2.5-1.4l-1,0.2c1.3-0.5,3.6-1.7,4.3-1.6c-2.7,0.7-2.6,1.1-2.5,1.9
						c0,0,1.1-0.3,2.2-0.6c1.1-0.3,2.2-0.5,2.2-0.5C114.2,434.4,110.7,433.3,106.8,434.3z"/>
					<path fill="none" stroke="#FFFFFF" stroke-width="0" stroke-linecap="round" stroke-linejoin="round" d="M120.4,430l-4.2,2.3
						C114.7,431.6,118.8,430.4,120.4,430z"/>
					<path fill="#FFFFFF" d="M127.3,429.4c-1,0.6-5.3,1.7-2.6,1.4c-0.7,0.4-1.5,0.6-2.4,0.8C125.2,430.6,122.1,430.1,127.3,429.4z"
						/>
					<path fill="#FFFFFF" d="M122.4,431.7c-0.3,0.1-0.7,0.3-1.2,0.4C121.5,431.9,122,431.8,122.4,431.7z"/>
					<path fill="none" stroke="#FFFFFF" stroke-width="0" stroke-linecap="round" stroke-linejoin="round" d="M77.5,450.1
						c0.6,0,0.6,0.1,0.4,0.3L77.5,450.1z"/>
					<path fill="#FFFFFF" d="M136.6,428.3l1.7-0.4c-0.5,0.1-0.9,0.3-1.3,0.4L136.6,428.3z"/>
					<path fill="#FFFFFF" d="M6.1,485.8c2.6-1.2,5.2-2.4,8.1-3.8c2.9-1.4,6-3,9.8-5.1c-0.8-1.2,3-1.8,2.9-3.3
						c-2,0.9-1.1,0.5,1.2-0.6c1.2-0.6,2.7-1.3,4.5-2.1c1.8-0.8,3.7-1.7,5.7-2.6c7.9-3.6,16.1-7.1,12.6-6.1c0,0-0.4,0.3-0.9,0.7
						c-0.4,0.3-0.9,0.7-0.9,0.7s0.4-0.5,0.8-1.1c0.4-0.5,0.8-1.1,0.8-1.1c4.2-1.2,10.1-2.2,12.5-3.9c0.4,0.1-8.2,3.2-16.6,6.5
						c-2.1,0.8-4.2,1.7-6.2,2.5c-1.9,0.8-3.7,1.6-5.3,2.2c-3,1.3-4.9,2.2-4.5,2.1c-1.9-0.1,9.5-5.5,21.7-10.4
						c12.2-5,25.2-9.4,25.7-10l0.8,0.6c6-3,9.7-5.5,14.9-7.7l1.5,0.6c-4,0.9-4.9,1.9-8.7,3.6c6.9-2.3,8.3-2.1,13.6-4
						c-0.6-1.3-4.8,0.7,1.7-2c2.1,0-1.9,2.7,4,0.7c3.7-0.9,5-1.7,6.2-2.5c1.2-0.9,2.3-1.7,5.4-2.6c0,0-1.1,0.2-2.2,0.3
						c-1.1,0.2-2.2,0.4-2.2,0.4c2.3-0.7,6.6-2.2,9.1-2.1c-2.7,0.6-9.2,3.2-8.7,4.5c2.6-1.1,8.7-2.1,11-2.9l-1.2,1.3
						c2.8,0.2,3.9-1.5,7.4-1.6c2.9-1.4-2.2-0.8-0.6-1.7c0.7,0.1,6.8-0.8,8.7-2c-2-1.6-6.9,2.3-11.2,1.5c0,0,1.4-0.3,2.9-0.6
						c1.4-0.3,2.9-0.5,2.9-0.5c1.5-1.4-0.7-0.9-3.2-0.2c-2.5,0.7-5.1,1.6-4.4,0.5c3.7-3.2,9.3-0.4,12.6-3.9
						c-2.8,0.2-11.2,2.2-10.3,1.3c3.1-0.1,4.9-1.9,8.9-3.2l5.2-0.3c1.9-1.1,0.3-0.7-1.5-0.7c1.9-0.2,4.1-0.6,6.4-1.1
						c2.4-0.5,4.9-1.1,7.5-1.7c2.6-0.6,5.4-1.2,8.1-1.8c1.4-0.3,2.7-0.5,4.1-0.7c1.4-0.2,2.7-0.3,4.1-0.4c6.1-1.6,0.6-1,3.2-2.3
						c3.5,0.5,8.8-1.6,12.2-2.3c1-0.1,2.6-1.6,1.6-1.9c0,0-2.1,0.6-4.2,1.2c-2.1,0.6-4.2,1.3-4.2,1.3c0.3-0.7-1.2-1.5-4.2-0.7
						c2.6,1.9-12.4,1.1-12.4,3.9l-0.1-1.2l-10.7,3.3l0.4,0.1c0-0.2-2.3,0.5-5.3,1.4c-3,1-6.8,2.1-9.8,2.6c1.6-0.8,11.8-2.9,5.6-2.7
						c1.1-0.4,2.4-0.8,3.9-1.2c1.5-0.4,3.2-0.7,5-1c3.6-0.7,7.7-1.5,11.7-2.7l-1.8-0.4c4.2-1.6,9.2-2.5,14.4-3.4
						c5.2-0.9,10.5-1.7,15.3-2.7l-2.6,1.6c3.5-0.2,8-0.1,11-1.7c-4.1,0.8-2.1-0.2-1.4-0.8c2.7-0.8,6.1-1.5,9.8-2.1
						c3.7-0.6,7.6-1.2,11.4-2c0,0-0.3,0.3,0,0.4l7.8-2c3.8-0.5,5.2,0,7.6,0.4c1.4-0.4,4.8-0.9,3.4-1.3c-0.8,0-1.5,0.1-2,0.2
						c3.8-1.8,2.9-0.1,7.8-1.6c-3.7,1.6,1.4,1.3,1.1,2.4c5.8-1.3,0.3-1.9,0.9-2.5c3.6-0.2,5.7-0.2,7.8-0.1c2.1,0.1,4.1,0.1,7.8-0.3
						c0.3-0.7-5.2,0.2-5.9-0.4c2.1-0.1,4.5-0.5,4.8-0.8l-4.5,0.1c7.6-0.2,14.8-0.9,23.1-2.5l-0.7-0.3l5.2-0.5l-1.7,1.4
						c2.8-0.6,5.9,0.1,7.3-1l-1,0l3.5-0.8l-3.5,1.6c4.5,0,10.4-3.1,17.6-3.6c1.7,1.4-12.4,1.9-13.1,4.1c2.4,0.1,6.5,0,7.9-0.7
						c-0.3-0.5-2.1-0.4-3.8-0.2c6.2-1.8,15.9-0.9,19.7-3.1l-4.8-0.3c5.5-0.7,9.3,1.2,11-0.2l-4.2,2.5c5.5-1.5,12.8-2,18-3.1
						c0-0.6-1.9-0.5-3.7-0.2c-1.9,0.2-3.7,0.7-3.5,0.5l2.4-1.1c8.3,0.1,2.4,0.6,12.4,0.6l0-0.8c3.4,1,12.2-2,8.9,0.4l-2.7-0.3l0.3,1
						c0,0,2.9-0.4,5.7-0.7c1.4-0.2,2.9-0.4,3.9-0.5c1.1-0.1,1.8-0.2,1.8-0.2c-1.1,0.8,4.5,0.3,3,1.3l4.2-1.1c2,1.3-7.7,2-8.1,3.1
						c0.2,0.6,2.2,0.5,3.1,0.3c-5,1.2-7.7-0.9-12.8-0.6l-2.5,1l0.1-1.2c-2.1,0.4-3.8,1.3-4.5,1.8c-2.6-0.7-5.2-0.4-8,0.1
						c-1.4,0.2-3,0.5-4.6,0.7c-1.6,0.3-3.4,0.5-5.3,0.5c6.2-1.2-4.1-0.8-3.1-1.2c-3.5,0.3-11.8,3.2-14.8,2c-2.1-0.4,4.1-1.2-0.7-1.1
						c-3.1,0.4-5.2,1.3-3.1,1.6c-6.9,1.1-15.1,1.7-22.7,2.6l1.7-1c-4.8-0.2-9.3,1.5-11.7,2.7c-0.7-0.2-1,0-0.4-0.5
						c-6.2-0.5-7.5,2.6-17.5,3.6c0.7,1.1,5.2,0.6,8.2-0.4l-0.6,1.4c8.6-1,18.1-2.6,25-4l-3.1,1.3c6.2,1.1,4.1-2.1,10-0.8
						c4.1-0.9-3.1-0.3,0-1.2c3,0-0.5,2.3,4.4,1.8c-9.2,1.3-19.1,2.5-29.1,3.9c-5,0.7-10,1.4-15,2c-5,0.8-9.9,1.5-14.7,2.3
						c-0.3,0.3,0.7,0.2,1.7,0.2c-1.6,0.7-6.2,1.3-12.2,2.2c-6,0.9-13.4,1.8-20.7,2.8c-7.2,1.1-14.3,2.2-19.6,3.3
						c-5.3,1.1-8.9,2.3-9.1,3.2c-1.1-0.3,1.9-1.5-2.1-0.6c-0.3,0.3-1.3,0.8-0.2,1.1c-2.7,0.1-5.5,0.5-8.4,1c-2.9,0.5-6,1.3-9.1,2.1
						c-3.1,0.8-6.3,1.6-9.4,2.3c-3.2,0.7-6.3,1.4-9.5,1.9c0.4,0.5-2.2,1.5-2.2,1.9c-2.3-0.1-5.1,0.6-7.9,1.4
						c-2.8,0.8-5.5,1.8-7.5,1.9l1.4,0.3c0,0-3.1,0.8-6.1,1.7c-3.1,0.8-6.1,1.7-6.1,1.7c-0.3,0.3,1.4-0.1,2.4-0.3
						c-2.6,1.1-3.4,0.5-3.8,0.1l-5,2.9c-2.1,0.3-4.2,0.7-6.3,1.2c-2.1,0.5-4.3,1.1-6.5,1.8c-2.2,0.7-4.4,1.4-6.6,2.2
						c-2.2,0.8-4.4,1.7-6.7,2.5c-2.2,0.9-4.5,1.7-6.8,2.6c-2.3,0.9-4.5,1.8-6.8,2.7c-4.6,1.7-9.1,3.4-13.7,4.7
						c-2.3,2-4.4,3.4-8.8,5.3l2.3-0.6c-4.2,2.7-0.5-0.4-4.2,1.5c-2.3,1.7-0.2,1.9,3.2-0.1c2.4-0.5,1.1,0.4-0.4,1.3
						c-3.5,1.3-7,2.8-10.4,4c-3.4,1.4-6.7,2.6-10,3.8c-3.3,1.2-6.4,2.4-9.5,3.5c-1.5,0.6-3.1,1.1-4.6,1.6
						C8.9,484.8,7.5,485.3,6.1,485.8z"/>
					<path fill="#FFFFFF" d="M573.7,411.9c-1.6-0.6,6.6,0,2.7-1.4c-6.3-1.5-14.7-2.3-23.4-2.9c-8.7-0.5-17.7-1-25.2-2.2
						c-4-1.1-5.1-1.1-8.7-1.8c-0.1,0.2-0.1,0.4,0.1,0.6c-4.1-0.2-10.8-0.1-15-0.8c-1.2,0.2-2.1,1,0.2,0.9c-6.3,0.6-10.8-2-14.4-1.4
						c3,0.7-3.1,0.7,0.6,1.3c-6.6-0.1-5.9-3.2-11.1-3.6c-0.3,0.2-0.6,0.5,0.4,0.6c-5.7-1.4-17.5,0.6-18.1-1.6l-2.3,0.9
						c-2.5-0.7-1.9-1.2-6-1.6c-2.7,0.3,0.1,0.8-0.9,1.1c-1.1-0.9-8.4-0.4-11.8-1.6c-0.2-1.4,5.9,1.8,9.2,0.5c0.1-0.3-0.4-0.4-1-0.4
						c4.3,0,8.4,0.4,12.3,0.9c3.9,0.4,7.6,1,11.2,1.4c3.6,0.5,7.1,0.9,10.6,1.2c3.5,0.2,7,0.5,10.5,0.3c3.1,1.1,5.5,0.2,6.9-0.7
						c-2.5-0.5-9.8-1.7-10.1,0.2l-4.4-1.4c-1.7,0-1.6-1.9-2.3-2.2c3.1,0.3,6.7-1.5,2.5-2.3c8.3,0-2.8,4,4.6,3.7l1.1-1.4
						c-1.4,0.7,4.9,1.5,7.3,1.1l-1-0.3c9.7,0.7,21.1,0.9,32.7,1.5c11.6,0.5,23.5,0.7,34.2,1.3c5,3.8,15.8-0.1,20.6,3.1
						c2.4-0.3-3.3-1.5,1.3-1.6c2.3,0,2.4,0.9,2.3,1.1c0.7,0,1.4-0.1,2.1-0.1C592.7,408.1,588.4,410.7,573.7,411.9z"/>
				</g>
			</g>
		</g>
	</g>
	<g>
		<g>
			<path fill="#FFFFFF" d="M208.1,544.2V492h11.2c2.4,0,4.6,0.3,6.5,0.8c1.9,0.5,3.6,1.3,5,2.3c1.4,1,2.5,2.4,3.3,4.1
				c0.8,1.7,1.1,3.7,1.1,5.9c0,3.3-0.7,5.7-2.1,7.4c-1.4,1.7-3.5,2.9-6.4,3.7c3.1,1,5.4,2.5,7,4.5c1.6,2,2.3,4.8,2.3,8.5
				c0,4.6-1.3,8.2-4,10.9c-2.7,2.7-6.3,4-10.9,4H208.1z M215.5,514.4h3.7c6.2,0,9.3-3.1,9.3-9.3c0-1-0.1-1.9-0.4-2.7
				c-0.3-0.8-0.6-1.4-0.9-2c-0.4-0.5-0.9-1-1.6-1.3c-0.7-0.4-1.4-0.6-1.9-0.8c-0.6-0.2-1.4-0.3-2.5-0.4c-1.1-0.1-2-0.1-2.7-0.2
				c-0.7,0-1.7,0-3.1,0V514.4z M215.5,538.7h3.7c3.2,0,5.6-0.7,7.1-2.2c1.5-1.5,2.2-3.8,2.2-7.1c0-3.2-0.7-5.6-2.2-7.1
				c-1.5-1.5-3.9-2.2-7.1-2.2h-3.7V538.7z"/>
			<path fill="#FFFFFF" d="M266.7,543.9c-1.7,0.6-3.7,0.9-6,0.9c-2.3,0-4.3-0.3-6-0.9c-1.7-0.6-3.2-1.4-4.3-2.5
				c-1.1-1.1-2-2.4-2.7-4.1c-0.7-1.6-1.2-3.4-1.5-5.3c-0.3-1.9-0.4-4-0.4-6.4V492h7.5v33.6c0,1.6,0,3,0.1,4c0.1,1.1,0.2,2.2,0.5,3.5
				c0.3,1.2,0.7,2.2,1.2,3c0.5,0.7,1.2,1.3,2.2,1.8c0.9,0.5,2.1,0.7,3.4,0.7c1.3,0,2.5-0.2,3.4-0.7c0.9-0.5,1.7-1.1,2.2-1.8
				c0.5-0.7,0.9-1.7,1.2-3c0.3-1.2,0.5-2.4,0.5-3.5c0.1-1.1,0.1-2.4,0.1-4V492h7.5v33.6c0,2.4-0.1,4.5-0.4,6.4
				c-0.3,1.9-0.8,3.7-1.5,5.3c-0.7,1.6-1.6,3-2.7,4.1C269.9,542.5,268.5,543.3,266.7,543.9z"/>
			<path fill="#FFFFFF" d="M287.5,544.2V492h9.3c5.6,0,9.7,1.1,12.6,3.2c2.8,2.2,4.2,5.7,4.2,10.8c0,3.1-0.6,5.7-1.7,7.8
				c-1.1,2.1-2.7,3.5-4.9,4.3l8.4,26.1H308l-7.5-24.2h-5.6v24.2H287.5z M294.9,514.4h1.9c3.1,0,5.4-0.7,7-2c1.6-1.3,2.3-3.5,2.3-6.4
				c0-3-0.8-5.1-2.3-6.4c-1.6-1.3-3.9-2-7-2h-1.9V514.4z"/>
			<path fill="#FFFFFF" d="M338.5,544.8c-2.4,0-4.5-0.3-6.2-1c-1.8-0.7-3.2-1.6-4.3-2.8c-1.1-1.2-2-2.7-2.7-4.5
				c-0.7-1.8-1.1-3.7-1.4-5.7c-0.3-2-0.4-4.3-0.4-6.9v-13.2c0-12.8,5.1-19.2,15.2-19.2c2.4,0,4.5,0.4,6.3,1.1
				c1.8,0.7,3.2,1.8,4.3,3.2c1.1,1.4,1.9,3,2.5,4.9c0.6,1.9,0.9,4,1,6.5c0,0.4,0,0.9,0,1.6h-7.5v-1.6c0-1.2-0.1-2.3-0.2-3.2
				c-0.1-0.9-0.3-1.8-0.6-2.6c-0.3-0.9-0.7-1.5-1.1-2.1c-0.5-0.5-1.1-1-1.9-1.3c-0.8-0.3-1.8-0.5-2.9-0.5c-1.5,0-2.8,0.3-3.8,0.8
				c-1,0.6-1.8,1.4-2.4,2.4c-0.6,1.1-0.9,2.2-1.2,3.5c-0.2,1.3-0.4,2.8-0.4,4.4v16.8c0,1.2,0,2.4,0.1,3.4c0.1,1,0.2,2,0.4,3.1
				c0.2,1,0.5,1.9,0.8,2.7c0.4,0.8,0.8,1.4,1.3,2.1c0.5,0.6,1.2,1.1,2,1.4c0.8,0.3,1.7,0.5,2.8,0.5c1.2,0,2.3-0.2,3.2-0.7
				c0.9-0.5,1.6-1.1,2.2-1.9c0.5-0.8,1-1.7,1.3-2.9c0.3-1.2,0.5-2.4,0.6-3.5c0.1-1.2,0.2-2.5,0.2-4v-1.9h-7.5v-5.5h14.9v26h-5.6
				l-1.9-5.6C344.5,542.7,342,544.8,338.5,544.8z"/>
		</g>
	</g>
	<polygon fill="#8FBFA0" points="150.6,382.2 120.5,280.9 145.4,280.9 163.6,349.9 181.7,280.9 204.5,280.9 174.4,382.2 
		174.4,432.4 150.6,432.4 	"/>
	<path fill="#D60E2D" d="M208.8,317.2c0-24.2,12.8-38.1,36.1-38.1c23.4,0,36.1,13.9,36.1,38.1V396c0,24.2-12.8,38.1-36.1,38.1
		c-23.4,0-36.1-13.9-36.1-38.1V317.2z M232.6,397.5c0,10.8,4.8,14.9,12.3,14.9c7.6,0,12.3-4.1,12.3-14.9v-81.8
		c0-10.8-4.8-14.9-12.3-14.9c-7.6,0-12.3,4.1-12.3,14.9V397.5z"/>
	<path fill="#F3A634" d="M319.2,280.9v116.9c0,10.8,4.8,14.7,12.3,14.7c7.6,0,12.3-3.9,12.3-14.7V280.9h22.5v115.4
		c0,24.2-12.1,38.1-35.5,38.1c-23.4,0-35.5-13.8-35.5-38.1V280.9H319.2z"/>
	<path fill="#6BB5D8" d="M432.4,432.4c-1.3-3.9-2.2-6.3-2.2-18.6V390c0-14.1-4.8-19.3-15.6-19.3h-8.2v61.7h-23.8V280.9h35.9
		c24.7,0,35.3,11.5,35.3,34.8v11.9c0,15.6-5,25.8-15.6,30.7c11.9,5,15.8,16.5,15.8,32.3V414c0,7.4,0.2,12.8,2.6,18.4H432.4z
		 M406.4,302.5V349h9.3c8.9,0,14.3-3.9,14.3-16v-14.9c0-10.8-3.7-15.6-12.1-15.6H406.4z"/>
</g>
</svg>
