<?xml version="1.0" encoding="utf-8"?>
<!-- Generator: Adobe Illustrator 18.1.1, SVG Export Plug-In . SVG Version: 6.00 Build 0)  -->
<!DOCTYPE svg PUBLIC "-//W3C//DTD SVG 1.1//EN" "http://www.w3.org/Graphics/SVG/1.1/DTD/svg11.dtd">
<svg version="1.1" id="Layer_1" xmlns="http://www.w3.org/2000/svg" xmlns:xlink="http://www.w3.org/1999/xlink" x="0px" y="0px"
	 viewBox="0 0 10.5 21.7" enable-background="new 0 0 10.5 21.7" xml:space="preserve">
<path fill="#FFFFFF" d="M6.4,4.8c0-1,1-1.4,1.6-1.4c0.6,0,1.9,0.2,1.9,0.2l0.5-3.2c0,0-0.3-0.3-3.2-0.4c-3.1-0.1-5,1.4-5,3.3
	c0,0.5,0,2,0,3.8H0v3.2h2.2c0,5.2,0,11.4,0,11.4h4.2c0,0,0-6.4,0-11.4h3.4L10,7.2H6.4C6.4,5.9,6.4,5,6.4,4.8z"/>
</svg>
