<?xml version="1.0" encoding="utf-8"?>
<!-- Generator: Adobe Illustrator 18.1.1, SVG Export Plug-In . SVG Version: 6.00 Build 0)  -->
<!DOCTYPE svg PUBLIC "-//W3C//DTD SVG 1.1//EN" "http://www.w3.org/Graphics/SVG/1.1/DTD/svg11.dtd">
<svg version="1.1" id="Layer_1" xmlns="http://www.w3.org/2000/svg" xmlns:xlink="http://www.w3.org/1999/xlink" x="0px" y="0px"
	 viewBox="0 0 196.3 82.2" enable-background="new 0 0 196.3 82.2" xml:space="preserve">
<g>
	<g>
		<g>
			<path fill="#CE0823" d="M5.3,81.8c-0.7-0.5-1.4-1.1-2-1.7c-0.6-0.6-1.2-1.1-1.7-1.7c-0.5-0.6-0.9-1.2-1.2-1.8
				C0.1,76,0,75.4,0,74.6c0-0.6,0.2-1.6,0.7-2.9c0.5-1.4,1.2-3,2-4.8c0.8-1.8,1.8-3.9,2.8-6c1.1-2.2,2.2-4.4,3.3-6.6
				c1.1-2.2,2.3-4.3,3.4-6.4c1.1-2.1,2.2-3.9,3.1-5.5c1-1.6,1.8-2.9,2.5-4c0.7-1,1.2-1.6,1.5-1.7c0.7-0.2,1.5-0.1,2.2,0.3
				c0.8,0.4,1.6,0.8,2.3,1.3c1.7-0.4,3.2-0.8,4.6-1.2c1.4-0.4,2.8-0.6,4.1-0.6c1.3,0.1,2.5,0.5,3.6,1.3s2.2,2.2,3.2,4.2
				c1,2,1.2,4.2,0.6,6.4c-0.6,2.2-1.8,4.4-3.5,6.4s-3.7,3.9-6.1,5.7c-2.4,1.7-4.8,3.1-7.2,4.1c0.9,0.8,1.8,1.7,2.7,2.6
				c0.9,0.9,1.7,1.8,2.5,2.7c0.7,0.9,1.3,1.7,1.8,2.5c0.5,0.8,0.7,1.4,0.7,1.9c0.1,1.5-0.2,2.9-0.9,4.1c-0.7,1.2-1.6,2.5-2.6,3.7
				c-0.7-1.2-1.8-2.5-3.1-4.1c-1.4-1.6-2.8-3.1-4.2-4.7c-1.5-1.5-2.9-3-4.2-4.3c-1.4-1.3-2.5-2.3-3.4-2.9c-0.6,0.9-1.2,2-2,3.4
				C9.8,71,9.1,72.5,8.4,74c-0.7,1.5-1.3,3-1.9,4.4C5.9,79.8,5.5,80.9,5.3,81.8z M15.8,59.3c0.8-0.2,1.8-0.6,3-1.2
				c1.2-0.5,2.5-1.1,3.8-1.8c1.3-0.7,2.6-1.5,3.9-2.3c1.3-0.9,2.4-1.7,3.3-2.6c0.9-0.9,1.6-1.8,1.9-2.7c0.4-0.9,0.4-1.8-0.1-2.7
				c-0.2-0.5-0.7-0.7-1.4-0.8c-0.7-0.1-1.4-0.1-2.2,0.1c-0.8,0.2-1.6,0.5-2.5,0.9c-0.8,0.4-1.5,0.9-2.1,1.4c-0.6,0.6-1.3,1.4-2,2.3
				c-0.7,0.9-1.4,1.9-2.1,2.9c-0.7,1.1-1.3,2.1-1.9,3.3C16.9,57.1,16.3,58.2,15.8,59.3z"/>
			<path fill="#CE0823" d="M37.1,74.6c-0.9-1.7-1.3-3.7-1.3-5.9c0-2.2,0.3-4.5,1-7c0.6-2.4,1.6-4.9,2.8-7.3c1.2-2.5,2.6-4.8,4.3-7
				c1.6-2.2,3.4-4.2,5.4-6c2-1.8,4-3.2,6.1-4.2c2.1-1,4.2-1.6,6.4-1.7c2.1-0.1,4.2,0.3,6.3,1.4c2.4,1.2,4.1,2.8,5.2,4.7
				s1.6,4,1.7,6.3c0.1,2.3-0.3,4.7-1.1,7.3c-0.8,2.5-1.9,5-3.2,7.5c-1.4,2.5-2.9,4.8-4.7,7c-1.8,2.2-3.6,4.2-5.4,5.9
				c-1.8,1.7-3.7,3.1-5.5,4.1c-1.8,1-3.5,1.5-4.9,1.5c-0.8,0-1.5-0.1-2.1-0.2c-0.6-0.1-1.2-0.3-1.7-0.5c-0.5-0.2-1-0.5-1.5-0.8
				c-0.5-0.3-1-0.6-1.6-0.9c-0.5-0.2-1-0.5-1.6-0.7c-0.6-0.2-1.1-0.5-1.7-0.8c-0.5-0.3-1.1-0.7-1.5-1.1
				C37.8,75.7,37.4,75.2,37.1,74.6z M45.8,72.6c0.5,0.5,1.5,0.4,2.8-0.2c1.3-0.6,2.7-1.5,4.3-2.7c1.5-1.2,3.1-2.6,4.5-4.2
				c1.5-1.6,2.7-3.2,3.7-4.7c0.9-1.4,1.8-3,2.6-4.6c0.9-1.7,1.6-3.3,2.1-4.9c0.5-1.6,0.6-3,0.5-4.3c-0.1-1.3-0.8-2.3-2.1-3.1
				c-1-0.6-2-0.6-3.3-0.2c-1.2,0.5-2.5,1.2-3.7,2.3c-1.3,1.1-2.5,2.4-3.7,3.9c-1.2,1.5-2.2,3-3.1,4.6c-0.9,1.6-1.7,3.4-2.5,5.3
				c-0.8,1.9-1.5,3.7-2,5.5c-0.5,1.7-0.8,3.3-0.9,4.7C44.9,71.2,45.2,72.1,45.8,72.6z"/>
			<path fill="#CE0823" d="M80.6,82.1c-0.9-0.3-1.7-0.8-2.6-1.4c-0.9-0.6-1.6-1.2-2.3-1.9c-0.7-0.7-1.3-1.4-1.7-2
				c-0.5-0.6-0.7-1.2-0.8-1.6c-0.2-1.2-0.1-3.1,0.3-5.4c0.4-2.4,1-5,1.7-7.8c0.7-2.8,1.6-5.7,2.5-8.7c1-2.9,1.9-5.6,2.8-8.1
				c0.9-2.5,1.8-4.5,2.5-6.1c0.8-1.6,1.3-2.4,1.7-2.5c0.4-0.1,0.9-0.1,1.7,0c0.8,0.1,1.6,0.4,2.4,0.7c0.8,0.3,1.6,0.8,2.3,1.3
				c0.7,0.5,1.2,1.1,1.4,1.7c0.1,0.3-0.2,1.4-0.9,3.1c-0.7,1.7-1.6,3.9-2.6,6.5c-1,2.6-2.1,5.4-3.1,8.5c-1.1,3.1-1.9,6.1-2.5,9
				c1.9-2.5,3.9-4.9,6.1-7.4c2.1-2.5,4.3-4.9,6.5-7.2c2.2-2.3,4.3-4.5,6.3-6.5c2-2,3.9-3.8,5.5-5.4c1.7-1.6,3.1-2.8,4.2-3.8
				c1.1-1,1.9-1.5,2.2-1.7c0.4-0.2,0.9,0,1.6,0.4c0.7,0.5,1.4,1.1,2.1,1.8c0.7,0.7,1.3,1.5,1.7,2.3c0.5,0.8,0.6,1.5,0.5,2
				c0,0.2-0.7,1-2.1,2.4c-1.4,1.4-3.1,3.1-5.3,5.2c-2.2,2.1-4.6,4.5-7.4,7.3c-2.7,2.7-5.6,5.5-8.5,8.4c-2.9,2.9-5.8,5.8-8.6,8.7
				C85.4,76.8,82.9,79.5,80.6,82.1z"/>
			<path fill="#CE0823" d="M111.8,81.7c-0.6-0.5-1.3-1.1-1.9-1.7c-0.7-0.6-1.3-1.1-1.8-1.7c-0.5-0.5-0.9-1-1.2-1.5
				c-0.3-0.5-0.4-0.9-0.3-1.3c0.5-2.2,1.2-4.6,2.3-7.4c1.1-2.8,2.4-5.6,3.8-8.5c1.5-2.9,3-5.8,4.6-8.6c1.6-2.8,3.2-5.3,4.6-7.6
				c1.5-2.2,2.7-4.1,3.8-5.5c1.1-1.4,1.8-2.2,2.2-2.4c0.4-0.2,1.1,0,2,0.4c0.9,0.4,1.8,1,2.6,1.6c0.8,0.6,1.5,1.3,2.1,2
				c0.6,0.7,0.7,1.2,0.5,1.6c-0.5,0.7-1.3,1.9-2.4,3.6c-1.1,1.6-2.3,3.6-3.7,5.8c-1.4,2.2-2.9,4.7-4.5,7.3c-1.6,2.6-3.1,5.3-4.7,8.1
				c-1.6,2.7-3,5.5-4.4,8.2C113.9,76.9,112.8,79.4,111.8,81.7z"/>
			<path fill="#CE0823" d="M129.9,81.8c-0.7-0.5-1.4-1.1-2-1.7c-0.6-0.6-1.2-1.1-1.7-1.7c-0.5-0.6-0.9-1.2-1.2-1.8
				c-0.3-0.6-0.4-1.3-0.4-2c0-0.6,0.2-1.6,0.7-2.9c0.5-1.4,1.2-3,2-4.8c0.8-1.8,1.8-3.9,2.8-6c1.1-2.2,2.2-4.4,3.3-6.6
				c1.1-2.2,2.3-4.3,3.4-6.4c1.1-2.1,2.2-3.9,3.1-5.5c1-1.6,1.8-2.9,2.5-4c0.7-1,1.2-1.6,1.5-1.7c0.7-0.2,1.5-0.1,2.2,0.3
				c0.8,0.4,1.6,0.8,2.3,1.3c1.7-0.4,3.2-0.8,4.6-1.2s2.8-0.6,4.1-0.6c1.3,0.1,2.5,0.5,3.6,1.3s2.2,2.2,3.2,4.2c1,2,1.2,4.2,0.6,6.4
				c-0.6,2.2-1.8,4.4-3.5,6.4s-3.7,3.9-6.1,5.7c-2.4,1.7-4.8,3.1-7.2,4.1c0.9,0.8,1.8,1.7,2.7,2.6c0.9,0.9,1.7,1.8,2.5,2.7
				c0.7,0.9,1.3,1.7,1.8,2.5c0.5,0.8,0.7,1.4,0.7,1.9c0.1,1.5-0.2,2.9-0.9,4.1c-0.7,1.2-1.6,2.5-2.6,3.7c-0.7-1.2-1.8-2.5-3.1-4.1
				c-1.4-1.6-2.8-3.1-4.2-4.7c-1.5-1.5-2.9-3-4.2-4.3c-1.4-1.3-2.5-2.3-3.4-2.9c-0.6,0.9-1.2,2-2,3.4c-0.7,1.4-1.5,2.9-2.2,4.4
				c-0.7,1.5-1.3,3-1.9,4.4C130.5,79.8,130.2,80.9,129.9,81.8z M140.5,59.3c0.8-0.2,1.8-0.6,3-1.2c1.2-0.5,2.5-1.1,3.8-1.8
				c1.3-0.7,2.6-1.5,3.9-2.3c1.3-0.9,2.4-1.7,3.3-2.6c0.9-0.9,1.6-1.8,1.9-2.7s0.4-1.8-0.1-2.7c-0.2-0.5-0.7-0.7-1.4-0.8
				c-0.7-0.1-1.4-0.1-2.2,0.1c-0.8,0.2-1.6,0.5-2.5,0.9c-0.8,0.4-1.5,0.9-2.1,1.4c-0.6,0.6-1.3,1.4-2,2.3c-0.7,0.9-1.4,1.9-2.1,2.9
				c-0.7,1.1-1.3,2.1-1.9,3.3C141.5,57.1,141,58.2,140.5,59.3z"/>
			<path fill="#CE0823" d="M157.1,73.3c0.2-1.1,0.6-2.4,1.4-4s1.7-3.3,2.8-5.2c1.1-1.9,2.4-3.9,3.9-6c1.5-2.1,2.9-4.1,4.5-6.1
				c1.5-2,3.1-4,4.6-5.8s3-3.5,4.3-5c1.3-1.5,2.5-2.6,3.5-3.6c1-0.9,1.8-1.5,2.3-1.7c0.3-0.1,0.9,0.1,1.7,0.7c0.9,0.6,1.8,1.3,3,2.1
				c1.1,0.8,2.3,1.6,3.6,2.4c1.2,0.8,2.5,1.4,3.6,1.7c-0.7,1.8-1.3,3.4-1.8,5c-0.5,1.5-1,3.1-1.5,4.5c-0.5,1.5-0.9,3-1.3,4.6
				c-0.4,1.6-0.8,3.3-1.2,5.2c-0.4,1.7-0.7,3.4-1,5c-0.2,1.6-0.5,3.1-0.7,4.6c-0.2,1.5-0.4,3.1-0.7,4.6c-0.2,1.6-0.5,3.3-0.7,5
				c-1.6-0.2-2.8-0.8-3.7-1.8c-0.9-1-1.7-2.2-2.4-3.6c-0.2-0.5-0.4-1-0.4-1.5c0-0.5,0-0.9,0-1.4c0.1-0.5,0.1-0.9,0.2-1.5
				c0.1-0.5,0.1-1.1,0-1.7c-2.2,0.2-4.2,0.5-6.1,0.7c-0.8,0.1-1.6,0.2-2.4,0.3c-0.8,0.1-1.5,0.2-2.2,0.3c-0.7,0.1-1.3,0.2-1.8,0.2
				c-0.5,0.1-0.9,0.1-1.1,0.2c-0.6,0.5-1.2,1.2-2,2.3c-0.7,1.1-1.5,2.2-2.2,3.4c-0.8,1.4-1.6,2.9-2.5,4.5c-1.1-1.2-2.1-2.5-2.9-3.9
				C157.2,76.3,156.9,74.9,157.1,73.3z M186.2,46.2c-1.7,2.1-3.4,4.1-5.1,6.2c-1.4,1.7-2.9,3.6-4.4,5.6c-1.5,2-2.8,3.7-3.9,5.3
				c0.9-0.1,1.9-0.3,3-0.4c1.1-0.1,2-0.3,3-0.3c1.1-0.1,2.1-0.2,3.2-0.4L186.2,46.2z"/>
		</g>
	</g>
	<g>
		<g>
			<path fill="#B4B410" d="M11.9,30.8c-1,0.1-2,0.1-2.9-0.2C8,30.4,7.2,30,6.5,29.4c-0.7-0.6-1.3-1.3-1.8-2.2
				c-0.5-0.9-0.8-1.9-0.9-3.1c-0.1-0.9,0-2,0.2-3.3c0.2-1.3,0.6-2.8,1.2-4.3c0.6-1.5,1.3-3.1,2.2-4.7c0.9-1.6,2-3.1,3.3-4.4
				C12,6,13.5,4.8,15.1,3.8c1.6-1,3.4-1.6,5.4-1.9c0.9-0.1,1.7-0.1,2.7,0c0.9,0.1,1.8,0.4,2.5,0.8c0.8,0.4,1.4,0.9,1.9,1.5
				c0.5,0.6,0.8,1.3,0.8,2c0,0.4-0.1,1-0.3,1.8c-0.2,0.8-0.4,1.5-0.7,2.3c-0.3,0.8-0.6,1.5-1,2.1c-0.4,0.6-0.7,1-1,1.1
				c-0.6,0.2-1.3,0.2-2.1-0.1c-0.8-0.3-1.7-0.8-2.8-1.4c0.3-0.4,0.6-0.8,0.9-1.3c0.3-0.5,0.7-0.9,0.9-1.4c0.3-0.4,0.5-0.8,0.6-1.2
				c0.1-0.4,0.1-0.6,0-0.7c-0.6-0.5-1.2-0.6-2-0.4c-0.8,0.2-1.5,0.6-2.4,1.3C17.7,9,16.9,9.8,16,10.8c-0.9,1-1.7,2.1-2.4,3.3
				c-0.8,1.2-1.5,2.4-2.1,3.6c-0.6,1.2-1.1,2.4-1.5,3.5c-0.4,1.1-0.6,2.1-0.7,3c-0.1,0.9,0.1,1.5,0.4,2c0.2,0.2,0.5,0.2,1.1-0.1
				c0.6-0.3,1.2-0.6,2-1.2c0.7-0.5,1.5-1.1,2.2-1.8c0.8-0.7,1.4-1.4,1.9-2.1c-0.2,0-0.5,0.1-0.9,0.2c-0.4,0.1-0.7,0.2-1,0.3
				c-0.3,0.1-0.7,0.2-0.9,0.3c-0.3,0.1-0.4,0.1-0.5,0.2c0-0.3-0.1-0.7-0.2-1.2c-0.1-0.5-0.1-0.9-0.2-1.4c0-0.5,0-0.9,0-1.3
				c0-0.4,0.1-0.7,0.3-0.9c0.1-0.1,0.4-0.3,0.8-0.4c0.4-0.1,0.9-0.3,1.4-0.4c0.6-0.1,1.1-0.2,1.8-0.3c0.6-0.1,1.2-0.2,1.8-0.3
				c0.6-0.1,1.1-0.1,1.5-0.1c0.4,0,0.8,0,1,0c0.1,0,0.3,0.2,0.5,0.6c0.2,0.4,0.5,0.8,0.7,1.3c0.2,0.5,0.4,1,0.5,1.5
				c0.1,0.5,0.2,0.9,0.1,1.1c0,0.2-0.2,0.6-0.6,1.2c-0.4,0.6-0.8,1.3-1.4,2c-0.6,0.8-1.2,1.5-2,2.3c-0.8,0.8-1.6,1.6-2.4,2.3
				c-0.9,0.7-1.7,1.3-2.7,1.8C13.7,30.4,12.8,30.7,11.9,30.8z"/>
			<path fill="#B4B410" d="M27.9,31.4c-0.4-0.4-0.8-0.7-1.3-1.1s-0.8-0.7-1.2-1.1c-0.3-0.3-0.6-0.7-0.8-1c-0.2-0.3-0.3-0.6-0.2-0.8
				c0.2-1.1,0.6-2.2,1-3.5c0.5-1.3,1-2.6,1.7-4c0.6-1.4,1.3-2.8,2.1-4.2c0.8-1.4,1.5-2.8,2.3-4.2c0.8-1.3,1.5-2.6,2.3-3.8
				s1.4-2.2,2-3.1c0.6-0.9,1.2-1.6,1.6-2.2c0.5-0.6,0.8-0.9,1-1c0.2-0.1,0.4,0,0.8,0.1c0.3,0.1,0.7,0.3,1,0.5
				c0.4,0.2,0.8,0.5,1.1,0.8c0.4,0.3,0.7,0.6,1,0.9c0.3,0.3,0.5,0.6,0.6,0.8c0.1,0.3,0.2,0.5,0,0.6c-0.3,0.5-0.8,1.3-1.5,2.3
				s-1.5,2.3-2.4,3.8s-1.9,3-2.9,4.7c-1,1.7-2.1,3.5-3.1,5.3c-1,1.8-2,3.6-2.9,5.3S28.5,29.9,27.9,31.4z"/>
			<path fill="#B4B410" d="M53.6,13.1c0.6-0.6,1.1-1.3,1.6-1.9c0.5-0.6,0.9-1.2,1.2-1.7c0.3-0.5,0.4-1,0.4-1.5
				c0-0.5-0.2-0.9-0.6-1.3c-0.3-0.3-0.7-0.3-1.2-0.2c-0.5,0.1-1.1,0.4-1.7,0.7c-0.6,0.4-1.1,0.8-1.7,1.3C51,9,50.6,9.5,50.3,10
				c-0.3,0.5-0.6,1-0.7,1.5c-0.2,0.5-0.3,1.1-0.2,1.6c0,0.6,0.2,1.1,0.5,1.7c0.3,0.6,0.7,1.2,1.3,1.8c0.4,0.4,0.8,0.7,1.3,1
				c0.5,0.3,1,0.6,1.5,0.9c0.5,0.3,1,0.7,1.4,1.1c0.4,0.4,0.8,0.9,1.1,1.5c0.3,0.6,0.4,1.2,0.5,2c0,0.8-0.1,1.7-0.4,2.7
				c-0.3,1.1-0.9,2.1-1.7,2.8c-0.8,0.8-1.8,1.4-2.9,1.8c-1.1,0.4-2.4,0.6-3.7,0.6c-1.4,0-2.7-0.1-4.1-0.5c-1.4-0.4-2.6-0.9-3.5-1.5
				c-0.9-0.6-1.7-1.3-2.2-2c-0.6-0.7-0.9-1.3-1.2-1.9c-0.2-0.6-0.3-1-0.3-1.3c0-0.3,0.2-0.5,0.4-0.9c0.3-0.3,0.6-0.7,1-1
				c0.4-0.4,0.8-0.7,1.2-1.1s0.8-0.7,1.1-1c0.2,0.9,0.5,1.7,1.1,2.4c0.5,0.7,1.1,1.3,1.8,1.8c0.7,0.5,1.4,0.9,2.2,1.2
				c0.8,0.3,1.5,0.4,2.2,0.5c0.7,0,1.3,0,1.8-0.2c0.5-0.2,0.9-0.5,1.1-1c0.2-0.5,0.3-1,0.1-1.4c-0.2-0.4-0.4-0.7-0.8-1
				c-0.4-0.3-0.9-0.6-1.5-0.9c-0.6-0.3-1.1-0.6-1.7-1c-0.6-0.4-1.1-0.8-1.6-1.2c-0.5-0.5-0.9-1-1.2-1.7c-0.6-1.6-0.9-3.2-0.7-4.8
				c0.2-1.6,0.6-3.1,1.4-4.5c0.7-1.4,1.7-2.6,2.9-3.7c1.2-1.1,2.4-2,3.8-2.6c1.3-0.6,2.7-1,4.1-1c1.4,0,2.6,0.3,3.7,1
				c1.2,0.8,2,1.6,2.5,2.6c0.5,0.9,0.7,1.9,0.7,2.9c0,1-0.2,2-0.5,2.9c-0.4,1-0.8,1.8-1.2,2.6c-0.5,0.8-0.9,1.4-1.4,1.9
				c-0.5,0.5-0.8,0.7-1,0.8c-0.5,0.1-1,0.1-1.4,0c-0.4-0.1-0.7-0.3-1.1-0.5c-0.3-0.2-0.7-0.5-1-0.8C54.5,13.8,54.1,13.4,53.6,13.1z"
				/>
			<path fill="#B4B410" d="M75.4,2c0.6,0,1.3-0.1,1.9-0.2c0.6-0.1,1.2-0.2,1.8-0.3c0.6-0.1,1.1-0.1,1.6-0.1c0.5,0,0.9,0,1.2,0.1
				c1.3,0.5,2.3,1.2,2.8,2.3c0.6,1,0.8,2.2,0.8,3.6c-0.3-0.1-0.5-0.1-0.7-0.2c-0.2,0-0.4-0.1-0.7-0.1c-0.9-0.1-1.7-0.1-2.5,0
				c-0.8,0.1-1.5,0.2-2.3,0.3c-0.7,0.2-1.4,0.3-2,0.5c-0.6,0.2-1.2,0.3-1.8,0.4l-3.8,5.6c0.6-0.2,1.2-0.3,1.8-0.5
				c0.6-0.2,1.2-0.3,1.7-0.4c0.5-0.1,1-0.1,1.5-0.1c0.5,0,0.9,0.1,1.2,0.3c0.7,0.4,1.3,1,1.8,1.8c0.5,0.8,0.7,1.7,0.6,2.8
				c-0.2-0.2-0.4-0.2-0.6-0.2c-0.2,0-0.5,0-0.7,0c-0.6,0.1-1.5,0.2-2.4,0.4c-1,0.2-1.9,0.4-2.9,0.7s-1.9,0.5-2.7,0.8
				c-0.8,0.3-1.4,0.5-1.7,0.6c-0.5,0.2-0.9,0.5-1.3,0.9c-0.3,0.4-0.6,0.8-0.9,1.3c-0.3,0.5-0.5,1-0.8,1.5c-0.2,0.6-0.5,1.1-0.8,1.7
				c0.6-0.3,1.3-0.5,2-0.8c0.7-0.3,1.3-0.5,1.9-0.7c0.6-0.2,1.2-0.4,1.7-0.5c0.5-0.1,1-0.1,1.4-0.1c0.3,0,0.6,0.2,1,0.5
				c0.4,0.3,0.7,0.7,1,1.1c0.3,0.4,0.6,0.9,0.8,1.5c0.2,0.5,0.3,1.1,0.4,1.6c-0.2-0.1-0.4-0.2-0.6-0.3c-0.2,0-0.4-0.1-0.8-0.1
				c-0.2,0-0.5,0.1-1,0.3c-0.5,0.2-1,0.4-1.7,0.6c-0.7,0.3-1.4,0.5-2.1,0.8c-0.8,0.3-1.5,0.5-2.2,0.8c-0.7,0.2-1.4,0.4-2,0.5
				c-0.6,0.1-1,0.2-1.4,0.1c-1-0.2-1.7-0.5-2.3-1c-0.6-0.5-1.1-1.1-1.5-1.9c-0.3-0.7-0.5-1.3-0.6-1.9c-0.1-0.6,0-1.3,0.2-1.9
				c0.3-1,0.8-2.2,1.5-3.7c0.7-1.4,1.5-2.9,2.4-4.5c0.9-1.6,1.8-3.2,2.8-4.7c1-1.6,1.9-3.1,2.8-4.4c0.9-1.4,1.7-2.6,2.3-3.6
				c0.7-1,1.2-1.7,1.5-2.2c0.2,0,0.3,0,0.5,0.1c0.2,0.1,0.4,0.2,0.6,0.4c0.2,0.1,0.4,0.3,0.6,0.4C75,1.9,75.2,2,75.4,2z"/>
			<path fill="#B4B410" d="M96.7,27.3c-0.2-0.1-0.3-0.1-0.5-0.2C96.2,27.1,96,27,95.9,27c-0.1,0-0.3-0.1-0.5-0.1c-0.2,0-0.4,0-0.6,0
				c-0.4,0.1-0.9,0.2-1.5,0.4c-0.6,0.2-1.3,0.5-2.1,0.7c-0.8,0.3-1.6,0.5-2.4,0.8c-0.8,0.3-1.6,0.5-2.3,0.8c-0.7,0.2-1.4,0.4-2,0.5
				c-0.6,0.1-1,0.1-1.3,0c-0.4-0.1-0.8-0.4-1.2-0.9c-0.4-0.5-0.8-1-1.1-1.6c-0.3-0.6-0.6-1.3-0.8-1.9c-0.2-0.7-0.4-1.3-0.5-1.9
				c-0.1-0.5,0-1.3,0.3-2.3c0.3-1,0.8-2.1,1.3-3.3c0.6-1.2,1.2-2.5,2-3.9c0.7-1.4,1.5-2.7,2.3-4.1c1.9-3.2,4-6.6,6.4-10.3
				c0.4-0.1,0.8,0,1.3,0.2c0.5,0.2,1,0.4,1.5,0.8c0.5,0.3,0.9,0.7,1.3,1.1c0.4,0.4,0.6,0.8,0.7,1.2c0.1,0.2-0.1,0.7-0.5,1.5
				c-0.4,0.8-0.9,1.7-1.6,2.9c-0.7,1.1-1.4,2.4-2.3,3.8c-0.9,1.4-1.7,2.8-2.6,4.3s-1.7,2.9-2.4,4.3c-0.8,1.4-1.4,2.7-1.9,3.9
				c0.8-0.3,1.6-0.5,2.4-0.7c0.8-0.2,1.6-0.4,2.3-0.6c0.7-0.2,1.4-0.3,1.9-0.3c0.6,0,1,0,1.3,0.1c0.4,0.1,0.7,0.4,1.1,0.7
				c0.4,0.3,0.7,0.7,1,1.1c0.3,0.4,0.6,0.9,0.8,1.4C96.5,26.2,96.7,26.8,96.7,27.3z"/>
			<path fill="#B4B410" d="M96.5,25.9c0.1-0.7,0.4-1.6,0.9-2.6c0.5-1,1.1-2.2,1.9-3.4c0.8-1.2,1.6-2.5,2.6-3.9
				c0.9-1.3,1.9-2.7,2.9-4c1-1.3,2-2.6,3-3.8c1-1.2,2-2.3,2.8-3.2c0.9-0.9,1.6-1.7,2.3-2.3c0.7-0.6,1.2-1,1.5-1.1
				c0.2-0.1,0.6,0.1,1.1,0.5s1.2,0.8,1.9,1.4s1.5,1.1,2.3,1.6c0.8,0.5,1.6,0.9,2.4,1.1c-0.4,1.2-0.8,2.3-1.2,3.3c-0.3,1-0.7,2-0.9,3
				c-0.3,1-0.6,2-0.8,3c-0.3,1-0.5,2.1-0.8,3.3c-0.3,1.1-0.5,2.2-0.7,3.2c-0.2,1-0.3,2-0.5,3s-0.3,2-0.4,3c-0.1,1-0.3,2.1-0.5,3.3
				c-0.5-0.1-0.9-0.2-1.3-0.4c-0.4-0.2-0.7-0.5-1-0.8c-0.3-0.3-0.6-0.7-0.8-1.1c-0.3-0.4-0.5-0.8-0.7-1.3c-0.2-0.3-0.3-0.7-0.3-1
				c0-0.3,0-0.6,0-0.9c0-0.3,0.1-0.6,0.1-1c0-0.3,0-0.7,0-1.1c-1.5,0.2-2.8,0.3-4,0.4c-0.5,0.1-1,0.1-1.5,0.2
				c-0.5,0.1-1,0.1-1.4,0.2c-0.4,0.1-0.8,0.1-1.1,0.1c-0.3,0-0.6,0.1-0.7,0.1c-0.4,0.3-0.8,0.8-1.3,1.5c-0.5,0.7-1,1.5-1.4,2.2
				c-0.5,0.9-1.1,1.9-1.6,2.9c-0.4-0.4-0.7-0.8-1-1.2c-0.3-0.4-0.6-0.9-0.8-1.3c-0.2-0.5-0.4-0.9-0.5-1.4
				C96.4,27,96.4,26.4,96.5,25.9z M115.4,8.3c-1.1,1.4-2.3,2.7-3.3,4c-0.5,0.6-0.9,1.2-1.4,1.8c-0.5,0.6-1,1.2-1.5,1.8
				c-0.5,0.6-0.9,1.2-1.4,1.8c-0.4,0.6-0.8,1.1-1.1,1.6c0.6-0.1,1.2-0.2,1.9-0.3c0.7-0.1,1.3-0.2,1.9-0.2c0.7-0.1,1.4-0.2,2.1-0.2
				L115.4,8.3z"/>
		</g>
	</g>
</g>
</svg>
