<?xml version="1.0" encoding="utf-8"?>
<!-- Generator: Adobe Illustrator 18.1.1, SVG Export Plug-In . SVG Version: 6.00 Build 0)  -->
<!DOCTYPE svg PUBLIC "-//W3C//DTD SVG 1.1//EN" "http://www.w3.org/Graphics/SVG/1.1/DTD/svg11.dtd">
<svg version="1.1" id="Layer_1" xmlns="http://www.w3.org/2000/svg" xmlns:xlink="http://www.w3.org/1999/xlink" x="0px" y="0px"
	 viewBox="0 0 21 20.9" enable-background="new 0 0 21 20.9" xml:space="preserve">
<g>
	<path fill="#FFFFFF" d="M10.6,15.9c-2.9,0-5.3-2.4-5.3-5.3c0-0.7,0.1-1.4,0.4-2L0,8.5v8c0,2.4,2,4.4,4.4,4.4h12.3
		c2.4,0,4.4-2,4.4-4.4v-8l-5.5,0c0.3,0.6,0.4,1.3,0.4,2C15.9,13.5,13.5,15.9,10.6,15.9z"/>
	<path fill="#FFFFFF" d="M10.6,13.1c-1.4,0-2.5-1.1-2.5-2.5C8,9.2,9.2,8,10.6,8c1.4,0,2.5,1.1,2.5,2.5C13.1,11.9,12,13.1,10.6,13.1z
		"/>
	<path fill="#FFFFFF" d="M16.7,0H4.4C2,0,0,2,0,4.4v2.4h6.8c1-1,2.3-1.6,3.8-1.6c1.5,0,2.8,0.6,3.8,1.6H21V4.4C21,2,19.1,0,16.7,0z
		 M18.9,4.9c0,0.1-0.1,0.2-0.2,0.2h-3c-0.1,0-0.2-0.1-0.2-0.2V2c0-0.1,0.1-0.2,0.2-0.2h3c0.1,0,0.2,0.1,0.2,0.2V4.9z"/>
</g>
</svg>
