<?xml version="1.0" encoding="utf-8"?>
<!-- Generator: Adobe Illustrator 18.1.1, SVG Export Plug-In . SVG Version: 6.00 Build 0)  -->
<!DOCTYPE svg PUBLIC "-//W3C//DTD SVG 1.1//EN" "http://www.w3.org/Graphics/SVG/1.1/DTD/svg11.dtd">
<svg version="1.1" id="Layer_1" xmlns="http://www.w3.org/2000/svg" xmlns:xlink="http://www.w3.org/1999/xlink" x="0px" y="0px"
	 viewBox="0 0 156.7 128.5" enable-background="new 0 0 156.7 128.5" xml:space="preserve">
<g>
	<path fill="#B4B410" d="M70.2,2.2v19.3H75v2.5h-7.8V2.2H70.2z"/>
	<path fill="#B4B410" d="M83.4,2.2l4.7,21.9h-2.9l-0.8-4.3H80l-0.8,4.3h-2.8l4.8-21.9H83.4z M83.4,14.4l-1.1-7.9h-0.1l-1.7,11.1h3.5
		L83.4,14.4z"/>
	<path fill="#CE0823" d="M25.8,41.5c-1.5-0.7-3-1.4-4.7-1.4c-10.2,0-10.3,14.9-10.3,21.8c0,7.3,0.6,21,10.6,21c1.6,0,3-0.4,4.4-1.1
		v6.4c-1.8,1.2-3.7,1.5-5.8,1.5C5,89.9,3.1,74,3.1,62.5c0-11,1.4-29.2,16.4-29.2c2.5,0,4.2,0.4,6.4,1.6V41.5z"/>
	<path fill="#CE0823" d="M41.7,34v40.4c0,7.1,2.1,8.6,5.1,8.6c5,0,5.5-3.2,5.6-7.7V34h7.3v39.1c0,7.2,0.1,16.7-12.6,16.7
		C35.4,89.9,34.3,82,34.3,72V34H41.7z"/>
	<path fill="#CE0823" d="M78.7,89.1h-7.3V34h7.3V89.1z"/>
	<path fill="#CE0823" d="M96.8,50.4l1.1,18.5v20.2h-7.3V34h7l12.9,41.9l0.1-0.1l-1.8-22.1V34h7.3v55.1h-6.8L96.5,46.7l-0.1,0.1
		L96.8,50.4z"/>
	<path fill="#CE0823" d="M141.6,34l11.8,55.1H146l-2-10.7h-11l-2,10.7h-7.2l12-55.1H141.6z M141.4,64.7l-2.8-20h-0.1l-4.4,28h8.8
		L141.4,64.7z"/>
</g>
<g>
	<g>
		<path fill="#FFFFFF" d="M28,122.2v-17.5h3.9c1.8,0,3.1,0.4,3.9,1.1s1.1,2,1.1,3.9v6.9c0,1.9-0.4,3.3-1.1,4.3s-2.1,1.4-3.9,1.4H28z
			 M30.5,120.3h1.4c0.4,0,0.8,0,1.1-0.1s0.5-0.2,0.7-0.4s0.3-0.4,0.4-0.6s0.2-0.5,0.2-0.8s0.1-0.7,0.1-0.9s0-0.6,0-1.1
			c0-0.2,0-0.3,0-0.4v-5.6c0-0.3,0-0.6,0-0.8s0-0.4,0-0.7s0-0.5-0.1-0.6s-0.1-0.3-0.1-0.5s-0.1-0.3-0.2-0.4s-0.2-0.2-0.3-0.3
			s-0.3-0.2-0.4-0.3s-0.4-0.1-0.6-0.1s-0.5-0.1-0.7-0.1h-1.3V120.3z"/>
		<path fill="#FFFFFF" d="M40.7,122.2v-17.5h6.9v1.9h-4.4v5.6h3.1v1.9h-3.1v6.2h4.4v1.9H40.7z"/>
		<path fill="#FFFFFF" d="M50.7,122.2v-17.5h2.5v15.6h4.4v1.9H50.7z"/>
		<path fill="#FFFFFF" d="M68.5,122.2v-5.6l-3.8-11.9h2.5l2.5,8.8l2.5-8.8h2.5L71,116.5v5.6H68.5z"/>
		<path fill="#FFFFFF" d="M81.8,122.3c-0.9,0-1.6-0.1-2.3-0.4s-1.1-0.7-1.5-1.2s-0.6-1.1-0.8-1.8s-0.3-1.5-0.3-2.4v-6.3
			c0-0.9,0.1-1.7,0.3-2.4s0.4-1.3,0.8-1.8s0.9-0.9,1.5-1.1s1.4-0.4,2.3-0.4c1.7,0,2.9,0.5,3.7,1.5s1.1,2.4,1.1,4.2v6.3
			c0,0.9-0.1,1.7-0.3,2.4s-0.4,1.3-0.8,1.8s-0.9,0.9-1.5,1.2S82.7,122.3,81.8,122.3z M80,119.5c0.3,0.5,0.9,0.8,1.8,0.8
			s1.5-0.3,1.8-0.8s0.5-1.3,0.5-2.3v-7.6c0-1-0.2-1.8-0.5-2.3s-0.9-0.8-1.8-0.8s-1.5,0.3-1.8,0.8s-0.5,1.3-0.5,2.3v7.6
			C79.5,118.2,79.7,119,80,119.5z"/>
		<path fill="#FFFFFF" d="M97.3,122.1c-0.6,0.2-1.2,0.3-2,0.3s-1.4-0.1-2-0.3s-1.1-0.5-1.4-0.8s-0.7-0.8-0.9-1.4s-0.4-1.1-0.5-1.8
			s-0.1-1.4-0.1-2.2v-11.2h2.5v11.2c0,0.5,0,1,0,1.4s0.1,0.8,0.2,1.2s0.2,0.7,0.4,1s0.4,0.5,0.7,0.6s0.7,0.2,1.1,0.2
			s0.8-0.1,1.1-0.2s0.6-0.4,0.7-0.6s0.3-0.6,0.4-1s0.2-0.8,0.2-1.2s0-0.8,0-1.4v-11.2h2.5v11.2c0,0.8,0,1.5-0.1,2.2
			s-0.3,1.2-0.5,1.8s-0.5,1-0.9,1.4S97.9,121.9,97.3,122.1z"/>
		<path fill="#FFFFFF" d="M104.2,122.2v-17.5h3.1c1.9,0,3.3,0.4,4.2,1.1s1.4,1.9,1.4,3.6c0,1-0.2,1.9-0.6,2.6s-0.9,1.2-1.6,1.4
			l2.8,8.8h-2.5l-2.5-8.1h-1.9v8.1H104.2z M106.7,112.2h0.6c1,0,1.8-0.2,2.3-0.7s0.8-1.2,0.8-2.2s-0.3-1.7-0.8-2.2s-1.3-0.7-2.3-0.7
			h-0.6V112.2z"/>
		<path fill="#FFFFFF" d="M121.2,122.3c-1.6,0-2.8-0.5-3.6-1.4s-1.3-2.2-1.4-3.8l2.5-0.6c0.1,2.5,1,3.8,2.5,3.8
			c1.2,0,1.9-0.6,1.9-1.9c0-0.4-0.1-0.7-0.2-1s-0.3-0.6-0.5-0.9s-0.4-0.5-0.6-0.6s-0.4-0.4-0.7-0.6l-3.1-2.5c-0.6-0.4-1-1-1.4-1.7
			s-0.5-1.5-0.5-2.4c0-1.3,0.4-2.3,1.2-3.1s1.9-1.1,3.2-1.1c1.4,0,2.5,0.3,3.4,1s1.4,1.7,1.5,2.9c0,0.1,0,0.3,0.1,0.6l-2.5,0.6
			c0-0.1,0-0.3,0-0.5c-0.1-0.8-0.4-1.4-0.7-1.9s-1-0.7-1.7-0.7c-0.6,0-1.1,0.2-1.4,0.5s-0.5,0.8-0.5,1.4c0,1,0.4,1.8,1.2,2.5
			l3.1,2.5c1.7,1.3,2.5,3,2.5,4.8c0,1.3-0.4,2.3-1.2,3S122.6,122.3,121.2,122.3z"/>
	</g>
</g>
</svg>
