<?xml version="1.0" encoding="utf-8"?>
<!-- Generator: Adobe Illustrator 16.0.0, SVG Export Plug-In . SVG Version: 6.00 Build 0)  -->
<!DOCTYPE svg PUBLIC "-//W3C//DTD SVG 1.1//EN" "http://www.w3.org/Graphics/SVG/1.1/DTD/svg11.dtd">
<svg version="1.1" id="Layer_1" xmlns="http://www.w3.org/2000/svg" xmlns:xlink="http://www.w3.org/1999/xlink" x="0px" y="0px"
	 width="841.889px" height="595.281px" viewBox="0 0 841.889 595.281" enable-background="new 0 0 841.889 595.281"
	 xml:space="preserve">
<g enable-background="new    ">
	<path fill="#B1B22F" d="M331.342,25.844h42.881v11.527h-14.758v86.269h-12.921V37.372h-15.202V25.844z"/>
	<path fill="#B1B22F" d="M386.436,25.844h13.174v38.257h19.319V25.844h13.174v97.796h-13.174V75.249H399.61v48.392h-13.174V25.844z"
		/>
	<path fill="#B1B22F" d="M452.109,25.844h35.025v11.147h-21.852v30.973h19.382v11.148h-19.382v33.38h21.852v11.147h-35.025V25.844z"
		/>
</g>
<g enable-background="new    ">
	<path fill="#CE0823" d="M18.008,168.187H51.21v119.4l46.292-119.4h33.521l-48.526,119.4l52.357,127.062H97.501L51.21,287.588
		V414.65H18.008V168.187z"/>
	<path fill="#CE0823" d="M149.721,168.187h33.202V414.65h-33.202V168.187z"/>
	<path fill="#CE0823" d="M195.396,168.187h108.067v29.052H266.27V414.65h-32.563V197.239h-38.311V168.187z"/>
	<path fill="#CE0823" d="M412.669,172.177v29.851c-8.515-4.15-15.644-6.226-21.39-6.226c-7.877,0-14.633,1.943-20.273,5.826
		c-5.642,3.886-10.296,9.872-13.967,17.958c-3.671,8.089-6.385,18.332-8.141,30.729c-1.756,12.398-2.634,27.057-2.634,43.977
		c0,60.873,15.588,91.307,46.771,91.307c5.427,0,11.972-1.701,19.634-5.108v30.488c-7.981,4.47-16.92,6.705-26.817,6.705
		c-49.911,0-74.865-40.758-74.865-122.274c0-44.057,6.091-76.832,18.277-98.329c12.184-21.495,30.833-32.245,55.949-32.245
		C394.471,164.835,403.622,167.284,412.669,172.177z"/>
	<path fill="#CE0823" d="M434.719,168.187h33.203v96.414h48.686v-96.414h33.201V414.65h-33.201V292.696h-48.686V414.65h-33.203
		V168.187z"/>
	<path fill="#CE0823" d="M581.915,168.187h88.273v28.094h-55.07v78.058h48.845v28.095h-48.845v84.123h55.07v28.094h-88.273V168.187z
		"/>
	<path fill="#CE0823" d="M694.793,168.187h30.968l33.043,98.33c9.577,27.774,18.037,57.413,25.381,88.911
		c-2.662-19.048-4.63-36.287-5.906-51.719c-1.277-15.429-1.916-29.955-1.916-43.578v-91.944h33.202V414.65h-31.069l-37.126-110.94
		c-3.399-10.32-6.612-20.911-9.64-31.766c-3.028-10.854-5.816-22.24-8.365-34.16c-0.215-1.488-0.559-3.297-1.038-5.427
		c-0.479-2.128-1.035-4.574-1.673-7.343c0.318,2.769,0.583,5.135,0.798,7.104c0.212,1.97,0.371,3.646,0.479,5.027l1.756,25.062
		l1.891,30.489c0.115,1.703,0.199,3.778,0.257,6.225c0.058,2.45,0.088,5.216,0.088,8.301l1.756,107.429h-32.884V168.187z"/>
</g>
<g>
	<g enable-background="new    ">
		<path fill="#FFFFFF" d="M234.415,550.245c-3.931,0-7.302-0.597-10.112-1.791c-2.811-1.193-5.045-2.94-6.705-5.242
			c-1.66-2.3-2.869-5.001-3.626-8.103s-1.136-6.705-1.136-10.812v-28.394c0-4.106,0.378-7.688,1.136-10.746s1.966-5.715,3.626-7.972
			c1.66-2.257,3.895-3.953,6.705-5.089c2.81-1.136,6.181-1.704,10.112-1.704c7.629,0,13.134,2.185,16.512,6.553
			c3.378,4.368,5.067,10.688,5.067,18.958v28.394c0,4.048-0.386,7.623-1.157,10.724c-0.772,3.102-1.988,5.811-3.647,8.125
			c-1.66,2.315-3.896,4.078-6.706,5.286C241.674,549.64,238.318,550.245,234.415,550.245z M226.269,537.533
			c1.5,2.359,4.215,3.539,8.146,3.539c3.932,0,6.646-1.18,8.147-3.539c1.5-2.358,2.25-5.838,2.25-10.439v-33.985
			c0-4.543-0.743-7.935-2.228-10.178c-1.485-2.242-4.208-3.363-8.169-3.363s-6.683,1.121-8.168,3.363
			c-1.485,2.243-2.228,5.635-2.228,10.178v33.985C224.019,531.695,224.768,535.175,226.269,537.533z"/>
		<path fill="#FFFFFF" d="M272.758,549.459v-78.279h30.752v8.388h-19.57v25.161h13.979v8.387H283.94v36.344H272.758z"/>
		<path fill="#FFFFFF" d="M351.801,549.459v-25.161l-16.774-53.118h11.183l11.183,39.14l11.183-39.14h11.183l-16.774,53.118v25.161
			H351.801z"/>
		<path fill="#FFFFFF" d="M411.284,550.245c-3.931,0-7.302-0.597-10.112-1.791c-2.811-1.193-5.045-2.94-6.705-5.242
			c-1.66-2.3-2.869-5.001-3.626-8.103s-1.136-6.705-1.136-10.812v-28.394c0-4.106,0.378-7.688,1.136-10.746s1.966-5.715,3.626-7.972
			c1.66-2.257,3.895-3.953,6.705-5.089c2.81-1.136,6.181-1.704,10.112-1.704c7.629,0,13.134,2.185,16.512,6.553
			c3.379,4.368,5.067,10.688,5.067,18.958v28.394c0,4.048-0.386,7.623-1.157,10.724c-0.771,3.102-1.988,5.811-3.647,8.125
			c-1.66,2.315-3.896,4.078-6.706,5.286C418.543,549.64,415.187,550.245,411.284,550.245z M403.138,537.533
			c1.5,2.359,4.215,3.539,8.146,3.539c3.932,0,6.646-1.18,8.147-3.539c1.5-2.358,2.25-5.838,2.25-10.439v-33.985
			c0-4.543-0.743-7.935-2.228-10.178c-1.485-2.242-4.208-3.363-8.169-3.363s-6.683,1.121-8.168,3.363
			c-1.485,2.243-2.228,5.635-2.228,10.178v33.985C400.888,531.695,401.637,535.175,403.138,537.533z"/>
		<path fill="#FFFFFF" d="M480.379,548.934c-2.593,0.902-5.591,1.354-8.999,1.354c-3.406,0-6.406-0.452-8.998-1.354
			s-4.725-2.162-6.399-3.778s-3.036-3.647-4.085-6.094c-1.048-2.446-1.791-5.089-2.227-7.929c-0.438-2.839-0.656-6.05-0.656-9.632
			v-50.322h11.184v50.322c0,2.418,0.05,4.441,0.152,6.072c0.102,1.631,0.371,3.371,0.809,5.22c0.437,1.85,1.041,3.327,1.812,4.434
			c0.771,1.107,1.863,2.024,3.275,2.752c1.412,0.729,3.124,1.093,5.133,1.093c2.01,0,3.721-0.364,5.133-1.093
			c1.412-0.728,2.504-1.645,3.276-2.752c0.771-1.106,1.376-2.584,1.813-4.434c0.437-1.849,0.705-3.589,0.808-5.22
			c0.102-1.631,0.153-3.654,0.153-6.072v-50.322h11.182v50.322c0,3.582-0.218,6.793-0.654,9.632c-0.438,2.84-1.18,5.482-2.229,7.929
			c-1.048,2.446-2.41,4.478-4.084,6.094C485.104,546.772,482.971,548.032,480.379,548.934z"/>
		<path fill="#FFFFFF" d="M511.294,549.459v-78.279h13.979c8.328,0,14.604,1.616,18.828,4.85c4.222,3.232,6.334,8.604,6.334,16.118
			c0,4.66-0.83,8.562-2.49,11.707s-4.092,5.301-7.295,6.465l12.58,39.14h-11.096l-11.27-36.344h-8.387v36.344H511.294z
			 M522.478,504.728h2.795c4.659,0,8.154-0.983,10.484-2.949c2.329-1.966,3.494-5.176,3.494-9.632c0-4.455-1.165-7.666-3.494-9.632
			c-2.33-1.966-5.825-2.948-10.484-2.948h-2.795V504.728z"/>
		<path fill="#FFFFFF" d="M587.073,550.245c-7.049,0-12.428-2.067-16.141-6.203c-3.714-4.135-5.789-9.784-6.226-16.948l11.183-2.796
			c0.553,11.183,4.281,16.774,11.184,16.774c5.591,0,8.387-2.796,8.387-8.388c0-1.659-0.227-3.195-0.678-4.608
			c-0.451-1.412-1.143-2.708-2.074-3.888c-0.933-1.179-1.777-2.125-2.534-2.839s-1.79-1.595-3.101-2.643l-13.979-11.184
			c-2.563-2.009-4.609-4.564-6.138-7.666c-1.529-3.102-2.294-6.632-2.294-10.593c0-5.767,1.791-10.353,5.373-13.76
			s8.328-5.111,14.24-5.111c6.349,0,11.395,1.551,15.137,4.652s6.05,7.491,6.924,13.17c0.087,0.612,0.188,1.457,0.305,2.534
			l-11.182,2.796c-0.029-0.495-0.103-1.238-0.219-2.229c-0.496-3.553-1.609-6.399-3.342-8.54c-1.732-2.14-4.273-3.21-7.623-3.21
			c-2.68,0-4.746,0.75-6.202,2.249c-1.456,1.501-2.185,3.59-2.185,6.269c0,4.397,1.863,8.081,5.592,11.052l13.979,11.183
			c7.454,6.028,11.182,13.236,11.182,21.623c0,5.737-1.769,10.222-5.307,13.454C597.796,548.629,593.042,550.245,587.073,550.245z"
			/>
	</g>
</g>
</svg>
