<?xml version="1.0" encoding="utf-8"?>
<!-- Generator: Adobe Illustrator 16.0.0, SVG Export Plug-In . SVG Version: 6.00 Build 0)  -->
<!DOCTYPE svg PUBLIC "-//W3C//DTD SVG 1.1//EN" "http://www.w3.org/Graphics/SVG/1.1/DTD/svg11.dtd">
<svg version="1.1" id="Layer_1" xmlns="http://www.w3.org/2000/svg" xmlns:xlink="http://www.w3.org/1999/xlink" x="0px" y="0px"
	 width="841.889px" height="595.281px" viewBox="0 0 841.889 595.281" enable-background="new 0 0 841.889 595.281"
	 xml:space="preserve">
<path fill="#B4B410" d="M383.19,10.191v89.408h22.236v11.581h-36.134V10.191H383.19z"/>
<path fill="#B4B410" d="M444.339,10.191l21.771,101.453h-13.435l-3.706-19.92h-20.383l-3.706,19.92h-12.972l22.236-101.453H444.339z
	 M444.339,66.709l-5.097-36.598h-0.464l-7.875,51.422h16.214L444.339,66.709z"/>
<g>
	<g>
		<path fill="#FFFFFF" d="M187.697,566.095v-81.069h18.067c8.339,0,14.36,1.854,18.066,5.096c3.706,3.243,5.096,9.267,5.096,18.067
			v31.964c0,8.802-1.854,15.288-5.096,19.92c-3.242,4.633-9.729,6.485-18.066,6.485h-18.067V566.095z M199.279,557.295h6.485
			c1.854,0,3.706,0,5.096-0.464c1.391-0.464,2.316-0.927,3.243-1.854c0.926-0.927,1.391-1.854,1.854-2.779s0.927-2.315,0.927-3.706
			c0-1.39,0.463-3.242,0.463-4.169s0-2.78,0-5.096c0-0.927,0-1.391,0-1.854v-25.941c0-1.391,0-2.779,0-3.706
			c0-0.926,0-1.854,0-3.242s0-2.315-0.463-2.78c-0.464-0.463-0.464-1.39-0.464-2.314c0-0.927-0.463-1.391-0.926-1.854
			c-0.465-0.463-0.928-0.927-1.391-1.39c-0.464-0.463-1.391-0.927-1.854-1.39c-0.463-0.465-1.854-0.464-2.779-0.464
			s-2.316-0.464-3.243-0.464h-6.021v63.466h-0.927V557.295z"/>
		<path fill="#FFFFFF" d="M246.53,566.095v-81.069h31.966v8.802h-20.384v25.942h14.36v8.802h-14.36v28.723h20.384v8.802
			L246.53,566.095L246.53,566.095z"/>
		<path fill="#FFFFFF" d="M292.856,566.095v-81.069h11.581v72.269h20.383v8.802L292.856,566.095L292.856,566.095z"/>
		<path fill="#FFFFFF" d="M375.315,566.095v-25.942l-17.604-55.127h11.581l11.581,40.767l11.581-40.767h11.58l-17.14,54.664v25.942
			h-11.581L375.315,566.095L375.315,566.095z"/>
		<path fill="#FFFFFF" d="M436.927,566.558c-4.169,0-7.412-0.463-10.655-1.854c-3.242-1.39-5.096-3.242-6.948-5.559
			c-1.854-2.316-2.779-5.097-3.706-8.339c-0.927-3.243-1.39-6.949-1.39-11.118v-29.185c0-4.171,0.463-7.876,1.39-11.118
			c0.927-3.243,1.854-6.022,3.706-8.339c1.854-2.316,4.169-4.169,6.948-5.097c2.779-0.927,6.486-1.854,10.655-1.854
			c7.875,0,13.435,2.315,17.141,6.949c3.706,4.633,5.096,11.117,5.096,19.457v29.185c0,4.169-0.464,7.875-1.39,11.118
			c-0.927,3.242-1.854,6.021-3.706,8.338c-1.854,2.316-4.17,4.17-6.949,5.56C444.34,566.094,441.096,566.558,436.927,566.558z
			 M428.588,553.589c1.39,2.315,4.17,3.706,8.339,3.706s6.948-1.391,8.339-3.706c1.39-2.316,2.314-6.022,2.314-10.654v-35.208
			c0-4.632-0.926-8.338-2.314-10.654c-1.391-2.315-4.17-3.706-8.339-3.706s-6.949,1.391-8.339,3.706
			c-1.391,2.316-2.316,6.022-2.316,10.654v35.208C426.272,547.565,427.198,551.271,428.588,553.589z"/>
		<path fill="#FFFFFF" d="M508.731,565.634c-2.779,0.926-5.559,1.39-9.265,1.39s-6.485-0.464-9.266-1.39
			c-2.779-0.928-5.097-2.316-6.485-3.706c-1.39-1.391-3.242-3.706-4.169-6.485c-0.928-2.78-1.854-5.097-2.316-8.339
			c-0.463-3.243-0.463-6.485-0.463-10.191v-51.885h11.581v51.885c0,2.316,0,4.633,0,6.485c0,1.854,0.463,3.706,0.927,5.56
			c0.463,1.854,0.927,3.242,1.853,4.633c0.928,1.39,1.854,2.315,3.243,2.778c1.391,0.464,3.242,0.928,5.097,0.928
			c1.853,0,3.706-0.464,5.096-0.928c1.39-0.463,2.779-1.853,3.243-2.778c0.463-0.928,1.39-2.779,1.853-4.633s0.928-3.706,0.928-5.56
			s0-3.706,0-6.485v-51.885h11.58v51.885c0,3.706,0,6.948-0.463,10.191c-0.464,3.242-1.39,5.559-2.315,8.339
			c-0.927,2.779-2.316,4.632-4.169,6.485C513.364,563.779,511.511,564.706,508.731,565.634z"/>
		<path fill="#FFFFFF" d="M540.696,566.095v-81.069h14.361c8.801,0,15.287,1.854,19.456,5.096c4.169,3.243,6.484,8.803,6.484,16.679
			c0,4.632-0.926,8.802-2.778,12.044c-1.854,3.243-4.169,5.56-7.412,6.484l12.971,40.768h-11.581l-11.581-37.523h-8.802v37.523
			L540.696,566.095L540.696,566.095z M552.277,519.77h2.78c4.632,0,8.338-0.927,10.654-3.243c2.315-2.315,3.705-5.559,3.705-10.19
			c0-4.633-1.39-7.875-3.705-10.191c-2.316-2.316-6.022-3.242-10.654-3.242h-2.78V519.77z"/>
		<path fill="#FFFFFF" d="M619.448,566.558c-7.412,0-12.971-2.315-16.677-6.485c-3.706-4.169-6.022-10.19-6.486-17.604l11.582-2.779
			c0.463,11.581,4.633,17.604,11.581,17.604c5.561,0,8.802-2.779,8.802-8.803c0-1.854-0.463-3.242-0.927-4.633
			c-0.463-1.39-1.39-2.779-2.314-4.169c-0.928-1.39-1.854-2.315-2.78-2.779s-1.854-1.854-3.242-2.779l-14.361-11.581
			c-2.778-1.854-4.632-4.633-6.484-7.875c-1.854-3.243-2.316-6.949-2.316-11.118c0-6.022,1.854-10.655,5.561-14.361
			c3.706-3.705,8.802-5.096,14.822-5.096c6.486,0,11.582,1.391,15.751,4.633c4.169,3.243,6.485,7.875,6.949,13.435
			c0,0.464,0,1.391,0.463,2.779l-11.581,2.779c0-0.463,0-1.391,0-2.315c-0.464-3.707-1.854-6.485-3.243-8.803
			c-1.39-2.315-4.633-3.242-7.875-3.242c-2.778,0-5.096,0.927-6.484,2.316c-1.389,1.389-2.316,3.706-2.316,6.484
			c0,4.634,1.854,8.34,5.56,11.581l14.36,11.582c7.875,6.021,11.581,13.897,11.581,22.235c0,6.021-1.853,10.655-5.559,13.896
			C630.104,564.706,625.934,566.558,619.448,566.558z"/>
	</g>
</g>
<g enable-background="new    ">
	<path fill="#CE0823" d="M149.825,169.185v30.063c-8.307-4.18-15.26-6.27-20.866-6.27c-7.684,0-14.275,1.957-19.776,5.868
		c-5.503,3.914-10.044,9.943-13.625,18.086c-3.582,8.146-6.229,18.463-7.941,30.948c-1.713,12.487-2.569,27.25-2.569,44.291
		c0,61.307,15.207,91.958,45.625,91.958c5.294,0,11.679-1.713,19.153-5.145v30.707c-7.786,4.501-16.506,6.752-26.161,6.752
		c-48.689,0-73.032-41.049-73.032-123.147c0-44.372,5.942-77.381,17.83-99.032c11.886-21.648,30.078-32.475,54.579-32.475
		C132.073,161.789,141,164.256,149.825,169.185z"/>
	<path fill="#CE0823" d="M295.577,295.386c0,43.837-4.725,74.973-14.17,93.405c-9.448,18.436-25.28,27.652-47.494,27.652
		c-23.358,0-39.813-9.912-49.363-29.742c-9.448-19.397-14.17-53.856-14.17-103.373c0-44.155,4.672-75.399,14.015-93.727
		c9.445-18.433,25.434-27.652,47.961-27.652c20.139,0,35.088,7.129,44.847,21.382c6.436,9.541,11.107,23.098,14.015,40.674
		C294.123,240.299,295.577,264.093,295.577,295.386z M261.631,298.924c0-42.978-1.869-71.486-5.606-85.528
		c-3.737-14.147-11.368-21.221-22.891-21.221c-11.523,0-19.207,6.486-23.046,19.453c-3.737,13.077-5.606,39.335-5.606,78.776
		c0,36.333,1.971,61.521,5.917,75.561c4.048,13.29,11.625,19.935,22.735,19.935c10.9,0,18.375-6.215,22.423-18.648
		C259.607,354.926,261.631,332.149,261.631,298.924z"/>
	<path fill="#CE0823" d="M422.022,169.185v30.063c-8.307-4.18-15.261-6.27-20.867-6.27c-7.683,0-14.274,1.957-19.776,5.868
		c-5.503,3.914-10.044,9.943-13.625,18.086c-3.582,8.146-6.229,18.463-7.941,30.948c-1.713,12.487-2.569,27.25-2.569,44.291
		c0,61.307,15.207,91.958,45.625,91.958c5.295,0,11.68-1.713,19.154-5.145v30.707c-7.786,4.501-16.507,6.752-26.161,6.752
		c-48.689,0-73.032-41.049-73.032-123.147c0-44.372,5.942-77.381,17.83-99.032c11.886-21.648,30.078-32.475,54.579-32.475
		C404.27,161.789,413.197,164.256,422.022,169.185z"/>
	<path fill="#CE0823" d="M449.272,165.166h32.39v248.224h-32.39V165.166z"/>
	<path fill="#CE0823" d="M518.722,165.166h30.21l32.233,99.032c9.343,27.973,17.597,57.823,24.76,89.547
		c-2.597-19.184-4.517-36.547-5.762-52.089c-1.246-15.539-1.869-30.168-1.869-43.889v-92.602h32.39v248.224h-30.31l-36.216-111.733
		c-3.316-10.394-6.45-21.06-9.404-31.992s-5.674-22.399-8.161-34.404c-0.209-1.5-0.545-3.321-1.012-5.466
		c-0.467-2.143-1.01-4.607-1.633-7.395c0.312,2.788,0.569,5.172,0.778,7.154c0.207,1.984,0.363,3.673,0.468,5.064l1.713,25.24
		l1.844,30.707c0.112,1.715,0.195,3.806,0.251,6.27c0.056,2.467,0.085,5.252,0.085,8.359l1.713,108.196h-32.078V165.166z"/>
	<path fill="#CE0823" d="M706.675,165.166h25.226l51.543,248.224h-32.078l-9.031-48.391h-47.65l-9.187,48.391h-31.145
		L706.675,165.166z M737.662,339.115l-7.163-39.549c-4.775-26.9-8.669-55.625-11.679-86.17c-1.455,14.898-3.323,29.983-5.605,45.256
		c-2.285,15.272-4.983,31.485-8.098,48.631l-5.917,31.832H737.662z"/>
</g>
</svg>
