<?xml version="1.0" encoding="utf-8"?>
<!-- Generator: Adobe Illustrator 16.0.0, SVG Export Plug-In . SVG Version: 6.00 Build 0)  -->
<!DOCTYPE svg PUBLIC "-//W3C//DTD SVG 1.1//EN" "http://www.w3.org/Graphics/SVG/1.1/DTD/svg11.dtd">
<svg version="1.1" id="Layer_1" xmlns="http://www.w3.org/2000/svg" xmlns:xlink="http://www.w3.org/1999/xlink" x="0px" y="0px"
	 width="841.889px" height="595.281px" viewBox="0 0 841.889 595.281" enable-background="new 0 0 841.889 595.281"
	 xml:space="preserve">
<g enable-background="new    ">
	<path fill="#B1B22F" d="M370.431,17.812h13.174v86.648h21.536v11.147h-34.71V17.812z"/>
	<path fill="#B1B22F" d="M437.433,17.812h10.262l20.965,97.796h-13.048l-3.673-19.065h-19.383l-3.736,19.065h-12.668L437.433,17.812
		z M450.038,86.345l-2.914-15.582c-1.943-10.598-3.526-21.915-4.75-33.949c-0.592,5.869-1.353,11.812-2.281,17.83
		c-0.929,6.017-2.026,12.404-3.293,19.16l-2.407,12.541H450.038z"/>
</g>
<g enable-background="new    ">
	<path fill="#CE0823" d="M142.739,164.143v29.851c-8.515-4.15-15.644-6.226-21.39-6.226c-7.877,0-14.633,1.943-20.273,5.826
		c-5.642,3.886-10.296,9.872-13.967,17.958c-3.671,8.089-6.385,18.332-8.141,30.729c-1.756,12.398-2.634,27.057-2.634,43.977
		c0,60.873,15.588,91.307,46.771,91.307c5.427,0,11.972-1.701,19.634-5.108v30.488c-7.981,4.47-16.92,6.705-26.817,6.705
		c-49.911,0-74.865-40.758-74.865-122.274c0-44.057,6.091-76.832,18.277-98.329c12.184-21.495,30.833-32.245,55.949-32.245
		C124.541,156.801,133.692,159.25,142.739,164.143z"/>
	<path fill="#CE0823" d="M164.789,160.153h32.563v174.152c0,17.773,1.597,29.586,4.789,35.437c3.297,5.854,9.79,8.78,19.474,8.78
		c9.683,0,16.067-2.555,19.155-7.662c3.192-5.213,4.789-15.804,4.789-31.766V160.153h32.563v178.941
		c0,26.816-4.098,44.962-12.291,54.433c-9.792,10.749-24.742,16.122-44.855,16.122c-22.136,0-37.727-6.917-46.771-20.752
		c-6.28-9.47-9.418-27.668-9.418-54.592V160.153z"/>
	<path fill="#CE0823" d="M310.23,160.153h33.202v246.463H310.23V160.153z"/>
	<path fill="#CE0823" d="M457.745,165.261v32.403c-10.11-7.235-19.209-10.854-27.295-10.854c-8.728,0-15.858,3.088-21.39,9.259
		c-5.535,5.854-8.301,13.676-8.301,23.465c0,8.62,1.968,16.018,5.906,22.188c2.021,3.3,5.348,7.557,9.977,12.77
		c4.629,5.216,10.615,11.493,17.958,18.836c13.514,13.728,22.719,25.596,27.615,35.597c4.893,9.685,7.342,21.55,7.342,35.597
		c0,19.051-5.375,34.746-16.121,47.09c-10.75,12.026-24.53,18.038-41.344,18.038c-14.154,0-26.233-3.884-36.235-11.653v-32.883
		c11.812,8.62,22.56,12.93,32.244,12.93c9.044,0,16.123-3.005,21.231-9.019c5.107-6.011,7.662-14.18,7.662-24.503
		c0-8.938-1.971-16.973-5.906-24.104c-2.023-3.404-4.844-7.315-8.461-11.732c-3.619-4.415-8.141-9.338-13.568-14.766
		c-8.408-8.301-15.379-15.644-20.911-22.028c-5.535-6.385-9.632-11.972-12.291-16.761c-5.108-9.363-7.662-21.176-7.662-35.437
		c0-19.261,5-34.532,15.005-45.813c10.109-11.386,23.677-17.08,40.705-17.08C435.718,156.801,446.996,159.622,457.745,165.261z"/>
	<path fill="#CE0823" d="M491.609,160.153h33.203v246.463h-33.203V160.153z"/>
	<path fill="#CE0823" d="M556.917,160.153h30.967l33.043,98.33c9.578,27.774,18.037,57.413,25.381,88.911
		c-2.662-19.048-4.629-36.287-5.906-51.719c-1.277-15.429-1.916-29.955-1.916-43.578v-91.944h33.203v246.463h-31.07l-37.125-110.94
		c-3.4-10.32-6.613-20.911-9.641-31.766s-5.816-22.24-8.365-34.16c-0.215-1.488-0.559-3.297-1.037-5.427
		c-0.479-2.128-1.035-4.574-1.674-7.343c0.318,2.769,0.584,5.135,0.799,7.104c0.211,1.97,0.371,3.646,0.479,5.027l1.756,25.062
		l1.891,30.489c0.115,1.703,0.199,3.778,0.256,6.225c0.059,2.45,0.088,5.216,0.088,8.301l1.756,107.429h-32.883V160.153z"/>
	<path fill="#CE0823" d="M703.954,160.153h88.273v28.094h-55.07v78.058h48.846v28.095h-48.846v84.123h55.07v28.094h-88.273V160.153z
		"/>
</g>
<g>
	<g enable-background="new    ">
		<path fill="#FFFFFF" d="M215.887,554.427v-78.279h17.342c8.183,0,13.957,1.676,17.32,5.023c3.363,3.35,5.045,9.13,5.045,17.343
			v30.752c0,8.591-1.711,14.933-5.133,19.023c-3.422,4.092-9.195,6.138-17.32,6.138H215.887z M227.07,546.04h6.159
			c1.835,0,3.407-0.168,4.718-0.503c1.311-0.334,2.373-0.945,3.189-1.834c0.815-0.889,1.456-1.732,1.922-2.534
			c0.466-0.801,0.793-2.045,0.983-3.734c0.189-1.688,0.298-3.08,0.328-4.172c0.029-1.092,0.044-2.788,0.044-5.089
			c0-0.757,0-1.325,0-1.704v-25.161c0-1.426-0.008-2.562-0.022-3.407c-0.015-0.844-0.059-1.841-0.131-2.992
			c-0.073-1.149-0.182-2.06-0.328-2.729c-0.146-0.67-0.349-1.42-0.611-2.25s-0.59-1.478-0.983-1.944
			c-0.393-0.465-0.874-0.953-1.441-1.463c-0.568-0.509-1.223-0.888-1.966-1.136c-0.743-0.247-1.609-0.451-2.599-0.611
			c-0.99-0.16-2.097-0.24-3.32-0.24h-5.941V546.04z"/>
		<path fill="#FFFFFF" d="M272.357,554.427v-78.279h30.752v8.388h-19.57v25.161h13.979v8.387H283.54v27.957h19.57v8.387H272.357z"/>
		<path fill="#FFFFFF" d="M353.147,554.427v-25.161l-16.774-53.118h11.183l11.183,39.14l11.183-39.14h11.183l-16.774,53.118v25.161
			H353.147z"/>
		<path fill="#FFFFFF" d="M412.632,555.213c-3.931,0-7.302-0.597-10.112-1.791c-2.811-1.193-5.045-2.94-6.705-5.242
			c-1.66-2.3-2.869-5.001-3.626-8.103s-1.136-6.705-1.136-10.812v-28.394c0-4.106,0.378-7.688,1.136-10.746s1.966-5.715,3.626-7.972
			c1.66-2.257,3.895-3.953,6.705-5.089c2.81-1.136,6.181-1.704,10.112-1.704c7.629,0,13.133,2.185,16.512,6.553
			c3.378,4.368,5.066,10.688,5.066,18.958v28.394c0,4.048-0.386,7.623-1.156,10.724c-0.772,3.102-1.988,5.811-3.648,8.125
			c-1.66,2.315-3.895,4.078-6.705,5.286S416.534,555.213,412.632,555.213z M404.485,542.501c1.5,2.359,4.215,3.539,8.146,3.539
			c3.932,0,6.646-1.18,8.147-3.539c1.5-2.358,2.25-5.838,2.25-10.439v-33.985c0-4.543-0.743-7.935-2.228-10.178
			c-1.485-2.242-4.208-3.363-8.169-3.363s-6.683,1.121-8.168,3.363c-1.485,2.243-2.228,5.635-2.228,10.178v33.985
			C402.235,536.663,402.985,540.142,404.485,542.501z"/>
		<path fill="#FFFFFF" d="M481.726,553.902c-2.592,0.902-5.592,1.354-8.998,1.354c-3.408,0-6.408-0.452-8.999-1.354
			c-2.593-0.902-4.726-2.162-6.399-3.778c-1.676-1.616-3.036-3.647-4.084-6.094c-1.049-2.446-1.791-5.089-2.229-7.929
			c-0.437-2.839-0.654-6.05-0.654-9.632v-50.322h11.182v50.322c0,2.418,0.051,4.441,0.153,6.072c0.102,1.631,0.371,3.371,0.808,5.22
			c0.438,1.85,1.041,3.327,1.813,4.434c0.771,1.107,1.863,2.024,3.276,2.752c1.412,0.729,3.123,1.093,5.133,1.093
			c2.009,0,3.719-0.364,5.133-1.093c1.412-0.728,2.504-1.645,3.275-2.752c0.771-1.106,1.376-2.584,1.812-4.434
			c0.438-1.849,0.706-3.589,0.809-5.22c0.102-1.631,0.152-3.654,0.152-6.072v-50.322h11.184v50.322c0,3.582-0.219,6.793-0.656,9.632
			c-0.436,2.84-1.179,5.482-2.227,7.929c-1.049,2.446-2.41,4.478-4.085,6.094S484.318,553,481.726,553.902z"/>
		<path fill="#FFFFFF" d="M512.642,554.427v-78.279h13.979c8.328,0,14.604,1.616,18.827,4.85c4.222,3.232,6.334,8.604,6.334,16.118
			c0,4.66-0.83,8.562-2.49,11.707c-1.659,3.146-4.092,5.301-7.295,6.465l12.581,39.14h-11.096l-11.27-36.344h-8.388v36.344H512.642z
			 M523.824,509.696h2.796c4.658,0,8.153-0.983,10.484-2.949c2.328-1.966,3.494-5.176,3.494-9.632c0-4.455-1.166-7.666-3.494-9.632
			c-2.331-1.966-5.826-2.948-10.484-2.948h-2.796V509.696z"/>
		<path fill="#FFFFFF" d="M588.42,555.213c-7.048,0-12.428-2.067-16.141-6.203c-3.714-4.135-5.788-9.784-6.226-16.948l11.184-2.796
			c0.553,11.183,4.281,16.774,11.183,16.774c5.591,0,8.387-2.796,8.387-8.388c0-1.659-0.226-3.195-0.677-4.608
			c-0.452-1.412-1.144-2.708-2.075-3.888c-0.933-1.179-1.776-2.125-2.534-2.839c-0.757-0.714-1.79-1.595-3.101-2.643l-13.979-11.184
			c-2.563-2.009-4.608-4.564-6.138-7.666s-2.293-6.632-2.293-10.593c0-5.767,1.791-10.353,5.373-13.76s8.328-5.111,14.24-5.111
			c6.348,0,11.394,1.551,15.137,4.652c3.741,3.102,6.049,7.491,6.923,13.17c0.087,0.612,0.188,1.457,0.306,2.534l-11.183,2.796
			c-0.029-0.495-0.103-1.238-0.218-2.229c-0.496-3.553-1.609-6.399-3.342-8.54c-1.733-2.14-4.274-3.21-7.623-3.21
			c-2.68,0-4.747,0.75-6.203,2.249c-1.456,1.501-2.184,3.59-2.184,6.269c0,4.397,1.863,8.081,5.592,11.052l13.978,11.183
			c7.454,6.028,11.183,13.236,11.183,21.623c0,5.737-1.77,10.222-5.307,13.454C599.144,553.596,594.39,555.213,588.42,555.213z"/>
	</g>
</g>
</svg>
