<?xml version="1.0" encoding="utf-8"?>
<!-- Generator: Adobe Illustrator 16.0.0, SVG Export Plug-In . SVG Version: 6.00 Build 0)  -->
<!DOCTYPE svg PUBLIC "-//W3C//DTD SVG 1.1//EN" "http://www.w3.org/Graphics/SVG/1.1/DTD/svg11.dtd">
<svg version="1.1" id="Layer_1" xmlns="http://www.w3.org/2000/svg" xmlns:xlink="http://www.w3.org/1999/xlink" x="0px" y="0px"
	 width="841.889px" height="595.281px" viewBox="0 0 841.889 595.281" enable-background="new 0 0 841.889 595.281"
	 xml:space="preserve">
<g>
	<g>
		<path fill="#B4B410" d="M152.486,106.765l36.134,184.375h0.463l0.927-10.655l10.191-61.149l22.236-112.57h29.648l23.626,255.252
			h-33.354l-6.022-94.966l-1.853-47.253l-0.464-33.817h-0.463l-6.022,36.598l-26.405,139.438h-23.162l-32.892-176.036h-0.463
			l-9.729,176.036h-32.891l21.31-255.252H152.486z"/>
		<path fill="#B4B410" d="M409.128,106.765v29.648h-56.98v80.143h50.958v29.185h-50.958v86.629h57.443v29.647H318.33V106.765
			H409.128z"/>
		<path fill="#B4B410" d="M478.153,182.739l5.096,85.702v93.576h-33.817V106.765h32.428l59.76,194.104l0.463-0.464l-8.339-102.379
			v-91.261h33.818v255.252h-31.502l-59.296-196.419l-0.464,0.463L478.153,182.739z"/>
		<path fill="#B4B410" d="M656.505,106.765V293.92c0,32.891,9.729,39.84,23.626,39.84c23.162,0,25.479-14.824,25.941-35.671V106.765
			h33.818v181.132c0,33.354,0.463,77.362-58.37,77.362c-53.737,0-58.37-36.596-58.37-82.458V106.765H656.505z"/>
	</g>
</g>
<g>
	<g>
		<path fill="#FFFFFF" d="M209.579,517.406c-4.32,0-8.023-0.656-11.111-1.969c-3.088-1.311-5.543-3.23-7.367-5.76
			c-1.824-2.527-3.152-5.494-3.984-8.902s-1.248-7.367-1.248-11.879v-31.197c0-4.512,0.416-8.447,1.248-11.807
			s2.16-6.279,3.984-8.76c1.824-2.479,4.279-4.344,7.367-5.592c3.088-1.246,6.791-1.871,11.111-1.871
			c8.383,0,14.43,2.4,18.141,7.199c3.713,4.799,5.568,11.744,5.568,20.83v31.197c0,4.447-0.424,8.375-1.271,11.783
			c-0.848,3.406-2.184,6.383-4.008,8.926c-1.824,2.545-4.279,4.48-7.367,5.809C217.554,516.74,213.866,517.406,209.579,517.406z
			 M200.628,503.439c1.646,2.592,4.631,3.887,8.951,3.887c4.318,0,7.303-1.295,8.951-3.887c1.646-2.592,2.471-6.416,2.471-11.471
			v-37.342c0-4.99-0.816-8.719-2.447-11.182c-1.633-2.465-4.625-3.697-8.975-3.697c-4.352,0-7.344,1.232-8.977,3.697
			c-1.631,2.463-2.447,6.191-2.447,11.182v37.342C198.156,497.023,198.98,500.847,200.628,503.439z"/>
		<path fill="#FFFFFF" d="M249.937,516.541v-86.008h33.789v9.215h-21.502v27.646h15.359v9.215h-15.359v39.932H249.937z"/>
		<path fill="#FFFFFF" d="M330.269,516.541v-75.064h-15.357v-10.943h43.004v10.943h-15.359v75.064H330.269z"/>
		<path fill="#FFFFFF" d="M369.907,516.541v-86.008h12.287v36.861h21.502v-36.861h12.287v86.008h-12.287v-39.932h-21.502v39.932
			H369.907z"/>
		<path fill="#FFFFFF" d="M434.167,516.541v-86.008h33.789v9.215h-21.502v27.646h15.359v9.215h-15.359v30.717h21.502v9.215H434.167z
			"/>
		<path fill="#FFFFFF" d="M507.253,516.541v-86.008h19.055c8.99,0,15.334,1.842,19.029,5.52c3.695,3.68,5.545,10.031,5.545,19.055
			v33.789c0,9.439-1.881,16.406-5.641,20.902s-10.104,6.742-19.029,6.742H507.253z M519.54,507.326h6.768
			c2.016,0,3.744-0.184,5.184-0.551c1.439-0.369,2.607-1.041,3.504-2.018c0.895-0.975,1.6-1.902,2.111-2.783
			c0.512-0.879,0.871-2.248,1.08-4.104c0.207-1.855,0.328-3.383,0.359-4.584c0.031-1.199,0.049-3.062,0.049-5.59
			c0-0.832,0-1.457,0-1.873v-27.645c0-1.568-0.008-2.816-0.025-3.744c-0.016-0.928-0.064-2.023-0.143-3.287
			c-0.08-1.264-0.201-2.264-0.361-3s-0.383-1.561-0.672-2.473c-0.287-0.912-0.646-1.623-1.08-2.135
			c-0.432-0.512-0.959-1.049-1.582-1.607c-0.625-0.561-1.346-0.977-2.16-1.248c-0.816-0.271-1.77-0.496-2.855-0.672
			c-1.09-0.176-2.305-0.266-3.648-0.266h-6.527V507.326z"/>
		<path fill="#FFFFFF" d="M560.618,516.541l18.43-86.008h12.287l18.43,86.008h-12.287l-4.607-21.502h-15.357l-4.607,21.502H560.618z
			 M579.048,485.824h12.287l-6.143-36.859L579.048,485.824z"/>
		<path fill="#FFFFFF" d="M631.07,516.541v-27.645l-18.43-58.363h12.285l12.287,43.004l12.287-43.004h12.287l-18.43,58.363v27.645
			H631.07z"/>
	</g>
</g>
</svg>
