<?xml version="1.0" encoding="utf-8"?>
<!-- Generator: Adobe Illustrator 18.1.1, SVG Export Plug-In . SVG Version: 6.00 Build 0)  -->
<!DOCTYPE svg PUBLIC "-//W3C//DTD SVG 1.1//EN" "http://www.w3.org/Graphics/SVG/1.1/DTD/svg11.dtd">
<svg version="1.1" id="Layer_1" xmlns="http://www.w3.org/2000/svg" xmlns:xlink="http://www.w3.org/1999/xlink" x="0px" y="0px"
	 viewBox="0 0 156.7 128.5" enable-background="new 0 0 156.7 128.5" xml:space="preserve">
<g>
	<g>
		<path fill="#74AD98" d="M78.8,4.2v2.5h-4.9v6.9h4.4v2.5h-4.4v7.4h4.9v2.5H71V4.2H78.8z"/>
		<path fill="#74AD98" d="M85.1,4.2v19.3H90v2.5h-7.8V4.2H85.1z"/>
		<path fill="#B4B410" d="M20.4,36l7.8,39.8h0.1l0.2-2.3l2.2-13.2L35.5,36h6.4L47,91.1h-7.2l-1.3-20.5l-0.4-10.2L38,53.1h-0.1
			L36.6,61l-5.7,30.1h-5l-7.1-38h-0.1l-2.1,38H9.5L14.1,36H20.4z"/>
		<path fill="#B4B410" d="M75.8,36v6.4H63.5v17.3h11V66h-11v18.7h12.4v6.4H56.2V36H75.8z"/>
		<path fill="#B4B410" d="M90.7,52.4l1.1,18.5v20.2h-7.3V36h7l12.9,41.9l0.1-0.1l-1.8-22.1V36h7.3v55.1h-6.8L90.4,48.7l-0.1,0.1
			L90.7,52.4z"/>
		<path fill="#B4B410" d="M129.2,36v40.4c0,7.1,2.1,8.6,5.1,8.6c5,0,5.5-3.2,5.6-7.7V36h7.3v39.1c0,7.2,0.1,16.7-12.6,16.7
			c-11.6,0-12.6-7.9-12.6-17.8V36H129.2z M134.9,33.6l-3.7-2.1l6-10.9l4.9,3.1L134.9,33.6z"/>
	</g>
	<g>
		<g>
			<path fill="#FFFFFF" d="M50.6,124.2v-17.5h3.9c1.8,0,3.1,0.4,3.9,1.1s1.1,2,1.1,3.9v6.9c0,1.9-0.4,3.3-1.1,4.3s-2.1,1.4-3.9,1.4
				H50.6z M53.1,122.3h1.4c0.4,0,0.8,0,1.1-0.1s0.5-0.2,0.7-0.4s0.3-0.4,0.4-0.6s0.2-0.5,0.2-0.8s0.1-0.7,0.1-0.9s0-0.6,0-1.1
				c0-0.2,0-0.3,0-0.4v-5.6c0-0.3,0-0.6,0-0.8s0-0.4,0-0.7s0-0.5-0.1-0.6s-0.1-0.3-0.1-0.5s-0.1-0.3-0.2-0.4s-0.2-0.2-0.3-0.3
				s-0.3-0.2-0.4-0.3s-0.4-0.1-0.6-0.1s-0.5-0.1-0.7-0.1h-1.3V122.3z"/>
			<path fill="#FFFFFF" d="M63.9,111.7l-0.6-1.2c0.4,0,0.8-0.1,1-0.3s0.3-0.5,0.3-1h-1.2v-2.5h2.5c0,0.9,0,1.7,0,2.4
				c0,0.4,0,0.6-0.1,0.9s-0.1,0.5-0.2,0.7s-0.2,0.4-0.3,0.6s-0.3,0.3-0.5,0.3S64.2,111.7,63.9,111.7z"/>
			<path fill="#FFFFFF" d="M68.8,124.2l3.8-17.5H75l3.8,17.5h-2.5l-0.9-4.4h-3.1l-0.9,4.4H68.8z M72.5,117.9H75l-1.2-7.5L72.5,117.9
				z"/>
			<path fill="#FFFFFF" d="M84.1,124.2l-3.8-17.5h2.5l1.8,9.4l0.6,4.4L86,116l1.8-9.4h2.5l-3.8,17.5H84.1z"/>
			<path fill="#FFFFFF" d="M100.2,124.1c-0.6,0.2-1.2,0.3-2,0.3s-1.4-0.1-2-0.3s-1.1-0.5-1.4-0.8s-0.7-0.8-0.9-1.4s-0.4-1.1-0.5-1.8
				s-0.1-1.4-0.1-2.2v-11.2h2.5v11.2c0,0.5,0,1,0,1.4s0.1,0.8,0.2,1.2s0.2,0.7,0.4,1s0.4,0.5,0.7,0.6s0.7,0.2,1.1,0.2
				s0.8-0.1,1.1-0.2s0.6-0.4,0.7-0.6s0.3-0.6,0.4-1s0.2-0.8,0.2-1.2s0-0.8,0-1.4v-11.2h2.5v11.2c0,0.8,0,1.5-0.1,2.2
				s-0.3,1.2-0.5,1.8s-0.5,1-0.9,1.4S100.8,123.8,100.2,124.1z"/>
			<path fill="#FFFFFF" d="M107.2,124.2v-17.5h2.5v17.5H107.2z"/>
		</g>
	</g>
</g>
</svg>
