<?xml version="1.0" encoding="utf-8"?>
<!-- Generator: Adobe Illustrator 16.0.0, SVG Export Plug-In . SVG Version: 6.00 Build 0)  -->
<!DOCTYPE svg PUBLIC "-//W3C//DTD SVG 1.1//EN" "http://www.w3.org/Graphics/SVG/1.1/DTD/svg11.dtd">
<svg version="1.1" id="Layer_1" xmlns="http://www.w3.org/2000/svg" xmlns:xlink="http://www.w3.org/1999/xlink" x="0px" y="0px"
	 width="841.889px" height="595.281px" viewBox="0 0 841.889 595.281" enable-background="new 0 0 841.889 595.281"
	 xml:space="preserve">
<g>
	<g>
		<path fill="#B4B410" d="M152.486,104.765l36.134,184.375h0.463l0.927-10.654l10.191-61.15l22.236-112.57h29.648l23.626,255.254
			h-33.354l-6.022-94.967l-1.853-47.254l-0.464-33.816h-0.463l-6.022,36.598l-26.405,139.439h-23.162l-32.892-176.037h-0.463
			l-9.729,176.037h-32.891l21.31-255.254H152.486z"/>
		<path fill="#B4B410" d="M409.128,104.765v29.648h-56.98v80.143h50.958v29.186h-50.958v86.629h57.443v29.648H318.33V104.765
			H409.128z"/>
		<path fill="#B4B410" d="M478.153,180.74l5.096,85.701v93.578h-33.817V104.765h32.428l59.76,194.104l0.463-0.463l-8.339-102.379
			v-91.262h33.818v255.254h-31.502l-59.296-196.42l-0.464,0.463L478.153,180.74z"/>
		<path fill="#B4B410" d="M656.505,104.765V291.92c0,32.891,9.729,39.84,23.626,39.84c23.162,0,25.479-14.824,25.941-35.67V104.765
			h33.818v181.133c0,33.354,0.463,77.363-58.37,77.363c-53.737,0-58.37-36.598-58.37-82.459V104.765H656.505z"/>
	</g>
</g>
<g>
	<g>
		<path fill="#FFFFFF" d="M242.374,517.476v-86.008h19.055c8.99,0,15.334,1.841,19.029,5.52c3.695,3.68,5.545,10.031,5.545,19.055
			v33.788c0,9.439-1.881,16.407-5.641,20.902c-3.76,4.496-10.104,6.743-19.029,6.743H242.374z M254.661,508.261h6.768
			c2.016,0,3.744-0.184,5.184-0.552s2.607-1.04,3.504-2.017c0.895-0.976,1.6-1.903,2.111-2.783s0.871-2.248,1.08-4.104
			c0.207-1.855,0.328-3.384,0.359-4.584c0.031-1.199,0.049-3.063,0.049-5.591c0-0.832,0-1.456,0-1.872v-27.646
			c0-1.567-0.008-2.815-0.025-3.743c-0.016-0.928-0.064-2.023-0.143-3.288c-0.08-1.264-0.201-2.264-0.361-3
			c-0.16-0.735-0.383-1.56-0.672-2.472c-0.287-0.912-0.646-1.623-1.08-2.136c-0.432-0.512-0.959-1.048-1.582-1.607
			c-0.625-0.56-1.346-0.976-2.16-1.248c-0.816-0.271-1.77-0.496-2.855-0.672c-1.09-0.176-2.305-0.265-3.648-0.265h-6.527V508.261z"
			/>
		<path fill="#FFFFFF" d="M336.439,516.9c-2.848,0.991-6.143,1.488-9.887,1.488c-3.742,0-7.039-0.497-9.887-1.488
			s-5.191-2.376-7.031-4.151s-3.336-4.008-4.488-6.695c-1.15-2.688-1.967-5.592-2.447-8.711c-0.479-3.12-0.719-6.647-0.719-10.583
			v-55.291h12.285v55.291c0,2.656,0.057,4.88,0.168,6.671c0.113,1.793,0.408,3.704,0.889,5.735c0.48,2.032,1.145,3.656,1.992,4.872
			s2.047,2.224,3.6,3.023c1.551,0.8,3.432,1.2,5.639,1.2c2.209,0,4.088-0.4,5.641-1.2c1.551-0.8,2.75-1.808,3.6-3.023
			c0.848-1.216,1.512-2.84,1.992-4.872c0.479-2.031,0.775-3.942,0.887-5.735c0.111-1.791,0.168-4.015,0.168-6.671v-55.291h12.287
			v55.291c0,3.936-0.24,7.463-0.721,10.583c-0.479,3.119-1.295,6.023-2.447,8.711s-2.648,4.92-4.486,6.695
			C341.63,514.524,339.286,515.909,336.439,516.9z"/>
		<path fill="#FFFFFF" d="M388.359,517.476v-9.215c2.656,0,4.729-0.145,6.217-0.433c1.486-0.287,2.711-0.903,3.67-1.848
			c0.961-0.943,1.6-2.176,1.92-3.695s0.48-3.624,0.48-6.312v-64.506h12.287v64.506c0,3.904-0.256,7.127-0.768,9.671
			s-1.449,4.744-2.809,6.6c-1.359,1.856-3.248,3.191-5.662,4.008c-2.418,0.815-5.48,1.224-9.191,1.224H388.359z"/>
		<path fill="#FFFFFF" d="M453.29,518.341c-4.318,0-8.023-0.656-11.111-1.968s-5.543-3.231-7.367-5.76
			c-1.822-2.527-3.15-5.495-3.982-8.903c-0.832-3.407-1.248-7.367-1.248-11.879v-31.196c0-4.512,0.416-8.447,1.248-11.808
			c0.832-3.359,2.16-6.278,3.982-8.759c1.824-2.479,4.279-4.344,7.367-5.592c3.088-1.247,6.793-1.871,11.111-1.871
			c8.383,0,14.43,2.399,18.143,7.199c3.711,4.799,5.568,11.743,5.568,20.83v31.196c0,4.448-0.426,8.375-1.273,11.783
			c-0.848,3.407-2.184,6.383-4.008,8.927c-1.822,2.544-4.279,4.48-7.367,5.808S457.577,518.341,453.29,518.341z M444.339,504.374
			c1.648,2.592,4.633,3.888,8.951,3.888c4.32,0,7.303-1.296,8.951-3.888s2.473-6.415,2.473-11.471v-37.341
			c0-4.991-0.816-8.719-2.449-11.183c-1.631-2.464-4.623-3.696-8.975-3.696s-7.344,1.232-8.975,3.696
			c-1.633,2.464-2.447,6.191-2.447,11.183v37.341C441.868,497.959,442.691,501.782,444.339,504.374z"/>
		<path fill="#FFFFFF" d="M527.437,516.9c-2.848,0.991-6.143,1.488-9.887,1.488c-3.742,0-7.039-0.497-9.887-1.488
			s-5.191-2.376-7.031-4.151s-3.336-4.008-4.488-6.695c-1.15-2.688-1.967-5.592-2.447-8.711c-0.479-3.12-0.719-6.647-0.719-10.583
			v-55.291h12.285v55.291c0,2.656,0.057,4.88,0.168,6.671c0.113,1.793,0.408,3.704,0.889,5.735c0.48,2.032,1.145,3.656,1.992,4.872
			s2.047,2.224,3.6,3.023c1.551,0.8,3.432,1.2,5.639,1.2c2.209,0,4.088-0.4,5.641-1.2c1.551-0.8,2.75-1.808,3.6-3.023
			c0.848-1.216,1.512-2.84,1.992-4.872c0.479-2.031,0.775-3.942,0.887-5.735c0.111-1.791,0.168-4.015,0.168-6.671v-55.291h12.287
			v55.291c0,3.936-0.24,7.463-0.721,10.583c-0.479,3.119-1.295,6.023-2.447,8.711s-2.648,4.92-4.486,6.695
			C532.628,514.524,530.284,515.909,527.437,516.9z"/>
		<path fill="#FFFFFF" d="M559.638,517.476v-86.008h15.357c9.15,0,16.047,1.776,20.686,5.328c4.641,3.551,6.961,9.455,6.961,17.71
			c0,5.12-0.912,9.407-2.736,12.862c-1.824,3.456-4.496,5.824-8.016,7.104l13.822,43.004h-12.189l-12.383-39.932h-9.215v39.932
			H559.638z M571.925,468.329h3.07c5.119,0,8.959-1.08,11.52-3.239c2.559-2.16,3.84-5.688,3.84-10.583s-1.281-8.423-3.84-10.583
			c-2.561-2.16-6.4-3.24-11.52-3.24h-3.07V468.329z"/>
	</g>
</g>
</svg>
