<?xml version="1.0" encoding="utf-8"?>
<!-- Generator: Adobe Illustrator 16.0.0, SVG Export Plug-In . SVG Version: 6.00 Build 0)  -->
<!DOCTYPE svg PUBLIC "-//W3C//DTD SVG 1.1//EN" "http://www.w3.org/Graphics/SVG/1.1/DTD/svg11.dtd">
<svg version="1.1" id="Layer_1" xmlns="http://www.w3.org/2000/svg" xmlns:xlink="http://www.w3.org/1999/xlink" x="0px" y="0px"
	 width="841.889px" height="595.281px" viewBox="0 0 841.889 595.281" enable-background="new 0 0 841.889 595.281"
	 xml:space="preserve">
<g>
	<g>
		<path fill="#74AD98" d="M423.03,19.457v11.581H400.33v31.965h20.383v11.581H400.33v34.28h22.699v11.582h-36.134V19.457H423.03z"/>
		<path fill="#74AD98" d="M452.214,19.457v89.407h22.699v11.582H438.78V19.457H452.214z"/>
		<path fill="#B4B410" d="M152.49,166.771l36.134,184.375h0.463l0.927-10.655l10.191-61.149l22.236-112.57h29.648l23.626,255.253
			h-33.354l-6.022-94.967l-1.853-47.253l-0.464-33.817h-0.463l-6.022,36.598l-26.405,139.439h-23.162l-32.892-176.037h-0.463
			l-9.729,176.037h-32.891l21.31-255.253H152.49z"/>
		<path fill="#B4B410" d="M409.132,166.771v29.648h-56.98v80.143h50.958v29.185h-50.958v86.629h57.443v29.648h-91.261V166.771
			H409.132z"/>
		<path fill="#B4B410" d="M478.156,242.745l5.096,85.702v93.577h-33.817V166.771h32.428l59.76,194.104l0.463-0.464l-8.339-102.379
			v-91.261h33.818v255.253h-31.502l-59.296-196.42l-0.464,0.463L478.156,242.745z"/>
		<path fill="#B4B410" d="M656.509,166.771v187.154c0,32.891,9.729,39.84,23.626,39.84c23.162,0,25.479-14.824,25.941-35.671
			V166.771h33.818v181.132c0,33.354,0.463,77.363-58.37,77.363c-53.737,0-58.37-36.597-58.37-82.459V166.771H656.509z
			 M682.914,155.653l-17.141-9.729l27.795-50.494l22.7,14.36L682.914,155.653z"/>
	</g>
</g>
<g>
	<g>
		<path fill="#FFFFFF" d="M268.322,575.609v-86.008h19.054c8.991,0,15.335,1.841,19.03,5.52c3.695,3.68,5.544,10.031,5.544,19.055
			v33.788c0,9.439-1.881,16.407-5.64,20.902c-3.761,4.496-10.104,6.743-19.03,6.743H268.322z M280.609,566.394h6.767
			c2.016,0,3.744-0.184,5.184-0.552c1.44-0.368,2.607-1.04,3.504-2.017c0.896-0.976,1.6-1.903,2.111-2.783s0.872-2.248,1.08-4.104
			s0.328-3.384,0.36-4.584c0.031-1.199,0.048-3.063,0.048-5.591c0-0.832,0-1.456,0-1.872v-27.646c0-1.567-0.008-2.815-0.024-3.743
			s-0.064-2.023-0.144-3.288c-0.08-1.264-0.2-2.264-0.36-3c-0.16-0.735-0.384-1.56-0.672-2.472s-0.647-1.623-1.08-2.136
			c-0.432-0.512-0.959-1.048-1.583-1.607s-1.345-0.976-2.16-1.248c-0.816-0.271-1.769-0.496-2.855-0.672
			c-1.089-0.176-2.304-0.265-3.647-0.265h-6.527V566.394z"/>
		<path fill="#FFFFFF" d="M330.564,575.609v-86.008h33.788v9.215h-21.501v27.646h15.358v9.216h-15.358v30.717h21.501v9.215H330.564z
			"/>
		<path fill="#FFFFFF" d="M407.582,575.609v-86.008h12.287v36.86h21.501v-36.86h12.287v86.008H441.37v-39.932h-21.501v39.932
			H407.582z"/>
		<path fill="#FFFFFF" d="M495.982,576.473c-4.32,0-8.023-0.656-11.111-1.968s-5.543-3.231-7.367-5.76
			c-1.824-2.527-3.152-5.495-3.984-8.903c-0.832-3.407-1.248-7.367-1.248-11.879v-31.196c0-4.512,0.416-8.447,1.248-11.808
			c0.832-3.359,2.16-6.278,3.984-8.759c1.824-2.479,4.279-4.344,7.367-5.592c3.088-1.247,6.791-1.871,11.111-1.871
			c8.383,0,14.43,2.399,18.141,7.199c3.713,4.799,5.568,11.743,5.568,20.83v31.196c0,4.448-0.424,8.375-1.271,11.783
			c-0.848,3.407-2.184,6.383-4.008,8.927s-4.279,4.48-7.367,5.808S500.269,576.473,495.982,576.473z M487.031,562.507
			c1.646,2.592,4.631,3.888,8.951,3.888c4.318,0,7.303-1.296,8.951-3.888c1.646-2.592,2.471-6.415,2.471-11.471v-37.341
			c0-4.991-0.816-8.719-2.447-11.183c-1.633-2.464-4.625-3.696-8.975-3.696c-4.352,0-7.344,1.232-8.977,3.696
			c-1.631,2.464-2.447,6.191-2.447,11.183v37.341C484.558,556.092,485.382,559.915,487.031,562.507z"/>
		<path fill="#FFFFFF" d="M550.159,575.609v-27.646l-18.43-58.362h12.287l12.287,43.004l12.287-43.004h12.285l-18.43,58.362v27.646
			H550.159z"/>
	</g>
</g>
</svg>
