<?xml version="1.0" encoding="utf-8"?>
<!-- Generator: Adobe Illustrator 18.1.1, SVG Export Plug-In . SVG Version: 6.00 Build 0)  -->
<!DOCTYPE svg PUBLIC "-//W3C//DTD SVG 1.1//EN" "http://www.w3.org/Graphics/SVG/1.1/DTD/svg11.dtd">
<svg version="1.1" id="Layer_1" xmlns="http://www.w3.org/2000/svg" xmlns:xlink="http://www.w3.org/1999/xlink" x="0px" y="0px"
	 viewBox="0 0 156.7 128.5" enable-background="new 0 0 156.7 128.5" xml:space="preserve">
<g>
	<g>
		<path fill="#B4B410" d="M40.2,19.8v1.9h-3.7v5.1h3.3v1.9h-3.3v7.5h-2.2V19.8H40.2z"/>
		<path fill="#B4B410" d="M48.5,19.8v1.9h-3.7v5.1h3.3v1.9h-3.3v5.6h3.7v1.9h-5.8V19.8H48.5z"/>
		<path fill="#B4B410" d="M56.1,22.3c-0.6-0.4-1.1-0.7-1.8-0.7c-1.2,0-1.9,1-1.9,2.1c0,0.7,0.2,1.2,0.6,1.8l1.7,1.8
			c1.5,1.5,2.3,2.6,2.3,4.8c0,2.3-1.4,4.3-3.8,4.3c-0.8,0-1.7-0.2-2.4-0.8v-2.2c0.7,0.5,1.3,0.8,2.1,0.8c1.3,0,1.9-1.1,1.9-2.3
			c0-3.3-4.6-3.9-4.6-8.2c0-2.3,1.2-4.2,3.7-4.2c0.8,0,1.6,0.1,2.3,0.5L56.1,22.3z"/>
		<path fill="#B4B410" d="M67.1,19.8v14.5h3.6v1.9h-5.8V19.8H67.1z"/>
		<path fill="#B4B410" d="M77,19.8l3.5,16.4h-2.2L77.7,33h-3.3l-0.6,3.2h-2.1l3.6-16.4H77z M77,28.9l-0.8-6h0l-1.3,8.3h2.6L77,28.9z
			"/>
		<path fill="#B4B410" d="M93.9,19.8v1.9h-2.5v14.5h-2.2V21.7h-2.6v-1.9H93.9z"/>
		<path fill="#B4B410" d="M101.9,19.8v1.9h-3.7v5.1h3.3v1.9h-3.3v5.6h3.7v1.9h-5.8V19.8H101.9z"/>
		<path fill="#B4B410" d="M105.5,19.8l1.9,12.3h0l0.1-1l0.9-5.5l1-5.8h2.1l-3.2,16.4h-1.7l-3.2-16.4H105.5z"/>
		<path fill="#B4B410" d="M117,19.8l3.5,16.4h-2.2l-0.6-3.2h-3.3l-0.6,3.2h-2.1l3.6-16.4H117z M116.9,28.9l-0.8-6h0l-1.3,8.3h2.6
			L116.9,28.9z"/>
		<path fill="#74AD98" d="M1.5,43.6H8c4,0,10.2,0.2,10.2,10.6c0,3.9-1.1,9.8-5.7,10.6l7.6,20.1h-5.7L7.1,64.7H7v20.2H1.5V43.6z
			 M12.5,55.4c0-3.9-0.5-7.2-4.7-7.1H7v13.6C11.1,62.1,12.5,59.5,12.5,55.4z"/>
		<path fill="#74AD98" d="M41.2,43.6v4.8h-9.2v13h8.3v4.8h-8.3v14h9.2v4.8H26.4V43.6H41.2z"/>
		<path fill="#74AD98" d="M60.3,49.9c-1.4-1-2.8-1.8-4.7-1.8c-3,0-4.9,2.5-4.9,5.3c0,1.8,0.4,3.1,1.5,4.5l4.2,4.5
			c3.7,3.8,5.9,6.5,5.9,12.1c0,5.8-3.6,10.8-9.7,10.8c-2.1,0-4.3-0.6-6-2v-5.5c1.6,1.2,3.3,2.1,5.4,2.1c3.4,0,4.8-2.7,4.8-5.7
			c0-8.2-11.5-9.9-11.5-20.7c0-5.8,3.1-10.6,9.3-10.6c2.1,0,4,0.3,5.8,1.4L60.3,49.9z"/>
		<path fill="#74AD98" d="M83.9,43.6v4.8h-9.3v13h8.3v4.8h-8.3v14h9.3v4.8H69.2V43.6H83.9z"/>
		<path fill="#74AD98" d="M90.4,43.6h6.6c4,0,10.2,0.2,10.2,10.6c0,3.9-1.1,9.8-5.7,10.6l7.6,20.1h-5.7l-7.4-20.2h-0.1v20.2h-5.5
			V43.6z M101.4,55.4c0-3.9-0.5-7.2-4.7-7.1h-0.9v13.6C99.9,62.1,101.4,59.5,101.4,55.4z"/>
		<path fill="#74AD98" d="M117.3,43.6l4.7,31h0.1l0.3-2.6l2.2-13.9l2.5-14.6h5.2l-8.1,41.3h-4.4l-8-41.3H117.3z"/>
		<path fill="#74AD98" d="M146.3,43.6l8.9,41.3h-5.5l-1.5-8h-8.2l-1.5,8H133l9-41.3H146.3z M146.2,66.6l-2.1-15H144l-3.3,21h6.6
			L146.2,66.6z"/>
	</g>
	<g>
		<g>
			<path fill="#FFFFFF" d="M29.4,108.9V97.4h-2.3v-1.7h6.6v1.7h-2.3v11.4H29.4z"/>
			<path fill="#FFFFFF" d="M34.8,108.9V107h1.9v1.9H34.8z"/>
			<path fill="#FFFFFF" d="M46.5,109c-1.1,0-1.9-0.3-2.4-0.9c-0.6-0.6-0.8-1.4-0.8-2.5h1.9c0,0.6,0.1,1.1,0.3,1.4
				c0.2,0.3,0.6,0.5,1.1,0.5c0.9,0,1.4-0.9,1.4-2.8v-1.9c-0.4,0.6-1,0.9-1.9,0.9c-0.5,0-1-0.1-1.3-0.3c-0.4-0.2-0.7-0.4-0.9-0.8
				s-0.4-0.7-0.4-1.2c-0.1-0.4-0.1-0.9-0.1-1.5c0-0.6,0.1-1.2,0.2-1.7c0.1-0.5,0.3-1,0.6-1.4s0.6-0.7,1-0.9c0.4-0.2,0.9-0.3,1.5-0.3
				c0.4,0,0.9,0.1,1.2,0.2c0.4,0.2,0.7,0.4,0.9,0.6c0.3,0.3,0.5,0.6,0.6,0.9c0.2,0.4,0.3,0.8,0.4,1.2c0.1,0.4,0.1,0.9,0.1,1.4v4.2
				c0,0.5,0,1-0.1,1.5c-0.1,0.5-0.2,0.9-0.3,1.3c-0.2,0.4-0.4,0.8-0.6,1.1c-0.2,0.3-0.6,0.5-0.9,0.7C47.5,108.9,47,109,46.5,109z
				 M46.5,102.3c0.6,0,1.1-0.3,1.4-0.9v-1.9c0-0.3,0-0.6-0.1-0.9c0-0.3-0.1-0.5-0.2-0.7c-0.1-0.2-0.2-0.4-0.4-0.5
				c-0.2-0.1-0.4-0.2-0.7-0.2s-0.5,0.1-0.7,0.2c-0.2,0.1-0.3,0.3-0.4,0.5c-0.1,0.2-0.2,0.5-0.2,0.7c0,0.3-0.1,0.5-0.1,0.9
				c0,0.2,0,0.3,0,0.4c0,0.1,0,0.2,0,0.4s0,0.3,0,0.4c0,0.1,0,0.2,0.1,0.4s0,0.3,0.1,0.3c0,0.1,0.1,0.2,0.1,0.3s0.1,0.2,0.2,0.3
				c0.1,0.1,0.1,0.1,0.2,0.2s0.2,0.1,0.3,0.1C46.3,102.3,46.4,102.3,46.5,102.3z"/>
			<path fill="#FFFFFF" d="M55.6,109c-1.1,0-1.9-0.3-2.4-0.9s-0.8-1.4-0.8-2.5v-0.5h1.9c0,0.3,0,0.5,0,0.7c0,0.2,0.1,0.4,0.1,0.6
				c0.1,0.2,0.1,0.4,0.2,0.5c0.1,0.1,0.2,0.2,0.4,0.3c0.2,0.1,0.4,0.1,0.6,0.1s0.5,0,0.6-0.1c0.2-0.1,0.3-0.2,0.4-0.3
				c0.1-0.1,0.2-0.3,0.2-0.5c0.1-0.2,0.1-0.4,0.1-0.6s0-0.5,0-0.7c0-0.8-0.1-1.3-0.4-1.7s-0.8-0.6-1.4-0.6v-1.9
				c0.7,0,1.2-0.1,1.4-0.4S57,99.7,57,99c0-0.6-0.1-1.1-0.3-1.4c-0.2-0.3-0.6-0.5-1.1-0.5c-0.2,0-0.5,0-0.6,0.1s-0.3,0.2-0.4,0.3
				c-0.1,0.1-0.2,0.3-0.2,0.5c-0.1,0.2-0.1,0.4-0.1,0.6c0,0.2,0,0.5,0,0.7h-1.9V99c0-1.1,0.3-1.9,0.8-2.5c0.6-0.6,1.4-0.9,2.4-0.9
				c1.1,0,1.9,0.3,2.4,0.9c0.6,0.6,0.8,1.4,0.8,2.5c0,0.7-0.2,1.3-0.5,1.8c-0.3,0.5-0.8,0.8-1.4,1c0.6,0.2,1.1,0.6,1.4,1.1
				c0.3,0.6,0.5,1.3,0.5,2.1c0,1.2-0.3,2.2-0.8,2.9C57.5,108.7,56.7,109,55.6,109z"/>
			<path fill="#FFFFFF" d="M64.5,109c-0.4,0-0.9-0.1-1.2-0.2c-0.4-0.2-0.7-0.4-0.9-0.6c-0.3-0.3-0.5-0.6-0.6-0.9s-0.3-0.8-0.4-1.2
				s-0.1-0.9-0.1-1.4v-4.2c0-0.5,0-1,0.1-1.5s0.2-0.9,0.3-1.3c0.2-0.4,0.4-0.8,0.6-1.1c0.2-0.3,0.6-0.5,0.9-0.7
				c0.4-0.2,0.8-0.3,1.3-0.3c1.1,0,1.9,0.3,2.4,0.9c0.6,0.6,0.8,1.4,0.8,2.5h-1.9c0-0.6-0.1-1.1-0.3-1.4c-0.2-0.3-0.6-0.5-1.1-0.5
				c-0.9,0-1.4,0.9-1.4,2.8v1.9c0.4-0.6,1-0.9,1.9-0.9c0.5,0,1,0.1,1.3,0.3c0.4,0.2,0.7,0.4,0.9,0.8c0.2,0.3,0.4,0.7,0.4,1.2
				s0.1,0.9,0.1,1.5c0,0.6-0.1,1.2-0.2,1.7c-0.1,0.5-0.3,1-0.6,1.4c-0.3,0.4-0.6,0.7-1,0.9C65.6,108.9,65.1,109,64.5,109z
				 M63.8,107.3c0.2,0.1,0.4,0.2,0.7,0.2c0.3,0,0.5-0.1,0.7-0.2s0.3-0.3,0.4-0.5c0.1-0.2,0.2-0.5,0.2-0.7c0-0.3,0.1-0.5,0.1-0.9
				c0-0.2,0-0.3,0-0.4s0-0.2,0-0.4c0-0.2,0-0.3,0-0.4c0-0.1,0-0.2-0.1-0.4c0-0.1,0-0.3-0.1-0.3c0-0.1-0.1-0.2-0.1-0.3
				c-0.1-0.1-0.1-0.2-0.2-0.3c-0.1-0.1-0.1-0.1-0.2-0.2c-0.1-0.1-0.2-0.1-0.3-0.1c-0.1,0-0.2,0-0.4,0c-0.6,0-1.1,0.3-1.4,0.9v1.9
				c0,0.3,0,0.6,0.1,0.9c0,0.3,0.1,0.5,0.2,0.7C63.5,106.9,63.6,107.1,63.8,107.3z"/>
			<path fill="#FFFFFF" d="M75.2,108.9l2.4-11.5h-3.5v-1.6h5.2v0.9L77,108.9H75.2z"/>
			<path fill="#FFFFFF" d="M85.1,109c-0.4,0-0.9-0.1-1.2-0.2c-0.4-0.2-0.7-0.4-0.9-0.6c-0.3-0.3-0.5-0.6-0.6-0.9
				c-0.2-0.4-0.3-0.8-0.4-1.2s-0.1-0.9-0.1-1.4v-4.2c0-0.5,0-1,0.1-1.5s0.2-0.9,0.3-1.3c0.2-0.4,0.4-0.8,0.6-1.1
				c0.2-0.3,0.6-0.5,0.9-0.7c0.4-0.2,0.8-0.3,1.3-0.3c1.1,0,1.9,0.3,2.4,0.9c0.6,0.6,0.8,1.4,0.8,2.5h-1.9c0-0.6-0.1-1.1-0.3-1.4
				c-0.2-0.3-0.6-0.5-1.1-0.5c-0.9,0-1.4,0.9-1.4,2.8v1.9c0.4-0.6,1-0.9,1.9-0.9c0.5,0,1,0.1,1.3,0.3s0.7,0.4,0.9,0.8
				s0.4,0.7,0.4,1.2s0.1,0.9,0.1,1.5c0,0.6-0.1,1.2-0.2,1.7c-0.1,0.5-0.3,1-0.6,1.4c-0.3,0.4-0.6,0.7-1,0.9S85.7,109,85.1,109z
				 M84.4,107.3c0.2,0.1,0.4,0.2,0.7,0.2c0.3,0,0.5-0.1,0.7-0.2c0.2-0.1,0.3-0.3,0.4-0.5c0.1-0.2,0.2-0.5,0.2-0.7
				c0-0.3,0.1-0.5,0.1-0.9c0-0.2,0-0.3,0-0.4s0-0.2,0-0.4c0-0.2,0-0.3,0-0.4s0-0.2-0.1-0.4c0-0.1,0-0.3-0.1-0.3
				c0-0.1-0.1-0.2-0.1-0.3c-0.1-0.1-0.1-0.2-0.2-0.3s-0.1-0.1-0.2-0.2c-0.1-0.1-0.2-0.1-0.3-0.1s-0.2,0-0.4,0
				c-0.6,0-1.1,0.3-1.4,0.9v1.9c0,0.3,0,0.6,0.1,0.9c0,0.3,0.1,0.5,0.2,0.7C84.1,106.9,84.2,107.1,84.4,107.3z"/>
			<path fill="#FFFFFF" d="M92,108.9V98.6h-1.4v-1.4c0.9-0.3,1.6-0.8,1.9-1.4h1.4v13.1H92z"/>
			<path fill="#FFFFFF" d="M104.1,109c-1.1,0-1.9-0.3-2.4-0.9c-0.6-0.6-0.8-1.4-0.8-2.5v-0.5h1.9c0,0.3,0,0.5,0,0.7
				c0,0.2,0.1,0.4,0.1,0.6c0.1,0.2,0.1,0.4,0.2,0.5c0.1,0.1,0.2,0.2,0.4,0.3c0.2,0.1,0.4,0.1,0.6,0.1c0.2,0,0.5,0,0.6-0.1
				c0.2-0.1,0.3-0.2,0.4-0.3c0.1-0.1,0.2-0.3,0.2-0.5c0.1-0.2,0.1-0.4,0.1-0.6c0-0.2,0-0.5,0-0.7c0-0.8-0.1-1.3-0.4-1.7
				s-0.8-0.6-1.4-0.6v-1.9c0.7,0,1.2-0.1,1.4-0.4c0.3-0.3,0.4-0.8,0.4-1.5c0-0.6-0.1-1.1-0.3-1.4c-0.2-0.3-0.6-0.5-1.1-0.5
				c-0.2,0-0.5,0-0.6,0.1c-0.2,0.1-0.3,0.2-0.4,0.3c-0.1,0.1-0.2,0.3-0.2,0.5c-0.1,0.2-0.1,0.4-0.1,0.6c0,0.2,0,0.5,0,0.7h-1.9V99
				c0-1.1,0.3-1.9,0.8-2.5c0.6-0.6,1.4-0.9,2.4-0.9c1.1,0,1.9,0.3,2.4,0.9c0.6,0.6,0.8,1.4,0.8,2.5c0,0.7-0.2,1.3-0.5,1.8
				c-0.3,0.5-0.8,0.8-1.4,1c0.6,0.2,1.1,0.6,1.4,1.1s0.5,1.3,0.5,2.1c0,1.2-0.3,2.2-0.8,2.9C106.1,108.7,105.2,109,104.1,109z"/>
			<path fill="#FFFFFF" d="M113.3,108.9v-3.4h-3.7v-2.1l3.3-7.7h2.3v8h1.4v1.8h-1.4v3.4H113.3z M111.4,103.7h1.9v-5.6L111.4,103.7z"
				/>
			<path fill="#FFFFFF" d="M122.1,109c-0.7,0-1.3-0.2-1.8-0.5c-0.5-0.3-0.9-0.8-1.1-1.4c-0.2-0.6-0.4-1.2-0.4-2v-5.6
				c0-1.2,0.3-2.2,0.8-2.8s1.4-1,2.5-1c1.1,0,1.9,0.3,2.5,1c0.5,0.7,0.8,1.6,0.8,2.8v5.6c0,1.2-0.3,2.1-0.8,2.8
				C124,108.6,123.1,109,122.1,109z M122.1,107.5c0.9,0,1.4-0.8,1.4-2.3v-5.6c0-0.3,0-0.5,0-0.7s-0.1-0.4-0.1-0.6
				c-0.1-0.2-0.1-0.4-0.2-0.5c-0.1-0.1-0.2-0.3-0.4-0.3c-0.2-0.1-0.4-0.1-0.6-0.1c-0.2,0-0.4,0-0.6,0.1c-0.2,0.1-0.3,0.2-0.4,0.3
				c-0.1,0.1-0.2,0.3-0.2,0.5c-0.1,0.2-0.1,0.4-0.1,0.6s0,0.4,0,0.7v5.6c0,0.3,0,0.6,0.1,0.8c0,0.3,0.1,0.5,0.2,0.7
				c0.1,0.2,0.2,0.4,0.4,0.6C121.6,107.4,121.8,107.5,122.1,107.5z"/>
		</g>
	</g>
</g>
</svg>
