<?xml version="1.0" encoding="utf-8"?>
<!-- Generator: Adobe Illustrator 16.0.0, SVG Export Plug-In . SVG Version: 6.00 Build 0)  -->
<!DOCTYPE svg PUBLIC "-//W3C//DTD SVG 1.1//EN" "http://www.w3.org/Graphics/SVG/1.1/DTD/svg11.dtd">
<svg version="1.1" id="Layer_1" xmlns="http://www.w3.org/2000/svg" xmlns:xlink="http://www.w3.org/1999/xlink" x="0px" y="0px"
	 width="841.889px" height="595.281px" viewBox="0 0 841.889 595.281" enable-background="new 0 0 841.889 595.281"
	 xml:space="preserve">
<g>
	<g>
		<g>
			<path fill="#FFFFFF" d="M194.179,504.482v-53.273h-10.655v-7.875h30.575v7.875h-10.655v52.811h-9.265V504.482z"/>
			<path fill="#FFFFFF" d="M219.195,504.482v-8.801h8.802v8.801H219.195z"/>
			<path fill="#FFFFFF" d="M273.395,504.945c-5.096,0-8.802-1.389-11.118-4.168c-2.779-2.779-3.706-6.486-3.706-11.582h8.802
				c0,2.779,0.464,5.096,1.39,6.486c0.927,1.389,2.78,2.316,5.096,2.316c4.17,0,6.486-4.17,6.486-12.973v-8.801
				c-1.854,2.779-4.633,4.168-8.802,4.168c-2.316,0-4.633-0.463-6.022-1.389c-1.854-0.926-3.243-1.854-4.17-3.707
				c-0.926-1.852-1.853-3.242-1.853-5.559c-0.463-1.854-0.463-4.168-0.463-6.949c0-2.779,0.463-5.559,0.926-7.875
				c0.464-2.316,1.39-4.633,2.779-6.484c1.391-1.854,2.78-3.244,4.633-4.17c1.854-0.926,4.17-1.391,6.949-1.391
				c1.853,0,4.169,0.465,5.559,0.928c1.854,0.926,3.243,1.854,4.17,2.779c1.39,1.389,2.315,2.779,2.779,4.17
				c0.927,1.852,1.39,3.705,1.853,5.559c0.464,1.854,0.464,4.168,0.464,6.484v19.457c0,2.316,0,4.633-0.464,6.949
				c-0.463,2.316-0.926,4.17-1.39,6.021c-0.927,1.854-1.853,3.707-2.779,5.096c-0.927,1.391-2.779,2.316-4.169,3.244
				C278.028,504.482,275.711,504.945,273.395,504.945z M273.395,473.908c2.779,0,5.096-1.391,6.485-4.17v-8.801
				c0-1.391,0-2.779-0.463-4.17c0-1.391-0.464-2.316-0.927-3.242c-0.463-0.928-0.927-1.854-1.853-2.316
				c-0.927-0.463-1.854-0.928-3.243-0.928s-2.316,0.465-3.243,0.928c-0.926,0.463-1.39,1.389-1.853,2.316
				c-0.463,0.926-0.927,2.316-0.927,3.242c0,1.391-0.463,2.316-0.463,4.17c0,0.926,0,1.389,0,1.852c0,0.465,0,0.928,0,1.854
				c0,0.928,0,1.391,0,1.854s0,0.926,0.463,1.854c0.464,0.926,0,1.389,0.464,1.389c0,0.463,0.463,0.928,0.463,1.391
				s0.463,0.926,0.927,1.389c0.463,0.465,0.463,0.465,0.926,0.928c0.464,0.463,0.927,0.463,1.391,0.463
				C272.468,473.908,272.932,473.908,273.395,473.908z"/>
			<path fill="#FFFFFF" d="M315.551,504.945c-5.096,0-8.802-1.389-11.118-4.168s-3.706-6.486-3.706-11.582v-2.316h8.802
				c0,1.391,0,2.316,0,3.242c0,0.928,0.463,1.854,0.463,2.779c0.464,0.928,0.464,1.854,0.927,2.316
				c0.463,0.465,0.927,0.928,1.854,1.391c0.926,0.463,1.853,0.463,2.779,0.463s2.316,0,2.779-0.463
				c0.927-0.463,1.39-0.926,1.854-1.391c0.463-0.463,0.926-1.389,0.926-2.316c0.464-0.926,0.464-1.852,0.464-2.779
				c0-0.926,0-2.316,0-3.242c0-3.705-0.464-6.021-1.854-7.875s-3.706-2.779-6.485-2.779v-8.803c3.243,0,5.559-0.463,6.485-1.852
				c0.927-1.391,2.316-3.707,2.316-6.949c0-2.779-0.463-5.096-1.39-6.486c-0.927-1.389-2.779-2.316-5.096-2.316
				c-0.927,0-2.316,0-2.779,0.463c-0.464,0.465-1.391,0.928-1.854,1.391s-0.927,1.391-0.927,2.316
				c-0.463,0.926-0.463,1.854-0.463,2.779s0,2.316,0,3.242h-8.802v-1.389c0-5.096,1.39-8.803,3.706-11.582
				c2.779-2.779,6.485-4.17,11.118-4.17c5.096,0,8.802,1.391,11.118,4.17c2.779,2.779,3.706,6.486,3.706,11.582
				c0,3.242-0.927,6.021-2.316,8.338s-3.706,3.707-6.485,4.633c2.779,0.926,5.096,2.779,6.485,5.096
				c1.39,2.779,2.316,6.021,2.316,9.729c0,5.559-1.39,10.191-3.706,13.434C324.353,503.556,320.647,504.945,315.551,504.945z"/>
			<path fill="#FFFFFF" d="M356.781,504.945c-1.854,0-4.17-0.463-5.56-0.926c-1.853-0.926-3.242-1.854-4.169-2.779
				c-1.39-1.391-2.316-2.779-2.779-4.17c-0.464-1.389-1.39-3.705-1.854-5.559c-0.463-1.854-0.463-4.17-0.463-6.486V465.57
				c0-2.316,0-4.633,0.463-6.949c0.464-2.316,0.927-4.17,1.39-6.023c0.927-1.852,1.854-3.705,2.78-5.096
				c0.926-1.389,2.779-2.316,4.169-3.242c1.853-0.926,3.706-1.391,6.022-1.391c5.096,0,8.802,1.391,11.118,4.17
				c2.779,2.779,3.706,6.486,3.706,11.582h-8.802c0-2.779-0.464-5.096-1.39-6.486c-0.927-1.389-2.78-2.316-5.097-2.316
				c-4.169,0-6.485,4.17-6.485,12.971v8.803c1.854-2.779,4.633-4.17,8.802-4.17c2.316,0,4.633,0.463,6.022,1.391
				c1.854,0.926,3.243,1.854,4.17,3.705c0.926,1.391,1.853,3.244,1.853,5.561c0,2.314,0.463,4.168,0.463,6.947
				s-0.463,5.561-0.926,7.877c-0.464,2.314-1.39,4.631-2.78,6.484c-1.39,1.854-2.779,3.242-4.632,4.17
				C361.876,504.482,359.56,504.945,356.781,504.945z M353.537,497.07c0.927,0.463,1.854,0.928,3.243,0.928s2.316-0.465,3.242-0.928
				c0.927-0.463,1.391-1.389,1.854-2.316c0.463-0.926,0.927-2.316,0.927-3.242c0-1.391,0.463-2.316,0.463-4.17
				c0-0.926,0-1.389,0-1.852c0-0.465,0-0.928,0-1.854c0-0.928,0-1.391,0-1.854s0-0.926-0.463-1.854c0-0.463,0-1.389-0.464-1.389
				c0-0.463-0.463-0.928-0.463-1.391c-0.463-0.463-0.463-0.926-0.927-1.389c-0.463-0.465-0.463-0.465-0.927-0.928
				c-0.463-0.463-0.926-0.463-1.39-0.463c-0.463,0-0.926,0-1.853,0c-2.779,0-5.096,1.391-6.485,4.17v8.801
				c0,1.391,0,2.779,0.463,4.17c0,1.389,0.463,2.316,0.927,3.242C352.148,495.217,352.611,496.144,353.537,497.07z"/>
			<path fill="#FFFFFF" d="M406.348,504.482l11.118-53.273h-16.214v-7.412h24.09v4.168l-10.655,56.518H406.348z"/>
			<path fill="#FFFFFF" d="M452.21,504.945c-1.853,0-4.169-0.463-5.559-0.926c-1.854-0.926-3.243-1.854-4.17-2.779
				c-1.39-1.391-2.316-2.779-2.779-4.17c-0.927-1.854-1.39-3.705-1.853-5.559c-0.464-1.854-0.464-4.17-0.464-6.486V465.57
				c0-2.316,0-4.633,0.464-6.949c0.463-2.316,0.926-4.17,1.39-6.023c0.926-1.852,1.853-3.705,2.779-5.096
				c0.927-1.389,2.779-2.316,4.169-3.242c1.854-0.926,3.706-1.391,6.022-1.391c5.096,0,8.802,1.391,11.118,4.17
				c2.779,2.779,3.706,6.486,3.706,11.582h-8.802c0-2.779-0.463-5.096-1.39-6.486c-0.927-1.389-2.779-2.316-5.096-2.316
				c-4.17,0-6.485,4.17-6.485,12.971v8.803c1.853-2.779,4.632-4.17,8.802-4.17c2.315,0,4.632,0.463,6.021,1.391
				c1.391,0.926,3.243,1.854,4.17,3.705c0.927,1.854,1.853,3.244,1.853,5.561c0,2.314,0.464,4.168,0.464,6.947
				s-0.464,5.561-0.927,7.877c-0.463,2.314-1.39,4.631-2.779,6.484s-2.78,3.242-4.633,4.17
				C456.379,504.482,454.99,504.945,452.21,504.945z M448.967,497.07c0.927,0.463,1.854,0.928,3.243,0.928s2.316-0.465,3.243-0.928
				c0.926-0.463,1.39-1.389,1.853-2.316c0.464-0.926,0.927-2.316,0.927-3.242c0-1.391,0.463-2.316,0.463-4.17
				c0-0.926,0-1.389,0-1.852c0-0.465,0-0.928,0-1.854c0-0.928,0-1.391,0-1.854s0-0.926-0.463-1.854c0-0.463,0-1.389-0.463-1.389
				c0-0.463-0.464-0.928-0.464-1.391c-0.463-0.463-0.463-0.926-0.927-1.389c-0.463-0.465-0.463-0.465-0.926-0.928
				c-0.464-0.463-0.927-0.463-1.39-0.463c-0.464,0-0.927,0-1.854,0c-2.779,0-5.096,1.391-6.485,4.17v8.801
				c0,1.391,0,2.779,0.463,4.17c0,1.389,0.464,2.316,0.927,3.242C447.577,495.217,448.041,496.144,448.967,497.07z"/>
			<path fill="#FFFFFF" d="M484.175,504.482v-47.715h-6.486v-6.486c4.17-1.389,7.412-3.705,8.803-6.484h6.485v60.686H484.175
				L484.175,504.482z"/>
			<path fill="#FFFFFF" d="M540.229,504.945c-5.096,0-8.803-1.389-11.118-4.168c-2.78-2.779-3.706-6.486-3.706-11.582v-2.316h8.802
				c0,1.391,0,2.316,0,3.242c0,0.928,0.463,1.854,0.463,2.779c0.464,0.928,0.464,1.854,0.927,2.316
				c0.463,0.465,0.927,0.928,1.853,1.391c0.927,0.463,1.854,0.463,2.78,0.463c0.926,0,2.315,0,2.779-0.463
				c0.926-0.463,1.39-0.926,1.853-1.391c0.464-0.463,0.927-1.389,0.927-2.316c0.463-0.926,0.463-1.852,0.463-2.779
				c0-0.926,0-2.316,0-3.242c0-3.705-0.463-6.021-1.853-7.875s-3.706-2.779-6.485-2.779v-8.803c3.242,0,5.559-0.463,6.485-1.852
				c1.39-1.391,1.853-3.707,1.853-6.949c0-2.779-0.463-5.096-1.39-6.486c-0.927-1.389-2.779-2.316-5.096-2.316
				c-0.927,0-2.316,0-2.779,0.463c-0.927,0.465-1.39,0.928-1.854,1.391c-0.463,0.463-0.926,1.391-0.926,2.316
				c-0.464,0.926-0.464,1.854-0.464,2.779s0,2.316,0,3.242h-8.802v-1.389c0-5.096,1.39-8.803,3.706-11.582
				c2.779-2.779,6.486-4.17,11.118-4.17c5.096,0,8.802,1.391,11.118,4.17c2.779,2.779,3.706,6.486,3.706,11.582
				c0,3.242-0.927,6.021-2.316,8.338s-3.706,3.707-6.485,4.633c2.779,0.926,5.096,2.779,6.485,5.096s2.316,6.021,2.316,9.729
				c0,5.559-1.39,10.191-3.706,13.434C549.493,503.556,545.324,504.945,540.229,504.945z"/>
			<path fill="#FFFFFF" d="M582.848,504.482v-15.75h-17.141v-9.729l15.287-35.67h10.655v37.059h6.485v8.34h-6.485v15.75H582.848
				L582.848,504.482z M574.046,480.392h8.802v-25.941L574.046,480.392z"/>
			<path fill="#FFFFFF" d="M623.614,504.945c-3.242,0-6.021-0.926-8.338-2.316c-2.316-1.389-4.17-3.705-5.096-6.484
				c-0.927-2.779-1.854-5.559-1.854-9.266v-25.941c0-5.561,1.39-10.191,3.706-12.973c2.316-2.779,6.485-4.631,11.581-4.631
				s8.802,1.389,11.582,4.631c2.316,3.244,3.706,7.412,3.706,12.973v25.941c0,5.559-1.39,9.729-3.706,12.971
				C632.415,503.094,628.246,504.945,623.614,504.945z M623.614,497.998c4.17,0,6.486-3.707,6.486-10.656V461.4
				c0-1.391,0-2.316,0-3.242c0-0.928-0.464-1.854-0.464-2.781c-0.463-0.926-0.463-1.852-0.927-2.314
				c-0.463-0.465-0.926-1.391-1.853-1.391c-0.927-0.463-1.853-0.463-2.779-0.463s-1.854,0-2.779,0.463
				c-0.927,0.463-1.391,0.926-1.854,1.391c-0.463,0.463-0.927,1.389-0.927,2.314c-0.463,0.928-0.463,1.854-0.463,2.781
				c0,0.926,0,1.852,0,3.242v25.941c0,1.391,0,2.779,0.463,3.707c0,1.389,0.464,2.316,0.927,3.242s0.927,1.854,1.854,2.779
				C621.298,497.533,622.224,497.998,623.614,497.998z"/>
		</g>
	</g>
</g>
<g>
	<path fill="#B1B22F" d="M253.711,91.965h26.51v8.391h-16.593v23.268H278.6v8.392h-14.972v33.566h-9.917V91.965z"/>
	<path fill="#B1B22F" d="M301.053,91.965h7.725l15.781,73.616h-9.821l-2.766-14.352h-14.59l-2.813,14.352h-9.536L301.053,91.965z
		 M310.541,143.552l-2.193-11.729c-1.462-7.979-2.654-16.497-3.576-25.557c-0.445,4.419-1.018,8.893-1.716,13.422
		c-0.7,4.529-1.526,9.338-2.479,14.424l-1.812,9.439H310.541z"/>
	<path fill="#B1B22F" d="M334.281,91.965h9.917v73.616h-9.917V91.965z"/>
	<path fill="#B1B22F" d="M359.452,91.965h13.064c5.403,0,9.424,1.287,12.062,3.861c3.338,3.338,5.006,8.439,5.006,15.305
		c0,5.277-0.882,9.513-2.646,12.707c-1.765,3.194-4.284,5.174-7.558,5.936l13.541,35.808h-10.061l-13.493-36.046v36.046h-9.917
		V91.965z M369.369,124.576c3.846,0,6.563-0.889,8.153-2.67c1.589-1.779,2.384-4.783,2.384-9.011c0-2.288-0.167-4.243-0.5-5.864
		c-0.334-1.621-0.858-2.939-1.574-3.957c-0.715-1.018-1.637-1.765-2.765-2.242c-1.129-0.477-2.472-0.715-4.029-0.715h-1.669V124.576
		z"/>
	<path fill="#B1B22F" d="M404.505,91.965h26.366v8.391h-16.449v23.315h14.59v8.392h-14.59v25.127h16.449v8.392h-26.366V91.965z"/>
	<path fill="#B1B22F" d="M468.006,91.965h9.727v52.018c0,5.309,0.477,8.837,1.431,10.585c0.984,1.748,2.924,2.622,5.816,2.622
		s4.8-0.763,5.722-2.289c0.953-1.557,1.431-4.72,1.431-9.488V91.965h9.727v53.447c0,8.011-1.225,13.431-3.672,16.26
		c-2.925,3.211-7.39,4.814-13.397,4.814c-6.612,0-11.269-2.065-13.97-6.197c-1.876-2.829-2.813-8.265-2.813-16.307V91.965z"/>
	<path fill="#B1B22F" d="M517.113,91.965h9.25l9.869,29.369c2.861,8.297,5.388,17.149,7.581,26.559
		c-0.795-5.689-1.383-10.84-1.764-15.449c-0.382-4.607-0.572-8.947-0.572-13.016V91.965h9.917v73.616h-9.28l-11.089-33.138
		c-1.016-3.082-1.976-6.246-2.88-9.488s-1.737-6.643-2.498-10.203c-0.064-0.444-0.167-0.984-0.311-1.621
		c-0.143-0.635-0.309-1.365-0.5-2.193c0.096,0.828,0.175,1.535,0.239,2.123c0.062,0.588,0.11,1.088,0.143,1.501l0.524,7.485
		l0.564,9.107c0.034,0.509,0.06,1.129,0.077,1.859c0.017,0.731,0.026,1.558,0.026,2.479l0.524,32.089h-9.822V91.965z"/>
	<path fill="#B1B22F" d="M566.695,91.965h26.366v8.391h-16.449v23.315h14.59v8.392h-14.59v25.127h16.449v8.392h-26.366V91.965z"/>
	<path fill="#85AA97" d="M47.793,208.382h25.955c10.735,0,18.724,2.558,23.966,7.673c6.631,6.631,9.946,16.767,9.946,30.407
		c0,10.483-1.753,18.897-5.257,25.245c-3.506,6.346-8.511,10.277-15.015,11.793l26.902,71.14H94.304l-26.808-71.613v71.613H47.793
		V208.382z M67.496,273.175c7.641,0,13.04-1.767,16.198-5.305c3.157-3.536,4.736-9.504,4.736-17.903
		c0-4.547-0.332-8.431-0.994-11.651c-0.664-3.221-1.705-5.841-3.127-7.862c-1.42-2.021-3.253-3.505-5.494-4.452
		c-2.242-0.947-4.91-1.421-8.004-1.421h-3.315V273.175z"/>
	<path fill="#85AA97" d="M125.662,208.382h52.384v16.672h-32.681v46.321h28.986v16.672h-28.986v49.921h32.681v16.672h-52.384
		V208.382z M162.037,167.27l10.325,11.367l-23.682,16.577l-7.01-8.052L162.037,167.27z"/>
	<path fill="#85AA97" d="M241.043,211.413v19.229c-6-4.294-11.399-6.441-16.198-6.441c-5.179,0-9.41,1.832-12.693,5.494
		c-3.284,3.474-4.926,8.115-4.926,13.925c0,5.115,1.168,9.505,3.505,13.167c1.199,1.958,3.174,4.484,5.92,7.578
		c2.748,3.095,6.3,6.82,10.657,11.178c8.02,8.146,13.482,15.189,16.388,21.124c2.904,5.747,4.357,12.788,4.357,21.124
		c0,11.305-3.189,20.619-9.567,27.944c-6.379,7.138-14.557,10.704-24.534,10.704c-8.399,0-15.567-2.305-21.503-6.915V330.01
		c7.01,5.115,13.388,7.673,19.135,7.673c5.367,0,9.567-1.783,12.599-5.352c3.031-3.567,4.547-8.415,4.547-14.541
		c0-5.305-1.169-10.072-3.505-14.304c-1.2-2.021-2.874-4.341-5.021-6.962c-2.147-2.62-4.831-5.542-8.052-8.763
		c-4.989-4.926-9.126-9.283-12.409-13.072c-3.284-3.789-5.716-7.104-7.294-9.946c-3.031-5.557-4.547-12.566-4.547-21.029
		c0-11.43,2.968-20.492,8.904-27.187c5.999-6.757,14.051-10.136,24.155-10.136C227.971,206.392,234.664,208.066,241.043,211.413z"/>
	<path fill="#85AA97" d="M260.75,208.382h52.384v16.672h-32.681v46.321h28.986v16.672h-28.986v49.921h32.681v16.672H260.75V208.382z
		"/>
	<path fill="#85AA97" d="M327.347,208.382h25.955c10.735,0,18.724,2.558,23.966,7.673c6.631,6.631,9.946,16.767,9.946,30.407
		c0,10.483-1.753,18.897-5.257,25.245c-3.506,6.346-8.511,10.277-15.015,11.793l26.902,71.14h-19.987l-26.808-71.613v71.613h-19.703
		V208.382z M347.05,273.175c7.641,0,13.04-1.767,16.198-5.305c3.157-3.536,4.736-9.504,4.736-17.903
		c0-4.547-0.332-8.431-0.994-11.651c-0.664-3.221-1.705-5.841-3.127-7.862c-1.42-2.021-3.253-3.505-5.494-4.452
		c-2.242-0.947-4.91-1.421-8.004-1.421h-3.315V273.175z"/>
	<path fill="#85AA97" d="M393.753,208.382h19.419l8.81,53.994l1.516,9.757l3.126,21.219c0.505,3.6,0.962,6.884,1.374,9.852
		c0.409,2.969,0.772,5.652,1.089,8.052l0.947,7.199c0.189-1.452,0.347-2.747,0.474-3.884c0.126-1.137,0.252-2.084,0.379-2.842
		l2.558-16.956l3.315-22.261c0.315-2.021,0.615-3.884,0.9-5.589c0.283-1.705,0.552-3.221,0.805-4.547l9.473-53.994h18.377
		l-28.702,146.258h-15.63L393.753,208.382z"/>
	<path fill="#85AA97" d="M490.568,208.382h15.346l31.354,146.258h-19.514l-5.494-28.513h-28.986l-5.589,28.513H458.74
		L490.568,208.382z M509.418,310.876l-4.357-23.303c-2.905-15.851-5.273-32.775-7.104-50.773c-0.885,8.778-2.021,17.667-3.41,26.665
		c-1.39,9-3.031,18.553-4.926,28.655l-3.6,18.756H509.418z"/>
	<path fill="#85AA97" d="M530.167,208.382h64.13v17.24h-22.071v129.018h-19.324V225.622h-22.734V208.382z"/>
	<path fill="#85AA97" d="M601.311,208.382h19.703v146.258h-19.703V208.382z"/>
	<path fill="#85AA97" d="M712.903,285.11c0,25.829-2.874,44.175-8.62,55.036c-5.747,10.862-15.378,16.293-28.892,16.293
		c-14.209,0-24.219-5.84-30.028-17.524c-5.747-11.429-8.62-31.733-8.62-60.909c0-26.018,2.842-44.427,8.525-55.226
		c5.746-10.86,15.472-16.293,29.176-16.293c12.251,0,21.345,4.2,27.281,12.599c3.915,5.621,6.757,13.609,8.525,23.966
		C712.018,252.652,712.903,266.672,712.903,285.11z M692.252,287.194c0-25.323-1.137-42.12-3.41-50.395
		c-2.273-8.336-6.915-12.504-13.925-12.504s-11.684,3.821-14.02,11.462c-2.273,7.705-3.41,23.177-3.41,46.416
		c0,21.408,1.199,36.249,3.6,44.521c2.463,7.831,7.072,11.746,13.83,11.746c6.631,0,11.178-3.662,13.641-10.988
		C691.021,320.191,692.252,306.771,692.252,287.194z"/>
	<path fill="#85AA97" d="M728.536,208.382h18.377l19.608,58.352c5.684,16.482,10.704,34.07,15.062,52.763
		c-1.579-11.304-2.747-21.534-3.505-30.691c-0.758-9.156-1.137-17.775-1.137-25.86v-54.562h19.703v146.258h-18.438l-22.031-65.835
		c-2.018-6.125-3.924-12.409-5.721-18.851s-3.452-13.198-4.965-20.271c-0.127-0.884-0.331-1.956-0.615-3.221
		c-0.284-1.263-0.614-2.714-0.993-4.357c0.189,1.644,0.347,3.048,0.474,4.216c0.126,1.169,0.221,2.164,0.284,2.983l1.042,14.872
		l1.122,18.093c0.068,1.011,0.118,2.242,0.152,3.694c0.034,1.453,0.052,3.095,0.052,4.926l1.042,63.751h-19.514V208.382z"/>
</g>
</svg>
