<?xml version="1.0" encoding="utf-8"?>
<!-- Generator: Adobe Illustrator 16.0.0, SVG Export Plug-In . SVG Version: 6.00 Build 0)  -->
<!DOCTYPE svg PUBLIC "-//W3C//DTD SVG 1.1//EN" "http://www.w3.org/Graphics/SVG/1.1/DTD/svg11.dtd">
<svg version="1.1" id="Layer_1" xmlns="http://www.w3.org/2000/svg" xmlns:xlink="http://www.w3.org/1999/xlink" x="0px" y="0px"
	 width="841.889px" height="595.281px" viewBox="0 0 841.889 595.281" enable-background="new 0 0 841.889 595.281"
	 xml:space="preserve">
<g>
	<g>
		<g>
			<path fill="#FFFFFF" d="M194.183,504.483v-53.274h-10.655v-7.875h30.575v7.875h-10.655v52.811h-9.265V504.483z"/>
			<path fill="#FFFFFF" d="M219.198,504.483v-8.802H228v8.802H219.198z"/>
			<path fill="#FFFFFF" d="M273.399,504.946c-5.096,0-8.802-1.39-11.118-4.169c-2.779-2.779-3.706-6.485-3.706-11.582h8.802
				c0,2.78,0.464,5.097,1.39,6.486c0.927,1.39,2.78,2.316,5.096,2.316c4.17,0,6.486-4.17,6.486-12.972v-8.802
				c-1.854,2.779-4.633,4.169-8.802,4.169c-2.316,0-4.633-0.463-6.022-1.39c-1.854-0.926-3.243-1.853-4.17-3.706
				c-0.926-1.853-1.853-3.242-1.853-5.559c-0.463-1.854-0.463-4.169-0.463-6.949c0-2.779,0.463-5.559,0.926-7.875
				c0.464-2.316,1.39-4.633,2.779-6.485c1.391-1.854,2.78-3.243,4.633-4.17c1.854-0.926,4.17-1.39,6.949-1.39
				c1.853,0,4.169,0.464,5.559,0.927c1.854,0.927,3.243,1.854,4.17,2.779c1.39,1.39,2.315,2.779,2.779,4.17
				c0.927,1.853,1.39,3.706,1.853,5.559c0.464,1.854,0.464,4.169,0.464,6.485v19.457c0,2.316,0,4.633-0.464,6.948
				c-0.463,2.316-0.926,4.17-1.39,6.022c-0.927,1.854-1.853,3.706-2.779,5.096s-2.779,2.316-4.169,3.243
				C278.031,504.483,275.715,504.946,273.399,504.946z M273.399,473.908c2.779,0,5.096-1.39,6.485-4.169v-8.802
				c0-1.39,0-2.779-0.463-4.17c0-1.39-0.464-2.315-0.927-3.242s-0.927-1.854-1.853-2.316c-0.927-0.463-1.854-0.927-3.243-0.927
				s-2.316,0.464-3.243,0.927c-0.926,0.463-1.39,1.39-1.853,2.316s-0.927,2.316-0.927,3.242c0,1.391-0.463,2.316-0.463,4.17
				c0,0.927,0,1.39,0,1.853c0,0.464,0,0.927,0,1.854s0,1.39,0,1.853c0,0.464,0,0.927,0.463,1.854c0.464,0.927,0,1.39,0.464,1.39
				c0,0.463,0.463,0.927,0.463,1.39s0.463,0.927,0.927,1.39c0.463,0.464,0.463,0.464,0.926,0.927
				c0.464,0.463,0.927,0.463,1.391,0.463C272.472,473.908,272.936,473.908,273.399,473.908z"/>
			<path fill="#FFFFFF" d="M315.555,504.946c-5.096,0-8.802-1.39-11.118-4.169s-3.706-6.485-3.706-11.582v-2.315h8.802
				c0,1.39,0,2.315,0,3.242s0.463,1.854,0.463,2.779c0.464,0.927,0.464,1.854,0.927,2.316c0.463,0.464,0.927,0.927,1.854,1.39
				c0.926,0.464,1.853,0.464,2.779,0.464s2.316,0,2.779-0.464c0.927-0.463,1.39-0.926,1.854-1.39
				c0.463-0.463,0.926-1.39,0.926-2.316c0.464-0.926,0.464-1.853,0.464-2.779s0-2.316,0-3.242c0-3.706-0.464-6.022-1.854-7.876
				c-1.39-1.853-3.706-2.779-6.485-2.779v-8.802c3.243,0,5.559-0.463,6.485-1.853c0.927-1.391,2.316-3.706,2.316-6.949
				c0-2.779-0.463-5.096-1.39-6.485s-2.779-2.316-5.096-2.316c-0.927,0-2.316,0-2.779,0.463c-0.464,0.464-1.391,0.927-1.854,1.39
				c-0.463,0.464-0.927,1.391-0.927,2.316c-0.463,0.927-0.463,1.854-0.463,2.779c0,0.927,0,2.316,0,3.243h-8.802v-1.39
				c0-5.096,1.39-8.802,3.706-11.581c2.779-2.78,6.485-4.17,11.118-4.17c5.096,0,8.802,1.39,11.118,4.17
				c2.779,2.779,3.706,6.485,3.706,11.581c0,3.243-0.927,6.022-2.316,8.339s-3.706,3.706-6.485,4.632
				c2.779,0.927,5.096,2.78,6.485,5.096c1.39,2.78,2.316,6.022,2.316,9.729c0,5.56-1.39,10.191-3.706,13.435
				C324.357,503.556,320.651,504.946,315.555,504.946z"/>
			<path fill="#FFFFFF" d="M356.784,504.946c-1.854,0-4.17-0.463-5.56-0.927c-1.853-0.926-3.242-1.853-4.169-2.779
				c-1.39-1.39-2.316-2.779-2.779-4.169c-0.464-1.39-1.39-3.706-1.854-5.56c-0.463-1.853-0.463-4.169-0.463-6.485V465.57
				c0-2.316,0-4.633,0.463-6.949c0.464-2.316,0.927-4.169,1.39-6.022c0.927-1.853,1.854-3.706,2.78-5.096
				c0.926-1.39,2.779-2.316,4.169-3.242c1.853-0.927,3.706-1.391,6.022-1.391c5.096,0,8.802,1.391,11.118,4.17
				c2.779,2.779,3.706,6.485,3.706,11.581h-8.802c0-2.779-0.464-5.096-1.39-6.485c-0.927-1.39-2.78-2.316-5.097-2.316
				c-4.169,0-6.485,4.169-6.485,12.971v8.802c1.854-2.779,4.633-4.169,8.802-4.169c2.316,0,4.633,0.463,6.022,1.39
				c1.854,0.927,3.243,1.854,4.17,3.706c0.926,1.39,1.853,3.243,1.853,5.56c0,2.315,0.463,4.169,0.463,6.948
				s-0.463,5.56-0.926,7.876c-0.464,2.315-1.39,4.632-2.78,6.485c-1.39,1.853-2.779,3.242-4.632,4.169
				C361.88,504.483,359.564,504.946,356.784,504.946z M353.541,497.071c0.927,0.463,1.854,0.927,3.243,0.927
				s2.316-0.464,3.242-0.927c0.927-0.464,1.391-1.39,1.854-2.316s0.927-2.316,0.927-3.243c0-1.39,0.463-2.316,0.463-4.169
				c0-0.927,0-1.39,0-1.853c0-0.464,0-0.927,0-1.854s0-1.39,0-1.853c0-0.464,0-0.927-0.463-1.854c0-0.463,0-1.39-0.464-1.39
				c0-0.463-0.463-0.927-0.463-1.39c-0.463-0.464-0.463-0.927-0.927-1.39c-0.463-0.464-0.463-0.464-0.927-0.927
				c-0.463-0.463-0.926-0.463-1.39-0.463c-0.463,0-0.926,0-1.853,0c-2.779,0-5.096,1.39-6.485,4.169v8.802
				c0,1.39,0,2.779,0.463,4.169c0,1.39,0.463,2.316,0.927,3.243C352.152,495.218,352.615,496.144,353.541,497.071z"/>
			<path fill="#FFFFFF" d="M406.352,504.483l11.118-53.274h-16.214v-7.412h24.09v4.169l-10.655,56.518H406.352z"/>
			<path fill="#FFFFFF" d="M452.214,504.946c-1.853,0-4.169-0.463-5.559-0.927c-1.854-0.926-3.243-1.853-4.17-2.779
				c-1.39-1.39-2.316-2.779-2.779-4.169c-0.927-1.854-1.39-3.706-1.853-5.56c-0.464-1.853-0.464-4.169-0.464-6.485V465.57
				c0-2.316,0-4.633,0.464-6.949c0.463-2.316,0.926-4.169,1.39-6.022c0.926-1.853,1.853-3.706,2.779-5.096s2.779-2.316,4.169-3.242
				c1.854-0.927,3.706-1.391,6.022-1.391c5.096,0,8.802,1.391,11.118,4.17c2.779,2.779,3.706,6.485,3.706,11.581h-8.802
				c0-2.779-0.463-5.096-1.39-6.485s-2.779-2.316-5.096-2.316c-4.17,0-6.485,4.169-6.485,12.971v8.802
				c1.853-2.779,4.632-4.169,8.802-4.169c2.315,0,4.632,0.463,6.021,1.39c1.391,0.927,3.243,1.854,4.17,3.706
				c0.927,1.854,1.853,3.243,1.853,5.56c0,2.315,0.464,4.169,0.464,6.948s-0.464,5.56-0.927,7.876
				c-0.463,2.315-1.39,4.632-2.779,6.485c-1.39,1.853-2.78,3.242-4.633,4.169C456.383,504.483,454.993,504.946,452.214,504.946z
				 M448.971,497.071c0.927,0.463,1.854,0.927,3.243,0.927s2.316-0.464,3.243-0.927c0.926-0.464,1.39-1.39,1.853-2.316
				c0.464-0.927,0.927-2.316,0.927-3.243c0-1.39,0.463-2.316,0.463-4.169c0-0.927,0-1.39,0-1.853c0-0.464,0-0.927,0-1.854
				s0-1.39,0-1.853c0-0.464,0-0.927-0.463-1.854c0-0.463,0-1.39-0.463-1.39c0-0.463-0.464-0.927-0.464-1.39
				c-0.463-0.464-0.463-0.927-0.927-1.39c-0.463-0.464-0.463-0.464-0.926-0.927c-0.464-0.463-0.927-0.463-1.39-0.463
				c-0.464,0-0.927,0-1.854,0c-2.779,0-5.096,1.39-6.485,4.169v8.802c0,1.39,0,2.779,0.463,4.169c0,1.39,0.464,2.316,0.927,3.243
				C447.581,495.218,448.045,496.144,448.971,497.071z"/>
			<path fill="#FFFFFF" d="M484.179,504.483v-47.716h-6.486v-6.485c4.17-1.39,7.412-3.706,8.803-6.485h6.485v60.687H484.179
				L484.179,504.483z"/>
			<path fill="#FFFFFF" d="M540.233,504.946c-5.096,0-8.803-1.39-11.118-4.169c-2.78-2.779-3.706-6.485-3.706-11.582v-2.315h8.802
				c0,1.39,0,2.315,0,3.242s0.463,1.854,0.463,2.779c0.464,0.927,0.464,1.854,0.927,2.316c0.463,0.464,0.927,0.927,1.853,1.39
				c0.927,0.464,1.854,0.464,2.78,0.464c0.926,0,2.315,0,2.779-0.464c0.926-0.463,1.39-0.926,1.853-1.39
				c0.464-0.463,0.927-1.39,0.927-2.316c0.463-0.926,0.463-1.853,0.463-2.779s0-2.316,0-3.242c0-3.706-0.463-6.022-1.853-7.876
				c-1.39-1.853-3.706-2.779-6.485-2.779v-8.802c3.242,0,5.559-0.463,6.485-1.853c1.39-1.391,1.853-3.706,1.853-6.949
				c0-2.779-0.463-5.096-1.39-6.485s-2.779-2.316-5.096-2.316c-0.927,0-2.316,0-2.779,0.463c-0.927,0.464-1.39,0.927-1.854,1.39
				c-0.463,0.464-0.926,1.391-0.926,2.316c-0.464,0.927-0.464,1.854-0.464,2.779c0,0.927,0,2.316,0,3.243h-8.802v-1.39
				c0-5.096,1.39-8.802,3.706-11.581c2.779-2.78,6.486-4.17,11.118-4.17c5.096,0,8.802,1.39,11.118,4.17
				c2.779,2.779,3.706,6.485,3.706,11.581c0,3.243-0.927,6.022-2.316,8.339s-3.706,3.706-6.485,4.632
				c2.779,0.927,5.096,2.78,6.485,5.096c1.39,2.316,2.316,6.022,2.316,9.729c0,5.56-1.39,10.191-3.706,13.435
				C549.497,503.556,545.328,504.946,540.233,504.946z"/>
			<path fill="#FFFFFF" d="M582.852,504.483v-15.751h-17.141v-9.729l15.287-35.67h10.655v37.06h6.485v8.339h-6.485v15.751H582.852
				L582.852,504.483z M574.05,480.393h8.802v-25.941L574.05,480.393z"/>
			<path fill="#FFFFFF" d="M623.617,504.946c-3.242,0-6.021-0.927-8.338-2.316s-4.17-3.706-5.096-6.485
				c-0.927-2.779-1.854-5.559-1.854-9.265v-25.942c0-5.56,1.39-10.191,3.706-12.972c2.316-2.779,6.485-4.632,11.581-4.632
				s8.802,1.39,11.582,4.632c2.316,3.243,3.706,7.412,3.706,12.972v25.942c0,5.559-1.39,9.728-3.706,12.971
				C632.419,503.094,628.25,504.946,623.617,504.946z M623.617,497.998c4.17,0,6.486-3.706,6.486-10.655V461.4
				c0-1.39,0-2.316,0-3.242c0-0.927-0.464-1.854-0.464-2.78c-0.463-0.926-0.463-1.853-0.927-2.315
				c-0.463-0.464-0.926-1.391-1.853-1.391c-0.927-0.463-1.853-0.463-2.779-0.463s-1.854,0-2.779,0.463
				c-0.927,0.464-1.391,0.927-1.854,1.391c-0.463,0.463-0.927,1.39-0.927,2.315c-0.463,0.927-0.463,1.854-0.463,2.78
				c0,0.926,0,1.853,0,3.242v25.942c0,1.39,0,2.779,0.463,3.706c0,1.39,0.464,2.316,0.927,3.243
				c0.463,0.926,0.927,1.853,1.854,2.779C621.302,497.534,622.228,497.998,623.617,497.998z"/>
		</g>
	</g>
</g>
<g>
	<path fill="#B1B22F" d="M297.325,96.097h9.917v28.798h14.542V96.097h9.918v73.617h-9.918v-36.427h-14.542v36.427h-9.917V96.097z"/>
	<path fill="#B1B22F" d="M357.445,96.097h7.725l15.781,73.617h-9.821l-2.766-14.352h-14.59l-2.813,14.352h-9.536L357.445,96.097z
		 M366.933,147.686l-2.193-11.729c-1.462-7.978-2.654-16.497-3.576-25.556c-0.445,4.418-1.018,8.892-1.716,13.422
		c-0.7,4.529-1.526,9.337-2.479,14.423l-1.812,9.44H366.933z"/>
	<path fill="#B1B22F" d="M388.863,96.097h32.422l-22.123,64.939h20.931v8.678H386.24l22.314-65.225h-19.691V96.097z"/>
	<path fill="#B1B22F" d="M449.694,96.097h32.278v8.678h-11.109v64.939h-9.727v-64.939h-11.442V96.097z"/>
	<path fill="#B1B22F" d="M491.361,96.097h9.727v52.018c0,5.309,0.477,8.837,1.431,10.585c0.984,1.748,2.924,2.622,5.816,2.622
		s4.8-0.763,5.722-2.289c0.953-1.557,1.431-4.72,1.431-9.488V96.097h9.727v53.448c0,8.01-1.225,13.43-3.672,16.259
		c-2.925,3.211-7.39,4.815-13.397,4.815c-6.612,0-11.269-2.066-13.97-6.198c-1.876-2.829-2.813-8.264-2.813-16.306V96.097z"/>
	<path fill="#85AA97" d="M63.496,203.245H96.42c13.617,0,23.75,3.245,30.4,9.733c8.411,8.411,12.617,21.269,12.617,38.571
		c0,13.298-2.224,23.972-6.669,32.023c-4.446,8.05-10.796,13.037-19.046,14.959l34.126,90.24h-25.354L88.49,297.931v90.841H63.496
		V203.245z M88.49,285.435c9.692,0,16.541-2.242,20.548-6.729c4.005-4.485,6.008-12.055,6.008-22.71
		c0-5.768-0.421-10.694-1.262-14.78s-2.163-7.409-3.965-9.973c-1.803-2.563-4.127-4.446-6.97-5.647
		c-2.845-1.202-6.229-1.803-10.153-1.803H88.49V285.435z"/>
	<path fill="#85AA97" d="M177.037,203.245h66.448v21.148h-41.455v58.758h36.77v21.149h-36.77v63.323h41.455v21.148h-66.448V203.245z
		"/>
	<path fill="#85AA97" d="M338.163,207.091v24.393c-7.611-5.447-14.461-8.171-20.548-8.171c-6.569,0-11.937,2.324-16.102,6.969
		c-4.166,4.406-6.248,10.294-6.248,17.664c0,6.488,1.481,12.057,4.446,16.702c1.521,2.484,4.025,5.689,7.51,9.613
		c3.484,3.926,7.99,8.651,13.518,14.179c10.173,10.334,17.103,19.267,20.788,26.795c3.684,7.291,5.527,16.222,5.527,26.796
		c0,14.341-4.046,26.155-12.137,35.447c-8.092,9.053-18.465,13.578-31.121,13.578c-10.654,0-19.747-2.924-27.276-8.771v-24.753
		c8.893,6.488,16.982,9.732,24.272,9.732c6.808,0,12.136-2.262,15.981-6.789c3.845-4.524,5.768-10.674,5.768-18.444
		c0-6.729-1.483-12.776-4.446-18.144c-1.522-2.563-3.646-5.508-6.368-8.832c-2.725-3.323-6.128-7.029-10.214-11.115
		c-6.329-6.248-11.576-11.775-15.74-16.582c-4.167-4.806-7.251-9.012-9.253-12.617c-3.845-7.048-5.768-15.94-5.768-26.675
		c0-14.498,3.765-25.994,11.295-34.486c7.609-8.571,17.823-12.857,30.641-12.857C321.581,200.722,330.071,202.845,338.163,207.091z"
		/>
	<path fill="#85AA97" d="M377.926,203.245h66.448v21.148h-41.455v58.758h36.77v21.149h-36.77v63.323h41.455v21.148h-66.448V203.245z
		"/>
	<path fill="#85AA97" d="M477.168,203.245h32.924c13.617,0,23.75,3.245,30.4,9.733c8.411,8.411,12.617,21.269,12.617,38.571
		c0,13.298-2.224,23.972-6.669,32.023c-4.446,8.05-10.796,13.037-19.046,14.959l34.126,90.24h-25.354l-34.006-90.841v90.841h-24.993
		V203.245z M502.161,285.435c9.692,0,16.541-2.242,20.548-6.729c4.005-4.485,6.008-12.055,6.008-22.71
		c0-5.768-0.421-10.694-1.262-14.78s-2.163-7.409-3.965-9.973c-1.803-2.563-4.127-4.446-6.97-5.647
		c-2.845-1.202-6.229-1.803-10.153-1.803h-4.206V285.435z"/>
	<path fill="#85AA97" d="M576.17,203.245h24.633l11.175,68.491l1.923,12.376l3.965,26.916c0.641,4.566,1.221,8.732,1.742,12.496
		c0.521,3.767,0.98,7.17,1.382,10.214l1.202,9.132c0.24-1.842,0.438-3.484,0.601-4.926c0.159-1.442,0.319-2.645,0.48-3.605
		l3.244-21.508l4.206-28.238c0.399-2.562,0.78-4.926,1.142-7.089c0.36-2.163,0.7-4.085,1.021-5.768l12.017-68.491h23.311
		l-36.408,185.527h-19.826L576.17,203.245z"/>
	<path fill="#85AA97" d="M713.743,203.245h19.466l39.772,185.527h-24.753l-6.969-36.168h-36.77l-7.089,36.168h-24.032
		L713.743,203.245z M737.655,333.259l-5.527-29.56c-3.686-20.106-6.689-41.575-9.012-64.406c-1.122,11.136-2.564,22.41-4.325,33.825
		c-1.764,11.415-3.846,23.533-6.249,36.348l-4.565,23.792H737.655z"/>
</g>
</svg>
