<?xml version="1.0" encoding="utf-8"?>
<!-- Generator: Adobe Illustrator 18.1.1, SVG Export Plug-In . SVG Version: 6.00 Build 0)  -->
<!DOCTYPE svg PUBLIC "-//W3C//DTD SVG 1.1//EN" "http://www.w3.org/Graphics/SVG/1.1/DTD/svg11.dtd">
<svg version="1.1" id="Layer_1" xmlns="http://www.w3.org/2000/svg" xmlns:xlink="http://www.w3.org/1999/xlink" x="0px" y="0px"
	 viewBox="0 0 21 20.9" enable-background="new 0 0 21 20.9" xml:space="preserve">
<g>
	<path fill="#FFFFFF" d="M14.7,8.1c-1.6,0-2.8,1.3-2.8,2.8s1.3,2.8,2.8,2.8c1.6,0,2.8-1.3,2.8-2.8S16.3,8.1,14.7,8.1z M14.7,12.9
		c-1.1,0-1.9-0.9-1.9-1.9c0-1.1,0.9-1.9,1.9-1.9c1.1,0,1.9,0.9,1.9,1.9C16.6,12,15.8,12.9,14.7,12.9z"/>
	<path fill="#FFFFFF" d="M6.5,8.1c-1.6,0-2.8,1.3-2.8,2.8s1.3,2.8,2.8,2.8c1.6,0,2.8-1.3,2.8-2.8S8.1,8.1,6.5,8.1z M6.5,12.9
		c-1.1,0-1.9-0.9-1.9-1.9C4.6,9.9,5.5,9,6.5,9c1.1,0,1.9,0.9,1.9,1.9C8.4,12,7.6,12.9,6.5,12.9z"/>
	<path fill="#FFFFFF" d="M16.7,0H4.4C2,0,0,2,0,4.4v2.4v1.7v8c0,2.4,2,4.4,4.4,4.4h12.3c2.4,0,4.4-2,4.4-4.4v-8V6.8V4.4
		C21,2,19.1,0,16.7,0z M19.1,7.3c-0.2,0.2-0.5,0.7-0.6,1c0.5,0.8,0.8,1.7,0.8,2.6c0,2.5-2,4.6-4.6,4.6c-1.1,0-2.2-0.4-3-1.1
		l-1.1,1.5l-1.1-1.5c-0.8,0.7-1.9,1.1-3,1.1c-2.5,0-4.6-2-4.6-4.6c0-0.9,0.3-1.7,0.7-2.5C2.7,8.1,2.3,7.5,2.1,7.3L1.2,6.4l3.9,0
		C5.7,6.1,7.5,5.1,10,5v0l0.6,0l0.2,0v0c0,0,0,0,0.1,0l0.4,0c2.6,0.2,4.4,1.1,4.9,1.5h3.8L19.1,7.3z"/>
	<path fill="#FFFFFF" d="M10.6,8.9c0.5-1,1.3-1.7,2.2-2.1c-0.6-0.2-1.4-0.3-2.2-0.3C9.7,6.5,9,6.6,8.4,6.8C9.4,7.2,10.1,8,10.6,8.9z
		"/>
</g>
</svg>
