<?xml version="1.0" encoding="utf-8"?>
<!-- Generator: Adobe Illustrator 18.1.1, SVG Export Plug-In . SVG Version: 6.00 Build 0)  -->
<!DOCTYPE svg PUBLIC "-//W3C//DTD SVG 1.1//EN" "http://www.w3.org/Graphics/SVG/1.1/DTD/svg11.dtd">
<svg version="1.1" id="Layer_1" xmlns="http://www.w3.org/2000/svg" xmlns:xlink="http://www.w3.org/1999/xlink" x="0px" y="0px"
	 viewBox="0 0 23.8 19.4" enable-background="new 0 0 23.8 19.4" xml:space="preserve">
<path fill="#FFFFFF" d="M3.1,7.4c-3.7-2.8-1.5-6.6-1.5-6.6c4.9,5.6,10,5.2,10,5.2s-0.1-0.2-0.1-1.1C11.5,3.5,12.9,0,16.5,0
	c2.2,0,3.5,1.6,3.5,1.6s1.8-0.4,3.1-1.2c0,0-0.4,1.7-2.1,2.7c0,0,1.4-0.1,2.8-0.8c0,0-1.2,1.8-2.4,2.5c0.2,3-1.7,14.5-14,14.5
	c-4.6,0-7.4-2.2-7.4-2.2s4.3,0.5,7.2-2.1c0,0-3.1,0.2-4.6-3.4c0,0,1.2,0.3,2.2-0.1c0,0-3.9-0.9-3.9-4.9C2.1,7.4,3.1,7.4,3.1,7.4z"/>
</svg>
