<?xml version="1.0" encoding="utf-8"?>
<!-- Generator: Adobe Illustrator 18.1.1, SVG Export Plug-In . SVG Version: 6.00 Build 0)  -->
<!DOCTYPE svg PUBLIC "-//W3C//DTD SVG 1.1//EN" "http://www.w3.org/Graphics/SVG/1.1/DTD/svg11.dtd">
<svg version="1.1" id="Layer_1" xmlns="http://www.w3.org/2000/svg" xmlns:xlink="http://www.w3.org/1999/xlink" x="0px" y="0px"
	 viewBox="0 0 228.6 89.2" enable-background="new 0 0 228.6 89.2" xml:space="preserve">
<g>
	<g>
		<path fill="#74AD98" d="M32.4,65.6c3.7,10.4,8,15.6,12.9,15.6c0.5,0,1,0,1.5,0c0.9,0.5,1.4,1.1,1.4,1.8c0,1.2-1.1,2.2-3.4,2.9
			c-1.7,0.6-3.3,0.8-4.7,0.8c-3.1,0-5.9-1.5-8.5-4.6c-1.3-1.6-3-4.5-5.1-8.6c-1.6-3.1-2.7-4.7-3.4-4.7c-0.6,0-2.3,0.2-5.2,0.7
			c-0.6,2.7-0.8,6.7-0.7,11.9l0.1,5.9c0,0.4-0.5,0.8-1.4,1c-0.7,0.2-1.3,0.3-1.9,0.3c-1.5,0-2.6-0.1-3.2-0.4C9.8,88,9.3,87,9.3,85.6
			c0-20.2,0.5-35.5,1.5-45.9H9.7c-1-0.1-2.3,0.2-4.1,0.8c-1.9,0.6-3.3,0.9-4.1,0.9c-0.4,0-0.8-0.3-1.1-1C0.1,39.8,0,39.2,0,38.6
			c0-3.4,1.7-5.5,5.2-6.3c1.3-0.3,4.2-0.5,8.8-0.5c7.4,0,13.7,1.1,19.1,3.4c7.7,3.3,11.6,8.4,11.6,15.5
			C44.7,56.2,40.6,61.2,32.4,65.6z M36.4,47.7c0-5.5-5.1-8.2-15.3-8.2c-1.1,0-1.7,0.7-1.8,2c-0.2,4.9-0.6,12.2-1.3,21.9l1.1,0.1
			c3.5,0.3,7.3-1.3,11.2-4.6C34.4,55.4,36.4,51.7,36.4,47.7z"/>
		<path fill="#74AD98" d="M49.1,61.4c0-7,1.4-13.5,4.3-19.5c3.4-7.1,8-10.6,13.6-10.6c1.8,0,5,1.3,9.8,3.9c4.4,2.4,7.3,4.3,8.8,5.8
			c1.9,1.8,3.2,3.3,3.9,4.3c0.6,1,1.4,2.8,2.3,5.5l0.1,0.1c0.7,3.2,1,6,1,8.6c0,8.6-1.8,15.6-5.4,20.9c-3.9,5.8-9.6,8.7-16.9,8.7
			c-3.2,0-6.8-1.5-10.8-4.5c-4-3-6.8-6.2-8.3-9.5C49.9,71.7,49.1,67.2,49.1,61.4z M69.6,83.7c4.4,0,8.1-2.7,11.2-8.1
			c2.8-4.9,4.2-10,4.2-15.2c0-5.8-1.2-10.7-3.6-14.7c-2.7-4.6-6.5-7-11.3-7c-4.6,0-8,3.6-10.1,10.8c-1.6,5.2-2.3,11-2.3,17.5
			c0,4.4,1,8.2,3,11.4C63,81.9,65.9,83.7,69.6,83.7z"/>
		<path fill="#74AD98" d="M119.5,74.8c1.6-3.5,3.6-9.8,6.1-19l5.4-19.7c0.6-2.1,2.7-3.2,6.2-3.2c2.4,0,3.6,2.6,3.6,7.8
			c0,1-0.1,2.5-0.2,4.4c-0.2,2-0.2,3.4-0.2,4.4c0,20.4,1.3,30.5,3.9,30.5c0.5,0,1.9-0.7,4.3-2c1.3,0.4,2,1.1,2,2.1
			c0,1.5-1.2,3.1-3.7,4.7c-2.2,1.5-4,2.3-5.5,2.3c-5.6,0-8.7-6.7-9.3-20.2c0-1.3-0.1-5.2-0.3-11.8l-4.4,16.6
			c-2.2,8.3-4.4,12.5-6.6,12.5c-0.4,0-1.9-0.1-4.5-0.4c-2-0.2-3.6-2.3-4.8-6.2c-0.6-2.1-1.4-6-2.3-11.9c-0.7-5-1.5-8.2-2.2-9.6
			c-1.8,12.5-2.8,22.1-3,28.7c0,1.6,0,2.4,0,2.5c-0.7,1.2-1.7,1.8-2.8,1.8c-2,0-3-1.2-3-3.6c0-0.5,0-1,0.1-1.5l2.3-24.9
			c0.8-8.6,1.3-17,1.4-25c1.2-1.6,3.2-2.4,6-2.4c1.5,0,2.5,0.2,3.2,0.6c0.9,0.6,1.4,1.6,1.4,3.2C112.6,47,114.9,60.1,119.5,74.8z"/>
		<path fill="#74AD98" d="M164.4,58.8c-9.1-2-13.6-5.7-13.6-11c0-5.2,4-9.6,12.1-13.1c6.7-3,12.7-4.4,18.2-4.4
			c2.7,0,4.8,0.9,6.4,2.6c1.6,1.7,2.4,4.1,2.4,7.1c0,1.3-0.4,2.5-1.2,3.6c-0.8,1.1-1.7,1.6-2.9,1.6c-1.6,0-2.9-0.8-3.8-2.3
			c-0.8-1.3-1.2-2.9-1.3-4.8h-1.4c-3.4-0.2-7.3,0.9-11.8,3.3c-4.3,2.3-7.7,4.9-10.1,7.8c-0.1,2.7,5.1,4,15.5,4
			c6.3,0,9.8-0.2,10.6-0.6c1.2,0.3,1.8,2.1,1.8,5.6c0,1.4-0.3,2.3-0.8,2.6c-0.1,0.1-1,0.3-2.7,0.6c-3.7,0.6-8.8,2.5-15.3,5.6
			c-7.9,3.8-11.8,7.3-11.8,10.3c0,2,1.3,3.3,3.8,3.8c0.8,0.2,2.6,0.2,5.6,0.2c7.5,0,14.8-1.9,22-5.8c3.2-2.3,5.1-3.5,5.9-3.5
			c1.4,0,2.1,0.8,2.1,2.4c0,3-3.9,6.3-11.6,9.7c-6.8,3-11.9,4.5-15.4,4.5c-4.1,0-8-1.3-11.6-3.9c-4.3-3-6.4-6.7-6.4-11.2
			c0-3.7,1.8-7,5.4-9.9C157.2,61.8,160.5,60.1,164.4,58.8z"/>
		<path fill="#74AD98" d="M208.5,79.5c-1.1,0-0.2-0.1,2.6-0.2c2.8-0.1,4.3-0.2,4.7-0.2c8.5,0,12.8,1.5,12.8,4.5
			c0,1.7-4.4,2.9-13.1,3.7c-5.2,0.5-10.3,0.7-15.1,0.7c-1.3,0-1.9-0.7-1.9-2.2c0-1.3,0.5-3.4,1.5-6.4c0.2-0.7,0.4-7.5,0.6-20.6
			c0.1-9.9,0.2-18,0.2-24.3c0-1.6,1.7-2.5,5.2-2.5c3.4,0,5.1,0.9,5.1,2.8c0,1.7-0.2,3.9-0.7,6.7c-0.6,3.2-0.9,5.4-1,6.6
			c-0.8,12.5-1.2,20.2-1.2,23.2c0,1.9,0.1,3.4,0.2,4.5V79.5z"/>
	</g>
</g>
<g>
	<path fill="#CE0823" d="M14,25.5c0.3-0.2,1.1-2.4,2.3-6.4c1.6-5.1,2.7-8.7,3.5-10.8c1.4-3.8,2.5-5.7,3.2-5.7c0.8,0,1.2,0.5,1.2,1.4
		c0,0.2-1.1,4-3.4,11.4l-3.7,11.8c-0.4,1.2-0.8,2.1-1.4,2.5s-1.3,0.7-2.5,0.7c-1.4,0-2.8-2-4.3-6c-1.2-3.2-2.3-7.2-3.3-12.2
		C5,7.8,4.5,4.8,4.5,3c0-1.5,0.8-2.3,2.3-2.3c0.6,0,1.1,0.4,1.4,1.3c0.1,0.3,0.3,1.1,0.5,2.2l2.3,10.8C12,19.1,13,22.6,14,25.5z"/>
	<path fill="#CE0823" d="M26.8,26.6c0.2-0.5,0.3-4.7,0.4-12.6V9.4c0-1.7-0.1-3.3-0.5-4.7h-0.2c-0.6,0-1.1-0.2-1.7-0.7
		c-0.6-0.5-0.9-1-0.9-1.6c0-0.5,0.5-1,1.6-1.3c0.8-0.2,1.5-0.3,2.3-0.3c0.3,0,0.7,0,1.2,0s0.9,0,1.1,0c3.4,0,5,0.8,5,2.3
		c0,0.6-0.5,1.1-1.4,1.3c-1.3,0.3-1.9,0.5-2,0.6C31.4,8,31.3,12,31.3,16.7v9.3c0,0.3,0.5,0.7,1.5,1.1c1,0.4,1.5,0.9,1.5,1.4
		c0,1.1-1.4,1.6-4.2,1.6c-1.8,0-3,0-3.5-0.1c-1.8-0.2-2.8-0.7-2.8-1.4c0-0.4,0.4-0.8,1.3-1.2C25.4,27.2,25.9,26.9,26.8,26.6z"/>
	<path fill="#CE0823" d="M50.9,22.5c-0.2-1.4-0.3-2.9-0.3-4.5c0-1.8,0-5,0.1-9.6c0.1-5,0.7-7.5,1.9-7.5c0.7,0,1.3,0.3,1.8,0.8
		C54,11.5,53.8,18.6,53.8,23c0,2.1,0,4,0,5.9c-0.8,0.5-1.7,0.8-2.7,0.8c-1.6,0-3.5-2.7-5.9-8.1c-0.8-1.9-1.2-2.9-1.1-3.1
		c-0.4-0.7-0.8-1.7-1.3-3c-0.5-1.3-0.9-2.3-1.3-3.2c-0.2,2-0.3,4.4-0.3,7c0,1.2,0,2.9,0.1,5.3s0.1,4.1,0.1,5.3
		c0,1.4-0.7,2.1-2.1,2.1c-1.2,0-1.8-0.9-1.7-2.6c0.2-5.7,0.4-12.8,0.4-21.2c0-2.9,0.1-4.6,0.4-5.2c0.5-1,1.7-1.6,3.7-1.6
		c0.7,0,1.2,0.4,1.4,1.2c1.2,4.8,2.1,8.3,2.9,10.5C47.5,17.1,49.1,20.2,50.9,22.5z"/>
	<path fill="#CE0823" d="M76.3,15.7l-0.3,0c-0.2,0-0.4,0-0.6,0c-1.2,0-2.1-0.6-2.6-1.8c-0.3-0.8-0.5-2.2-0.5-4.2V9
		c0-1.6-0.1-2.7-0.3-3.3c-0.3-1-0.9-1.4-1.8-1.4c-2.9,0-5.1,2-6.6,5.9c-1.1,3-1.6,6.4-1.6,10.5c0,4.2,1.8,6.3,5.4,6.3
		c1.4,0,3-0.6,4.6-1.8c1.1-0.7,2.3-1.8,3.7-3.2c1.2-1.2,1.8-1.8,2-1.8c0.3,0,0.5,0.2,0.8,0.5c0.2,0.3,0.3,0.6,0.3,0.9
		c0,1.7-1.4,3.7-4.2,5.9c-2.7,2.1-4.9,3.1-6.6,3.1c-2.6,0-4.9-1.1-6.9-3.3c-2-2.2-3-4.8-3-7.8c0-4.2,0.7-8.2,2-11.9
		c1.7-4.8,4.2-7.3,7.3-7.3c3,0,5.3,1.4,7,4.1c1.5,2.4,2.3,5.4,2.3,8.9C76.7,14.1,76.5,14.9,76.3,15.7z"/>
	<path fill="#CE0823" d="M88.1,14.8c-4.7-1-7.1-2.9-7.1-5.7c0-2.7,2.1-5,6.3-6.8C90.8,0.8,93.9,0,96.8,0c1.4,0,2.5,0.5,3.3,1.4
		s1.3,2.1,1.3,3.7c0,0.7-0.2,1.3-0.6,1.9s-0.9,0.8-1.5,0.8c-0.8,0-1.5-0.4-2-1.2c-0.4-0.7-0.6-1.5-0.7-2.5h-0.7
		c-1.7-0.1-3.8,0.5-6.1,1.7c-2.2,1.2-4,2.5-5.3,4c0,1.4,2.6,2.1,8,2.1c3.3,0,5.1-0.1,5.5-0.3c0.6,0.1,0.9,1.1,0.9,2.9
		c0,0.7-0.1,1.2-0.4,1.4c-0.1,0.1-0.5,0.2-1.4,0.3c-1.9,0.3-4.6,1.3-7.9,2.9c-4.1,2-6.1,3.8-6.1,5.4c0,1,0.7,1.7,2,2
		c0.4,0.1,1.4,0.1,2.9,0.1c3.9,0,7.7-1,11.4-3c1.6-1.2,2.7-1.8,3.1-1.8c0.7,0,1.1,0.4,1.1,1.2c0,1.6-2,3.2-6,5
		c-3.5,1.6-6.2,2.3-8,2.3c-2.1,0-4.1-0.7-6-2c-2.2-1.6-3.3-3.5-3.3-5.8c0-1.9,0.9-3.7,2.8-5.1C84.4,16.4,86.1,15.5,88.1,14.8z"/>
	<path fill="#CE0823" d="M120,22.5c-0.2-1.4-0.3-2.9-0.3-4.5c0-1.8,0-5,0.1-9.6c0.1-5,0.7-7.5,1.9-7.5c0.7,0,1.3,0.3,1.8,0.8
		c-0.3,9.7-0.5,16.8-0.5,21.3c0,2.1,0,4,0,5.9c-0.8,0.5-1.7,0.8-2.7,0.8c-1.6,0-3.5-2.7-5.9-8.1c-0.8-1.9-1.2-2.9-1.1-3.1
		c-0.4-0.7-0.8-1.7-1.3-3c-0.5-1.3-0.9-2.3-1.3-3.2c-0.2,2-0.3,4.4-0.3,7c0,1.2,0,2.9,0.1,5.3s0.1,4.1,0.1,5.3
		c0,1.4-0.7,2.1-2.1,2.1c-1.2,0-1.8-0.9-1.7-2.6c0.2-5.7,0.4-12.8,0.4-21.2c0-2.9,0.1-4.6,0.4-5.2c0.5-1,1.7-1.6,3.7-1.6
		c0.7,0,1.2,0.4,1.4,1.2c1.2,4.8,2.1,8.3,2.9,10.5C116.6,17.1,118.2,20.2,120,22.5z"/>
	<path fill="#CE0823" d="M140.4,5.7c-0.4,1.1-0.7,4.9-1,11.4c-0.3,5.1-0.4,9.2-0.4,12.5v0c-0.4,0.4-0.8,0.7-1.3,0.7
		c-1.1,0-1.8-0.1-2-0.2c-0.4-0.2-0.5-0.9-0.5-2.1c0-9.2,0.2-16.5,0.6-21.8c-0.2,0-2.2,0-5.8,0c-1.7,0-2.8,0-3.2-0.1
		c-1.5-0.3-2.3-0.9-2.3-2c0-0.4,0.1-0.7,0.4-1c1.5-0.1,4.2-0.5,8.3-1.2c3.6-0.6,6.4-0.9,8.4-0.9c0.7,0,1.2,0,1.6,0
		c2.2,0.2,3.5,0.3,3.7,0.5c0.3,0.2,0.8,1.3,1.5,3.2L148,5.1C145.9,5.3,143.3,5.5,140.4,5.7z"/>
</g>
</svg>
