<?xml version="1.0" encoding="utf-8"?>
<!-- Generator: Adobe Illustrator 21.0.0, SVG Export Plug-In . SVG Version: 6.00 Build 0)  -->
<svg version="1.0" id="Layer_1" xmlns="http://www.w3.org/2000/svg" xmlns:xlink="http://www.w3.org/1999/xlink" x="0px" y="0px"
	 viewBox="0 0 198.5 304.9" style="enable-background:new 0 0 198.5 304.9;" xml:space="preserve">
<style type="text/css">
	.st0{fill:#636362;}
	.st1{opacity:0.95;}
	.st2{clip-path:url(#SVGID_2_);fill:#EF3018;}
	.st3{fill:#EF3018;}
	.st4{filter:url(#Adobe_OpacityMaskFilter);}
	.st5{clip-path:url(#SVGID_4_);fill:url(#SVGID_6_);}
	.st6{clip-path:url(#SVGID_4_);mask:url(#SVGID_5_);fill:url(#SVGID_7_);}
</style>
<g>
	<g>
		<path class="st0" d="M6,254.4c-0.8,0-1.5-0.1-2.1-0.4c-0.6-0.3-1.1-0.6-1.5-1.1c-0.4-0.5-0.7-1-0.9-1.7c-0.2-0.7-0.4-1.4-0.5-2.2
			c-0.1-0.8-0.1-1.6-0.1-2.6v-6.1c0-1,0-1.8,0.1-2.6c0.1-0.8,0.3-1.5,0.5-2.2c0.2-0.7,0.5-1.2,0.9-1.7c0.4-0.5,0.9-0.8,1.5-1.1
			c0.6-0.3,1.3-0.4,2.1-0.4c0.9,0,1.6,0.1,2.2,0.4c0.6,0.3,1.1,0.7,1.5,1.3c0.4,0.6,0.7,1.2,0.8,2c0.2,0.8,0.3,1.6,0.3,2.7
			c0,0.2,0,0.4,0,0.7H8.3v-0.7c0-0.4,0-0.8,0-1.1c0-0.3-0.1-0.6-0.1-0.9c-0.1-0.3-0.1-0.6-0.2-0.8c-0.1-0.2-0.2-0.4-0.4-0.6
			c-0.2-0.2-0.4-0.3-0.6-0.4C6.6,235.1,6.3,235,6,235c-0.4,0-0.8,0.1-1.1,0.2c-0.3,0.2-0.5,0.4-0.7,0.6c-0.2,0.2-0.3,0.6-0.4,1
			c-0.1,0.4-0.2,0.8-0.2,1.2c0,0.4,0,0.9,0,1.5v7.7c0,0.5,0,1,0.1,1.4c0,0.4,0.1,0.8,0.2,1.2c0.1,0.4,0.3,0.8,0.4,1
			c0.2,0.3,0.4,0.5,0.7,0.7c0.3,0.2,0.6,0.3,1,0.3c0.4,0,0.7-0.1,1-0.3c0.3-0.2,0.5-0.4,0.7-0.7c0.2-0.3,0.3-0.6,0.4-1
			c0.1-0.4,0.2-0.8,0.2-1.2c0-0.4,0-0.9,0-1.4v-0.8h2.6v0.8c0,1.1-0.1,2.1-0.2,2.9c-0.2,0.9-0.4,1.6-0.8,2.2
			c-0.4,0.6-0.9,1.1-1.5,1.5C7.7,254.3,6.9,254.4,6,254.4"/>
		<path class="st0" d="M17.8,254.4c-0.9,0-1.7-0.2-2.4-0.5c-0.7-0.3-1.2-0.8-1.6-1.4c-0.4-0.6-0.7-1.4-0.9-2.2
			c-0.2-0.9-0.3-1.8-0.3-3v-7.8c0-1.1,0.1-2.1,0.3-3c0.2-0.8,0.5-1.6,0.9-2.2c0.4-0.6,0.9-1.1,1.6-1.4c0.7-0.3,1.5-0.5,2.4-0.5
			c1.8,0,3.1,0.6,3.9,1.8c0.8,1.2,1.2,2.9,1.2,5.2v7.8c0,1.1-0.1,2.1-0.3,2.9c-0.2,0.9-0.5,1.6-0.9,2.2c-0.4,0.6-0.9,1.1-1.6,1.5
			C19.5,254.3,18.8,254.4,17.8,254.4 M15.9,250.9c0.4,0.6,1,1,1.9,1c0.9,0,1.6-0.3,1.9-1c0.4-0.6,0.5-1.6,0.5-2.9v-9.3
			c0-1.2-0.2-2.2-0.5-2.8c-0.3-0.6-1-0.9-1.9-0.9c-0.9,0-1.6,0.3-1.9,0.9c-0.4,0.6-0.5,1.5-0.5,2.8v9.3
			C15.4,249.3,15.6,250.3,15.9,250.9"/>
		<polygon class="st0" points="25.7,254.2 25.7,232.7 27.6,232.7 32.3,246 32.3,232.7 34.9,232.7 34.9,254.2 33,254.2 28.3,239.9 
			28.3,254.2 		"/>
		<path class="st0" d="M42.8,254.4c-1.7,0-2.9-0.6-3.8-1.7c-0.9-1.1-1.4-2.7-1.5-4.7l2.6-0.8c0.1,3.1,1,4.6,2.6,4.6
			c1.3,0,2-0.8,2-2.3c0-0.5-0.1-0.9-0.2-1.3c-0.1-0.4-0.3-0.8-0.5-1.1c-0.2-0.3-0.4-0.6-0.6-0.8c-0.2-0.2-0.4-0.4-0.7-0.7l-3.3-3.1
			c-0.6-0.5-1.1-1.2-1.4-2.1c-0.4-0.9-0.5-1.8-0.5-2.9c0-1.6,0.4-2.8,1.3-3.8c0.8-0.9,2-1.4,3.4-1.4c1.5,0,2.7,0.4,3.6,1.3
			c0.9,0.9,1.4,2.1,1.6,3.6c0,0.2,0,0.4,0.1,0.7l-2.6,0.8c0-0.1,0-0.3-0.1-0.6c-0.1-1-0.4-1.8-0.8-2.3c-0.4-0.6-1-0.9-1.8-0.9
			c-0.6,0-1.1,0.2-1.5,0.6c-0.3,0.4-0.5,1-0.5,1.7c0,1.2,0.4,2.2,1.3,3l3.3,3.1c1.8,1.7,2.6,3.6,2.6,5.9c0,1.6-0.4,2.8-1.3,3.7
			C45.3,254,44.2,254.4,42.8,254.4"/>
		<polygon class="st0" points="51.7,254.2 51.7,235.5 48.4,235.5 48.4,232.7 57.6,232.7 57.6,235.5 54.3,235.5 54.3,254.2 		"/>
		<path class="st0" d="M59.4,254.2v-21.5h3.3c2,0,3.4,0.4,4.4,1.3c1,0.9,1.5,2.4,1.5,4.4c0,1.3-0.2,2.3-0.6,3.2
			c-0.4,0.9-1,1.5-1.7,1.8l3,10.7h-2.6l-2.7-10h-2v10H59.4z M62,241.9h0.7c1.1,0,1.9-0.3,2.5-0.8c0.6-0.5,0.8-1.4,0.8-2.6
			c0-1.2-0.3-2.1-0.8-2.6c-0.5-0.5-1.4-0.8-2.5-0.8H62V241.9z"/>
		<path class="st0" d="M78.3,254.1c-0.6,0.2-1.3,0.4-2.1,0.4c-0.8,0-1.5-0.1-2.1-0.4c-0.6-0.2-1.1-0.6-1.5-1c-0.4-0.4-0.7-1-1-1.7
			c-0.2-0.7-0.4-1.4-0.5-2.2c-0.1-0.8-0.2-1.7-0.2-2.6v-13.8h2.6v13.8c0,0.7,0,1.2,0,1.7c0,0.4,0.1,0.9,0.2,1.4
			c0.1,0.5,0.2,0.9,0.4,1.2c0.2,0.3,0.4,0.6,0.8,0.8c0.3,0.2,0.7,0.3,1.2,0.3c0.5,0,0.9-0.1,1.2-0.3c0.3-0.2,0.6-0.5,0.8-0.8
			c0.2-0.3,0.3-0.7,0.4-1.2c0.1-0.5,0.2-1,0.2-1.4c0-0.5,0-1,0-1.7v-13.8h2.6v13.8c0,1-0.1,1.9-0.2,2.6c-0.1,0.8-0.3,1.5-0.5,2.2
			c-0.2,0.7-0.6,1.2-1,1.7C79.5,253.5,79,253.8,78.3,254.1"/>
		<path class="st0" d="M89.2,254.4c-0.8,0-1.5-0.1-2-0.4c-0.6-0.3-1.1-0.6-1.5-1.1c-0.4-0.5-0.7-1-0.9-1.7c-0.2-0.7-0.4-1.4-0.5-2.2
			c-0.1-0.8-0.1-1.6-0.1-2.6v-6.1c0-1,0-1.8,0.1-2.6c0.1-0.8,0.3-1.5,0.5-2.2c0.2-0.7,0.5-1.2,0.9-1.7c0.4-0.5,0.9-0.8,1.5-1.1
			c0.6-0.3,1.3-0.4,2-0.4c0.9,0,1.6,0.1,2.2,0.4c0.6,0.3,1.1,0.7,1.5,1.3c0.4,0.6,0.7,1.2,0.8,2c0.2,0.8,0.3,1.6,0.3,2.7
			c0,0.2,0,0.4,0,0.7h-2.6v-0.7c0-0.4,0-0.8,0-1.1c0-0.3-0.1-0.6-0.1-0.9c-0.1-0.3-0.1-0.6-0.2-0.8c-0.1-0.2-0.2-0.4-0.4-0.6
			c-0.2-0.2-0.4-0.3-0.6-0.4c-0.2-0.1-0.5-0.1-0.9-0.1c-0.4,0-0.8,0.1-1.1,0.2c-0.3,0.2-0.5,0.4-0.7,0.6c-0.2,0.2-0.3,0.6-0.4,1
			c-0.1,0.4-0.2,0.8-0.2,1.2c0,0.4,0,0.9,0,1.5v7.7c0,0.5,0,1,0.1,1.4c0,0.4,0.1,0.8,0.2,1.2c0.1,0.4,0.2,0.8,0.4,1
			c0.2,0.3,0.4,0.5,0.7,0.7c0.3,0.2,0.6,0.3,1,0.3c0.4,0,0.7-0.1,1-0.3c0.3-0.2,0.5-0.4,0.7-0.7c0.2-0.3,0.3-0.6,0.4-1
			c0.1-0.4,0.2-0.8,0.2-1.2c0-0.4,0-0.9,0-1.4v-0.8h2.6v0.8c0,1.1-0.1,2.1-0.2,2.9c-0.2,0.9-0.4,1.6-0.8,2.2
			c-0.4,0.6-0.9,1.1-1.5,1.5C90.8,254.3,90.1,254.4,89.2,254.4"/>
		<path class="st0" d="M101,254.4c-0.8,0-1.5-0.1-2-0.4c-0.6-0.3-1.1-0.6-1.5-1.1c-0.4-0.5-0.7-1-0.9-1.7c-0.2-0.7-0.4-1.4-0.5-2.2
			c-0.1-0.8-0.1-1.6-0.1-2.6v-6.1c0-1,0-1.8,0.1-2.6c0.1-0.8,0.3-1.5,0.5-2.2c0.2-0.7,0.5-1.2,0.9-1.7c0.4-0.5,0.9-0.8,1.5-1.1
			c0.6-0.3,1.3-0.4,2-0.4c0.9,0,1.6,0.1,2.2,0.4c0.6,0.3,1.1,0.7,1.5,1.3c0.4,0.6,0.7,1.2,0.8,2c0.2,0.8,0.3,1.6,0.3,2.7
			c0,0.2,0,0.4,0,0.7h-2.6v-0.7c0-0.4,0-0.8,0-1.1c0-0.3-0.1-0.6-0.1-0.9c-0.1-0.3-0.1-0.6-0.2-0.8c-0.1-0.2-0.2-0.4-0.4-0.6
			c-0.2-0.2-0.4-0.3-0.6-0.4c-0.2-0.1-0.5-0.1-0.9-0.1c-0.4,0-0.8,0.1-1.1,0.2c-0.3,0.2-0.5,0.4-0.7,0.6c-0.2,0.2-0.3,0.6-0.4,1
			c-0.1,0.4-0.2,0.8-0.2,1.2c0,0.4,0,0.9,0,1.5v7.7c0,0.5,0,1,0.1,1.4c0,0.4,0.1,0.8,0.2,1.2c0.1,0.4,0.3,0.8,0.4,1
			c0.2,0.3,0.4,0.5,0.7,0.7c0.3,0.2,0.6,0.3,1,0.3c0.4,0,0.7-0.1,1-0.3c0.3-0.2,0.5-0.4,0.7-0.7c0.2-0.3,0.3-0.6,0.4-1
			c0.1-0.4,0.2-0.8,0.2-1.2c0-0.4,0-0.9,0-1.4v-0.8h2.6v0.8c0,1.1-0.1,2.1-0.3,2.9c-0.2,0.9-0.4,1.6-0.8,2.2
			c-0.4,0.6-0.9,1.1-1.5,1.5C102.7,254.3,101.9,254.4,101,254.4"/>
		<rect x="108.2" y="232.7" class="st0" width="2.6" height="21.5"/>
		<path class="st0" d="M118.8,254.4c-0.9,0-1.7-0.2-2.4-0.5c-0.7-0.3-1.2-0.8-1.6-1.4c-0.4-0.6-0.7-1.4-0.9-2.2
			c-0.2-0.9-0.3-1.8-0.3-3v-7.8c0-1.1,0.1-2.1,0.3-3c0.2-0.8,0.5-1.6,0.9-2.2c0.4-0.6,0.9-1.1,1.6-1.4c0.7-0.3,1.5-0.5,2.4-0.5
			c1.8,0,3.1,0.6,3.9,1.8c0.8,1.2,1.2,2.9,1.2,5.2v7.8c0,1.1-0.1,2.1-0.3,2.9c-0.2,0.9-0.5,1.6-0.9,2.2c-0.4,0.6-0.9,1.1-1.6,1.5
			C120.6,254.3,119.8,254.4,118.8,254.4 M116.9,250.9c0.4,0.6,1,1,1.9,1c0.9,0,1.6-0.3,1.9-1s0.5-1.6,0.5-2.9v-9.3
			c0-1.2-0.2-2.2-0.5-2.8c-0.4-0.6-1-0.9-1.9-0.9s-1.6,0.3-1.9,0.9c-0.3,0.6-0.5,1.5-0.5,2.8v9.3
			C116.4,249.3,116.6,250.3,116.9,250.9"/>
		<polygon class="st0" points="126.7,254.2 126.7,232.7 128.6,232.7 133.3,246 133.3,232.7 135.9,232.7 135.9,254.2 134,254.2 
			129.3,239.9 129.3,254.2 		"/>
		<path class="st0" d="M143.8,254.4c-1.7,0-2.9-0.6-3.8-1.7c-0.9-1.1-1.4-2.7-1.5-4.7l2.6-0.8c0.1,3.1,1,4.6,2.6,4.6
			c1.3,0,2-0.8,2-2.3c0-0.5-0.1-0.9-0.2-1.3c-0.1-0.4-0.3-0.8-0.5-1.1c-0.2-0.3-0.4-0.6-0.6-0.8c-0.2-0.2-0.4-0.4-0.7-0.7l-3.3-3.1
			c-0.6-0.5-1.1-1.2-1.4-2.1c-0.4-0.9-0.5-1.8-0.5-2.9c0-1.6,0.4-2.8,1.3-3.8c0.8-0.9,2-1.4,3.4-1.4c1.5,0,2.7,0.4,3.6,1.3
			c0.9,0.9,1.4,2.1,1.6,3.6c0,0.2,0,0.4,0.1,0.7l-2.6,0.8c0-0.1,0-0.3-0.1-0.6c-0.1-1-0.4-1.8-0.8-2.3c-0.4-0.6-1-0.9-1.8-0.9
			c-0.6,0-1.1,0.2-1.5,0.6c-0.3,0.4-0.5,1-0.5,1.7c0,1.2,0.4,2.2,1.3,3l3.3,3.1c1.8,1.7,2.6,3.6,2.6,5.9c0,1.6-0.4,2.8-1.3,3.7
			C146.3,254,145.2,254.4,143.8,254.4"/>
		<g class="st1">
			<g>
				<defs>
					<rect id="SVGID_1_" x="0.8" y="263" width="197.6" height="41.9"/>
				</defs>
				<clipPath id="SVGID_2_">
					<use xlink:href="#SVGID_1_"  style="overflow:visible;"/>
				</clipPath>
				<path class="st2" d="M0.8,304.1v-40.3h9.8l4.3,26.9l4.6-26.9H29v40.3h-6l-0.2-28.4c-0.4,2.9-1.2,7.6-2.4,14.2
					c-1.1,6.5-1.9,11.3-2.3,14.2H12l-5-28.5l-0.2,28.5H0.8z"/>
				<path class="st2" d="M31.6,304.1l8.7-40.3h7.2l8.7,40.3h-8l-1.7-8.6h-5.3l-1.6,8.6H31.6z M41.8,290.5h4.2l-2-15L41.8,290.5z"/>
				<path class="st2" d="M58.8,304.1v-40.3h8.9c2,0,3.8,0.2,5.3,0.6c1.5,0.4,2.9,1,4,1.8c1.2,0.8,2,1.9,2.6,3.3c0.6,1.4,0.9,3,0.9,5
					c0,0.8,0,1.6-0.1,2.2c-0.1,0.7-0.2,1.4-0.4,2.3c-0.2,0.9-0.5,1.6-0.9,2.2c-0.4,0.7-0.9,1.3-1.6,1.9c-0.7,0.6-1.5,1.2-2.5,1.6
					c2.4,7.7,4.5,14.2,6.3,19.5h-8.4l-4.6-18.6h-1.3v18.6H58.8z M66.9,280.6h2.3c0.6,0,1.2-0.2,1.6-0.6c0.5-0.4,0.8-0.9,1-1.6
					c0.2-0.6,0.3-1.2,0.4-1.8c0.1-0.5,0.1-1,0.1-1.5c0-0.5,0-1-0.1-1.5c-0.1-0.5-0.2-1.1-0.4-1.7c-0.2-0.6-0.5-1.1-0.8-1.5
					c-0.4-0.4-0.9-0.6-1.4-0.6h-2.7V280.6z"/>
				<path class="st2" d="M83.4,290.7v-13.3c0-9.5,3.9-14.3,11.7-14.3c1.6,0,3.1,0.2,4.4,0.7c1.3,0.4,2.3,1,3.2,1.8
					c0.9,0.8,1.6,1.7,2.1,2.9c0.6,1.1,1,2.4,1.2,3.7c0.2,1.3,0.4,2.8,0.4,4.4v3.5h-8v-3.7c0-0.7,0-1.4,0-1.9c0-0.5-0.1-1.1-0.2-1.8
					c-0.1-0.7-0.3-1.2-0.5-1.7c-0.2-0.4-0.5-0.8-1-1.1c-0.4-0.3-0.9-0.5-1.5-0.5c-2.4,0-3.5,2-3.5,6v17.4c0,4,1.2,5.9,3.5,5.9
					c0.7,0,1.3-0.2,1.8-0.6c0.5-0.4,0.8-1,1-1.7c0.2-0.7,0.4-1.5,0.4-2.2c0.1-0.7,0.1-1.5,0.1-2.4v-4.1h8v3.4c0,1.5-0.2,3-0.4,4.3
					c-0.2,1.3-0.6,2.6-1.1,3.8c-0.5,1.2-1.2,2.3-2,3.1c-0.8,0.8-1.9,1.5-3.2,2c-1.3,0.5-2.8,0.8-4.5,0.8c-1.7,0-3.3-0.2-4.6-0.8
					c-1.4-0.5-2.5-1.2-3.3-2c-0.9-0.9-1.6-1.9-2.2-3.1c-0.6-1.2-1-2.5-1.2-3.9C83.5,293.8,83.4,292.3,83.4,290.7"/>
				<path class="st2" d="M129.9,304.9v-5.7c2,0,3.3-0.3,3.9-0.9c0.7-0.6,1-1.9,1-3.9v-30.6h8.1v30.6c0,1.5-0.1,2.7-0.2,3.8
					c-0.1,1-0.4,2-0.8,2.9c-0.4,0.9-0.9,1.6-1.6,2.1c-0.7,0.5-1.5,0.9-2.6,1.2c-1.1,0.3-2.4,0.4-3.9,0.4H129.9z"/>
				<path class="st2" d="M147.3,290.9v-13.5c0-9.5,3.9-14.3,11.8-14.3c7.9,0,11.8,4.8,11.8,14.3v13.3c0,1.6-0.1,3.1-0.4,4.5
					c-0.2,1.4-0.6,2.7-1.2,3.9c-0.6,1.2-1.3,2.3-2.2,3.1c-0.9,0.9-2,1.5-3.4,2c-1.4,0.5-2.9,0.7-4.7,0.7c-1.7,0-3.3-0.2-4.6-0.7
					c-1.4-0.5-2.5-1.1-3.4-2c-0.9-0.8-1.6-1.8-2.2-3c-0.6-1.2-1-2.5-1.2-3.8C147.4,294,147.3,292.5,147.3,290.9 M162.7,292.7v-17.4
					c0-4-1.2-6-3.6-6c-0.7,0-1.4,0.2-1.9,0.5c-0.5,0.4-0.9,0.9-1.1,1.5c-0.2,0.6-0.4,1.3-0.5,1.9c-0.1,0.6-0.1,1.3-0.1,2v17.4
					c0,4,1.2,5.9,3.6,5.9C161.5,298.6,162.7,296.7,162.7,292.7"/>
				<path class="st2" d="M175,289.1v-25.3h8.1v25.1c0,1.4,0,2.5,0,3.1c0,0.6,0.1,1.4,0.1,2.4c0.1,0.9,0.2,1.6,0.3,2
					c0.1,0.4,0.4,0.8,0.6,1.2c0.3,0.4,0.6,0.7,1,0.8c0.4,0.1,0.9,0.2,1.5,0.2c0.6,0,1.1-0.1,1.5-0.2c0.4-0.1,0.8-0.4,1-0.8
					c0.3-0.4,0.5-0.8,0.6-1.2c0.1-0.4,0.3-1,0.3-1.9c0.1-0.9,0.1-1.7,0.1-2.3c0-0.6,0-1.7,0-3.1v-0.1v-25.1h8.1v25.3
					c0,1.3,0,2.4-0.1,3.5c-0.1,1-0.2,2.1-0.4,3.3c-0.2,1.1-0.5,2.1-0.9,3c-0.4,0.9-0.8,1.7-1.4,2.5c-0.6,0.8-1.3,1.4-2.1,1.9
					c-0.8,0.5-1.8,0.9-2.9,1.2c-1.2,0.3-2.4,0.5-3.9,0.5c-1.4,0-2.7-0.2-3.9-0.5c-1.1-0.3-2.1-0.7-2.9-1.2c-0.8-0.5-1.5-1.2-2.1-1.9
					c-0.6-0.8-1.1-1.6-1.4-2.5c-0.4-0.9-0.6-1.8-0.9-3c-0.2-1.1-0.4-2.2-0.4-3.3C175,291.6,175,290.4,175,289.1"/>
			</g>
		</g>
		<polygon class="st3" points="122.9,263.8 114.8,263.8 114.8,275.5 122.9,272.3 		"/>
		<polygon class="st3" points="114.8,304.1 122.9,304.1 122.9,278.8 114.8,282 		"/>
	</g>
	<g>
		<defs>
			<polygon id="SVGID_3_" points="53.1,20.4 53.1,56.2 40.5,51.3 0,67.1 0,221.2 1.2,221.2 1.2,67.9 40.5,52.6 40.5,221.1 
				54.4,221.1 54.4,21.3 105.6,1.3 105.6,221.1 129.4,221.1 129.4,87.6 163.4,74.3 163.4,253.4 198.1,253.4 198.1,86.5 163.4,73 
				157.3,75.4 157.3,20.1 105.6,0 			"/>
		</defs>
		<clipPath id="SVGID_4_">
			<use xlink:href="#SVGID_3_"  style="overflow:visible;"/>
		</clipPath>
		<defs>
			<filter id="Adobe_OpacityMaskFilter" filterUnits="userSpaceOnUse" x="0" y="0" width="198.1" height="253.4">
				<feColorMatrix  type="matrix" values="1 0 0 0 0  0 1 0 0 0  0 0 1 0 0  0 0 0 1 0"/>
			</filter>
		</defs>
		<mask maskUnits="userSpaceOnUse" x="0" y="0" width="198.1" height="253.4" id="SVGID_5_">
			<g class="st4">
				
					<linearGradient id="SVGID_6_" gradientUnits="userSpaceOnUse" x1="-26.4199" y1="235.9816" x2="-22.8625" y2="235.9816" gradientTransform="matrix(-2.800000e-06 64.6816 64.6816 2.800000e-06 -15164.6152 1782.8552)">
					<stop  offset="0" style="stop-color:#FFFFFF"/>
					<stop  offset="0.2269" style="stop-color:#FFFFFF"/>
					<stop  offset="0.2956" style="stop-color:#F2F2F2"/>
					<stop  offset="0.4214" style="stop-color:#D1D1D1"/>
					<stop  offset="0.5904" style="stop-color:#9B9B9B"/>
					<stop  offset="0.7952" style="stop-color:#515151"/>
					<stop  offset="1" style="stop-color:#000000"/>
				</linearGradient>
				<rect x="0" y="0" class="st5" width="198.1" height="253.4"/>
			</g>
		</mask>
		
			<linearGradient id="SVGID_7_" gradientUnits="userSpaceOnUse" x1="-26.4199" y1="235.9816" x2="-22.8625" y2="235.9816" gradientTransform="matrix(-2.800000e-06 64.6816 64.6816 2.800000e-06 -15164.6152 1782.8552)">
			<stop  offset="0" style="stop-color:#DB211D"/>
			<stop  offset="0.2269" style="stop-color:#DB211D"/>
			<stop  offset="1" style="stop-color:#D72A21"/>
		</linearGradient>
		<rect x="0" y="0" class="st6" width="198.1" height="253.4"/>
	</g>
</g>
</svg>
