<?xml version="1.0" encoding="utf-8"?>
<!-- Generator: Adobe Illustrator 21.0.0, SVG Export Plug-In . SVG Version: 6.00 Build 0)  -->
<svg version="1.0" id="Layer_1" xmlns="http://www.w3.org/2000/svg" xmlns:xlink="http://www.w3.org/1999/xlink" x="0px" y="0px"
	 viewBox="0 0 223.7 82.1" style="enable-background:new 0 0 223.7 82.1;" xml:space="preserve">
<style type="text/css">
	.st0{fill:#FFFFFF;}
	.st1{opacity:0.95;}
</style>
<g>
	<polygon class="st0" points="60.6,27.1 58.4,28 58.4,7.5 39.2,0 19.7,7.6 19.7,20.9 15,19 15,19 15,19 0,24.9 0,82.1 0.5,82.1 
		0.5,25.2 15,19.5 15,82 20.2,82 20.2,7.9 39.2,0.5 39.2,82 48,82 48,32.5 60.6,27.6 60.7,82 73.5,82 73.5,32.1 	"/>
	<g>
		<g>
			<g>
				<path class="st0" d="M93.4,34.8c-0.5,0-1-0.1-1.4-0.3c-0.4-0.2-0.7-0.4-1-0.7c-0.3-0.3-0.5-0.7-0.6-1.1
					c-0.2-0.5-0.3-0.9-0.3-1.5C90,30.6,90,30.1,90,29.4v-4.1c0-0.7,0-1.2,0.1-1.8c0.1-0.5,0.2-1,0.3-1.5c0.2-0.5,0.4-0.8,0.6-1.1
					c0.3-0.3,0.6-0.5,1-0.7c0.4-0.2,0.9-0.3,1.4-0.3c0.6,0,1.1,0.1,1.5,0.3c0.4,0.2,0.8,0.5,1,0.9c0.3,0.4,0.4,0.8,0.6,1.4
					c0.1,0.5,0.2,1.1,0.2,1.8c0,0.1,0,0.3,0,0.5H95v-0.5c0-0.3,0-0.5,0-0.7c0-0.2,0-0.4-0.1-0.6c0-0.2-0.1-0.4-0.2-0.5
					c-0.1-0.1-0.2-0.3-0.3-0.4c-0.1-0.1-0.2-0.2-0.4-0.3c-0.2-0.1-0.4-0.1-0.6-0.1c-0.3,0-0.5,0.1-0.7,0.2c-0.2,0.1-0.4,0.2-0.5,0.4
					c-0.1,0.2-0.2,0.4-0.3,0.7c-0.1,0.3-0.1,0.6-0.1,0.8c0,0.3,0,0.6,0,1v5.2c0,0.3,0,0.7,0,0.9c0,0.3,0.1,0.6,0.2,0.8
					c0.1,0.3,0.2,0.5,0.3,0.7c0.1,0.2,0.3,0.3,0.5,0.5c0.2,0.1,0.4,0.2,0.7,0.2c0.3,0,0.5-0.1,0.7-0.2c0.2-0.1,0.3-0.3,0.4-0.5
					c0.1-0.2,0.2-0.4,0.3-0.7c0.1-0.3,0.1-0.6,0.1-0.8c0-0.3,0-0.6,0-0.9v-0.5h1.8v0.5c0,0.8-0.1,1.4-0.2,2
					c-0.1,0.6-0.3,1.1-0.6,1.5c-0.3,0.4-0.6,0.8-1,1C94.6,34.6,94,34.8,93.4,34.8z"/>
				<path class="st0" d="M101.4,34.8c-0.6,0-1.2-0.1-1.6-0.3c-0.4-0.2-0.8-0.5-1.1-1c-0.3-0.4-0.5-0.9-0.6-1.5
					c-0.1-0.6-0.2-1.2-0.2-2v-5.3c0-0.8,0.1-1.4,0.2-2c0.1-0.6,0.3-1.1,0.6-1.5c0.3-0.4,0.6-0.7,1.1-0.9c0.4-0.2,1-0.3,1.6-0.3
					c1.2,0,2.1,0.4,2.6,1.2c0.5,0.8,0.8,2,0.8,3.5v5.3c0,0.8-0.1,1.4-0.2,2c-0.1,0.6-0.3,1.1-0.6,1.5c-0.3,0.4-0.6,0.8-1.1,1
					C102.6,34.6,102.1,34.8,101.4,34.8z M100.1,32.4c0.2,0.4,0.7,0.7,1.3,0.7c0.6,0,1.1-0.2,1.3-0.7c0.2-0.4,0.4-1.1,0.4-1.9v-6.3
					c0-0.8-0.1-1.5-0.4-1.9c-0.2-0.4-0.7-0.6-1.3-0.6c-0.6,0-1.1,0.2-1.3,0.6c-0.2,0.4-0.4,1-0.4,1.9v6.3
					C99.8,31.3,99.9,32,100.1,32.4z"/>
				<path class="st0" d="M106.7,34.6V20.1h1.3l3.1,9v-9h1.8v14.5h-1.3l-3.2-9.7v9.7H106.7z"/>
				<path class="st0" d="M118.3,34.8c-1.1,0-2-0.4-2.6-1.2c-0.6-0.8-0.9-1.8-1-3.1l1.8-0.5c0.1,2.1,0.7,3.1,1.8,3.1
					c0.9,0,1.3-0.5,1.3-1.6c0-0.3,0-0.6-0.1-0.9c-0.1-0.3-0.2-0.5-0.3-0.7c-0.1-0.2-0.3-0.4-0.4-0.5c-0.1-0.1-0.3-0.3-0.5-0.5
					l-2.2-2.1c-0.4-0.4-0.7-0.8-1-1.4c-0.2-0.6-0.4-1.2-0.4-2c0-1.1,0.3-1.9,0.9-2.6c0.6-0.6,1.3-0.9,2.3-0.9c1,0,1.8,0.3,2.4,0.9
					c0.6,0.6,1,1.4,1.1,2.4c0,0.1,0,0.3,0,0.5l-1.8,0.5c0-0.1,0-0.2,0-0.4c-0.1-0.7-0.3-1.2-0.5-1.6c-0.3-0.4-0.7-0.6-1.2-0.6
					c-0.4,0-0.8,0.1-1,0.4c-0.2,0.3-0.3,0.7-0.3,1.2c0,0.8,0.3,1.5,0.9,2.1l2.2,2.1c1.2,1.1,1.8,2.5,1.8,4c0,1.1-0.3,1.9-0.8,2.5
					C120,34.4,119.3,34.8,118.3,34.8z"/>
				<path class="st0" d="M124.4,34.6V21.9h-2.2v-1.9h6.2v1.9h-2.2v12.7H124.4z"/>
				<path class="st0" d="M129.5,34.6V20.1h2.2c1.3,0,2.3,0.3,3,0.9c0.7,0.6,1,1.6,1,3c0,0.9-0.1,1.6-0.4,2.2c-0.3,0.6-0.7,1-1.2,1.2
					l2,7.3h-1.8l-1.8-6.8h-1.3v6.8H129.5z M131.3,26.3h0.4c0.7,0,1.3-0.2,1.7-0.5c0.4-0.4,0.6-1,0.6-1.8c0-0.8-0.2-1.4-0.6-1.8
					c-0.4-0.4-0.9-0.5-1.7-0.5h-0.4V26.3z"/>
				<path class="st0" d="M142.4,34.5c-0.4,0.2-0.9,0.3-1.4,0.3c-0.5,0-1-0.1-1.4-0.3c-0.4-0.2-0.8-0.4-1-0.7
					c-0.3-0.3-0.5-0.7-0.7-1.1c-0.2-0.5-0.3-0.9-0.4-1.5c-0.1-0.5-0.1-1.1-0.1-1.8v-9.3h1.8v9.3c0,0.4,0,0.8,0,1.1
					c0,0.3,0.1,0.6,0.1,1c0.1,0.3,0.2,0.6,0.3,0.8c0.1,0.2,0.3,0.4,0.5,0.5c0.2,0.1,0.5,0.2,0.8,0.2c0.3,0,0.6-0.1,0.8-0.2
					c0.2-0.1,0.4-0.3,0.5-0.5c0.1-0.2,0.2-0.5,0.3-0.8c0.1-0.3,0.1-0.7,0.1-1c0-0.3,0-0.7,0-1.1v-9.3h1.8v9.3c0,0.7,0,1.3-0.1,1.8
					c-0.1,0.5-0.2,1-0.4,1.5c-0.2,0.5-0.4,0.8-0.7,1.1C143.1,34.1,142.8,34.3,142.4,34.5z"/>
				<path class="st0" d="M149.7,34.8c-0.5,0-1-0.1-1.4-0.3c-0.4-0.2-0.7-0.4-1-0.7c-0.3-0.3-0.5-0.7-0.6-1.1
					c-0.2-0.5-0.3-0.9-0.3-1.5c-0.1-0.5-0.1-1.1-0.1-1.8v-4.1c0-0.7,0-1.2,0.1-1.8c0.1-0.5,0.2-1,0.3-1.5c0.2-0.5,0.4-0.8,0.6-1.1
					c0.3-0.3,0.6-0.5,1-0.7c0.4-0.2,0.9-0.3,1.4-0.3c0.6,0,1.1,0.1,1.5,0.3c0.4,0.2,0.8,0.5,1,0.9c0.3,0.4,0.4,0.8,0.6,1.4
					c0.1,0.5,0.2,1.1,0.2,1.8c0,0.1,0,0.3,0,0.5h-1.8v-0.5c0-0.3,0-0.5,0-0.7c0-0.2,0-0.4-0.1-0.6c0-0.2-0.1-0.4-0.2-0.5
					c-0.1-0.1-0.2-0.3-0.3-0.4c-0.1-0.1-0.2-0.2-0.4-0.3c-0.2-0.1-0.4-0.1-0.6-0.1c-0.3,0-0.5,0.1-0.7,0.2c-0.2,0.1-0.4,0.2-0.5,0.4
					c-0.1,0.2-0.2,0.4-0.3,0.7c-0.1,0.3-0.1,0.6-0.1,0.8c0,0.3,0,0.6,0,1v5.2c0,0.3,0,0.7,0,0.9c0,0.3,0.1,0.6,0.1,0.8
					c0.1,0.3,0.2,0.5,0.3,0.7c0.1,0.2,0.3,0.3,0.5,0.5c0.2,0.1,0.4,0.2,0.7,0.2c0.3,0,0.5-0.1,0.7-0.2c0.2-0.1,0.3-0.3,0.5-0.5
					c0.1-0.2,0.2-0.4,0.3-0.7c0.1-0.3,0.1-0.6,0.1-0.8c0-0.3,0-0.6,0-0.9v-0.5h1.8v0.5c0,0.8-0.1,1.4-0.2,2
					c-0.1,0.6-0.3,1.1-0.6,1.5c-0.3,0.4-0.6,0.8-1,1C150.8,34.6,150.3,34.8,149.7,34.8z"/>
				<path class="st0" d="M157.7,34.8c-0.5,0-1-0.1-1.4-0.3c-0.4-0.2-0.7-0.4-1-0.7c-0.3-0.3-0.5-0.7-0.6-1.1
					c-0.2-0.5-0.3-0.9-0.3-1.5c-0.1-0.5-0.1-1.1-0.1-1.8v-4.1c0-0.7,0-1.2,0.1-1.8c0.1-0.5,0.2-1,0.3-1.5c0.2-0.5,0.4-0.8,0.6-1.1
					c0.3-0.3,0.6-0.5,1-0.7c0.4-0.2,0.9-0.3,1.4-0.3c0.6,0,1.1,0.1,1.5,0.3c0.4,0.2,0.8,0.5,1,0.9c0.3,0.4,0.4,0.8,0.6,1.4
					c0.1,0.5,0.2,1.1,0.2,1.8c0,0.1,0,0.3,0,0.5h-1.8v-0.5c0-0.3,0-0.5,0-0.7c0-0.2,0-0.4-0.1-0.6c0-0.2-0.1-0.4-0.2-0.5
					c-0.1-0.1-0.2-0.3-0.3-0.4c-0.1-0.1-0.2-0.2-0.4-0.3c-0.2-0.1-0.4-0.1-0.6-0.1c-0.3,0-0.5,0.1-0.7,0.2c-0.2,0.1-0.4,0.2-0.5,0.4
					c-0.1,0.2-0.2,0.4-0.3,0.7c-0.1,0.3-0.1,0.6-0.1,0.8c0,0.3,0,0.6,0,1v5.2c0,0.3,0,0.7,0,0.9c0,0.3,0.1,0.6,0.2,0.8
					c0.1,0.3,0.2,0.5,0.3,0.7c0.1,0.2,0.3,0.3,0.5,0.5c0.2,0.1,0.4,0.2,0.7,0.2c0.3,0,0.5-0.1,0.7-0.2c0.2-0.1,0.3-0.3,0.5-0.5
					c0.1-0.2,0.2-0.4,0.3-0.7c0.1-0.3,0.1-0.6,0.1-0.8c0-0.3,0-0.6,0-0.9v-0.5h1.8v0.5c0,0.8-0.1,1.4-0.2,2
					c-0.1,0.6-0.3,1.1-0.6,1.5c-0.3,0.4-0.6,0.8-1,1C158.8,34.6,158.3,34.8,157.7,34.8z"/>
				<path class="st0" d="M162.6,34.6V20.1h1.8v14.5H162.6z"/>
				<path class="st0" d="M169.8,34.8c-0.6,0-1.2-0.1-1.6-0.3c-0.5-0.2-0.8-0.5-1.1-1c-0.3-0.4-0.5-0.9-0.6-1.5
					c-0.1-0.6-0.2-1.2-0.2-2v-5.3c0-0.8,0.1-1.4,0.2-2c0.1-0.6,0.3-1.1,0.6-1.5c0.3-0.4,0.6-0.7,1.1-0.9c0.4-0.2,1-0.3,1.6-0.3
					c1.2,0,2.1,0.4,2.6,1.2c0.5,0.8,0.8,2,0.8,3.5v5.3c0,0.8-0.1,1.4-0.2,2c-0.1,0.6-0.3,1.1-0.6,1.5c-0.3,0.4-0.6,0.8-1.1,1
					C170.9,34.6,170.4,34.8,169.8,34.8z M168.5,32.4c0.2,0.4,0.7,0.7,1.3,0.7c0.6,0,1.1-0.2,1.3-0.7c0.2-0.4,0.4-1.1,0.4-1.9v-6.3
					c0-0.8-0.1-1.5-0.4-1.9c-0.2-0.4-0.7-0.6-1.3-0.6c-0.6,0-1.1,0.2-1.3,0.6c-0.2,0.4-0.4,1-0.4,1.9v6.3
					C168.1,31.3,168.2,32,168.5,32.4z"/>
				<path class="st0" d="M175.1,34.6V20.1h1.3l3.1,9v-9h1.8v14.5h-1.3l-3.2-9.7v9.7H175.1z"/>
				<path class="st0" d="M186.7,34.8c-1.1,0-2-0.4-2.6-1.2c-0.6-0.8-0.9-1.8-1-3.1l1.8-0.5c0.1,2.1,0.7,3.1,1.8,3.1
					c0.9,0,1.3-0.5,1.3-1.6c0-0.3,0-0.6-0.1-0.9c-0.1-0.3-0.2-0.5-0.3-0.7c-0.2-0.2-0.3-0.4-0.4-0.5c-0.1-0.1-0.3-0.3-0.5-0.5
					l-2.2-2.1c-0.4-0.4-0.7-0.8-1-1.4c-0.2-0.6-0.4-1.2-0.4-2c0-1.1,0.3-1.9,0.9-2.6c0.6-0.6,1.3-0.9,2.3-0.9c1,0,1.8,0.3,2.4,0.9
					c0.6,0.6,1,1.4,1.1,2.4c0,0.1,0,0.3,0,0.5l-1.8,0.5c0-0.1,0-0.2,0-0.4c-0.1-0.7-0.3-1.2-0.5-1.6c-0.3-0.4-0.7-0.6-1.2-0.6
					c-0.4,0-0.8,0.1-1,0.4c-0.2,0.3-0.3,0.7-0.3,1.2c0,0.8,0.3,1.5,0.9,2.1l2.2,2.1c1.2,1.1,1.8,2.5,1.8,4c0,1.1-0.3,1.9-0.8,2.5
					C188.4,34.4,187.6,34.8,186.7,34.8z"/>
			</g>
		</g>
		<g class="st1">
			<g>
				<path class="st0" d="M89.9,68.4V41.1h6.6l2.9,18.2l3.1-18.2h6.4v27.3h-4.1l-0.1-19.2c-0.3,2-0.8,5.2-1.6,9.6
					c-0.8,4.4-1.3,7.6-1.6,9.6h-4.1l-3.3-19.3L94,68.4H89.9z"/>
				<path class="st0" d="M110.7,68.4l5.9-27.3h4.9l5.9,27.3h-5.4l-1.1-5.8h-3.6l-1.1,5.8H110.7z M117.6,59.2h2.8L119.1,49
					L117.6,59.2z"/>
				<path class="st0" d="M129.1,68.4V41.1h6c1.4,0,2.6,0.1,3.6,0.4c1,0.3,1.9,0.7,2.7,1.2c0.8,0.5,1.4,1.3,1.8,2.2
					c0.4,0.9,0.6,2.1,0.6,3.4c0,0.6,0,1.1-0.1,1.5c0,0.4-0.1,1-0.3,1.5c-0.1,0.6-0.3,1.1-0.6,1.5c-0.3,0.4-0.6,0.9-1.1,1.3
					c-0.5,0.4-1,0.8-1.7,1.1c1.6,5.2,3.1,9.6,4.3,13.2h-5.7l-3.1-12.6h-0.9v12.6H129.1z M134.7,52.5h1.6c0.4,0,0.8-0.1,1.1-0.4
					c0.3-0.3,0.5-0.6,0.7-1.1c0.1-0.4,0.2-0.8,0.3-1.2c0.1-0.4,0.1-0.7,0.1-1c0-0.3,0-0.7-0.1-1c0-0.3-0.1-0.7-0.2-1.1
					c-0.1-0.4-0.3-0.8-0.6-1c-0.3-0.3-0.6-0.4-1-0.4h-1.8V52.5z"/>
				<path class="st0" d="M145.8,59.3v-9c0-6.4,2.6-9.7,7.9-9.7c1.1,0,2.1,0.1,3,0.4c0.9,0.3,1.6,0.7,2.2,1.2
					c0.6,0.5,1.1,1.2,1.4,1.9c0.4,0.8,0.7,1.6,0.8,2.5c0.2,0.9,0.3,1.9,0.3,3V52h-5.4v-2.5c0-0.5,0-0.9,0-1.3c0-0.4-0.1-0.8-0.2-1.2
					c-0.1-0.5-0.2-0.8-0.3-1.1c-0.1-0.3-0.4-0.5-0.7-0.7c-0.3-0.2-0.6-0.3-1-0.3c-1.6,0-2.4,1.3-2.4,4v11.8c0,2.7,0.8,4,2.4,4
					c0.5,0,0.9-0.1,1.2-0.4c0.3-0.3,0.6-0.7,0.7-1.2c0.1-0.5,0.2-1,0.3-1.5c0.1-0.5,0.1-1,0.1-1.6v-2.8h5.4v2.3c0,1-0.1,2-0.3,2.9
					c-0.2,0.9-0.4,1.7-0.8,2.6c-0.4,0.8-0.8,1.5-1.4,2.1c-0.6,0.6-1.3,1-2.2,1.4c-0.9,0.3-1.9,0.5-3.1,0.5c-1.2,0-2.2-0.2-3.1-0.5
					c-0.9-0.3-1.7-0.8-2.3-1.4c-0.6-0.6-1.1-1.3-1.5-2.1c-0.4-0.8-0.7-1.7-0.8-2.6C145.9,61.4,145.8,60.4,145.8,59.3z"/>
				<path class="st0" d="M177.3,68.9V65c1.3,0,2.2-0.2,2.7-0.6c0.4-0.4,0.7-1.3,0.7-2.6V41.1h5.5v20.7c0,1,0,1.9-0.1,2.6
					c-0.1,0.7-0.3,1.4-0.5,2c-0.3,0.6-0.6,1.1-1.1,1.4c-0.5,0.4-1,0.6-1.8,0.8c-0.7,0.2-1.6,0.3-2.6,0.3H177.3z"/>
				<path class="st0" d="M189,59.4v-9.2c0-6.4,2.7-9.7,8-9.7c5.3,0,8,3.2,8,9.7v9c0,1.1-0.1,2.1-0.2,3c-0.2,0.9-0.4,1.8-0.8,2.6
					c-0.4,0.8-0.9,1.5-1.5,2.1c-0.6,0.6-1.4,1-2.3,1.4c-0.9,0.3-2,0.5-3.2,0.5c-1.2,0-2.2-0.2-3.1-0.5c-0.9-0.3-1.7-0.8-2.3-1.3
					c-0.6-0.6-1.1-1.2-1.5-2.1c-0.4-0.8-0.7-1.7-0.8-2.6C189.1,61.5,189,60.5,189,59.4z M199.5,60.7V48.9c0-2.7-0.8-4-2.5-4
					c-0.5,0-0.9,0.1-1.3,0.4c-0.3,0.2-0.6,0.6-0.8,1c-0.2,0.4-0.3,0.9-0.3,1.3c-0.1,0.4-0.1,0.9-0.1,1.4v11.8c0,2.7,0.8,4,2.5,4
					C198.7,64.7,199.5,63.3,199.5,60.7z"/>
				<path class="st0" d="M207.8,58.2V41.1h5.5v17c0,1,0,1.7,0,2.1c0,0.4,0,1,0.1,1.6c0,0.6,0.1,1.1,0.2,1.3c0.1,0.3,0.2,0.5,0.4,0.8
					c0.2,0.3,0.4,0.5,0.7,0.6c0.3,0.1,0.6,0.1,1,0.1c0.4,0,0.7,0,1-0.1c0.3-0.1,0.5-0.3,0.7-0.6c0.2-0.3,0.3-0.6,0.4-0.8
					c0.1-0.3,0.2-0.7,0.2-1.3c0-0.6,0.1-1.1,0.1-1.6c0-0.4,0-1.1,0-2.1c0,0,0-0.1,0-0.1v-17h5.5v17.1c0,0.9,0,1.7-0.1,2.4
					c-0.1,0.7-0.1,1.4-0.3,2.2c-0.1,0.8-0.3,1.4-0.6,2c-0.2,0.6-0.6,1.1-1,1.7c-0.4,0.5-0.9,1-1.4,1.3c-0.5,0.3-1.2,0.6-2,0.8
					c-0.8,0.2-1.7,0.3-2.6,0.3c-1,0-1.8-0.1-2.6-0.3c-0.8-0.2-1.4-0.5-2-0.8c-0.5-0.3-1-0.8-1.4-1.3c-0.4-0.5-0.7-1.1-1-1.7
					c-0.2-0.6-0.4-1.3-0.6-2c-0.1-0.8-0.2-1.5-0.3-2.2C207.8,59.9,207.8,59.1,207.8,58.2z"/>
			</g>
		</g>
	</g>
	<g>
		<polygon class="st0" points="172.6,43.1 167,43.1 167,51 172.6,48.9 		"/>
		<polygon class="st0" points="167,70.4 172.6,70.4 172.6,53.3 167,55.4 		"/>
	</g>
</g>
</svg>
