<?xml version="1.0" encoding="utf-8"?>
<!-- Generator: Adobe Illustrator 21.0.0, SVG Export Plug-In . SVG Version: 6.00 Build 0)  -->
<svg version="1.0" id="Layer_1" xmlns="http://www.w3.org/2000/svg" xmlns:xlink="http://www.w3.org/1999/xlink" x="0px" y="0px"
	 viewBox="0 0 165.1 253.6" style="enable-background:new 0 0 165.1 253.6;" xml:space="preserve">
<style type="text/css">
	.st0{fill:#FFFFFF;}
	.st1{opacity:0.95;}
</style>
<g>
	<g>
		<g>
			<path class="st0" d="M5,211.6c-0.6,0-1.2-0.1-1.7-0.3c-0.5-0.2-0.9-0.5-1.2-0.9c-0.3-0.4-0.6-0.8-0.8-1.4
				c-0.2-0.6-0.3-1.2-0.4-1.8c-0.1-0.6-0.1-1.4-0.1-2.2v-5.1c0-0.8,0-1.5,0.1-2.2c0.1-0.6,0.2-1.2,0.4-1.8c0.2-0.6,0.5-1,0.8-1.4
				c0.3-0.4,0.7-0.7,1.2-0.9c0.5-0.2,1.1-0.3,1.7-0.3c0.7,0,1.3,0.1,1.9,0.4c0.5,0.2,0.9,0.6,1.2,1.1c0.3,0.5,0.5,1,0.7,1.7
				c0.2,0.6,0.2,1.4,0.3,2.2c0,0.1,0,0.3,0,0.6H6.9v-0.6c0-0.4,0-0.7,0-0.9c0-0.3,0-0.5-0.1-0.8c0-0.3-0.1-0.5-0.2-0.7
				c-0.1-0.2-0.2-0.3-0.3-0.5c-0.1-0.1-0.3-0.3-0.5-0.3c-0.2-0.1-0.4-0.1-0.7-0.1c-0.4,0-0.7,0.1-0.9,0.2c-0.3,0.1-0.5,0.3-0.6,0.5
				c-0.1,0.2-0.3,0.5-0.3,0.8c-0.1,0.4-0.1,0.7-0.1,1c0,0.3,0,0.7,0,1.2v6.4c0,0.4,0,0.8,0,1.2c0,0.3,0.1,0.7,0.2,1
				c0.1,0.3,0.2,0.6,0.4,0.9c0.1,0.2,0.3,0.4,0.6,0.6c0.2,0.1,0.5,0.2,0.9,0.2c0.3,0,0.6-0.1,0.8-0.2c0.2-0.1,0.4-0.3,0.6-0.6
				c0.1-0.2,0.2-0.5,0.3-0.9c0.1-0.4,0.1-0.7,0.2-1c0-0.3,0-0.7,0-1.2v-0.6h2.2v0.6c0,0.9-0.1,1.7-0.2,2.4c-0.1,0.7-0.4,1.3-0.7,1.9
				c-0.3,0.5-0.7,0.9-1.3,1.2C6.4,211.5,5.7,211.6,5,211.6z"/>
			<path class="st0" d="M14.8,211.6c-0.8,0-1.4-0.1-2-0.4c-0.6-0.3-1-0.7-1.3-1.2c-0.3-0.5-0.6-1.1-0.7-1.8
				c-0.1-0.7-0.2-1.5-0.2-2.5v-6.5c0-0.9,0.1-1.8,0.2-2.5c0.1-0.7,0.4-1.3,0.7-1.8c0.3-0.5,0.8-0.9,1.3-1.2c0.6-0.3,1.2-0.4,2-0.4
				c1.5,0,2.6,0.5,3.2,1.5c0.7,1,1,2.4,1,4.3v6.5c0,0.9-0.1,1.7-0.2,2.5c-0.2,0.7-0.4,1.3-0.7,1.9c-0.3,0.5-0.8,0.9-1.3,1.2
				C16.3,211.5,15.6,211.6,14.8,211.6z M13.2,208.7c0.3,0.5,0.8,0.8,1.6,0.8c0.8,0,1.3-0.3,1.6-0.8c0.3-0.5,0.4-1.3,0.4-2.4v-7.8
				c0-1-0.1-1.8-0.4-2.3c-0.3-0.5-0.8-0.8-1.6-0.8c-0.8,0-1.3,0.3-1.6,0.8c-0.3,0.5-0.4,1.3-0.4,2.3v7.8
				C12.8,207.4,12.9,208.2,13.2,208.7z"/>
			<path class="st0" d="M21.3,211.4v-17.9H23l3.8,11.1v-11.1H29v17.9h-1.6l-3.9-11.9v11.9H21.3z"/>
			<path class="st0" d="M35.6,211.6c-1.4,0-2.4-0.5-3.2-1.4c-0.7-0.9-1.1-2.2-1.2-3.9l2.2-0.6c0.1,2.6,0.8,3.8,2.2,3.8
				c1.1,0,1.6-0.6,1.6-1.9c0-0.4,0-0.7-0.1-1.1c-0.1-0.3-0.2-0.6-0.4-0.9c-0.2-0.3-0.3-0.5-0.5-0.6c-0.1-0.2-0.4-0.4-0.6-0.6
				l-2.7-2.6c-0.5-0.5-0.9-1-1.2-1.7c-0.3-0.7-0.4-1.5-0.4-2.4c0-1.3,0.4-2.4,1.1-3.1c0.7-0.8,1.6-1.2,2.8-1.2c1.2,0,2.2,0.4,3,1.1
				c0.7,0.7,1.2,1.7,1.4,3c0,0.1,0,0.3,0.1,0.6l-2.2,0.6c0-0.1,0-0.3,0-0.5c-0.1-0.8-0.3-1.5-0.7-2c-0.3-0.5-0.8-0.7-1.5-0.7
				c-0.5,0-0.9,0.2-1.2,0.5c-0.3,0.3-0.4,0.8-0.4,1.4c0,1,0.4,1.8,1.1,2.5l2.7,2.6c1.5,1.4,2.2,3,2.2,4.9c0,1.3-0.3,2.3-1,3.1
				C37.7,211.2,36.7,211.6,35.6,211.6z"/>
			<path class="st0" d="M43,211.4v-15.6h-2.7v-2.3h7.7v2.3h-2.7v15.6H43z"/>
			<path class="st0" d="M49.4,211.4v-17.9h2.7c1.6,0,2.9,0.4,3.7,1.1c0.8,0.7,1.2,2,1.2,3.7c0,1.1-0.2,2-0.5,2.7
				c-0.3,0.7-0.8,1.2-1.4,1.5l2.5,8.9h-2.2l-2.2-8.3h-1.6v8.3H49.4z M51.6,201.2h0.5c0.9,0,1.6-0.2,2.1-0.7c0.5-0.5,0.7-1.2,0.7-2.2
				c0-1-0.2-1.8-0.7-2.2c-0.5-0.4-1.1-0.7-2.1-0.7h-0.5V201.2z"/>
			<path class="st0" d="M65.2,211.3c-0.5,0.2-1.1,0.3-1.8,0.3c-0.7,0-1.3-0.1-1.8-0.3c-0.5-0.2-0.9-0.5-1.3-0.9
				c-0.3-0.4-0.6-0.8-0.8-1.4c-0.2-0.6-0.4-1.2-0.4-1.8c-0.1-0.6-0.1-1.4-0.1-2.2v-11.5h2.2v11.5c0,0.6,0,1,0,1.4
				c0,0.4,0.1,0.8,0.2,1.2c0.1,0.4,0.2,0.8,0.4,1c0.2,0.3,0.4,0.5,0.6,0.6c0.3,0.2,0.6,0.2,1,0.2c0.4,0,0.7-0.1,1-0.2
				c0.3-0.2,0.5-0.4,0.6-0.6c0.1-0.3,0.3-0.6,0.4-1c0.1-0.4,0.1-0.8,0.2-1.2c0-0.4,0-0.8,0-1.4v-11.5h2.2v11.5c0,0.8,0,1.6-0.1,2.2
				c-0.1,0.6-0.2,1.2-0.4,1.8c-0.2,0.6-0.5,1-0.8,1.4C66.1,210.8,65.7,211.1,65.2,211.3z"/>
			<path class="st0" d="M74.2,211.6c-0.6,0-1.2-0.1-1.7-0.3c-0.5-0.2-0.9-0.5-1.2-0.9c-0.3-0.4-0.6-0.8-0.8-1.4
				c-0.2-0.6-0.3-1.2-0.4-1.8c-0.1-0.6-0.1-1.4-0.1-2.2v-5.1c0-0.8,0-1.5,0.1-2.2c0.1-0.6,0.2-1.2,0.4-1.8c0.2-0.6,0.5-1,0.8-1.4
				c0.3-0.4,0.7-0.7,1.2-0.9c0.5-0.2,1.1-0.3,1.7-0.3c0.7,0,1.3,0.1,1.9,0.4c0.5,0.2,0.9,0.6,1.2,1.1c0.3,0.5,0.5,1,0.7,1.7
				c0.2,0.6,0.3,1.4,0.3,2.2c0,0.1,0,0.3,0,0.6H76v-0.6c0-0.4,0-0.7,0-0.9c0-0.3,0-0.5-0.1-0.8c0-0.3-0.1-0.5-0.2-0.7
				c-0.1-0.2-0.2-0.3-0.3-0.5c-0.1-0.1-0.3-0.3-0.5-0.3c-0.2-0.1-0.4-0.1-0.7-0.1c-0.4,0-0.7,0.1-0.9,0.2c-0.3,0.1-0.5,0.3-0.6,0.5
				c-0.1,0.2-0.2,0.5-0.3,0.8c-0.1,0.4-0.1,0.7-0.1,1c0,0.3,0,0.7,0,1.2v6.4c0,0.4,0,0.8,0,1.2c0,0.3,0.1,0.7,0.2,1
				c0.1,0.3,0.2,0.6,0.4,0.9c0.1,0.2,0.3,0.4,0.6,0.6c0.2,0.1,0.5,0.2,0.9,0.2c0.3,0,0.6-0.1,0.8-0.2c0.2-0.1,0.4-0.3,0.6-0.6
				c0.1-0.2,0.2-0.5,0.3-0.9c0.1-0.4,0.1-0.7,0.2-1c0-0.3,0-0.7,0-1.2v-0.6h2.2v0.6c0,0.9-0.1,1.7-0.2,2.4c-0.1,0.7-0.4,1.3-0.7,1.9
				c-0.3,0.5-0.7,0.9-1.3,1.2C75.5,211.5,74.9,211.6,74.2,211.6z"/>
			<path class="st0" d="M84,211.6c-0.6,0-1.2-0.1-1.7-0.3c-0.5-0.2-0.9-0.5-1.2-0.9c-0.3-0.4-0.6-0.8-0.8-1.4
				c-0.2-0.6-0.3-1.2-0.4-1.8c-0.1-0.6-0.1-1.4-0.1-2.2v-5.1c0-0.8,0-1.5,0.1-2.2c0.1-0.6,0.2-1.2,0.4-1.8c0.2-0.6,0.5-1,0.8-1.4
				c0.3-0.4,0.7-0.7,1.2-0.9c0.5-0.2,1.1-0.3,1.7-0.3c0.7,0,1.3,0.1,1.9,0.4c0.5,0.2,0.9,0.6,1.2,1.1c0.3,0.5,0.5,1,0.7,1.7
				c0.2,0.6,0.3,1.4,0.3,2.2c0,0.1,0,0.3,0,0.6h-2.2v-0.6c0-0.4,0-0.7,0-0.9c0-0.3,0-0.5-0.1-0.8c0-0.3-0.1-0.5-0.2-0.7
				c-0.1-0.2-0.2-0.3-0.3-0.5c-0.1-0.1-0.3-0.3-0.5-0.3c-0.2-0.1-0.4-0.1-0.7-0.1c-0.4,0-0.7,0.1-0.9,0.2c-0.3,0.1-0.5,0.3-0.6,0.5
				c-0.1,0.2-0.3,0.5-0.3,0.8c-0.1,0.4-0.1,0.7-0.1,1c0,0.3,0,0.7,0,1.2v6.4c0,0.4,0,0.8,0,1.2c0,0.3,0.1,0.7,0.2,1
				c0.1,0.3,0.2,0.6,0.4,0.9c0.1,0.2,0.3,0.4,0.6,0.6c0.2,0.1,0.5,0.2,0.9,0.2c0.3,0,0.6-0.1,0.8-0.2c0.2-0.1,0.4-0.3,0.6-0.6
				c0.1-0.2,0.2-0.5,0.3-0.9c0.1-0.4,0.1-0.7,0.2-1c0-0.3,0-0.7,0-1.2v-0.6h2.2v0.6c0,0.9-0.1,1.7-0.2,2.4c-0.1,0.7-0.4,1.3-0.7,1.9
				c-0.3,0.5-0.7,0.9-1.3,1.2C85.4,211.5,84.7,211.6,84,211.6z"/>
			<path class="st0" d="M90,211.4v-17.9h2.2v17.9H90z"/>
			<path class="st0" d="M98.8,211.6c-0.8,0-1.4-0.1-2-0.4c-0.6-0.3-1-0.7-1.3-1.2c-0.3-0.5-0.6-1.1-0.7-1.8
				c-0.1-0.7-0.2-1.5-0.2-2.5v-6.5c0-0.9,0.1-1.8,0.2-2.5c0.1-0.7,0.4-1.3,0.7-1.8c0.3-0.5,0.8-0.9,1.3-1.2c0.6-0.3,1.2-0.4,2-0.4
				c1.5,0,2.6,0.5,3.2,1.5c0.7,1,1,2.4,1,4.3v6.5c0,0.9-0.1,1.7-0.2,2.5c-0.2,0.7-0.4,1.3-0.7,1.9c-0.3,0.5-0.8,0.9-1.3,1.2
				C100.3,211.5,99.6,211.6,98.8,211.6z M97.2,208.7c0.3,0.5,0.8,0.8,1.6,0.8c0.8,0,1.3-0.3,1.6-0.8c0.3-0.5,0.4-1.3,0.4-2.4v-7.8
				c0-1-0.1-1.8-0.4-2.3c-0.3-0.5-0.8-0.8-1.6-0.8c-0.8,0-1.3,0.3-1.6,0.8c-0.3,0.5-0.4,1.3-0.4,2.3v7.8
				C96.8,207.4,97,208.2,97.2,208.7z"/>
			<path class="st0" d="M105.4,211.4v-17.9h1.6l3.8,11.1v-11.1h2.2v17.9h-1.6l-3.9-11.9v11.9H105.4z"/>
			<path class="st0" d="M119.6,211.6c-1.4,0-2.4-0.5-3.2-1.4c-0.7-0.9-1.1-2.2-1.2-3.9l2.2-0.6c0.1,2.6,0.8,3.8,2.2,3.8
				c1.1,0,1.6-0.6,1.6-1.9c0-0.4,0-0.7-0.1-1.1c-0.1-0.3-0.2-0.6-0.4-0.9c-0.2-0.3-0.4-0.5-0.5-0.6c-0.1-0.2-0.3-0.4-0.6-0.6
				l-2.7-2.6c-0.5-0.5-0.9-1-1.2-1.7c-0.3-0.7-0.5-1.5-0.5-2.4c0-1.3,0.3-2.4,1.1-3.1c0.7-0.8,1.6-1.2,2.8-1.2c1.2,0,2.2,0.4,3,1.1
				c0.7,0.7,1.2,1.7,1.4,3c0,0.1,0,0.3,0.1,0.6l-2.2,0.6c0-0.1,0-0.3,0-0.5c-0.1-0.8-0.3-1.5-0.7-2c-0.3-0.5-0.8-0.7-1.5-0.7
				c-0.5,0-0.9,0.2-1.2,0.5c-0.3,0.3-0.4,0.8-0.4,1.4c0,1,0.4,1.8,1.1,2.5l2.7,2.6c1.5,1.4,2.2,3,2.2,4.9c0,1.3-0.3,2.3-1,3.1
				C121.7,211.2,120.7,211.6,119.6,211.6z"/>
		</g>
	</g>
	<g class="st1">
		<g>
			<path class="st0" d="M0.7,252.9v-33.5h8.1l3.6,22.4l3.9-22.4h7.8v33.5h-5l-0.2-23.6c-0.4,2.4-1,6.4-2,11.8
				c-0.9,5.4-1.6,9.4-2,11.8H10l-4.1-23.7l-0.1,23.7H0.7z"/>
			<path class="st0" d="M26.3,252.9l7.2-33.5h6l7.2,33.5H40l-1.4-7.2h-4.4l-1.3,7.2H26.3z M34.7,241.6h3.5l-1.7-12.4L34.7,241.6z"/>
			<path class="st0" d="M48.9,252.9v-33.5h7.4c1.7,0,3.1,0.2,4.4,0.5c1.3,0.3,2.4,0.8,3.3,1.5c1,0.7,1.7,1.6,2.2,2.7
				c0.5,1.1,0.7,2.5,0.7,4.1c0,0.7,0,1.3-0.1,1.9c-0.1,0.5-0.2,1.2-0.3,1.9c-0.2,0.7-0.4,1.3-0.7,1.9c-0.3,0.5-0.8,1.1-1.3,1.6
				c-0.6,0.5-1.3,1-2.1,1.3c2,6.4,3.8,11.8,5.2,16.2h-7l-3.8-15.4h-1.1v15.4H48.9z M55.7,233.4h1.9c0.5,0,1-0.2,1.3-0.5
				c0.4-0.3,0.6-0.8,0.8-1.3c0.2-0.5,0.3-1,0.4-1.5c0.1-0.4,0.1-0.9,0.1-1.3c0-0.4,0-0.8-0.1-1.2c-0.1-0.4-0.2-0.9-0.3-1.4
				c-0.1-0.5-0.4-0.9-0.7-1.3c-0.3-0.3-0.7-0.5-1.2-0.5h-2.3V233.4z"/>
			<path class="st0" d="M69.4,241.8v-11.1c0-7.9,3.2-11.9,9.7-11.9c1.4,0,2.6,0.2,3.6,0.5c1.1,0.4,2,0.9,2.7,1.5
				c0.7,0.6,1.3,1.4,1.8,2.4c0.5,0.9,0.8,2,1,3.1c0.2,1.1,0.3,2.3,0.3,3.6v2.9h-6.7v-3.1c0-0.6,0-1.1,0-1.6c0-0.4-0.1-0.9-0.2-1.5
				c-0.1-0.6-0.3-1-0.4-1.4c-0.2-0.4-0.4-0.7-0.8-0.9c-0.4-0.2-0.8-0.4-1.3-0.4c-2,0-2.9,1.6-2.9,5v14.5c0,3.3,1,4.9,2.9,4.9
				c0.6,0,1.1-0.2,1.5-0.5c0.4-0.3,0.7-0.8,0.9-1.4c0.2-0.6,0.3-1.2,0.4-1.8c0.1-0.6,0.1-1.3,0.1-2v-3.4h6.6v2.8
				c0,1.3-0.1,2.5-0.3,3.5c-0.2,1.1-0.5,2.1-1,3.2c-0.4,1-1,1.9-1.7,2.6c-0.7,0.7-1.6,1.3-2.7,1.7c-1.1,0.4-2.3,0.6-3.8,0.6
				c-1.4,0-2.7-0.2-3.9-0.6c-1.1-0.4-2-1-2.8-1.7c-0.7-0.7-1.3-1.6-1.8-2.6c-0.5-1-0.8-2.1-1-3.2C69.4,244.3,69.4,243.1,69.4,241.8z
				"/>
			<path class="st0" d="M108.1,253.6v-4.8c1.6,0,2.7-0.2,3.3-0.7c0.5-0.5,0.8-1.6,0.8-3.2v-25.4h6.8v25.5c0,1.2-0.1,2.3-0.2,3.1
				c-0.1,0.9-0.3,1.7-0.7,2.4c-0.3,0.7-0.8,1.3-1.3,1.8c-0.6,0.4-1.3,0.8-2.2,1c-0.9,0.2-2,0.4-3.2,0.4H108.1z"/>
			<path class="st0" d="M122.5,241.9v-11.3c0-7.9,3.3-11.9,9.8-11.9c6.5,0,9.8,4,9.8,11.9v11.1c0,1.3-0.1,2.6-0.3,3.7
				c-0.2,1.1-0.5,2.2-1,3.2c-0.5,1-1.1,1.9-1.8,2.6c-0.7,0.7-1.7,1.3-2.8,1.7c-1.1,0.4-2.4,0.6-3.9,0.6c-1.4,0-2.7-0.2-3.9-0.6
				c-1.1-0.4-2.1-1-2.8-1.6c-0.7-0.7-1.3-1.5-1.8-2.5c-0.5-1-0.8-2.1-1-3.2C122.6,244.5,122.5,243.3,122.5,241.9z M135.3,243.4V229
				c0-3.3-1-5-3-5c-0.6,0-1.1,0.1-1.5,0.5c-0.4,0.3-0.7,0.7-0.9,1.2c-0.2,0.5-0.3,1-0.4,1.6c-0.1,0.5-0.1,1.1-0.1,1.7v14.5
				c0,3.3,1,4.9,3,4.9C134.3,248.4,135.3,246.7,135.3,243.4z"/>
			<path class="st0" d="M145.5,240.5v-21.1h6.8v20.9c0,1.2,0,2.1,0,2.6c0,0.5,0,1.2,0.1,2c0,0.8,0.1,1.3,0.3,1.6
				c0.1,0.3,0.3,0.6,0.5,1c0.2,0.4,0.5,0.6,0.8,0.7c0.3,0.1,0.8,0.2,1.3,0.2c0.5,0,0.9-0.1,1.3-0.2c0.3-0.1,0.6-0.3,0.8-0.7
				c0.2-0.4,0.4-0.7,0.5-1c0.1-0.3,0.2-0.8,0.3-1.6c0-0.8,0.1-1.4,0.1-1.9c0-0.5,0-1.4,0-2.6c0,0,0-0.1,0-0.1v-20.9h6.8v21.1
				c0,1.1,0,2-0.1,2.9c-0.1,0.9-0.2,1.8-0.4,2.7c-0.2,0.9-0.4,1.8-0.7,2.5c-0.3,0.7-0.7,1.4-1.2,2c-0.5,0.7-1.1,1.2-1.8,1.6
				c-0.7,0.4-1.5,0.8-2.4,1c-1,0.2-2,0.4-3.2,0.4c-1.2,0-2.3-0.1-3.2-0.4c-1-0.2-1.8-0.6-2.4-1c-0.7-0.4-1.3-1-1.8-1.6
				c-0.5-0.7-0.9-1.3-1.2-2c-0.3-0.7-0.5-1.5-0.7-2.5c-0.2-0.9-0.3-1.8-0.4-2.7C145.5,242.5,145.5,241.6,145.5,240.5z"/>
		</g>
	</g>
	<g>
		<polygon class="st0" points="102.2,219.4 95.5,219.4 95.5,229.1 102.2,226.5 		"/>
		<polygon class="st0" points="95.5,252.9 102.2,252.9 102.2,231.9 95.5,234.6 		"/>
	</g>
	<polygon class="st0" points="135.9,60.7 130.8,62.7 130.8,16.8 87.9,0 44.2,17 44.2,46.8 33.7,42.7 33.7,42.7 33.7,42.7 0,55.8 
		0,184 1,184 1,56.5 33.7,43.8 33.7,183.9 45.2,183.9 45.2,17.7 87.9,1.1 87.9,183.9 107.6,183.9 107.6,72.9 135.9,61.8 
		135.9,210.8 164.8,210.8 164.8,72 	"/>
</g>
</svg>
