<svg xmlns="http://www.w3.org/2000/svg" viewBox="0 0 162.16 30.81"><defs><style>.cls-1{fill:#001226;}</style></defs><title>Asset 29</title><g id="Layer_2" data-name="Layer 2"><g id="ARTE"><path id="path3918" class="cls-1" d="M-227.92-200l-.72.18h0l-.65.31h0l-.35.2-.55.51-.42.58-.05.05-.3.69-.18,1.09v18.25l-.58-.18-2.27-.44-10-.07,0-17.82-.14-.62-.3-.55-.41-.45,0,0-.37-.28-.74-.46-1.18-.49-1.66-.37-.56,0-1.78,0-2.38.44-1.18.47-.77.48h0l-.53.46-.39.49-.23.58-.12.6v20.15l-14.71-21.54-.37-.42-.77-.57-1.2-.58-.86-.26-1.75-.27-1.76,0-1.76.26-1.39.46-.83.42-.69.51-.42.41-16.19,23.69-.21.42,0,0-.19.6v.68l.19.57.13.33.33.48.21.19,0,0,0,0,1.06.69,0,0,0,0,.78.37,2,.46,1.8.09,1.73-.13,1.62-.42,1.18-.6.72-.51.39-.44,0-.05,1.78-2.94h16.82l1.75,2.94,0,.05.39.44.37.28,1.06.62,1.32.44,1.18.23,1.78.09,1.74-.13,1.62-.42,1.18-.6.51-.35,0,.07.51.55.05,0,.58.41.69.31.76.13h18l2.29-.16,2.13-.53,1.43-.56.49.31.83.39,1.94.46h0l.63.07,2.31,0,1.78-.37h0l.47-.14,1.11-.55.41-.28v0l.54-.42.37-.51.13-.27.19-.58,0-.3v-5.88l7.87,0,1.29-.14,2.59-.56h0l2.48-.9,1.89-1,1.55-1.15,1.23-1.23v11.13l.07.44.39,1,.46.64.58.51.67.37.67.21,0,0h.05l.64.07h20.08l1.76-.23,1.16-.32.44-.19h0l0,0,1.11-.65.56-.44.35-.46v0l1.64-2.76h16.81l1.65,2.76v0l.35.46.55.47,1.53.8.07,0,.78.23h0l1.73.3,1.23,0,1.71-.13,1.62-.42,1.2-.6.72-.51.39-.44.32-.53,0-.05.14-.49,0-.69-.11-.58-.14-.37-.14-.21L-154.54-198l-.63-.56-1.55-.83-1.43-.37h0l-1.73-.21-1.18,0-.19,0-.2,0-1.37.21-1,.28-.05,0-1.5.79-.51.42-.23.28v0l-13,19h-7.43l0-17.82-.14-.62-.3-.55-.4-.45,0,0,0-.05-.65-.46,0,0-1.2-.58-.33-.12h0l0,0-1-.23h0l-1.69-.19,0,0-1.2,0-1.14.16-1.66.42-.81.35-.72.46h0v0l-.35.26-.39.42-.28.48-.16.37-.07.58v1.53l-.63-.74-1.43-1.23,0,0h0l-.53-.37h0l-1.65-.91,0,0-2.54-1-2.59-.58-2.92-.23Zm9.53,8.49h6.57l.63.07.85.35.19.11.35.33.3.37.09.18.09.3.07.47v.16l-.09.48-.1.21-.25.42-.3.34-.39.28-.4.16-.6.17-.53,0h-6.48Zm-59.12,3,3.6,6.11h-7.21Zm117.19,0,3.63,6.11h-7.24Z" transform="translate(300 200)"/></g></g></svg>