<svg xmlns="http://www.w3.org/2000/svg" viewBox="0 0 161.41 65"><defs><style>.cls-1{fill:#001226;}</style></defs><title>Asset 3</title><g id="Layer_2" data-name="Layer 2"><g id="ARTE"><path class="cls-1" d="M152.28,65l-3.61-8.73,0-.11c-.59-1.09-1.31-1.62-2.15-1.58-1.24.07-1.85,1.42-2,1.69L140.94,65h2.76l2.9-7.62,1.56,3.39h-1.9l-.67,1.83h3.26L149.7,65Z"/><rect class="cls-1" x="92" y="54.47" width="2.63" height="10.53"/><polygon class="cls-1" points="90.68 54.36 80.38 54.36 80.38 55.69 80.4 55.69 80.4 56.42 84.3 56.42 84.3 65 86.71 65 86.71 56.42 90.65 56.42 90.65 55.69 90.68 55.69 90.68 54.36"/><polygon class="cls-1" points="142.15 54.36 131.85 54.36 131.85 55.69 131.88 55.69 131.88 56.42 135.78 56.42 135.78 65 138.18 65 138.18 56.42 142.13 56.42 142.13 55.69 142.15 55.69 142.15 54.36"/><polygon class="cls-1" points="96.18 54.47 96.18 65 98.81 65 98.81 57.63 103.67 65 107.17 65 107.17 54.47 104.54 54.47 104.54 62.46 99.51 54.47 96.18 54.47"/><polygon class="cls-1" points="119.35 54.47 119.35 65 121.98 65 121.98 57.63 126.84 65 130.34 65 130.34 54.47 127.71 54.47 127.71 62.46 122.68 54.47 119.35 54.47"/><polygon class="cls-1" points="68.1 54.47 68.1 65 70.73 65 70.73 57.63 75.59 65 79.09 65 79.09 54.47 76.46 54.47 76.46 62.46 71.43 54.47 68.1 54.47"/><path class="cls-1" d="M62.59,54.54H59.91a4,4,0,0,0-4.21,3.63v3.2A4,4,0,0,0,59.91,65h2.68a4,4,0,0,0,4.21-3.63v-3.2A4,4,0,0,0,62.59,54.54ZM64.45,61a2.43,2.43,0,0,1-2.4,2.45H60.51A2.42,2.42,0,0,1,58.11,61V58.8a2.42,2.42,0,0,1,2.4-2.45h1.54a2.43,2.43,0,0,1,2.4,2.45Z"/><path class="cls-1" d="M54.49,56.51v-2H49.82v0a3.92,3.92,0,0,0-4.06,3.62v3.2A3.94,3.94,0,0,0,50,65h4.53V63.16l-4.35,0a2,2,0,0,1-2-2.22V58.8a2.27,2.27,0,0,1,2.33-2.26Z"/><path class="cls-1" d="M113.47,56.53l.07,0h0v0h.13l4,0v0h.45v-2H116.6v.07h-3.06a2.61,2.61,0,0,0-.38,0h-.29A4.41,4.41,0,0,0,109.75,56a5.31,5.31,0,0,0-1.48,3.68,5.25,5.25,0,0,0,1,3.14A4.24,4.24,0,0,0,113,65a5.09,5.09,0,0,0,.56,0v0h4.52V63.13h-.9l-3.62,0h-.22a2,2,0,0,1-2-2.22v-.14h6.77V58.85h-6.77v-.08A2.26,2.26,0,0,1,113.47,56.53Z"/><path class="cls-1" d="M158.59,63.54v0h-1.09a2.21,2.21,0,0,1-2-1.85h0V54.55H152.8v7.26h0v0A3.14,3.14,0,0,0,155.94,65h5.47V63.54Z"/><path class="cls-1" d="M45.54,65l-3.61-8.73,0-.11c-.58-1.09-1.3-1.62-2.14-1.58-1.25.07-1.86,1.42-2,1.69L34.2,65H37l2.9-7.62,1.56,3.39h-1.9l-.66,1.83h3.26L43,65Z"/><path class="cls-1" d="M11.34,65,7.73,56.27l-.06-.11c-.58-1.09-1.3-1.62-2.14-1.58-1.24.07-1.85,1.42-2,1.69L0,65H2.76l2.89-7.62,1.56,3.39H5.32l-.67,1.83H7.91L8.76,65Z"/><path class="cls-1" d="M33,56.51v-2H28.32v0a3.91,3.91,0,0,0-4.06,3.62v3.2A3.94,3.94,0,0,0,28.46,65H33V63.16l-4.35,0a2,2,0,0,1-2-2.22V58.8A2.28,2.28,0,0,1,29,56.54Z"/><path class="cls-1" d="M20.4,60.86a3.05,3.05,0,0,0,2.5-3.34c0-2.51-2.63-3.05-2.63-3.05h-7.6V65h2.46V56.35l4,0a1.56,1.56,0,0,1,1.3,1.54,1.61,1.61,0,0,1-1.38,1.55H16.93L16.18,61h1.5l2.63,4,2.89,0Z"/><path class="cls-1" d="M114.21,29.21H105.3l-9.14,9s-1.11,1.78-3.34,0L89.59,35l-5.8,6,5.13,5.57s5.68,5.57,11.7-.45l15-15.15S116.55,29.21,114.21,29.21Z"/><path class="cls-1" d="M80.68,22.74l12-12.25s1.22-1.67,3.34,0l9.36,9.36,8.36-.23s2.56-.33,1.78-2L99.73,1.91S95.05-2.32,89,2.24L73.66,17.51s-6.47,5.57-1.56,12.14l3,3.12,6.13-6.24-1-1S79.23,24.3,80.68,22.74Z"/><path class="cls-1" d="M92.71,19.51l-3.12-3.34-5.91,6s2.45,2.11.45,3.9l-9.36,9.13v9s.78,2.45,2.9.44L91.82,30.43S97.05,26,92.71,19.51Z"/><path class="cls-1" d="M81.12,7.81,75.77,2.13s-4.79-5-11.47.34L48.48,18.29s-6.13,5.12-.56,11.58L62.63,45.14s2.45,1.34,2.78-1.12v-8.8l-9.13-9.36s-1.79-1.33.11-3.23L68.64,10.27a2.55,2.55,0,0,1,2.9-.12L75,13.61Z"/></g></g></svg>