<svg xmlns="http://www.w3.org/2000/svg" viewBox="0 0 182.17 83.72"><defs><style>.cls-1{fill:#001226;}</style></defs><title>Asset 8</title><g id="Layer_2" data-name="Layer 2"><g id="ARTE"><path class="cls-1" d="M19,30.54c-1.66-1.92-4.22-2.89-7.68-2.89A10.63,10.63,0,0,0,3,31q-3,3.27-3,9,0,6.39,3.56,9.53a10.08,10.08,0,0,0,7,2.39q4.64,0,7-2.9L18,51.39h3.2V39.13H12.61v3.63h3.73v1.07a3.47,3.47,0,0,1-1.52,2.91,6.05,6.05,0,0,1-3.66,1,5.35,5.35,0,0,1-4.46-2A9.09,9.09,0,0,1,5.11,40a10.32,10.32,0,0,1,1.51-6A5.16,5.16,0,0,1,11.1,31.8c2.69,0,4.47,1.4,5.36,4.22l4.7-1.14A11,11,0,0,0,19,30.54m9.71,20.85v-9h5l4.22,9h5.62l-5-9.86a6.41,6.41,0,0,0,4.08-6.22A7,7,0,0,0,41,30.51q-2-2.3-6.25-2.3H23.68V51.39Zm0-19.25H33.5a5.14,5.14,0,0,1,3,.71,2.73,2.73,0,0,1,1,2.37c0,2.16-1.33,3.23-4,3.23H28.67ZM46.78,30.9q-3,3.21-3,8.93,0,6.26,3.56,9.45A11.09,11.09,0,0,0,55.1,52a10.79,10.79,0,0,0,8.32-3.24c2-2.15,3-5.1,3-8.88s-1-6.77-3-8.93a10.62,10.62,0,0,0-8.23-3.25C51.59,27.65,48.78,28.74,46.78,30.9ZM59.68,34a9.39,9.39,0,0,1,1.62,5.81A8.87,8.87,0,0,1,59.35,46a5.92,5.92,0,0,1-8.85-.39,9.42,9.42,0,0,1-1.59-5.78A9.52,9.52,0,0,1,50.5,34,5.38,5.38,0,0,1,55,31.8,5.52,5.52,0,0,1,59.68,34Zm8.57,8.35a9.78,9.78,0,0,0,2.31,6.89Q73.05,52,78,52t7.27-2.49a9.64,9.64,0,0,0,2.52-7.1V28.21h-5V42.69q0,5.1-4.73,5.1t-4.78-5.1V28.21h-5Zm27,9V43h5.32a9.09,9.09,0,0,0,6.1-2,6.88,6.88,0,0,0,2.4-5.51,7.09,7.09,0,0,0-2.09-5.39,8.16,8.16,0,0,0-5.8-1.95H90.26V51.39Zm0-19.25h4.87a4.12,4.12,0,0,1,2.79.89,3.15,3.15,0,0,1,1,2.51,3.36,3.36,0,0,1-1.11,2.63,4,4,0,0,1-2.76.93H95.21Z"/><path class="cls-1" d="M10.06,23.2q9.57,0,9.56-7a5.37,5.37,0,0,0-3.72-5.36,5.07,5.07,0,0,0,3-5,5.13,5.13,0,0,0-2.45-4.64A9.78,9.78,0,0,0,11.14,0H0V23.2H10.06M4.92,13.05h5.23a7,7,0,0,1,3.09.53,2.62,2.62,0,0,1,1.34,2.56,2.8,2.8,0,0,1-.84,2.27,5.7,5.7,0,0,1-3.59.86H4.92Zm0-9.1h5.29a6,6,0,0,1,2.36.36,2.2,2.2,0,0,1,1.34,2.22,2.27,2.27,0,0,1-.88,2,4.73,4.73,0,0,1-2.82.64H4.92ZM26.79,23.2V6.68l5.5,16.52h4.1L41.85,6.68V23.2H46.6V0H40L34.45,17.24,28.79,0H22.08V23.2Zm33.06,0L64.16,6.82l4.08,16.36h5.43L79.31,0H74.2L70.7,16.73,66.74,0h-5l-4.1,16.73L54.28,0H49.05l5.32,23.18Z"/><path class="cls-1" d="M1.89,66.28H12.62v1.39H3.44v6.14h8.33V75.2H3.44v8H1.89Z"/><path class="cls-1" d="M15.12,66.28h1.42v2.13H15.12Zm0,4.72h1.42V83.24H15.12Z"/><path class="cls-1" d="M19.84,71h1.37v2a4.85,4.85,0,0,1,1.7-1.7,4.74,4.74,0,0,1,2.36-.57,5.07,5.07,0,0,1,2.21.45A3.36,3.36,0,0,1,29,72.42a2.8,2.8,0,0,1,.38,1,13,13,0,0,1,.11,2v7.8H28V75.65a4.63,4.63,0,0,0-.66-2.93A3.08,3.08,0,0,0,25,72a3.48,3.48,0,0,0-2.71,1.08,4.29,4.29,0,0,0-1,3v7.21H19.84Z"/><path class="cls-1" d="M38.43,83a5.5,5.5,0,0,1-2.43.52,4.22,4.22,0,0,1-3-1A3.26,3.26,0,0,1,32,80a3.35,3.35,0,0,1,.49-1.84A3.27,3.27,0,0,1,33.9,77a11.65,11.65,0,0,1,3.66-.69c.33,0,.57-.05.75-.07l.41-.07c1.15-.24,1.74-.75,1.74-1.51a2.56,2.56,0,0,0-.71-2,3.59,3.59,0,0,0-2.33-.62,4.08,4.08,0,0,0-2.53.69,2.58,2.58,0,0,0-.94,2H32.56a3.61,3.61,0,0,1,1.34-2.9,5.4,5.4,0,0,1,3.52-1.07,5.14,5.14,0,0,1,3.35,1A3.4,3.4,0,0,1,41.9,74.4v6.67c0,.52.05.83.19,1a1,1,0,0,0,.68.19h.29c.07,0,.14,0,.23,0v1.06c-.19.05-.35.07-.52.1l-.49,0A1.85,1.85,0,0,1,41,82.94a1.72,1.72,0,0,1-.43-1.28v-.19A6.6,6.6,0,0,1,38.43,83ZM39,77.16c-.59.09-1.53.16-2.86.23a4.69,4.69,0,0,0-2,1,2.21,2.21,0,0,0,.07,3.25,3.11,3.11,0,0,0,2,.62,4.5,4.5,0,0,0,3.11-1,3.39,3.39,0,0,0,1.16-2.73v-1.7A6.28,6.28,0,0,1,39,77.16Z"/><path class="cls-1" d="M45.21,71h1.36v2a4.93,4.93,0,0,1,1.7-1.7,4.77,4.77,0,0,1,2.36-.57,5.15,5.15,0,0,1,2.22.45,3.34,3.34,0,0,1,1.46,1.28,2.63,2.63,0,0,1,.38,1,12.72,12.72,0,0,1,.12,2v7.8H53.34V75.65a4.63,4.63,0,0,0-.66-2.93A3.05,3.05,0,0,0,50.35,72a3.48,3.48,0,0,0-2.71,1.08,4.25,4.25,0,0,0-1,3v7.21H45.21Z"/><path class="cls-1" d="M67.76,79a5,5,0,0,1-1.56,3.33,5.1,5.1,0,0,1-3.54,1.2,4.83,4.83,0,0,1-3.91-1.7,6.91,6.91,0,0,1-1.44-4.64,7.19,7.19,0,0,1,1.46-4.77,4.86,4.86,0,0,1,4-1.75,5,5,0,0,1,3.39,1.16,4.22,4.22,0,0,1,1.44,3H66.23a3.26,3.26,0,0,0-1.14-2.14,3.41,3.41,0,0,0-2.33-.81,3.46,3.46,0,0,0-2.9,1.4,5.87,5.87,0,0,0-1.09,3.75,6.15,6.15,0,0,0,1.09,3.84,3.49,3.49,0,0,0,2.92,1.42,3.37,3.37,0,0,0,2.38-.9A3.88,3.88,0,0,0,66.34,79Z"/><path class="cls-1" d="M70.24,66.28h1.41v2.13H70.24Zm0,4.72h1.41V83.24H70.24Z"/><path class="cls-1" d="M80.83,83a5.53,5.53,0,0,1-2.43.52,4.2,4.2,0,0,1-3-1A3.26,3.26,0,0,1,74.34,80a3.36,3.36,0,0,1,.5-1.84A3.22,3.22,0,0,1,76.3,77,11.65,11.65,0,0,1,80,76.26c.33,0,.56-.05.75-.07l.4-.07c1.16-.24,1.75-.75,1.75-1.51a2.59,2.59,0,0,0-.71-2,3.59,3.59,0,0,0-2.33-.62,4.08,4.08,0,0,0-2.53.69,2.58,2.58,0,0,0-.94,2H75a3.61,3.61,0,0,1,1.34-2.9,5.38,5.38,0,0,1,3.52-1.07,5.14,5.14,0,0,1,3.35,1A3.4,3.4,0,0,1,84.3,74.4v6.67c0,.52,0,.83.19,1a1,1,0,0,0,.68.19h.28c.07,0,.15,0,.24,0v1.06c-.19.05-.35.07-.52.1l-.49,0a1.85,1.85,0,0,1-1.32-.42,1.72,1.72,0,0,1-.43-1.28v-.19A6.6,6.6,0,0,1,80.83,83Zm.57-5.87c-.59.09-1.54.16-2.86.23a4.69,4.69,0,0,0-2.05,1,2.21,2.21,0,0,0,.07,3.25,3.11,3.11,0,0,0,2,.62,4.52,4.52,0,0,0,3.11-1,3.39,3.39,0,0,0,1.16-2.73v-1.7A6.28,6.28,0,0,1,81.4,77.16Z"/><path class="cls-1" d="M87.74,66.28h1.42v17H87.74Z"/><path class="cls-1" d="M99.8,78.1a3.93,3.93,0,0,0,1.27,3.12,5.12,5.12,0,0,0,3.5,1.1,4.92,4.92,0,0,0,3.11-.89A2.94,2.94,0,0,0,108.81,79a2.91,2.91,0,0,0-.8-2.21,7.49,7.49,0,0,0-3.16-1.37l-1.6-.4a7.81,7.81,0,0,1-3.61-1.7,4,4,0,0,1-1-2.9,4.07,4.07,0,0,1,1.5-3.31,6.25,6.25,0,0,1,4-1.25,6,6,0,0,1,4.17,1.37A5,5,0,0,1,109.9,71h-1.58a3.63,3.63,0,0,0-1.13-2.78,4.43,4.43,0,0,0-3.07-1,4.57,4.57,0,0,0-2.9.82,2.92,2.92,0,0,0-1,2.38,2.46,2.46,0,0,0,.66,1.84,4.73,4.73,0,0,0,2.22,1.07l2,.49a9.48,9.48,0,0,1,4.13,1.87,4.12,4.12,0,0,1,1.18,3.11,4.43,4.43,0,0,1-1.56,3.58,6.42,6.42,0,0,1-4.27,1.33,6.93,6.93,0,0,1-4.67-1.42,5.14,5.14,0,0,1-1.63-4.08V78.1Z"/><path class="cls-1" d="M113.86,77.46A5.44,5.44,0,0,0,115,81a3.57,3.57,0,0,0,2.9,1.34,3.69,3.69,0,0,0,2.41-.78,3.36,3.36,0,0,0,1.18-2.12h1.41a4.44,4.44,0,0,1-1.6,3,5.53,5.53,0,0,1-3.49,1.1,4.81,4.81,0,0,1-3.92-1.69,7.09,7.09,0,0,1-1.42-4.7,7.27,7.27,0,0,1,1.42-4.76,4.84,4.84,0,0,1,4-1.73,4.79,4.79,0,0,1,3.85,1.63,7,7,0,0,1,1.37,4.6v.47h-9.16Zm7.69-1.2a5,5,0,0,0-1.08-3.18,3.41,3.41,0,0,0-2.69-1.16A3.56,3.56,0,0,0,115,73.1a4.92,4.92,0,0,0-1.15,3.16Z"/><path class="cls-1" d="M125.54,71h1.37v2.15a4,4,0,0,1,1.46-1.84,4,4,0,0,1,2.32-.62h.16v1.49h-.19a3.31,3.31,0,0,0-2.73,1.09A4.79,4.79,0,0,0,127,76.5v6.74h-1.46Z"/><path class="cls-1" d="M131.28,71h1.53l3.92,10.52L140.57,71H142l-4.57,12.24h-1.58Z"/><path class="cls-1" d="M143.85,66.28h1.42v2.13h-1.42Zm0,4.72h1.42V83.24h-1.42Z"/><path class="cls-1" d="M158.41,79a5,5,0,0,1-1.56,3.33,5.13,5.13,0,0,1-3.54,1.2,4.83,4.83,0,0,1-3.91-1.7A6.91,6.91,0,0,1,148,77.21a7.19,7.19,0,0,1,1.46-4.77,4.86,4.86,0,0,1,4-1.75,5,5,0,0,1,3.39,1.16,4.22,4.22,0,0,1,1.44,3h-1.37a3.21,3.21,0,0,0-1.13-2.14,3.43,3.43,0,0,0-2.33-.81,3.49,3.49,0,0,0-2.91,1.4,5.87,5.87,0,0,0-1.08,3.75,6.14,6.14,0,0,0,1.08,3.84,3.49,3.49,0,0,0,2.93,1.42,3.4,3.4,0,0,0,2.38-.9A3.88,3.88,0,0,0,157,79Z"/><path class="cls-1" d="M161.57,77.46A5.43,5.43,0,0,0,162.65,81a3.59,3.59,0,0,0,2.91,1.34,3.66,3.66,0,0,0,2.4-.78,3.27,3.27,0,0,0,1.18-2.12h1.42a4.5,4.5,0,0,1-1.61,3,5.51,5.51,0,0,1-3.49,1.1,4.8,4.8,0,0,1-3.91-1.69,7,7,0,0,1-1.42-4.7,7.21,7.21,0,0,1,1.42-4.76,4.83,4.83,0,0,1,4-1.73,4.77,4.77,0,0,1,3.84,1.63,7,7,0,0,1,1.37,4.6v.47h-9.15Zm7.69-1.2a5,5,0,0,0-1.09-3.18,3.38,3.38,0,0,0-2.68-1.16,3.56,3.56,0,0,0-2.74,1.18,4.93,4.93,0,0,0-1.16,3.16Z"/><path class="cls-1" d="M174.15,79.42a2.82,2.82,0,0,0,1,2.08,3.38,3.38,0,0,0,2.31.78,4.19,4.19,0,0,0,2.41-.62,1.88,1.88,0,0,0,.9-1.62c0-1-1.09-1.75-3.26-2.27l-.07,0a9.5,9.5,0,0,1-3.51-1.39,2.65,2.65,0,0,1-.9-2.13,3.17,3.17,0,0,1,1.18-2.55,4.54,4.54,0,0,1,3-1,4.88,4.88,0,0,1,3.28,1,3.88,3.88,0,0,1,1.35,2.88H180.4a2.65,2.65,0,0,0-.92-1.94,3.47,3.47,0,0,0-2.29-.71,3.22,3.22,0,0,0-2,.57,1.89,1.89,0,0,0-.75,1.53c0,1.09,1.11,1.89,3.35,2.41l.66.17a6.63,6.63,0,0,1,2.9,1.27,2.89,2.89,0,0,1,.83,2.17,3.06,3.06,0,0,1-1.3,2.55,5.55,5.55,0,0,1-3.38,1,5,5,0,0,1-3.42-1.13,4.05,4.05,0,0,1-1.34-3Z"/></g></g></svg>