<svg xmlns="http://www.w3.org/2000/svg" viewBox="0 0 199.56 51.14"><defs><style>.cls-1,.cls-3{fill:#001226;}.cls-2{fill:#fff;}.cls-3{fill-rule:evenodd;}</style></defs><title>Asset 30</title><g id="Layer_2" data-name="Layer 2"><g id="ARTE"><path class="cls-1" d="M56.46,21.19c0-6,3.39-7.46,9.09-7.46H73c9,0,10.17,1.94,10.11,7.77H76.77v-.57c0-1.48-1.08-1.9-3-1.9H66.92c-3.34,0-4,1.56-4,4.13v2.22c0,3,.62,4.13,3.61,4.13h6.76c2.84,0,3.7-.29,3.7-2.85h6.32V28.6c0,3.47-1.25,6.2-7.6,6.2H65.55c-5.7,0-9.09-1.42-9.09-7.46Z"/><path class="cls-1" d="M96.3,14h8.23l11.34,20.62h-7l-2-3.65H94.05L92.2,34.58H85.14Zm.11,12.53h8.09l-4.1-7.75Z"/><path class="cls-1" d="M114.47,14h24.1v5.12h-8.89v15.5h-6.32V19.08h-8.89Z"/><path class="cls-1" d="M141,27.83h6.32c0,2.19.92,2.36,2.74,2.36h7.75c1.33,0,2.7-.14,2.7-1.74,0-1.79-.74-1.9-8.89-1.9-9.51,0-10.59-1.14-10.59-6.21,0-3.74.34-6.61,8.32-6.61h8.83c7.29,0,8,2.48,8,6.09v.66h-6.32c0-1.51-.17-2.14-3.08-2.14h-7c-1.42,0-2.39.49-2.39,1.6,0,1.79.77,1.85,7.55,1.82,9.83,0,12.1.57,12.1,6.58,0,5.55-1.87,6.46-10.28,6.46H149c-5.75,0-8.06-1.08-8.06-5.55Z"/><path class="cls-1" d="M180,14h8.23l11.34,20.62h-7l-2-3.65H177.74l-1.85,3.65h-7.07Zm.11,12.53h8.09l-4.1-7.75Z"/><path class="cls-1" d="M17.88.34a25.29,25.29,0,0,1,12.5,1.07,23.4,23.4,0,0,1,12,9.54,22.12,22.12,0,0,1,3.28,9.47,24.42,24.42,0,0,1-.13,6c-.21,1.56-.59,3.08-.9,4.61a3.72,3.72,0,0,0-.08,1.52.39.39,0,0,0,.52.25A3,3,0,0,0,46.28,32a12.61,12.61,0,0,0,2.29-3.56,20.37,20.37,0,0,0,1.68-8.37A24.8,24.8,0,0,0,47.82,9.66c-.45-1-1-1.89-1.53-2.82A26.45,26.45,0,0,1,51,25.11a24.09,24.09,0,0,1-6.12,13.44,22.81,22.81,0,0,1-6.74,5A22.57,22.57,0,0,1,26,45.72a40.43,40.43,0,0,1-5.24-.91,7.56,7.56,0,0,0-1.95-.25c-.2,0-.46.1-.48.33a1.61,1.61,0,0,0,.49,1,10.53,10.53,0,0,0,2.88,2.15,19.67,19.67,0,0,0,8.55,2.15,24.12,24.12,0,0,0,9.1-1.51,28.37,28.37,0,0,0,5.23-2.61,26.71,26.71,0,0,1-14.32,5,24.52,24.52,0,0,1-15.86-4.79,22.8,22.8,0,0,1-5.87-6.47,22.11,22.11,0,0,1-2.94-8.12,23.72,23.72,0,0,1-.09-6.41c.19-1.62.55-3.2.89-4.79a6.5,6.5,0,0,0,.21-1.75c0-.22-.14-.49-.39-.48a1.88,1.88,0,0,0-1.06.57,10.68,10.68,0,0,0-2.06,2.79A20,20,0,0,0,.9,31.45,24.83,24.83,0,0,0,3.46,41.76c.44.93,1,1.81,1.5,2.7A26.51,26.51,0,0,1,.09,27,24.52,24.52,0,0,1,3,17.27a23.09,23.09,0,0,1,8.71-9,22.37,22.37,0,0,1,11.47-3,30.57,30.57,0,0,1,6.39.83,16.35,16.35,0,0,0,2.59.46c.26,0,.67,0,.72-.36a1.75,1.75,0,0,0-.54-1.07,10.83,10.83,0,0,0-3-2.19A20.1,20.1,0,0,0,19.7.9a25.11,25.11,0,0,0-12,3.47,6.79,6.79,0,0,1-.75.41A26.79,26.79,0,0,1,17.88.34Z"/><path class="cls-2" d="M20.49,8.89a16.7,16.7,0,0,1,8.26.72,15.41,15.41,0,0,1,8,6.3,14.68,14.68,0,0,1,2.16,6.25,15.75,15.75,0,0,1-.08,4c-.14,1-.39,2-.6,3.05a2.41,2.41,0,0,0,0,1,.26.26,0,0,0,.34.16,2,2,0,0,0,.78-.54,8.08,8.08,0,0,0,1.51-2.35A13.31,13.31,0,0,0,41.88,22a16.29,16.29,0,0,0-1.6-6.89,21.07,21.07,0,0,0-1-1.87,17.48,17.48,0,0,1,3.09,12.08,16,16,0,0,1-4.05,8.88,15.05,15.05,0,0,1-4.46,3.33,14.9,14.9,0,0,1-8,1.41,26.91,26.91,0,0,1-3.46-.6,4.77,4.77,0,0,0-1.29-.17c-.13,0-.31.06-.32.22a1,1,0,0,0,.33.69A7,7,0,0,0,23,40.45a12.91,12.91,0,0,0,5.65,1.42,16.24,16.24,0,0,0,6-1,18.51,18.51,0,0,0,3.45-1.72,17.73,17.73,0,0,1-9.46,3.3,16.28,16.28,0,0,1-10.49-3.16A15.24,15.24,0,0,1,14.29,35a14.69,14.69,0,0,1-1.94-5.37,15.77,15.77,0,0,1-.06-4.23,31,31,0,0,1,.59-3.17A4.55,4.55,0,0,0,13,21.08c0-.14-.09-.32-.26-.32a1.35,1.35,0,0,0-.7.38A7,7,0,0,0,10.7,23a13.22,13.22,0,0,0-1.43,6.48A16.3,16.3,0,0,0,11,36.27a19.25,19.25,0,0,0,1,1.78A17.56,17.56,0,0,1,8.72,26.52a16.44,16.44,0,0,1,1.91-6.44,15.34,15.34,0,0,1,5.75-5.94,14.87,14.87,0,0,1,7.59-2,19.92,19.92,0,0,1,4.22.55,10,10,0,0,0,1.71.3c.18,0,.45,0,.48-.24a1.11,1.11,0,0,0-.36-.7,6.93,6.93,0,0,0-2-1.45,13.29,13.29,0,0,0-6.35-1.37,16.53,16.53,0,0,0-8,2.29,3.84,3.84,0,0,1-.49.27A17.81,17.81,0,0,1,20.49,8.89Z"/><path class="cls-3" d="M22.54,15.64a9.91,9.91,0,0,1,4.92.42,9.18,9.18,0,0,1,4.74,3.75,8.77,8.77,0,0,1,1.3,3.73,10,10,0,0,1,0,2.38c-.09.61-.24,1.21-.36,1.82a1.47,1.47,0,0,0,0,.59.16.16,0,0,0,.21.1,1.1,1.1,0,0,0,.45-.32,4.82,4.82,0,0,0,.91-1.4,8.11,8.11,0,0,0,.66-3.3,9.74,9.74,0,0,0-1-4.1,12,12,0,0,0-.6-1.12,10.42,10.42,0,0,1,1.84,7.2,9.53,9.53,0,0,1-2.42,5.29,8.77,8.77,0,0,1-7.42,2.83,17.74,17.74,0,0,1-2.06-.36,2.86,2.86,0,0,0-.77-.1c-.08,0-.18,0-.19.13a.62.62,0,0,0,.2.41,3.92,3.92,0,0,0,1.13.84,7.71,7.71,0,0,0,3.37.85,9.33,9.33,0,0,0,3.58-.6,11.61,11.61,0,0,0,2.06-1,10.52,10.52,0,0,1-5.64,2,9.72,9.72,0,0,1-6.25-1.89,9.08,9.08,0,0,1-2.31-2.55A8.88,8.88,0,0,1,17.69,28a9.74,9.74,0,0,1,0-2.53A17.9,17.9,0,0,1,18,23.58a2.61,2.61,0,0,0,.08-.69c0-.08-.05-.19-.15-.18a.69.69,0,0,0-.42.22,4.41,4.41,0,0,0-.81,1.1,7.93,7.93,0,0,0-.85,3.86,9.83,9.83,0,0,0,1,4.05c.18.37.39.72.59,1.07a10.48,10.48,0,0,1-1.92-6.87,9.76,9.76,0,0,1,1.14-3.84,9,9,0,0,1,3.43-3.54,8.82,8.82,0,0,1,4.52-1.17,12.42,12.42,0,0,1,2.51.33,6.06,6.06,0,0,0,1,.18c.11,0,.27,0,.28-.14a.63.63,0,0,0-.21-.42A3.86,3.86,0,0,0,27,16.68a7.85,7.85,0,0,0-3.78-.82,9.86,9.86,0,0,0-4.73,1.36,2.91,2.91,0,0,1-.3.17A10.43,10.43,0,0,1,22.54,15.64Z"/></g></g></svg>