<svg xmlns="http://www.w3.org/2000/svg" viewBox="0 0 171.44 41.98"><defs><style>.cls-1{fill:#001226;}</style></defs><title>Asset 6</title><g id="Layer_2" data-name="Layer 2"><g id="ARTE"><path class="cls-1" d="M2,30.9c2.1,0,2.94.13,3.82.62a5.38,5.38,0,0,1,2.46,4.81,5.22,5.22,0,0,1-2.56,4.86c-.9.48-1.62.59-3.85.59H.24V30.9Zm.31,9.82c1.73,0,2.22-.1,3-.55a4.28,4.28,0,0,0,1.71-3.84C6.94,34.48,6.26,33,5,32.4,4.33,32,3.87,32,2,32H1.46v8.76Z"/><path class="cls-1" d="M10.06,36.07c.17-1.45,1.18-2.23,2.89-2.23a2.43,2.43,0,0,1,2.48,1.27,4.61,4.61,0,0,1,.18,1.73v2.9a5.09,5.09,0,0,0,.21,2H14.73a4,4,0,0,1-.18-1A2.38,2.38,0,0,1,12.28,42a2.23,2.23,0,0,1-2.49-2.24,2.41,2.41,0,0,1,1.79-2.31,15.48,15.48,0,0,1,2.9-.69v-.32c0-1.16-.44-1.6-1.58-1.6s-1.55.39-1.71,1.25Zm4.42,1.52c-2.6.46-3.52,1-3.52,2.07A1.36,1.36,0,0,0,12.46,41a1.94,1.94,0,0,0,1.71-.91,3.45,3.45,0,0,0,.31-1.74Z"/><path class="cls-1" d="M19.37,31.61a.79.79,0,0,1-.83.81.8.8,0,0,1-.83-.81.82.82,0,0,1,.84-.85A.81.81,0,0,1,19.37,31.61Zm-.23,2.44v7.73h-1.2V34.05h1.2Z"/><path class="cls-1" d="M22.43,34.05a3.26,3.26,0,0,1,.15,1.06,2.35,2.35,0,0,1,2.25-1.27A2.06,2.06,0,0,1,27,35.19a2.52,2.52,0,0,1,2.38-1.35,2.18,2.18,0,0,1,2,1c.26.46.29.75.29,2.22v4.73H30.49V37.05c0-1,0-1.24-.21-1.56A1.36,1.36,0,0,0,29,34.87a1.72,1.72,0,0,0-1.53.81,2.85,2.85,0,0,0-.31,1.53v4.57H26V37.23c0-1.16,0-1.35-.16-1.65a1.35,1.35,0,0,0-1.32-.73A1.75,1.75,0,0,0,23,35.7a3.07,3.07,0,0,0-.31,1.58v4.5H21.5V36.45a7,7,0,0,0-.19-2.4Z"/><path class="cls-1" d="M35.14,30.86V41.78h-1.2V30.86h1.2Z"/><path class="cls-1" d="M38.27,38.11c0,1.88.83,2.89,2.24,2.89a1.82,1.82,0,0,0,1.79-1.18l1.06.13a2.82,2.82,0,0,1-2.87,2c-2.07,0-3.39-1.55-3.39-4s1.3-4.16,3.32-4.16,3.13,1.55,3.13,3.95c0,0,0,.17,0,.32Zm4.09-.9c-.13-1.56-.83-2.41-2-2.41s-1.85.83-2.07,2.41Z"/><path class="cls-1" d="M46.45,34.05a4.85,4.85,0,0,1,.15,1.19c0,.1,0,.26,0,.47.55-1.28,1.17-1.87,2-1.87a2.07,2.07,0,0,1,.93.24v1.15a2.2,2.2,0,0,0-1-.31A1.77,1.77,0,0,0,47,36.11a5.7,5.7,0,0,0-.32,2.21v3.46H45.49V36.71a15.49,15.49,0,0,0-.13-2.66Z"/><path class="cls-1" d="M60.84,35.62v1.06h-4.4v5.1H55.22V30.9h6V32H56.44v3.66Z"/><path class="cls-1" d="M64.41,31.61a.79.79,0,0,1-.83.81.8.8,0,0,1-.83-.81.83.83,0,0,1,.85-.85A.8.8,0,0,1,64.41,31.61Zm-.23,2.44v7.73H63V34.05h1.2Z"/><path class="cls-1" d="M67.44,34.05a2.89,2.89,0,0,1,.15,1.13,2.55,2.55,0,0,1,2.35-1.34,2.28,2.28,0,0,1,2.21,1.25,4.68,4.68,0,0,1,.25,2.25v4.44H71.26V37.41A3.66,3.66,0,0,0,71,35.62a1.37,1.37,0,0,0-1.33-.77,2,2,0,0,0-1.67.91,3.11,3.11,0,0,0-.37,1.7v4.32H66.53v-5.1a8.85,8.85,0,0,0-.18-2.63Z"/><path class="cls-1" d="M74.55,36.07c.16-1.45,1.17-2.23,2.88-2.23a2.43,2.43,0,0,1,2.48,1.27,4.61,4.61,0,0,1,.18,1.73v2.9a5.09,5.09,0,0,0,.21,2H79.21a4,4,0,0,1-.18-1A2.38,2.38,0,0,1,76.76,42a2.23,2.23,0,0,1-2.49-2.24,2.41,2.41,0,0,1,1.79-2.31,15.48,15.48,0,0,1,2.9-.69v-.32c0-1.16-.44-1.6-1.58-1.6-1,0-1.55.39-1.71,1.25ZM79,37.59c-2.6.46-3.52,1-3.52,2.07A1.36,1.36,0,0,0,76.94,41a1.94,1.94,0,0,0,1.71-.91A3.45,3.45,0,0,0,79,38.36Z"/><path class="cls-1" d="M83.33,34.05a3.09,3.09,0,0,1,.15,1.13,2.54,2.54,0,0,1,2.34-1.34A2.29,2.29,0,0,1,88,35.09a4.82,4.82,0,0,1,.25,2.25v4.44H87.14V37.41a3.71,3.71,0,0,0-.21-1.79,1.38,1.38,0,0,0-1.33-.77,2,2,0,0,0-1.67.91,3.11,3.11,0,0,0-.37,1.7v4.32H82.42v-5.1a8.85,8.85,0,0,0-.18-2.63Z"/><path class="cls-1" d="M95.13,36.56c-.21-1.25-.69-1.74-1.68-1.74-1.29,0-2.07,1.17-2.07,3.1S92.16,41,93.48,41c1,0,1.57-.59,1.7-1.88h1.14C96.17,41,95.18,42,93.48,42c-2,0-3.28-1.6-3.28-4s1.28-4.09,3.28-4.09a2.62,2.62,0,0,1,2.77,2.72Z"/><path class="cls-1" d="M99.66,31.61a.79.79,0,0,1-.83.81.8.8,0,0,1-.84-.81.83.83,0,0,1,.85-.85A.81.81,0,0,1,99.66,31.61Zm-.23,2.44v7.73H98.22V34.05h1.21Z"/><path class="cls-1" d="M101.58,36.07c.16-1.45,1.17-2.23,2.89-2.23a2.42,2.42,0,0,1,2.47,1.27,4.61,4.61,0,0,1,.18,1.73v2.9a5.49,5.49,0,0,0,.21,2h-1.09a4.45,4.45,0,0,1-.18-1A2.36,2.36,0,0,1,103.8,42a2.23,2.23,0,0,1-2.5-2.24,2.41,2.41,0,0,1,1.8-2.31,15.28,15.28,0,0,1,2.9-.69v-.32c0-1.16-.44-1.6-1.58-1.6s-1.55.39-1.72,1.25ZM106,37.59c-2.61.46-3.52,1-3.52,2.07A1.36,1.36,0,0,0,104,41a2,2,0,0,0,1.71-.91,3.57,3.57,0,0,0,.31-1.74Z"/><path class="cls-1" d="M110.67,30.86V41.78h-1.2V30.86h1.2Z"/><path class="cls-1" d="M122.62,33.73a2,2,0,0,0-2.12-1.95,1.8,1.8,0,0,0-2,1.67,1.36,1.36,0,0,0,.65,1.14,11.23,11.23,0,0,0,1.94,1A6.17,6.17,0,0,1,123.47,37a2.87,2.87,0,0,1,.65,1.87c0,1.86-1.43,3.1-3.55,3.1a3.54,3.54,0,0,1-2.94-1.26,3.59,3.59,0,0,1-.7-2.23h1.19a2.3,2.3,0,0,0,2.49,2.41A2,2,0,0,0,122.86,39a1.67,1.67,0,0,0-.65-1.34,6.06,6.06,0,0,0-1.69-.91,12.16,12.16,0,0,1-2.22-1.19,2.47,2.47,0,0,1-1-2c0-1.65,1.37-2.84,3.28-2.84A3.19,3.19,0,0,1,123.26,32a3.11,3.11,0,0,1,.55,1.78Z"/><path class="cls-1" d="M127,38.11c0,1.88.84,2.89,2.24,2.89A1.81,1.81,0,0,0,131,39.82l1.06.13a2.82,2.82,0,0,1-2.87,2c-2.07,0-3.39-1.55-3.39-4s1.3-4.16,3.33-4.16,3.13,1.55,3.13,3.95a2.44,2.44,0,0,1,0,.32Zm4.1-.9c-.13-1.56-.83-2.41-2-2.41s-1.85.83-2.07,2.41Z"/><path class="cls-1" d="M135.16,34.05a4.85,4.85,0,0,1,.15,1.19c0,.1,0,.26,0,.47.55-1.28,1.17-1.87,2-1.87a2.07,2.07,0,0,1,.93.24v1.15a2.2,2.2,0,0,0-1-.31,1.74,1.74,0,0,0-1.48,1.19,5.48,5.48,0,0,0-.33,2.21v3.46H134.2V36.71a13.57,13.57,0,0,0-.13-2.66Z"/><path class="cls-1" d="M140.18,34.05l2.17,6.49,2.15-6.49h1.18l-2.74,7.83h-1.21L139,34.05Z"/><path class="cls-1" d="M148.49,31.61a.79.79,0,0,1-.83.81.8.8,0,0,1-.83-.81.83.83,0,0,1,.85-.85A.8.8,0,0,1,148.49,31.61Zm-.22,2.44v7.73h-1.21V34.05h1.21Z"/><path class="cls-1" d="M155.13,36.56c-.21-1.25-.69-1.74-1.68-1.74-1.29,0-2.07,1.17-2.07,3.1s.78,3.08,2.1,3.08c1,0,1.57-.59,1.7-1.88h1.14C156.17,41,155.18,42,153.48,42c-2,0-3.28-1.6-3.28-4s1.28-4.09,3.28-4.09a2.62,2.62,0,0,1,2.77,2.72Z"/><path class="cls-1" d="M159,38.11c0,1.88.83,2.89,2.23,2.89a1.82,1.82,0,0,0,1.8-1.18l1,.13a2.81,2.81,0,0,1-2.86,2c-2.08,0-3.4-1.55-3.4-4s1.31-4.16,3.33-4.16,3.13,1.55,3.13,3.95a2.44,2.44,0,0,1,0,.32Zm4.09-.9c-.13-1.56-.83-2.41-2-2.41s-1.84.83-2.07,2.41Z"/><path class="cls-1" d="M170.2,36.17a1.4,1.4,0,0,0-1.58-1.38c-.88,0-1.48.47-1.48,1.15s.32.87,1.79,1.31c1.24.36,1.73.58,2,.94a2,2,0,0,1,.47,1.37c0,1.49-1.08,2.42-2.8,2.42-1.88,0-2.92-.93-2.92-2.6h1.11A1.59,1.59,0,0,0,168.62,41c1,0,1.65-.54,1.65-1.35a1,1,0,0,0-.49-.91,7.22,7.22,0,0,0-1.73-.62c-1.5-.46-2.07-1-2.07-2.11,0-1.3,1.07-2.18,2.66-2.18a2.34,2.34,0,0,1,2.67,2.33Z"/><path class="cls-1" d="M2,1.42H.69C.5.25.61,0,4.54,0h5.54C18,0,21.36,3.55,21.36,9.39c0,5.63-3.22,9.4-11,9.4H.06a2.36,2.36,0,0,1,0-1.06C3,17.56,3.5,17.37,3.5,15.54V2.65C3.5,1.58,3.23,1.42,2,1.42ZM17.7,9.91c0-5.24-2.73-8.3-8-8.3H6.92V15.35c0,1.67.6,1.94,3.14,1.94C14.73,17.29,17.7,15.79,17.7,9.91Z"/><path class="cls-1" d="M34.53.19a6.71,6.71,0,0,0,.71,2L41.55,16.6c.3.72.6,1,2,1h.63c.16.79,0,1.23-.71,1.23H34.61a2.36,2.36,0,0,1,0-1.06c3-.09,3.28-.33,3-1l-1.72-4.13h-7l-1.12,3c-.63,1.61-.63,2,.87,2h2.35c.19.79,0,1.23-.68,1.23H22.43a2.36,2.36,0,0,1,0-1.06c2.1-.28,2.35-.44,3.09-2.19l5.4-12.81C31.82.63,32.18.19,33.46.19Zm.71,10.87-3-7.1-2.84,7.1Z"/><path class="cls-1" d="M55,.55a2.37,2.37,0,0,1,0,1.06c-2.38.17-2.73.68-2.73,1.83v13c0,1,.27,1.15,1.42,1.15h1.47c.19.79.11,1.23-.71,1.23h-8.3a1.74,1.74,0,0,1,0-1.06c2.18-.36,2.7-.63,2.7-1.75V2.92c0-1-.24-1.14-1.5-1.14H46c-.17-.72,0-1.23,1.15-1.23Z"/><path class="cls-1" d="M86.42.55a1.74,1.74,0,0,1,0,1.06c-2.54.17-2.71.6-2.62,1.39l1.31,13.33c.08.88.52,1,2.62,1.23.08.79,0,1.23-.76,1.23H77.32a1.91,1.91,0,0,1,0-1.06l1.48-.09c2.29-.13,2.68-.43,2.54-1.77L80.11,4,73.56,17.73c-.5,1-.71,1.14-1.34,1.14L64.68,4l-.87,12.26c-.09,1.07-.09,1.34,2.81,1.34h1.47c.19.79.09,1.23-.68,1.23h-9a2.37,2.37,0,0,1,0-1.06c3-.17,3.25-.71,3.33-1.86L62.9,3c.09-.87-.08-1.17-2.78-1.25C60,1.15,60.12.55,61.27.55h5.51l6.86,13.13L80,.55Z"/><path class="cls-1" d="M101.49.55a2.11,2.11,0,0,1,0,1.06c-2.86.17-3.41.41-3.41,2.19V15.87c0,.9.47,1.15,1.23,1.15h1.75c2,0,2.29-.14,3.44-2.6l.76-1.69c.8,0,1.2.3.9,1.14a40.58,40.58,0,0,0-1.42,4.92H91.42a2.7,2.7,0,0,1,0-1.06c2.65-.17,3.25-.52,3.25-2.3V2.92c0-1-.36-1.14-1.51-1.14H91.85c-.16-.72,0-1.23,1.15-1.23Z"/><path class="cls-1" d="M123.7.55a36.28,36.28,0,0,0,.44,3.68c.13.85-.2,1.31-1.07,1.23l-.35-1.23c-.47-1.66-1-2.1-2.55-2.1h-4.36v7h2.86c.82,0,1-.27,1.07-1l.19-1.4h.33c.54,0,.84.19.79,1-.08,1.72-.08,3.61,0,5.38a1.27,1.27,0,0,1-1,0c-.35-2.13-.71-2.37-1.42-2.37h-2.86v4.8c0,1,.24,1.4,2.1,1.4h2.35c2,0,2.29-.14,3.44-2.6l.76-1.69c.79,0,1.18.32.9,1.14a41.86,41.86,0,0,0-1.42,4.92H108.87a1.74,1.74,0,0,1,0-1.06c2.89-.17,3.41-.36,3.41-2.19V2.92c0-1-.24-1.14-1.47-1.14H109.5c-.11-.72,0-1.23,1.2-1.23Z"/><path class="cls-1" d="M130.44,1.78h-1.31c-.19-.72,0-1.23,1.12-1.32,1.31-.1,2.95-.1,6.78-.1,5.24,0,8.13,2.48,8.13,6.22a5.54,5.54,0,0,1-3.68,5.11s2.05,1.88,3.08,2.73c3.61,2.9,4.81,3.14,7.19,3.14.24,1-.44,1.67-3.33,1.67a8.4,8.4,0,0,1-6.23-2.3,12.48,12.48,0,0,1-2.6-3.14c-.68-1.23-.73-1.31-2.4-1.31h-1.83v4c0,.8.25,1.07,1.67,1.07h1.39c.08.79,0,1.23-.79,1.23H129a2.9,2.9,0,0,1,0-1.06c2.38-.17,2.93-.44,2.93-2.11V3C132,1.94,131.56,1.78,130.44,1.78Zm6.23,9.12c2.7,0,4.89-.44,4.89-4.13s-2.19-4.83-5.27-4.83h-.93v9Z"/></g></g></svg>