<svg xmlns="http://www.w3.org/2000/svg" viewBox="0 0 143.54 50.29"><defs><style>.cls-1{fill:#081626;}</style></defs><title>Asset 7</title><g id="Layer_2" data-name="Layer 2"><g id="ARTE"><path class="cls-1" d="M68.72,26.12H63.84l0,0A37.23,37.23,0,0,0,52.47,8.81V26.12H47V.87h4.57a46.52,46.52,0,0,1,6,5.32,46.56,46.56,0,0,1,5.66,7V.87h5.46ZM118.7.87h-5.44V13.18a47.91,47.91,0,0,0-5.68-7,47.19,47.19,0,0,0-6-5.32H97V26.12h5.48V8.81A37.15,37.15,0,0,1,113.8,26.14l0,0h4.87Zm19,19.23L143,21.34a13,13,0,0,1-10.52,5.75,11.07,11.07,0,0,1-8.74-3c-2.54-2.52-3.59-6.35-3.55-10.56a14.39,14.39,0,0,1,3.77-10.14A11.31,11.31,0,0,1,132.08.08C134.67.08,138.39.5,141,4a14,14,0,0,1,2.58,8.62,19,19,0,0,1-.27,3l-17.72,0h0c.34,2.79,2.23,6.45,6.53,6.62A7,7,0,0,0,137.74,20.1Zm-12.1-8.87h12.73l0-.55a6.49,6.49,0,0,0-1.92-4.27,6.5,6.5,0,0,0-4.2-1.56,6.83,6.83,0,0,0-6.47,5.78ZM82.85,0c-7,0-12.76,6.05-12.76,13.5S75.81,27,82.85,27,95.63,21,95.63,13.5,89.92,0,82.85,0Zm7.73,13.5c0,4.72-3.47,8.54-7.73,8.54s-7.7-3.82-7.7-8.54S78.6,5,82.85,5,90.58,8.78,90.58,13.5Zm-68-.42C22.33,24.57,12.22,27,6.61,27a27.87,27.87,0,0,1-6.48-.62c.09-.85.28-3.43.28-12.87S.29,1.71,0,.69A45.31,45.31,0,0,1,7.5.08C12.28.08,22.74,1.36,22.53,13.08Zm-5.23.39C17.3,6,10.66,4.88,7.91,4.9c-.76,0-1.47,0-2.07.06V22.1c.48,0,1,.08,1.61.08C10.82,22.2,17.3,21,17.3,13.47ZM45.94,26.12H40.21a51.48,51.48,0,0,0-.73-5.52H27.85a54.09,54.09,0,0,0-.71,5.52H21.59c.8-9.2,3.75-19,9.53-25.25h5.34C42.26,7.15,45.14,16.92,45.94,26.12ZM38.39,16A38.51,38.51,0,0,0,33.65,5.47,38.77,38.77,0,0,0,28.93,16Z"/><path class="cls-1" d="M70.48,50.29c-27.72,0-49.38-15.78-47-18.11C25.59,30,42.17,43,70.48,43s44.88-13,47-10.82C119.84,34.51,98.18,50.29,70.48,50.29Z"/></g></g></svg>