<svg xmlns="http://www.w3.org/2000/svg" viewBox="0 0 163.31 93.91"><defs><style>.cls-1{fill:#081626;fill-rule:evenodd;}</style></defs><title>Asset 4</title><g id="Layer_2" data-name="Layer 2"><g id="ARTE"><path class="cls-1" d="M3.63,77.48,8,89.25c.24.66.48,1.32.72,2l.63,1.88h.4c.63-1.83.66-1.88.9-2.52s.34-.95.42-1.22l4.4-11.81.21,13.72v.14c0,1.24-.39,1.53-2.2,1.64v.63c1.62-.13,2.36-.18,3.34-.18s1.7.05,3.32.18V93c-1.89-.11-2.2-.37-2.2-1.75l-.27-13,0-.21c-.08-1.09.42-1.43,2.19-1.56v-.64c-1,.08-1.43.11-2.09.11a24.5,24.5,0,0,1-2.54-.14l-5,13.41L5.25,75.81A20.15,20.15,0,0,1,2.73,76c-.72,0-1.17,0-2.17-.11v.66a4,4,0,0,1,1.53.27,1.18,1.18,0,0,1,.67,1.32l0,.16-.53,13C2.12,92.69,1.85,92.91,0,93v.63c1.33-.1,1.93-.13,2.68-.13s1.32,0,2.59.13V93c-1.83-.13-2.17-.37-2.17-1.54v-.21l.53-13.81ZM31,89.51C30.66,91.77,29.47,93,27.61,93a3,3,0,0,1-3-2.15,11.43,11.43,0,0,1-.51-3.79H32c-.08-4-1.82-6.23-4.82-6.23S22,83.45,22,87.31c0,4,2.06,6.55,5.32,6.55A4.5,4.5,0,0,0,32,89.51ZM24.17,86.1c.26-3,1.24-4.59,3-4.59S29.73,83,29.86,86.1Zm9.67-4.35c1.85,0,1.88.08,1.88,1.72v8.24c0,1.14-.29,1.35-1.91,1.43v.53a27.51,27.51,0,0,1,3-.15,28.21,28.21,0,0,1,3,.15v-.53c-1.62-.08-1.91-.29-1.91-1.43V86.17c0-2.62.87-4.29,2.28-4.29a.71.71,0,0,1,.79.64,1,1,0,0,1,0,.24,1.73,1.73,0,0,0-.11.55,1,1,0,0,0,1.09.88A1.12,1.12,0,0,0,43,82.92a2.14,2.14,0,0,0-2.3-2.15,3.35,3.35,0,0,0-3.1,2.41,16.29,16.29,0,0,0-.24-2.52,17.05,17.05,0,0,1-3.5.64v.45Zm19.45-1.22h-.48l-.69,1.35a3.58,3.58,0,0,0-2.7-1.11c-3.1,0-5.25,2.7-5.25,6.68s2.07,6.44,5.17,6.44c2.39,0,3.9-1.54,4.21-4.38H52.49c-.31,2.34-1.29,3.5-2.94,3.5-2,0-3.07-1.88-3.07-5.59s1.14-5.94,3.15-5.94A2.78,2.78,0,0,1,52.07,83a6.77,6.77,0,0,1,.64,1.88h.58V80.53Zm11.42,9C64.39,91.77,63.2,93,61.34,93a3,3,0,0,1-3-2.15,11.23,11.23,0,0,1-.5-3.79h7.87c-.08-4-1.83-6.23-4.83-6.23s-5.19,2.63-5.19,6.49c0,4,2.07,6.55,5.33,6.55a4.49,4.49,0,0,0,4.71-4.35ZM57.9,86.1c.26-3,1.25-4.59,3-4.59S63.46,83,63.6,86.1Zm22,6.62c-1.77,0-1.93-.21-1.93-1.8V75.63a22.46,22.46,0,0,1-4,.69v.47c1.67,0,1.88.19,1.88,1.54V83c-1-1.59-1.75-2.07-3.18-2.07-2.84,0-4.82,2.67-4.82,6.49s2,6.49,4.93,6.49a3.47,3.47,0,0,0,3.28-2.17,9.78,9.78,0,0,0,.35,2.12,16.69,16.69,0,0,1,3.49-.69v-.45Zm-7-11c2,0,3,2,3,6,0,3.63-1,5.54-2.87,5.54s-2.94-2-2.94-5.78,1-5.72,2.84-5.72Zm17.51,7.84C90.1,91.77,88.9,93,87.05,93a3,3,0,0,1-3-2.15,11.5,11.5,0,0,1-.5-3.79h7.87c-.08-4-1.83-6.23-4.82-6.23s-5.2,2.63-5.2,6.49c0,4,2.07,6.55,5.33,6.55a4.5,4.5,0,0,0,4.72-4.35ZM83.6,86.1c.27-3,1.25-4.59,3-4.59S89.17,83,89.3,86.1Zm10.29,7.81h.45L95,92.75a5.18,5.18,0,0,0,3.21,1.08c2.46,0,4.24-1.59,4.24-3.81,0-1.54-.72-2.41-2.71-3.29s-2.06-.9-2.43-1.08c-1.09-.56-1.49-1-1.49-1.89a2.32,2.32,0,0,1,2.49-2.17c1.65,0,2.55,1,2.79,3.13h.58V80.61h-.45l-.45,1.09a4.54,4.54,0,0,0-2.7-.85c-2.36,0-4,1.46-4,3.52,0,1.54.61,2.31,2.54,3.18,1.65.77,2.52,1.17,2.55,1.2,1.08.55,1.48,1.08,1.48,1.9A2.53,2.53,0,0,1,97.91,93a3.17,3.17,0,0,1-2.86-1.7,6.74,6.74,0,0,1-.58-1.85h-.58v4.42Zm9.88-6.81h6.81V85.91h-6.81V87.1Zm7.66-11.18v.64c1.91.13,2.17.34,2.17,1.77V91.18c0,1.43-.21,1.62-2.17,1.78v.63h6.68a7,7,0,0,0,4.16-.92,4.93,4.93,0,0,0,2.19-4.14,4.24,4.24,0,0,0-3.73-4.37,4,4,0,0,0,2.89-3.92,4.32,4.32,0,0,0-1.57-3.37,5.57,5.57,0,0,0-3.65-1Zm4.4,8V76.74h2.25c2.22,0,3.18,1.09,3.18,3.55a3.93,3.93,0,0,1-.88,2.78c-.58.67-1.29.88-2.75.88Zm0,.82h2.51a3.6,3.6,0,0,1,2.81.88,4.37,4.37,0,0,1,1,3c0,2.65-1.33,4.13-3.69,4.13h-1c-1.38,0-1.61-.21-1.61-1.35V84.77Zm20,4.74c-.32,2.26-1.51,3.48-3.37,3.48a3,3,0,0,1-3-2.15,11.43,11.43,0,0,1-.51-3.79h7.87c-.08-4-1.83-6.23-4.82-6.23s-5.19,2.63-5.19,6.49c0,4,2.06,6.55,5.32,6.55a4.5,4.5,0,0,0,4.72-4.35ZM129,86.1c.26-3,1.24-4.59,3-4.59s2.6,1.49,2.73,4.59Zm9.69-4.22H139c1.43,0,1.54.13,1.54,1.65v8.18c0,1.14-.27,1.35-1.91,1.43v.53a25.54,25.54,0,0,1,2.89-.15,25.17,25.17,0,0,1,2.86.15v-.53c-1.38,0-1.72-.31-1.72-1.37V85.38a3.42,3.42,0,0,1,.5-2.2A2.72,2.72,0,0,1,145.45,82a2.21,2.21,0,0,1,1.94.93,4.12,4.12,0,0,1,.42,2.3v6.5c0,1.06-.34,1.32-1.75,1.37v.53a25.17,25.17,0,0,1,2.86-.15,25.81,25.81,0,0,1,2.92.15v-.53c-1.62-.08-1.91-.29-1.91-1.43V85.35a5.33,5.33,0,0,0-.58-2.78,3.75,3.75,0,0,0-3.29-1.72,4,4,0,0,0-3.58,2.07,12.11,12.11,0,0,0-.29-2.31,16,16,0,0,1-3.5.8v.47ZM153.3,93.59h9.11l.69-3.81h-.56a9,9,0,0,1-.82,1.85,2.36,2.36,0,0,1-2.52,1.28h-3.1l7.21-11.82h-8.8l-.61,3.44h.56c.93-2.38,1.35-2.75,3.07-2.75h2.95Z"/><path class="cls-1" d="M81.65,60.71A30.54,30.54,0,0,1,51,30.35a30.7,30.7,0,0,1,61.39,0,30.53,30.53,0,0,1-30.7,30.36ZM56.48,44.91l.55-.43a34.72,34.72,0,0,1-2.89-7,1.35,1.35,0,0,0-.17-.36.87.87,0,0,0,0,.36,33.15,33.15,0,0,0,2.53,7.42ZM82.08,3l4.17,24.28-4.37,2.56L81.74,3c0-.32-.21-.32-.26,0L79,28.47l-1.84-1.06L81.11,3A27.26,27.26,0,0,0,53.9,30.4a29.41,29.41,0,0,0,3.65,13.66L76.7,28.14l1.84,1.05L57,44.64c-.52.37-.37.55.2.23L81.26,31v5L58.07,44.84a27.18,27.18,0,0,0,23.5,13,27.46,27.46,0,0,0,23.63-13L82,36V31l23.11,13.33c.52.29.68.13.18-.22L84.76,29.2l1.84-1.05,19.14,15.94a29.11,29.11,0,0,0,3.65-13.74C109.39,15.46,97,3.42,82.08,3Zm28.8,21.85a1.27,1.27,0,0,0,.17.35,1.15,1.15,0,0,0,0-.37A29.48,29.48,0,0,0,81.71.73a30.06,30.06,0,0,0-30,30.08A30.38,30.38,0,0,0,54,41.9a51.82,51.82,0,0,0,3.12,5.89,1.09,1.09,0,0,0,.27.32.76.76,0,0,0-.09-.39c-.08-.14-1.78-3.39-2.77-5.8a31.64,31.64,0,0,1-1.88-11A29.2,29.2,0,0,1,81.84,1.73,29.6,29.6,0,0,1,103,11.18c3.69,4.05,5.59,6.76,7.84,13.68ZM57.43,45.08l-.67.24c4.31,8.25,13.36,14.24,24.89,14.24a29.37,29.37,0,0,0,29.44-29.21,20.45,20.45,0,0,0-1.76-8,39.64,39.64,0,0,0-1.91-4.1,1,1,0,0,0-.27-.33.65.65,0,0,0,.1.39,30.06,30.06,0,0,1,1.65,4.11,25.53,25.53,0,0,1,1.19,8,29.45,29.45,0,0,1-3.87,14.14c.13.34,0,.51-.38.61a28.37,28.37,0,0,1-24.2,13.38c-9.58,0-17.25-5.14-19.67-7.8a39.9,39.9,0,0,1-4.54-5.6Zm22.7-16,1.27.74.16-19.69c0-.4-.13-.41-.16,0l-1.27,19Zm2.21,1.49,17,10c.31.17.37.07.08-.13L83.64,29.85l-1.3.75Zm-2.59-.68-4.28,3.5c-.24.2-.13.29.15.13l5.34-3-1.21-.67Z"/></g></g></svg>