<svg xmlns="http://www.w3.org/2000/svg" viewBox="0 0 170.07 64.03"><defs><style>.cls-1,.cls-2{fill:#001226;}.cls-1{fill-rule:evenodd;}</style></defs><title>Asset 5</title><g id="Layer_2" data-name="Layer 2"><g id="ARTE"><g id="_Group_" data-name="&lt;Group&gt;"><path id="_Compound_Path_" data-name="&lt;Compound Path&gt;" class="cls-1" d="M151.43,7.89c-.52.11-1.06.58-1.33,1.93a44.82,44.82,0,0,1-3.54,9.62,1.62,1.62,0,0,1,0-.21l.48-7.78c.21-3.29,1.6-4.15,2.74-4.15a2.62,2.62,0,0,1,1.64.59M141,28.17a3.28,3.28,0,0,1,2.42-2.48,5.41,5.41,0,0,1-.93-.71,1.15,1.15,0,0,1-.23-1.37c.3-.75.52-.84.87-.88a.55.55,0,0,0,.28-.09,8.91,8.91,0,0,1,1.53-1.23c.13-.07.22,0,.17.16A10.88,10.88,0,0,1,143.84,24c-.14.11-.11.28.13.27a2.29,2.29,0,0,1,1.35.62,2.2,2.2,0,0,1,1,1.65,2.92,2.92,0,0,1-.45,1.64h-3a5.35,5.35,0,0,1,.6-1.41,3.46,3.46,0,0,0-1.2,1.41ZM145.3,8.5a.51.51,0,0,0,1,0,.51.51,0,0,0-1,0M156,25.86h-.08a2.92,2.92,0,0,1-2.07-1.1,5.53,5.53,0,0,1-.82-2.13c-.14-.72-.54-.84-.87-.83a7.82,7.82,0,0,0,1.1,3.39,3.72,3.72,0,0,0,2.8,1.4c2.25.18,4.55.31,5.48,1.58H150.13a7.53,7.53,0,0,1-2.78-5.75c0-5.28,5.4-9.72,5.4-13V9.3a2.85,2.85,0,0,0-3-2.62c-1.61,0-3.15,1.27-3.36,4.73l-.49,7.78a1.29,1.29,0,0,0,.52,1.32l-.05.17s-.46-.12-.62-.18-.43-.33-.45-.74l-.69-14.1a8.73,8.73,0,0,1,5.66-2,6.21,6.21,0,0,1,6.46,6.18c0,2.57-1,3.86-1.58,5.51A3.38,3.38,0,0,0,155,17a5.93,5.93,0,0,1-1.79,1.08c2.58-.21,4.19-2.29,5.65-4.25,1-1.39,1.7-1.61,2.26-1.61,1.19,0,2,.6,2.62,2.48a30.16,30.16,0,0,1,1,7.24c.12,2.69.61,4,1.71,4.34-3.28.44-4.11-1.8-4.57-3.49a31.07,31.07,0,0,1-.71-4.09.8.8,0,0,0-.82-.8,39,39,0,0,0,.83,5.09A6.08,6.08,0,0,0,163,26.26c-3.37.38-4.37-3-4.73-5.85-.09-.65-.52-.81-.82-.78.22,2.28.8,5.1,2.47,6.5-2.91.27-3.94-1.83-4.44-4.47-.14-.7-.6-.76-.86-.72.3,2,.86,3.86,2,4.94a5.56,5.56,0,0,1-.58,0Zm-13.19-2.45a.29.29,0,1,1,.29.29.29.29,0,0,1-.29-.29m-8.57-4.36A17.91,17.91,0,1,1,152.16,37a17.91,17.91,0,0,1-17.91-17.91m29.81,9.78a15.39,15.39,0,0,1-23.8,0Z"/><path id="_Compound_Path_2" data-name="&lt;Compound Path&gt;" class="cls-1" d="M30.81,23.55a6,6,0,0,0,4.95-4.89c.47-2,.49-4.18-1-4.18-2,0-3.65,5.68-3.91,9.07m0,1.25c0,3,1.26,4.52,3.59,4.52a8.83,8.83,0,0,0,4.46-1.19l.77,1.15A11.19,11.19,0,0,1,31.77,33c-4.75,0-9.15-3.35-8.06-10,1-6.3,5.84-9.66,11.64-9.66,4,0,6.73,2.73,6.22,5.92-.68,4.24-6.47,5.58-10.79,5.53"/><path id="_Compound_Path_3" data-name="&lt;Compound Path&gt;" class="cls-1" d="M97.08,30.5a6.43,6.43,0,0,1-5.55,2.43c-2.66,0-6.36-2.48-5-9.25,1.12-5.84,5.06-9.87,9.84-10.08a4,4,0,0,1,3.78,1.74l.2-1.11L107,13.7l-2.89,15.61c-.2,1.09.43,1.47,1.18,1.47a6.42,6.42,0,0,1-4.6,2.15c-2.35,0-3.38-1.09-3.62-2.43m2-12.81c.25-1.33-.18-2.36-1.28-2.32-1.56.05-2.89,2.17-4,8.42-.74,4.19-.64,6.4.84,6.51,1.06.07,2.22-.73,2.79-3.7Z"/><path id="_Path_" data-name="&lt;Path&gt;" class="cls-2" d="M62.74,30.78a7,7,0,0,1-4.82,2.15c-3.7,0-4-2.5-3.64-4.57l2.61-14.07,7.57-.59L61.57,29.31c-.2,1.09.43,1.47,1.17,1.47"/><path id="_Path_2" data-name="&lt;Path&gt;" class="cls-2" d="M65.39,8.44a3.8,3.8,0,1,1-3.8-3.8,3.8,3.8,0,0,1,3.8,3.8"/><path id="_Path_3" data-name="&lt;Path&gt;" class="cls-2" d="M72.41,32.05l-7.1.55L70.1,6.74l7.1-.56-2.83,15.3,6.1-7.24,7.37-.58L80.08,22l5.41,10.13A1.29,1.29,0,0,0,87,32.8a4.77,4.77,0,0,1-4.25,2.12,4.89,4.89,0,0,1-4.92-3.06L74,23.44l-1.6,8.61"/><path id="_Path_4" data-name="&lt;Path&gt;" class="cls-2" d="M50.83,30.78A7,7,0,0,1,46,32.93c-3.7,0-4-2.5-3.64-4.57l4-21.64L54,6.13,49.66,29.31c-.21,1.09.43,1.47,1.17,1.47"/><path id="_Path_5" data-name="&lt;Path&gt;" class="cls-2" d="M121.45,19c.21-1.13.26-2.69-1.19-2.69-1.22,0-2.41,1.39-2.66,2.69L115.18,32l-7.32.57,3.4-18.33,7.3-.57-.43,2.43a6.8,6.8,0,0,1,5.9-2.69c3.73,0,5.19,2.33,4.54,5.82l-1.86,10c-.2,1.09.43,1.47,1.17,1.47a6.8,6.8,0,0,1-4.62,2.15c-3.7,0-3.93-2.5-3.55-4.57L121.45,19"/><path id="_Path_6" data-name="&lt;Path&gt;" class="cls-2" d="M19.53,14.32C23,14,26.65,12,26.83,7.7,27,3.62,23.09,1.86,19,1.86c-7,0-12.52,5.07-12.52,9.91,0,3.5,1.38,4.85,2.55,5.69a4.5,4.5,0,0,1-2.42.66,5.22,5.22,0,0,1-5.53-5.35C1,7.81,6.94,1.59,18.5.24,26.9-.74,34,1.22,34,6.79c0,5.29-8.72,9-14.76,9.22l-1.68,9.06c-.88,4.76-4.4,7.92-10.74,8a10.41,10.41,0,0,1-4.72-.8A3.33,3.33,0,0,1,0,29.22a3.07,3.07,0,1,1,5.18,2.23C7.07,31.08,8.52,29.4,9,27L12.28,9.07c.63-3.42,3.26-4.53,6.48-4.91l2.71-.33L19.53,14.32"/></g><path class="cls-2" d="M117.26,43.81a11.18,11.18,0,0,0-2.08-.65,9.79,9.79,0,0,0-2.09-.24,7.39,7.39,0,0,0-3.17.68,7.71,7.71,0,0,0-2.48,1.86,8.46,8.46,0,0,0-1.61,2.73,9.56,9.56,0,0,0-.57,3.31,5.74,5.74,0,0,0,.26,1.7,4.12,4.12,0,0,0,.83,1.47,4.25,4.25,0,0,0,1.49,1,5.52,5.52,0,0,0,2.23.41,9.86,9.86,0,0,0,1.71-.14,12,12,0,0,0,1.49-.36l1.19-6.27h2.23l-1.49,7.82a13.62,13.62,0,0,1-2.79.73,17.7,17.7,0,0,1-2.71.23,8.62,8.62,0,0,1-3-.48,5.59,5.59,0,0,1-2.13-1.32,5.38,5.38,0,0,1-1.27-2,7.59,7.59,0,0,1-.42-2.58,11.2,11.2,0,0,1,.82-4.35,10.57,10.57,0,0,1,2.23-3.4,10,10,0,0,1,3.32-2.23,10.57,10.57,0,0,1,4.11-.8,15.22,15.22,0,0,1,2.38.18,12.61,12.61,0,0,1,2.18.52Z"/><path class="cls-2" d="M127.12,47.53a1.83,1.83,0,0,0-1.7.43,7.56,7.56,0,0,0-1.57,1.85,15.73,15.73,0,0,0-1.28,2.6,17.49,17.49,0,0,0-.8,2.73l-.52,2.77h-2.18l1.25-6.42c.18-1,.36-2,.55-2.94s.37-2,.55-2.95h2.13c-.1.53-.25,1.15-.44,1.86s-.47,1.6-.84,2.67l0,0c.35-.75.7-1.44,1.07-2.07a7.61,7.61,0,0,1,1.17-1.6,4.09,4.09,0,0,1,1.37-1,3,3,0,0,1,1.63-.17Z"/><path class="cls-2" d="M139.11,49.81a9.17,9.17,0,0,1-.61,3.44,8.26,8.26,0,0,1-1.61,2.63,6.79,6.79,0,0,1-2.3,1.67,6.49,6.49,0,0,1-2.69.59A4.59,4.59,0,0,1,128.48,57a4.49,4.49,0,0,1-1.09-3.26,9.85,9.85,0,0,1,.55-3.37,8,8,0,0,1,1.51-2.65A7.07,7.07,0,0,1,131.71,46a6.53,6.53,0,0,1,2.82-.62,5.86,5.86,0,0,1,2.08.33A3.52,3.52,0,0,1,138.85,48,5.93,5.93,0,0,1,139.11,49.81Zm-2.35.26a3.07,3.07,0,0,0-.63-2.09,2.49,2.49,0,0,0-2-.72,3.39,3.39,0,0,0-1.84.52,5,5,0,0,0-1.42,1.38,6.93,6.93,0,0,0-.91,2,8.32,8.32,0,0,0-.32,2.28,3.34,3.34,0,0,0,.59,2.12,2.43,2.43,0,0,0,2,.73,3.4,3.4,0,0,0,1.71-.46,4.55,4.55,0,0,0,1.43-1.28,6.67,6.67,0,0,0,1-2A8.21,8.21,0,0,0,136.76,50.07Z"/><path class="cls-2" d="M151.72,52c0,.09-.05.29-.11.59s-.13.65-.21,1.07-.17.84-.25,1.3-.16.88-.23,1.28-.14.76-.19,1.07-.08.5-.1.58h-2.2q.12-.61.42-1.74c.2-.76.52-1.79,1-3.11h-.05a17.25,17.25,0,0,1-1,1.89,8.5,8.5,0,0,1-1.29,1.64,6.5,6.5,0,0,1-1.56,1.14,3.85,3.85,0,0,1-1.8.43A2.42,2.42,0,0,1,141.76,57a4.61,4.61,0,0,1-.25-3.06l1.59-8.37h2.23l-1.54,7.9a4.23,4.23,0,0,0,0,2.12,1,1,0,0,0,1.08.66,2.6,2.6,0,0,0,1.72-.81,9.8,9.8,0,0,0,1.62-2,15.82,15.82,0,0,0,1.29-2.57,14,14,0,0,0,.76-2.52l.53-2.78H153Z"/><path class="cls-2" d="M166.37,49.09a12.26,12.26,0,0,1-.46,3.32,9.08,9.08,0,0,1-1.4,2.88,7,7,0,0,1-2.41,2,7.47,7.47,0,0,1-3.5.77,9.85,9.85,0,0,1-1.73-.15L155.74,64h-2.18l2.38-12.54c0-.09.05-.29.11-.59s.13-.65.2-1,.15-.84.23-1.3.16-.9.24-1.3.14-.76.19-1.06.1-.49.11-.59h2.18c0,.26-.11.54-.18.84s-.16.64-.27,1-.23.83-.38,1.32-.33,1.08-.54,1.74l0,0a15.55,15.55,0,0,1,1.06-2,9.55,9.55,0,0,1,1.32-1.65,5.87,5.87,0,0,1,1.56-1.11,4.12,4.12,0,0,1,1.79-.41,2.48,2.48,0,0,1,2,.89A4.62,4.62,0,0,1,166.37,49.09Zm-2.23.4a3.29,3.29,0,0,0-.35-1.74,1.09,1.09,0,0,0-.92-.52,2.15,2.15,0,0,0-1.18.39,5.8,5.8,0,0,0-1.14,1,10.66,10.66,0,0,0-1.06,1.45,16.15,16.15,0,0,0-.92,1.68,14.89,14.89,0,0,0-1.13,3.33l-.2,1a7.83,7.83,0,0,0,.89.21,5.16,5.16,0,0,0,.9.09,4.09,4.09,0,0,0,2.33-.64,5.31,5.31,0,0,0,1.58-1.62,7.41,7.41,0,0,0,.91-2.22A10.29,10.29,0,0,0,164.14,49.49Z"/></g></g></svg>