<svg xmlns="http://www.w3.org/2000/svg" viewBox="0 0 130.5 59.15"><defs><style>.cls-1{fill:#001226;}</style></defs><title>Asset 31</title><g id="Layer_2" data-name="Layer 2"><g id="ARTE"><path class="cls-1" d="M117.61,23.68l-1.9-1.34c-6.51-4.56-8.27-6.75-8.27-10.22,0-4.43,3.66-7,8.34-7,6.24,0,8.07,2.55,8.47,3.22a9.81,9.81,0,0,1,.89,3c.06.49.13.79.54.79s.47-.42.47-1.39c0-4.14.27-6.15.27-6.45s-.13-.43-.67-.43a12.46,12.46,0,0,1-2.38-.3,29.42,29.42,0,0,0-6.3-.61c-8.61,0-14,4.44-14,11,0,4.13,1.63,7.9,8.82,13.19l3.05,2.25c5.83,4.32,7.79,6.75,7.79,11,0,3.89-3.18,8.09-9.69,8.09a16.38,16.38,0,0,1-11-4C98,40.58,93.4,35.17,87.84,28.79c6.11-5.05,8.21-9.55,8.21-14a10.39,10.39,0,0,0-4.68-8.27C87.78,4.16,83.23,3.79,79,3.79c-2.1,0-7.25.19-8,.19-.32,0-4.25-.17-7.26-.19-1.05-.07-2-.16-2.4-.24A29.42,29.42,0,0,0,55,2.94c-8.61,0-14,4.44-14,11,0,4.13,1.63,7.9,8.82,13.19l3,2.25c5.83,4.32,7.79,6.75,7.79,11,0,3.89-3.18,8.09-9.69,8.09-4.54,0-9-1.7-10-6.2a9.41,9.41,0,0,1-.21-2.25c0-.49-.07-.67-.47-.67s-.48.3-.55,1c-.06,1-.33,3.4-.33,6.45,0,1.64.06,1.88,1,2.31a22.74,22.74,0,0,0,9.09,1.64,19.36,19.36,0,0,0,10.24-2.56A12.19,12.19,0,0,0,65.44,38c0-4.87-1.9-8.64-9.9-14.29l-1.9-1.34c-6.51-4.56-8.27-6.75-8.27-10.22,0-4.43,3.66-7,8.34-7,6.24,0,13.19,2.55,13.6,3.22A9.16,9.16,0,0,1,68,10.62c0,1.8-.08,4.68-.08,10.81v10.7c0,5.84.12,10.64-.22,13.2-.27,1.76-.55,3.1-1.91,3.34a11.39,11.39,0,0,1-2,.25c-.41,0-.53.18-.53.36,0,.36.34.49,1.09.49,2,0,6.31-.19,6.38-.19.34,0,4.61.19,8.34.19.74,0,1.08-.19,1.08-.49s-.13-.36-.54-.36c-.61,0-2.1-.13-3-.25-2-.24-2.27-1.58-2.47-3.34-.34-2.56-.17-7.36-.17-13.2V30.67c0-.3,0-.48.3-.48l8.26.12a1.09,1.09,0,0,1,.84.36c1.35,1.58,4.52,5.66,7.36,9,3.87,4.56,6.23,7.54,9.15,8.94,4.15,2,9.06,2.13,12,2a19.14,19.14,0,0,0,10-2.55A12.16,12.16,0,0,0,127.51,38C127.51,33.1,125.61,29.33,117.61,23.68ZM86.22,27.27a9.62,9.62,0,0,1-5.09,1.15c-3,0-5.93-.42-6.95-1-.34-.18-.3-.43-.3-.73V6.83c0-.36,0-.6.37-.73a22,22,0,0,1,4.46-.36C86,5.74,90.39,10.3,90.39,17.9,90.39,22.52,88.59,25.81,86.22,27.27Z"/><path class="cls-1" d="M33.76,20.81a28.56,28.56,0,0,1,6.4,1S31.34-1.13,18.38,0C18.38,0,5.65,1.53.89,25.65c0,0-7.5,24.29,21,30.77A104.58,104.58,0,0,0,58.2,57.9s33.73-4.76,52.39-3.12a95.85,95.85,0,0,1,19.91,4.37s-10.15-7-28-6.95a200.85,200.85,0,0,0-28.89,1s-32.56,3.51-45,.93c0,0-15.22-2.5-22.17-15.14,0,0,1.4-5.86,1.56-7,0,0,6.87,3,18.35-7.34,0,0,.31-.63-.94-.63l-1.17-.07s-1.49-5.86.62-10.55c0,0,2.33-4.56,5.94-3.12,0,0,1.46.7.08,1.41l-1.74.88s-1.15.6.33,1.62c0,0,3.43,2.38,3.67,2.57C33.59,17.18,36.34,19,33.76,20.81Z"/></g></g></svg>