<?xml version="1.0" encoding="UTF-8"?>
<svg width="176px" height="34px" viewBox="0 0 176 34" version="1.1" xmlns="http://www.w3.org/2000/svg" xmlns:xlink="http://www.w3.org/1999/xlink">
    <!-- Generator: Sketch 49.3 (51167) - http://www.bohemiancoding.com/sketch -->
    <title>Shape</title>
    <desc>Created with Sketch.</desc>
    <defs></defs>
    <g id="Page-1" stroke="none" stroke-width="1" fill="none" fill-rule="evenodd">
        <path d="M126,23.7 L126,21.3 C124.9,22.2 122.7,22.3 120.8,22.6 C118.8,23 117.1,23.7 117.1,26 C117.1,28.4 118.9,28.9 121,28.9 C125.8,29 126,25.1 126,23.7 Z M44.4,18.6 L54.7,18.6 C54.1,15.4 52.7,13.7 49.7,13.7 C45.6,13.8 44.5,16.9 44.4,18.6 Z M67,18.6 L77.3,18.6 C76.7,15.4 75.3,13.7 72.3,13.7 C68.2,13.8 67.1,16.9 67,18.6 Z M111.7,17.7 L105.5,17.7 C105.1,15.1 103.5,13.7 100.8,13.7 C96.8,13.7 95.4,17.8 95.4,21.2 C95.4,24.5 96.7,28.4 100.6,28.4 C103.5,28.4 105.2,26.5 105.6,23.7 L111,23.7 C112.1,20.6 115.3,19.7 118.4,19.3 C122.3,18.7 125.9,18.9 125.9,16.3 C125.9,13.6 124,13.2 121.8,13.2 C119.4,13.2 117.8,15.2 117.6,17.7 L111.7,17.7 Z M175.7,22.6 L159.1,22.6 C159.3,26.6 161.2,28.4 164.7,28.4 C167.2,28.4 169.3,26.8 169.7,25.4 L175.3,25.4 C173.5,30.8 169.7,33.1 164.6,33.1 C159,33.1 155,30.1 153.5,25.5 C153.3,31.2 148.2,33.1 143,33.1 C138,33.1 133,31.3 132.3,26 L132.3,27.4 C132.3,29.5 132.5,31.6 133.1,32.5 L126.7,32.5 C126.5,31.8 126.3,31 126.3,30.3 C124.3,32.4 121.4,33.1 118.6,33.1 C114.6,33.1 111.4,31.3 110.9,27.4 C109.2,31.1 105.6,33.1 100.9,33.1 C95,33.1 90.8,29.6 89.6,24.3 L89.6,32.5 L83.3,32.5 L83.3,22.5 L67,22.5 C67.2,26.5 69.1,28.3 72.6,28.3 C75.1,28.3 77.2,26.7 77.6,25.3 L83.2,25.3 C81.4,30.7 77.6,33 72.5,33 C65.8,33 61.4,28.7 60.8,22.4 L44.4,22.4 C44.6,26.4 46.5,28.2 50,28.2 C52.5,28.2 54.6,26.6 55,25.2 L60.6,25.2 C58.8,30.6 55,32.9 49.8,32.9 C42.6,32.9 38.1,27.9 38.1,20.8 C38.1,13.9 42.9,8.7 49.8,8.7 C56.3,8.7 60,13.3 60.8,18.9 C61.6,13 66.1,8.7 72.4,8.7 C78.4,8.7 82,12.6 83.2,17.5 L83.2,0.5 L89.5,0.5 L89.5,17.9 C90.6,12.4 94.6,8.6 100.9,8.6 C105.9,8.6 110.5,11 111.5,16 C112.3,9.9 117.4,8.6 122.2,8.6 C126.8,8.6 132.3,9.6 132.3,15.1 L132.3,24.7 L138.2,24.7 C138.2,27.5 140.6,28.6 143,28.6 C144.8,28.6 147.1,27.9 147.1,25.7 C147.1,23.8 144.5,23.1 139.9,22.1 C136.3,21.3 132.6,20 132.6,16 C132.6,10.1 137.7,8.6 142.6,8.6 C147.6,8.6 152.2,10.3 152.7,15.9 L146.7,15.9 C146.5,13.5 144.7,12.8 142.4,12.8 C141,12.8 138.9,13.1 138.9,14.9 C138.9,17.2 142.5,17.5 146.1,18.3 C148.9,18.9 151.6,19.8 152.8,22.1 C152.8,21.6 152.7,21.2 152.7,20.7 C152.7,13.8 157.5,8.6 164.4,8.6 C172.4,9 176.2,15.6 175.7,22.6 Z M159.1,18.6 L169.4,18.6 C168.8,15.4 167.4,13.7 164.4,13.7 C160.4,13.8 159.2,16.9 159.1,18.6 Z M34.5,2.7 L34.5,9.6 L39.1,9.6 L39.1,13.3 L34.5,13.3 L34.5,25.2 C34.5,27.3 35,27.9 37.2,27.9 C37.9,27.9 38.5,27.9 39.2,27.7 L39.2,32.6 C38.1,32.8 36.8,32.8 35.5,32.8 C31.6,32.8 28.3,31.9 28.3,27.3 L28.3,13.2 L19.5,13.2 L19.5,10.3 C19.3,6.5 16.6,5.5 13.2,5.5 C11,5.5 8.4,6.4 8.4,9.1 C8.4,11.5 9.9,11.9 17.9,13.9 C20.2,14.5 27.3,15.9 27.3,23.1 C27.3,28.9 22.7,33.3 14.1,33.3 C7.1,33.3 0.5,29.8 0.6,22 L7.4,22 C7.4,26.2 10.7,27.9 14.4,27.9 C16.8,27.9 20.6,27.2 20.6,23.9 C20.6,20.5 15.8,19.9 11.2,18.7 C6.5,17.5 1.7,15.6 1.7,9.7 C1.7,3.2 7.8,0.1 13.6,0.1 C20,0.1 25.9,2.8 26.3,9.6 L28.4,9.6 L28.4,2.7 L34.5,2.7 Z" id="Shape" fill="#001226" fill-rule="nonzero"></path>
    </g>
</svg>