<?xml version="1.0" encoding="UTF-8"?>
<svg width="118px" height="88px" viewBox="0 0 118 88" version="1.1" xmlns="http://www.w3.org/2000/svg" xmlns:xlink="http://www.w3.org/1999/xlink">
    <!-- Generator: Sketch 49.3 (51167) - http://www.bohemiancoding.com/sketch -->
    <title>g3_1_</title>
    <desc>Created with Sketch.</desc>
    <defs></defs>
    <g id="Page-1" stroke="none" stroke-width="1" fill="none" fill-rule="evenodd">
        <g id="g3_1_" transform="translate(0.000000, 0.018000)" fill="#000000" fill-rule="nonzero">
            <path d="M116.9,10.9 C116.9,10.9 113.6,8.3 102.7,4.3 C93.2,0.8 85.9,-5.68434189e-14 85.9,-5.68434189e-14 L85.9,20.8 C85.9,29.6 76,38.9 59,38.9 L58.5,38.9 C41.6,38.9 31.6,29.6 31.6,20.8 L31.6,-5.68434189e-14 C31.6,-5.68434189e-14 24.3,0.8 14.8,4.3 C4,8.3 0.6,10.9 0.6,10.9 C1.4,27.6 27.3,41.3 58.6,41.3 C90.2,41.3 116.1,27.5 116.9,10.9" id="path5_1_"></path>
            <path d="M116.9,57.5 C116.9,57.5 113.6,60.1 102.7,64.1 C93.2,67.6 85.9,68.4 85.9,68.4 L85.9,47.6 C85.9,38.8 76,29.5 59,29.5 L58.8,29.5 L58.6,29.5 C41.7,29.5 31.7,38.8 31.7,47.6 L31.7,68.4 C31.7,68.4 24.4,67.6 14.9,64.1 C4.1,60.1 0.7,57.5 0.7,57.5 C1.5,40.8 27.4,27.1 58.7,27.1 C90.3,27.1 116.1,40.9 116.9,57.5" id="path7_1_"></path>
            <path d="M6.5,87.6 C3.9,87.6 3.8,85.6 3.8,84.8 L3.8,81.1 C3.8,80.9 3.8,80.6 4.3,80.6 L5.7,80.6 C6.1,80.6 6.1,80.9 6.1,81.1 L6.1,84.8 C6.1,85.1 6.1,85.8 7.1,85.8 L9.4,85.8 C10.3,85.8 10.4,85.1 10.4,84.8 L10.4,81.1 C10.4,80.9 10.4,80.6 10.8,80.6 L12.2,80.6 C12.7,80.6 12.7,80.9 12.7,81.1 L12.7,84.8 C12.7,85.6 12.6,87.6 10,87.6" id="path9_1_"></path>
            <path d="M19.2,87.1 C18.3,85.8 16.9,84.3 15.6,82.6 L15.6,87.1 C15.6,87.3 15.6,87.6 15.2,87.6 L13.9,87.6 C13.4,87.6 13.5,87.3 13.5,87.1 L13.5,81.1 C13.5,80.9 13.5,80.6 13.9,80.6 L16.4,80.6 C17.1,80.6 18.1,82 18.8,82.9 C19.3,83.6 20.2,84.7 20.9,85.5 L20.9,81.1 C20.9,80.9 20.9,80.6 21.3,80.6 L22.7,80.6 C23.1,80.6 23.1,80.9 23.1,81.1 L23.1,87.6 L20.5,87.6 C19.9,87.6 19.7,87.6 19.2,87.1" id="path11_1_"></path>
            <path d="M23.8,87.6 L23.8,80.6 L30,80.6 C30.4,80.6 32.9,80.5 32.9,83.2 C32.9,85.9 33.2,87.6 30,87.6 L26.7,87.6 L26,86.1 L26,87.6 L23.8,87.6 Z M29.7,85.7 C30.8,85.7 30.7,84.6 30.7,84.1 C30.7,82.5 30.2,82.4 29.5,82.4 L26,82.4 L26,85.7 L29.7,85.7 Z" id="path13_1_"></path>
            <path d="M35.3,80.6 L41,80.6 C41.5,80.6 41.4,80.9 41.4,81.5 C41.4,82 41.5,82.4 41,82.4 L36.5,82.4 C36.4,82.4 36,82.3 36,82.8 C36,83.2 35.9,83.4 36.4,83.4 L40.4,83.4 L41,84.7 C41.1,84.9 41.1,85 40.7,85 L36.6,85 L36,83.8 L36,85.6 C36,86 36.4,85.9 36.5,85.9 L41.2,85.9 C41.7,85.9 41.6,86.2 41.6,86.8 C41.6,87.4 41.6,87.7 41.2,87.7 L35.3,87.7 C34.8,87.7 33.9,87.5 33.9,86 L33.9,82.2 C33.7,81.7 34,80.6 35.3,80.6" id="path15_1_"></path>
            <path d="M42.9,80.6 L49.1,80.6 C49.9,80.6 51.1,80.6 51.1,82.8 C51.1,84.3 50.8,84.3 50.1,84.8 C51.2,85 51.1,86.4 51.1,87.2 C51.1,87.6 51,87.6 50.9,87.6 L49.1,87.6 C48.7,87.6 48.8,87 48.8,86.7 C48.8,85.8 48.3,85.9 48.1,85.9 L45.4,85.9 C45.1,85.5 44.6,84.5 44.6,84.5 L44.6,87.4 L44.3,87.7 L42.5,87.7 L42.3,87.5 L42.3,81.4 C42.4,80.8 42.7,80.6 42.9,80.6 M47.9,82.4 L45.1,82.4 C44.6,82.4 44.7,82.6 44.7,82.7 L44.7,83.9 L47.5,83.9 C48.9,83.9 48.9,83.6 48.9,83.2 C48.9,82.6 48.8,82.4 47.9,82.4" id="path17_1_"></path>
            <path d="M61.9,80.6 C62.4,80.6 62.8,80.8 63.3,81.7 C63.6,82.4 65.9,86.4 66.4,87.3 L66.4,87.5 L64.1,87.5 L63.4,86.3 L60.5,86.3 L59.9,84.9 C59.7,85.2 58.8,87 58.5,87.5 L56.1,87.5 L56.1,87.3 C56.6,86.4 59.9,80.5 59.9,80.5 M61.1,82.6 L59.9,84.7 L60,84.8 L62.1,84.8 L62.2,84.7 L61.1,82.6" id="path19_1_"></path>
            <path d="M67.8,80.6 L74,80.6 C74.8,80.6 76,80.6 76,82.8 C76,84.3 75.7,84.3 75,84.8 C76.1,85 76,86.4 76,87.2 C76,87.6 75.9,87.6 75.8,87.6 L74,87.6 C73.6,87.6 73.7,87 73.7,86.7 C73.7,85.8 73.2,85.9 73,85.9 L70.3,85.9 C70,85.5 69.5,84.5 69.5,84.5 L69.5,87.4 L69.2,87.7 L67.4,87.7 L67.2,87.5 L67.2,81.4 C67.2,80.8 67.5,80.6 67.8,80.6 M72.7,82.4 L69.9,82.4 C69.4,82.4 69.5,82.6 69.5,82.7 L69.5,83.9 L72.3,83.9 C73.7,83.9 73.7,83.6 73.7,83.2 C73.8,82.6 73.7,82.4 72.7,82.4" id="path21_1_"></path>
            <path d="M81.5,87.6 C81,86.7 79.8,84.3 78.9,82.8 L78.9,87.1 C78.9,87.3 78.9,87.6 78.5,87.6 L77.2,87.6 C76.7,87.6 76.8,87.3 76.8,87.1 L76.8,81.1 C76.8,80.9 76.8,80.6 77.2,80.6 L79.4,80.6 C79.7,80.6 80.2,80.5 80.7,81.6 C81.1,82.4 81.9,84.2 82.5,85.1 C83.1,84.2 83.9,82.5 84.3,81.6 C84.8,80.6 85.3,80.6 85.6,80.6 L87.8,80.6 C88.2,80.6 88.2,80.9 88.2,81.1 L88.2,87.1 C88.2,87.3 88.3,87.6 87.8,87.6 L86.5,87.6 C86,87.6 86.1,87.3 86.1,87.1 L86.1,82.8 C85.2,84.4 83.9,86.8 83.5,87.6" id="path23_1_"></path>
            <path d="M90.9,87.6 C88.8,87.6 88.9,85.4 88.9,84 C88.9,82.7 88.8,80.6 91.3,80.6 L95.9,80.6 C98.5,80.6 98.3,82.7 98.3,84 C98.3,85.4 98.4,87.6 96.3,87.6 L90.9,87.6 Z M95.1,85.8 C96.1,85.8 96.1,84.7 96.1,84 C96.1,83.3 96.3,82.3 94.9,82.3 L92.6,82.3 C91.2,82.3 91.4,83.3 91.4,84 C91.4,84.7 91.3,85.8 92.4,85.8 L95.1,85.8 Z" id="path25_1_"></path>
            <path d="M101.8,87.6 C99.2,87.6 99.1,85.6 99.1,84.8 L99.1,81.1 C99.1,80.9 99.1,80.6 99.6,80.6 L101,80.6 C101.4,80.6 101.4,80.9 101.4,81.1 L101.4,84.8 C101.4,85.1 101.4,85.8 102.4,85.8 L104.7,85.8 C105.6,85.8 105.7,85.1 105.7,84.8 L105.7,81.1 C105.7,80.9 105.7,80.6 106.1,80.6 L107.5,80.6 C108,80.6 108,80.9 108,81.1 L108,84.8 C108,85.6 108,87.6 105.3,87.6" id="path27_1_"></path>
            <path d="M109.4,80.6 L115.6,80.6 C116.4,80.6 117.6,80.6 117.6,82.8 C117.6,84.3 117.3,84.3 116.6,84.8 C117.7,85 117.6,86.4 117.6,87.2 C117.6,87.6 117.5,87.6 117.3,87.6 L115.5,87.6 C115.1,87.6 115.2,87 115.2,86.7 C115.2,85.8 114.7,85.9 114.5,85.9 L111.8,85.9 C111.5,85.5 111,84.5 111,84.5 L111,87.4 L110.7,87.7 L108.9,87.7 L108.7,87.5 L108.7,81.4 C108.8,80.8 109.1,80.6 109.4,80.6 M114.3,82.4 L111.5,82.4 C111,82.4 111.1,82.6 111.1,82.7 L111.1,83.9 L113.9,83.9 C115.3,83.9 115.3,83.6 115.3,83.2 C115.3,82.6 115.3,82.4 114.3,82.4" id="path29_1_"></path>
        </g>
    </g>
</svg>