<svg xmlns="http://www.w3.org/2000/svg" viewBox="0 0 113.84 58.76"><defs><style>.cls-1{fill:#001226;}.cls-2{fill:#fff;}</style></defs><title>Asset 9</title><g id="Layer_2" data-name="Layer 2"><g id="ARTE"><path class="cls-1" d="M14.37,36.12Q11,29.43,7.43,20.47T.75.94H11.31Q12,3.55,12.89,6.59c.61,2,1.23,4.08,1.88,6.15s1.3,4.09,1.95,6,1.29,3.75,1.92,5.35c.58-1.6,1.2-3.38,1.88-5.35s1.33-4,2-6,1.27-4.12,1.88-6.15S25.51,2.68,26,.94H36.26Q33.11,11.5,29.59,20.47T22.64,36.12Z"/><rect class="cls-1" x="38.2" y="0.94" width="9.97" height="35.18"/><path class="cls-1" d="M62.73,36.12q-3.42-6.69-6.95-15.65T49.1.94H59.67c.45,1.74,1,3.62,1.58,5.65s1.23,4.08,1.88,6.15,1.3,4.09,1.95,6,1.28,3.75,1.91,5.35q.87-2.4,1.88-5.35t2-6q1-3.11,1.88-6.15T74.31.94H84.62Q81.46,11.5,77.94,20.47T71,36.12Z"/><path class="cls-1" d="M98.53,0a23,23,0,0,1,7.35,1,11.45,11.45,0,0,1,4.72,2.88,10.56,10.56,0,0,1,2.51,4.55,22.45,22.45,0,0,1,.73,6V35.11c-1.42.31-3.41.68-6,1.11a57.68,57.68,0,0,1-9.23.63,29.41,29.41,0,0,1-6.19-.6,13.48,13.48,0,0,1-4.78-2,9,9,0,0,1-3.07-3.58,12.27,12.27,0,0,1-1.07-5.42,10.34,10.34,0,0,1,1.23-5.22,9.66,9.66,0,0,1,3.31-3.41,15.18,15.18,0,0,1,4.75-1.84,27.28,27.28,0,0,1,5.55-.56,32.14,32.14,0,0,1,3.45.16,15.08,15.08,0,0,1,2.44.44v-.94a5.51,5.51,0,0,0-1.54-4.08c-1-1-2.81-1.54-5.35-1.54a34.8,34.8,0,0,0-5,.37,21.65,21.65,0,0,0-4.28,1l-1.27-8c.58-.18,1.31-.37,2.18-.57S90.81.72,91.84.57,94,.28,95.08.17,97.37,0,98.53,0m.8,29.16c1,0,1.92,0,2.81-.07a18.45,18.45,0,0,0,2.14-.2V21.34a18,18,0,0,0-1.81-.27,19.71,19.71,0,0,0-2.21-.13,20.14,20.14,0,0,0-2.64.16,6.65,6.65,0,0,0-2.17.64A3.65,3.65,0,0,0,94,23a3.49,3.49,0,0,0-.54,2A3.43,3.43,0,0,0,95,28.26a8.67,8.67,0,0,0,4.31.9"/><path class="cls-1" d="M47.45,46.55a5,5,0,0,1,1.89.32,3.23,3.23,0,0,1,1.26.87,3.47,3.47,0,0,1,.7,1.33,5.92,5.92,0,0,1,.22,1.67v7.15c-.14,0-.35.09-.63.14s-.6.11-1,.16-.77.11-1.21.15-.91,0-1.37,0a6.24,6.24,0,0,1-1.66-.2,3.7,3.7,0,0,1-1.31-.62,2.89,2.89,0,0,1-.88-1.1,3.79,3.79,0,0,1-.32-1.63,3.35,3.35,0,0,1,.35-1.58,3,3,0,0,1,1-1.09A4.48,4.48,0,0,1,46,51.55a8.82,8.82,0,0,1,1.91-.2,4.78,4.78,0,0,1,.64,0l.66.08.55.11a2.08,2.08,0,0,1,.32.1V51A7.15,7.15,0,0,0,50,49.83a2.68,2.68,0,0,0-.38-1,2.12,2.12,0,0,0-.84-.72,3,3,0,0,0-1.41-.28,7.12,7.12,0,0,0-1.86.18c-.41.11-.71.21-.9.28L44.42,47a6.25,6.25,0,0,1,1.15-.33,10.14,10.14,0,0,1,1.88-.15m.13,10.57c.55,0,1,0,1.46,0a10.37,10.37,0,0,0,1.06-.15v-4a4.67,4.67,0,0,0-.77-.23,6.81,6.81,0,0,0-1.45-.12,6.91,6.91,0,0,0-1.09.08,3.07,3.07,0,0,0-1,.33,1.93,1.93,0,0,0-1.1,1.85,2.46,2.46,0,0,0,.21,1.07,1.71,1.71,0,0,0,.59.71,2.74,2.74,0,0,0,.92.38,5.6,5.6,0,0,0,1.22.12"/><path class="cls-1" d="M53.39,52.47a7.12,7.12,0,0,1,.43-2.6A5.63,5.63,0,0,1,54.93,48a4.38,4.38,0,0,1,1.58-1.11,4.81,4.81,0,0,1,1.83-.36,4.28,4.28,0,0,1,3.32,1.36A6,6,0,0,1,62.9,52.1c0,.12,0,.23,0,.35s0,.23,0,.33h-8a5,5,0,0,0,1,3.2A3.87,3.87,0,0,0,59,57.1a6.41,6.41,0,0,0,1.84-.22,7.49,7.49,0,0,0,1-.38l.26,1.23a5.56,5.56,0,0,1-1.15.42,7.25,7.25,0,0,1-2,.24A6.66,6.66,0,0,1,56.41,58a4.47,4.47,0,0,1-1.73-1.23,4.94,4.94,0,0,1-1-1.87,8.91,8.91,0,0,1-.3-2.38m8-.9a4.49,4.49,0,0,0-.83-2.76,2.7,2.7,0,0,0-2.24-1,3.07,3.07,0,0,0-1.37.31,3.64,3.64,0,0,0-1.05.82,3.87,3.87,0,0,0-.7,1.2,4.86,4.86,0,0,0-.3,1.42Z"/><path class="cls-1" d="M68.84,46.6a8.07,8.07,0,0,1,1.33.1,5,5,0,0,1,.87.22l-.29,1.23A3,3,0,0,0,70,48a7.76,7.76,0,0,0-1.42-.1,6.58,6.58,0,0,0-1.48.13,4.21,4.21,0,0,0-.73.22v9.93H65V47.34a11,11,0,0,1,1.52-.49,9.26,9.26,0,0,1,2.34-.25"/><path class="cls-1" d="M81.76,52.49a7.26,7.26,0,0,1-.39,2.44,5.31,5.31,0,0,1-1.07,1.86,4.93,4.93,0,0,1-3.72,1.62,4.93,4.93,0,0,1-3.72-1.62,5.47,5.47,0,0,1-1.07-1.86,8,8,0,0,1,0-4.87,5.52,5.52,0,0,1,1.07-1.87A5.11,5.11,0,0,1,78.66,47a4.76,4.76,0,0,1,1.64,1.21,5.36,5.36,0,0,1,1.07,1.87,7.2,7.2,0,0,1,.39,2.43m-1.52,0a5.39,5.39,0,0,0-1-3.38,3.45,3.45,0,0,0-5.35,0,5.33,5.33,0,0,0-1,3.38,5.29,5.29,0,0,0,1,3.38,3.49,3.49,0,0,0,5.35,0,5.35,5.35,0,0,0,1-3.38"/><path class="cls-1" d="M85.18,47.49a5.13,5.13,0,0,1,1.19-.6,5.44,5.44,0,0,1,1.94-.32,5.17,5.17,0,0,1,2.18.44,4.56,4.56,0,0,1,1.61,1.23,5.46,5.46,0,0,1,1,1.88,7.76,7.76,0,0,1,.34,2.37A7.13,7.13,0,0,1,93,55a5.3,5.3,0,0,1-1.14,1.86A4.84,4.84,0,0,1,90.14,58a6.11,6.11,0,0,1-2.27.4,12.42,12.42,0,0,1-2.5-.2,13.44,13.44,0,0,1-1.62-.41V41.4l1.43-.26Zm0,9.32a6.88,6.88,0,0,0,1,.21,11.14,11.14,0,0,0,1.7.1,3.89,3.89,0,0,0,3-1.19,4.85,4.85,0,0,0,1.12-3.44,7.89,7.89,0,0,0-.2-1.78,4.09,4.09,0,0,0-.63-1.47,3.22,3.22,0,0,0-1.16-1,3.73,3.73,0,0,0-1.76-.37,4.37,4.37,0,0,0-1,.1,5.16,5.16,0,0,0-1.54.58,2.59,2.59,0,0,0-.49.33Z"/><path class="cls-1" d="M104.14,57.76c-.43.11-1,.24-1.71.39a13.9,13.9,0,0,1-2.63.22A5.5,5.5,0,0,1,97.67,58a3.41,3.41,0,0,1-1.38-1.06,4.36,4.36,0,0,1-.76-1.64,9.33,9.33,0,0,1-.23-2.13V46.82h1.43v5.89a10.58,10.58,0,0,0,.17,2,3.36,3.36,0,0,0,.57,1.35,2.29,2.29,0,0,0,1,.74,4.31,4.31,0,0,0,1.53.24,12.68,12.68,0,0,0,1.75-.11,4.94,4.94,0,0,0,.94-.2v-10h1.43Z"/><path class="cls-1" d="M109.14,57.14a4.4,4.4,0,0,0,2-.41,1.4,1.4,0,0,0,.79-1.36,1.86,1.86,0,0,0-.14-.79,1.55,1.55,0,0,0-.47-.6,4.44,4.44,0,0,0-.86-.5l-1.33-.57c-.43-.18-.83-.35-1.21-.54a5.08,5.08,0,0,1-1-.63,2.83,2.83,0,0,1-.7-.87,2.7,2.7,0,0,1-.26-1.23,2.75,2.75,0,0,1,1-2.23,4.38,4.38,0,0,1,2.86-.86,7.79,7.79,0,0,1,1.92.2,6.1,6.1,0,0,1,1.06.35l-.32,1.27c-.18-.09-.48-.2-.89-.35a5.74,5.74,0,0,0-1.83-.22,3.79,3.79,0,0,0-.91.1,2.48,2.48,0,0,0-.76.31,1.65,1.65,0,0,0-.53.52,1.5,1.5,0,0,0-.19.78,1.55,1.55,0,0,0,.69,1.38,4.23,4.23,0,0,0,.83.47l1.13.48c.44.18.86.35,1.26.53a4.65,4.65,0,0,1,1.06.66,3,3,0,0,1,.75.92,2.87,2.87,0,0,1,.28,1.35,2.62,2.62,0,0,1-1.15,2.32,5.42,5.42,0,0,1-3.14.79,7.79,7.79,0,0,1-2.28-.25c-.53-.17-.88-.3-1.06-.38l.38-1.3a1.72,1.72,0,0,0,.28.14,3.74,3.74,0,0,0,.59.22,5.57,5.57,0,0,0,.89.21,7.07,7.07,0,0,0,1.2.09"/><path class="cls-1" d="M12.29,52.43a6.15,6.15,0,1,1-6.15-6.14,6.14,6.14,0,0,1,6.15,6.14"/><path class="cls-2" d="M9.22,49.83a1.48,1.48,0,1,1-1.47-1.47,1.47,1.47,0,0,1,1.47,1.47"/><path class="cls-2" d="M26,52.43a6.14,6.14,0,1,1-6.14-6.14A6.14,6.14,0,0,1,26,52.43"/><path class="cls-1" d="M19.81,58.76a6.33,6.33,0,1,1,6.33-6.33,6.34,6.34,0,0,1-6.33,6.33m0-12.29a6,6,0,1,0,6,6,6,6,0,0,0-6-6"/><path class="cls-1" d="M22.89,49.83a1.48,1.48,0,1,1-1.48-1.47,1.48,1.48,0,0,1,1.48,1.47"/><path class="cls-1" d="M39.62,52.43a6.15,6.15,0,1,1-6.15-6.14,6.14,6.14,0,0,1,6.15,6.14"/><path class="cls-2" d="M36.55,49.83a1.48,1.48,0,1,1-1.47-1.47,1.47,1.47,0,0,1,1.47,1.47"/></g></g></svg>