<?xml version="1.0" encoding="utf-8"?>
<!-- Generator: Adobe Illustrator 21.0.0, SVG Export Plug-In . SVG Version: 6.00 Build 0)  -->
<svg version="1.1" id="Layer_1" xmlns="http://www.w3.org/2000/svg" xmlns:xlink="http://www.w3.org/1999/xlink" x="0px" y="0px"
	 viewBox="0 0 40 40" style="enable-background:new 0 0 40 40;" xml:space="preserve">
<style type="text/css">
	.st0{opacity:0.5;}
	.st1{fill:#1A1A1A;}
</style>
<g class="st0">
	<path class="st1" d="M38.9,36.9C38.9,36.9,38.9,36.9,38.9,36.9L1,33c-0.4,0-0.6-0.3-0.6-0.7v-5.5c0-0.3,0.2-0.6,0.5-0.7l15.4-4.2
		c1.9-0.5,3.9-1,5.8-1.4c0.8-0.2,1.6-0.3,2.5-0.5l-5.8-1.2l-2.8-0.7L0.9,14.4c-0.3-0.1-0.5-0.4-0.5-0.7V8.1c0-0.3,0.3-0.6,0.6-0.7
		l37.8-4.4c0.2,0,0.4,0,0.5,0.2c0.1,0.1,0.2,0.3,0.2,0.5v6.2c0,0.4-0.3,0.7-0.6,0.7l-14.5,1.2c-0.5,0-0.9,0-1.2,0l-4.7,0.3l4.1,1
		l16.5,4c0.3,0.1,0.5,0.4,0.5,0.7v4.3c0,0.3-0.2,0.6-0.5,0.7l-14.3,3.8c-1.9,0.5-3.8,1-5.8,1.4c-0.2,0-0.4,0.1-0.7,0.1L39,29.5
		c0.4,0,0.6,0.3,0.6,0.7v6.1c0,0.2-0.1,0.4-0.2,0.5C39.2,36.9,39.1,36.9,38.9,36.9z M1.8,31.7l36.4,3.8v-4.7L12.8,29
		c-0.3,0-0.6-0.3-0.6-0.7c0-0.3,0.2-0.7,0.6-0.7c2.1-0.3,4.1-0.7,6.1-1.1c1.9-0.4,3.8-0.9,5.7-1.4l13.8-3.6v-3.3l-20.7-5
		c-0.4-0.1-1-0.2-1.7-0.4c-0.7-0.1-1.4-0.3-2.3-0.4l-0.8-0.2c-0.3-0.1-0.6-0.4-0.5-0.7c0-0.3,0.3-0.6,0.6-0.7l0.4,0
		c0.2,0,0.2,0,0.3,0l4.6-0.2l5.1-0.3c0.3,0,0.7,0,1.2,0l1.7-0.1l12.2-1V4.5L1.8,8.8v4.4l17.4,4.3l8.4,1.7c0.1,0,0.2,0,0.3,0.1
		l0.7,0.1c0.3,0,0.6,0.3,0.6,0.7c0,0.3-0.2,0.6-0.6,0.7c-2.1,0.3-4.1,0.7-6.1,1.2c-1.9,0.4-3.9,0.9-5.8,1.4L1.8,27.3V31.7z"/>
</g>
</svg>
