<?xml version="1.0" encoding="utf-8"?>
<!-- Generator: Adobe Illustrator 21.0.0, SVG Export Plug-In . SVG Version: 6.00 Build 0)  -->
<svg version="1.1" id="Layer_1" xmlns="http://www.w3.org/2000/svg" xmlns:xlink="http://www.w3.org/1999/xlink" x="0px" y="0px"
	 viewBox="0 0 949 212.3" enable-background="new 0 0 949 212.3" xml:space="preserve">
<g>
	<path d="M261.7,66.9l-1.4-3.6c-1.4,1.4-4,2.7-7.3,2.7c-6.8,0-10.5-8-10.5-19.1c0-10.6,3-18.8,10.6-18.8c3.4,0,5.9,1.3,7.2,2.7
		l1.3-3.4c-1.8-1.9-4.6-3.3-9.2-3.3c-9.3,0-15.3,8.5-15.3,23.2c0,14.6,5.9,23.1,15.2,23.1C256.9,70.2,260.2,68.7,261.7,66.9z"/>
	<path d="M295.2,42.7l-20,2.4c0-11.2,4.8-17.1,10.6-17.1C291.7,28.1,295,32.6,295.2,42.7z M300.8,45.8c0.1-15.1-5.8-21.9-14.9-21.9
		c-8.9,0-15.7,7.5-15.7,23c0,16.6,7.8,23.3,17.7,23.3c5.1,0,9.6-1.6,11.7-3.3l-1.5-3.9c-1.7,1.3-5.2,2.9-10.1,2.9
		c-7.5,0-12.2-6.1-12.7-17.2L300.8,45.8z"/>
	<path d="M341.3,69.4V36.7c0-9.4-5.9-12.8-13.4-12.8c-6.3,0-10.9,1.2-14.4,3.3v42.2h5.3V29.3c1.9-0.9,3.9-1.6,8.2-1.6
		c5.7,0,8.9,3,8.9,8.9v32.7L341.3,69.4L341.3,69.4z"/>
	<path d="M370.6,69.2v-3.7c-0.8,0.2-1.6,0.3-2.3,0.3c-3.1,0-5.3-1.8-5.3-6.8V28.1h7.6v-3.4H363V12.1l-5.1,2.1v10.6h-4.4v3.4h4.4v31
		c0,7.3,4.1,10.5,9.4,10.5C368.5,69.7,369.8,69.5,370.6,69.2z"/>
	<path d="M398.3,23.9c-9.9,0-12.6,1-16.7,3.3v42.2h5.3V29.5c2.4-1.6,6.2-2,9.8-0.8L398.3,23.9z"/>
	<path d="M430.2,42.7l-20,2.4c0-11.2,4.8-17.1,10.6-17.1C426.6,28.1,429.9,32.6,430.2,42.7z M435.8,45.8
		c0.1-15.1-5.8-21.9-14.9-21.9c-8.9,0-15.7,7.5-15.7,23c0,16.6,7.8,23.3,17.7,23.3c5.1,0,9.6-1.6,11.7-3.3L433,63
		c-1.7,1.3-5.3,2.9-10.1,2.9c-7.4,0-12.2-6.1-12.7-17.2L435.8,45.8z"/>
	<path d="M499,66.9l-1.4-3.6c-1.4,1.4-4,2.7-7.3,2.7c-6.7,0-10.5-8-10.5-19.1c0-10.6,3-18.8,10.6-18.8c3.4,0,5.8,1.3,7.2,2.7
		l1.3-3.4c-1.8-1.9-4.6-3.3-9.2-3.3c-9.3,0-15.3,8.5-15.3,23.2c0,14.6,5.9,23.1,15.2,23.1C494.2,70.2,497.5,68.7,499,66.9z"/>
	<path d="M537.4,66.5V24.8h-5.3v39.6c-1.9,1.2-4.3,2-7.8,2c-5.2,0-8.8-3.2-8.8-9.8V24.8h-5.3V56c0,9.4,4.5,14.3,13.7,14.3
		C530.1,70.3,534.7,68.4,537.4,66.5z"/>
	<rect x="552.2" y="4.4" width="5.3" height="65"/>
	<path d="M587.4,69.2v-3.7c-0.8,0.2-1.6,0.3-2.3,0.3c-3.1,0-5.3-1.8-5.3-6.8V28.1h7.6v-3.4h-7.6V12.1l-5.1,2.1v10.6h-4.4v3.4h4.4v31
		c0,7.3,4.1,10.5,9.4,10.5C585.4,69.7,586.6,69.5,587.4,69.2z"/>
	<path d="M625.7,66.5V24.8h-5.3v39.6c-1.9,1.2-4.3,2-7.8,2c-5.2,0-8.8-3.2-8.8-9.8V24.8h-5.3V56c0,9.4,4.5,14.3,13.7,14.3
		C618.4,70.3,623,68.4,625.7,66.5z"/>
	<path d="M656.5,23.9c-9.9,0-12.6,1-16.7,3.3v42.2h5.3V29.5c2.4-1.6,6.2-2,9.8-0.8L656.5,23.9z"/>
	<path d="M684.9,65.3c-1.4,0.8-4.3,1.5-7.1,1.5c-6.4,0-10.1-3.1-10.1-9.6c0-9.2,6.2-11.8,17.2-13.3L684.9,65.3L684.9,65.3z
		 M689.9,66.9V37.8c0-10.6-6.7-13.8-13.6-13.8c-4.8,0-9,1.8-11.2,3.3l1.3,3.5c1.9-1.3,5.6-2.8,9.4-2.8c5.2,0,9.1,2.6,9.1,9.9v2.6
		c-11.4,1.3-22.3,4.7-22.3,16.8c0,7.5,4.6,13.1,14.7,13.1C682.5,70.2,686.9,68.9,689.9,66.9z"/>
	<rect x="704.7" y="4.4" width="5.3" height="65"/>
	<rect x="19.5" y="89.7" fill="#FFFFFF" width="20.9" height="116.8"/>
	<path fill="#FFFFFF" d="M93.7,193.5c-1.6,0.6-4.4,1.3-7.3,1.3c-8.1,0-12.4-4.6-12.4-12.8c0-11.6,6.5-15.8,19.8-17.4L93.7,193.5
		L93.7,193.5z M113.7,202v-47.8c0-22-12.1-29.5-28.2-29.5c-12.9,0-21.5,3.4-26.4,5.9l4.3,12.6c4.6-2.2,11-4.2,18.2-4.2
		c7.5,0,12.3,3.6,12.3,11.2v2.7c-22.9,2.8-39.2,9.2-39.2,29.8c0,15.9,10.3,25.1,30.9,25.1C98.8,207.9,107.4,205.7,113.7,202z"/>
	<path fill="#FFFFFF" d="M205.4,140.7v-14.4h-11.3v-10.1c0-9.7,4.8-12.5,11.3-12.2V89.7c-19.3-2.1-32,8.3-32,28.4v8.2h-7.6v14.4h7.6
		v65.8h20.7v-65.8H205.4z"/>
	<path fill="#FFFFFF" d="M250.6,193.5c-1.6,0.6-4.5,1.3-7.3,1.3c-8.1,0-12.4-4.6-12.4-12.8c0-11.6,6.5-15.8,19.8-17.4v28.9H250.6z
		 M270.5,202v-47.8c0-22-12.1-29.5-28.2-29.5c-12.9,0-21.5,3.4-26.5,5.9l4.3,12.6c4.6-2.2,11-4.2,18.2-4.2c7.5,0,12.3,3.6,12.3,11.2
		v2.7c-23,2.8-39.2,9.2-39.2,29.8c0,15.9,10.3,25.1,30.9,25.1C255.7,207.9,264.3,205.7,270.5,202z"/>
	<path fill="#FFFFFF" d="M326.1,124.9c-19.8-0.9-30.7,1.5-38.6,5.8v75.7h20.6v-66.1c4-1.8,9.4-1.9,14.2,0.3L326.1,124.9z"/>
	<path fill="#FFFFFF" d="M356.9,206.5v-80.2h-20.7v80.2H356.9z M357.7,102.8c0-5.8-5.1-10.4-11.3-10.4c-6.1,0-11,4.6-11,10.4
		c0,5.6,4.9,10.4,11,10.4C352.5,113.2,357.7,108.4,357.7,102.8z"/>
	<path fill="#FFFFFF" d="M434.7,206.5v-56.7c0-17-9.7-25-30.7-25c-13.1,0-22.8,2.4-29.6,5.9v75.7H395v-66.1c2.2-1,4.3-1.5,8.6-1.5
		c7.3,0,10.3,3.9,10.3,10.9v56.7h20.8V206.5z"/>
	<path fill="#FFFFFF" d="M492.1,160l-23.3,2.7c-0.2-14.1,4.8-24,12.4-24C488.9,138.8,492.1,146.5,492.1,160z M512.3,170.3
		c1.6-28.3-8.9-45.5-30.6-45.5c-20.4,0-32.2,17.3-32.2,41.4c0,26.2,12.1,41.8,34.7,41.8c11.5,0,19.9-2.4,25.3-5.9l-4.6-13.5
		c-3.3,1.9-9.2,4.2-18,4.2c-10.2,0-15.6-5.8-16.9-17.4L512.3,170.3z"/>
	<path fill="#FFFFFF" d="M565.8,124.9c-19.8-0.9-30.7,1.5-38.6,5.8v75.7h20.6v-66.1c4-1.8,9.4-1.9,14.2,0.3L565.8,124.9z"/>
	<path fill="#FFFFFF" d="M607.9,193.5c-1.6,0.6-4.4,1.3-7.3,1.3c-8.1,0-12.4-4.6-12.4-12.8c0-11.6,6.5-15.8,19.7-17.4V193.5z
		 M627.8,202v-47.8c0-22-12.1-29.5-28.2-29.5c-12.9,0-21.5,3.4-26.4,5.9l4.3,12.6c4.6-2.2,11-4.2,18.2-4.2c7.5,0,12.3,3.6,12.3,11.2
		v2.7c-22.9,2.8-39.2,9.2-39.2,29.8c0,15.9,10.4,25.1,30.9,25.1C613,207.9,621.6,205.7,627.8,202z"/>
	<path d="M674.9,202c-1.5,1-3.6,1.1-5.6,1.1c-8.1,0-11.3-7.5-11.3-17.6c0-8.9,2.9-17.9,12.2-17.9c2,0,3.4,0.4,4.8,0.7V202H674.9z
		 M679.7,203.5V146h-4.9v19c-1.5-0.5-3.4-0.8-5.3-0.8c-9.5,0-16.5,7.8-16.5,21.7c0,12.2,5.1,20.7,15.8,20.7
		C673.6,206.6,677.7,205.2,679.7,203.5z"/>
	<path d="M712.2,181.3l-18.5,2.2c0-10.3,4.4-15.7,9.8-15.7C709,167.8,712,172,712.2,181.3z M717.4,184.1
		c0.1-13.9-5.3-20.1-13.7-20.1c-8.2,0-14.5,6.9-14.5,21.2c0,15.2,7.2,21.4,16.2,21.4c4.7,0,8.8-1.5,10.8-3.1l-1.4-3.6
		c-1.5,1.2-4.8,2.7-9.3,2.7c-6.9,0-11.3-5.6-11.7-15.9L717.4,184.1z"/>
	<rect x="727.2" y="146" width="4.9" height="59.8"/>
	<path fill="#FFFFFF" d="M800.8,202.8l-3.6-11.7c-1.9,1.3-4.5,2.4-9.1,2.4c-11,0-15-14.7-15-28.1c0-13.8,3.3-28.9,15.2-28.9
		c4.4,0,7.1,1.1,8.9,2.4l3.4-10.8c-3.6-3-8.8-4.8-16.1-4.8c-19.9,0-29.3,20.4-29.3,42.2c0,22.5,9.1,42.2,29,42.2
		C792.1,207.6,797.4,205.8,800.8,202.8z"/>
	<rect x="810.3" y="123.4" fill="#FFFFFF" width="16.7" height="83"/>
	<path fill="#FFFFFF" d="M873.1,174c0,11.5-1.3,21.1-8.7,21.1c-7.1,0-8.6-9.5-8.6-21.2s1.3-21.4,8.6-21.4
		C871.8,152.4,873.1,162.3,873.1,174z M889.6,174.2c0-19.1-8.2-33.2-25.1-33.2c-16.8,0-25.1,14.2-25.1,33.2
		c0,19.1,8.3,33.4,25.1,33.4C881.4,207.6,889.6,193.3,889.6,174.2z"/>
	<path fill="#FFFFFF" d="M929.5,205.6v-11.1c-0.9,0.2-1.9,0.6-3.4,0.6c-3.4,0-5.6-2-5.6-8v-33.4h9.1v-11.6h-9.1v-18.8l-16.6,4.9
		v13.9h-6.1v11.6h6.1v35c0,11.3,6.1,18.5,17.3,18.5C925,207.2,928.5,206.3,929.5,205.6z"/>
</g>
</svg>
