<?xml version="1.0" encoding="UTF-8"?>
<svg width="51px" height="51px" viewBox="0 0 51 51" version="1.1" xmlns="http://www.w3.org/2000/svg" xmlns:xlink="http://www.w3.org/1999/xlink">
    <title>Combined Shape</title>
    <g id="Page-1" stroke="none" stroke-width="1" fill="none" fill-rule="evenodd">
        <path d="M7.46847093,7.47068483 C17.4219486,-2.49022828 33.5700738,-2.49022828 43.5325176,7.47068483 C53.4891608,17.4284751 53.4891608,33.5704039 43.5325176,43.5281942 C33.5780437,53.4881112 17.4309148,53.4910995 7.46847093,43.5341707 C-2.4939729,33.577242 -2.4850067,17.4315979 7.46847093,7.47068483 Z M15.461426,30.2888 C13.3639957,30.2888 11.6636926,32.0150109 11.6636926,34.1444 C11.6636926,36.2737891 13.3639957,38 15.461426,38 C17.5588562,38 19.2591593,36.2737891 19.2591593,34.1444 C19.2591593,32.0150109 17.5588562,30.2888 15.461426,30.2888 Z M36.2654092,30.2888 C34.167979,30.2888 32.4676759,32.0150109 32.4676759,34.1444 C32.4676759,36.2737891 34.167979,38 36.2654092,38 C38.3628395,38 40.0631426,36.2737891 40.0631426,34.1444 C40.0631426,33.1218313 39.6630254,32.1411444 38.9508123,31.4180791 C38.2385991,30.6950138 37.2726308,30.2888 36.2654092,30.2888 Z M41.0657442,13.0002896 L17.056474,13.0002896 L16.9486629,13.005613 C16.4885074,13.0553114 16.1261735,13.4448331 16.1146361,13.9256336 L16.1146361,13.9256336 L16.114548,16.7967609 C16.0999164,17.0050919 16.0137205,17.2031862 15.8688432,17.3551739 C15.6949905,17.537559 15.4530059,17.6363778 15.2031801,17.6270096 L15.2031801,17.6270096 L12.1649934,17.6270096 L12.0491436,17.6368255 C11.7444211,17.6818414 11.4771236,17.8751722 11.3370875,18.1590824 L11.3370875,18.1590824 L8.77741526,23.2793192 L8.71791726,23.379422 C8.56639894,23.6025469 8.32886431,23.7507791 8.06435158,23.7872763 L8.06435158,23.7872763 L7.94950939,23.7959696 L7.82554319,23.7992834 C7.62073404,23.8189744 7.42712119,23.9086589 7.27756015,24.0556399 C7.0980869,24.2320172 6.99777714,24.475444 7.00003739,24.7290248 L7.00003739,24.7290248 L7.00003739,32.1163544 L7.00709188,32.2253984 C7.06382582,32.6902862 7.454246,33.0494096 7.92672299,33.0494096 L7.92672299,33.0494096 L10.2585313,33.0494096 L10.3094928,32.8234976 C10.9012008,30.4352451 13.0201806,28.7445421 15.4652237,28.7445421 C17.9866743,28.7445421 20.1613644,30.5425651 20.6719161,33.0494096 L20.6719161,33.0494096 L31.0777055,33.0494096 L31.1308651,32.8192049 C31.7286377,30.4622152 33.81609,28.7911567 36.2326014,28.7696205 C38.7270648,28.7473896 40.9013443,30.4887966 41.4607085,32.9568752 C41.7899425,32.8073596 42.0013682,32.4748077 41.9999933,32.1086432 L41.9999933,32.1086432 L41.9999933,13.9256336 L41.9918398,13.8020237 C41.9648331,13.5983071 41.8715984,13.4081801 41.7250221,13.2629998 C41.5491305,13.0887836 41.3114009,12.9940526 41.0657442,13.0002896 L41.0657442,13.0002896 Z M14.1398147,19.6164992 C14.5593008,19.6164992 14.8993614,19.9617414 14.8993614,20.3876192 L14.8993614,20.3876192 L14.8993614,22.6084448 L14.876575,22.5853112 L14.8696413,22.6899476 C14.8193467,23.0663319 14.5015572,23.3564312 14.1170283,23.3564312 L14.1170283,23.3564312 L11.3598739,23.3564312 L11.2778392,23.3488534 C11.1438311,23.3241249 11.0256689,23.2402461 10.9573142,23.117384 C10.8745494,22.9718469 10.8745494,22.7925379 10.9573142,22.6470008 L10.9573142,22.6470008 L12.2485435,20.032904 L12.3029043,19.9422167 C12.4427735,19.7414376 12.6705372,19.6184843 12.9169446,19.6164992 L12.9169446,19.6164992 Z" id="Combined-Shape" fill="#F3B600" fill-rule="nonzero"></path>
    </g>
</svg>