<?xml version="1.0" encoding="UTF-8"?>
<svg width="51px" height="51px" viewBox="0 0 51 51" version="1.1" xmlns="http://www.w3.org/2000/svg" xmlns:xlink="http://www.w3.org/1999/xlink">
    <title>Shape</title>
    <g id="Page-1" stroke="none" stroke-width="1" fill="none" fill-rule="evenodd">
        <path d="M43.5325176,7.47068483 C33.5700738,-2.49022828 17.4219486,-2.49022828 7.46847093,7.47068483 C-2.4850067,17.4315979 -2.4939729,33.577242 7.46847093,43.5341707 C17.4309148,53.4910995 33.5780437,53.4881112 43.5325176,43.5281942 C53.4891608,33.5704039 53.4891608,17.4284751 43.5325176,7.47068483 Z M38.6210328,35.5216122 L38.6210328,35.5216122 L38.6210328,35.5126474 L37.3259151,36.7966091 C35.6547568,38.4889821 33.2205822,39.1851632 30.9071125,38.6324054 C28.5765288,38.008466 26.3607799,37.0157694 24.3438545,35.6919438 C22.4691911,34.494876 20.7319192,33.0952508 19.1633837,31.5183213 C17.7206847,30.08697 16.4247644,28.5149529 15.2949668,26.8257351 C14.0590153,25.0104687 13.0806917,23.0326681 12.3879257,20.9487964 C11.5931305,18.4991846 12.2511467,15.8108339 14.0875186,14.0050438 L15.6008138,12.4919811 C16.0225514,12.0703124 16.7063188,12.0703124 17.1280565,12.4919811 L17.1280565,12.4919811 L21.9100295,17.2732194 C22.331763,17.6948922 22.331763,18.3785546 21.9100295,18.8002274 L21.9100295,18.8002274 L19.1046053,21.6052205 C18.3013122,22.4021438 18.2001673,23.6660501 18.8665029,24.5805453 C19.8811898,25.972985 21.004117,27.283254 22.2248427,28.4991685 C23.5852812,29.8658415 25.06455,31.1088764 26.6451791,32.213593 C27.5590263,32.8487844 28.7964103,32.7397806 29.5850962,31.9546092 L32.2978697,29.2004168 C32.5002253,28.9979848 32.7747429,28.8842507 33.0609929,28.8842507 C33.3472429,28.8842507 33.6217605,28.9979848 33.8241161,29.2004168 L33.8241161,29.2004168 L38.6060891,33.9946043 C38.8106071,34.1951106 38.92708,34.4686403 38.9299342,34.7550136 C38.932685,35.0413869 38.8215875,35.317143 38.6210328,35.5216122 Z" id="Shape" fill="#ACC434" fill-rule="nonzero"></path>
    </g>
</svg>