<?xml version="1.0" encoding="UTF-8"?>
<svg width="198px" height="131px" viewBox="0 0 198 131" version="1.1" xmlns="http://www.w3.org/2000/svg" xmlns:xlink="http://www.w3.org/1999/xlink">
    <title>Combined Shape</title>
    <g id="Page-1" stroke="none" stroke-width="1" fill="none" fill-rule="evenodd">
        <path d="M102,-2.27373675e-13 C87.7942708,37.9270833 76.6503906,80.3753255 68.5683594,127.344727 C32.5861003,129.1875 9.72998047,130.405924 -5.68434189e-14,131 C10.0338542,93.7858073 29.0234375,50.9401042 56.96875,2.46289062 C79.3216146,0.820963542 94.3320313,-2.27373675e-13 102,-2.27373675e-13 Z M198,-2.27373675e-13 C183.794271,37.9270833 172.650391,80.3753255 164.568359,127.344727 C128.5861,129.1875 105.72998,130.405924 96,131 C106.033854,93.7858073 125.023438,50.9401042 152.96875,2.46289062 C175.321615,0.820963542 190.332031,-2.27373675e-13 198,-2.27373675e-13 Z" id="Combined-Shape" fill="#FFFFFF"></path>
    </g>
</svg>