<?xml version="1.0" encoding="UTF-8"?>
<svg width="198px" height="131px" viewBox="0 0 198 131" version="1.1" xmlns="http://www.w3.org/2000/svg" xmlns:xlink="http://www.w3.org/1999/xlink">
    <title>Shape</title>
    <g id="Page-1" stroke="none" stroke-width="1" fill="none" fill-rule="evenodd">
        <path d="M96,131 C110.205729,93.0729167 121.349609,50.6246745 129.431641,3.65527344 L176.890397,1.18129395 L176.890397,1.18129395 L195.412783,0.154565625 L195.412783,0.154565625 L198,-2.27373675e-13 L198,-2.27373675e-13 C195.391198,9.6756901 192.176989,19.7320703 188.357372,30.1691406 L187.465175,32.5844531 C182.799966,45.0984831 177.274111,58.1537012 170.88761,71.7501074 L169.640766,74.3884277 C169.011971,75.7109668 168.375116,77.0385742 167.7302,78.37125 L166.429622,81.0433594 C166.211068,81.4898372 165.991618,81.9368783 165.771273,82.3844824 L164.438454,85.0768652 L164.438454,85.0768652 L163.084141,87.7827637 L163.084141,87.7827637 L161.708335,90.5021777 L161.708335,90.5021777 L160.311035,93.2351074 L160.311035,93.2351074 L158.892241,95.9815527 L158.892241,95.9815527 L157.451954,98.7415137 C156.726437,100.124873 155.992859,101.513301 155.251222,102.906797 L153.7572,105.700547 C153.506405,106.167298 153.254715,106.634613 153.002129,107.10249 L151.475866,109.916514 L151.475866,109.916514 L149.92811,112.744053 C149.66836,113.216436 149.407714,113.689382 149.146172,114.162891 L147.566175,117.010703 C147.035927,117.962227 146.502097,118.916003 145.964684,119.872031 L144.3417,122.746875 C143.797123,123.707409 143.248964,124.670195 142.697222,125.635234 L141.03125,128.537109 L141.03125,128.537109 L133.180966,129.101186 L133.180966,129.101186 L125.985867,129.592006 L125.985867,129.592006 L121.983297,129.851335 L121.983297,129.851335 L117.013441,130.156083 L117.013441,130.156083 L113.008789,130.384277 L113.008789,130.384277 L108.825156,130.601117 L108.825156,130.601117 L105.060841,130.771073 L105.060841,130.771073 L102.111039,130.881324 L102.111039,130.881324 L100.200593,130.938098 L100.200593,130.938098 L98.1242686,130.982052 L98.1242686,130.982052 L96.5741746,130.998535 L96.5741746,130.998535 L96,131 L96,131 Z M0,131 C14.2057292,93.0729167 25.3496094,50.6246745 33.4316406,3.65527344 L80.8903967,1.18129395 L80.8903967,1.18129395 L99.4127828,0.154565625 L99.4127828,0.154565625 L102,-2.27373675e-13 L102,-2.27373675e-13 C99.3911979,9.6756901 96.1769885,19.7320703 92.3573719,30.1691406 L91.465175,32.5844531 C86.7999656,45.0984831 81.2741107,58.1537012 74.8876102,71.7501074 L73.6407664,74.3884277 C73.0119711,75.7109668 72.3751156,77.0385742 71.7302,78.37125 L70.4296219,81.0433594 C70.2110677,81.4898372 69.991618,81.9368783 69.7712727,82.3844824 L68.4384539,85.0768652 L68.4384539,85.0768652 L67.0841414,87.7827637 L67.0841414,87.7827637 L65.7083352,90.5021777 L65.7083352,90.5021777 L64.3110352,93.2351074 L64.3110352,93.2351074 L62.8922414,95.9815527 L62.8922414,95.9815527 L61.4519539,98.7415137 C60.7264367,100.124873 59.9928594,101.513301 59.2512219,102.906797 L57.7572,105.700547 C57.5064052,106.167298 57.2547148,106.634613 57.0021289,107.10249 L55.4758664,109.916514 L55.4758664,109.916514 L53.9281102,112.744053 C53.6683596,113.216436 53.4077135,113.689382 53.1461719,114.162891 L51.566175,117.010703 C51.0359271,117.962227 50.5020969,118.916003 49.9646844,119.872031 L48.3417,122.746875 C47.7971229,123.707409 47.2489635,124.670195 46.6972219,125.635234 L45.03125,128.537109 L45.03125,128.537109 L37.1809656,129.101186 L37.1809656,129.101186 L29.9858669,129.592006 L29.9858669,129.592006 L25.9832968,129.851335 L25.9832968,129.851335 L21.0134407,130.156083 L21.0134407,130.156083 L17.0087891,130.384277 L17.0087891,130.384277 L12.8251558,130.601117 L12.8251558,130.601117 L9.06084141,130.771073 L9.06084141,130.771073 L6.11103882,130.881324 L6.11103882,130.881324 L4.20059268,130.938098 L4.20059268,130.938098 L2.12426859,130.982052 L2.12426859,130.982052 L0.574174598,130.998535 L0.574174598,130.998535 L0,131 L0,131 Z" id="Shape" fill="#FFFFFF"></path>
    </g>
</svg>