<svg viewBox="0 0 1135.7 224.9" enable-background="new 0 0 1135.7 224.9" xml:space="preserve">
<g>
	<path fill="#d11c1c" d="M24.7,15C38.4,4.3,56.3-1.1,73.6,0.9c16.8,1.7,32.9,10,44,22.8c-9.5,9.9-19.4,19.4-29.1,29.1
		C82.7,58.6,76.3,64,71.4,70.5c10.1,4.9,22,7.8,33,4c17.4-4.9,29.2-19.5,41.1-32c22.6,22.6,44.4,45.9,67.1,68.5
		c2,2.2,4.7,4.6,4.5,7.9c0.1,5.1-0.9,11-5.1,14.4c-3.9,2.5-8.9,2.4-13.4,2.1c-2.5,0-4.2-2-5.9-3.5c-13.3-13.4-26.4-26.9-39.7-40.3
		c-3.1-3.1-6.1-6.4-9.9-8.8c0,1.5-0.1,3.2,1.3,4.3c11.8,11.8,23.5,23.9,35.4,35.6c4.5,5.1,9.7,9.5,14,14.8c0.6,4.1,0.6,8.5-0.3,12.6
		c-1.3,5.2-7,7.6-11.9,7.5c-3.3-0.1-7.4,0.9-9.7-2.1c-15.7-15.9-31.6-31.6-47.2-47.7c-1.4-1.5-3.3-2.3-5.3-2.9
		c1.8,4.8,6.2,8,9.6,11.6c9.9,10.1,20.1,20,29.9,30.2c3.9,4.1,8.3,7.6,11.7,12.2c2.1,3.8,1.2,8.4,0.3,12.4
		c-1.8,8.1-11.8,11.4-19.1,9.7c-2.7-3.6-4.8-8-9.1-10.1c-4.9-3-10.8-2.3-16.2-1.5c1.9-6.6,1.7-14.1-3.1-19.4
		c-5-6.4-13.9-7.6-21.4-5.7c0.9-4.6,1.8-9.5,0-14.1c-2-5.8-7.2-10.2-13.1-11.5c-3.5-0.6-7.1-0.2-10.6,0.2c0.9-4.7,1.2-9.7-0.8-14.1
		c-2.4-6.3-8.8-10.4-15.3-11.3c-5.9-0.7-11.5,2.6-15.6,6.6c-6.1,6.2-12.7,12-18,18.8C19.8,110,12.6,99.7,6.8,88.7
		c-3.5-7.5-6.6-15.4-6.7-23.8c-0.2-5.7-0.2-11.6,1.4-17.1C5.3,34.6,14.1,23.5,24.7,15z"/>
	<g>
		<path fill="#a50c0c" d="M227.1,27.4c-7.1-10.6-17.6-18.6-29.4-23.3c-17.8-6.3-38.5-5.5-55.2,3.6c-9.9,5-18.2,12.6-25.1,21.2
			C107.3,38,97.9,48,88.1,57.4c-3.7,4.1-8.4,7.3-11,12.2c7,3.6,15,3.3,22.6,2.8c11.8-2.1,21.4-9.7,30-17.6
			c5.7-5.3,10.1-11.8,16-16.9c7.4,7.2,14.6,14.7,21.7,22.3c13.4,14,27.2,27.4,40.4,41.6c3.5,3.4,6.6,7.1,10.4,10.2
			c2.1-2.4,4.5-4.6,6.2-7.3c6.2-6.4,9.4-15,11.7-23.4C241,63.2,238,42.9,227.1,27.4z"/>
		<path fill="#a50c0c" d="M56.9,97.1c7-2.3,15.1,2.3,17.9,8.8c0.7,5.3,1.6,11.6-2.4,15.8c-5.3,5.7-11,11.1-16.8,16.2
			c-3.6,3.5-9.3,4.1-14,2.8c-8.1-2.2-12.5-11.9-10-19.7c1.6-3.6,4.4-6.3,7.2-9c4.2-3.8,8.1-7.9,12.3-11.7
			C52.7,98.8,54.8,97.8,56.9,97.1z"/>
		<path fill="#a50c0c" d="M82,121.5c6.9-1.5,14.1,2.8,17,9.1c1.8,3.1,1.1,6.9,0.9,10.4c-2.6,6.1-8.1,10.1-12.7,14.7
			c-3.9,3.4-7.2,8-12.2,9.8c-5.2,2.2-11.3,0.2-15.3-3.6c-4.2-3.6-5.2-9.6-4.4-14.9c1.6-5.5,6.5-9,10.4-12.9
			C70.7,129.4,75.2,123.4,82,121.5z"/>
		<path fill="#a50c0c" d="M104.9,147.1c7.7-2.5,16.4,2.4,19.1,9.8c0.6,4.9,0.9,10.7-2.9,14.5c-4.9,5.1-10,10-15.1,14.9
			c-3.2,3.3-7.8,5.5-12.4,5c-4.1-0.6-8.1-2.5-10.7-5.8c-3.7-3.9-3.2-9.8-2.6-14.7c2-5.3,7.1-8.5,10.8-12.5
			C95.5,154.4,99.1,149.2,104.9,147.1z"/>
		<path fill="#a50c0c" d="M129.9,172.1c8.9-2.8,19.9,5.2,19.1,14.8c0.7,6.9-5,11.7-9.5,15.9c-5.3,4.8-9.8,11.2-17,13.3
			c-9.1,2.5-19.1-5.9-18.5-15.3c-0.4-6.5,5-11.2,9.3-15.3C118.6,180.9,123,174.6,129.9,172.1z"/>
	</g>
</g>
<g>
	<path fill="#0075BE" d="M327.7,161l-8.2-26.8h-41.1l-8.2,26.8h-25.7l39.8-113.1h29.2L353.5,161H327.7z M313.9,114.1
		c-7.6-24.3-11.8-38-12.8-41.2c-1-3.2-1.6-5.7-2-7.6c-1.7,6.6-6.5,22.8-14.6,48.8H313.9z"/>
	<path fill="#0075BE" d="M410.5,66.6c-9,0-16,3.4-20.9,10.1c-4.9,6.8-7.4,16.2-7.4,28.2c0,25.1,9.4,37.7,28.3,37.7
		c7.9,0,17.5-2,28.7-5.9v20c-9.2,3.9-19.6,5.8-31,5.8c-16.4,0-28.9-5-37.6-14.9c-8.7-9.9-13-24.2-13-42.8c0-11.7,2.1-22,6.4-30.8
		c4.3-8.8,10.4-15.6,18.4-20.3c8-4.7,17.3-7.1,28.1-7.1c10.9,0,21.9,2.6,33,7.9l-7.7,19.4c-4.2-2-8.5-3.7-12.7-5.2
		C418.8,67.3,414.6,66.6,410.5,66.6z"/>
	<path fill="#0075BE" d="M560.5,104.5c0,18.6-4.6,33-13.9,43c-9.2,10-22.5,15-39.8,15c-17.3,0-30.5-5-39.8-15
		c-9.2-10-13.9-24.4-13.9-43.2c0-18.7,4.6-33.1,13.9-43c9.3-9.9,22.6-14.8,39.9-14.8c17.3,0,30.6,5,39.7,14.9
		C555.9,71.5,560.5,85.8,560.5,104.5z M478.3,104.5c0,12.6,2.4,22.1,7.2,28.4c4.8,6.4,11.9,9.6,21.4,9.6c19.1,0,28.6-12.7,28.6-38
		c0-25.4-9.5-38.1-28.4-38.1c-9.5,0-16.7,3.2-21.5,9.6C480.7,82.4,478.3,91.9,478.3,104.5z"/>
	<path fill="#0075BE" d="M627.6,161l-27.1-88.4h-0.7c1,18,1.5,30,1.5,36V161h-21.3V48.3h32.5l26.7,86.1h0.5l28.3-86.1h32.5V161H678
		v-53.3c0-2.5,0-5.4,0.1-8.7c0.1-3.3,0.4-12,1-26.2h-0.7l-29,88.2H627.6z"/>
	<path fill="#0075BE" d="M801.5,83.5c0,12.1-3.8,21.4-11.4,27.8c-7.6,6.4-18.4,9.6-32.3,9.6h-10.2V161h-23.9V48.3h36
		c13.7,0,24.1,2.9,31.2,8.8C798,63,801.5,71.8,801.5,83.5z M747.6,101.3h7.9c7.3,0,12.8-1.5,16.5-4.4c3.6-2.9,5.5-7.1,5.5-12.7
		c0-5.6-1.5-9.7-4.6-12.4c-3.1-2.7-7.8-4-14.4-4h-10.9V101.3z"/>
	<path fill="#0075BE" d="M879.8,161l-8.2-26.8h-41.1l-8.2,26.8h-25.7l39.8-113.1h29.2L905.5,161H879.8z M865.9,114.1
		c-7.6-24.3-11.8-38-12.8-41.2c-1-3.2-1.6-5.7-2-7.6c-1.7,6.6-6.5,22.8-14.6,48.8H865.9z"/>
	<path fill="#0075BE" d="M1015.7,161h-30.4l-49-85.2h-0.7c1,15.1,1.5,25.8,1.5,32.2v53h-21.3V48.3h30.1l48.9,84.4h0.5
		c-0.8-14.6-1.2-25-1.2-31.1V48.3h21.5V161z M953,31.2c-1.6,0-3.1,0.7-4.6,2c-1.5,1.4-2.5,3.4-3.2,6.2h-11.5
		c0.6-7.4,2.7-13.3,6.4-17.5c3.7-4.2,8.5-6.3,14.6-6.3c2.1,0,4.2,0.4,6.2,1.3c2,0.8,4,1.8,6,2.8c2,1,3.9,1.9,5.8,2.7
		c1.9,0.8,3.8,1.2,5.6,1.2c1.6,0,3.1-0.7,4.6-2c1.5-1.3,2.5-3.4,3.2-6.2h11.5c-0.6,7.4-2.7,13.3-6.4,17.5c-3.7,4.2-8.6,6.3-14.5,6.3
		c-2.1,0-4.2-0.4-6.2-1.3c-2-0.8-4-1.8-6-2.8c-2-1-3.9-1.9-5.8-2.8C956.7,31.6,954.9,31.2,953,31.2z"/>
	<path fill="#0075BE" d="M1110,161l-8.2-26.8h-41.1l-8.2,26.8h-25.7l39.8-113.1h29.2l39.9,113.1H1110z M1096.1,114.1
		c-7.6-24.3-11.8-38-12.8-41.2c-1-3.2-1.6-5.7-2-7.6c-1.7,6.6-6.5,22.8-14.6,48.8H1096.1z"/>
</g>
<g>
	<path fill="#86BE41" d="M539.3,212.2h-20l8-37.8h20l-1.1,5.3h-13.9l-2.2,10.2h13l-1.1,5.2h-13l-2.5,11.8h13.9L539.3,212.2z"/>
	<path fill="#86BE41" d="M563.4,212.2l3.7-17.4c0.3-1.5,0.5-2.7,0.5-3.4c0-2.3-1.1-3.4-3.3-3.4c-1.2,0-2.5,0.5-3.7,1.5
		c-1.2,1-2.3,2.4-3.3,4.2c-1,1.9-1.7,3.9-2.2,6.3l-2.5,12.1h-6.1l6.1-28.6h4.8l-0.5,5.3h0.2c1.4-2,2.9-3.5,4.4-4.4s3.2-1.4,4.9-1.4
		c2.3,0,4.1,0.7,5.4,2s1.9,3.2,1.9,5.6c0,1.2-0.2,2.7-0.6,4.7l-3.5,16.9H563.4z"/>
	<path fill="#86BE41" d="M574.5,224.9c-1.5,0-2.8-0.2-3.8-0.6v-4.9c1.1,0.3,2.1,0.5,2.9,0.5c2.3,0,3.8-1.8,4.6-5.3l5.6-26.4h-4.6
		l0.5-2.7l5-2l0.5-2.4c0.8-3.4,1.9-5.8,3.5-7.3c1.6-1.4,3.8-2.2,6.6-2.2c2,0,3.8,0.4,5.4,1.1l-1.6,4.5c-1.3-0.5-2.4-0.7-3.5-0.7
		c-1.2,0-2.1,0.4-2.9,1.1c-0.7,0.7-1.3,2-1.6,3.6l-0.5,2.2h5.9l-1,4.6h-5.9l-5.8,27.2c-0.7,3.3-1.8,5.6-3.4,7.2
		C579.1,224.1,577,224.9,574.5,224.9z"/>
	<path fill="#86BE41" d="M607.8,212.7c-3.4,0-6-1-7.9-2.9c-1.9-1.9-2.9-4.6-2.9-8c0-3.4,0.7-6.6,2-9.5c1.3-2.9,3.1-5.2,5.4-6.8
		c2.3-1.6,4.8-2.4,7.7-2.4c2.8,0,4.9,0.6,6.5,1.9c1.5,1.2,2.3,3,2.3,5.3c0,3.1-1.4,5.6-4.3,7.3c-2.9,1.8-7,2.6-12.3,2.6h-1.1
		l-0.1,0.8v0.7c0,1.9,0.5,3.4,1.5,4.5c1,1.1,2.4,1.6,4.4,1.6c1.2,0,2.5-0.2,3.7-0.5c1.2-0.3,2.7-0.9,4.3-1.7v4.8
		c-1.7,0.8-3.2,1.3-4.6,1.6C611.1,212.5,609.5,212.7,607.8,212.7z M611.7,187.8c-1.7,0-3.2,0.7-4.7,2.2c-1.5,1.5-2.5,3.4-3.1,5.9
		h0.7c3.2,0,5.8-0.5,7.6-1.4c1.8-0.9,2.7-2.2,2.7-3.9c0-0.9-0.3-1.6-0.8-2.1C613.6,188,612.8,187.8,611.7,187.8z"/>
	<path fill="#86BE41" d="M642.9,183.1c1.1,0,2,0.1,2.8,0.3l-1.3,5.7c-0.9-0.2-1.8-0.4-2.6-0.4c-2.2,0-4.1,1-5.8,2.9
		c-1.7,1.9-2.9,4.5-3.6,7.6l-2.7,12.9h-6.1l6.1-28.6h4.8l-0.5,5.3h0.2c1.4-2.1,2.9-3.6,4.3-4.5C639.8,183.6,641.3,183.1,642.9,183.1
		z"/>
	<path fill="#86BE41" d="M664.8,183.1c3.8,0,6,2,6.6,6.1h0.2c1.3-2,2.8-3.5,4.4-4.5c1.6-1,3.4-1.5,5.1-1.5c2.3,0,4,0.7,5.2,2
		c1.2,1.3,1.8,3.2,1.8,5.6c0,1.1-0.2,2.7-0.6,4.7l-3.6,16.9h-6.1l3.7-17.4c0.3-1.6,0.5-2.8,0.5-3.4c0-2.2-1-3.3-3.1-3.3
		c-1.9,0-3.6,1.1-5.2,3.2c-1.6,2.1-2.8,5-3.5,8.5l-2.6,12.4h-6.1l3.7-17.4c0.3-1.4,0.4-2.5,0.4-3.3c0-2.3-1-3.5-3-3.5
		c-1.9,0-3.6,1.1-5.3,3.3c-1.6,2.2-2.8,5.1-3.6,8.7l-2.5,12.1h-6.1l6.1-28.6h4.8l-0.5,5.3h0.2C658.2,185.1,661.3,183.1,664.8,183.1z
		"/>
	<path fill="#86BE41" d="M704.1,212.7c-3.4,0-6-1-7.9-2.9c-1.9-1.9-2.9-4.6-2.9-8c0-3.4,0.7-6.6,2-9.5c1.3-2.9,3.1-5.2,5.4-6.8
		c2.3-1.6,4.8-2.4,7.7-2.4c2.8,0,4.9,0.6,6.5,1.9c1.5,1.2,2.3,3,2.3,5.3c0,3.1-1.4,5.6-4.3,7.3c-2.9,1.8-7,2.6-12.3,2.6h-1.1
		l-0.1,0.8v0.7c0,1.9,0.5,3.4,1.5,4.5c1,1.1,2.4,1.6,4.4,1.6c1.2,0,2.5-0.2,3.7-0.5c1.2-0.3,2.7-0.9,4.3-1.7v4.8
		c-1.7,0.8-3.2,1.3-4.6,1.6S705.8,212.7,704.1,212.7z M708,187.8c-1.7,0-3.2,0.7-4.7,2.2c-1.5,1.5-2.5,3.4-3.1,5.9h0.7
		c3.2,0,5.8-0.5,7.6-1.4s2.7-2.2,2.7-3.9c0-0.9-0.3-1.6-0.8-2.1C709.9,188,709.1,187.8,708,187.8z"/>
	<path fill="#86BE41" d="M739.2,183.1c1.1,0,2,0.1,2.8,0.3l-1.3,5.7c-0.9-0.2-1.8-0.4-2.6-0.4c-2.2,0-4.1,1-5.8,2.9
		s-2.9,4.5-3.6,7.6l-2.7,12.9h-6.1l6.1-28.6h4.8l-0.5,5.3h0.2c1.4-2.1,2.9-3.6,4.3-4.5C736.1,183.6,737.6,183.1,739.2,183.1z"/>
	<path fill="#86BE41" d="M768.1,194.3c0,3.5-0.6,6.6-1.9,9.5c-1.3,2.8-3,5-5.2,6.6c-2.2,1.5-4.7,2.3-7.6,2.3c-3.3,0-5.9-1-7.9-3
		c-1.9-2-2.9-4.7-2.9-8c0-3.4,0.6-6.6,1.8-9.4c1.2-2.9,3-5.1,5.2-6.7c2.2-1.6,4.8-2.4,7.7-2.4c3.4,0,6,1,7.9,3
		C767.2,188.2,768.1,190.9,768.1,194.3z M762,194.1c0-1.8-0.4-3.3-1.3-4.3c-0.8-1-2-1.6-3.6-1.6c-1.6,0-3,0.6-4.3,1.8
		s-2.2,2.9-2.9,5s-1,4.4-1,6.8c0,1.9,0.4,3.4,1.3,4.4s2.1,1.5,3.8,1.5c1.5,0,2.9-0.6,4.2-1.8c1.2-1.2,2.2-2.8,2.9-4.9
		S762,196.6,762,194.1z"/>
	<path fill="#86BE41" d="M790.7,203.4c0,3-1,5.3-3,6.9c-2,1.6-4.9,2.4-8.5,2.4c-3.3,0-6-0.6-8.3-1.7v-5.2c2.6,1.5,5.3,2.3,8.1,2.3
		c1.7,0,3-0.3,4.1-1c1-0.7,1.5-1.6,1.5-2.8c0-0.9-0.3-1.6-0.9-2.3s-1.8-1.5-3.7-2.5c-2.2-1.2-3.7-2.3-4.6-3.5
		c-0.9-1.2-1.3-2.6-1.3-4.2c0-2.7,0.9-4.8,2.8-6.3c1.8-1.5,4.3-2.3,7.5-2.3c3.4,0,6.4,0.7,8.9,2.2l-2,4.5c-2.4-1.3-4.7-2-6.9-2
		c-1.3,0-2.3,0.3-3.1,0.9s-1.2,1.4-1.2,2.4c0,0.8,0.3,1.5,0.9,2.1s1.7,1.4,3.5,2.3c1.8,1,3.1,1.9,3.8,2.6c0.8,0.7,1.3,1.5,1.7,2.4
		C790.5,201.3,790.7,202.3,790.7,203.4z"/>
	<path fill="#86BE41" d="M824.2,183.1c3.2,0,5.5,1.5,7.1,4.6h0.3l1.7-4.1h4.6l-8.8,41.3h-6l1.9-9c0.2-1,0.6-2.5,1.1-4.6
		c0.5-2.1,0.9-3.3,1-3.6h-0.2c-1.4,1.9-2.9,3.2-4.2,4c-1.4,0.8-2.8,1.2-4.4,1.2c-2.4,0-4.3-0.9-5.7-2.6c-1.4-1.8-2.1-4.2-2.1-7.3
		c0-3.6,0.6-6.9,1.9-10c1.3-3.1,2.9-5.5,5-7.1C819.4,183.9,821.7,183.1,824.2,183.1z M820.8,207.8c1.4,0,2.7-0.7,4.1-2.1
		s2.5-3.2,3.3-5.5c0.8-2.3,1.3-4.6,1.3-6.9c0-1.6-0.4-2.9-1.2-3.8s-1.9-1.4-3.3-1.4c-1.5,0-2.9,0.7-4.1,2s-2.3,3.1-3.1,5.4
		c-0.8,2.3-1.2,4.6-1.2,7.1C816.7,206.1,818,207.8,820.8,207.8z"/>
	<path fill="#86BE41" d="M852.1,183.6l-3.3,15.8c-0.5,2.4-0.8,4.1-0.8,5c0,2.3,1.1,3.4,3.3,3.4c1.2,0,2.5-0.5,3.7-1.5
		c1.2-1,2.3-2.4,3.3-4.2c0.9-1.8,1.7-3.9,2.2-6.4l2.6-12.1h6l-6,28.6h-4.8l0.5-5.3h-0.2c-1.4,2-2.9,3.5-4.4,4.4
		c-1.5,0.9-3.2,1.4-5,1.4c-2.3,0-4.1-0.7-5.3-2s-1.9-3.2-1.9-5.6c0-1.1,0.1-2.2,0.3-3.2s0.4-2.1,0.6-3.2l3.2-15.1H852.1z"/>
	<path fill="#86BE41" d="M883.4,212.7c-3.4,0-6-1-7.9-2.9c-1.9-1.9-2.9-4.6-2.9-8c0-3.4,0.7-6.6,2-9.5c1.3-2.9,3.1-5.2,5.4-6.8
		c2.3-1.6,4.8-2.4,7.7-2.4c2.8,0,4.9,0.6,6.5,1.9c1.5,1.2,2.3,3,2.3,5.3c0,3.1-1.4,5.6-4.3,7.3c-2.9,1.8-7,2.6-12.3,2.6h-1.1
		l-0.1,0.8v0.7c0,1.9,0.5,3.4,1.5,4.5c1,1.1,2.4,1.6,4.4,1.6c1.2,0,2.5-0.2,3.7-0.5c1.2-0.3,2.7-0.9,4.3-1.7v4.8
		c-1.7,0.8-3.2,1.3-4.6,1.6C886.7,212.5,885.1,212.7,883.4,212.7z M887.4,187.8c-1.7,0-3.2,0.7-4.7,2.2s-2.5,3.4-3.1,5.9h0.7
		c3.2,0,5.8-0.5,7.6-1.4c1.8-0.9,2.7-2.2,2.7-3.9c0-0.9-0.3-1.6-0.8-2.1C889.3,188,888.5,187.8,887.4,187.8z"/>
	<path fill="#86BE41" d="M923.5,207.8c1.2,0,2.5-0.3,3.9-0.8v4.6c-0.6,0.3-1.4,0.6-2.5,0.8c-1,0.2-2.1,0.3-3.1,0.3
		c-4.7,0-7.1-2.1-7.1-6.4c0-1,0.1-2.1,0.4-3.4l3.1-14.7h-4.2l0.5-2.8l4.9-2.1l3.3-6h3.8l-1.3,6.4h7.2l-1,4.6h-7.2l-3.2,14.8
		c-0.2,0.9-0.3,1.7-0.3,2.4c0,0.7,0.2,1.3,0.6,1.8C921.9,207.6,922.6,207.8,923.5,207.8z"/>
	<path fill="#86BE41" d="M944.4,212.7c-3.4,0-6-1-7.9-2.9c-1.9-1.9-2.9-4.6-2.9-8c0-3.4,0.7-6.6,2-9.5c1.3-2.9,3.1-5.2,5.4-6.8
		c2.3-1.6,4.8-2.4,7.7-2.4c2.8,0,4.9,0.6,6.5,1.9c1.5,1.2,2.3,3,2.3,5.3c0,3.1-1.4,5.6-4.3,7.3c-2.9,1.8-7,2.6-12.3,2.6h-1.1
		l-0.1,0.8v0.7c0,1.9,0.5,3.4,1.5,4.5c1,1.1,2.4,1.6,4.4,1.6c1.2,0,2.5-0.2,3.7-0.5c1.2-0.3,2.7-0.9,4.3-1.7v4.8
		c-1.7,0.8-3.2,1.3-4.6,1.6C947.6,212.5,946.1,212.7,944.4,212.7z M948.3,187.8c-1.7,0-3.2,0.7-4.7,2.2c-1.5,1.5-2.5,3.4-3.1,5.9
		h0.7c3.2,0,5.8-0.5,7.6-1.4c1.8-0.9,2.7-2.2,2.7-3.9c0-0.9-0.3-1.6-0.8-2.1C950.2,188,949.4,187.8,948.3,187.8z"/>
	<path fill="#86BE41" d="M985.7,212.7c-3.4,0-6-0.9-7.8-2.7c-1.9-1.8-2.8-4.4-2.8-7.8c0-3.6,0.6-6.8,1.9-9.7s3-5.2,5.3-6.8
		c2.3-1.6,4.9-2.5,7.8-2.5c2.8,0,5.4,0.5,7.7,1.6l-1.8,4.8c-2.1-0.9-4-1.4-5.7-1.4c-2.6,0-4.7,1.3-6.5,4s-2.6,5.9-2.6,9.8
		c0,1.9,0.5,3.4,1.4,4.4c1,1,2.3,1.5,4,1.5c1.3,0,2.5-0.2,3.6-0.6s2.2-0.8,3.3-1.4v5C991.2,212.1,988.5,212.7,985.7,212.7z"/>
	<path fill="#86BE41" d="M1010.3,183.6l-3.3,15.8c-0.5,2.4-0.8,4.1-0.8,5c0,2.3,1.1,3.4,3.3,3.4c1.2,0,2.5-0.5,3.7-1.5
		c1.2-1,2.3-2.4,3.3-4.2c0.9-1.8,1.7-3.9,2.2-6.4l2.6-12.1h6l-6,28.6h-4.8l0.5-5.3h-0.2c-1.4,2-2.9,3.5-4.4,4.4
		c-1.5,0.9-3.2,1.4-5,1.4c-2.3,0-4.1-0.7-5.3-2c-1.3-1.3-1.9-3.2-1.9-5.6c0-1.1,0.1-2.2,0.3-3.2s0.4-2.1,0.6-3.2l3.2-15.1H1010.3z"
		/>
	<path fill="#86BE41" d="M1035.8,212.2h-6.1l6.1-28.6h6.1L1035.8,212.2z M1037,176.6c0-1.2,0.3-2.1,1-2.8c0.7-0.7,1.6-1.1,2.8-1.1
		c0.9,0,1.7,0.2,2.2,0.7c0.6,0.5,0.9,1.1,0.9,2.1c0,1.2-0.3,2.2-1,2.9c-0.7,0.7-1.6,1.1-2.7,1.1c-0.9,0-1.7-0.2-2.3-0.7
		C1037.3,178.3,1037,177.6,1037,176.6z"/>
	<path fill="#86BE41" d="M1059.1,183.1c3.1,0,5.4,1.5,6.9,4.6h0.2c0.2-2.5,0.5-4.7,1-6.5l2-9.2h6l-8.5,40.2h-4.8l0.5-4.5h-0.2
		c-1.5,1.8-3,3.1-4.4,3.9c-1.4,0.8-2.9,1.2-4.5,1.2c-2.5,0-4.4-0.9-5.8-2.6s-2.1-4.2-2.1-7.4c0-3.5,0.6-6.8,1.8-9.9
		c1.2-3.1,2.9-5.4,4.9-7.1C1054.3,184,1056.6,183.1,1059.1,183.1z M1055.6,207.8c1.4,0,2.8-0.7,4.2-2.1c1.4-1.4,2.5-3.3,3.3-5.5
		c0.8-2.3,1.3-4.6,1.3-6.9c0-1.6-0.4-2.8-1.1-3.8c-0.7-0.9-1.9-1.4-3.4-1.4c-1.5,0-2.8,0.7-4.1,2c-1.3,1.3-2.3,3.1-3,5.4
		s-1.1,4.7-1.1,7C1051.6,206.1,1052.9,207.8,1055.6,207.8z"/>
	<path fill="#86BE41" d="M1084.2,212.7c-2.4,0-4.3-0.9-5.8-2.6c-1.4-1.7-2.1-4.2-2.1-7.4c0-3.5,0.6-6.7,1.8-9.8
		c1.2-3,2.8-5.4,4.9-7.2c2.1-1.8,4.4-2.6,6.9-2.6c1.7,0,3.1,0.4,4.3,1.2s2.1,1.9,2.8,3.4h0.3l1.6-4.1h4.6l-6.1,28.6h-4.7l0.5-4.5
		h-0.2C1090.5,211,1087.5,212.7,1084.2,212.7z M1086.4,207.8c1.4,0,2.8-0.7,4.2-2c1.4-1.3,2.5-3.1,3.4-5.4c0.9-2.2,1.3-4.7,1.3-7.3
		c0-1.5-0.4-2.7-1.2-3.7c-0.8-0.9-1.9-1.4-3.2-1.4c-1.5,0-2.8,0.7-4.1,2s-2.3,3.1-3.1,5.4c-0.8,2.3-1.2,4.6-1.2,7.1
		c0,1.8,0.3,3.1,1,3.9S1085.2,207.8,1086.4,207.8z"/>
	<path fill="#86BE41" d="M1122.7,212.2l3.7-17.4c0.3-1.5,0.5-2.7,0.5-3.4c0-2.3-1.1-3.4-3.3-3.4c-1.2,0-2.5,0.5-3.7,1.5
		c-1.2,1-2.3,2.4-3.3,4.2c-1,1.9-1.7,3.9-2.2,6.3l-2.5,12.1h-6.1l6.1-28.6h4.8l-0.5,5.3h0.2c1.4-2,2.9-3.5,4.4-4.4
		c1.5-0.9,3.2-1.4,4.9-1.4c2.3,0,4.1,0.7,5.4,2s1.9,3.2,1.9,5.6c0,1.2-0.2,2.7-0.6,4.7l-3.5,16.9H1122.7z"/>
</g>
</svg>