<svg class="family-3generations" viewBox="0 0 1024 768">
<g>
<path fill="#FFFFFF" d="M163.6,171.9c43.8,0,78.4-34.6,78.4-78.4s-36.8-80.6-78.4-78.4c-43.8,0-78.4,34.6-78.4,78.4
S119.9,171.9,163.6,171.9z"/>
<path fill="#FFFFFF" d="M150.4,566.4c0-85.7,40.9-123.2,66.5-131.5c-14.5-7.4-25.2-27.5-25.2-45.1c0-12.9,5.4-24.3,13.8-32.6
c0-7.1,1.3-20.8,0.9-20.5c4.2-53.1,22.8-88,47.3-113.4c-11.2-12.5-20.8-20.1-25.5-23.4c-4.7-4.7-11.6-9.2-23-13.8
c-7.1-4.7-16.3-7.1-23.2-9.4l-20.8,20.8l-18.5-20.8c-11.6,2.2-25.2,9.2-34.6,16.1c0,0-2.2,0-2.2,2.2c-4.7,2.2-94.4,62.3-94.4,209.9
c0,16.1,11.6,27.7,27.7,27.7s27.7-11.6,27.7-27.7c0-34.6,4.7-62.3,13.8-83.1v57.6L52.9,540.9h32.4v163.6
c0,20.8,16.1,36.8,36.8,36.8s36.8-16.1,36.8-36.8V580.7C153.8,578,150.4,572.9,150.4,566.4z"/>
<path fill="#FFFFFF" d="M774.7,171.9c-43.8,0-78.4-34.6-78.4-78.4s36.8-80.6,78.4-78.4c43.8,0,78.4,34.6,78.4,78.4
S818.4,171.9,774.7,171.9z"/>
<path fill="#FFFFFF" d="M367.9,158.7c42.4,0,77-34.6,77-77s-34.6-77-77-77s-77,34.6-77,77S325.5,158.7,367.9,158.7z"/>
<path fill="#FFFFFF" d="M567,158.7c42.4,0,77-34.6,77-77s-34.6-77-77-77s-77,34.6-77,77S524.6,158.7,567,158.7z"/>
<path fill="#FFFFFF" d="M633.6,600.8c-1.3,0-1.3,0-2.7,0c-15.9,0-29.2-13.2-29.2-29.2c0-92.9,58.5-131.5,61.2-132.8
c0,0,1.3,0,1.3-1.3V436C651,425.3,643,409.4,643,390.9c0-9.4,1.3-17.2,5.4-23.9c-1.3-5.4-2.7-9.4-2.7-13.2v-57.2
c6.7,13.2,12.1,30.6,14.5,53.1c10.7-10.7,25.2-17.2,42.4-17.2c5.4,0,10.7,1.3,15.9,2.7c-14.5-85.1-57.2-119.4-99.6-146
c-1.3-1.3-2.7-1.3-5.4-2.7c-8-5.4-18.5-9.4-27.9-12.1L567,194.5L548.5,176c-10.7,2.7-21.2,8-30.6,13.2c0,0,0,0-1.3,0
c-17.2,10.7-34.6,21.2-49.1,37.3c-14.5-15.9-31.9-27.9-50.5-39.7c-2.7-1.3-5.4-2.7-8-4c-6.7-4-14.5-6.7-22.5-9.4L368,191.9
L349.5,172c-9.4,2.7-19.9,6.7-27.9,12.1c-1.3,0-2.7,1.3-5.4,2.7c-16.5,10.3-32.6,21.9-46.9,36.6c-24.6,25.5-43.3,60.5-47.3,113.4
c8-4,17.2-6.7,26.6-6.7c4.9,0,9.4,0.7,13.8,1.8c3.1,0.9,6.3,1.8,9.2,3.1c3.1,1.3,6,2.7,8.9,4.5c1.3-14.5,4-27.9,8-38.4V346
c10.7,10.7,18.5,25.2,18.5,42.4c0,14.5-5.4,27.9-14.5,38.4c0,1.3,0,2.7,1.3,2.7c0,0.4,0,0.9,0,1.3c0,0.9,0,2.2,0,4v4
c0,0,0,0,1.3,1.3c10.7,8,57.2,46.4,57.2,128.8c0,15.9-13.2,29.2-29.2,29.2c-6.7,0-12.1-1.3-17.2-5.4c0,0,0,1.3-1.3,1.3v142
c0,2.7,0,5.4-1.3,8c6.7,6.7,15.9,10.7,25.2,10.7c19.9,0,35.9-15.9,35.9-34.6V476c1.3,0,2.7,0,4,0c0,0,0,0,1.3,0v245.6
c0,19.9,15.9,34.6,35.9,34.6c19.9,0,35.9-15.9,35.9-34.6V438.9c0-1.3,1.3-1.3,1.3-2.7h1.3c9.4,0,17.2-4,22.5-10.7
c1.3,1.3,4,2.7,6.7,4c-12.1,55.8-26.6,120.8-26.6,134.2c0,12.1,21.2,21.2,50.5,27.9v130.2c0,19.9,15.9,34.6,35.9,34.6
s35.9-15.9,35.9-34.6v-121c1.3,0,4,0,5.4,0v120.8c0,19.9,15.9,34.6,35.9,34.6s35.9-15.9,35.9-34.6v-58.3H628L633.6,600.8z"/>
<path fill="#FFFFFF" d="M297.6,389.8c0-15.6-8.9-29.5-21.9-37.5c-4.2-2.7-8.7-4.7-13.4-6c-3.1-0.9-6.5-1.6-9.8-1.6
c-25.2,0-45.1,19.9-45.1,45.1s19.9,45.1,45.1,45.1c6.7,0,12.9-1.3,18.5-4c5.1-2.2,9.6-5.4,13.4-9.2
C292.7,413.7,297.6,402.3,297.6,389.8z"/>
<path fill="#FFFFFF" d="M252.5,448.1L241.8,436c-6.7,1.3-13.2,5.4-19.9,9.4c0,0-1.3,0-1.3,1.3c-2.7,1.3-54.5,35.9-54.5,119.4
c0,6.5,3.3,11.8,8.5,14.3c1.3,0.7,2.9,1.1,4.7,1.3c0.9,0.2,1.8,0.2,2.9,0.2c9.4,0,15.9-6.7,15.9-15.9c0-18.5,2.7-34.6,8-47.8V574
c0,4,1.3,9.4,2.7,13.2c0,1.3,0,1.3,0,2.7v146c0,1.6,0.2,3.1,0.4,4.5c2,9.4,10.5,15.4,20.8,15.4c12.1,0,21.2-9.4,21.2-19.9V716
V612.6c1.1,0,1.3,0,2,0c0.2,0,0.4,0,0.7,0v122.1c0,12.1,9.4,19.9,21.2,19.9s21.2-9.4,21.2-19.9v-146c2.7-5.4,4-10.7,4-17.2v-61.2
c6.7,13.2,10.7,31.9,10.7,54.5c-2.7,13.2,5.4,19.9,14.5,19.9c9.2,0,15.9-6.7,15.9-15.9c0-77-42.4-111.6-51.8-118.1
c-4-2.7-8-5.4-13.2-8c-1.1-0.9-2.5-1.3-3.6-2c-2.9-1.3-6-2.5-9.6-3.3L252.5,448.1z"/>
<path fill="#FFFFFF" d="M703.9,345.8c-25.2,0-45.1,19.9-45.1,45.1s19.9,45.1,45.1,45.1c25.2,0,45.1-19.9,45.1-45.1
C749,365.7,727.8,344.5,703.9,345.8z"/>
<path fill="#FFFFFF" d="M741,452.1c-2.7-2.7-6.7-5.4-13.2-8c-4-2.7-9.4-4-13.2-5.4l-12.1,12.1l-10.7-12.1
c-6.7,1.3-14.5,5.4-19.9,9.4c0,0-1.3,0-1.3,1.3c-2.7,1.3-54.5,35.9-54.5,120.8c0,9.4,6.7,15.9,15.9,15.9c9.4,0,15.9-6.7,15.9-15.9
c0-19.9,2.7-35.9,8-47.8v33.3L640,648.6h18.5v94.2c0,12.1,9.4,21.2,21.2,21.2s21.2-9.4,21.2-21.2v-94.2h2.7v94.2
c0,12.1,9.4,21.2,21.2,21.2s21.2-9.4,21.2-21.2v-94.2h21.2l-15.9-92.9V516c6.7,14.5,10.7,31.9,10.7,55.8c0,9.4,6.7,15.9,15.9,15.9
c9.4,0,15.9-6.7,15.9-15.9C792.8,494.5,750.3,458.8,741,452.1z"/>
<g>
<path fill="#FFFFFF" d="M832.3,195.1c0-2.2-2.2-2.2-2.2-2.2c-9.2-6.9-23-13.8-34.6-16.1L777,197.6l-20.8-21
c-6.9,2.2-16.1,4.7-23,9.2c-11.6,4.7-18.5,9.2-23,13.8c-4.7,3.3-14.3,10.9-25.5,23.4c24.6,25.5,43.3,60.5,47.3,113.4
c-0.2-0.2-0.2,2.5,0,6c16.1,9.6,27.5,28.1,27.5,48.4s-10.5,38-26.6,47.8c29.9,12.9,64.3,51.1,67.2,126.8c1.1,28.6-15.9,31-21,33.5
v105.6c0,20.8,16.1,36.8,36.8,36.8c20.8,0,36.8-16.1,36.8-36.8V540.9l4.7-161.4v-57.6c9.2,20.8,13.8,48.4,13.8,83.1
c0,16.1,11.6,27.7,27.7,27.7c16.1,0,27.7-11.6,27.7-27.7C926.9,257.2,837,197.4,832.3,195.1z"/>
</g>
</g>
</svg>