<svg class="cal60" viewBox="0 0 47.4 45">
<g>
	<g id="_x32_23._Calender_1_">
		<g>
			<path fill="#FFFFFF" d="M35,9.5c1.3,0,2.3-1,2.3-2.3V2.5c0-1.3-1-2.3-2.3-2.3c-1.3,0-2.3,1-2.3,2.3v4.7C32.6,8.5,33.7,9.5,35,9.5
				z M30.3,4.9h-14v4.7h14V4.9z M42,4.9h-2.3v4.7H42v30.3H4.7V9.5H7V4.9H4.7C2.1,4.9,0,7,0,9.5v30.3c0,2.6,2.1,4.7,4.7,4.7H42
				c2.6,0,4.7-2.1,4.7-4.7V9.5C46.6,7,44.5,4.9,42,4.9z M11.7,9.5c1.3,0,2.3-1,2.3-2.3V2.5c0-1.3-1-2.3-2.3-2.3s-2.3,1-2.3,2.3v4.7
				C9.3,8.5,10.4,9.5,11.7,9.5z"/>
		</g>
	</g>
	<g>
		<path fill="#FFFFFF" d="M19.7,16v2.8h-0.3c-1.5,0-2.8,0.4-3.7,1.2c-0.9,0.8-1.5,1.8-1.7,3.2c0.9-0.9,2-1.4,3.4-1.4
			c1.5,0,2.7,0.5,3.5,1.6c0.9,1.1,1.3,2.4,1.3,4.1c0,1.1-0.2,2.1-0.7,3c-0.5,0.9-1.2,1.6-2,2.1c-0.9,0.5-1.9,0.7-3,0.7
			c-1.8,0-3.2-0.6-4.3-1.9c-1.1-1.2-1.7-2.9-1.7-4.9v-1.2c0-1.8,0.3-3.4,1-4.8c0.7-1.4,1.7-2.5,3-3.3c1.3-0.8,2.8-1.2,4.5-1.2H19.7z
			 M16.4,24.5c-0.5,0-1,0.1-1.5,0.4c-0.4,0.3-0.8,0.7-1,1.1v1c0,1.1,0.2,2,0.7,2.6c0.4,0.6,1.1,0.9,1.9,0.9c0.7,0,1.3-0.3,1.8-0.9
			c0.4-0.6,0.7-1.3,0.7-2.2c0-0.9-0.2-1.7-0.7-2.2C17.7,24.8,17.1,24.5,16.4,24.5z"/>
		<path fill="#FFFFFF" d="M34.9,26.1c0,2.3-0.5,4.1-1.5,5.4c-1,1.2-2.4,1.9-4.3,1.9c-1.9,0-3.3-0.6-4.2-1.8c-1-1.2-1.5-3-1.5-5.2
			v-3.1c0-2.4,0.5-4.1,1.5-5.4c1-1.2,2.4-1.8,4.3-1.8c1.9,0,3.3,0.6,4.2,1.8s1.5,2.9,1.5,5.2V26.1z M31.6,22.7
			c0-1.4-0.2-2.4-0.6-3.1c-0.4-0.6-1-1-1.8-1c-0.8,0-1.4,0.3-1.8,0.9c-0.4,0.6-0.6,1.6-0.6,2.8v4.1c0,1.4,0.2,2.4,0.6,3.1s1,1,1.8,1
			c0.8,0,1.4-0.3,1.8-1c0.4-0.6,0.6-1.6,0.6-2.9V22.7z"/>
	</g>
</g>
</svg>