<svg class="hand" viewBox="0 0 32.7 52.1">
<path fill="#FFFFFF" stroke="#FFFFFF" stroke-width="2" stroke-miterlimit="10" d="M31.4,30.5c0.1-1.6-0.3-3-1.2-4.1
c-1.4-1.6-3.5-2.1-4.4-2.3c-0.6-1.4-1.4-2.4-2.6-2.8c-0.4-0.2-0.9-0.2-1.4-0.2c-0.9,0-1.7,0.2-2.2,0.5c-0.7-1.3-1.6-2.1-2.7-2.3
c-0.3-0.1-0.6-0.1-1-0.1c-1.1,0-2.1,0.4-2.8,0.8c-0.2-1.5-0.6-5.3-0.8-8.1l0,0c-0.5-6.1-0.7-7.7-0.9-8.1C11.1,2.6,9.8,1,8.4,1
c0,0-0.1,0-0.1,0C7.3,1.1,6.1,1.8,5.8,5.2c0,12.2-0.3,21.2-0.4,23c-1.1,0.5-2.1,1.6-2.2,1.7c-3.4,3.8-1.8,6.5-1.8,6.7
c2.7,4.6,8.2,13.8,8.2,13.9l0.1,0.1l0.9-0.6l-0.1-0.1c-0.6-1-5.7-9.4-8.2-13.8C2.3,36,1.1,33.9,4,30.7c0.3-0.4,1.3-1.3,2.1-1.5
l0.4-0.1l0-0.4c0-0.1,0.4-9.5,0.4-23.4c0.2-1.9,0.7-3.1,1.4-3.2h0c0.8,0,1.9,1.3,2.1,2l0.1,0.4l0.1,0c0.2,1,0.5,4.6,0.7,7.5
c0.8,9.2,0.9,9.2,1.4,9.4l0.3,0.1l0.2-0.2c0.1-0.1,1.4-1,2.8-1c0.2,0,0.5,0,0.7,0.1c0.9,0.2,1.7,1,2.3,2.2l0.2,0.5l0.5-0.3
c0,0,1-0.6,2.2-0.6c0.4,0,0.7,0.1,1,0.2c0.9,0.3,1.6,1.2,2,2.5l0.1,0.3l0.4,0c0.1,0,2.6,0.3,4,1.9c0.7,0.9,1,2,0.9,3.3l0,0.1l0,0
c0.1,0.4,1.1,10-2.5,16.9L27,50.6l1,0.3l0.9-3C32.5,40.9,31.6,31.5,31.4,30.5L31.4,30.5z M31.4,30.5"/>
</svg>