<svg class="cal10" viewBox="0 0 47.4 45">
<g>
	<g id="_x32_23._Calender">
		<g>
			<path fill="#FFFFFF" d="M35.5,9.5c1.3,0,2.4-1.1,2.4-2.4V2.4c0-1.3-1.1-2.4-2.4-2.4s-2.4,1.1-2.4,2.4v4.7
				C33.2,8.4,34.2,9.5,35.5,9.5z M30.8,4.7H16.6v4.7h14.2V4.7z M42.6,4.7h-2.4v4.7h2.4v30.8H4.7V9.5h2.4V4.7H4.7
				C2.1,4.7,0,6.9,0,9.5v30.8C0,42.9,2.1,45,4.7,45h37.9c2.6,0,4.7-2.1,4.7-4.7V9.5C47.4,6.9,45.3,4.7,42.6,4.7z M11.8,9.5
				c1.3,0,2.4-1.1,2.4-2.4V2.4c0-1.3-1.1-2.4-2.4-2.4S9.5,1.1,9.5,2.4v4.7C9.5,8.4,10.5,9.5,11.8,9.5z"/>
		</g>
	</g>
	<g>
		<path fill="#FFFFFF" d="M20.2,33.4h-3.4V20.3l-4.1,1.3v-2.7l7.2-2.5h0.4V33.4z"/>
		<path fill="#FFFFFF" d="M34.3,26.3c0,2.4-0.5,4.2-1.5,5.4c-1,1.3-2.4,1.9-4.3,1.9c-1.9,0-3.3-0.6-4.3-1.8c-1-1.2-1.5-3-1.5-5.3
			v-3.2c0-2.4,0.5-4.2,1.5-5.5c1-1.2,2.4-1.9,4.3-1.9c1.9,0,3.3,0.6,4.3,1.8s1.5,3,1.5,5.3V26.3z M30.9,22.9c0-1.4-0.2-2.5-0.6-3.1
			c-0.4-0.6-1-1-1.8-1c-0.8,0-1.4,0.3-1.8,0.9c-0.4,0.6-0.6,1.6-0.6,2.9v4.2c0,1.4,0.2,2.4,0.6,3.1s1,1,1.8,1c0.8,0,1.4-0.3,1.8-1
			c0.4-0.7,0.6-1.6,0.6-3V22.9z"/>
	</g>
</g>
</svg>