<svg class="family" viewBox="0 0 1024 768">
<g>
<path fill="#FFFFFF" d="M367.9,158.7c42.4,0,77-34.6,77-77s-34.6-77-77-77s-77,34.6-77,77S325.5,158.7,367.9,158.7z"/>
<path fill="#FFFFFF" d="M567,158.7c42.4,0,77-34.6,77-77s-34.6-77-77-77c-42.4,0-77,34.6-77,77S524.6,158.7,567,158.7z"/>
<path fill="#FFFFFF" d="M633.6,600.8c-1.3,0-1.3,0-2.7,0c-15.9,0-29.2-13.2-29.2-29.2c0-92.9,58.5-131.5,61.2-132.8
c0,0,1.3,0,1.3-1.3V436c-13.2-10.7-21.2-26.6-21.2-45.1c0-9.4,1.3-17.2,5.4-23.9c-1.3-5.4-2.7-9.4-2.7-13.2v-57.2
c6.7,13.2,12.1,30.6,14.5,53.1c10.7-10.7,25.2-17.2,42.4-17.2c5.4,0,10.7,1.3,15.9,2.7c-14.5-85.1-57.2-119.4-99.6-146
c-1.3-1.3-2.7-1.3-5.4-2.7c-8-5.4-18.5-9.4-27.9-12.1L567,194.5l-18.5-18.5c-10.7,2.7-21.2,8-30.6,13.2c0,0,0,0-1.3,0
c-17.2,10.7-34.6,21.2-49.1,37.3c-14.5-15.9-31.9-27.9-50.5-39.7c-2.7-1.3-5.4-2.7-8-4c-6.7-4-14.5-6.7-22.5-9.4l-18.5,18.5
l-18.5-19.9c-9.4,2.7-19.9,6.7-27.9,12.1c-1.3,0-2.7,1.3-5.4,2.7c-16.5,10.3-32.6,21.9-46.9,36.6c-24.6,25.5-43.3,60.5-47.3,113.4
c8-4,17.2-6.7,26.6-6.7c4.9,0,9.4,0.7,13.8,1.8c3.1,0.9,6.3,1.8,9.2,3.1c3.1,1.3,6,2.7,8.9,4.5c1.3-14.5,4-27.9,8-38.4V346
c10.7,10.7,18.5,25.2,18.5,42.4c0,14.5-5.4,27.9-14.5,38.4c0,1.3,0,2.7,1.3,2.7c0,0.4,0,0.9,0,1.3c0,0.9,0,2.2,0,4v4
c0,0,0,0,1.3,1.3c10.7,8,57.2,46.4,57.2,128.8c0,15.9-13.2,29.2-29.2,29.2c-6.7,0-12.1-1.3-17.2-5.4c0,0,0,1.3-1.3,1.3v142
c0,2.7,0,5.4-1.3,8c6.7,6.7,15.9,10.7,25.2,10.7c19.9,0,35.9-15.9,35.9-34.6V476c1.3,0,2.7,0,4,0c0,0,0,0,1.3,0v245.6
c0,19.9,15.9,34.6,35.9,34.6c19.9,0,35.9-15.9,35.9-34.6V438.9c0-1.3,1.3-1.3,1.3-2.7h1.3c9.4,0,17.2-4,22.5-10.7
c1.3,1.3,4,2.7,6.7,4c-12.1,55.8-26.6,120.8-26.6,134.2c0,12.1,21.2,21.2,50.5,27.9v130.2c0,19.9,15.9,34.6,35.9,34.6
s35.9-15.9,35.9-34.6v-121c1.3,0,4,0,5.4,0v120.8c0,19.9,15.9,34.6,35.9,34.6s35.9-15.9,35.9-34.6v-58.3H628L633.6,600.8z"/>
<path fill="#FFFFFF" d="M297.6,389.8c0-15.6-8.9-29.5-21.9-37.5c-4.2-2.7-8.7-4.7-13.4-6c-3.1-0.9-6.5-1.6-9.8-1.6
c-25.2,0-45.1,19.9-45.1,45.1c0,25.2,19.9,45.1,45.1,45.1c6.7,0,12.9-1.3,18.5-4c5.1-2.2,9.6-5.4,13.4-9.2
C292.7,413.7,297.6,402.3,297.6,389.8z"/>
<path fill="#FFFFFF" d="M252.5,448.1L241.8,436c-6.7,1.3-13.2,5.4-19.9,9.4c0,0-1.3,0-1.3,1.3c-2.7,1.3-54.5,35.9-54.5,119.4
c0,6.5,3.3,11.8,8.5,14.3c1.3,0.7,2.9,1.1,4.7,1.3c0.9,0.2,1.8,0.2,2.9,0.2c9.4,0,15.9-6.7,15.9-15.9c0-18.5,2.7-34.6,8-47.8v55.8
c0,4,1.3,9.4,2.7,13.2c0,1.3,0,1.3,0,2.7v146c0,1.6,0.2,3.1,0.4,4.5c2,9.4,10.5,15.4,20.8,15.4c12.1,0,21.2-9.4,21.2-19.9v-19.9
V612.6c1.1,0,1.3,0,2,0c0.2,0,0.4,0,0.7,0v122.1c0,12.1,9.4,19.9,21.2,19.9c11.8,0,21.2-9.4,21.2-19.9v-146c2.7-5.4,4-10.7,4-17.2
v-61.2c6.7,13.2,10.7,31.9,10.7,54.5c-2.7,13.2,5.4,19.9,14.5,19.9c9.2,0,15.9-6.7,15.9-15.9c0-77-42.4-111.6-51.8-118.1
c-4-2.7-8-5.4-13.2-8c-1.1-0.9-2.5-1.3-3.6-2c-2.9-1.3-6-2.5-9.6-3.3L252.5,448.1z"/>
<path fill="#FFFFFF" d="M703.9,345.8c-25.2,0-45.1,19.9-45.1,45.1c0,25.2,19.9,45.1,45.1,45.1c25.2,0,45.1-19.9,45.1-45.1
C749,365.7,727.8,344.5,703.9,345.8z"/>
<path fill="#FFFFFF" d="M741,452.1c-2.7-2.7-6.7-5.4-13.2-8c-4-2.7-9.4-4-13.2-5.4l-12.1,12.1l-10.7-12.1
c-6.7,1.3-14.5,5.4-19.9,9.4c0,0-1.3,0-1.3,1.3c-2.7,1.3-54.5,35.9-54.5,120.8c0,9.4,6.7,15.9,15.9,15.9c9.4,0,15.9-6.7,15.9-15.9
c0-19.9,2.7-35.9,8-47.8v33.3L640,648.6h18.5v94.2c0,12.1,9.4,21.2,21.2,21.2s21.2-9.4,21.2-21.2v-94.2h2.7v94.2
c0,12.1,9.4,21.2,21.2,21.2s21.2-9.4,21.2-21.2v-94.2h21.2l-15.9-92.9v-39.7c6.7,14.5,10.7,31.9,10.7,55.8
c0,9.4,6.7,15.9,15.9,15.9c9.4,0,15.9-6.7,15.9-15.9C792.8,494.5,750.3,458.8,741,452.1z"/>
</g>
</svg>