<svg class="cal150" viewBox="0 0 47.4 45">
<g>
	<g id="_x32_23._Calender_2_">
		<g>
			<path fill="#FFFFFF" d="M35.4,9c1.3,0,2.4-1.1,2.4-2.4V1.9c0-1.3-1.1-2.4-2.4-2.4c-1.3,0-2.4,1.1-2.4,2.4v4.7
				C33.1,7.9,34.1,9,35.4,9z M30.7,4.2H16.5V9h14.2V4.2z M42.6,4.2h-2.4V9h2.4v30.8H4.6V9H7V4.2H4.6C2,4.2-0.1,6.4-0.1,9v30.8
				c0,2.6,2.1,4.7,4.7,4.7h37.9c2.6,0,4.7-2.1,4.7-4.7V9C47.3,6.4,45.2,4.2,42.6,4.2z M11.8,9c1.3,0,2.4-1.1,2.4-2.4V1.9
				c0-1.3-1.1-2.4-2.4-2.4S9.4,0.6,9.4,1.9v4.7C9.4,7.9,10.4,9,11.8,9z"/>
		</g>
	</g>
	<g>
		<path fill="#FFFFFF" d="M14.7,32h-3V20.6l-3.5,1.1v-2.4l6.2-2.2h0.3V32z"/>
		<path fill="#FFFFFF" d="M17.3,24.7l0.9-7.5h8.4v2.5h-6l-0.4,3.2c0.7-0.4,1.5-0.6,2.3-0.6c1.4,0,2.5,0.4,3.4,1.3
			c0.8,0.9,1.2,2.1,1.2,3.7c0,1-0.2,1.8-0.6,2.6c-0.4,0.8-1,1.3-1.8,1.8C23.9,32,23,32.2,22,32.2c-0.9,0-1.7-0.2-2.5-0.5
			c-0.8-0.4-1.4-0.9-1.8-1.5c-0.4-0.7-0.7-1.4-0.7-2.3h2.9c0.1,0.6,0.3,1.1,0.7,1.4c0.4,0.3,0.9,0.5,1.5,0.5c0.7,0,1.2-0.2,1.6-0.7
			s0.5-1.2,0.5-2c0-0.8-0.2-1.5-0.6-1.9s-1-0.7-1.8-0.7c-0.7,0-1.3,0.2-1.7,0.6l-0.3,0.3L17.3,24.7z"/>
		<path fill="#FFFFFF" d="M38.4,25.8c0,2.1-0.4,3.6-1.3,4.7c-0.9,1.1-2.1,1.6-3.8,1.6c-1.6,0-2.9-0.5-3.7-1.6
			c-0.9-1.1-1.3-2.6-1.3-4.6v-2.7c0-2.1,0.4-3.6,1.3-4.7c0.9-1.1,2.1-1.6,3.7-1.6s2.9,0.5,3.7,1.6s1.3,2.6,1.3,4.6V25.8z M35.4,22.8
			c0-1.2-0.2-2.1-0.5-2.7c-0.3-0.6-0.9-0.8-1.6-0.8c-0.7,0-1.2,0.3-1.5,0.8c-0.3,0.5-0.5,1.4-0.5,2.5v3.6c0,1.2,0.2,2.1,0.5,2.7
			c0.3,0.6,0.9,0.9,1.6,0.9c0.7,0,1.3-0.3,1.6-0.8c0.3-0.6,0.5-1.4,0.5-2.6V22.8z"/>
	</g>
</g>
</svg>