<svg class="percent-dark" viewBox="0 0 44 42">
<g>
	<path fill="#4E4E4E" d="M27.4,23.9c-0.5,0-0.9,0.4-1.1,0.6c-0.4,0.5-0.6,1.2-0.6,1.9c0,0.7,0.2,1.5,0.6,1.9
		c0.2,0.2,0.6,0.6,1.1,0.6c0.5,0,0.9-0.4,1.1-0.6c0.4-0.5,0.6-1.2,0.6-1.9c0-0.7-0.2-1.5-0.6-1.9C28.3,24.2,27.9,23.9,27.4,23.9z"/>
	<path fill="#4E4E4E" d="M16.6,18.1c0.5,0,0.9-0.4,1.1-0.6c0.4-0.5,0.6-1.2,0.6-1.9s-0.2-1.5-0.6-1.9c-0.2-0.2-0.6-0.6-1.1-0.6
		s-0.9,0.4-1.1,0.6c-0.4,0.5-0.6,1.2-0.6,1.9s0.2,1.5,0.6,1.9C15.7,17.8,16.1,18.1,16.6,18.1z"/>
	<path fill="#4E4E4E" d="M43.5,19.9l-5.4-4.1l2-6.5c0.1-0.4,0.1-0.9-0.2-1.3c-0.3-0.4-0.7-0.6-1.1-0.6l-6.8-0.1L29.7,1
		c-0.1-0.4-0.5-0.8-0.9-0.9c-0.4-0.1-0.9-0.1-1.3,0.2L22,4.1l-5.5-3.9c-0.4-0.3-0.8-0.3-1.3-0.2c-0.4,0.1-0.8,0.5-0.9,0.9l-2.2,6.4
		L5.3,7.5c-0.4,0-0.9,0.2-1.1,0.6C3.9,8.4,3.9,8.9,4,9.3l2,6.5l-5.4,4.1C0.2,20.1,0,20.6,0,21c0,0.4,0.2,0.9,0.6,1.1L6,26.2l-2,6.5
		c-0.1,0.4-0.1,0.9,0.2,1.3c0.3,0.4,0.7,0.6,1.1,0.6l6.8,0.1l2.2,6.4c0.1,0.4,0.5,0.8,0.9,0.9c0.4,0.1,0.9,0.1,1.3-0.2l5.5-3.9
		l5.5,3.9c0.2,0.2,0.5,0.3,0.8,0.3c0.1,0,0.3,0,0.4-0.1c0.4-0.1,0.8-0.5,0.9-0.9l2.2-6.4l6.8-0.1c0.4,0,0.9-0.2,1.1-0.6
		c0.3-0.4,0.3-0.8,0.2-1.3l-2-6.5l5.4-4.1c0.4-0.3,0.6-0.7,0.6-1.1C44,20.6,43.8,20.1,43.5,19.9z M16.6,11.1c2,0,3.7,2,3.7,4.5
		s-1.6,4.5-3.7,4.5s-3.7-2-3.7-4.5C12.9,13.1,14.6,11.1,16.6,11.1z M16.4,31c-0.2,0.3-0.6,0.5-1,0.5c-0.3,0-0.5-0.1-0.7-0.2
		c-0.6-0.4-0.7-1.2-0.3-1.7l13.3-18.5c0.2-0.3,0.6-0.5,1-0.5c0.3,0,0.5,0.1,0.7,0.2c0.6,0.4,0.7,1.2,0.3,1.7L16.4,31z M27.4,30.9
		c-2,0-3.7-2-3.7-4.5c0-2.5,1.6-4.5,3.7-4.5s3.7,2,3.7,4.5C31.1,28.9,29.5,30.9,27.4,30.9z"/>
</g>
</svg>