<svg class="minutes-8" viewBox="0 0 50.2 49.8">
<path fill="#FFFFFF" d="M50.2,24.9c0,13.7-11.3,24.9-25.1,24.9S0,38.6,0,24.9C0,11.2,11.3,0,25.1,0c5.1,0,10,1.5,14.1,4.3l3.9-3.8
l3.1,11.8L34.3,9.2L37,6.6c-3.5-2.3-7.6-3.5-11.9-3.5c-12.1,0-22,9.8-22,21.8c0,12,9.9,21.8,22,21.8s22-9.8,22-21.8L50.2,24.9z
M26.1,5.6h-1.5v3.1h1.5V5.6z M26.1,40.5h-1.5v3.1h1.5V40.5z M44.5,25.4v-1.5h-3.1v1.5H44.5z M9.3,25.4v-1.5H6.2v1.5H9.3z
M31.5,19.1c0,1-0.3,1.9-0.8,2.7c-0.5,0.8-1.3,1.4-2.2,1.8c1.1,0.5,1.9,1.1,2.5,1.9c0.6,0.8,0.9,1.8,0.9,2.9c0,1.9-0.6,3.3-1.9,4.3
c-1.3,1-2.9,1.5-5,1.5c-2.1,0-3.7-0.5-5-1.5c-1.3-1-1.9-2.4-1.9-4.3c0-1.1,0.3-2,0.9-2.9c0.6-0.8,1.5-1.5,2.5-1.9
c-0.9-0.4-1.7-1-2.2-1.8c-0.5-0.8-0.8-1.7-0.8-2.7c0-1.8,0.6-3.2,1.8-4.1s2.7-1.5,4.7-1.5c1.9,0,3.5,0.5,4.7,1.5
S31.5,17.3,31.5,19.1z M27.9,28.1c0-0.9-0.3-1.6-0.8-2.2c-0.5-0.5-1.2-0.8-2.1-0.8c-0.9,0-1.5,0.3-2,0.8c-0.5,0.5-0.8,1.3-0.8,2.2
c0,0.9,0.3,1.6,0.8,2.2c0.5,0.5,1.2,0.8,2.1,0.8c0.8,0,1.5-0.3,2-0.8C27.7,29.7,27.9,29,27.9,28.1z M27.5,19.3c0-0.8-0.2-1.5-0.6-2
c-0.4-0.5-1-0.7-1.7-0.7c-0.7,0-1.3,0.2-1.7,0.7c-0.4,0.5-0.6,1.1-0.6,2c0,0.8,0.2,1.5,0.6,2s1,0.7,1.8,0.7c0.7,0,1.3-0.2,1.7-0.7
S27.5,20.1,27.5,19.3z"/>
</svg>