<svg class="age-66" viewBox="0 0 49 44">
<g>
<g>
<path fill="#FFFFFF" d="M20.5,7.9v4.5H20c-2.5,0-4.5,0.7-6,1.9c-1.5,1.2-2.4,3-2.7,5.2c1.5-1.5,3.3-2.2,5.5-2.2
c2.4,0,4.3,0.9,5.7,2.6c1.4,1.7,2.1,4,2.1,6.8c0,1.8-0.4,3.4-1.2,4.9c-0.8,1.4-1.9,2.6-3.3,3.4c-1.4,0.8-3,1.2-4.8,1.2
c-2.9,0-5.2-1-7-3c-1.8-2-2.7-4.7-2.7-8.1v-2c0-3,0.6-5.6,1.7-7.9s2.7-4.1,4.9-5.3c2.1-1.3,4.6-1.9,7.3-1.9H20.5z M15.2,21.7
c-0.9,0-1.7,0.2-2.4,0.7c-0.7,0.5-1.2,1.1-1.6,1.8v1.7c0,1.8,0.4,3.2,1.1,4.3c0.7,1,1.7,1.5,3,1.5c1.2,0,2.1-0.5,2.8-1.4
c0.7-0.9,1.1-2.1,1.1-3.6c0-1.5-0.4-2.7-1.1-3.6C17.4,22.2,16.5,21.7,15.2,21.7z"/>
<path fill="#FFFFFF" d="M41.2,7.9v4.5h-0.5c-2.5,0-4.5,0.7-6,1.9c-1.5,1.2-2.4,3-2.7,5.2c1.5-1.5,3.3-2.2,5.5-2.2
c2.4,0,4.3,0.9,5.7,2.6c1.4,1.7,2.1,4,2.1,6.8c0,1.8-0.4,3.4-1.2,4.9c-0.8,1.4-1.9,2.6-3.3,3.4c-1.4,0.8-3,1.2-4.8,1.2
c-2.9,0-5.2-1-7-3c-1.8-2-2.7-4.7-2.7-8.1v-2c0-3,0.6-5.6,1.7-7.9s2.7-4.1,4.9-5.3c2.1-1.3,4.6-1.9,7.3-1.9H41.2z M35.9,21.7
c-0.9,0-1.7,0.2-2.4,0.7c-0.7,0.5-1.2,1.1-1.6,1.8v1.7c0,1.8,0.4,3.2,1.1,4.3c0.7,1,1.7,1.5,3,1.5c1.2,0,2.1-0.5,2.8-1.4
c0.7-0.9,1.1-2.1,1.1-3.6c0-1.5-0.4-2.7-1.1-3.6C38.1,22.2,37.1,21.7,35.9,21.7z"/>
</g>
<rect x="0.5" y="0.5" fill="none" stroke="#FFFFFF" stroke-miterlimit="10" width="48" height="43"/>
</g>
</svg>