<svg class="cal10deg" viewBox="0 0 47.4 45">
<g>
	<g id="_x32_23._Calender_3_">
		<g>
			<path fill="#FFFFFF" d="M35,10.2c1.3,0,2.3-1,2.3-2.3V3.2c0-1.3-1-2.3-2.3-2.3c-1.3,0-2.3,1-2.3,2.3v4.6
				C32.7,9.1,33.7,10.2,35,10.2z M30.4,5.5H16.4v4.6h13.9V5.5z M42,5.5h-2.3v4.6H42v30.2H4.8V10.2h2.3V5.5H4.8
				c-2.6,0-4.6,2.1-4.6,4.6v30.2c0,2.6,2.1,4.6,4.6,4.6H42c2.6,0,4.6-2.1,4.6-4.6V10.2C46.6,7.6,44.6,5.5,42,5.5z M11.8,10.2
				c1.3,0,2.3-1,2.3-2.3V3.2c0-1.3-1-2.3-2.3-2.3s-2.3,1-2.3,2.3v4.6C9.5,9.1,10.5,10.2,11.8,10.2z"/>
		</g>
	</g>
	<g>
		<path fill="#FFFFFF" d="M15.8,32.8h-3V21.4l-3.5,1.1v-2.4l6.2-2.2h0.3V32.8z"/>
		<path fill="#FFFFFF" d="M28,26.7c0,2.1-0.4,3.6-1.3,4.7c-0.9,1.1-2.1,1.6-3.8,1.6c-1.6,0-2.9-0.5-3.7-1.6
			c-0.9-1.1-1.3-2.6-1.3-4.6v-2.7c0-2.1,0.4-3.7,1.3-4.7c0.9-1.1,2.1-1.6,3.8-1.6c1.6,0,2.9,0.5,3.7,1.6c0.9,1.1,1.3,2.6,1.3,4.6
			V26.7z M25,23.7c0-1.2-0.2-2.1-0.5-2.7c-0.3-0.6-0.9-0.8-1.6-0.8c-0.7,0-1.2,0.3-1.5,0.8c-0.3,0.5-0.5,1.4-0.5,2.5v3.6
			c0,1.2,0.2,2.1,0.5,2.7c0.3,0.6,0.9,0.9,1.6,0.9c0.7,0,1.3-0.3,1.6-0.8c0.3-0.6,0.5-1.4,0.5-2.6V23.7z"/>
		<path fill="#FFFFFF" d="M29.6,21.4c0-1.1,0.3-2,1-2.6c0.7-0.7,1.5-1,2.6-1c1.1,0,1.9,0.3,2.6,1c0.7,0.7,1,1.6,1,2.7v0.7
			c0,1.1-0.3,2-1,2.6c-0.6,0.7-1.5,1-2.6,1c-1.1,0-2-0.3-2.6-1c-0.7-0.7-1-1.6-1-2.7V21.4z M31.4,22.2c0,0.7,0.2,1.2,0.5,1.6
			c0.3,0.4,0.8,0.6,1.3,0.6c0.5,0,1-0.2,1.3-0.6c0.3-0.4,0.5-0.9,0.5-1.5v-0.8c0-0.7-0.2-1.2-0.5-1.6s-0.7-0.6-1.3-0.6
			c-0.5,0-1,0.2-1.3,0.6c-0.3,0.4-0.5,0.9-0.5,1.6V22.2z"/>
	</g>
</g>
</svg>