<svg class="age-75" viewBox="0 0 49 44">
<g>
<path fill="#FFFFFF" d="M24.6,10.7L14.1,35H8.4l10.6-22.9H5.4V7.7h19.3V10.7z"/>
<path fill="#FFFFFF" d="M26.6,21.6l1.6-13.9h15.3v4.5H32.6l-0.7,5.9c1.3-0.7,2.7-1,4.1-1c2.6,0,4.6,0.8,6.1,2.4s2.2,3.9,2.2,6.8
c0,1.8-0.4,3.3-1.1,4.7c-0.7,1.4-1.8,2.5-3.2,3.2s-3,1.2-4.9,1.2c-1.7,0-3.2-0.3-4.6-1c-1.4-0.7-2.5-1.6-3.3-2.8
c-0.8-1.2-1.3-2.6-1.3-4.1h5.4c0.1,1.1,0.5,2,1.2,2.7c0.7,0.6,1.6,0.9,2.7,0.9c1.2,0,2.2-0.4,2.8-1.3c0.7-0.9,1-2.1,1-3.7
c0-1.5-0.4-2.7-1.1-3.6s-1.8-1.2-3.2-1.2c-1.3,0-2.3,0.3-3.1,1l-0.5,0.5L26.6,21.6z"/>
</g>
<rect x="0.5" y="0.5" fill="none" stroke="#FFFFFF" stroke-miterlimit="10" width="47" height="42"/>
</svg>