<?xml version="1.0" encoding="utf-8"?>
<!-- Generator: Adobe Illustrator 16.0.0, SVG Export Plug-In . SVG Version: 6.00 Build 0)  -->
<!DOCTYPE svg PUBLIC "-//W3C//DTD SVG 1.1//EN" "https://www.w3.org/Graphics/SVG/1.1/DTD/svg11.dtd">
<svg version="1.1" id="Capa_1" xmlns="https://www.w3.org/2000/svg" xmlns:xlink="https://www.w3.org/1999/xlink" x="0px" y="0px"
	 width="162.375px" height="236.957px" viewBox="0 0.415 162.375 236.957" enable-background="new 0 0.415 162.375 236.957"
	 xml:space="preserve">
<g>
	<path fill="#FFFFFF" d="M115.104,0.415L81.188,181.834L47.27,0.415H0v236.957h34.184V50.397l34.184,186.974h25.639l34.184-186.974
		v186.974h34.185V0.415H115.104z M156.888,231.938h-23.211V39.152c0,0-9.221-0.518-10.885,10.278
		c-1.662,10.796-33.368,182.507-33.368,182.507H72.951c0,0-31.705-171.711-33.368-182.507S28.697,39.152,28.697,39.152v192.785
		H5.487V5.847h37.219l38.481,205.833L119.669,5.847h37.219V231.938z"/>
</g>
</svg>
