<?xml version="1.0" encoding="utf-8"?>
<!-- Generator: Adobe Illustrator 16.0.0, SVG Export Plug-In . SVG Version: 6.00 Build 0)  -->
<!DOCTYPE svg PUBLIC "-//W3C//DTD SVG 1.1//EN" "https://www.w3.org/Graphics/SVG/1.1/DTD/svg11.dtd">
<svg version="1.1" id="Capa_1" xmlns="https://www.w3.org/2000/svg" xmlns:xlink="https://www.w3.org/1999/xlink" x="0px" y="0px"
	 width="250.833px" height="238.408px" viewBox="0 0 250.833 238.408" enable-background="new 0 0 250.833 238.408"
	 xml:space="preserve">
<g>
	<g>
		<path fill="#FFFFFF" d="M139.789,237.217h-37.992l-30.964-93.624l-30.964,93.624H1.607l41.84-122.234L1.254,1.192h38.302
			l31.277,86.011l31.277-86.011h38.307l-42.199,113.28L139.789,237.217z M105.374,232.266h27.513L92.963,114.394L133.289,6.142
			h-27.713l-34.744,95.546L36.089,6.142H8.37l40.333,108.774l-0.286,0.834L8.533,232.266h27.758l34.541-104.438L105.374,232.266z"/>
		<path fill="#FFFFFF" d="M249.579,237.217H153.85V1.192h37.96v206.315h57.77V237.217z M158.799,232.266h85.83v-19.807h-57.77V6.142
			h-28.061V232.266z"/>
	</g>
</g>
</svg>
